M48
; DRILL file {KiCad 5.1.9+dfsg1-1} date Thu Aug 26 00:34:29 2021
; FORMAT={-:-/ absolute / metric / decimal}
; #@! TF.CreationDate,2021-08-26T00:34:29+02:00
; #@! TF.GenerationSoftware,Kicad,Pcbnew,5.1.9+dfsg1-1
; #@! TF.FileFunction,Plated,1,2,PTH
FMAT,2
METRIC
T1C0.400
T2C0.800
T3C1.000
T4C1.016
T5C1.100
%
G90
G05
T1
X109.22Y-137.16
X109.22Y-138.43
X110.49Y-138.43
X119.126Y-84.074
X123.825Y-101.6
X125.476Y-80.01
X126.746Y-85.09
X128.016Y-101.473
X128.27Y-118.11
X129.286Y-86.106
X130.556Y-84.074
X131.826Y-84.074
X133.096Y-83.058
X135.636Y-107.188
X144.145Y-106.68
X147.066Y-78.613
X147.066Y-87.376
X161.925Y-128.905
X166.116Y-116.713
X167.386Y-78.613
X167.386Y-87.376
X170.815Y-115.57
X177.165Y-74.93
X177.165Y-138.43
X178.435Y-74.93
X178.435Y-76.2
X178.435Y-137.16
X178.435Y-138.43
T2
X112.054Y-102.489
X112.522Y-122.174
X112.522Y-124.674
X114.554Y-102.489
X119.126Y-75.946
X119.126Y-91.186
X119.126Y-94.742
X119.126Y-109.982
X121.666Y-75.946
X121.666Y-91.186
X121.666Y-94.742
X121.666Y-109.982
X124.206Y-75.946
X124.206Y-91.186
X124.206Y-94.742
X124.206Y-109.982
X126.746Y-75.946
X126.746Y-91.186
X126.746Y-94.742
X126.746Y-109.982
X129.286Y-75.946
X129.286Y-91.186
X129.286Y-94.742
X129.286Y-109.982
X131.318Y-132.08
X131.826Y-75.946
X131.826Y-91.186
X131.826Y-94.742
X131.826Y-109.982
X134.366Y-75.946
X134.366Y-91.186
X134.366Y-94.742
X134.366Y-109.982
X136.906Y-75.946
X136.906Y-91.186
X136.906Y-94.742
X136.906Y-109.982
X139.446Y-75.946
X139.446Y-91.186
X139.446Y-94.742
X139.446Y-109.982
X141.478Y-132.08
X141.986Y-75.946
X141.986Y-87.376
X141.986Y-91.186
X141.986Y-94.742
X141.986Y-109.982
X142.026Y-80.01
X144.486Y-87.376
X144.526Y-75.946
X144.526Y-80.01
X144.526Y-91.186
X144.526Y-94.742
X144.526Y-109.982
X147.066Y-75.946
X147.066Y-91.186
X147.066Y-94.742
X147.066Y-109.982
X149.606Y-75.946
X149.606Y-91.186
X149.606Y-94.742
X149.606Y-109.982
X152.146Y-75.946
X152.146Y-91.186
X152.146Y-94.742
X152.146Y-109.982
X154.686Y-75.946
X154.686Y-91.186
X154.686Y-94.742
X154.686Y-109.982
X157.226Y-75.946
X157.226Y-91.186
X157.226Y-94.742
X157.226Y-109.982
X159.766Y-75.946
X159.766Y-91.186
X159.766Y-94.742
X159.766Y-109.982
X162.306Y-75.946
X162.306Y-91.186
X162.306Y-94.742
X162.306Y-109.982
X164.846Y-75.946
X164.846Y-91.186
X164.846Y-94.742
X164.846Y-109.982
X167.386Y-75.946
X167.386Y-91.186
X167.386Y-94.742
X167.386Y-109.982
X173.99Y-100.965
X173.99Y-111.125
X173.99Y-116.078
X173.99Y-118.618
X173.99Y-121.158
T3
X112.014Y-77.47
X113.284Y-94.869
X113.284Y-97.409
X113.538Y-107.696
X113.538Y-110.236
X113.538Y-112.776
X113.538Y-115.316
X114.554Y-77.47
X119.126Y-98.552
X119.126Y-113.792
X120.65Y-118.872
X120.65Y-126.492
X121.666Y-98.552
X121.666Y-113.792
X124.206Y-98.552
X124.206Y-113.792
X126.746Y-98.552
X126.746Y-113.792
X129.286Y-98.552
X129.286Y-113.792
X131.826Y-98.552
X131.826Y-113.792
X134.366Y-98.552
X134.366Y-113.792
X135.89Y-118.872
X135.89Y-126.492
X136.906Y-98.552
X136.906Y-113.792
X139.446Y-98.552
X139.446Y-113.792
X141.986Y-98.552
X141.986Y-113.792
X141.986Y-121.412
X141.986Y-123.952
X144.526Y-98.552
X144.526Y-113.792
X144.526Y-121.412
X144.526Y-123.952
X147.066Y-98.552
X147.066Y-113.792
X147.066Y-121.412
X147.066Y-123.952
X149.606Y-98.552
X149.606Y-113.792
X149.606Y-121.412
X149.606Y-123.952
X152.146Y-98.552
X152.146Y-113.792
X152.146Y-121.412
X152.146Y-123.952
X154.686Y-98.552
X154.686Y-113.792
X154.686Y-121.412
X154.686Y-123.952
X157.226Y-98.552
X157.226Y-113.792
X157.226Y-121.412
X157.226Y-123.952
X159.766Y-98.552
X159.766Y-113.792
X159.766Y-121.412
X159.766Y-123.952
X162.306Y-98.552
X162.306Y-113.792
X164.846Y-98.552
X164.846Y-113.792
X167.386Y-98.552
X167.386Y-113.792
X173.228Y-130.556
X173.228Y-133.096
X173.228Y-135.636
X177.292Y-103.505
X177.292Y-106.045
X177.292Y-108.585
T4
X116.586Y-133.35
X116.586Y-135.89
X119.126Y-133.35
X119.126Y-135.89
X121.666Y-133.35
X121.666Y-135.89
X173.228Y-83.566
X173.228Y-86.106
X173.228Y-88.646
X173.228Y-91.186
X173.228Y-93.726
X175.768Y-83.566
X175.768Y-86.106
X175.768Y-88.646
X175.768Y-91.186
X175.768Y-93.726
T5
X111.252Y-84.432
X111.252Y-90.932
X115.752Y-84.432
X115.752Y-90.932
T0
M30
