G04 #@! TF.FileFunction,Legend,Top*
%FSLAX46Y46*%
G04 Gerber Fmt 4.6, Leading zero omitted, Abs format (unit mm)*
G04 Created by KiCad (PCBNEW 4.0.7-e2-6376~60~ubuntu17.10.1) date Sun May  6 20:40:39 2018*
%MOMM*%
%LPD*%
G01*
G04 APERTURE LIST*
%ADD10C,0.100000*%
%ADD11C,0.300000*%
%ADD12C,0.304800*%
%ADD13C,0.381000*%
%ADD14C,0.120000*%
%ADD15C,0.254000*%
%ADD16C,0.299720*%
%ADD17C,0.150000*%
%ADD18C,0.010000*%
%ADD19C,0.203200*%
%ADD20C,0.285750*%
%ADD21C,0.287020*%
G04 APERTURE END LIST*
D10*
D11*
X128755714Y-136838571D02*
X129112857Y-137838571D01*
X129469999Y-136838571D01*
X130255714Y-137838571D02*
X130112856Y-137767143D01*
X130041428Y-137695714D01*
X129969999Y-137552857D01*
X129969999Y-137124286D01*
X130041428Y-136981429D01*
X130112856Y-136910000D01*
X130255714Y-136838571D01*
X130469999Y-136838571D01*
X130612856Y-136910000D01*
X130684285Y-136981429D01*
X130755714Y-137124286D01*
X130755714Y-137552857D01*
X130684285Y-137695714D01*
X130612856Y-137767143D01*
X130469999Y-137838571D01*
X130255714Y-137838571D01*
X131398571Y-136838571D02*
X131398571Y-137838571D01*
X131398571Y-136981429D02*
X131469999Y-136910000D01*
X131612857Y-136838571D01*
X131827142Y-136838571D01*
X131969999Y-136910000D01*
X132041428Y-137052857D01*
X132041428Y-137838571D01*
X133684285Y-136838571D02*
X134255714Y-136838571D01*
X133898571Y-136338571D02*
X133898571Y-137624286D01*
X133969999Y-137767143D01*
X134112857Y-137838571D01*
X134255714Y-137838571D01*
X134755714Y-137838571D02*
X134755714Y-136338571D01*
X135398571Y-137838571D02*
X135398571Y-137052857D01*
X135327142Y-136910000D01*
X135184285Y-136838571D01*
X134970000Y-136838571D01*
X134827142Y-136910000D01*
X134755714Y-136981429D01*
X136327143Y-137838571D02*
X136184285Y-137767143D01*
X136112857Y-137695714D01*
X136041428Y-137552857D01*
X136041428Y-137124286D01*
X136112857Y-136981429D01*
X136184285Y-136910000D01*
X136327143Y-136838571D01*
X136541428Y-136838571D01*
X136684285Y-136910000D01*
X136755714Y-136981429D01*
X136827143Y-137124286D01*
X136827143Y-137552857D01*
X136755714Y-137695714D01*
X136684285Y-137767143D01*
X136541428Y-137838571D01*
X136327143Y-137838571D01*
X137470000Y-137838571D02*
X137470000Y-136838571D01*
X137470000Y-137124286D02*
X137541428Y-136981429D01*
X137612857Y-136910000D01*
X137755714Y-136838571D01*
X137898571Y-136838571D01*
X138327142Y-137767143D02*
X138469999Y-137838571D01*
X138755714Y-137838571D01*
X138898571Y-137767143D01*
X138969999Y-137624286D01*
X138969999Y-137552857D01*
X138898571Y-137410000D01*
X138755714Y-137338571D01*
X138541428Y-137338571D01*
X138398571Y-137267143D01*
X138327142Y-137124286D01*
X138327142Y-137052857D01*
X138398571Y-136910000D01*
X138541428Y-136838571D01*
X138755714Y-136838571D01*
X138898571Y-136910000D01*
X139398571Y-136838571D02*
X139970000Y-136838571D01*
X139612857Y-136338571D02*
X139612857Y-137624286D01*
X139684285Y-137767143D01*
X139827143Y-137838571D01*
X139970000Y-137838571D01*
X141041428Y-137767143D02*
X140898571Y-137838571D01*
X140612857Y-137838571D01*
X140470000Y-137767143D01*
X140398571Y-137624286D01*
X140398571Y-137052857D01*
X140470000Y-136910000D01*
X140612857Y-136838571D01*
X140898571Y-136838571D01*
X141041428Y-136910000D01*
X141112857Y-137052857D01*
X141112857Y-137195714D01*
X140398571Y-137338571D01*
X141755714Y-136838571D02*
X141755714Y-137838571D01*
X141755714Y-136981429D02*
X141827142Y-136910000D01*
X141970000Y-136838571D01*
X142184285Y-136838571D01*
X142327142Y-136910000D01*
X142398571Y-137052857D01*
X142398571Y-137838571D01*
X144255714Y-137838571D02*
X144255714Y-136338571D01*
X144398571Y-137267143D02*
X144827142Y-137838571D01*
X144827142Y-136838571D02*
X144255714Y-137410000D01*
X146112857Y-137838571D02*
X146112857Y-137052857D01*
X146041428Y-136910000D01*
X145898571Y-136838571D01*
X145612857Y-136838571D01*
X145470000Y-136910000D01*
X146112857Y-137767143D02*
X145970000Y-137838571D01*
X145612857Y-137838571D01*
X145470000Y-137767143D01*
X145398571Y-137624286D01*
X145398571Y-137481429D01*
X145470000Y-137338571D01*
X145612857Y-137267143D01*
X145970000Y-137267143D01*
X146112857Y-137195714D01*
X146612857Y-136838571D02*
X147184286Y-136838571D01*
X146827143Y-136338571D02*
X146827143Y-137624286D01*
X146898571Y-137767143D01*
X147041429Y-137838571D01*
X147184286Y-137838571D01*
X147470000Y-136838571D02*
X148041429Y-136838571D01*
X147684286Y-136338571D02*
X147684286Y-137624286D01*
X147755714Y-137767143D01*
X147898572Y-137838571D01*
X148041429Y-137838571D01*
X149184286Y-137838571D02*
X149184286Y-137052857D01*
X149112857Y-136910000D01*
X148970000Y-136838571D01*
X148684286Y-136838571D01*
X148541429Y-136910000D01*
X149184286Y-137767143D02*
X149041429Y-137838571D01*
X148684286Y-137838571D01*
X148541429Y-137767143D01*
X148470000Y-137624286D01*
X148470000Y-137481429D01*
X148541429Y-137338571D01*
X148684286Y-137267143D01*
X149041429Y-137267143D01*
X149184286Y-137195714D01*
X149898572Y-136838571D02*
X149898572Y-137838571D01*
X149898572Y-136981429D02*
X149970000Y-136910000D01*
X150112858Y-136838571D01*
X150327143Y-136838571D01*
X150470000Y-136910000D01*
X150541429Y-137052857D01*
X150541429Y-137838571D01*
X151827143Y-137767143D02*
X151684286Y-137838571D01*
X151398572Y-137838571D01*
X151255715Y-137767143D01*
X151184286Y-137624286D01*
X151184286Y-137052857D01*
X151255715Y-136910000D01*
X151398572Y-136838571D01*
X151684286Y-136838571D01*
X151827143Y-136910000D01*
X151898572Y-137052857D01*
X151898572Y-137195714D01*
X151184286Y-137338571D01*
X152541429Y-137838571D02*
X152541429Y-136338571D01*
X152684286Y-137267143D02*
X153112857Y-137838571D01*
X153112857Y-136838571D02*
X152541429Y-137410000D01*
X129025716Y-135298571D02*
X128168573Y-135298571D01*
X128597145Y-135298571D02*
X128597145Y-133798571D01*
X128454288Y-134012857D01*
X128311430Y-134155714D01*
X128168573Y-134227143D01*
X130382859Y-133798571D02*
X129668573Y-133798571D01*
X129597144Y-134512857D01*
X129668573Y-134441429D01*
X129811430Y-134370000D01*
X130168573Y-134370000D01*
X130311430Y-134441429D01*
X130382859Y-134512857D01*
X130454287Y-134655714D01*
X130454287Y-135012857D01*
X130382859Y-135155714D01*
X130311430Y-135227143D01*
X130168573Y-135298571D01*
X129811430Y-135298571D01*
X129668573Y-135227143D01*
X129597144Y-135155714D01*
X131740001Y-134298571D02*
X131740001Y-135298571D01*
X131382858Y-133727143D02*
X131025715Y-134798571D01*
X131954287Y-134798571D01*
X133311429Y-135298571D02*
X132454286Y-135298571D01*
X132882858Y-135298571D02*
X132882858Y-133798571D01*
X132740001Y-134012857D01*
X132597143Y-134155714D01*
X132454286Y-134227143D01*
X133954286Y-134727143D02*
X135097143Y-134727143D01*
X135811429Y-135298571D02*
X135811429Y-134298571D01*
X135811429Y-134584286D02*
X135882857Y-134441429D01*
X135954286Y-134370000D01*
X136097143Y-134298571D01*
X136240000Y-134298571D01*
X137311428Y-135227143D02*
X137168571Y-135298571D01*
X136882857Y-135298571D01*
X136740000Y-135227143D01*
X136668571Y-135084286D01*
X136668571Y-134512857D01*
X136740000Y-134370000D01*
X136882857Y-134298571D01*
X137168571Y-134298571D01*
X137311428Y-134370000D01*
X137382857Y-134512857D01*
X137382857Y-134655714D01*
X136668571Y-134798571D01*
X138025714Y-135298571D02*
X138025714Y-133798571D01*
X138025714Y-134370000D02*
X138168571Y-134298571D01*
X138454285Y-134298571D01*
X138597142Y-134370000D01*
X138668571Y-134441429D01*
X138740000Y-134584286D01*
X138740000Y-135012857D01*
X138668571Y-135155714D01*
X138597142Y-135227143D01*
X138454285Y-135298571D01*
X138168571Y-135298571D01*
X138025714Y-135227143D01*
X140025714Y-134298571D02*
X140025714Y-135298571D01*
X139382857Y-134298571D02*
X139382857Y-135084286D01*
X139454285Y-135227143D01*
X139597143Y-135298571D01*
X139811428Y-135298571D01*
X139954285Y-135227143D01*
X140025714Y-135155714D01*
X140740000Y-135298571D02*
X140740000Y-134298571D01*
X140740000Y-133798571D02*
X140668571Y-133870000D01*
X140740000Y-133941429D01*
X140811428Y-133870000D01*
X140740000Y-133798571D01*
X140740000Y-133941429D01*
X141668572Y-135298571D02*
X141525714Y-135227143D01*
X141454286Y-135084286D01*
X141454286Y-133798571D01*
X142882857Y-135298571D02*
X142882857Y-133798571D01*
X142882857Y-135227143D02*
X142740000Y-135298571D01*
X142454286Y-135298571D01*
X142311428Y-135227143D01*
X142240000Y-135155714D01*
X142168571Y-135012857D01*
X142168571Y-134584286D01*
X142240000Y-134441429D01*
X142311428Y-134370000D01*
X142454286Y-134298571D01*
X142740000Y-134298571D01*
X142882857Y-134370000D01*
X145597143Y-135298571D02*
X145097143Y-134584286D01*
X144740000Y-135298571D02*
X144740000Y-133798571D01*
X145311428Y-133798571D01*
X145454286Y-133870000D01*
X145525714Y-133941429D01*
X145597143Y-134084286D01*
X145597143Y-134298571D01*
X145525714Y-134441429D01*
X145454286Y-134512857D01*
X145311428Y-134584286D01*
X144740000Y-134584286D01*
X146811428Y-135227143D02*
X146668571Y-135298571D01*
X146382857Y-135298571D01*
X146240000Y-135227143D01*
X146168571Y-135084286D01*
X146168571Y-134512857D01*
X146240000Y-134370000D01*
X146382857Y-134298571D01*
X146668571Y-134298571D01*
X146811428Y-134370000D01*
X146882857Y-134512857D01*
X146882857Y-134655714D01*
X146168571Y-134798571D01*
X147382857Y-134298571D02*
X147740000Y-135298571D01*
X148097142Y-134298571D01*
X148668571Y-135155714D02*
X148739999Y-135227143D01*
X148668571Y-135298571D01*
X148597142Y-135227143D01*
X148668571Y-135155714D01*
X148668571Y-135298571D01*
X149382857Y-135155714D02*
X149454285Y-135227143D01*
X149382857Y-135298571D01*
X149311428Y-135227143D01*
X149382857Y-135155714D01*
X149382857Y-135298571D01*
X149382857Y-134370000D02*
X149454285Y-134441429D01*
X149382857Y-134512857D01*
X149311428Y-134441429D01*
X149382857Y-134370000D01*
X149382857Y-134512857D01*
X152025714Y-135298571D02*
X151168571Y-135298571D01*
X151597143Y-135298571D02*
X151597143Y-133798571D01*
X151454286Y-134012857D01*
X151311428Y-134155714D01*
X151168571Y-134227143D01*
X152668571Y-135155714D02*
X152739999Y-135227143D01*
X152668571Y-135298571D01*
X152597142Y-135227143D01*
X152668571Y-135155714D01*
X152668571Y-135298571D01*
X153240000Y-133798571D02*
X154168571Y-133798571D01*
X153668571Y-134370000D01*
X153882857Y-134370000D01*
X154025714Y-134441429D01*
X154097143Y-134512857D01*
X154168571Y-134655714D01*
X154168571Y-135012857D01*
X154097143Y-135155714D01*
X154025714Y-135227143D01*
X153882857Y-135298571D01*
X153454285Y-135298571D01*
X153311428Y-135227143D01*
X153240000Y-135155714D01*
X154811428Y-135155714D02*
X154882856Y-135227143D01*
X154811428Y-135298571D01*
X154739999Y-135227143D01*
X154811428Y-135155714D01*
X154811428Y-135298571D01*
X155382857Y-133798571D02*
X156311428Y-133798571D01*
X155811428Y-134370000D01*
X156025714Y-134370000D01*
X156168571Y-134441429D01*
X156240000Y-134512857D01*
X156311428Y-134655714D01*
X156311428Y-135012857D01*
X156240000Y-135155714D01*
X156168571Y-135227143D01*
X156025714Y-135298571D01*
X155597142Y-135298571D01*
X155454285Y-135227143D01*
X155382857Y-135155714D01*
X111081429Y-120232857D02*
X111010000Y-120161428D01*
X110938571Y-120018571D01*
X110938571Y-119661428D01*
X111010000Y-119518571D01*
X111081429Y-119447142D01*
X111224286Y-119375714D01*
X111367143Y-119375714D01*
X111581429Y-119447142D01*
X112438571Y-120304285D01*
X112438571Y-119375714D01*
X111438571Y-118090000D02*
X112438571Y-118090000D01*
X110867143Y-118447143D02*
X111938571Y-118804286D01*
X111938571Y-117875714D01*
X112438571Y-117304286D02*
X110938571Y-117304286D01*
X112010000Y-116804286D01*
X110938571Y-116304286D01*
X112438571Y-116304286D01*
X112438571Y-115590000D02*
X110938571Y-115590000D01*
X111652857Y-115590000D02*
X111652857Y-114732857D01*
X112438571Y-114732857D02*
X110938571Y-114732857D01*
X111438571Y-114161428D02*
X111438571Y-113375714D01*
X112438571Y-114161428D01*
X112438571Y-113375714D01*
X112438571Y-95015714D02*
X112438571Y-95730000D01*
X110938571Y-95730000D01*
X112295714Y-93658571D02*
X112367143Y-93730000D01*
X112438571Y-93944286D01*
X112438571Y-94087143D01*
X112367143Y-94301428D01*
X112224286Y-94444286D01*
X112081429Y-94515714D01*
X111795714Y-94587143D01*
X111581429Y-94587143D01*
X111295714Y-94515714D01*
X111152857Y-94444286D01*
X111010000Y-94301428D01*
X110938571Y-94087143D01*
X110938571Y-93944286D01*
X111010000Y-93730000D01*
X111081429Y-93658571D01*
X112438571Y-93015714D02*
X110938571Y-93015714D01*
X110938571Y-92658571D01*
X111010000Y-92444286D01*
X111152857Y-92301428D01*
X111295714Y-92230000D01*
X111581429Y-92158571D01*
X111795714Y-92158571D01*
X112081429Y-92230000D01*
X112224286Y-92301428D01*
X112367143Y-92444286D01*
X112438571Y-92658571D01*
X112438571Y-93015714D01*
X112438571Y-72584285D02*
X110938571Y-72584285D01*
X112367143Y-71941428D02*
X112438571Y-71727142D01*
X112438571Y-71369999D01*
X112367143Y-71227142D01*
X112295714Y-71155713D01*
X112152857Y-71084285D01*
X112010000Y-71084285D01*
X111867143Y-71155713D01*
X111795714Y-71227142D01*
X111724286Y-71369999D01*
X111652857Y-71655713D01*
X111581429Y-71798571D01*
X111510000Y-71869999D01*
X111367143Y-71941428D01*
X111224286Y-71941428D01*
X111081429Y-71869999D01*
X111010000Y-71798571D01*
X110938571Y-71655713D01*
X110938571Y-71298571D01*
X111010000Y-71084285D01*
X112438571Y-70441428D02*
X110938571Y-70441428D01*
X110938571Y-69870000D01*
X111010000Y-69727142D01*
X111081429Y-69655714D01*
X111224286Y-69584285D01*
X111438571Y-69584285D01*
X111581429Y-69655714D01*
X111652857Y-69727142D01*
X111724286Y-69870000D01*
X111724286Y-70441428D01*
D12*
X158800800Y-101600000D02*
X163830000Y-101600000D01*
X163830000Y-101600000D02*
X163830000Y-104140000D01*
X163830000Y-104140000D02*
X158750000Y-104140000D01*
X158750000Y-104140000D02*
X158750000Y-101600000D01*
X158750000Y-102235000D02*
X159385000Y-101600000D01*
X157429200Y-81280000D02*
X152400000Y-81280000D01*
X152400000Y-81280000D02*
X152400000Y-78740000D01*
X152400000Y-78740000D02*
X157480000Y-78740000D01*
X157480000Y-78740000D02*
X157480000Y-81280000D01*
X157480000Y-80645000D02*
X156845000Y-81280000D01*
X115570000Y-129590800D02*
X115570000Y-134620000D01*
X115570000Y-134620000D02*
X113030000Y-134620000D01*
X113030000Y-134620000D02*
X113030000Y-129540000D01*
X113030000Y-129540000D02*
X115570000Y-129540000D01*
X114935000Y-129540000D02*
X115570000Y-130175000D01*
D13*
X180500020Y-70860920D02*
X180500020Y-75260200D01*
X180500020Y-46659800D02*
X180500020Y-51059080D01*
X180500020Y-51059080D02*
G75*
G03X170599100Y-60960000I0J-9900920D01*
G01*
X170599100Y-60960000D02*
G75*
G03X180500020Y-70860920I9900920J0D01*
G01*
X161698940Y-54559200D02*
X161698940Y-67160140D01*
X163200080Y-52659280D02*
X180500020Y-50960020D01*
X163202620Y-52659280D02*
G75*
G03X161698940Y-54559200I198120J-1701800D01*
G01*
X163400740Y-69260720D02*
X180500020Y-70959980D01*
X161698940Y-67162680D02*
G75*
G03X163400740Y-69260720I1899920J-198120D01*
G01*
X180500020Y-75260200D02*
X151698960Y-75260200D01*
X151698960Y-75260200D02*
X151698960Y-46659800D01*
X151698960Y-46659800D02*
X180500020Y-46659800D01*
D14*
X143720000Y-60480000D02*
X145840000Y-60480000D01*
X145840000Y-60480000D02*
X145840000Y-56360000D01*
X145840000Y-56360000D02*
X143720000Y-56360000D01*
X143720000Y-56360000D02*
X143720000Y-60480000D01*
X144780000Y-61250000D02*
X144780000Y-60480000D01*
X144780000Y-55590000D02*
X144780000Y-56360000D01*
X143720000Y-59820000D02*
X145840000Y-59820000D01*
X140760000Y-56360000D02*
X138640000Y-56360000D01*
X138640000Y-56360000D02*
X138640000Y-60480000D01*
X138640000Y-60480000D02*
X140760000Y-60480000D01*
X140760000Y-60480000D02*
X140760000Y-56360000D01*
X139700000Y-55590000D02*
X139700000Y-56360000D01*
X139700000Y-61250000D02*
X139700000Y-60480000D01*
X140760000Y-57020000D02*
X138640000Y-57020000D01*
D15*
X132588000Y-86360000D02*
X177292000Y-86360000D01*
X177292000Y-96520000D02*
X132588000Y-96520000D01*
D13*
X129540000Y-100330000D02*
X180340000Y-100330000D01*
X181356000Y-98552000D02*
X128524000Y-98552000D01*
X129540000Y-82550000D02*
X180340000Y-82550000D01*
X181356000Y-84328000D02*
X128524000Y-84328000D01*
X181356000Y-98552000D02*
X181356000Y-84328000D01*
X180340000Y-82550000D02*
X180340000Y-100330000D01*
X129540000Y-100330000D02*
X129540000Y-82550000D01*
X128524000Y-84328000D02*
X128524000Y-98552000D01*
D15*
X153670000Y-86360000D02*
X153670000Y-96520000D01*
X156210000Y-96520000D02*
X156210000Y-86360000D01*
X177292000Y-86360000D02*
X177292000Y-96520000D01*
X132588000Y-86360000D02*
X132588000Y-96520000D01*
D13*
X129540000Y-90170000D02*
X129540000Y-92710000D01*
D15*
X130810000Y-91440000D02*
G75*
G03X129540000Y-90170000I-1270000J0D01*
G01*
X129540000Y-92710000D02*
G75*
G03X130810000Y-91440000I0J1270000D01*
G01*
D13*
X129540000Y-92710000D02*
X128524000Y-92710000D01*
X129540000Y-90170000D02*
X128524000Y-90170000D01*
D12*
X113410000Y-63120000D02*
X113410000Y-79120000D01*
X122810000Y-79120000D02*
X122810000Y-63120000D01*
X122810000Y-63120000D02*
X113410000Y-63120000D01*
X122810000Y-79120000D02*
X113410000Y-79120000D01*
D16*
X113410000Y-73420000D02*
X114810000Y-73420000D01*
X114810000Y-73420000D02*
X114810000Y-68820000D01*
X114810000Y-68820000D02*
X113410000Y-68820000D01*
D14*
X139760000Y-105470000D02*
X139760000Y-102810000D01*
X132080000Y-105470000D02*
X139760000Y-105470000D01*
X132080000Y-102810000D02*
X139760000Y-102810000D01*
X132080000Y-105470000D02*
X132080000Y-102810000D01*
X130810000Y-105470000D02*
X129480000Y-105470000D01*
X129480000Y-105470000D02*
X129480000Y-104140000D01*
X114240000Y-58360000D02*
X114240000Y-61020000D01*
X116840000Y-58360000D02*
X114240000Y-58360000D01*
X116840000Y-61020000D02*
X114240000Y-61020000D01*
X116840000Y-58360000D02*
X116840000Y-61020000D01*
X118110000Y-58360000D02*
X119440000Y-58360000D01*
X119440000Y-58360000D02*
X119440000Y-59690000D01*
X159960000Y-133290000D02*
X159960000Y-135950000D01*
X162560000Y-133290000D02*
X159960000Y-133290000D01*
X162560000Y-135950000D02*
X159960000Y-135950000D01*
X162560000Y-133290000D02*
X162560000Y-135950000D01*
X163830000Y-133290000D02*
X165160000Y-133290000D01*
X165160000Y-133290000D02*
X165160000Y-134620000D01*
X158690000Y-81340000D02*
X161350000Y-81340000D01*
X158690000Y-81280000D02*
X158690000Y-81340000D01*
X161350000Y-81280000D02*
X161350000Y-81340000D01*
X158690000Y-81280000D02*
X161350000Y-81280000D01*
X158690000Y-80010000D02*
X158690000Y-78680000D01*
X158690000Y-78680000D02*
X160020000Y-78680000D01*
D12*
X113410000Y-83580000D02*
X113410000Y-104380000D01*
X122810000Y-104380000D02*
X122810000Y-83580000D01*
X122810000Y-83580000D02*
X113410000Y-83580000D01*
X122810000Y-104380000D02*
X113410000Y-104380000D01*
D16*
X113410000Y-96280000D02*
X114810000Y-96280000D01*
X114810000Y-96280000D02*
X114810000Y-91680000D01*
X114810000Y-91680000D02*
X113410000Y-91680000D01*
D15*
X177292000Y-121920000D02*
X132588000Y-121920000D01*
X132588000Y-111760000D02*
X177292000Y-111760000D01*
D13*
X180340000Y-107950000D02*
X129540000Y-107950000D01*
X128524000Y-109728000D02*
X181356000Y-109728000D01*
X180340000Y-125730000D02*
X129540000Y-125730000D01*
X128524000Y-123952000D02*
X181356000Y-123952000D01*
X128524000Y-109728000D02*
X128524000Y-123952000D01*
X129540000Y-125730000D02*
X129540000Y-107950000D01*
X180340000Y-107950000D02*
X180340000Y-125730000D01*
X181356000Y-123952000D02*
X181356000Y-109728000D01*
D15*
X156210000Y-121920000D02*
X156210000Y-111760000D01*
X153670000Y-111760000D02*
X153670000Y-121920000D01*
X132588000Y-121920000D02*
X132588000Y-111760000D01*
X177292000Y-121920000D02*
X177292000Y-111760000D01*
D13*
X180340000Y-118110000D02*
X180340000Y-115570000D01*
D15*
X179070000Y-116840000D02*
G75*
G03X180340000Y-118110000I1270000J0D01*
G01*
X180340000Y-115570000D02*
G75*
G03X179070000Y-116840000I0J-1270000D01*
G01*
D13*
X180340000Y-115570000D02*
X181356000Y-115570000D01*
X180340000Y-118110000D02*
X181356000Y-118110000D01*
D17*
X168275000Y-104140000D02*
X168275000Y-106680000D01*
X168275000Y-106680000D02*
X177165000Y-106680000D01*
X177165000Y-106680000D02*
X177165000Y-104140000D01*
X177165000Y-104140000D02*
X168275000Y-104140000D01*
X168275000Y-104775000D02*
X168910000Y-104140000D01*
X168275000Y-105410000D02*
X167005000Y-105410000D01*
X177165000Y-105410000D02*
X178435000Y-105410000D01*
X136525000Y-44450000D02*
X136525000Y-46990000D01*
X136525000Y-46990000D02*
X145415000Y-46990000D01*
X145415000Y-46990000D02*
X145415000Y-44450000D01*
X145415000Y-44450000D02*
X136525000Y-44450000D01*
X136525000Y-45085000D02*
X137160000Y-44450000D01*
X136525000Y-45720000D02*
X135255000Y-45720000D01*
X145415000Y-45720000D02*
X146685000Y-45720000D01*
X125095000Y-54610000D02*
X125095000Y-57150000D01*
X125095000Y-57150000D02*
X133985000Y-57150000D01*
X133985000Y-57150000D02*
X133985000Y-54610000D01*
X133985000Y-54610000D02*
X125095000Y-54610000D01*
X125095000Y-55245000D02*
X125730000Y-54610000D01*
X125095000Y-55880000D02*
X123825000Y-55880000D01*
X133985000Y-55880000D02*
X135255000Y-55880000D01*
X144145000Y-73660000D02*
X144145000Y-71120000D01*
X144145000Y-71120000D02*
X135255000Y-71120000D01*
X135255000Y-71120000D02*
X135255000Y-73660000D01*
X135255000Y-73660000D02*
X144145000Y-73660000D01*
X144145000Y-73025000D02*
X143510000Y-73660000D01*
X144145000Y-72390000D02*
X145415000Y-72390000D01*
X135255000Y-72390000D02*
X133985000Y-72390000D01*
X127000000Y-93345000D02*
X124460000Y-93345000D01*
X124460000Y-93345000D02*
X124460000Y-102235000D01*
X124460000Y-102235000D02*
X127000000Y-102235000D01*
X127000000Y-102235000D02*
X127000000Y-93345000D01*
X126365000Y-93345000D02*
X127000000Y-93980000D01*
X125730000Y-93345000D02*
X125730000Y-92075000D01*
X125730000Y-102235000D02*
X125730000Y-103505000D01*
X153035000Y-104140000D02*
X153035000Y-101600000D01*
X153035000Y-101600000D02*
X144145000Y-101600000D01*
X144145000Y-101600000D02*
X144145000Y-104140000D01*
X144145000Y-104140000D02*
X153035000Y-104140000D01*
X153035000Y-103505000D02*
X152400000Y-104140000D01*
X153035000Y-102870000D02*
X154305000Y-102870000D01*
X144145000Y-102870000D02*
X142875000Y-102870000D01*
X145415000Y-52070000D02*
X145415000Y-49530000D01*
X145415000Y-49530000D02*
X136525000Y-49530000D01*
X136525000Y-49530000D02*
X136525000Y-52070000D01*
X136525000Y-52070000D02*
X145415000Y-52070000D01*
X145415000Y-51435000D02*
X144780000Y-52070000D01*
X145415000Y-50800000D02*
X146685000Y-50800000D01*
X136525000Y-50800000D02*
X135255000Y-50800000D01*
X133985000Y-60960000D02*
X133985000Y-58420000D01*
X133985000Y-58420000D02*
X125095000Y-58420000D01*
X125095000Y-58420000D02*
X125095000Y-60960000D01*
X125095000Y-60960000D02*
X133985000Y-60960000D01*
X133985000Y-60325000D02*
X133350000Y-60960000D01*
X133985000Y-59690000D02*
X135255000Y-59690000D01*
X125095000Y-59690000D02*
X123825000Y-59690000D01*
X144145000Y-68580000D02*
X144145000Y-66040000D01*
X144145000Y-66040000D02*
X135255000Y-66040000D01*
X135255000Y-66040000D02*
X135255000Y-68580000D01*
X135255000Y-68580000D02*
X144145000Y-68580000D01*
X144145000Y-67945000D02*
X143510000Y-68580000D01*
X144145000Y-67310000D02*
X145415000Y-67310000D01*
X135255000Y-67310000D02*
X133985000Y-67310000D01*
X122555000Y-82550000D02*
X122555000Y-80010000D01*
X122555000Y-80010000D02*
X113665000Y-80010000D01*
X113665000Y-80010000D02*
X113665000Y-82550000D01*
X113665000Y-82550000D02*
X122555000Y-82550000D01*
X122555000Y-81915000D02*
X121920000Y-82550000D01*
X122555000Y-81280000D02*
X123825000Y-81280000D01*
X113665000Y-81280000D02*
X112395000Y-81280000D01*
D13*
X130810000Y-67310000D02*
X130810000Y-77470000D01*
X130810000Y-77470000D02*
X125730000Y-77470000D01*
X125730000Y-77470000D02*
X125730000Y-67310000D01*
X128270000Y-68834000D02*
X130302000Y-68834000D01*
X130302000Y-68834000D02*
G75*
G03X130302000Y-68834000I-1016000J0D01*
G01*
X130810000Y-67310000D02*
X125730000Y-67310000D01*
D14*
X119110000Y-136310000D02*
X123610000Y-136310000D01*
X117860000Y-132310000D02*
X117860000Y-133810000D01*
X123610000Y-129810000D02*
X119110000Y-129810000D01*
X124860000Y-133810000D02*
X124860000Y-132310000D01*
X113680000Y-127290000D02*
X125830000Y-127290000D01*
X112930000Y-107140000D02*
X112930000Y-126540000D01*
X125080000Y-106390000D02*
X113680000Y-106390000D01*
X125830000Y-127290000D02*
X125830000Y-107140000D01*
X125830000Y-107140000D02*
G75*
G03X125080000Y-106390000I-750000J0D01*
G01*
X113680000Y-106390000D02*
G75*
G03X112930000Y-107140000I0J-750000D01*
G01*
X112930000Y-126540000D02*
G75*
G03X113680000Y-127290000I750000J0D01*
G01*
D18*
G36*
X117607889Y-44200031D02*
X117610840Y-44204076D01*
X117613314Y-44208784D01*
X117615353Y-44215241D01*
X117616997Y-44224532D01*
X117618290Y-44237741D01*
X117619275Y-44255954D01*
X117619992Y-44280254D01*
X117620484Y-44311727D01*
X117620794Y-44351457D01*
X117620963Y-44400530D01*
X117621034Y-44460030D01*
X117621049Y-44531041D01*
X117621050Y-44538445D01*
X117621050Y-44860128D01*
X117733762Y-44881283D01*
X117832690Y-44901352D01*
X117937987Y-44925440D01*
X118046411Y-44952667D01*
X118154716Y-44982156D01*
X118259659Y-45013028D01*
X118357995Y-45044405D01*
X118435025Y-45071201D01*
X118502876Y-45095915D01*
X118656671Y-44828520D01*
X118687731Y-44774722D01*
X118717304Y-44723896D01*
X118744707Y-44677186D01*
X118769258Y-44635738D01*
X118790273Y-44600698D01*
X118807069Y-44573212D01*
X118818965Y-44554425D01*
X118825278Y-44545483D01*
X118825393Y-44545358D01*
X118829961Y-44540461D01*
X118834339Y-44536248D01*
X118839134Y-44533024D01*
X118844952Y-44531095D01*
X118852397Y-44530766D01*
X118862077Y-44532343D01*
X118874595Y-44536130D01*
X118890559Y-44542435D01*
X118910573Y-44551561D01*
X118935243Y-44563815D01*
X118965176Y-44579502D01*
X119000975Y-44598928D01*
X119043248Y-44622398D01*
X119092599Y-44650218D01*
X119149635Y-44682692D01*
X119214960Y-44720127D01*
X119289181Y-44762829D01*
X119372903Y-44811102D01*
X119466732Y-44865252D01*
X119516525Y-44893991D01*
X119599083Y-44941709D01*
X119678733Y-44987885D01*
X119754762Y-45032096D01*
X119826459Y-45073925D01*
X119893109Y-45112949D01*
X119954003Y-45148750D01*
X120008428Y-45180908D01*
X120055671Y-45209002D01*
X120095021Y-45232612D01*
X120125765Y-45251318D01*
X120147191Y-45264700D01*
X120158588Y-45272339D01*
X120160144Y-45273651D01*
X120170813Y-45290071D01*
X120172521Y-45308550D01*
X120171984Y-45313159D01*
X120168218Y-45323822D01*
X120158477Y-45344273D01*
X120142694Y-45374635D01*
X120120799Y-45415029D01*
X120092724Y-45465580D01*
X120058400Y-45526409D01*
X120017759Y-45597639D01*
X119970732Y-45679394D01*
X119917251Y-45771795D01*
X119871216Y-45850984D01*
X119855955Y-45877193D01*
X119940240Y-45949054D01*
X119973543Y-45978428D01*
X120013818Y-46015551D01*
X120059452Y-46058808D01*
X120108834Y-46106588D01*
X120160351Y-46157279D01*
X120212390Y-46209268D01*
X120263339Y-46260943D01*
X120311586Y-46310691D01*
X120355519Y-46356900D01*
X120393524Y-46397959D01*
X120423991Y-46432254D01*
X120427295Y-46436109D01*
X120499156Y-46520394D01*
X120525365Y-46505139D01*
X120623866Y-46447915D01*
X120711733Y-46397101D01*
X120789215Y-46352556D01*
X120856561Y-46314143D01*
X120914019Y-46281721D01*
X120961838Y-46255153D01*
X121000265Y-46234299D01*
X121029550Y-46219021D01*
X121049941Y-46209179D01*
X121061686Y-46204634D01*
X121063190Y-46204323D01*
X121083008Y-46204554D01*
X121099247Y-46213312D01*
X121102633Y-46216205D01*
X121107963Y-46223586D01*
X121119203Y-46241265D01*
X121135933Y-46268531D01*
X121157731Y-46304672D01*
X121184178Y-46348976D01*
X121214854Y-46400732D01*
X121249338Y-46459227D01*
X121287211Y-46523749D01*
X121328051Y-46593588D01*
X121371439Y-46668031D01*
X121416954Y-46746367D01*
X121464176Y-46827883D01*
X121482642Y-46859825D01*
X121539919Y-46958943D01*
X121591166Y-47047656D01*
X121636686Y-47126568D01*
X121676782Y-47196284D01*
X121711757Y-47257407D01*
X121741913Y-47310541D01*
X121767554Y-47356290D01*
X121788982Y-47395257D01*
X121806500Y-47428048D01*
X121820411Y-47455266D01*
X121831017Y-47477514D01*
X121838622Y-47495397D01*
X121843528Y-47509519D01*
X121846038Y-47520483D01*
X121846455Y-47528894D01*
X121845081Y-47535355D01*
X121842219Y-47540471D01*
X121838173Y-47544845D01*
X121833245Y-47549082D01*
X121829703Y-47552055D01*
X121821168Y-47557865D01*
X121802758Y-47569311D01*
X121775617Y-47585714D01*
X121740889Y-47606397D01*
X121699719Y-47630682D01*
X121653251Y-47657892D01*
X121602630Y-47687347D01*
X121548999Y-47718371D01*
X121547136Y-47719445D01*
X121280228Y-47873365D01*
X121301980Y-47931745D01*
X121327959Y-48005357D01*
X121354912Y-48088865D01*
X121382106Y-48179578D01*
X121408810Y-48274806D01*
X121434293Y-48371859D01*
X121457823Y-48468048D01*
X121478670Y-48560682D01*
X121495254Y-48642587D01*
X121516617Y-48755300D01*
X122166728Y-48755300D01*
X122179889Y-48772031D01*
X122181879Y-48774682D01*
X122183658Y-48777754D01*
X122185238Y-48781939D01*
X122186629Y-48787927D01*
X122187845Y-48796409D01*
X122188896Y-48808075D01*
X122189796Y-48823617D01*
X122190555Y-48843725D01*
X122191186Y-48869090D01*
X122191700Y-48900402D01*
X122192110Y-48938352D01*
X122192427Y-48983632D01*
X122192663Y-49036931D01*
X122192831Y-49098940D01*
X122192941Y-49170351D01*
X122193006Y-49251854D01*
X122193038Y-49344139D01*
X122193048Y-49447898D01*
X122193050Y-49536745D01*
X122193050Y-50284728D01*
X122176318Y-50297889D01*
X122172272Y-50300841D01*
X122167562Y-50303316D01*
X122161103Y-50305354D01*
X122151809Y-50306999D01*
X122138595Y-50308292D01*
X122120377Y-50309276D01*
X122096069Y-50309993D01*
X122064586Y-50310485D01*
X122024842Y-50310795D01*
X121975753Y-50310964D01*
X121916233Y-50311034D01*
X121845198Y-50311049D01*
X121838102Y-50311049D01*
X121516617Y-50311050D01*
X121495254Y-50423762D01*
X121474769Y-50524041D01*
X121450369Y-50630280D01*
X121422921Y-50739288D01*
X121393289Y-50847873D01*
X121362339Y-50952843D01*
X121330935Y-51051008D01*
X121305114Y-51125119D01*
X121280366Y-51193063D01*
X121547205Y-51346944D01*
X121600944Y-51378028D01*
X121651736Y-51407588D01*
X121698435Y-51434945D01*
X121739890Y-51459415D01*
X121774954Y-51480319D01*
X121802478Y-51496975D01*
X121821313Y-51508702D01*
X121830312Y-51514819D01*
X121830418Y-51514909D01*
X121835560Y-51519258D01*
X121839998Y-51523431D01*
X121843430Y-51528033D01*
X121845552Y-51533666D01*
X121846059Y-51540934D01*
X121844649Y-51550441D01*
X121841017Y-51562790D01*
X121834859Y-51578584D01*
X121825873Y-51598427D01*
X121813754Y-51622922D01*
X121798198Y-51652673D01*
X121778902Y-51688283D01*
X121755561Y-51730356D01*
X121727873Y-51779494D01*
X121695533Y-51836302D01*
X121658237Y-51901383D01*
X121615683Y-51975341D01*
X121567565Y-52058778D01*
X121513581Y-52152298D01*
X121482276Y-52206525D01*
X121434549Y-52289081D01*
X121388367Y-52368728D01*
X121344150Y-52444755D01*
X121302318Y-52516449D01*
X121263291Y-52583098D01*
X121227489Y-52643991D01*
X121195332Y-52698415D01*
X121167241Y-52745659D01*
X121143634Y-52785009D01*
X121124933Y-52815755D01*
X121111556Y-52837185D01*
X121103925Y-52848586D01*
X121102615Y-52850144D01*
X121086233Y-52860822D01*
X121067729Y-52862544D01*
X121063190Y-52862021D01*
X121051969Y-52857979D01*
X121030440Y-52847658D01*
X120999156Y-52831360D01*
X120958671Y-52809387D01*
X120909540Y-52782041D01*
X120852316Y-52749623D01*
X120787554Y-52712436D01*
X120770650Y-52702661D01*
X120500775Y-52546393D01*
X120481725Y-52567443D01*
X120471609Y-52578742D01*
X120454760Y-52597696D01*
X120432840Y-52622431D01*
X120407509Y-52651072D01*
X120380429Y-52681744D01*
X120378415Y-52684027D01*
X120338784Y-52727731D01*
X120291702Y-52777622D01*
X120239239Y-52831654D01*
X120183467Y-52887778D01*
X120126456Y-52943948D01*
X120070278Y-52998117D01*
X120017002Y-53048235D01*
X119968699Y-53092257D01*
X119940342Y-53117157D01*
X119856209Y-53189589D01*
X119871343Y-53215582D01*
X119929795Y-53316185D01*
X119981744Y-53406053D01*
X120027265Y-53485316D01*
X120066431Y-53554104D01*
X120099312Y-53612548D01*
X120125984Y-53660777D01*
X120146519Y-53698923D01*
X120160989Y-53727115D01*
X120169467Y-53745484D01*
X120171984Y-53753190D01*
X120171805Y-53772962D01*
X120163131Y-53789157D01*
X120160144Y-53792663D01*
X120152763Y-53797997D01*
X120135083Y-53809240D01*
X120107816Y-53825972D01*
X120071673Y-53847771D01*
X120027368Y-53874219D01*
X119975611Y-53904895D01*
X119917114Y-53939378D01*
X119852589Y-53977249D01*
X119782748Y-54018087D01*
X119708303Y-54061471D01*
X119629965Y-54106983D01*
X119548446Y-54154200D01*
X119516525Y-54172652D01*
X119417552Y-54229836D01*
X119328983Y-54280992D01*
X119250210Y-54326425D01*
X119180628Y-54366439D01*
X119119631Y-54401339D01*
X119066612Y-54431430D01*
X119020965Y-54457015D01*
X118982085Y-54478400D01*
X118949365Y-54495889D01*
X118922200Y-54509787D01*
X118899983Y-54520398D01*
X118882108Y-54528026D01*
X118867970Y-54532977D01*
X118856961Y-54535555D01*
X118848477Y-54536064D01*
X118841911Y-54534809D01*
X118836658Y-54532095D01*
X118832110Y-54528225D01*
X118827662Y-54523505D01*
X118824711Y-54520309D01*
X118818754Y-54511888D01*
X118807183Y-54493577D01*
X118790678Y-54466518D01*
X118769917Y-54431854D01*
X118745580Y-54390726D01*
X118718346Y-54344275D01*
X118688894Y-54293644D01*
X118657904Y-54239974D01*
X118656671Y-54237829D01*
X118502876Y-53970434D01*
X118435025Y-53995087D01*
X118336955Y-54028899D01*
X118230493Y-54062332D01*
X118118843Y-54094543D01*
X118005204Y-54124689D01*
X117892780Y-54151928D01*
X117784770Y-54175417D01*
X117684377Y-54194313D01*
X117667087Y-54197207D01*
X117621050Y-54204747D01*
X117621050Y-54856728D01*
X117604318Y-54869889D01*
X117601667Y-54871879D01*
X117598595Y-54873658D01*
X117594410Y-54875238D01*
X117588422Y-54876629D01*
X117579940Y-54877845D01*
X117568274Y-54878896D01*
X117552732Y-54879796D01*
X117532624Y-54880555D01*
X117507259Y-54881186D01*
X117475947Y-54881700D01*
X117437997Y-54882110D01*
X117392717Y-54882427D01*
X117339418Y-54882663D01*
X117277409Y-54882831D01*
X117205998Y-54882941D01*
X117124495Y-54883006D01*
X117032210Y-54883038D01*
X116928451Y-54883048D01*
X116839604Y-54883050D01*
X116091621Y-54883050D01*
X116078460Y-54866318D01*
X116075512Y-54862278D01*
X116073040Y-54857575D01*
X116071003Y-54851125D01*
X116069359Y-54841845D01*
X116068065Y-54828652D01*
X116067080Y-54810462D01*
X116066362Y-54786192D01*
X116065869Y-54754758D01*
X116065558Y-54715077D01*
X116065387Y-54666065D01*
X116065315Y-54606639D01*
X116065300Y-54535716D01*
X116065300Y-54204747D01*
X116019262Y-54197207D01*
X115923908Y-54179858D01*
X115820415Y-54157926D01*
X115711882Y-54132236D01*
X115601409Y-54103617D01*
X115492095Y-54072896D01*
X115387041Y-54040899D01*
X115289346Y-54008453D01*
X115226045Y-53985559D01*
X115183716Y-53969620D01*
X115029620Y-54236832D01*
X114998515Y-54290608D01*
X114968933Y-54341438D01*
X114941555Y-54388175D01*
X114917062Y-54429671D01*
X114896134Y-54464778D01*
X114879452Y-54492348D01*
X114867696Y-54511235D01*
X114861548Y-54520291D01*
X114861440Y-54520418D01*
X114857090Y-54525561D01*
X114852916Y-54530002D01*
X114848315Y-54533436D01*
X114842683Y-54535559D01*
X114835415Y-54536070D01*
X114825910Y-54534662D01*
X114813564Y-54531034D01*
X114797772Y-54524880D01*
X114777932Y-54515898D01*
X114753439Y-54503784D01*
X114723691Y-54488234D01*
X114688084Y-54468944D01*
X114646015Y-54445611D01*
X114596879Y-54417931D01*
X114540074Y-54385599D01*
X114474995Y-54348314D01*
X114401041Y-54305770D01*
X114317606Y-54257665D01*
X114224087Y-54203694D01*
X114169825Y-54172374D01*
X114087266Y-54124655D01*
X114007616Y-54078479D01*
X113931587Y-54034267D01*
X113859891Y-53992438D01*
X113793240Y-53953412D01*
X113732346Y-53917611D01*
X113677922Y-53885452D01*
X113630678Y-53857358D01*
X113591329Y-53833747D01*
X113560584Y-53815040D01*
X113539158Y-53801656D01*
X113527761Y-53794017D01*
X113526205Y-53792704D01*
X113515536Y-53776277D01*
X113513828Y-53757792D01*
X113514365Y-53753190D01*
X113518124Y-53742542D01*
X113527844Y-53722128D01*
X113543597Y-53691822D01*
X113565450Y-53651500D01*
X113593476Y-53601036D01*
X113627742Y-53540305D01*
X113668320Y-53469182D01*
X113715279Y-53387543D01*
X113768689Y-53295261D01*
X113815094Y-53215432D01*
X113830315Y-53189290D01*
X113739720Y-53111101D01*
X113700755Y-53076451D01*
X113655100Y-53034151D01*
X113604552Y-52985996D01*
X113550908Y-52933784D01*
X113495965Y-52879313D01*
X113441521Y-52824378D01*
X113389371Y-52770777D01*
X113341313Y-52720307D01*
X113299144Y-52674766D01*
X113265248Y-52636629D01*
X113187059Y-52546034D01*
X113160917Y-52561255D01*
X113060209Y-52619769D01*
X112970241Y-52671777D01*
X112890888Y-52717349D01*
X112822024Y-52756555D01*
X112763526Y-52789465D01*
X112715267Y-52816149D01*
X112677123Y-52836676D01*
X112648969Y-52851117D01*
X112630679Y-52859542D01*
X112623159Y-52861984D01*
X112603356Y-52861798D01*
X112587103Y-52853093D01*
X112583632Y-52850144D01*
X112578291Y-52842763D01*
X112567041Y-52825083D01*
X112550303Y-52797816D01*
X112528497Y-52761673D01*
X112502042Y-52717367D01*
X112471361Y-52665610D01*
X112436873Y-52607113D01*
X112398997Y-52542588D01*
X112358155Y-52472747D01*
X112314767Y-52398301D01*
X112269254Y-52319963D01*
X112222034Y-52238444D01*
X112203583Y-52206525D01*
X112146314Y-52107408D01*
X112095074Y-52018697D01*
X112049561Y-51939787D01*
X112009471Y-51870074D01*
X111974501Y-51808953D01*
X111944350Y-51755822D01*
X111918714Y-51710076D01*
X111897290Y-51671112D01*
X111879776Y-51638324D01*
X111865868Y-51611109D01*
X111855265Y-51588863D01*
X111847664Y-51570983D01*
X111842761Y-51556863D01*
X111840254Y-51545900D01*
X111839840Y-51537491D01*
X111841216Y-51531031D01*
X111844081Y-51525915D01*
X111848130Y-51521541D01*
X111853061Y-51517304D01*
X111856617Y-51514319D01*
X111865142Y-51508513D01*
X111883541Y-51497066D01*
X111910671Y-51480656D01*
X111945388Y-51459960D01*
X111986550Y-51435657D01*
X112033013Y-51408423D01*
X112083635Y-51378936D01*
X112137272Y-51347875D01*
X112139439Y-51346624D01*
X112406631Y-51192373D01*
X112392003Y-51153349D01*
X112357855Y-51057107D01*
X112323804Y-50951411D01*
X112290729Y-50839482D01*
X112259513Y-50724543D01*
X112231036Y-50609814D01*
X112206179Y-50498517D01*
X112188853Y-50410639D01*
X112183035Y-50378539D01*
X112178152Y-50350833D01*
X112174624Y-50329957D01*
X112172869Y-50318345D01*
X112172749Y-50316977D01*
X112166525Y-50315658D01*
X112148352Y-50314478D01*
X112118981Y-50313449D01*
X112079164Y-50312585D01*
X112029651Y-50311900D01*
X111971192Y-50311408D01*
X111904540Y-50311121D01*
X111846185Y-50311050D01*
X111519621Y-50311049D01*
X111506460Y-50294318D01*
X111504470Y-50291667D01*
X111502691Y-50288595D01*
X111501111Y-50284410D01*
X111499720Y-50278422D01*
X111498504Y-50269940D01*
X111497453Y-50258274D01*
X111496553Y-50242732D01*
X111495794Y-50222624D01*
X111495163Y-50197259D01*
X111494649Y-50165947D01*
X111494239Y-50127997D01*
X111493922Y-50082717D01*
X111493686Y-50029418D01*
X111493518Y-49967409D01*
X111493408Y-49895998D01*
X111493343Y-49814495D01*
X111493311Y-49722210D01*
X111493301Y-49618451D01*
X111493301Y-49610134D01*
X113132434Y-49610134D01*
X113142881Y-49823698D01*
X113165550Y-50036551D01*
X113200494Y-50248016D01*
X113224590Y-50361850D01*
X113278612Y-50570132D01*
X113344523Y-50774320D01*
X113422036Y-50973927D01*
X113510864Y-51168472D01*
X113610720Y-51357468D01*
X113721317Y-51540432D01*
X113842367Y-51716880D01*
X113973585Y-51886328D01*
X114114684Y-52048292D01*
X114265375Y-52202287D01*
X114376200Y-52304893D01*
X114544519Y-52446209D01*
X114718850Y-52576360D01*
X114899011Y-52695269D01*
X115084823Y-52802858D01*
X115276104Y-52899051D01*
X115472674Y-52983770D01*
X115674352Y-53056939D01*
X115880959Y-53118481D01*
X116092313Y-53168318D01*
X116308234Y-53206374D01*
X116528541Y-53232572D01*
X116557382Y-53235093D01*
X116612182Y-53238712D01*
X116676656Y-53241357D01*
X116747815Y-53243027D01*
X116822670Y-53243721D01*
X116898232Y-53243438D01*
X116971513Y-53242178D01*
X117039523Y-53239939D01*
X117099274Y-53236721D01*
X117119060Y-53235252D01*
X117340576Y-53211136D01*
X117557579Y-53175211D01*
X117769887Y-53127559D01*
X117977317Y-53068264D01*
X118179688Y-52997408D01*
X118376816Y-52915074D01*
X118568518Y-52821346D01*
X118754613Y-52716306D01*
X118934918Y-52600037D01*
X119109249Y-52472622D01*
X119277425Y-52334144D01*
X119439263Y-52184686D01*
X119445704Y-52178380D01*
X119595814Y-52022314D01*
X119735773Y-51858822D01*
X119865389Y-51688358D01*
X119984475Y-51511375D01*
X120092841Y-51328323D01*
X120190296Y-51139656D01*
X120276651Y-50945826D01*
X120351716Y-50747285D01*
X120415303Y-50544486D01*
X120467220Y-50337881D01*
X120507279Y-50127922D01*
X120535290Y-49915061D01*
X120551063Y-49699751D01*
X120554750Y-49533174D01*
X120548544Y-49317459D01*
X120530030Y-49103247D01*
X120499367Y-48891133D01*
X120456710Y-48681712D01*
X120402217Y-48475579D01*
X120336046Y-48273328D01*
X120258352Y-48075556D01*
X120169293Y-47882855D01*
X120070291Y-47698025D01*
X119956359Y-47512054D01*
X119832925Y-47334192D01*
X119700385Y-47164720D01*
X119559136Y-47003918D01*
X119409576Y-46852068D01*
X119252101Y-46709449D01*
X119087108Y-46576343D01*
X118914994Y-46453029D01*
X118736157Y-46339789D01*
X118550992Y-46236904D01*
X118359898Y-46144653D01*
X118163271Y-46063318D01*
X117961507Y-45993180D01*
X117755004Y-45934518D01*
X117544160Y-45887613D01*
X117497225Y-45878899D01*
X117287550Y-45847665D01*
X117075787Y-45828536D01*
X116862925Y-45821462D01*
X116649955Y-45826393D01*
X116437866Y-45843280D01*
X116227650Y-45872073D01*
X116020298Y-45912724D01*
X115827175Y-45962191D01*
X115620950Y-46027804D01*
X115420084Y-46104754D01*
X115224963Y-46192695D01*
X115035972Y-46291278D01*
X114853497Y-46400154D01*
X114677927Y-46518977D01*
X114509646Y-46647397D01*
X114349040Y-46785066D01*
X114196498Y-46931636D01*
X114052404Y-47086760D01*
X113917145Y-47250088D01*
X113791107Y-47421274D01*
X113674677Y-47599968D01*
X113568241Y-47785822D01*
X113472186Y-47978489D01*
X113397092Y-48152050D01*
X113323462Y-48351667D01*
X113261684Y-48555304D01*
X113211812Y-48762286D01*
X113173898Y-48971935D01*
X113147995Y-49183577D01*
X113134157Y-49396535D01*
X113132434Y-49610134D01*
X111493301Y-49610134D01*
X111493300Y-49529604D01*
X111493300Y-48781621D01*
X111510031Y-48768460D01*
X111514067Y-48765514D01*
X111518766Y-48763044D01*
X111525210Y-48761008D01*
X111534481Y-48759364D01*
X111547662Y-48758070D01*
X111565835Y-48757085D01*
X111590082Y-48756366D01*
X111621486Y-48755871D01*
X111661129Y-48755559D01*
X111710093Y-48755388D01*
X111769461Y-48755315D01*
X111840316Y-48755300D01*
X111849756Y-48755299D01*
X111921944Y-48755185D01*
X111986541Y-48754852D01*
X112042792Y-48754313D01*
X112089939Y-48753583D01*
X112127226Y-48752676D01*
X112153896Y-48751604D01*
X112169194Y-48750383D01*
X112172750Y-48749372D01*
X112173843Y-48741273D01*
X112176844Y-48723124D01*
X112181335Y-48697358D01*
X112186897Y-48666411D01*
X112188853Y-48655710D01*
X112210042Y-48549612D01*
X112235593Y-48437397D01*
X112264624Y-48322289D01*
X112296252Y-48207515D01*
X112329595Y-48096297D01*
X112363771Y-47991862D01*
X112392052Y-47912870D01*
X112406729Y-47873716D01*
X112139517Y-47719620D01*
X112085741Y-47688515D01*
X112034911Y-47658933D01*
X111988174Y-47631555D01*
X111946678Y-47607062D01*
X111911571Y-47586134D01*
X111884001Y-47569452D01*
X111865114Y-47557696D01*
X111856058Y-47551548D01*
X111855931Y-47551440D01*
X111850778Y-47547085D01*
X111846328Y-47542909D01*
X111842883Y-47538310D01*
X111840747Y-47532684D01*
X111840223Y-47525426D01*
X111841616Y-47515934D01*
X111845229Y-47503604D01*
X111851365Y-47487833D01*
X111860328Y-47468016D01*
X111872422Y-47443551D01*
X111887951Y-47413833D01*
X111907217Y-47378260D01*
X111930525Y-47336227D01*
X111958178Y-47287131D01*
X111990480Y-47230368D01*
X112027735Y-47165336D01*
X112070246Y-47091429D01*
X112118317Y-47008046D01*
X112172251Y-46914581D01*
X112203852Y-46859825D01*
X112251567Y-46777264D01*
X112297741Y-46697612D01*
X112341952Y-46621582D01*
X112383782Y-46549885D01*
X112422809Y-46483233D01*
X112458614Y-46422339D01*
X112490776Y-46367914D01*
X112518876Y-46320671D01*
X112542493Y-46281322D01*
X112561207Y-46250579D01*
X112574599Y-46229154D01*
X112582247Y-46217759D01*
X112583563Y-46216205D01*
X112600085Y-46205528D01*
X112618649Y-46203837D01*
X112623159Y-46204365D01*
X112633807Y-46208124D01*
X112654221Y-46217844D01*
X112684527Y-46233597D01*
X112724849Y-46255450D01*
X112775313Y-46283476D01*
X112836044Y-46317742D01*
X112907167Y-46358320D01*
X112988806Y-46405279D01*
X113081088Y-46458689D01*
X113160917Y-46505094D01*
X113187059Y-46520315D01*
X113265248Y-46429720D01*
X113299898Y-46390755D01*
X113342198Y-46345100D01*
X113390353Y-46294552D01*
X113442565Y-46240908D01*
X113497036Y-46185965D01*
X113551971Y-46131521D01*
X113605572Y-46079371D01*
X113656042Y-46031313D01*
X113701583Y-45989144D01*
X113739720Y-45955248D01*
X113830315Y-45877059D01*
X113815094Y-45850917D01*
X113756580Y-45750209D01*
X113704572Y-45660241D01*
X113659000Y-45580888D01*
X113619794Y-45512024D01*
X113586884Y-45453526D01*
X113560200Y-45405267D01*
X113539673Y-45367123D01*
X113525232Y-45338969D01*
X113516807Y-45320679D01*
X113514365Y-45313159D01*
X113514559Y-45293326D01*
X113523294Y-45277012D01*
X113526205Y-45273578D01*
X113533587Y-45268230D01*
X113551268Y-45256975D01*
X113578537Y-45240234D01*
X113614682Y-45218426D01*
X113658991Y-45191971D01*
X113710752Y-45161291D01*
X113769253Y-45126805D01*
X113833783Y-45088934D01*
X113903628Y-45048097D01*
X113978078Y-45004717D01*
X114056421Y-44959211D01*
X114137945Y-44912002D01*
X114169825Y-44893579D01*
X114268948Y-44836322D01*
X114357666Y-44785094D01*
X114436583Y-44739590D01*
X114506301Y-44699509D01*
X114567427Y-44664547D01*
X114620562Y-44634403D01*
X114666312Y-44608772D01*
X114705280Y-44587353D01*
X114738071Y-44569843D01*
X114765288Y-44555938D01*
X114787535Y-44545337D01*
X114805417Y-44537737D01*
X114819538Y-44532834D01*
X114830501Y-44530327D01*
X114838910Y-44529912D01*
X114845371Y-44531286D01*
X114850485Y-44534147D01*
X114854859Y-44538193D01*
X114859095Y-44543120D01*
X114862055Y-44546646D01*
X114867864Y-44555179D01*
X114879308Y-44573588D01*
X114895711Y-44600730D01*
X114916396Y-44635460D01*
X114940684Y-44676636D01*
X114967899Y-44723113D01*
X114997363Y-44773749D01*
X115028399Y-44827399D01*
X115029620Y-44829517D01*
X115183716Y-45096729D01*
X115226045Y-45080745D01*
X115314960Y-45048997D01*
X115413496Y-45017043D01*
X115518618Y-44985692D01*
X115627288Y-44955755D01*
X115736470Y-44928043D01*
X115843125Y-44903365D01*
X115944218Y-44882532D01*
X116019262Y-44869142D01*
X116065300Y-44861602D01*
X116065300Y-44209621D01*
X116082031Y-44196460D01*
X116084682Y-44194470D01*
X116087754Y-44192691D01*
X116091939Y-44191111D01*
X116097927Y-44189720D01*
X116106409Y-44188504D01*
X116118075Y-44187453D01*
X116133617Y-44186553D01*
X116153725Y-44185794D01*
X116179090Y-44185163D01*
X116210402Y-44184649D01*
X116248352Y-44184239D01*
X116293632Y-44183922D01*
X116346931Y-44183686D01*
X116408940Y-44183518D01*
X116480351Y-44183408D01*
X116561854Y-44183343D01*
X116654139Y-44183311D01*
X116757898Y-44183301D01*
X116846745Y-44183300D01*
X117594728Y-44183300D01*
X117607889Y-44200031D01*
X117607889Y-44200031D01*
G37*
X117607889Y-44200031D02*
X117610840Y-44204076D01*
X117613314Y-44208784D01*
X117615353Y-44215241D01*
X117616997Y-44224532D01*
X117618290Y-44237741D01*
X117619275Y-44255954D01*
X117619992Y-44280254D01*
X117620484Y-44311727D01*
X117620794Y-44351457D01*
X117620963Y-44400530D01*
X117621034Y-44460030D01*
X117621049Y-44531041D01*
X117621050Y-44538445D01*
X117621050Y-44860128D01*
X117733762Y-44881283D01*
X117832690Y-44901352D01*
X117937987Y-44925440D01*
X118046411Y-44952667D01*
X118154716Y-44982156D01*
X118259659Y-45013028D01*
X118357995Y-45044405D01*
X118435025Y-45071201D01*
X118502876Y-45095915D01*
X118656671Y-44828520D01*
X118687731Y-44774722D01*
X118717304Y-44723896D01*
X118744707Y-44677186D01*
X118769258Y-44635738D01*
X118790273Y-44600698D01*
X118807069Y-44573212D01*
X118818965Y-44554425D01*
X118825278Y-44545483D01*
X118825393Y-44545358D01*
X118829961Y-44540461D01*
X118834339Y-44536248D01*
X118839134Y-44533024D01*
X118844952Y-44531095D01*
X118852397Y-44530766D01*
X118862077Y-44532343D01*
X118874595Y-44536130D01*
X118890559Y-44542435D01*
X118910573Y-44551561D01*
X118935243Y-44563815D01*
X118965176Y-44579502D01*
X119000975Y-44598928D01*
X119043248Y-44622398D01*
X119092599Y-44650218D01*
X119149635Y-44682692D01*
X119214960Y-44720127D01*
X119289181Y-44762829D01*
X119372903Y-44811102D01*
X119466732Y-44865252D01*
X119516525Y-44893991D01*
X119599083Y-44941709D01*
X119678733Y-44987885D01*
X119754762Y-45032096D01*
X119826459Y-45073925D01*
X119893109Y-45112949D01*
X119954003Y-45148750D01*
X120008428Y-45180908D01*
X120055671Y-45209002D01*
X120095021Y-45232612D01*
X120125765Y-45251318D01*
X120147191Y-45264700D01*
X120158588Y-45272339D01*
X120160144Y-45273651D01*
X120170813Y-45290071D01*
X120172521Y-45308550D01*
X120171984Y-45313159D01*
X120168218Y-45323822D01*
X120158477Y-45344273D01*
X120142694Y-45374635D01*
X120120799Y-45415029D01*
X120092724Y-45465580D01*
X120058400Y-45526409D01*
X120017759Y-45597639D01*
X119970732Y-45679394D01*
X119917251Y-45771795D01*
X119871216Y-45850984D01*
X119855955Y-45877193D01*
X119940240Y-45949054D01*
X119973543Y-45978428D01*
X120013818Y-46015551D01*
X120059452Y-46058808D01*
X120108834Y-46106588D01*
X120160351Y-46157279D01*
X120212390Y-46209268D01*
X120263339Y-46260943D01*
X120311586Y-46310691D01*
X120355519Y-46356900D01*
X120393524Y-46397959D01*
X120423991Y-46432254D01*
X120427295Y-46436109D01*
X120499156Y-46520394D01*
X120525365Y-46505139D01*
X120623866Y-46447915D01*
X120711733Y-46397101D01*
X120789215Y-46352556D01*
X120856561Y-46314143D01*
X120914019Y-46281721D01*
X120961838Y-46255153D01*
X121000265Y-46234299D01*
X121029550Y-46219021D01*
X121049941Y-46209179D01*
X121061686Y-46204634D01*
X121063190Y-46204323D01*
X121083008Y-46204554D01*
X121099247Y-46213312D01*
X121102633Y-46216205D01*
X121107963Y-46223586D01*
X121119203Y-46241265D01*
X121135933Y-46268531D01*
X121157731Y-46304672D01*
X121184178Y-46348976D01*
X121214854Y-46400732D01*
X121249338Y-46459227D01*
X121287211Y-46523749D01*
X121328051Y-46593588D01*
X121371439Y-46668031D01*
X121416954Y-46746367D01*
X121464176Y-46827883D01*
X121482642Y-46859825D01*
X121539919Y-46958943D01*
X121591166Y-47047656D01*
X121636686Y-47126568D01*
X121676782Y-47196284D01*
X121711757Y-47257407D01*
X121741913Y-47310541D01*
X121767554Y-47356290D01*
X121788982Y-47395257D01*
X121806500Y-47428048D01*
X121820411Y-47455266D01*
X121831017Y-47477514D01*
X121838622Y-47495397D01*
X121843528Y-47509519D01*
X121846038Y-47520483D01*
X121846455Y-47528894D01*
X121845081Y-47535355D01*
X121842219Y-47540471D01*
X121838173Y-47544845D01*
X121833245Y-47549082D01*
X121829703Y-47552055D01*
X121821168Y-47557865D01*
X121802758Y-47569311D01*
X121775617Y-47585714D01*
X121740889Y-47606397D01*
X121699719Y-47630682D01*
X121653251Y-47657892D01*
X121602630Y-47687347D01*
X121548999Y-47718371D01*
X121547136Y-47719445D01*
X121280228Y-47873365D01*
X121301980Y-47931745D01*
X121327959Y-48005357D01*
X121354912Y-48088865D01*
X121382106Y-48179578D01*
X121408810Y-48274806D01*
X121434293Y-48371859D01*
X121457823Y-48468048D01*
X121478670Y-48560682D01*
X121495254Y-48642587D01*
X121516617Y-48755300D01*
X122166728Y-48755300D01*
X122179889Y-48772031D01*
X122181879Y-48774682D01*
X122183658Y-48777754D01*
X122185238Y-48781939D01*
X122186629Y-48787927D01*
X122187845Y-48796409D01*
X122188896Y-48808075D01*
X122189796Y-48823617D01*
X122190555Y-48843725D01*
X122191186Y-48869090D01*
X122191700Y-48900402D01*
X122192110Y-48938352D01*
X122192427Y-48983632D01*
X122192663Y-49036931D01*
X122192831Y-49098940D01*
X122192941Y-49170351D01*
X122193006Y-49251854D01*
X122193038Y-49344139D01*
X122193048Y-49447898D01*
X122193050Y-49536745D01*
X122193050Y-50284728D01*
X122176318Y-50297889D01*
X122172272Y-50300841D01*
X122167562Y-50303316D01*
X122161103Y-50305354D01*
X122151809Y-50306999D01*
X122138595Y-50308292D01*
X122120377Y-50309276D01*
X122096069Y-50309993D01*
X122064586Y-50310485D01*
X122024842Y-50310795D01*
X121975753Y-50310964D01*
X121916233Y-50311034D01*
X121845198Y-50311049D01*
X121838102Y-50311049D01*
X121516617Y-50311050D01*
X121495254Y-50423762D01*
X121474769Y-50524041D01*
X121450369Y-50630280D01*
X121422921Y-50739288D01*
X121393289Y-50847873D01*
X121362339Y-50952843D01*
X121330935Y-51051008D01*
X121305114Y-51125119D01*
X121280366Y-51193063D01*
X121547205Y-51346944D01*
X121600944Y-51378028D01*
X121651736Y-51407588D01*
X121698435Y-51434945D01*
X121739890Y-51459415D01*
X121774954Y-51480319D01*
X121802478Y-51496975D01*
X121821313Y-51508702D01*
X121830312Y-51514819D01*
X121830418Y-51514909D01*
X121835560Y-51519258D01*
X121839998Y-51523431D01*
X121843430Y-51528033D01*
X121845552Y-51533666D01*
X121846059Y-51540934D01*
X121844649Y-51550441D01*
X121841017Y-51562790D01*
X121834859Y-51578584D01*
X121825873Y-51598427D01*
X121813754Y-51622922D01*
X121798198Y-51652673D01*
X121778902Y-51688283D01*
X121755561Y-51730356D01*
X121727873Y-51779494D01*
X121695533Y-51836302D01*
X121658237Y-51901383D01*
X121615683Y-51975341D01*
X121567565Y-52058778D01*
X121513581Y-52152298D01*
X121482276Y-52206525D01*
X121434549Y-52289081D01*
X121388367Y-52368728D01*
X121344150Y-52444755D01*
X121302318Y-52516449D01*
X121263291Y-52583098D01*
X121227489Y-52643991D01*
X121195332Y-52698415D01*
X121167241Y-52745659D01*
X121143634Y-52785009D01*
X121124933Y-52815755D01*
X121111556Y-52837185D01*
X121103925Y-52848586D01*
X121102615Y-52850144D01*
X121086233Y-52860822D01*
X121067729Y-52862544D01*
X121063190Y-52862021D01*
X121051969Y-52857979D01*
X121030440Y-52847658D01*
X120999156Y-52831360D01*
X120958671Y-52809387D01*
X120909540Y-52782041D01*
X120852316Y-52749623D01*
X120787554Y-52712436D01*
X120770650Y-52702661D01*
X120500775Y-52546393D01*
X120481725Y-52567443D01*
X120471609Y-52578742D01*
X120454760Y-52597696D01*
X120432840Y-52622431D01*
X120407509Y-52651072D01*
X120380429Y-52681744D01*
X120378415Y-52684027D01*
X120338784Y-52727731D01*
X120291702Y-52777622D01*
X120239239Y-52831654D01*
X120183467Y-52887778D01*
X120126456Y-52943948D01*
X120070278Y-52998117D01*
X120017002Y-53048235D01*
X119968699Y-53092257D01*
X119940342Y-53117157D01*
X119856209Y-53189589D01*
X119871343Y-53215582D01*
X119929795Y-53316185D01*
X119981744Y-53406053D01*
X120027265Y-53485316D01*
X120066431Y-53554104D01*
X120099312Y-53612548D01*
X120125984Y-53660777D01*
X120146519Y-53698923D01*
X120160989Y-53727115D01*
X120169467Y-53745484D01*
X120171984Y-53753190D01*
X120171805Y-53772962D01*
X120163131Y-53789157D01*
X120160144Y-53792663D01*
X120152763Y-53797997D01*
X120135083Y-53809240D01*
X120107816Y-53825972D01*
X120071673Y-53847771D01*
X120027368Y-53874219D01*
X119975611Y-53904895D01*
X119917114Y-53939378D01*
X119852589Y-53977249D01*
X119782748Y-54018087D01*
X119708303Y-54061471D01*
X119629965Y-54106983D01*
X119548446Y-54154200D01*
X119516525Y-54172652D01*
X119417552Y-54229836D01*
X119328983Y-54280992D01*
X119250210Y-54326425D01*
X119180628Y-54366439D01*
X119119631Y-54401339D01*
X119066612Y-54431430D01*
X119020965Y-54457015D01*
X118982085Y-54478400D01*
X118949365Y-54495889D01*
X118922200Y-54509787D01*
X118899983Y-54520398D01*
X118882108Y-54528026D01*
X118867970Y-54532977D01*
X118856961Y-54535555D01*
X118848477Y-54536064D01*
X118841911Y-54534809D01*
X118836658Y-54532095D01*
X118832110Y-54528225D01*
X118827662Y-54523505D01*
X118824711Y-54520309D01*
X118818754Y-54511888D01*
X118807183Y-54493577D01*
X118790678Y-54466518D01*
X118769917Y-54431854D01*
X118745580Y-54390726D01*
X118718346Y-54344275D01*
X118688894Y-54293644D01*
X118657904Y-54239974D01*
X118656671Y-54237829D01*
X118502876Y-53970434D01*
X118435025Y-53995087D01*
X118336955Y-54028899D01*
X118230493Y-54062332D01*
X118118843Y-54094543D01*
X118005204Y-54124689D01*
X117892780Y-54151928D01*
X117784770Y-54175417D01*
X117684377Y-54194313D01*
X117667087Y-54197207D01*
X117621050Y-54204747D01*
X117621050Y-54856728D01*
X117604318Y-54869889D01*
X117601667Y-54871879D01*
X117598595Y-54873658D01*
X117594410Y-54875238D01*
X117588422Y-54876629D01*
X117579940Y-54877845D01*
X117568274Y-54878896D01*
X117552732Y-54879796D01*
X117532624Y-54880555D01*
X117507259Y-54881186D01*
X117475947Y-54881700D01*
X117437997Y-54882110D01*
X117392717Y-54882427D01*
X117339418Y-54882663D01*
X117277409Y-54882831D01*
X117205998Y-54882941D01*
X117124495Y-54883006D01*
X117032210Y-54883038D01*
X116928451Y-54883048D01*
X116839604Y-54883050D01*
X116091621Y-54883050D01*
X116078460Y-54866318D01*
X116075512Y-54862278D01*
X116073040Y-54857575D01*
X116071003Y-54851125D01*
X116069359Y-54841845D01*
X116068065Y-54828652D01*
X116067080Y-54810462D01*
X116066362Y-54786192D01*
X116065869Y-54754758D01*
X116065558Y-54715077D01*
X116065387Y-54666065D01*
X116065315Y-54606639D01*
X116065300Y-54535716D01*
X116065300Y-54204747D01*
X116019262Y-54197207D01*
X115923908Y-54179858D01*
X115820415Y-54157926D01*
X115711882Y-54132236D01*
X115601409Y-54103617D01*
X115492095Y-54072896D01*
X115387041Y-54040899D01*
X115289346Y-54008453D01*
X115226045Y-53985559D01*
X115183716Y-53969620D01*
X115029620Y-54236832D01*
X114998515Y-54290608D01*
X114968933Y-54341438D01*
X114941555Y-54388175D01*
X114917062Y-54429671D01*
X114896134Y-54464778D01*
X114879452Y-54492348D01*
X114867696Y-54511235D01*
X114861548Y-54520291D01*
X114861440Y-54520418D01*
X114857090Y-54525561D01*
X114852916Y-54530002D01*
X114848315Y-54533436D01*
X114842683Y-54535559D01*
X114835415Y-54536070D01*
X114825910Y-54534662D01*
X114813564Y-54531034D01*
X114797772Y-54524880D01*
X114777932Y-54515898D01*
X114753439Y-54503784D01*
X114723691Y-54488234D01*
X114688084Y-54468944D01*
X114646015Y-54445611D01*
X114596879Y-54417931D01*
X114540074Y-54385599D01*
X114474995Y-54348314D01*
X114401041Y-54305770D01*
X114317606Y-54257665D01*
X114224087Y-54203694D01*
X114169825Y-54172374D01*
X114087266Y-54124655D01*
X114007616Y-54078479D01*
X113931587Y-54034267D01*
X113859891Y-53992438D01*
X113793240Y-53953412D01*
X113732346Y-53917611D01*
X113677922Y-53885452D01*
X113630678Y-53857358D01*
X113591329Y-53833747D01*
X113560584Y-53815040D01*
X113539158Y-53801656D01*
X113527761Y-53794017D01*
X113526205Y-53792704D01*
X113515536Y-53776277D01*
X113513828Y-53757792D01*
X113514365Y-53753190D01*
X113518124Y-53742542D01*
X113527844Y-53722128D01*
X113543597Y-53691822D01*
X113565450Y-53651500D01*
X113593476Y-53601036D01*
X113627742Y-53540305D01*
X113668320Y-53469182D01*
X113715279Y-53387543D01*
X113768689Y-53295261D01*
X113815094Y-53215432D01*
X113830315Y-53189290D01*
X113739720Y-53111101D01*
X113700755Y-53076451D01*
X113655100Y-53034151D01*
X113604552Y-52985996D01*
X113550908Y-52933784D01*
X113495965Y-52879313D01*
X113441521Y-52824378D01*
X113389371Y-52770777D01*
X113341313Y-52720307D01*
X113299144Y-52674766D01*
X113265248Y-52636629D01*
X113187059Y-52546034D01*
X113160917Y-52561255D01*
X113060209Y-52619769D01*
X112970241Y-52671777D01*
X112890888Y-52717349D01*
X112822024Y-52756555D01*
X112763526Y-52789465D01*
X112715267Y-52816149D01*
X112677123Y-52836676D01*
X112648969Y-52851117D01*
X112630679Y-52859542D01*
X112623159Y-52861984D01*
X112603356Y-52861798D01*
X112587103Y-52853093D01*
X112583632Y-52850144D01*
X112578291Y-52842763D01*
X112567041Y-52825083D01*
X112550303Y-52797816D01*
X112528497Y-52761673D01*
X112502042Y-52717367D01*
X112471361Y-52665610D01*
X112436873Y-52607113D01*
X112398997Y-52542588D01*
X112358155Y-52472747D01*
X112314767Y-52398301D01*
X112269254Y-52319963D01*
X112222034Y-52238444D01*
X112203583Y-52206525D01*
X112146314Y-52107408D01*
X112095074Y-52018697D01*
X112049561Y-51939787D01*
X112009471Y-51870074D01*
X111974501Y-51808953D01*
X111944350Y-51755822D01*
X111918714Y-51710076D01*
X111897290Y-51671112D01*
X111879776Y-51638324D01*
X111865868Y-51611109D01*
X111855265Y-51588863D01*
X111847664Y-51570983D01*
X111842761Y-51556863D01*
X111840254Y-51545900D01*
X111839840Y-51537491D01*
X111841216Y-51531031D01*
X111844081Y-51525915D01*
X111848130Y-51521541D01*
X111853061Y-51517304D01*
X111856617Y-51514319D01*
X111865142Y-51508513D01*
X111883541Y-51497066D01*
X111910671Y-51480656D01*
X111945388Y-51459960D01*
X111986550Y-51435657D01*
X112033013Y-51408423D01*
X112083635Y-51378936D01*
X112137272Y-51347875D01*
X112139439Y-51346624D01*
X112406631Y-51192373D01*
X112392003Y-51153349D01*
X112357855Y-51057107D01*
X112323804Y-50951411D01*
X112290729Y-50839482D01*
X112259513Y-50724543D01*
X112231036Y-50609814D01*
X112206179Y-50498517D01*
X112188853Y-50410639D01*
X112183035Y-50378539D01*
X112178152Y-50350833D01*
X112174624Y-50329957D01*
X112172869Y-50318345D01*
X112172749Y-50316977D01*
X112166525Y-50315658D01*
X112148352Y-50314478D01*
X112118981Y-50313449D01*
X112079164Y-50312585D01*
X112029651Y-50311900D01*
X111971192Y-50311408D01*
X111904540Y-50311121D01*
X111846185Y-50311050D01*
X111519621Y-50311049D01*
X111506460Y-50294318D01*
X111504470Y-50291667D01*
X111502691Y-50288595D01*
X111501111Y-50284410D01*
X111499720Y-50278422D01*
X111498504Y-50269940D01*
X111497453Y-50258274D01*
X111496553Y-50242732D01*
X111495794Y-50222624D01*
X111495163Y-50197259D01*
X111494649Y-50165947D01*
X111494239Y-50127997D01*
X111493922Y-50082717D01*
X111493686Y-50029418D01*
X111493518Y-49967409D01*
X111493408Y-49895998D01*
X111493343Y-49814495D01*
X111493311Y-49722210D01*
X111493301Y-49618451D01*
X111493301Y-49610134D01*
X113132434Y-49610134D01*
X113142881Y-49823698D01*
X113165550Y-50036551D01*
X113200494Y-50248016D01*
X113224590Y-50361850D01*
X113278612Y-50570132D01*
X113344523Y-50774320D01*
X113422036Y-50973927D01*
X113510864Y-51168472D01*
X113610720Y-51357468D01*
X113721317Y-51540432D01*
X113842367Y-51716880D01*
X113973585Y-51886328D01*
X114114684Y-52048292D01*
X114265375Y-52202287D01*
X114376200Y-52304893D01*
X114544519Y-52446209D01*
X114718850Y-52576360D01*
X114899011Y-52695269D01*
X115084823Y-52802858D01*
X115276104Y-52899051D01*
X115472674Y-52983770D01*
X115674352Y-53056939D01*
X115880959Y-53118481D01*
X116092313Y-53168318D01*
X116308234Y-53206374D01*
X116528541Y-53232572D01*
X116557382Y-53235093D01*
X116612182Y-53238712D01*
X116676656Y-53241357D01*
X116747815Y-53243027D01*
X116822670Y-53243721D01*
X116898232Y-53243438D01*
X116971513Y-53242178D01*
X117039523Y-53239939D01*
X117099274Y-53236721D01*
X117119060Y-53235252D01*
X117340576Y-53211136D01*
X117557579Y-53175211D01*
X117769887Y-53127559D01*
X117977317Y-53068264D01*
X118179688Y-52997408D01*
X118376816Y-52915074D01*
X118568518Y-52821346D01*
X118754613Y-52716306D01*
X118934918Y-52600037D01*
X119109249Y-52472622D01*
X119277425Y-52334144D01*
X119439263Y-52184686D01*
X119445704Y-52178380D01*
X119595814Y-52022314D01*
X119735773Y-51858822D01*
X119865389Y-51688358D01*
X119984475Y-51511375D01*
X120092841Y-51328323D01*
X120190296Y-51139656D01*
X120276651Y-50945826D01*
X120351716Y-50747285D01*
X120415303Y-50544486D01*
X120467220Y-50337881D01*
X120507279Y-50127922D01*
X120535290Y-49915061D01*
X120551063Y-49699751D01*
X120554750Y-49533174D01*
X120548544Y-49317459D01*
X120530030Y-49103247D01*
X120499367Y-48891133D01*
X120456710Y-48681712D01*
X120402217Y-48475579D01*
X120336046Y-48273328D01*
X120258352Y-48075556D01*
X120169293Y-47882855D01*
X120070291Y-47698025D01*
X119956359Y-47512054D01*
X119832925Y-47334192D01*
X119700385Y-47164720D01*
X119559136Y-47003918D01*
X119409576Y-46852068D01*
X119252101Y-46709449D01*
X119087108Y-46576343D01*
X118914994Y-46453029D01*
X118736157Y-46339789D01*
X118550992Y-46236904D01*
X118359898Y-46144653D01*
X118163271Y-46063318D01*
X117961507Y-45993180D01*
X117755004Y-45934518D01*
X117544160Y-45887613D01*
X117497225Y-45878899D01*
X117287550Y-45847665D01*
X117075787Y-45828536D01*
X116862925Y-45821462D01*
X116649955Y-45826393D01*
X116437866Y-45843280D01*
X116227650Y-45872073D01*
X116020298Y-45912724D01*
X115827175Y-45962191D01*
X115620950Y-46027804D01*
X115420084Y-46104754D01*
X115224963Y-46192695D01*
X115035972Y-46291278D01*
X114853497Y-46400154D01*
X114677927Y-46518977D01*
X114509646Y-46647397D01*
X114349040Y-46785066D01*
X114196498Y-46931636D01*
X114052404Y-47086760D01*
X113917145Y-47250088D01*
X113791107Y-47421274D01*
X113674677Y-47599968D01*
X113568241Y-47785822D01*
X113472186Y-47978489D01*
X113397092Y-48152050D01*
X113323462Y-48351667D01*
X113261684Y-48555304D01*
X113211812Y-48762286D01*
X113173898Y-48971935D01*
X113147995Y-49183577D01*
X113134157Y-49396535D01*
X113132434Y-49610134D01*
X111493301Y-49610134D01*
X111493300Y-49529604D01*
X111493300Y-48781621D01*
X111510031Y-48768460D01*
X111514067Y-48765514D01*
X111518766Y-48763044D01*
X111525210Y-48761008D01*
X111534481Y-48759364D01*
X111547662Y-48758070D01*
X111565835Y-48757085D01*
X111590082Y-48756366D01*
X111621486Y-48755871D01*
X111661129Y-48755559D01*
X111710093Y-48755388D01*
X111769461Y-48755315D01*
X111840316Y-48755300D01*
X111849756Y-48755299D01*
X111921944Y-48755185D01*
X111986541Y-48754852D01*
X112042792Y-48754313D01*
X112089939Y-48753583D01*
X112127226Y-48752676D01*
X112153896Y-48751604D01*
X112169194Y-48750383D01*
X112172750Y-48749372D01*
X112173843Y-48741273D01*
X112176844Y-48723124D01*
X112181335Y-48697358D01*
X112186897Y-48666411D01*
X112188853Y-48655710D01*
X112210042Y-48549612D01*
X112235593Y-48437397D01*
X112264624Y-48322289D01*
X112296252Y-48207515D01*
X112329595Y-48096297D01*
X112363771Y-47991862D01*
X112392052Y-47912870D01*
X112406729Y-47873716D01*
X112139517Y-47719620D01*
X112085741Y-47688515D01*
X112034911Y-47658933D01*
X111988174Y-47631555D01*
X111946678Y-47607062D01*
X111911571Y-47586134D01*
X111884001Y-47569452D01*
X111865114Y-47557696D01*
X111856058Y-47551548D01*
X111855931Y-47551440D01*
X111850778Y-47547085D01*
X111846328Y-47542909D01*
X111842883Y-47538310D01*
X111840747Y-47532684D01*
X111840223Y-47525426D01*
X111841616Y-47515934D01*
X111845229Y-47503604D01*
X111851365Y-47487833D01*
X111860328Y-47468016D01*
X111872422Y-47443551D01*
X111887951Y-47413833D01*
X111907217Y-47378260D01*
X111930525Y-47336227D01*
X111958178Y-47287131D01*
X111990480Y-47230368D01*
X112027735Y-47165336D01*
X112070246Y-47091429D01*
X112118317Y-47008046D01*
X112172251Y-46914581D01*
X112203852Y-46859825D01*
X112251567Y-46777264D01*
X112297741Y-46697612D01*
X112341952Y-46621582D01*
X112383782Y-46549885D01*
X112422809Y-46483233D01*
X112458614Y-46422339D01*
X112490776Y-46367914D01*
X112518876Y-46320671D01*
X112542493Y-46281322D01*
X112561207Y-46250579D01*
X112574599Y-46229154D01*
X112582247Y-46217759D01*
X112583563Y-46216205D01*
X112600085Y-46205528D01*
X112618649Y-46203837D01*
X112623159Y-46204365D01*
X112633807Y-46208124D01*
X112654221Y-46217844D01*
X112684527Y-46233597D01*
X112724849Y-46255450D01*
X112775313Y-46283476D01*
X112836044Y-46317742D01*
X112907167Y-46358320D01*
X112988806Y-46405279D01*
X113081088Y-46458689D01*
X113160917Y-46505094D01*
X113187059Y-46520315D01*
X113265248Y-46429720D01*
X113299898Y-46390755D01*
X113342198Y-46345100D01*
X113390353Y-46294552D01*
X113442565Y-46240908D01*
X113497036Y-46185965D01*
X113551971Y-46131521D01*
X113605572Y-46079371D01*
X113656042Y-46031313D01*
X113701583Y-45989144D01*
X113739720Y-45955248D01*
X113830315Y-45877059D01*
X113815094Y-45850917D01*
X113756580Y-45750209D01*
X113704572Y-45660241D01*
X113659000Y-45580888D01*
X113619794Y-45512024D01*
X113586884Y-45453526D01*
X113560200Y-45405267D01*
X113539673Y-45367123D01*
X113525232Y-45338969D01*
X113516807Y-45320679D01*
X113514365Y-45313159D01*
X113514559Y-45293326D01*
X113523294Y-45277012D01*
X113526205Y-45273578D01*
X113533587Y-45268230D01*
X113551268Y-45256975D01*
X113578537Y-45240234D01*
X113614682Y-45218426D01*
X113658991Y-45191971D01*
X113710752Y-45161291D01*
X113769253Y-45126805D01*
X113833783Y-45088934D01*
X113903628Y-45048097D01*
X113978078Y-45004717D01*
X114056421Y-44959211D01*
X114137945Y-44912002D01*
X114169825Y-44893579D01*
X114268948Y-44836322D01*
X114357666Y-44785094D01*
X114436583Y-44739590D01*
X114506301Y-44699509D01*
X114567427Y-44664547D01*
X114620562Y-44634403D01*
X114666312Y-44608772D01*
X114705280Y-44587353D01*
X114738071Y-44569843D01*
X114765288Y-44555938D01*
X114787535Y-44545337D01*
X114805417Y-44537737D01*
X114819538Y-44532834D01*
X114830501Y-44530327D01*
X114838910Y-44529912D01*
X114845371Y-44531286D01*
X114850485Y-44534147D01*
X114854859Y-44538193D01*
X114859095Y-44543120D01*
X114862055Y-44546646D01*
X114867864Y-44555179D01*
X114879308Y-44573588D01*
X114895711Y-44600730D01*
X114916396Y-44635460D01*
X114940684Y-44676636D01*
X114967899Y-44723113D01*
X114997363Y-44773749D01*
X115028399Y-44827399D01*
X115029620Y-44829517D01*
X115183716Y-45096729D01*
X115226045Y-45080745D01*
X115314960Y-45048997D01*
X115413496Y-45017043D01*
X115518618Y-44985692D01*
X115627288Y-44955755D01*
X115736470Y-44928043D01*
X115843125Y-44903365D01*
X115944218Y-44882532D01*
X116019262Y-44869142D01*
X116065300Y-44861602D01*
X116065300Y-44209621D01*
X116082031Y-44196460D01*
X116084682Y-44194470D01*
X116087754Y-44192691D01*
X116091939Y-44191111D01*
X116097927Y-44189720D01*
X116106409Y-44188504D01*
X116118075Y-44187453D01*
X116133617Y-44186553D01*
X116153725Y-44185794D01*
X116179090Y-44185163D01*
X116210402Y-44184649D01*
X116248352Y-44184239D01*
X116293632Y-44183922D01*
X116346931Y-44183686D01*
X116408940Y-44183518D01*
X116480351Y-44183408D01*
X116561854Y-44183343D01*
X116654139Y-44183311D01*
X116757898Y-44183301D01*
X116846745Y-44183300D01*
X117594728Y-44183300D01*
X117607889Y-44200031D01*
G36*
X116981477Y-46703916D02*
X116989225Y-46704560D01*
X117170501Y-46726264D01*
X117349223Y-46759894D01*
X117524761Y-46805095D01*
X117696481Y-46861515D01*
X117863753Y-46928800D01*
X118025944Y-47006596D01*
X118182422Y-47094552D01*
X118332556Y-47192312D01*
X118475714Y-47299524D01*
X118611264Y-47415835D01*
X118738574Y-47540891D01*
X118857013Y-47674339D01*
X118958867Y-47805975D01*
X119051143Y-47943350D01*
X119131815Y-48083781D01*
X119200759Y-48226825D01*
X119257854Y-48372038D01*
X119302975Y-48518977D01*
X119335999Y-48667197D01*
X119356804Y-48816256D01*
X119365266Y-48965710D01*
X119361262Y-49115115D01*
X119351051Y-49218850D01*
X119326278Y-49367225D01*
X119290036Y-49517508D01*
X119242984Y-49667845D01*
X119185784Y-49816383D01*
X119119095Y-49961269D01*
X119043580Y-50100652D01*
X119026132Y-50129924D01*
X119000119Y-50172087D01*
X118974934Y-50211090D01*
X118949601Y-50248100D01*
X118923142Y-50284283D01*
X118894581Y-50320806D01*
X118862939Y-50358835D01*
X118827241Y-50399536D01*
X118786507Y-50444077D01*
X118739763Y-50493623D01*
X118686030Y-50549342D01*
X118624331Y-50612399D01*
X118608431Y-50628550D01*
X118567027Y-50670898D01*
X118526561Y-50712908D01*
X118488353Y-50753166D01*
X118453721Y-50790256D01*
X118423987Y-50822764D01*
X118400468Y-50849275D01*
X118384486Y-50868374D01*
X118383332Y-50869850D01*
X118299177Y-50987390D01*
X118221144Y-51114750D01*
X118160875Y-51228561D01*
X118127971Y-51296980D01*
X118097557Y-51364300D01*
X118068691Y-51432901D01*
X118040433Y-51505163D01*
X118011838Y-51583466D01*
X117981966Y-51670189D01*
X117961010Y-51733450D01*
X117937829Y-51804236D01*
X117918087Y-51864208D01*
X117901327Y-51914636D01*
X117887096Y-51956795D01*
X117874936Y-51991957D01*
X117864393Y-52021395D01*
X117855012Y-52046382D01*
X117846336Y-52068190D01*
X117837911Y-52088093D01*
X117829280Y-52107363D01*
X117820411Y-52126380D01*
X117763256Y-52233446D01*
X117697279Y-52331393D01*
X117622347Y-52420357D01*
X117538325Y-52500477D01*
X117445078Y-52571891D01*
X117342471Y-52634736D01*
X117305405Y-52654188D01*
X117257918Y-52675883D01*
X117202324Y-52697662D01*
X117142972Y-52718067D01*
X117084214Y-52735641D01*
X117030399Y-52748926D01*
X117011450Y-52752674D01*
X116966472Y-52758958D01*
X116914524Y-52763263D01*
X116859444Y-52765511D01*
X116805068Y-52765623D01*
X116755234Y-52763523D01*
X116713778Y-52759132D01*
X116711360Y-52758749D01*
X116592672Y-52733271D01*
X116479320Y-52696595D01*
X116371889Y-52649170D01*
X116270967Y-52591449D01*
X116177138Y-52523882D01*
X116090990Y-52446919D01*
X116013109Y-52361012D01*
X115944080Y-52266613D01*
X115884491Y-52164171D01*
X115853385Y-52098744D01*
X115842302Y-52071756D01*
X115828611Y-52035814D01*
X115813463Y-51994095D01*
X115798011Y-51949775D01*
X115783408Y-51906030D01*
X115782717Y-51903904D01*
X115750333Y-51804826D01*
X115720946Y-51716614D01*
X115694041Y-51637929D01*
X115669105Y-51567434D01*
X115645623Y-51503788D01*
X115623081Y-51445654D01*
X115600965Y-51391693D01*
X115578761Y-51340565D01*
X115555955Y-51290932D01*
X115532033Y-51241456D01*
X115516061Y-51209575D01*
X115483939Y-51147512D01*
X115453260Y-51091360D01*
X115422909Y-51039642D01*
X115391773Y-50990886D01*
X115358738Y-50943615D01*
X115322691Y-50896355D01*
X115282516Y-50847633D01*
X115237102Y-50795974D01*
X115185332Y-50739902D01*
X115126095Y-50677944D01*
X115074700Y-50625306D01*
X115011294Y-50560487D01*
X114956080Y-50503261D01*
X114908069Y-50452452D01*
X114866268Y-50406881D01*
X114829686Y-50365372D01*
X114797331Y-50326748D01*
X114768210Y-50289832D01*
X114741334Y-50253446D01*
X114715709Y-50216413D01*
X114690344Y-50177557D01*
X114669685Y-50144548D01*
X114588971Y-50002682D01*
X114517575Y-49854510D01*
X114456106Y-49701735D01*
X114405174Y-49546056D01*
X114365390Y-49389176D01*
X114337364Y-49232794D01*
X114334191Y-49209325D01*
X114329851Y-49166468D01*
X114326585Y-49115211D01*
X114324417Y-49058561D01*
X114323372Y-48999524D01*
X114323398Y-48984350D01*
X114500227Y-48984350D01*
X114500717Y-49045886D01*
X114502537Y-49104754D01*
X114505685Y-49157910D01*
X114510161Y-49202309D01*
X114511613Y-49212500D01*
X114541610Y-49368305D01*
X114583167Y-49523518D01*
X114635560Y-49676172D01*
X114698069Y-49824301D01*
X114769971Y-49965939D01*
X114819070Y-50049827D01*
X114842953Y-50087803D01*
X114865982Y-50122723D01*
X114889216Y-50155845D01*
X114913716Y-50188425D01*
X114940542Y-50221722D01*
X114970752Y-50256993D01*
X115005408Y-50295495D01*
X115045569Y-50338487D01*
X115092295Y-50387226D01*
X115146645Y-50442969D01*
X115173012Y-50469800D01*
X115226323Y-50524077D01*
X115271683Y-50570592D01*
X115310161Y-50610522D01*
X115342826Y-50645046D01*
X115370746Y-50675341D01*
X115394991Y-50702586D01*
X115416629Y-50727958D01*
X115436729Y-50752636D01*
X115456361Y-50777797D01*
X115475515Y-50803175D01*
X115528626Y-50877527D01*
X115578506Y-50954087D01*
X115625738Y-51034091D01*
X115670905Y-51118772D01*
X115714592Y-51209367D01*
X115757382Y-51307108D01*
X115799859Y-51413232D01*
X115842605Y-51528972D01*
X115886205Y-51655564D01*
X115904342Y-51710516D01*
X115928448Y-51783971D01*
X115949350Y-51846629D01*
X115967564Y-51899833D01*
X115983602Y-51944931D01*
X115997978Y-51983267D01*
X116011207Y-52016186D01*
X116023802Y-52045036D01*
X116036277Y-52071160D01*
X116049146Y-52095906D01*
X116056923Y-52110032D01*
X116098129Y-52177526D01*
X116143076Y-52238548D01*
X116194939Y-52297166D01*
X116230970Y-52333139D01*
X116313116Y-52403306D01*
X116402390Y-52463317D01*
X116497711Y-52512671D01*
X116597998Y-52550869D01*
X116702169Y-52577411D01*
X116786355Y-52589795D01*
X116816923Y-52592263D01*
X116845131Y-52592935D01*
X116874433Y-52591626D01*
X116908286Y-52588149D01*
X116950144Y-52582318D01*
X116963825Y-52580229D01*
X117065186Y-52558208D01*
X117163451Y-52524317D01*
X117257608Y-52479212D01*
X117346646Y-52423553D01*
X117429553Y-52357995D01*
X117505319Y-52283196D01*
X117572931Y-52199813D01*
X117592675Y-52171434D01*
X117608891Y-52146736D01*
X117623559Y-52123095D01*
X117637163Y-52099316D01*
X117650190Y-52074207D01*
X117663126Y-52046572D01*
X117676455Y-52015218D01*
X117690663Y-51978950D01*
X117706237Y-51936575D01*
X117723662Y-51886897D01*
X117743423Y-51828724D01*
X117766007Y-51760861D01*
X117791898Y-51682113D01*
X117792762Y-51679475D01*
X117838302Y-51545198D01*
X117883342Y-51422313D01*
X117928448Y-51309556D01*
X117974186Y-51205665D01*
X118021121Y-51109375D01*
X118069819Y-51019423D01*
X118120847Y-50934547D01*
X118139090Y-50906218D01*
X118164793Y-50867594D01*
X118189536Y-50831894D01*
X118214370Y-50797893D01*
X118240345Y-50764369D01*
X118268510Y-50730099D01*
X118299916Y-50693859D01*
X118335613Y-50654426D01*
X118376650Y-50610575D01*
X118424077Y-50561085D01*
X118478945Y-50504731D01*
X118516357Y-50466625D01*
X118556028Y-50426167D01*
X118594316Y-50386853D01*
X118629955Y-50350001D01*
X118661678Y-50316931D01*
X118688220Y-50288963D01*
X118708314Y-50267415D01*
X118720446Y-50253900D01*
X118792842Y-50161859D01*
X118861818Y-50059227D01*
X118926505Y-49947854D01*
X118986035Y-49829589D01*
X119039539Y-49706283D01*
X119086150Y-49579784D01*
X119124999Y-49451943D01*
X119154123Y-49329975D01*
X119177230Y-49186386D01*
X119187721Y-49042245D01*
X119185643Y-48897983D01*
X119171042Y-48754036D01*
X119143964Y-48610835D01*
X119104455Y-48468816D01*
X119052560Y-48328411D01*
X119045925Y-48312680D01*
X118983474Y-48181164D01*
X118909285Y-48050923D01*
X118824323Y-47923242D01*
X118729550Y-47799410D01*
X118625929Y-47680715D01*
X118514424Y-47568444D01*
X118437025Y-47498529D01*
X118322422Y-47404718D01*
X118205844Y-47320083D01*
X118084268Y-47242629D01*
X117954668Y-47170362D01*
X117888582Y-47136862D01*
X117728940Y-47064368D01*
X117568547Y-47003866D01*
X117405676Y-46954850D01*
X117238602Y-46916811D01*
X117065596Y-46889244D01*
X117030500Y-46884985D01*
X116906832Y-46876093D01*
X116776551Y-46876939D01*
X116640941Y-46887318D01*
X116501287Y-46907021D01*
X116358872Y-46935843D01*
X116214983Y-46973577D01*
X116070903Y-47020016D01*
X115979575Y-47054057D01*
X115936483Y-47072095D01*
X115885403Y-47095276D01*
X115829202Y-47122152D01*
X115770750Y-47151275D01*
X115712915Y-47181198D01*
X115658563Y-47210472D01*
X115610564Y-47237650D01*
X115582700Y-47254391D01*
X115433239Y-47354229D01*
X115292739Y-47462566D01*
X115161519Y-47579068D01*
X115039897Y-47703403D01*
X114928195Y-47835238D01*
X114826731Y-47974240D01*
X114735826Y-48120076D01*
X114714134Y-48158753D01*
X114664791Y-48257731D01*
X114619829Y-48365918D01*
X114580251Y-48480282D01*
X114547057Y-48597788D01*
X114521249Y-48715404D01*
X114511564Y-48772412D01*
X114506734Y-48814178D01*
X114503235Y-48865452D01*
X114501066Y-48923191D01*
X114500227Y-48984350D01*
X114323398Y-48984350D01*
X114323473Y-48941109D01*
X114324745Y-48886320D01*
X114327212Y-48838166D01*
X114330886Y-48799750D01*
X114348845Y-48681085D01*
X114370661Y-48571675D01*
X114397261Y-48468414D01*
X114429568Y-48368201D01*
X114468509Y-48267931D01*
X114515008Y-48164503D01*
X114528713Y-48136175D01*
X114606241Y-47992157D01*
X114695207Y-47852437D01*
X114794874Y-47717695D01*
X114904507Y-47588610D01*
X115023368Y-47465865D01*
X115150722Y-47350139D01*
X115285832Y-47242113D01*
X115427961Y-47142468D01*
X115576374Y-47051884D01*
X115730334Y-46971042D01*
X115846225Y-46918391D01*
X115991033Y-46861420D01*
X116137807Y-46812543D01*
X116285150Y-46772023D01*
X116431664Y-46740120D01*
X116575951Y-46717097D01*
X116716614Y-46703214D01*
X116852255Y-46698733D01*
X116981477Y-46703916D01*
X116981477Y-46703916D01*
G37*
X116981477Y-46703916D02*
X116989225Y-46704560D01*
X117170501Y-46726264D01*
X117349223Y-46759894D01*
X117524761Y-46805095D01*
X117696481Y-46861515D01*
X117863753Y-46928800D01*
X118025944Y-47006596D01*
X118182422Y-47094552D01*
X118332556Y-47192312D01*
X118475714Y-47299524D01*
X118611264Y-47415835D01*
X118738574Y-47540891D01*
X118857013Y-47674339D01*
X118958867Y-47805975D01*
X119051143Y-47943350D01*
X119131815Y-48083781D01*
X119200759Y-48226825D01*
X119257854Y-48372038D01*
X119302975Y-48518977D01*
X119335999Y-48667197D01*
X119356804Y-48816256D01*
X119365266Y-48965710D01*
X119361262Y-49115115D01*
X119351051Y-49218850D01*
X119326278Y-49367225D01*
X119290036Y-49517508D01*
X119242984Y-49667845D01*
X119185784Y-49816383D01*
X119119095Y-49961269D01*
X119043580Y-50100652D01*
X119026132Y-50129924D01*
X119000119Y-50172087D01*
X118974934Y-50211090D01*
X118949601Y-50248100D01*
X118923142Y-50284283D01*
X118894581Y-50320806D01*
X118862939Y-50358835D01*
X118827241Y-50399536D01*
X118786507Y-50444077D01*
X118739763Y-50493623D01*
X118686030Y-50549342D01*
X118624331Y-50612399D01*
X118608431Y-50628550D01*
X118567027Y-50670898D01*
X118526561Y-50712908D01*
X118488353Y-50753166D01*
X118453721Y-50790256D01*
X118423987Y-50822764D01*
X118400468Y-50849275D01*
X118384486Y-50868374D01*
X118383332Y-50869850D01*
X118299177Y-50987390D01*
X118221144Y-51114750D01*
X118160875Y-51228561D01*
X118127971Y-51296980D01*
X118097557Y-51364300D01*
X118068691Y-51432901D01*
X118040433Y-51505163D01*
X118011838Y-51583466D01*
X117981966Y-51670189D01*
X117961010Y-51733450D01*
X117937829Y-51804236D01*
X117918087Y-51864208D01*
X117901327Y-51914636D01*
X117887096Y-51956795D01*
X117874936Y-51991957D01*
X117864393Y-52021395D01*
X117855012Y-52046382D01*
X117846336Y-52068190D01*
X117837911Y-52088093D01*
X117829280Y-52107363D01*
X117820411Y-52126380D01*
X117763256Y-52233446D01*
X117697279Y-52331393D01*
X117622347Y-52420357D01*
X117538325Y-52500477D01*
X117445078Y-52571891D01*
X117342471Y-52634736D01*
X117305405Y-52654188D01*
X117257918Y-52675883D01*
X117202324Y-52697662D01*
X117142972Y-52718067D01*
X117084214Y-52735641D01*
X117030399Y-52748926D01*
X117011450Y-52752674D01*
X116966472Y-52758958D01*
X116914524Y-52763263D01*
X116859444Y-52765511D01*
X116805068Y-52765623D01*
X116755234Y-52763523D01*
X116713778Y-52759132D01*
X116711360Y-52758749D01*
X116592672Y-52733271D01*
X116479320Y-52696595D01*
X116371889Y-52649170D01*
X116270967Y-52591449D01*
X116177138Y-52523882D01*
X116090990Y-52446919D01*
X116013109Y-52361012D01*
X115944080Y-52266613D01*
X115884491Y-52164171D01*
X115853385Y-52098744D01*
X115842302Y-52071756D01*
X115828611Y-52035814D01*
X115813463Y-51994095D01*
X115798011Y-51949775D01*
X115783408Y-51906030D01*
X115782717Y-51903904D01*
X115750333Y-51804826D01*
X115720946Y-51716614D01*
X115694041Y-51637929D01*
X115669105Y-51567434D01*
X115645623Y-51503788D01*
X115623081Y-51445654D01*
X115600965Y-51391693D01*
X115578761Y-51340565D01*
X115555955Y-51290932D01*
X115532033Y-51241456D01*
X115516061Y-51209575D01*
X115483939Y-51147512D01*
X115453260Y-51091360D01*
X115422909Y-51039642D01*
X115391773Y-50990886D01*
X115358738Y-50943615D01*
X115322691Y-50896355D01*
X115282516Y-50847633D01*
X115237102Y-50795974D01*
X115185332Y-50739902D01*
X115126095Y-50677944D01*
X115074700Y-50625306D01*
X115011294Y-50560487D01*
X114956080Y-50503261D01*
X114908069Y-50452452D01*
X114866268Y-50406881D01*
X114829686Y-50365372D01*
X114797331Y-50326748D01*
X114768210Y-50289832D01*
X114741334Y-50253446D01*
X114715709Y-50216413D01*
X114690344Y-50177557D01*
X114669685Y-50144548D01*
X114588971Y-50002682D01*
X114517575Y-49854510D01*
X114456106Y-49701735D01*
X114405174Y-49546056D01*
X114365390Y-49389176D01*
X114337364Y-49232794D01*
X114334191Y-49209325D01*
X114329851Y-49166468D01*
X114326585Y-49115211D01*
X114324417Y-49058561D01*
X114323372Y-48999524D01*
X114323398Y-48984350D01*
X114500227Y-48984350D01*
X114500717Y-49045886D01*
X114502537Y-49104754D01*
X114505685Y-49157910D01*
X114510161Y-49202309D01*
X114511613Y-49212500D01*
X114541610Y-49368305D01*
X114583167Y-49523518D01*
X114635560Y-49676172D01*
X114698069Y-49824301D01*
X114769971Y-49965939D01*
X114819070Y-50049827D01*
X114842953Y-50087803D01*
X114865982Y-50122723D01*
X114889216Y-50155845D01*
X114913716Y-50188425D01*
X114940542Y-50221722D01*
X114970752Y-50256993D01*
X115005408Y-50295495D01*
X115045569Y-50338487D01*
X115092295Y-50387226D01*
X115146645Y-50442969D01*
X115173012Y-50469800D01*
X115226323Y-50524077D01*
X115271683Y-50570592D01*
X115310161Y-50610522D01*
X115342826Y-50645046D01*
X115370746Y-50675341D01*
X115394991Y-50702586D01*
X115416629Y-50727958D01*
X115436729Y-50752636D01*
X115456361Y-50777797D01*
X115475515Y-50803175D01*
X115528626Y-50877527D01*
X115578506Y-50954087D01*
X115625738Y-51034091D01*
X115670905Y-51118772D01*
X115714592Y-51209367D01*
X115757382Y-51307108D01*
X115799859Y-51413232D01*
X115842605Y-51528972D01*
X115886205Y-51655564D01*
X115904342Y-51710516D01*
X115928448Y-51783971D01*
X115949350Y-51846629D01*
X115967564Y-51899833D01*
X115983602Y-51944931D01*
X115997978Y-51983267D01*
X116011207Y-52016186D01*
X116023802Y-52045036D01*
X116036277Y-52071160D01*
X116049146Y-52095906D01*
X116056923Y-52110032D01*
X116098129Y-52177526D01*
X116143076Y-52238548D01*
X116194939Y-52297166D01*
X116230970Y-52333139D01*
X116313116Y-52403306D01*
X116402390Y-52463317D01*
X116497711Y-52512671D01*
X116597998Y-52550869D01*
X116702169Y-52577411D01*
X116786355Y-52589795D01*
X116816923Y-52592263D01*
X116845131Y-52592935D01*
X116874433Y-52591626D01*
X116908286Y-52588149D01*
X116950144Y-52582318D01*
X116963825Y-52580229D01*
X117065186Y-52558208D01*
X117163451Y-52524317D01*
X117257608Y-52479212D01*
X117346646Y-52423553D01*
X117429553Y-52357995D01*
X117505319Y-52283196D01*
X117572931Y-52199813D01*
X117592675Y-52171434D01*
X117608891Y-52146736D01*
X117623559Y-52123095D01*
X117637163Y-52099316D01*
X117650190Y-52074207D01*
X117663126Y-52046572D01*
X117676455Y-52015218D01*
X117690663Y-51978950D01*
X117706237Y-51936575D01*
X117723662Y-51886897D01*
X117743423Y-51828724D01*
X117766007Y-51760861D01*
X117791898Y-51682113D01*
X117792762Y-51679475D01*
X117838302Y-51545198D01*
X117883342Y-51422313D01*
X117928448Y-51309556D01*
X117974186Y-51205665D01*
X118021121Y-51109375D01*
X118069819Y-51019423D01*
X118120847Y-50934547D01*
X118139090Y-50906218D01*
X118164793Y-50867594D01*
X118189536Y-50831894D01*
X118214370Y-50797893D01*
X118240345Y-50764369D01*
X118268510Y-50730099D01*
X118299916Y-50693859D01*
X118335613Y-50654426D01*
X118376650Y-50610575D01*
X118424077Y-50561085D01*
X118478945Y-50504731D01*
X118516357Y-50466625D01*
X118556028Y-50426167D01*
X118594316Y-50386853D01*
X118629955Y-50350001D01*
X118661678Y-50316931D01*
X118688220Y-50288963D01*
X118708314Y-50267415D01*
X118720446Y-50253900D01*
X118792842Y-50161859D01*
X118861818Y-50059227D01*
X118926505Y-49947854D01*
X118986035Y-49829589D01*
X119039539Y-49706283D01*
X119086150Y-49579784D01*
X119124999Y-49451943D01*
X119154123Y-49329975D01*
X119177230Y-49186386D01*
X119187721Y-49042245D01*
X119185643Y-48897983D01*
X119171042Y-48754036D01*
X119143964Y-48610835D01*
X119104455Y-48468816D01*
X119052560Y-48328411D01*
X119045925Y-48312680D01*
X118983474Y-48181164D01*
X118909285Y-48050923D01*
X118824323Y-47923242D01*
X118729550Y-47799410D01*
X118625929Y-47680715D01*
X118514424Y-47568444D01*
X118437025Y-47498529D01*
X118322422Y-47404718D01*
X118205844Y-47320083D01*
X118084268Y-47242629D01*
X117954668Y-47170362D01*
X117888582Y-47136862D01*
X117728940Y-47064368D01*
X117568547Y-47003866D01*
X117405676Y-46954850D01*
X117238602Y-46916811D01*
X117065596Y-46889244D01*
X117030500Y-46884985D01*
X116906832Y-46876093D01*
X116776551Y-46876939D01*
X116640941Y-46887318D01*
X116501287Y-46907021D01*
X116358872Y-46935843D01*
X116214983Y-46973577D01*
X116070903Y-47020016D01*
X115979575Y-47054057D01*
X115936483Y-47072095D01*
X115885403Y-47095276D01*
X115829202Y-47122152D01*
X115770750Y-47151275D01*
X115712915Y-47181198D01*
X115658563Y-47210472D01*
X115610564Y-47237650D01*
X115582700Y-47254391D01*
X115433239Y-47354229D01*
X115292739Y-47462566D01*
X115161519Y-47579068D01*
X115039897Y-47703403D01*
X114928195Y-47835238D01*
X114826731Y-47974240D01*
X114735826Y-48120076D01*
X114714134Y-48158753D01*
X114664791Y-48257731D01*
X114619829Y-48365918D01*
X114580251Y-48480282D01*
X114547057Y-48597788D01*
X114521249Y-48715404D01*
X114511564Y-48772412D01*
X114506734Y-48814178D01*
X114503235Y-48865452D01*
X114501066Y-48923191D01*
X114500227Y-48984350D01*
X114323398Y-48984350D01*
X114323473Y-48941109D01*
X114324745Y-48886320D01*
X114327212Y-48838166D01*
X114330886Y-48799750D01*
X114348845Y-48681085D01*
X114370661Y-48571675D01*
X114397261Y-48468414D01*
X114429568Y-48368201D01*
X114468509Y-48267931D01*
X114515008Y-48164503D01*
X114528713Y-48136175D01*
X114606241Y-47992157D01*
X114695207Y-47852437D01*
X114794874Y-47717695D01*
X114904507Y-47588610D01*
X115023368Y-47465865D01*
X115150722Y-47350139D01*
X115285832Y-47242113D01*
X115427961Y-47142468D01*
X115576374Y-47051884D01*
X115730334Y-46971042D01*
X115846225Y-46918391D01*
X115991033Y-46861420D01*
X116137807Y-46812543D01*
X116285150Y-46772023D01*
X116431664Y-46740120D01*
X116575951Y-46717097D01*
X116716614Y-46703214D01*
X116852255Y-46698733D01*
X116981477Y-46703916D01*
G36*
X117493173Y-51263313D02*
X117518100Y-51275416D01*
X117539579Y-51295386D01*
X117553464Y-51319133D01*
X117555075Y-51324406D01*
X117556315Y-51350658D01*
X117549377Y-51378677D01*
X117537714Y-51399631D01*
X117520926Y-51416000D01*
X117496625Y-51433855D01*
X117469250Y-51450377D01*
X117443236Y-51462748D01*
X117432655Y-51466352D01*
X117419984Y-51468605D01*
X117396267Y-51471599D01*
X117363128Y-51475198D01*
X117322190Y-51479269D01*
X117275078Y-51483677D01*
X117223416Y-51488289D01*
X117168826Y-51492971D01*
X117112934Y-51497589D01*
X117057363Y-51502008D01*
X117003736Y-51506094D01*
X116953678Y-51509714D01*
X116908812Y-51512734D01*
X116870763Y-51515019D01*
X116841154Y-51516435D01*
X116821609Y-51516849D01*
X116820950Y-51516841D01*
X116802363Y-51516123D01*
X116772903Y-51514407D01*
X116734344Y-51511821D01*
X116688462Y-51508494D01*
X116637032Y-51504555D01*
X116581831Y-51500135D01*
X116524634Y-51495361D01*
X116519325Y-51494908D01*
X116463660Y-51490005D01*
X116411245Y-51485118D01*
X116363598Y-51480409D01*
X116322238Y-51476039D01*
X116288684Y-51472169D01*
X116264454Y-51468961D01*
X116251066Y-51466578D01*
X116249843Y-51466221D01*
X116229441Y-51457194D01*
X116205108Y-51443604D01*
X116181097Y-51428126D01*
X116161662Y-51413438D01*
X116153511Y-51405598D01*
X116138903Y-51380238D01*
X116133454Y-51351360D01*
X116136675Y-51322269D01*
X116148073Y-51296273D01*
X116167159Y-51276677D01*
X116173192Y-51273104D01*
X116192590Y-51266263D01*
X116214678Y-51262601D01*
X116216384Y-51262514D01*
X116230274Y-51262757D01*
X116243615Y-51265443D01*
X116259643Y-51271718D01*
X116281595Y-51282726D01*
X116297075Y-51291053D01*
X116305321Y-51294064D01*
X116319657Y-51297160D01*
X116341042Y-51300449D01*
X116370437Y-51304039D01*
X116408800Y-51308040D01*
X116457093Y-51312560D01*
X116516274Y-51317708D01*
X116576475Y-51322710D01*
X116836825Y-51343998D01*
X117109949Y-51321159D01*
X117176602Y-51315543D01*
X117231774Y-51310771D01*
X117276644Y-51306697D01*
X117312391Y-51303175D01*
X117340197Y-51300059D01*
X117361239Y-51297203D01*
X117376699Y-51294460D01*
X117387755Y-51291685D01*
X117395588Y-51288732D01*
X117401377Y-51285454D01*
X117402049Y-51284991D01*
X117436986Y-51266388D01*
X117470901Y-51260297D01*
X117493173Y-51263313D01*
X117493173Y-51263313D01*
G37*
X117493173Y-51263313D02*
X117518100Y-51275416D01*
X117539579Y-51295386D01*
X117553464Y-51319133D01*
X117555075Y-51324406D01*
X117556315Y-51350658D01*
X117549377Y-51378677D01*
X117537714Y-51399631D01*
X117520926Y-51416000D01*
X117496625Y-51433855D01*
X117469250Y-51450377D01*
X117443236Y-51462748D01*
X117432655Y-51466352D01*
X117419984Y-51468605D01*
X117396267Y-51471599D01*
X117363128Y-51475198D01*
X117322190Y-51479269D01*
X117275078Y-51483677D01*
X117223416Y-51488289D01*
X117168826Y-51492971D01*
X117112934Y-51497589D01*
X117057363Y-51502008D01*
X117003736Y-51506094D01*
X116953678Y-51509714D01*
X116908812Y-51512734D01*
X116870763Y-51515019D01*
X116841154Y-51516435D01*
X116821609Y-51516849D01*
X116820950Y-51516841D01*
X116802363Y-51516123D01*
X116772903Y-51514407D01*
X116734344Y-51511821D01*
X116688462Y-51508494D01*
X116637032Y-51504555D01*
X116581831Y-51500135D01*
X116524634Y-51495361D01*
X116519325Y-51494908D01*
X116463660Y-51490005D01*
X116411245Y-51485118D01*
X116363598Y-51480409D01*
X116322238Y-51476039D01*
X116288684Y-51472169D01*
X116264454Y-51468961D01*
X116251066Y-51466578D01*
X116249843Y-51466221D01*
X116229441Y-51457194D01*
X116205108Y-51443604D01*
X116181097Y-51428126D01*
X116161662Y-51413438D01*
X116153511Y-51405598D01*
X116138903Y-51380238D01*
X116133454Y-51351360D01*
X116136675Y-51322269D01*
X116148073Y-51296273D01*
X116167159Y-51276677D01*
X116173192Y-51273104D01*
X116192590Y-51266263D01*
X116214678Y-51262601D01*
X116216384Y-51262514D01*
X116230274Y-51262757D01*
X116243615Y-51265443D01*
X116259643Y-51271718D01*
X116281595Y-51282726D01*
X116297075Y-51291053D01*
X116305321Y-51294064D01*
X116319657Y-51297160D01*
X116341042Y-51300449D01*
X116370437Y-51304039D01*
X116408800Y-51308040D01*
X116457093Y-51312560D01*
X116516274Y-51317708D01*
X116576475Y-51322710D01*
X116836825Y-51343998D01*
X117109949Y-51321159D01*
X117176602Y-51315543D01*
X117231774Y-51310771D01*
X117276644Y-51306697D01*
X117312391Y-51303175D01*
X117340197Y-51300059D01*
X117361239Y-51297203D01*
X117376699Y-51294460D01*
X117387755Y-51291685D01*
X117395588Y-51288732D01*
X117401377Y-51285454D01*
X117402049Y-51284991D01*
X117436986Y-51266388D01*
X117470901Y-51260297D01*
X117493173Y-51263313D01*
G36*
X115883627Y-48091747D02*
X115942645Y-48097184D01*
X116000936Y-48106375D01*
X116062404Y-48119713D01*
X116079162Y-48123851D01*
X116191702Y-48158695D01*
X116300927Y-48205365D01*
X116405786Y-48263190D01*
X116505229Y-48331501D01*
X116598205Y-48409626D01*
X116683665Y-48496895D01*
X116708243Y-48525432D01*
X116752685Y-48578640D01*
X116722428Y-48646332D01*
X116661518Y-48767650D01*
X116590010Y-48882579D01*
X116507548Y-48991617D01*
X116413776Y-49095265D01*
X116376882Y-49131641D01*
X116272094Y-49223401D01*
X116160970Y-49304178D01*
X116043747Y-49373854D01*
X115920659Y-49432315D01*
X115791943Y-49479445D01*
X115657835Y-49515126D01*
X115560475Y-49533292D01*
X115532347Y-49536624D01*
X115494366Y-49539652D01*
X115449305Y-49542291D01*
X115399934Y-49544454D01*
X115349025Y-49546058D01*
X115299351Y-49547016D01*
X115253683Y-49547244D01*
X115214792Y-49546656D01*
X115185451Y-49545167D01*
X115182650Y-49544918D01*
X115057802Y-49527566D01*
X114931548Y-49499382D01*
X114807276Y-49461295D01*
X114688368Y-49414234D01*
X114660911Y-49401663D01*
X114630480Y-49387136D01*
X114609648Y-49375572D01*
X114596594Y-49364385D01*
X114589493Y-49350985D01*
X114586525Y-49332783D01*
X114585866Y-49307193D01*
X114585842Y-49295050D01*
X114591692Y-49172628D01*
X114609330Y-49053173D01*
X114638250Y-48937392D01*
X114677951Y-48825994D01*
X114727926Y-48719687D01*
X114787672Y-48619179D01*
X114856684Y-48525180D01*
X114934460Y-48438397D01*
X115020494Y-48359539D01*
X115114282Y-48289315D01*
X115215321Y-48228431D01*
X115323106Y-48177598D01*
X115401725Y-48148563D01*
X115468818Y-48128162D01*
X115531960Y-48112862D01*
X115595133Y-48101994D01*
X115662319Y-48094892D01*
X115737499Y-48090888D01*
X115747800Y-48090568D01*
X115819980Y-48089673D01*
X115883627Y-48091747D01*
X115883627Y-48091747D01*
G37*
X115883627Y-48091747D02*
X115942645Y-48097184D01*
X116000936Y-48106375D01*
X116062404Y-48119713D01*
X116079162Y-48123851D01*
X116191702Y-48158695D01*
X116300927Y-48205365D01*
X116405786Y-48263190D01*
X116505229Y-48331501D01*
X116598205Y-48409626D01*
X116683665Y-48496895D01*
X116708243Y-48525432D01*
X116752685Y-48578640D01*
X116722428Y-48646332D01*
X116661518Y-48767650D01*
X116590010Y-48882579D01*
X116507548Y-48991617D01*
X116413776Y-49095265D01*
X116376882Y-49131641D01*
X116272094Y-49223401D01*
X116160970Y-49304178D01*
X116043747Y-49373854D01*
X115920659Y-49432315D01*
X115791943Y-49479445D01*
X115657835Y-49515126D01*
X115560475Y-49533292D01*
X115532347Y-49536624D01*
X115494366Y-49539652D01*
X115449305Y-49542291D01*
X115399934Y-49544454D01*
X115349025Y-49546058D01*
X115299351Y-49547016D01*
X115253683Y-49547244D01*
X115214792Y-49546656D01*
X115185451Y-49545167D01*
X115182650Y-49544918D01*
X115057802Y-49527566D01*
X114931548Y-49499382D01*
X114807276Y-49461295D01*
X114688368Y-49414234D01*
X114660911Y-49401663D01*
X114630480Y-49387136D01*
X114609648Y-49375572D01*
X114596594Y-49364385D01*
X114589493Y-49350985D01*
X114586525Y-49332783D01*
X114585866Y-49307193D01*
X114585842Y-49295050D01*
X114591692Y-49172628D01*
X114609330Y-49053173D01*
X114638250Y-48937392D01*
X114677951Y-48825994D01*
X114727926Y-48719687D01*
X114787672Y-48619179D01*
X114856684Y-48525180D01*
X114934460Y-48438397D01*
X115020494Y-48359539D01*
X115114282Y-48289315D01*
X115215321Y-48228431D01*
X115323106Y-48177598D01*
X115401725Y-48148563D01*
X115468818Y-48128162D01*
X115531960Y-48112862D01*
X115595133Y-48101994D01*
X115662319Y-48094892D01*
X115737499Y-48090888D01*
X115747800Y-48090568D01*
X115819980Y-48089673D01*
X115883627Y-48091747D01*
G36*
X117961905Y-48090789D02*
X118004027Y-48093398D01*
X118015038Y-48094523D01*
X118136872Y-48114699D01*
X118254802Y-48146632D01*
X118368064Y-48189942D01*
X118475895Y-48244247D01*
X118577531Y-48309167D01*
X118672207Y-48384321D01*
X118752108Y-48461751D01*
X118808540Y-48525586D01*
X118857324Y-48589396D01*
X118900924Y-48656827D01*
X118941803Y-48731523D01*
X118961251Y-48771175D01*
X118999583Y-48859438D01*
X119029116Y-48945480D01*
X119050600Y-49032502D01*
X119064789Y-49123705D01*
X119072433Y-49222289D01*
X119073424Y-49248965D01*
X119076885Y-49364806D01*
X118998255Y-49402780D01*
X118889600Y-49449850D01*
X118777114Y-49487691D01*
X118658833Y-49516848D01*
X118532794Y-49537866D01*
X118494175Y-49542554D01*
X118461030Y-49545181D01*
X118418612Y-49546943D01*
X118370315Y-49547844D01*
X118319537Y-49547889D01*
X118269674Y-49547082D01*
X118224121Y-49545429D01*
X118186274Y-49542933D01*
X118177815Y-49542116D01*
X118039641Y-49521293D01*
X117905552Y-49488658D01*
X117776142Y-49444601D01*
X117652009Y-49389512D01*
X117533748Y-49323781D01*
X117421955Y-49247799D01*
X117317226Y-49161955D01*
X117220156Y-49066640D01*
X117131343Y-48962243D01*
X117051381Y-48849155D01*
X117007033Y-48775766D01*
X116992041Y-48748308D01*
X116975968Y-48717113D01*
X116959887Y-48684482D01*
X116944872Y-48652713D01*
X116931999Y-48624106D01*
X116922342Y-48600960D01*
X116916974Y-48585574D01*
X116916235Y-48581443D01*
X116920235Y-48572816D01*
X116931043Y-48556943D01*
X116946936Y-48535985D01*
X116966189Y-48512103D01*
X116987078Y-48487458D01*
X117007879Y-48464211D01*
X117019800Y-48451629D01*
X117108467Y-48369601D01*
X117205469Y-48296583D01*
X117309575Y-48233229D01*
X117419554Y-48180196D01*
X117534174Y-48138142D01*
X117652203Y-48107721D01*
X117672540Y-48103750D01*
X117708505Y-48098631D01*
X117753808Y-48094576D01*
X117805124Y-48091675D01*
X117859128Y-48090017D01*
X117912497Y-48089692D01*
X117961905Y-48090789D01*
X117961905Y-48090789D01*
G37*
X117961905Y-48090789D02*
X118004027Y-48093398D01*
X118015038Y-48094523D01*
X118136872Y-48114699D01*
X118254802Y-48146632D01*
X118368064Y-48189942D01*
X118475895Y-48244247D01*
X118577531Y-48309167D01*
X118672207Y-48384321D01*
X118752108Y-48461751D01*
X118808540Y-48525586D01*
X118857324Y-48589396D01*
X118900924Y-48656827D01*
X118941803Y-48731523D01*
X118961251Y-48771175D01*
X118999583Y-48859438D01*
X119029116Y-48945480D01*
X119050600Y-49032502D01*
X119064789Y-49123705D01*
X119072433Y-49222289D01*
X119073424Y-49248965D01*
X119076885Y-49364806D01*
X118998255Y-49402780D01*
X118889600Y-49449850D01*
X118777114Y-49487691D01*
X118658833Y-49516848D01*
X118532794Y-49537866D01*
X118494175Y-49542554D01*
X118461030Y-49545181D01*
X118418612Y-49546943D01*
X118370315Y-49547844D01*
X118319537Y-49547889D01*
X118269674Y-49547082D01*
X118224121Y-49545429D01*
X118186274Y-49542933D01*
X118177815Y-49542116D01*
X118039641Y-49521293D01*
X117905552Y-49488658D01*
X117776142Y-49444601D01*
X117652009Y-49389512D01*
X117533748Y-49323781D01*
X117421955Y-49247799D01*
X117317226Y-49161955D01*
X117220156Y-49066640D01*
X117131343Y-48962243D01*
X117051381Y-48849155D01*
X117007033Y-48775766D01*
X116992041Y-48748308D01*
X116975968Y-48717113D01*
X116959887Y-48684482D01*
X116944872Y-48652713D01*
X116931999Y-48624106D01*
X116922342Y-48600960D01*
X116916974Y-48585574D01*
X116916235Y-48581443D01*
X116920235Y-48572816D01*
X116931043Y-48556943D01*
X116946936Y-48535985D01*
X116966189Y-48512103D01*
X116987078Y-48487458D01*
X117007879Y-48464211D01*
X117019800Y-48451629D01*
X117108467Y-48369601D01*
X117205469Y-48296583D01*
X117309575Y-48233229D01*
X117419554Y-48180196D01*
X117534174Y-48138142D01*
X117652203Y-48107721D01*
X117672540Y-48103750D01*
X117708505Y-48098631D01*
X117753808Y-48094576D01*
X117805124Y-48091675D01*
X117859128Y-48090017D01*
X117912497Y-48089692D01*
X117961905Y-48090789D01*
D19*
X157310667Y-103232857D02*
X157262286Y-103281238D01*
X157117143Y-103329619D01*
X157020381Y-103329619D01*
X156875239Y-103281238D01*
X156778477Y-103184476D01*
X156730096Y-103087714D01*
X156681715Y-102894190D01*
X156681715Y-102749048D01*
X156730096Y-102555524D01*
X156778477Y-102458762D01*
X156875239Y-102362000D01*
X157020381Y-102313619D01*
X157117143Y-102313619D01*
X157262286Y-102362000D01*
X157310667Y-102410381D01*
X158278286Y-103329619D02*
X157697715Y-103329619D01*
X157988001Y-103329619D02*
X157988001Y-102313619D01*
X157891239Y-102458762D01*
X157794477Y-102555524D01*
X157697715Y-102603905D01*
X150960667Y-80372857D02*
X150912286Y-80421238D01*
X150767143Y-80469619D01*
X150670381Y-80469619D01*
X150525239Y-80421238D01*
X150428477Y-80324476D01*
X150380096Y-80227714D01*
X150331715Y-80034190D01*
X150331715Y-79889048D01*
X150380096Y-79695524D01*
X150428477Y-79598762D01*
X150525239Y-79502000D01*
X150670381Y-79453619D01*
X150767143Y-79453619D01*
X150912286Y-79502000D01*
X150960667Y-79550381D01*
X151347715Y-79550381D02*
X151396096Y-79502000D01*
X151492858Y-79453619D01*
X151734762Y-79453619D01*
X151831524Y-79502000D01*
X151879905Y-79550381D01*
X151928286Y-79647143D01*
X151928286Y-79743905D01*
X151879905Y-79889048D01*
X151299334Y-80469619D01*
X151928286Y-80469619D01*
X114662857Y-136059333D02*
X114711238Y-136107714D01*
X114759619Y-136252857D01*
X114759619Y-136349619D01*
X114711238Y-136494761D01*
X114614476Y-136591523D01*
X114517714Y-136639904D01*
X114324190Y-136688285D01*
X114179048Y-136688285D01*
X113985524Y-136639904D01*
X113888762Y-136591523D01*
X113792000Y-136494761D01*
X113743619Y-136349619D01*
X113743619Y-136252857D01*
X113792000Y-136107714D01*
X113840381Y-136059333D01*
X113743619Y-135720666D02*
X113743619Y-135091714D01*
X114130667Y-135430380D01*
X114130667Y-135285238D01*
X114179048Y-135188476D01*
X114227429Y-135140095D01*
X114324190Y-135091714D01*
X114566095Y-135091714D01*
X114662857Y-135140095D01*
X114711238Y-135188476D01*
X114759619Y-135285238D01*
X114759619Y-135575523D01*
X114711238Y-135672285D01*
X114662857Y-135720666D01*
D12*
X150404286Y-48840571D02*
X150476857Y-48913142D01*
X150549429Y-49130856D01*
X150549429Y-49275999D01*
X150476857Y-49493714D01*
X150331714Y-49638856D01*
X150186571Y-49711428D01*
X149896286Y-49783999D01*
X149678571Y-49783999D01*
X149388286Y-49711428D01*
X149243143Y-49638856D01*
X149098000Y-49493714D01*
X149025429Y-49275999D01*
X149025429Y-49130856D01*
X149098000Y-48913142D01*
X149170571Y-48840571D01*
X149025429Y-47897142D02*
X149025429Y-47606856D01*
X149098000Y-47461714D01*
X149243143Y-47316571D01*
X149533429Y-47243999D01*
X150041429Y-47243999D01*
X150331714Y-47316571D01*
X150476857Y-47461714D01*
X150549429Y-47606856D01*
X150549429Y-47897142D01*
X150476857Y-48042285D01*
X150331714Y-48187428D01*
X150041429Y-48259999D01*
X149533429Y-48259999D01*
X149243143Y-48187428D01*
X149098000Y-48042285D01*
X149025429Y-47897142D01*
X150549429Y-46590857D02*
X149025429Y-46590857D01*
X150549429Y-45720000D01*
X149025429Y-45720000D01*
X150549429Y-44196000D02*
X150549429Y-45066857D01*
X150549429Y-44631429D02*
X149025429Y-44631429D01*
X149243143Y-44776572D01*
X149388286Y-44921714D01*
X149460857Y-45066857D01*
X180956857Y-65350571D02*
X181029429Y-65132857D01*
X181029429Y-64770000D01*
X180956857Y-64624857D01*
X180884286Y-64552286D01*
X180739143Y-64479714D01*
X180594000Y-64479714D01*
X180448857Y-64552286D01*
X180376286Y-64624857D01*
X180303714Y-64770000D01*
X180231143Y-65060286D01*
X180158571Y-65205428D01*
X180086000Y-65278000D01*
X179940857Y-65350571D01*
X179795714Y-65350571D01*
X179650571Y-65278000D01*
X179578000Y-65205428D01*
X179505429Y-65060286D01*
X179505429Y-64697428D01*
X179578000Y-64479714D01*
X181029429Y-63826571D02*
X179505429Y-63826571D01*
X179505429Y-63463714D01*
X179578000Y-63245999D01*
X179723143Y-63100857D01*
X179868286Y-63028285D01*
X180158571Y-62955714D01*
X180376286Y-62955714D01*
X180666571Y-63028285D01*
X180811714Y-63100857D01*
X180956857Y-63245999D01*
X181029429Y-63463714D01*
X181029429Y-63826571D01*
X181174571Y-62665428D02*
X181174571Y-61504285D01*
X180884286Y-60270571D02*
X180956857Y-60343142D01*
X181029429Y-60560856D01*
X181029429Y-60705999D01*
X180956857Y-60923714D01*
X180811714Y-61068856D01*
X180666571Y-61141428D01*
X180376286Y-61213999D01*
X180158571Y-61213999D01*
X179868286Y-61141428D01*
X179723143Y-61068856D01*
X179578000Y-60923714D01*
X179505429Y-60705999D01*
X179505429Y-60560856D01*
X179578000Y-60343142D01*
X179650571Y-60270571D01*
X181029429Y-58964285D02*
X180231143Y-58964285D01*
X180086000Y-59036856D01*
X180013429Y-59181999D01*
X180013429Y-59472285D01*
X180086000Y-59617428D01*
X180956857Y-58964285D02*
X181029429Y-59109428D01*
X181029429Y-59472285D01*
X180956857Y-59617428D01*
X180811714Y-59689999D01*
X180666571Y-59689999D01*
X180521429Y-59617428D01*
X180448857Y-59472285D01*
X180448857Y-59109428D01*
X180376286Y-58964285D01*
X181029429Y-58238571D02*
X180013429Y-58238571D01*
X180303714Y-58238571D02*
X180158571Y-58165999D01*
X180086000Y-58093428D01*
X180013429Y-57948285D01*
X180013429Y-57803142D01*
X181029429Y-56641999D02*
X179505429Y-56641999D01*
X180956857Y-56641999D02*
X181029429Y-56787142D01*
X181029429Y-57077428D01*
X180956857Y-57222570D01*
X180884286Y-57295142D01*
X180739143Y-57367713D01*
X180303714Y-57367713D01*
X180158571Y-57295142D01*
X180086000Y-57222570D01*
X180013429Y-57077428D01*
X180013429Y-56787142D01*
X180086000Y-56641999D01*
D17*
X143172381Y-59158095D02*
X142172381Y-59158095D01*
X142172381Y-58920000D01*
X142220000Y-58777142D01*
X142315238Y-58681904D01*
X142410476Y-58634285D01*
X142600952Y-58586666D01*
X142743810Y-58586666D01*
X142934286Y-58634285D01*
X143029524Y-58681904D01*
X143124762Y-58777142D01*
X143172381Y-58920000D01*
X143172381Y-59158095D01*
X143172381Y-57634285D02*
X143172381Y-58205714D01*
X143172381Y-57920000D02*
X142172381Y-57920000D01*
X142315238Y-58015238D01*
X142410476Y-58110476D01*
X142458095Y-58205714D01*
X142212381Y-59158095D02*
X141212381Y-59158095D01*
X141212381Y-58920000D01*
X141260000Y-58777142D01*
X141355238Y-58681904D01*
X141450476Y-58634285D01*
X141640952Y-58586666D01*
X141783810Y-58586666D01*
X141974286Y-58634285D01*
X142069524Y-58681904D01*
X142164762Y-58777142D01*
X142212381Y-58920000D01*
X142212381Y-59158095D01*
X141307619Y-58205714D02*
X141260000Y-58158095D01*
X141212381Y-58062857D01*
X141212381Y-57824761D01*
X141260000Y-57729523D01*
X141307619Y-57681904D01*
X141402857Y-57634285D01*
X141498095Y-57634285D01*
X141640952Y-57681904D01*
X142212381Y-58253333D01*
X142212381Y-57634285D01*
D20*
X162714215Y-81969429D02*
X162714215Y-80445429D01*
X163911644Y-81824286D02*
X163857215Y-81896857D01*
X163693929Y-81969429D01*
X163585072Y-81969429D01*
X163421787Y-81896857D01*
X163312929Y-81751714D01*
X163258501Y-81606571D01*
X163204072Y-81316286D01*
X163204072Y-81098571D01*
X163258501Y-80808286D01*
X163312929Y-80663143D01*
X163421787Y-80518000D01*
X163585072Y-80445429D01*
X163693929Y-80445429D01*
X163857215Y-80518000D01*
X163911644Y-80590571D01*
X165000215Y-81969429D02*
X164347072Y-81969429D01*
X164673644Y-81969429D02*
X164673644Y-80445429D01*
X164564787Y-80663143D01*
X164455929Y-80808286D01*
X164347072Y-80880857D01*
D21*
D20*
X165753144Y-81534000D02*
X166297430Y-81534000D01*
X165644287Y-81969429D02*
X166025287Y-80445429D01*
X166406287Y-81969429D01*
X166624001Y-80445429D02*
X167277144Y-80445429D01*
X166950573Y-81969429D02*
X166950573Y-80445429D01*
X167658144Y-81969429D02*
X167658144Y-80445429D01*
X168039144Y-81534000D01*
X168420144Y-80445429D01*
X168420144Y-81969429D01*
X168964430Y-81171143D02*
X169345430Y-81171143D01*
X169508716Y-81969429D02*
X168964430Y-81969429D01*
X168964430Y-80445429D01*
X169508716Y-80445429D01*
X170597287Y-80518000D02*
X170488430Y-80445429D01*
X170325144Y-80445429D01*
X170161859Y-80518000D01*
X170053001Y-80663143D01*
X169998573Y-80808286D01*
X169944144Y-81098571D01*
X169944144Y-81316286D01*
X169998573Y-81606571D01*
X170053001Y-81751714D01*
X170161859Y-81896857D01*
X170325144Y-81969429D01*
X170434001Y-81969429D01*
X170597287Y-81896857D01*
X170651716Y-81824286D01*
X170651716Y-81316286D01*
X170434001Y-81316286D01*
X171087144Y-81534000D02*
X171631430Y-81534000D01*
X170978287Y-81969429D02*
X171359287Y-80445429D01*
X171740287Y-81969429D01*
X172720001Y-81969429D02*
X172066858Y-81969429D01*
X172393430Y-81969429D02*
X172393430Y-80445429D01*
X172284573Y-80663143D01*
X172175715Y-80808286D01*
X172066858Y-80880857D01*
X173155429Y-80590571D02*
X173209858Y-80518000D01*
X173318715Y-80445429D01*
X173590858Y-80445429D01*
X173699715Y-80518000D01*
X173754144Y-80590571D01*
X173808572Y-80735714D01*
X173808572Y-80880857D01*
X173754144Y-81098571D01*
X173101001Y-81969429D01*
X173808572Y-81969429D01*
X174461715Y-81098571D02*
X174352857Y-81026000D01*
X174298429Y-80953429D01*
X174244000Y-80808286D01*
X174244000Y-80735714D01*
X174298429Y-80590571D01*
X174352857Y-80518000D01*
X174461715Y-80445429D01*
X174679429Y-80445429D01*
X174788286Y-80518000D01*
X174842715Y-80590571D01*
X174897143Y-80735714D01*
X174897143Y-80808286D01*
X174842715Y-80953429D01*
X174788286Y-81026000D01*
X174679429Y-81098571D01*
X174461715Y-81098571D01*
X174352857Y-81171143D01*
X174298429Y-81243714D01*
X174244000Y-81388857D01*
X174244000Y-81679143D01*
X174298429Y-81824286D01*
X174352857Y-81896857D01*
X174461715Y-81969429D01*
X174679429Y-81969429D01*
X174788286Y-81896857D01*
X174842715Y-81824286D01*
X174897143Y-81679143D01*
X174897143Y-81388857D01*
X174842715Y-81243714D01*
X174788286Y-81171143D01*
X174679429Y-81098571D01*
X175876857Y-80953429D02*
X175876857Y-81969429D01*
X175604714Y-80372857D02*
X175332571Y-81461429D01*
X176040143Y-81461429D01*
X176475571Y-81969429D02*
X176475571Y-80445429D01*
X176910999Y-80445429D01*
X177019857Y-80518000D01*
X177074285Y-80590571D01*
X177128714Y-80735714D01*
X177128714Y-80953429D01*
X177074285Y-81098571D01*
X177019857Y-81171143D01*
X176910999Y-81243714D01*
X176475571Y-81243714D01*
X177618571Y-81388857D02*
X178489428Y-81388857D01*
X179033714Y-81969429D02*
X179033714Y-80445429D01*
X179469142Y-80445429D01*
X179578000Y-80518000D01*
X179632428Y-80590571D01*
X179686857Y-80735714D01*
X179686857Y-80953429D01*
X179632428Y-81098571D01*
X179578000Y-81171143D01*
X179469142Y-81243714D01*
X179033714Y-81243714D01*
D21*
D19*
X123912381Y-65103333D02*
X124626667Y-65103333D01*
X124769524Y-65150953D01*
X124864762Y-65246191D01*
X124912381Y-65389048D01*
X124912381Y-65484286D01*
X124912381Y-64103333D02*
X124912381Y-64674762D01*
X124912381Y-64389048D02*
X123912381Y-64389048D01*
X124055238Y-64484286D01*
X124150476Y-64579524D01*
X124198095Y-64674762D01*
D17*
X127932381Y-104473333D02*
X128646667Y-104473333D01*
X128789524Y-104520953D01*
X128884762Y-104616191D01*
X128932381Y-104759048D01*
X128932381Y-104854286D01*
X128027619Y-104044762D02*
X127980000Y-103997143D01*
X127932381Y-103901905D01*
X127932381Y-103663809D01*
X127980000Y-103568571D01*
X128027619Y-103520952D01*
X128122857Y-103473333D01*
X128218095Y-103473333D01*
X128360952Y-103520952D01*
X128932381Y-104092381D01*
X128932381Y-103473333D01*
X119892381Y-60023333D02*
X120606667Y-60023333D01*
X120749524Y-60070953D01*
X120844762Y-60166191D01*
X120892381Y-60309048D01*
X120892381Y-60404286D01*
X119892381Y-59642381D02*
X119892381Y-59023333D01*
X120273333Y-59356667D01*
X120273333Y-59213809D01*
X120320952Y-59118571D01*
X120368571Y-59070952D01*
X120463810Y-59023333D01*
X120701905Y-59023333D01*
X120797143Y-59070952D01*
X120844762Y-59118571D01*
X120892381Y-59213809D01*
X120892381Y-59499524D01*
X120844762Y-59594762D01*
X120797143Y-59642381D01*
X165612381Y-134953333D02*
X166326667Y-134953333D01*
X166469524Y-135000953D01*
X166564762Y-135096191D01*
X166612381Y-135239048D01*
X166612381Y-135334286D01*
X165945714Y-134048571D02*
X166612381Y-134048571D01*
X165564762Y-134286667D02*
X166279048Y-134524762D01*
X166279048Y-133905714D01*
X159686667Y-77132381D02*
X159686667Y-77846667D01*
X159639047Y-77989524D01*
X159543809Y-78084762D01*
X159400952Y-78132381D01*
X159305714Y-78132381D01*
X160639048Y-77132381D02*
X160162857Y-77132381D01*
X160115238Y-77608571D01*
X160162857Y-77560952D01*
X160258095Y-77513333D01*
X160496191Y-77513333D01*
X160591429Y-77560952D01*
X160639048Y-77608571D01*
X160686667Y-77703810D01*
X160686667Y-77941905D01*
X160639048Y-78037143D01*
X160591429Y-78084762D01*
X160496191Y-78132381D01*
X160258095Y-78132381D01*
X160162857Y-78084762D01*
X160115238Y-78037143D01*
D19*
X123912381Y-85423333D02*
X124626667Y-85423333D01*
X124769524Y-85470953D01*
X124864762Y-85566191D01*
X124912381Y-85709048D01*
X124912381Y-85804286D01*
X123912381Y-84518571D02*
X123912381Y-84709048D01*
X123960000Y-84804286D01*
X124007619Y-84851905D01*
X124150476Y-84947143D01*
X124340952Y-84994762D01*
X124721905Y-84994762D01*
X124817143Y-84947143D01*
X124864762Y-84899524D01*
X124912381Y-84804286D01*
X124912381Y-84613809D01*
X124864762Y-84518571D01*
X124817143Y-84470952D01*
X124721905Y-84423333D01*
X124483810Y-84423333D01*
X124388571Y-84470952D01*
X124340952Y-84518571D01*
X124293333Y-84613809D01*
X124293333Y-84804286D01*
X124340952Y-84899524D01*
X124388571Y-84947143D01*
X124483810Y-84994762D01*
D20*
X154096358Y-127689429D02*
X154096358Y-126165429D01*
X154531786Y-126165429D01*
X154640644Y-126238000D01*
X154695072Y-126310571D01*
X154749501Y-126455714D01*
X154749501Y-126673429D01*
X154695072Y-126818571D01*
X154640644Y-126891143D01*
X154531786Y-126963714D01*
X154096358Y-126963714D01*
X155184929Y-126310571D02*
X155239358Y-126238000D01*
X155348215Y-126165429D01*
X155620358Y-126165429D01*
X155729215Y-126238000D01*
X155783644Y-126310571D01*
X155838072Y-126455714D01*
X155838072Y-126600857D01*
X155783644Y-126818571D01*
X155130501Y-127689429D01*
X155838072Y-127689429D01*
D21*
D20*
X150912287Y-105591429D02*
X151293287Y-107115429D01*
X151674287Y-105591429D01*
X152055287Y-107115429D02*
X152055287Y-105591429D01*
X152545144Y-106680000D02*
X153089430Y-106680000D01*
X152436287Y-107115429D02*
X152817287Y-105591429D01*
X153198287Y-107115429D01*
X153579287Y-106534857D02*
X154450144Y-106534857D01*
X155484287Y-105591429D02*
X155266573Y-105591429D01*
X155157716Y-105664000D01*
X155103287Y-105736571D01*
X154994430Y-105954286D01*
X154940001Y-106244571D01*
X154940001Y-106825143D01*
X154994430Y-106970286D01*
X155048858Y-107042857D01*
X155157716Y-107115429D01*
X155375430Y-107115429D01*
X155484287Y-107042857D01*
X155538716Y-106970286D01*
X155593144Y-106825143D01*
X155593144Y-106462286D01*
X155538716Y-106317143D01*
X155484287Y-106244571D01*
X155375430Y-106172000D01*
X155157716Y-106172000D01*
X155048858Y-106244571D01*
X154994430Y-106317143D01*
X154940001Y-106462286D01*
X156627287Y-105591429D02*
X156083001Y-105591429D01*
X156028572Y-106317143D01*
X156083001Y-106244571D01*
X156191858Y-106172000D01*
X156464001Y-106172000D01*
X156572858Y-106244571D01*
X156627287Y-106317143D01*
X156681715Y-106462286D01*
X156681715Y-106825143D01*
X156627287Y-106970286D01*
X156572858Y-107042857D01*
X156464001Y-107115429D01*
X156191858Y-107115429D01*
X156083001Y-107042857D01*
X156028572Y-106970286D01*
X157117143Y-105736571D02*
X157171572Y-105664000D01*
X157280429Y-105591429D01*
X157552572Y-105591429D01*
X157661429Y-105664000D01*
X157715858Y-105736571D01*
X157770286Y-105881714D01*
X157770286Y-106026857D01*
X157715858Y-106244571D01*
X157062715Y-107115429D01*
X157770286Y-107115429D01*
X158205714Y-105736571D02*
X158260143Y-105664000D01*
X158369000Y-105591429D01*
X158641143Y-105591429D01*
X158750000Y-105664000D01*
X158804429Y-105736571D01*
X158858857Y-105881714D01*
X158858857Y-106026857D01*
X158804429Y-106244571D01*
X158151286Y-107115429D01*
X158858857Y-107115429D01*
D21*
D17*
X172553334Y-103322381D02*
X172220000Y-102846190D01*
X171981905Y-103322381D02*
X171981905Y-102322381D01*
X172362858Y-102322381D01*
X172458096Y-102370000D01*
X172505715Y-102417619D01*
X172553334Y-102512857D01*
X172553334Y-102655714D01*
X172505715Y-102750952D01*
X172458096Y-102798571D01*
X172362858Y-102846190D01*
X171981905Y-102846190D01*
X173505715Y-103322381D02*
X172934286Y-103322381D01*
X173220000Y-103322381D02*
X173220000Y-102322381D01*
X173124762Y-102465238D01*
X173029524Y-102560476D01*
X172934286Y-102608095D01*
X140803334Y-43632381D02*
X140470000Y-43156190D01*
X140231905Y-43632381D02*
X140231905Y-42632381D01*
X140612858Y-42632381D01*
X140708096Y-42680000D01*
X140755715Y-42727619D01*
X140803334Y-42822857D01*
X140803334Y-42965714D01*
X140755715Y-43060952D01*
X140708096Y-43108571D01*
X140612858Y-43156190D01*
X140231905Y-43156190D01*
X141184286Y-42727619D02*
X141231905Y-42680000D01*
X141327143Y-42632381D01*
X141565239Y-42632381D01*
X141660477Y-42680000D01*
X141708096Y-42727619D01*
X141755715Y-42822857D01*
X141755715Y-42918095D01*
X141708096Y-43060952D01*
X141136667Y-43632381D01*
X141755715Y-43632381D01*
X129373334Y-53792381D02*
X129040000Y-53316190D01*
X128801905Y-53792381D02*
X128801905Y-52792381D01*
X129182858Y-52792381D01*
X129278096Y-52840000D01*
X129325715Y-52887619D01*
X129373334Y-52982857D01*
X129373334Y-53125714D01*
X129325715Y-53220952D01*
X129278096Y-53268571D01*
X129182858Y-53316190D01*
X128801905Y-53316190D01*
X129706667Y-52792381D02*
X130325715Y-52792381D01*
X129992381Y-53173333D01*
X130135239Y-53173333D01*
X130230477Y-53220952D01*
X130278096Y-53268571D01*
X130325715Y-53363810D01*
X130325715Y-53601905D01*
X130278096Y-53697143D01*
X130230477Y-53744762D01*
X130135239Y-53792381D01*
X129849524Y-53792381D01*
X129754286Y-53744762D01*
X129706667Y-53697143D01*
X139533334Y-75382381D02*
X139200000Y-74906190D01*
X138961905Y-75382381D02*
X138961905Y-74382381D01*
X139342858Y-74382381D01*
X139438096Y-74430000D01*
X139485715Y-74477619D01*
X139533334Y-74572857D01*
X139533334Y-74715714D01*
X139485715Y-74810952D01*
X139438096Y-74858571D01*
X139342858Y-74906190D01*
X138961905Y-74906190D01*
X140390477Y-74715714D02*
X140390477Y-75382381D01*
X140152381Y-74334762D02*
X139914286Y-75049048D01*
X140533334Y-75049048D01*
X126182381Y-100496666D02*
X125706190Y-100830000D01*
X126182381Y-101068095D02*
X125182381Y-101068095D01*
X125182381Y-100687142D01*
X125230000Y-100591904D01*
X125277619Y-100544285D01*
X125372857Y-100496666D01*
X125515714Y-100496666D01*
X125610952Y-100544285D01*
X125658571Y-100591904D01*
X125706190Y-100687142D01*
X125706190Y-101068095D01*
X125182381Y-99591904D02*
X125182381Y-100068095D01*
X125658571Y-100115714D01*
X125610952Y-100068095D01*
X125563333Y-99972857D01*
X125563333Y-99734761D01*
X125610952Y-99639523D01*
X125658571Y-99591904D01*
X125753810Y-99544285D01*
X125991905Y-99544285D01*
X126087143Y-99591904D01*
X126134762Y-99639523D01*
X126182381Y-99734761D01*
X126182381Y-99972857D01*
X126134762Y-100068095D01*
X126087143Y-100115714D01*
X148423334Y-105862381D02*
X148090000Y-105386190D01*
X147851905Y-105862381D02*
X147851905Y-104862381D01*
X148232858Y-104862381D01*
X148328096Y-104910000D01*
X148375715Y-104957619D01*
X148423334Y-105052857D01*
X148423334Y-105195714D01*
X148375715Y-105290952D01*
X148328096Y-105338571D01*
X148232858Y-105386190D01*
X147851905Y-105386190D01*
X149280477Y-104862381D02*
X149090000Y-104862381D01*
X148994762Y-104910000D01*
X148947143Y-104957619D01*
X148851905Y-105100476D01*
X148804286Y-105290952D01*
X148804286Y-105671905D01*
X148851905Y-105767143D01*
X148899524Y-105814762D01*
X148994762Y-105862381D01*
X149185239Y-105862381D01*
X149280477Y-105814762D01*
X149328096Y-105767143D01*
X149375715Y-105671905D01*
X149375715Y-105433810D01*
X149328096Y-105338571D01*
X149280477Y-105290952D01*
X149185239Y-105243333D01*
X148994762Y-105243333D01*
X148899524Y-105290952D01*
X148851905Y-105338571D01*
X148804286Y-105433810D01*
X140803334Y-48712381D02*
X140470000Y-48236190D01*
X140231905Y-48712381D02*
X140231905Y-47712381D01*
X140612858Y-47712381D01*
X140708096Y-47760000D01*
X140755715Y-47807619D01*
X140803334Y-47902857D01*
X140803334Y-48045714D01*
X140755715Y-48140952D01*
X140708096Y-48188571D01*
X140612858Y-48236190D01*
X140231905Y-48236190D01*
X141136667Y-47712381D02*
X141803334Y-47712381D01*
X141374762Y-48712381D01*
X129373334Y-62682381D02*
X129040000Y-62206190D01*
X128801905Y-62682381D02*
X128801905Y-61682381D01*
X129182858Y-61682381D01*
X129278096Y-61730000D01*
X129325715Y-61777619D01*
X129373334Y-61872857D01*
X129373334Y-62015714D01*
X129325715Y-62110952D01*
X129278096Y-62158571D01*
X129182858Y-62206190D01*
X128801905Y-62206190D01*
X129944762Y-62110952D02*
X129849524Y-62063333D01*
X129801905Y-62015714D01*
X129754286Y-61920476D01*
X129754286Y-61872857D01*
X129801905Y-61777619D01*
X129849524Y-61730000D01*
X129944762Y-61682381D01*
X130135239Y-61682381D01*
X130230477Y-61730000D01*
X130278096Y-61777619D01*
X130325715Y-61872857D01*
X130325715Y-61920476D01*
X130278096Y-62015714D01*
X130230477Y-62063333D01*
X130135239Y-62110952D01*
X129944762Y-62110952D01*
X129849524Y-62158571D01*
X129801905Y-62206190D01*
X129754286Y-62301429D01*
X129754286Y-62491905D01*
X129801905Y-62587143D01*
X129849524Y-62634762D01*
X129944762Y-62682381D01*
X130135239Y-62682381D01*
X130230477Y-62634762D01*
X130278096Y-62587143D01*
X130325715Y-62491905D01*
X130325715Y-62301429D01*
X130278096Y-62206190D01*
X130230477Y-62158571D01*
X130135239Y-62110952D01*
X139533334Y-70302381D02*
X139200000Y-69826190D01*
X138961905Y-70302381D02*
X138961905Y-69302381D01*
X139342858Y-69302381D01*
X139438096Y-69350000D01*
X139485715Y-69397619D01*
X139533334Y-69492857D01*
X139533334Y-69635714D01*
X139485715Y-69730952D01*
X139438096Y-69778571D01*
X139342858Y-69826190D01*
X138961905Y-69826190D01*
X140009524Y-70302381D02*
X140200000Y-70302381D01*
X140295239Y-70254762D01*
X140342858Y-70207143D01*
X140438096Y-70064286D01*
X140485715Y-69873810D01*
X140485715Y-69492857D01*
X140438096Y-69397619D01*
X140390477Y-69350000D01*
X140295239Y-69302381D01*
X140104762Y-69302381D01*
X140009524Y-69350000D01*
X139961905Y-69397619D01*
X139914286Y-69492857D01*
X139914286Y-69730952D01*
X139961905Y-69826190D01*
X140009524Y-69873810D01*
X140104762Y-69921429D01*
X140295239Y-69921429D01*
X140390477Y-69873810D01*
X140438096Y-69826190D01*
X140485715Y-69730952D01*
X114927143Y-81732381D02*
X114593809Y-81256190D01*
X114355714Y-81732381D02*
X114355714Y-80732381D01*
X114736667Y-80732381D01*
X114831905Y-80780000D01*
X114879524Y-80827619D01*
X114927143Y-80922857D01*
X114927143Y-81065714D01*
X114879524Y-81160952D01*
X114831905Y-81208571D01*
X114736667Y-81256190D01*
X114355714Y-81256190D01*
X115879524Y-81732381D02*
X115308095Y-81732381D01*
X115593809Y-81732381D02*
X115593809Y-80732381D01*
X115498571Y-80875238D01*
X115403333Y-80970476D01*
X115308095Y-81018095D01*
X116498571Y-80732381D02*
X116593810Y-80732381D01*
X116689048Y-80780000D01*
X116736667Y-80827619D01*
X116784286Y-80922857D01*
X116831905Y-81113333D01*
X116831905Y-81351429D01*
X116784286Y-81541905D01*
X116736667Y-81637143D01*
X116689048Y-81684762D01*
X116593810Y-81732381D01*
X116498571Y-81732381D01*
X116403333Y-81684762D01*
X116355714Y-81637143D01*
X116308095Y-81541905D01*
X116260476Y-81351429D01*
X116260476Y-81113333D01*
X116308095Y-80922857D01*
X116355714Y-80827619D01*
X116403333Y-80780000D01*
X116498571Y-80732381D01*
D12*
X127362857Y-79683429D02*
X126854857Y-78957714D01*
X126492000Y-79683429D02*
X126492000Y-78159429D01*
X127072572Y-78159429D01*
X127217714Y-78232000D01*
X127290286Y-78304571D01*
X127362857Y-78449714D01*
X127362857Y-78667429D01*
X127290286Y-78812571D01*
X127217714Y-78885143D01*
X127072572Y-78957714D01*
X126492000Y-78957714D01*
X127798286Y-78159429D02*
X128306286Y-79683429D01*
X128814286Y-78159429D01*
X130120572Y-79683429D02*
X129249715Y-79683429D01*
X129685143Y-79683429D02*
X129685143Y-78159429D01*
X129540000Y-78377143D01*
X129394858Y-78522286D01*
X129249715Y-78594857D01*
X127362857Y-66475429D02*
X126492000Y-66475429D01*
X126927428Y-66475429D02*
X126927428Y-64951429D01*
X126782285Y-65169143D01*
X126637143Y-65314286D01*
X126492000Y-65386857D01*
X128306286Y-64951429D02*
X128451429Y-64951429D01*
X128596572Y-65024000D01*
X128669143Y-65096571D01*
X128741714Y-65241714D01*
X128814286Y-65532000D01*
X128814286Y-65894857D01*
X128741714Y-66185143D01*
X128669143Y-66330286D01*
X128596572Y-66402857D01*
X128451429Y-66475429D01*
X128306286Y-66475429D01*
X128161143Y-66402857D01*
X128088572Y-66330286D01*
X128016000Y-66185143D01*
X127943429Y-65894857D01*
X127943429Y-65532000D01*
X128016000Y-65241714D01*
X128088572Y-65096571D01*
X128161143Y-65024000D01*
X128306286Y-64951429D01*
X129467429Y-66475429D02*
X129467429Y-64951429D01*
X129612572Y-65894857D02*
X130048001Y-66475429D01*
X130048001Y-65459429D02*
X129467429Y-66040000D01*
D17*
X120026667Y-129214762D02*
X120169524Y-129262381D01*
X120407620Y-129262381D01*
X120502858Y-129214762D01*
X120550477Y-129167143D01*
X120598096Y-129071905D01*
X120598096Y-128976667D01*
X120550477Y-128881429D01*
X120502858Y-128833810D01*
X120407620Y-128786190D01*
X120217143Y-128738571D01*
X120121905Y-128690952D01*
X120074286Y-128643333D01*
X120026667Y-128548095D01*
X120026667Y-128452857D01*
X120074286Y-128357619D01*
X120121905Y-128310000D01*
X120217143Y-128262381D01*
X120455239Y-128262381D01*
X120598096Y-128310000D01*
X120931429Y-128262381D02*
X121169524Y-129262381D01*
X121360001Y-128548095D01*
X121550477Y-129262381D01*
X121788572Y-128262381D01*
X122693334Y-129262381D02*
X122121905Y-129262381D01*
X122407619Y-129262381D02*
X122407619Y-128262381D01*
X122312381Y-128405238D01*
X122217143Y-128500476D01*
X122121905Y-128548095D01*
X111212381Y-125269524D02*
X112212381Y-124602857D01*
X111212381Y-124602857D02*
X112212381Y-125269524D01*
X112212381Y-123698095D02*
X112212381Y-124269524D01*
X112212381Y-123983810D02*
X111212381Y-123983810D01*
X111355238Y-124079048D01*
X111450476Y-124174286D01*
X111498095Y-124269524D01*
M02*
