%TF.GenerationSoftware,KiCad,Pcbnew,5.1.9+dfsg1-1*%
%TF.CreationDate,2021-08-26T00:34:26+02:00*%
%TF.ProjectId,1541-rebuild,31353431-2d72-4656-9275-696c642e6b69,1.4.2*%
%TF.SameCoordinates,Original*%
%TF.FileFunction,Soldermask,Top*%
%TF.FilePolarity,Negative*%
%FSLAX46Y46*%
G04 Gerber Fmt 4.6, Leading zero omitted, Abs format (unit mm)*
G04 Created by KiCad (PCBNEW 5.1.9+dfsg1-1) date 2021-08-26 00:34:26*
%MOMM*%
%LPD*%
G01*
G04 APERTURE LIST*
%ADD10C,1.600000*%
%ADD11R,1.600000X1.600000*%
%ADD12C,2.000000*%
%ADD13O,1.600000X2.400000*%
%ADD14R,1.600000X2.400000*%
%ADD15O,1.700000X1.700000*%
%ADD16R,1.700000X1.700000*%
%ADD17R,1.727200X1.727200*%
%ADD18O,1.727200X1.727200*%
%ADD19O,1.600000X1.600000*%
%ADD20C,1.440000*%
%ADD21R,2.500000X2.500000*%
%ADD22C,2.500000*%
G04 APERTURE END LIST*
D10*
X112054000Y-102489000D03*
D11*
X114554000Y-102489000D03*
D12*
X115752000Y-90932000D03*
X111252000Y-90932000D03*
X115752000Y-84432000D03*
X111252000Y-84432000D03*
D13*
X167386000Y-91186000D03*
X119126000Y-75946000D03*
X164846000Y-91186000D03*
X121666000Y-75946000D03*
X162306000Y-91186000D03*
X124206000Y-75946000D03*
X159766000Y-91186000D03*
X126746000Y-75946000D03*
X157226000Y-91186000D03*
X129286000Y-75946000D03*
X154686000Y-91186000D03*
X131826000Y-75946000D03*
X152146000Y-91186000D03*
X134366000Y-75946000D03*
X149606000Y-91186000D03*
X136906000Y-75946000D03*
X147066000Y-91186000D03*
X139446000Y-75946000D03*
X144526000Y-91186000D03*
X141986000Y-75946000D03*
X141986000Y-91186000D03*
X144526000Y-75946000D03*
X139446000Y-91186000D03*
X147066000Y-75946000D03*
X136906000Y-91186000D03*
X149606000Y-75946000D03*
X134366000Y-91186000D03*
X152146000Y-75946000D03*
X131826000Y-91186000D03*
X154686000Y-75946000D03*
X129286000Y-91186000D03*
X157226000Y-75946000D03*
X126746000Y-91186000D03*
X159766000Y-75946000D03*
X124206000Y-91186000D03*
X162306000Y-75946000D03*
X121666000Y-91186000D03*
X164846000Y-75946000D03*
X119126000Y-91186000D03*
D14*
X167386000Y-75946000D03*
D15*
X177292000Y-108585000D03*
X177292000Y-106045000D03*
D16*
X177292000Y-103505000D03*
D15*
X173228000Y-130556000D03*
X173228000Y-133096000D03*
D16*
X173228000Y-135636000D03*
D10*
X142026000Y-80010000D03*
X144526000Y-80010000D03*
X112522000Y-124674000D03*
X112522000Y-122174000D03*
X144486000Y-87376000D03*
X141986000Y-87376000D03*
D15*
X141986000Y-121412000D03*
X141986000Y-123952000D03*
X144526000Y-121412000D03*
X144526000Y-123952000D03*
X147066000Y-121412000D03*
X147066000Y-123952000D03*
X149606000Y-121412000D03*
X149606000Y-123952000D03*
X152146000Y-121412000D03*
X152146000Y-123952000D03*
X154686000Y-121412000D03*
X154686000Y-123952000D03*
X157226000Y-121412000D03*
X157226000Y-123952000D03*
X159766000Y-121412000D03*
D16*
X159766000Y-123952000D03*
D17*
X175768000Y-93726000D03*
D18*
X173228000Y-93726000D03*
X175768000Y-91186000D03*
X173228000Y-91186000D03*
X175768000Y-88646000D03*
X173228000Y-88646000D03*
X175768000Y-86106000D03*
X173228000Y-86106000D03*
X175768000Y-83566000D03*
X173228000Y-83566000D03*
D14*
X167386000Y-94742000D03*
D13*
X119126000Y-109982000D03*
X164846000Y-94742000D03*
X121666000Y-109982000D03*
X162306000Y-94742000D03*
X124206000Y-109982000D03*
X159766000Y-94742000D03*
X126746000Y-109982000D03*
X157226000Y-94742000D03*
X129286000Y-109982000D03*
X154686000Y-94742000D03*
X131826000Y-109982000D03*
X152146000Y-94742000D03*
X134366000Y-109982000D03*
X149606000Y-94742000D03*
X136906000Y-109982000D03*
X147066000Y-94742000D03*
X139446000Y-109982000D03*
X144526000Y-94742000D03*
X141986000Y-109982000D03*
X141986000Y-94742000D03*
X144526000Y-109982000D03*
X139446000Y-94742000D03*
X147066000Y-109982000D03*
X136906000Y-94742000D03*
X149606000Y-109982000D03*
X134366000Y-94742000D03*
X152146000Y-109982000D03*
X131826000Y-94742000D03*
X154686000Y-109982000D03*
X129286000Y-94742000D03*
X157226000Y-109982000D03*
X126746000Y-94742000D03*
X159766000Y-109982000D03*
X124206000Y-94742000D03*
X162306000Y-109982000D03*
X121666000Y-94742000D03*
X164846000Y-109982000D03*
X119126000Y-94742000D03*
X167386000Y-109982000D03*
D17*
X121666000Y-133350000D03*
D18*
X121666000Y-135890000D03*
X119126000Y-133350000D03*
X119126000Y-135890000D03*
X116586000Y-133350000D03*
X116586000Y-135890000D03*
D16*
X113538000Y-107696000D03*
D15*
X113538000Y-110236000D03*
X113538000Y-112776000D03*
X113538000Y-115316000D03*
X112014000Y-77470000D03*
D16*
X114554000Y-77470000D03*
X113284000Y-97409000D03*
D15*
X113284000Y-94869000D03*
X119126000Y-98552000D03*
X121666000Y-98552000D03*
X124206000Y-98552000D03*
X126746000Y-98552000D03*
X129286000Y-98552000D03*
X131826000Y-98552000D03*
X134366000Y-98552000D03*
X136906000Y-98552000D03*
X139446000Y-98552000D03*
X141986000Y-98552000D03*
X144526000Y-98552000D03*
X147066000Y-98552000D03*
X149606000Y-98552000D03*
X152146000Y-98552000D03*
X154686000Y-98552000D03*
X157226000Y-98552000D03*
X159766000Y-98552000D03*
X162306000Y-98552000D03*
X164846000Y-98552000D03*
D16*
X167386000Y-98552000D03*
X119126000Y-113792000D03*
D15*
X121666000Y-113792000D03*
X124206000Y-113792000D03*
X126746000Y-113792000D03*
X129286000Y-113792000D03*
X131826000Y-113792000D03*
X134366000Y-113792000D03*
X136906000Y-113792000D03*
X139446000Y-113792000D03*
X141986000Y-113792000D03*
X144526000Y-113792000D03*
X147066000Y-113792000D03*
X149606000Y-113792000D03*
X152146000Y-113792000D03*
X154686000Y-113792000D03*
X157226000Y-113792000D03*
X159766000Y-113792000D03*
X162306000Y-113792000D03*
X164846000Y-113792000D03*
X167386000Y-113792000D03*
D10*
X131318000Y-132080000D03*
D19*
X141478000Y-132080000D03*
X173990000Y-111125000D03*
D10*
X173990000Y-100965000D03*
D20*
X173990000Y-121158000D03*
X173990000Y-118618000D03*
X173990000Y-116078000D03*
D21*
X120650000Y-126492000D03*
D22*
X120650000Y-118872000D03*
X135890000Y-118872000D03*
X135890000Y-126492000D03*
M02*
