M48
;DRILL file {KiCad 4.0.7-e2-6376~60~ubuntu17.10.1} date Sun May  6 20:41:02 2018
;FORMAT={3:3/ absolute / metric / suppress leading zeros}
FMAT,2
METRIC,TZ
T1C0.400
T2C0.800
T3C0.800
T4C1.000
T5C1.016
T6C1.100
T7C1.300
T8C1.801
%
G90
G05
M71
T1
X147637Y-70329
X155583Y-105632
X156495Y-96602
X167888Y-103072
T2
X139700Y-54610
X139700Y-62230
X144780Y-54610
X144780Y-62230
T3
X114300Y-130810
X114300Y-133350
X128270Y-69850
X128270Y-72390
X128270Y-74930
X130810Y-83820
X130810Y-99060
X130810Y-109220
X130810Y-124460
X133350Y-83820
X133350Y-99060
X133350Y-109220
X133350Y-124460
X135890Y-83820
X135890Y-99060
X135890Y-109220
X135890Y-124460
X138430Y-83820
X138430Y-99060
X138430Y-109220
X138430Y-124460
X140970Y-83820
X140970Y-99060
X140970Y-109220
X140970Y-124460
X143510Y-83820
X143510Y-99060
X143510Y-109220
X143510Y-124460
X146050Y-83820
X146050Y-99060
X146050Y-109220
X146050Y-124460
X148590Y-83820
X148590Y-99060
X148590Y-109220
X148590Y-124460
X151130Y-83820
X151130Y-99060
X151130Y-109220
X151130Y-124460
X153670Y-80010
X153670Y-83820
X153670Y-99060
X153670Y-109220
X153670Y-124460
X156210Y-80010
X156210Y-83820
X156210Y-99060
X156210Y-109220
X156210Y-124460
X158750Y-83820
X158750Y-99060
X158750Y-109220
X158750Y-124460
X160020Y-102870
X161290Y-83820
X161290Y-99060
X161290Y-109220
X161290Y-124460
X162560Y-102870
X163830Y-83820
X163830Y-99060
X163830Y-109220
X163830Y-124460
X166370Y-83820
X166370Y-99060
X166370Y-109220
X166370Y-124460
X168910Y-83820
X168910Y-99060
X168910Y-109220
X168910Y-124460
X171450Y-83820
X171450Y-99060
X171450Y-109220
X171450Y-124460
X173990Y-83820
X173990Y-99060
X173990Y-109220
X173990Y-124460
X176530Y-83820
X176530Y-99060
X176530Y-109220
X176530Y-124460
X179070Y-83820
X179070Y-99060
X179070Y-109220
X179070Y-124460
T4
X115570Y-59690
X115570Y-109220
X115570Y-124460
X116840Y-68580
X116840Y-71120
X116840Y-73660
X116840Y-88900
X116840Y-91440
X116840Y-93980
X116840Y-96520
X116840Y-99060
X118110Y-59690
X119380Y-68580
X119380Y-71120
X119380Y-73660
X119380Y-88900
X119380Y-91440
X119380Y-93980
X119380Y-96520
X119380Y-99060
X123190Y-109220
X123190Y-124460
X130810Y-104140
X130810Y-114300
X130810Y-129540
X133350Y-104140
X133350Y-114300
X133350Y-129540
X135890Y-104140
X135890Y-114300
X135890Y-129540
X138430Y-104140
X138430Y-114300
X138430Y-129540
X140970Y-114300
X140970Y-129540
X143510Y-114300
X143510Y-129540
X146050Y-114300
X146050Y-129540
X148590Y-114300
X148590Y-129540
X151130Y-114300
X151130Y-129540
X153670Y-114300
X153670Y-129540
X156210Y-114300
X156210Y-129540
X158750Y-114300
X158750Y-129540
X160020Y-80010
X161290Y-114300
X161290Y-129540
X161290Y-134620
X163830Y-114300
X163830Y-129540
X163830Y-134620
X166370Y-114300
X166370Y-129540
X168910Y-114300
X168910Y-129540
X171450Y-114300
X171450Y-129540
X173990Y-114300
X173990Y-129540
X176530Y-114300
X176530Y-129540
X179070Y-114300
X179070Y-129540
T5
X112395Y-81280
X123825Y-55880
X123825Y-59690
X123825Y-81280
X125730Y-92075
X125730Y-103505
X133985Y-67310
X133985Y-72390
X135255Y-45720
X135255Y-50800
X135255Y-55880
X135255Y-59690
X142875Y-102870
X145415Y-67310
X145415Y-72390
X146685Y-45720
X146685Y-50800
X154305Y-102870
X167005Y-105410
X178435Y-105410
T6
X118110Y-130810
X118110Y-135310
X124610Y-130810
X124610Y-135310
T7
X174925Y-48859
T8
X174925Y-73061
T0
M30
