G04 #@! TF.FileFunction,Copper,L1,Top,Signal*
%FSLAX46Y46*%
G04 Gerber Fmt 4.6, Leading zero omitted, Abs format (unit mm)*
G04 Created by KiCad (PCBNEW 4.0.7-e2-6376~60~ubuntu17.10.1) date Tue May  8 18:10:40 2018*
%MOMM*%
%LPD*%
G01*
G04 APERTURE LIST*
%ADD10C,0.100000*%
%ADD11C,1.501140*%
%ADD12R,1.600000X1.600000*%
%ADD13O,1.600000X1.600000*%
%ADD14O,1.501140X2.199640*%
%ADD15R,2.000000X1.500000*%
%ADD16O,2.000000X1.500000*%
%ADD17R,1.700000X1.700000*%
%ADD18O,1.700000X1.700000*%
%ADD19C,1.524000*%
%ADD20O,1.998980X1.501140*%
%ADD21C,2.000000*%
%ADD22R,2.500000X2.500000*%
%ADD23C,2.500000*%
%ADD24R,2.000000X1.150000*%
%ADD25C,1.500000*%
%ADD26R,1.500000X1.500000*%
%ADD27C,0.600000*%
%ADD28C,0.300000*%
%ADD29C,0.600000*%
%ADD30C,0.254000*%
G04 APERTURE END LIST*
D10*
D11*
X160020000Y-102870000D03*
X162560000Y-102870000D03*
X152400000Y-80010000D03*
X149860000Y-80010000D03*
X114300000Y-130810000D03*
X114300000Y-133350000D03*
D12*
X144780000Y-62230000D03*
D13*
X144780000Y-54610000D03*
D12*
X139700000Y-54610000D03*
D13*
X139700000Y-62230000D03*
D14*
X130810000Y-99060000D03*
X133350000Y-99060000D03*
X135890000Y-99060000D03*
X138430000Y-99060000D03*
X140970000Y-99060000D03*
X143510000Y-99060000D03*
X146050000Y-99060000D03*
X148590000Y-99060000D03*
X151130000Y-99060000D03*
X153670000Y-99060000D03*
X156210000Y-99060000D03*
X158750000Y-99060000D03*
X161290000Y-99060000D03*
X163830000Y-99060000D03*
X166370000Y-99060000D03*
X168910000Y-99060000D03*
X171450000Y-99060000D03*
X173990000Y-99060000D03*
X176530000Y-99060000D03*
X179070000Y-99060000D03*
X179070000Y-83820000D03*
X176530000Y-83820000D03*
X173990000Y-83820000D03*
X171450000Y-83820000D03*
X168910000Y-83820000D03*
X166370000Y-83820000D03*
X163830000Y-83820000D03*
X161290000Y-83820000D03*
X158750000Y-83820000D03*
X156210000Y-83820000D03*
X153670000Y-83820000D03*
X151130000Y-83820000D03*
X148590000Y-83820000D03*
X146050000Y-83820000D03*
X143510000Y-83820000D03*
X140970000Y-83820000D03*
X138430000Y-83820000D03*
X135890000Y-83820000D03*
X133350000Y-83820000D03*
X130810000Y-83820000D03*
D15*
X116590000Y-68580000D03*
D16*
X119630000Y-68580000D03*
X116590000Y-71120000D03*
X119630000Y-71120000D03*
X116590000Y-73660000D03*
X119630000Y-73660000D03*
D17*
X130810000Y-104140000D03*
D18*
X133350000Y-104140000D03*
X135890000Y-104140000D03*
X138430000Y-104140000D03*
D17*
X118110000Y-59690000D03*
D18*
X115570000Y-59690000D03*
D17*
X163830000Y-134620000D03*
D18*
X161290000Y-134620000D03*
D16*
X116590000Y-99060000D03*
X119630000Y-99060000D03*
X119630000Y-96520000D03*
X116590000Y-96520000D03*
D15*
X116590000Y-88900000D03*
D16*
X119630000Y-88900000D03*
X116590000Y-91440000D03*
X119630000Y-91440000D03*
X116590000Y-93980000D03*
X119630000Y-93980000D03*
D17*
X179070000Y-114300000D03*
D18*
X176530000Y-114300000D03*
X173990000Y-114300000D03*
X171450000Y-114300000D03*
X168910000Y-114300000D03*
X166370000Y-114300000D03*
X163830000Y-114300000D03*
X161290000Y-114300000D03*
X158750000Y-114300000D03*
X156210000Y-114300000D03*
X153670000Y-114300000D03*
X151130000Y-114300000D03*
X148590000Y-114300000D03*
X146050000Y-114300000D03*
X143510000Y-114300000D03*
X140970000Y-114300000D03*
X138430000Y-114300000D03*
X135890000Y-114300000D03*
X133350000Y-114300000D03*
X130810000Y-114300000D03*
D14*
X179070000Y-109220000D03*
X176530000Y-109220000D03*
X173990000Y-109220000D03*
X171450000Y-109220000D03*
X168910000Y-109220000D03*
X166370000Y-109220000D03*
X163830000Y-109220000D03*
X161290000Y-109220000D03*
X158750000Y-109220000D03*
X156210000Y-109220000D03*
X153670000Y-109220000D03*
X151130000Y-109220000D03*
X148590000Y-109220000D03*
X146050000Y-109220000D03*
X143510000Y-109220000D03*
X140970000Y-109220000D03*
X138430000Y-109220000D03*
X135890000Y-109220000D03*
X133350000Y-109220000D03*
X130810000Y-109220000D03*
X130810000Y-124460000D03*
X133350000Y-124460000D03*
X135890000Y-124460000D03*
X138430000Y-124460000D03*
X140970000Y-124460000D03*
X143510000Y-124460000D03*
X146050000Y-124460000D03*
X148590000Y-124460000D03*
X151130000Y-124460000D03*
X153670000Y-124460000D03*
X156210000Y-124460000D03*
X158750000Y-124460000D03*
X161290000Y-124460000D03*
X163830000Y-124460000D03*
X166370000Y-124460000D03*
X168910000Y-124460000D03*
X171450000Y-124460000D03*
X173990000Y-124460000D03*
X176530000Y-124460000D03*
X179070000Y-124460000D03*
D17*
X130810000Y-129540000D03*
D18*
X133350000Y-129540000D03*
X135890000Y-129540000D03*
X138430000Y-129540000D03*
X140970000Y-129540000D03*
X143510000Y-129540000D03*
X146050000Y-129540000D03*
X148590000Y-129540000D03*
X151130000Y-129540000D03*
X153670000Y-129540000D03*
X156210000Y-129540000D03*
X158750000Y-129540000D03*
X161290000Y-129540000D03*
X163830000Y-129540000D03*
X166370000Y-129540000D03*
X168910000Y-129540000D03*
X171450000Y-129540000D03*
X173990000Y-129540000D03*
X176530000Y-129540000D03*
X179070000Y-129540000D03*
D19*
X167005000Y-105410000D03*
X178435000Y-105410000D03*
X135255000Y-45720000D03*
X146685000Y-45720000D03*
X123825000Y-55880000D03*
X135255000Y-55880000D03*
X145415000Y-72390000D03*
X133985000Y-72390000D03*
X125730000Y-92075000D03*
X125730000Y-103505000D03*
X154305000Y-102870000D03*
X142875000Y-102870000D03*
X146685000Y-50800000D03*
X135255000Y-50800000D03*
X135255000Y-59690000D03*
X123825000Y-59690000D03*
X145415000Y-67310000D03*
X133985000Y-67310000D03*
X123825000Y-81280000D03*
X112395000Y-81280000D03*
D20*
X128270000Y-69850000D03*
X128270000Y-72390000D03*
X128270000Y-74930000D03*
D21*
X118110000Y-135310000D03*
X118110000Y-130810000D03*
X124610000Y-135310000D03*
X124610000Y-130810000D03*
D22*
X123190000Y-124460000D03*
D23*
X115570000Y-124460000D03*
X115570000Y-109220000D03*
X123190000Y-109220000D03*
D24*
X157790000Y-69010000D03*
X157790000Y-66610000D03*
X157790000Y-64110000D03*
X157790000Y-61610000D03*
X157790000Y-59110000D03*
X157790000Y-56610000D03*
X157790000Y-54110000D03*
X157790000Y-51610000D03*
X157790000Y-73210000D03*
X157790000Y-70710000D03*
D25*
X161290000Y-70160000D03*
X161290000Y-50160000D03*
D26*
X169790000Y-74110000D03*
X181290000Y-74110000D03*
X182290000Y-45460000D03*
D17*
X160020000Y-80010000D03*
D18*
X157480000Y-80010000D03*
D27*
X123775800Y-76140500D03*
X156281700Y-69565400D03*
X138123400Y-66880700D03*
X138067500Y-61525300D03*
X143890800Y-72598900D03*
X174152800Y-104791800D03*
X171450000Y-103593300D03*
X170412500Y-101566200D03*
X156270900Y-64110000D03*
D28*
X123775800Y-75823900D02*
X123775800Y-76140500D01*
X120271200Y-72319300D02*
X123775800Y-75823900D01*
X119010400Y-72319300D02*
X120271200Y-72319300D01*
X117940300Y-71249200D02*
X119010400Y-72319300D01*
X117940300Y-70642900D02*
X117940300Y-71249200D01*
X116977700Y-69680300D02*
X117940300Y-70642900D01*
X116840000Y-69680300D02*
X116977700Y-69680300D01*
X116840000Y-68580000D02*
X116840000Y-69680300D01*
X157790000Y-69010000D02*
X156439700Y-69010000D01*
X156439700Y-69407400D02*
X156281700Y-69565400D01*
X156439700Y-69010000D02*
X156439700Y-69407400D01*
X139700000Y-54610000D02*
X144780000Y-54610000D01*
X130810000Y-104140000D02*
X130810000Y-99060000D01*
X133350000Y-104140000D02*
X133350000Y-99060000D01*
X157790000Y-73210000D02*
X156439700Y-73210000D01*
X135890000Y-99060000D02*
X134789100Y-99060000D01*
X145519500Y-60866200D02*
X136909900Y-60866200D01*
X156439700Y-71786400D02*
X145519500Y-60866200D01*
X156439700Y-73210000D02*
X156439700Y-71786400D01*
X136909900Y-57534900D02*
X136909900Y-60866200D01*
X135255000Y-55880000D02*
X136909900Y-57534900D01*
X134789100Y-73502300D02*
X134789100Y-99060000D01*
X136355800Y-71935600D02*
X134789100Y-73502300D01*
X136355800Y-61420300D02*
X136355800Y-71935600D01*
X136909900Y-60866200D02*
X136355800Y-61420300D01*
X154149600Y-53184600D02*
X146685000Y-45720000D01*
X159264300Y-53184600D02*
X154149600Y-53184600D01*
X180189700Y-74110000D02*
X159264300Y-53184600D01*
X181290000Y-74110000D02*
X180189700Y-74110000D01*
X137329100Y-67675000D02*
X137329100Y-99060000D01*
X138123400Y-66880700D02*
X137329100Y-67675000D01*
X138430000Y-99060000D02*
X137329100Y-99060000D01*
X140970000Y-99060000D02*
X139869100Y-99060000D01*
X138067500Y-64439800D02*
X138067500Y-61525300D01*
X139869100Y-66241400D02*
X138067500Y-64439800D01*
X139869100Y-99060000D02*
X139869100Y-66241400D01*
X120216500Y-70019700D02*
X119380000Y-70019700D01*
X123825000Y-66411200D02*
X120216500Y-70019700D01*
X123825000Y-59690000D02*
X123825000Y-66411200D01*
X119380000Y-71120000D02*
X119380000Y-70019700D01*
X148590000Y-99060000D02*
X147489100Y-99060000D01*
X147489100Y-76197200D02*
X147489100Y-99060000D01*
X143890800Y-72598900D02*
X147489100Y-76197200D01*
X161290000Y-134620000D02*
X161290000Y-133419700D01*
X151130000Y-99060000D02*
X152230900Y-99060000D01*
X152230900Y-99676700D02*
X152230900Y-99060000D01*
X153969900Y-101415700D02*
X152230900Y-99676700D01*
X154619600Y-101415700D02*
X153969900Y-101415700D01*
X160572600Y-107368700D02*
X154619600Y-101415700D01*
X165046300Y-107368700D02*
X160572600Y-107368700D01*
X167005000Y-105410000D02*
X165046300Y-107368700D01*
X161665100Y-133419700D02*
X161290000Y-133419700D01*
X165046300Y-130038500D02*
X161665100Y-133419700D01*
X165046300Y-107368700D02*
X165046300Y-130038500D01*
X176530000Y-114300000D02*
X176530000Y-109220000D01*
X173990000Y-114300000D02*
X173990000Y-109220000D01*
X174152800Y-107607000D02*
X174152800Y-104791800D01*
X173990000Y-107769800D02*
X174152800Y-107607000D01*
X173990000Y-109220000D02*
X173990000Y-107769800D01*
X171450000Y-114300000D02*
X171450000Y-109220000D01*
X171450000Y-109220000D02*
X171450000Y-107769800D01*
X171450000Y-107769800D02*
X171450000Y-103593300D01*
X168910000Y-114300000D02*
X168910000Y-109220000D01*
X171450000Y-99060000D02*
X171450000Y-100510200D01*
X168910000Y-109220000D02*
X168910000Y-107769800D01*
X171450000Y-101494500D02*
X171450000Y-100510200D01*
X168910000Y-104034500D02*
X171450000Y-101494500D01*
X168910000Y-107769800D02*
X168910000Y-104034500D01*
X166370000Y-114300000D02*
X166370000Y-109220000D01*
X168144500Y-103834200D02*
X170412500Y-101566200D01*
X168144500Y-107445500D02*
X168144500Y-103834200D01*
X167470900Y-108119100D02*
X168144500Y-107445500D01*
X167470900Y-109220000D02*
X167470900Y-108119100D01*
X166370000Y-109220000D02*
X167470900Y-109220000D01*
X163830000Y-114300000D02*
X163830000Y-109220000D01*
X161290000Y-114300000D02*
X161290000Y-109220000D01*
X158750000Y-114300000D02*
X158750000Y-109220000D01*
X179070000Y-129540000D02*
X179070000Y-124460000D01*
X177630900Y-104197700D02*
X177630900Y-83820000D01*
X177221900Y-104606700D02*
X177630900Y-104197700D01*
X177221900Y-107528100D02*
X177221900Y-104606700D01*
X177750000Y-108056200D02*
X177221900Y-107528100D01*
X177750000Y-124240900D02*
X177750000Y-108056200D01*
X177969100Y-124460000D02*
X177750000Y-124240900D01*
X179070000Y-124460000D02*
X177969100Y-124460000D01*
X176530000Y-83820000D02*
X177630900Y-83820000D01*
X138430000Y-114300000D02*
X138430000Y-109220000D01*
X146050000Y-114300000D02*
X146050000Y-109220000D01*
X133350000Y-114300000D02*
X133350000Y-109220000D01*
X176530000Y-129540000D02*
X176530000Y-124460000D01*
X162390900Y-84920900D02*
X162390900Y-83820000D01*
X172720000Y-95250000D02*
X162390900Y-84920900D01*
X172720000Y-120650000D02*
X172720000Y-95250000D01*
X175429100Y-123359100D02*
X172720000Y-120650000D01*
X175429100Y-124460000D02*
X175429100Y-123359100D01*
X176530000Y-124460000D02*
X175429100Y-124460000D01*
X161290000Y-83820000D02*
X162390900Y-83820000D01*
X160020000Y-83650900D02*
X159850900Y-83820000D01*
X160020000Y-80010000D02*
X160020000Y-83650900D01*
X158750000Y-83820000D02*
X159850900Y-83820000D01*
X148590000Y-83820000D02*
X149690900Y-83820000D01*
X153670000Y-114300000D02*
X153670000Y-109220000D01*
X149690900Y-105240900D02*
X149690900Y-83820000D01*
X152569100Y-108119100D02*
X149690900Y-105240900D01*
X152569100Y-109220000D02*
X152569100Y-108119100D01*
X153670000Y-109220000D02*
X152569100Y-109220000D01*
X146050000Y-83820000D02*
X144949100Y-83820000D01*
X156210000Y-109220000D02*
X156210000Y-114300000D01*
X144949100Y-102076100D02*
X144949100Y-83820000D01*
X149860000Y-106987000D02*
X144949100Y-102076100D01*
X149860000Y-114753500D02*
X149860000Y-106987000D01*
X150658900Y-115552400D02*
X149860000Y-114753500D01*
X154132400Y-115552400D02*
X150658900Y-115552400D01*
X155009700Y-114675100D02*
X154132400Y-115552400D01*
X155009700Y-114300000D02*
X155009700Y-114675100D01*
X156210000Y-114300000D02*
X155009700Y-114300000D01*
X163830000Y-129540000D02*
X163830000Y-124460000D01*
X120007400Y-97959700D02*
X119380000Y-97959700D01*
X121636800Y-96330300D02*
X120007400Y-97959700D01*
X121636800Y-79611400D02*
X121636800Y-96330300D01*
X127757300Y-73490900D02*
X121636800Y-79611400D01*
X128270000Y-73490900D02*
X127757300Y-73490900D01*
X128270000Y-72390000D02*
X128270000Y-73490900D01*
X119380000Y-99060000D02*
X119380000Y-97959700D01*
X148590000Y-114300000D02*
X148590000Y-109220000D01*
X143510000Y-114300000D02*
X143510000Y-109220000D01*
X140970000Y-114300000D02*
X140970000Y-109220000D01*
X135890000Y-114300000D02*
X135890000Y-109220000D01*
X130810000Y-129540000D02*
X130810000Y-124460000D01*
X133350000Y-129540000D02*
X133350000Y-124460000D01*
X135890000Y-129540000D02*
X135890000Y-124460000D01*
X138430000Y-129540000D02*
X138430000Y-124460000D01*
X140970000Y-129540000D02*
X140970000Y-124460000D01*
X143510000Y-129540000D02*
X143510000Y-124460000D01*
X146050000Y-129540000D02*
X146050000Y-124460000D01*
X148590000Y-129540000D02*
X148590000Y-124460000D01*
X151130000Y-129540000D02*
X151130000Y-124460000D01*
X153670000Y-129540000D02*
X153670000Y-124460000D01*
X156210000Y-129540000D02*
X156210000Y-124460000D01*
X158750000Y-129540000D02*
X158750000Y-124460000D01*
X161290000Y-129540000D02*
X161290000Y-124460000D01*
X166370000Y-129540000D02*
X166370000Y-124460000D01*
X168910000Y-129540000D02*
X168910000Y-124460000D01*
X171450000Y-129540000D02*
X171450000Y-124460000D01*
X173990000Y-129540000D02*
X173990000Y-124460000D01*
D29*
X130810000Y-114300000D02*
X130810000Y-109220000D01*
X116840000Y-85725000D02*
X116840000Y-88900000D01*
X112395000Y-81280000D02*
X116840000Y-85725000D01*
X114300000Y-125730000D02*
X114300000Y-130810000D01*
X115570000Y-124460000D02*
X114300000Y-125730000D01*
X113710300Y-92029700D02*
X116840000Y-88900000D01*
X113710300Y-122600300D02*
X113710300Y-92029700D01*
X115570000Y-124460000D02*
X113710300Y-122600300D01*
X152400000Y-80010000D02*
X156210000Y-83820000D01*
X157480000Y-102870000D02*
X160020000Y-102870000D01*
X153670000Y-99060000D02*
X157480000Y-102870000D01*
X152400000Y-72368200D02*
X152400000Y-80010000D01*
X142261800Y-62230000D02*
X152400000Y-72368200D01*
X139700000Y-62230000D02*
X142261800Y-62230000D01*
X157480000Y-80010000D02*
X157480000Y-78559700D01*
X157790000Y-59110000D02*
X159390300Y-59110000D01*
X157790000Y-66610000D02*
X159390300Y-66610000D01*
X159390300Y-59110000D02*
X159390300Y-66610000D01*
X115570000Y-59690000D02*
X115570000Y-61140300D01*
X114989600Y-61720700D02*
X115570000Y-61140300D01*
X114989600Y-74240600D02*
X114989600Y-61720700D01*
X115791400Y-75042400D02*
X114989600Y-74240600D01*
X119380000Y-75042400D02*
X115791400Y-75042400D01*
X119380000Y-73660000D02*
X119380000Y-75042400D01*
X119380000Y-75042400D02*
X119380000Y-88900000D01*
X159928700Y-67148400D02*
X159928700Y-74110000D01*
X159390300Y-66610000D02*
X159928700Y-67148400D01*
X159928700Y-76111000D02*
X157480000Y-78559700D01*
X159928700Y-74110000D02*
X159928700Y-76111000D01*
X159928700Y-74110000D02*
X169790000Y-74110000D01*
X182290000Y-45460000D02*
X182290000Y-46810300D01*
X169790000Y-74110000D02*
X171140300Y-74110000D01*
X158535100Y-101385100D02*
X156210000Y-99060000D01*
X161075100Y-101385100D02*
X158535100Y-101385100D01*
X162560000Y-102870000D02*
X161075100Y-101385100D01*
X179070000Y-109220000D02*
X180420900Y-109220000D01*
X180420900Y-75460300D02*
X180420900Y-109220000D01*
X182302900Y-75460300D02*
X180420900Y-75460300D01*
X182640400Y-75122800D02*
X182302900Y-75460300D01*
X182640400Y-47160700D02*
X182640400Y-75122800D01*
X182290000Y-46810300D02*
X182640400Y-47160700D01*
X172490600Y-75460300D02*
X171140300Y-74110000D01*
X180420900Y-75460300D02*
X172490600Y-75460300D01*
X179070000Y-114300000D02*
X179070000Y-109220000D01*
X129292000Y-106818800D02*
X125040400Y-111070400D01*
X135751200Y-106818800D02*
X129292000Y-106818800D01*
X138430000Y-104140000D02*
X135751200Y-106818800D01*
X125040400Y-130379600D02*
X125040400Y-111070400D01*
X124610000Y-130810000D02*
X125040400Y-130379600D01*
X125040400Y-111070400D02*
X123190000Y-109220000D01*
X153670000Y-96520000D02*
X153670000Y-83820000D01*
X156210000Y-99060000D02*
X153670000Y-96520000D01*
X153670000Y-83820000D02*
X149860000Y-80010000D01*
D28*
X155540900Y-74141200D02*
X144780000Y-63380300D01*
X158982600Y-74141200D02*
X155540900Y-74141200D01*
X159140400Y-73983400D02*
X158982600Y-74141200D01*
X159140400Y-68282000D02*
X159140400Y-73983400D01*
X158493800Y-67635400D02*
X159140400Y-68282000D01*
X156553800Y-67635400D02*
X158493800Y-67635400D01*
X155620500Y-66702100D02*
X156553800Y-67635400D01*
X155620500Y-62429200D02*
X155620500Y-66702100D01*
X156439700Y-61610000D02*
X155620500Y-62429200D01*
X157790000Y-61610000D02*
X156439700Y-61610000D01*
X144780000Y-62230000D02*
X144780000Y-63380300D01*
X149995000Y-54110000D02*
X146685000Y-50800000D01*
X157790000Y-54110000D02*
X149995000Y-54110000D01*
X129609600Y-99625400D02*
X125730000Y-103505000D01*
X129609600Y-80258800D02*
X129609600Y-99625400D01*
X132584700Y-77283700D02*
X129609600Y-80258800D01*
X132584700Y-62360300D02*
X132584700Y-77283700D01*
X135255000Y-59690000D02*
X132584700Y-62360300D01*
X134136700Y-58571700D02*
X135255000Y-59690000D01*
X134136700Y-55415100D02*
X134136700Y-58571700D01*
X134804600Y-54747200D02*
X134136700Y-55415100D01*
X137300900Y-54747200D02*
X134804600Y-54747200D01*
X139163700Y-56610000D02*
X137300900Y-54747200D01*
X157790000Y-56610000D02*
X139163700Y-56610000D01*
X157790000Y-64110000D02*
X156270900Y-64110000D01*
X142398700Y-102393700D02*
X142875000Y-102870000D01*
X142398700Y-70326300D02*
X142398700Y-102393700D01*
X145415000Y-67310000D02*
X142398700Y-70326300D01*
D30*
G36*
X183465000Y-44236974D02*
X183399699Y-44171673D01*
X183166310Y-44075000D01*
X182575750Y-44075000D01*
X182417000Y-44233750D01*
X182417000Y-45333000D01*
X182437000Y-45333000D01*
X182437000Y-45587000D01*
X182417000Y-45587000D01*
X182417000Y-46686250D01*
X182575750Y-46845000D01*
X183166310Y-46845000D01*
X183399699Y-46748327D01*
X183465000Y-46683026D01*
X183465000Y-139015000D01*
X108635000Y-139015000D01*
X108635000Y-135633795D01*
X116474716Y-135633795D01*
X116723106Y-136234943D01*
X117182637Y-136695278D01*
X117783352Y-136944716D01*
X118433795Y-136945284D01*
X119034943Y-136696894D01*
X119495278Y-136237363D01*
X119744716Y-135636648D01*
X119744718Y-135633795D01*
X122974716Y-135633795D01*
X123223106Y-136234943D01*
X123682637Y-136695278D01*
X124283352Y-136944716D01*
X124933795Y-136945284D01*
X125534943Y-136696894D01*
X125995278Y-136237363D01*
X126244716Y-135636648D01*
X126245284Y-134986205D01*
X125996894Y-134385057D01*
X125537363Y-133924722D01*
X124936648Y-133675284D01*
X124286205Y-133674716D01*
X123685057Y-133923106D01*
X123224722Y-134382637D01*
X122975284Y-134983352D01*
X122974716Y-135633795D01*
X119744718Y-135633795D01*
X119745284Y-134986205D01*
X119496894Y-134385057D01*
X119037363Y-133924722D01*
X118436648Y-133675284D01*
X117786205Y-133674716D01*
X117185057Y-133923106D01*
X116724722Y-134382637D01*
X116475284Y-134983352D01*
X116474716Y-135633795D01*
X108635000Y-135633795D01*
X108635000Y-134321930D01*
X113507675Y-134321930D01*
X113575735Y-134562931D01*
X114095034Y-134747767D01*
X114645538Y-134719805D01*
X115024265Y-134562931D01*
X115092325Y-134321930D01*
X114300000Y-133529605D01*
X113507675Y-134321930D01*
X108635000Y-134321930D01*
X108635000Y-133145034D01*
X112902233Y-133145034D01*
X112930195Y-133695538D01*
X113087069Y-134074265D01*
X113328070Y-134142325D01*
X114120395Y-133350000D01*
X114479605Y-133350000D01*
X115271930Y-134142325D01*
X115512931Y-134074265D01*
X115697767Y-133554966D01*
X115669805Y-133004462D01*
X115512931Y-132625735D01*
X115271930Y-132557675D01*
X114479605Y-133350000D01*
X114120395Y-133350000D01*
X113328070Y-132557675D01*
X113087069Y-132625735D01*
X112902233Y-133145034D01*
X108635000Y-133145034D01*
X108635000Y-81556661D01*
X110997758Y-81556661D01*
X111209990Y-82070303D01*
X111602630Y-82463629D01*
X112115900Y-82676757D01*
X112469776Y-82677066D01*
X115905000Y-86112290D01*
X115905000Y-87502560D01*
X115590000Y-87502560D01*
X115354683Y-87546838D01*
X115138559Y-87685910D01*
X114993569Y-87898110D01*
X114942560Y-88150000D01*
X114942560Y-89475150D01*
X113049155Y-91368555D01*
X112846473Y-91671891D01*
X112775300Y-92029700D01*
X112775300Y-122600300D01*
X112846473Y-122958109D01*
X113049155Y-123261445D01*
X113739839Y-123952129D01*
X113685328Y-124083405D01*
X113684674Y-124833305D01*
X113740148Y-124967562D01*
X113638855Y-125068855D01*
X113436173Y-125372191D01*
X113365000Y-125730000D01*
X113365000Y-129785586D01*
X113126056Y-130024113D01*
X112914671Y-130533184D01*
X112914190Y-131084398D01*
X113124686Y-131593837D01*
X113514113Y-131983944D01*
X113729496Y-132073379D01*
X113575735Y-132137069D01*
X113507675Y-132378070D01*
X114300000Y-133170395D01*
X115092325Y-132378070D01*
X115024265Y-132137069D01*
X114858960Y-132078231D01*
X115083837Y-131985314D01*
X115106658Y-131962532D01*
X117137073Y-131962532D01*
X117235736Y-132229387D01*
X117845461Y-132455908D01*
X118495460Y-132431856D01*
X118984264Y-132229387D01*
X119082927Y-131962532D01*
X123637073Y-131962532D01*
X123735736Y-132229387D01*
X124345461Y-132455908D01*
X124995460Y-132431856D01*
X125484264Y-132229387D01*
X125582927Y-131962532D01*
X124610000Y-130989605D01*
X123637073Y-131962532D01*
X119082927Y-131962532D01*
X118110000Y-130989605D01*
X117137073Y-131962532D01*
X115106658Y-131962532D01*
X115473944Y-131595887D01*
X115685329Y-131086816D01*
X115685801Y-130545461D01*
X116464092Y-130545461D01*
X116488144Y-131195460D01*
X116690613Y-131684264D01*
X116957468Y-131782927D01*
X117930395Y-130810000D01*
X118289605Y-130810000D01*
X119262532Y-131782927D01*
X119529387Y-131684264D01*
X119755908Y-131074539D01*
X119736331Y-130545461D01*
X122964092Y-130545461D01*
X122988144Y-131195460D01*
X123190613Y-131684264D01*
X123457468Y-131782927D01*
X124430395Y-130810000D01*
X124789605Y-130810000D01*
X125762532Y-131782927D01*
X126029387Y-131684264D01*
X126255908Y-131074539D01*
X126231856Y-130424540D01*
X126029387Y-129935736D01*
X125762532Y-129837073D01*
X124789605Y-130810000D01*
X124430395Y-130810000D01*
X123457468Y-129837073D01*
X123190613Y-129935736D01*
X122964092Y-130545461D01*
X119736331Y-130545461D01*
X119731856Y-130424540D01*
X119529387Y-129935736D01*
X119262532Y-129837073D01*
X118289605Y-130810000D01*
X117930395Y-130810000D01*
X116957468Y-129837073D01*
X116690613Y-129935736D01*
X116464092Y-130545461D01*
X115685801Y-130545461D01*
X115685810Y-130535602D01*
X115475314Y-130026163D01*
X115235000Y-129785429D01*
X115235000Y-129657468D01*
X117137073Y-129657468D01*
X118110000Y-130630395D01*
X119082927Y-129657468D01*
X123637073Y-129657468D01*
X124610000Y-130630395D01*
X125582927Y-129657468D01*
X125484264Y-129390613D01*
X124874539Y-129164092D01*
X124224540Y-129188144D01*
X123735736Y-129390613D01*
X123637073Y-129657468D01*
X119082927Y-129657468D01*
X118984264Y-129390613D01*
X118374539Y-129164092D01*
X117724540Y-129188144D01*
X117235736Y-129390613D01*
X117137073Y-129657468D01*
X115235000Y-129657468D01*
X115235000Y-126344708D01*
X115943305Y-126345326D01*
X116636372Y-126058957D01*
X117167093Y-125529161D01*
X117454672Y-124836595D01*
X117455326Y-124086695D01*
X117168957Y-123393628D01*
X116985650Y-123210000D01*
X121292560Y-123210000D01*
X121292560Y-125710000D01*
X121336838Y-125945317D01*
X121475910Y-126161441D01*
X121688110Y-126306431D01*
X121940000Y-126357440D01*
X124440000Y-126357440D01*
X124675317Y-126313162D01*
X124891441Y-126174090D01*
X125036431Y-125961890D01*
X125087440Y-125710000D01*
X125087440Y-123210000D01*
X125043162Y-122974683D01*
X124904090Y-122758559D01*
X124691890Y-122613569D01*
X124440000Y-122562560D01*
X121940000Y-122562560D01*
X121704683Y-122606838D01*
X121488559Y-122745910D01*
X121343569Y-122958110D01*
X121292560Y-123210000D01*
X116985650Y-123210000D01*
X116639161Y-122862907D01*
X115946595Y-122575328D01*
X115196695Y-122574674D01*
X115062438Y-122630148D01*
X114645300Y-122213010D01*
X114645300Y-110877079D01*
X115193405Y-111104672D01*
X115943305Y-111105326D01*
X116636372Y-110818957D01*
X116902472Y-110553320D01*
X122036285Y-110553320D01*
X122165533Y-110846123D01*
X122865806Y-111114388D01*
X123615435Y-111094250D01*
X124214467Y-110846123D01*
X124343715Y-110553320D01*
X123190000Y-109399605D01*
X122036285Y-110553320D01*
X116902472Y-110553320D01*
X117167093Y-110289161D01*
X117454672Y-109596595D01*
X117455283Y-108895806D01*
X121295612Y-108895806D01*
X121315750Y-109645435D01*
X121563877Y-110244467D01*
X121856680Y-110373715D01*
X123010395Y-109220000D01*
X123369605Y-109220000D01*
X124523320Y-110373715D01*
X124816123Y-110244467D01*
X125084388Y-109544194D01*
X125064250Y-108794565D01*
X124816123Y-108195533D01*
X124523320Y-108066285D01*
X123369605Y-109220000D01*
X123010395Y-109220000D01*
X121856680Y-108066285D01*
X121563877Y-108195533D01*
X121295612Y-108895806D01*
X117455283Y-108895806D01*
X117455326Y-108846695D01*
X117168957Y-108153628D01*
X116902475Y-107886680D01*
X122036285Y-107886680D01*
X123190000Y-109040395D01*
X124343715Y-107886680D01*
X124214467Y-107593877D01*
X123514194Y-107325612D01*
X122764565Y-107345750D01*
X122165533Y-107593877D01*
X122036285Y-107886680D01*
X116902475Y-107886680D01*
X116639161Y-107622907D01*
X115946595Y-107335328D01*
X115196695Y-107334674D01*
X114645300Y-107562505D01*
X114645300Y-103781661D01*
X124332758Y-103781661D01*
X124544990Y-104295303D01*
X124937630Y-104688629D01*
X125450900Y-104901757D01*
X126006661Y-104902242D01*
X126520303Y-104690010D01*
X126913629Y-104297370D01*
X127126757Y-103784100D01*
X127127242Y-103228339D01*
X127124195Y-103220963D01*
X129885357Y-100459801D01*
X130025000Y-100553108D01*
X130025000Y-102642560D01*
X129960000Y-102642560D01*
X129724683Y-102686838D01*
X129508559Y-102825910D01*
X129363569Y-103038110D01*
X129312560Y-103290000D01*
X129312560Y-104990000D01*
X129356838Y-105225317D01*
X129495910Y-105441441D01*
X129708110Y-105586431D01*
X129960000Y-105637440D01*
X131660000Y-105637440D01*
X131895317Y-105593162D01*
X132111441Y-105454090D01*
X132256431Y-105241890D01*
X132270086Y-105174459D01*
X132299946Y-105219147D01*
X132781715Y-105541054D01*
X133350000Y-105654093D01*
X133918285Y-105541054D01*
X134400054Y-105219147D01*
X134620000Y-104889974D01*
X134839946Y-105219147D01*
X135321715Y-105541054D01*
X135890000Y-105654093D01*
X136458285Y-105541054D01*
X136940054Y-105219147D01*
X137167702Y-104878447D01*
X137234817Y-105021358D01*
X137663076Y-105411645D01*
X138073110Y-105581476D01*
X138303000Y-105460155D01*
X138303000Y-104267000D01*
X138557000Y-104267000D01*
X138557000Y-105460155D01*
X138786890Y-105581476D01*
X139196924Y-105411645D01*
X139625183Y-105021358D01*
X139871486Y-104496892D01*
X139750819Y-104267000D01*
X138557000Y-104267000D01*
X138303000Y-104267000D01*
X138283000Y-104267000D01*
X138283000Y-104013000D01*
X138303000Y-104013000D01*
X138303000Y-102819845D01*
X138557000Y-102819845D01*
X138557000Y-104013000D01*
X139750819Y-104013000D01*
X139871486Y-103783108D01*
X139625183Y-103258642D01*
X139196924Y-102868355D01*
X138786890Y-102698524D01*
X138557000Y-102819845D01*
X138303000Y-102819845D01*
X138073110Y-102698524D01*
X137663076Y-102868355D01*
X137234817Y-103258642D01*
X137167702Y-103401553D01*
X136940054Y-103060853D01*
X136458285Y-102738946D01*
X135890000Y-102625907D01*
X135321715Y-102738946D01*
X134839946Y-103060853D01*
X134620000Y-103390026D01*
X134400054Y-103060853D01*
X134135000Y-102883750D01*
X134135000Y-100553108D01*
X134329746Y-100422983D01*
X134620000Y-99988588D01*
X134910254Y-100422983D01*
X135359765Y-100723337D01*
X135890000Y-100828807D01*
X136420235Y-100723337D01*
X136869746Y-100422983D01*
X137160000Y-99988588D01*
X137450254Y-100422983D01*
X137899765Y-100723337D01*
X138430000Y-100828807D01*
X138960235Y-100723337D01*
X139409746Y-100422983D01*
X139700000Y-99988588D01*
X139990254Y-100422983D01*
X140439765Y-100723337D01*
X140970000Y-100828807D01*
X141500235Y-100723337D01*
X141613700Y-100647522D01*
X141613700Y-102264683D01*
X141478243Y-102590900D01*
X141477758Y-103146661D01*
X141689990Y-103660303D01*
X142082630Y-104053629D01*
X142595900Y-104266757D01*
X143151661Y-104267242D01*
X143665303Y-104055010D01*
X144058629Y-103662370D01*
X144271757Y-103149100D01*
X144272242Y-102593339D01*
X144060010Y-102079697D01*
X143667370Y-101686371D01*
X143183700Y-101485534D01*
X143183700Y-100763902D01*
X143510000Y-100828807D01*
X144040235Y-100723337D01*
X144164100Y-100640573D01*
X144164100Y-102076100D01*
X144223855Y-102376507D01*
X144394021Y-102631179D01*
X149075000Y-107312158D01*
X149075000Y-107547665D01*
X148590000Y-107451193D01*
X148059765Y-107556663D01*
X147610254Y-107857017D01*
X147320000Y-108291412D01*
X147029746Y-107857017D01*
X146580235Y-107556663D01*
X146050000Y-107451193D01*
X145519765Y-107556663D01*
X145070254Y-107857017D01*
X144780000Y-108291412D01*
X144489746Y-107857017D01*
X144040235Y-107556663D01*
X143510000Y-107451193D01*
X142979765Y-107556663D01*
X142530254Y-107857017D01*
X142240000Y-108291412D01*
X141949746Y-107857017D01*
X141500235Y-107556663D01*
X140970000Y-107451193D01*
X140439765Y-107556663D01*
X139990254Y-107857017D01*
X139700000Y-108291412D01*
X139409746Y-107857017D01*
X138960235Y-107556663D01*
X138430000Y-107451193D01*
X137899765Y-107556663D01*
X137450254Y-107857017D01*
X137160000Y-108291412D01*
X136869746Y-107857017D01*
X136420235Y-107556663D01*
X135890000Y-107451193D01*
X135359765Y-107556663D01*
X134910254Y-107857017D01*
X134620000Y-108291412D01*
X134329746Y-107857017D01*
X133880235Y-107556663D01*
X133350000Y-107451193D01*
X132819765Y-107556663D01*
X132370254Y-107857017D01*
X132080000Y-108291412D01*
X131789746Y-107857017D01*
X131340235Y-107556663D01*
X130810000Y-107451193D01*
X130279765Y-107556663D01*
X129830254Y-107857017D01*
X129529900Y-108306528D01*
X129424430Y-108836763D01*
X129424430Y-109603237D01*
X129529900Y-110133472D01*
X129830254Y-110582983D01*
X129875000Y-110612881D01*
X129875000Y-113143977D01*
X129759946Y-113220853D01*
X129438039Y-113702622D01*
X129325000Y-114270907D01*
X129325000Y-114329093D01*
X129438039Y-114897378D01*
X129759946Y-115379147D01*
X130241715Y-115701054D01*
X130810000Y-115814093D01*
X131378285Y-115701054D01*
X131860054Y-115379147D01*
X132080000Y-115049974D01*
X132299946Y-115379147D01*
X132781715Y-115701054D01*
X133350000Y-115814093D01*
X133918285Y-115701054D01*
X134400054Y-115379147D01*
X134620000Y-115049974D01*
X134839946Y-115379147D01*
X135321715Y-115701054D01*
X135890000Y-115814093D01*
X136458285Y-115701054D01*
X136940054Y-115379147D01*
X137160000Y-115049974D01*
X137379946Y-115379147D01*
X137861715Y-115701054D01*
X138430000Y-115814093D01*
X138998285Y-115701054D01*
X139480054Y-115379147D01*
X139700000Y-115049974D01*
X139919946Y-115379147D01*
X140401715Y-115701054D01*
X140970000Y-115814093D01*
X141538285Y-115701054D01*
X142020054Y-115379147D01*
X142240000Y-115049974D01*
X142459946Y-115379147D01*
X142941715Y-115701054D01*
X143510000Y-115814093D01*
X144078285Y-115701054D01*
X144560054Y-115379147D01*
X144780000Y-115049974D01*
X144999946Y-115379147D01*
X145481715Y-115701054D01*
X146050000Y-115814093D01*
X146618285Y-115701054D01*
X147100054Y-115379147D01*
X147320000Y-115049974D01*
X147539946Y-115379147D01*
X148021715Y-115701054D01*
X148590000Y-115814093D01*
X149158285Y-115701054D01*
X149481459Y-115485117D01*
X150103821Y-116107479D01*
X150358493Y-116277645D01*
X150658900Y-116337400D01*
X154132400Y-116337400D01*
X154432807Y-116277645D01*
X154687479Y-116107479D01*
X155313326Y-115481632D01*
X155641715Y-115701054D01*
X156210000Y-115814093D01*
X156778285Y-115701054D01*
X157260054Y-115379147D01*
X157480000Y-115049974D01*
X157699946Y-115379147D01*
X158181715Y-115701054D01*
X158750000Y-115814093D01*
X159318285Y-115701054D01*
X159800054Y-115379147D01*
X160020000Y-115049974D01*
X160239946Y-115379147D01*
X160721715Y-115701054D01*
X161290000Y-115814093D01*
X161858285Y-115701054D01*
X162340054Y-115379147D01*
X162560000Y-115049974D01*
X162779946Y-115379147D01*
X163261715Y-115701054D01*
X163830000Y-115814093D01*
X164261300Y-115728302D01*
X164261300Y-122776984D01*
X163830000Y-122691193D01*
X163299765Y-122796663D01*
X162850254Y-123097017D01*
X162560000Y-123531412D01*
X162269746Y-123097017D01*
X161820235Y-122796663D01*
X161290000Y-122691193D01*
X160759765Y-122796663D01*
X160310254Y-123097017D01*
X160020000Y-123531412D01*
X159729746Y-123097017D01*
X159280235Y-122796663D01*
X158750000Y-122691193D01*
X158219765Y-122796663D01*
X157770254Y-123097017D01*
X157480000Y-123531412D01*
X157189746Y-123097017D01*
X156740235Y-122796663D01*
X156210000Y-122691193D01*
X155679765Y-122796663D01*
X155230254Y-123097017D01*
X154940000Y-123531412D01*
X154649746Y-123097017D01*
X154200235Y-122796663D01*
X153670000Y-122691193D01*
X153139765Y-122796663D01*
X152690254Y-123097017D01*
X152400000Y-123531412D01*
X152109746Y-123097017D01*
X151660235Y-122796663D01*
X151130000Y-122691193D01*
X150599765Y-122796663D01*
X150150254Y-123097017D01*
X149860000Y-123531412D01*
X149569746Y-123097017D01*
X149120235Y-122796663D01*
X148590000Y-122691193D01*
X148059765Y-122796663D01*
X147610254Y-123097017D01*
X147320000Y-123531412D01*
X147029746Y-123097017D01*
X146580235Y-122796663D01*
X146050000Y-122691193D01*
X145519765Y-122796663D01*
X145070254Y-123097017D01*
X144780000Y-123531412D01*
X144489746Y-123097017D01*
X144040235Y-122796663D01*
X143510000Y-122691193D01*
X142979765Y-122796663D01*
X142530254Y-123097017D01*
X142240000Y-123531412D01*
X141949746Y-123097017D01*
X141500235Y-122796663D01*
X140970000Y-122691193D01*
X140439765Y-122796663D01*
X139990254Y-123097017D01*
X139700000Y-123531412D01*
X139409746Y-123097017D01*
X138960235Y-122796663D01*
X138430000Y-122691193D01*
X137899765Y-122796663D01*
X137450254Y-123097017D01*
X137160000Y-123531412D01*
X136869746Y-123097017D01*
X136420235Y-122796663D01*
X135890000Y-122691193D01*
X135359765Y-122796663D01*
X134910254Y-123097017D01*
X134620000Y-123531412D01*
X134329746Y-123097017D01*
X133880235Y-122796663D01*
X133350000Y-122691193D01*
X132819765Y-122796663D01*
X132370254Y-123097017D01*
X132080000Y-123531412D01*
X131789746Y-123097017D01*
X131340235Y-122796663D01*
X130810000Y-122691193D01*
X130279765Y-122796663D01*
X129830254Y-123097017D01*
X129529900Y-123546528D01*
X129424430Y-124076763D01*
X129424430Y-124843237D01*
X129529900Y-125373472D01*
X129830254Y-125822983D01*
X130025000Y-125953108D01*
X130025000Y-128042560D01*
X129960000Y-128042560D01*
X129724683Y-128086838D01*
X129508559Y-128225910D01*
X129363569Y-128438110D01*
X129312560Y-128690000D01*
X129312560Y-130390000D01*
X129356838Y-130625317D01*
X129495910Y-130841441D01*
X129708110Y-130986431D01*
X129960000Y-131037440D01*
X131660000Y-131037440D01*
X131895317Y-130993162D01*
X132111441Y-130854090D01*
X132256431Y-130641890D01*
X132270086Y-130574459D01*
X132299946Y-130619147D01*
X132781715Y-130941054D01*
X133350000Y-131054093D01*
X133918285Y-130941054D01*
X134400054Y-130619147D01*
X134620000Y-130289974D01*
X134839946Y-130619147D01*
X135321715Y-130941054D01*
X135890000Y-131054093D01*
X136458285Y-130941054D01*
X136940054Y-130619147D01*
X137160000Y-130289974D01*
X137379946Y-130619147D01*
X137861715Y-130941054D01*
X138430000Y-131054093D01*
X138998285Y-130941054D01*
X139480054Y-130619147D01*
X139700000Y-130289974D01*
X139919946Y-130619147D01*
X140401715Y-130941054D01*
X140970000Y-131054093D01*
X141538285Y-130941054D01*
X142020054Y-130619147D01*
X142240000Y-130289974D01*
X142459946Y-130619147D01*
X142941715Y-130941054D01*
X143510000Y-131054093D01*
X144078285Y-130941054D01*
X144560054Y-130619147D01*
X144780000Y-130289974D01*
X144999946Y-130619147D01*
X145481715Y-130941054D01*
X146050000Y-131054093D01*
X146618285Y-130941054D01*
X147100054Y-130619147D01*
X147320000Y-130289974D01*
X147539946Y-130619147D01*
X148021715Y-130941054D01*
X148590000Y-131054093D01*
X149158285Y-130941054D01*
X149640054Y-130619147D01*
X149860000Y-130289974D01*
X150079946Y-130619147D01*
X150561715Y-130941054D01*
X151130000Y-131054093D01*
X151698285Y-130941054D01*
X152180054Y-130619147D01*
X152400000Y-130289974D01*
X152619946Y-130619147D01*
X153101715Y-130941054D01*
X153670000Y-131054093D01*
X154238285Y-130941054D01*
X154720054Y-130619147D01*
X154940000Y-130289974D01*
X155159946Y-130619147D01*
X155641715Y-130941054D01*
X156210000Y-131054093D01*
X156778285Y-130941054D01*
X157260054Y-130619147D01*
X157480000Y-130289974D01*
X157699946Y-130619147D01*
X158181715Y-130941054D01*
X158750000Y-131054093D01*
X159318285Y-130941054D01*
X159800054Y-130619147D01*
X160020000Y-130289974D01*
X160239946Y-130619147D01*
X160721715Y-130941054D01*
X161290000Y-131054093D01*
X161858285Y-130941054D01*
X162340054Y-130619147D01*
X162560000Y-130289974D01*
X162779946Y-130619147D01*
X163124963Y-130849679D01*
X161339942Y-132634700D01*
X161290000Y-132634700D01*
X160989594Y-132694455D01*
X160734921Y-132864621D01*
X160564755Y-133119294D01*
X160517835Y-133355174D01*
X160239946Y-133540853D01*
X159918039Y-134022622D01*
X159805000Y-134590907D01*
X159805000Y-134649093D01*
X159918039Y-135217378D01*
X160239946Y-135699147D01*
X160721715Y-136021054D01*
X161290000Y-136134093D01*
X161858285Y-136021054D01*
X162340054Y-135699147D01*
X162367850Y-135657548D01*
X162376838Y-135705317D01*
X162515910Y-135921441D01*
X162728110Y-136066431D01*
X162980000Y-136117440D01*
X164680000Y-136117440D01*
X164915317Y-136073162D01*
X165131441Y-135934090D01*
X165276431Y-135721890D01*
X165327440Y-135470000D01*
X165327440Y-133770000D01*
X165283162Y-133534683D01*
X165144090Y-133318559D01*
X164931890Y-133173569D01*
X164680000Y-133122560D01*
X163072398Y-133122560D01*
X165473326Y-130721632D01*
X165801715Y-130941054D01*
X166370000Y-131054093D01*
X166938285Y-130941054D01*
X167420054Y-130619147D01*
X167640000Y-130289974D01*
X167859946Y-130619147D01*
X168341715Y-130941054D01*
X168910000Y-131054093D01*
X169478285Y-130941054D01*
X169960054Y-130619147D01*
X170180000Y-130289974D01*
X170399946Y-130619147D01*
X170881715Y-130941054D01*
X171450000Y-131054093D01*
X172018285Y-130941054D01*
X172500054Y-130619147D01*
X172720000Y-130289974D01*
X172939946Y-130619147D01*
X173421715Y-130941054D01*
X173990000Y-131054093D01*
X174558285Y-130941054D01*
X175040054Y-130619147D01*
X175260000Y-130289974D01*
X175479946Y-130619147D01*
X175961715Y-130941054D01*
X176530000Y-131054093D01*
X177098285Y-130941054D01*
X177580054Y-130619147D01*
X177800000Y-130289974D01*
X178019946Y-130619147D01*
X178501715Y-130941054D01*
X179070000Y-131054093D01*
X179638285Y-130941054D01*
X180120054Y-130619147D01*
X180441961Y-130137378D01*
X180555000Y-129569093D01*
X180555000Y-129510907D01*
X180441961Y-128942622D01*
X180120054Y-128460853D01*
X179855000Y-128283750D01*
X179855000Y-125953108D01*
X180049746Y-125822983D01*
X180350100Y-125373472D01*
X180455570Y-124843237D01*
X180455570Y-124076763D01*
X180350100Y-123546528D01*
X180049746Y-123097017D01*
X179600235Y-122796663D01*
X179070000Y-122691193D01*
X178539765Y-122796663D01*
X178535000Y-122799847D01*
X178535000Y-115785000D01*
X178784250Y-115785000D01*
X178943000Y-115626250D01*
X178943000Y-114427000D01*
X179197000Y-114427000D01*
X179197000Y-115626250D01*
X179355750Y-115785000D01*
X180046310Y-115785000D01*
X180279699Y-115688327D01*
X180458327Y-115509698D01*
X180555000Y-115276309D01*
X180555000Y-114585750D01*
X180396250Y-114427000D01*
X179197000Y-114427000D01*
X178943000Y-114427000D01*
X178923000Y-114427000D01*
X178923000Y-114173000D01*
X178943000Y-114173000D01*
X178943000Y-112973750D01*
X179197000Y-112973750D01*
X179197000Y-114173000D01*
X180396250Y-114173000D01*
X180555000Y-114014250D01*
X180555000Y-113323691D01*
X180458327Y-113090302D01*
X180279699Y-112911673D01*
X180046310Y-112815000D01*
X179355750Y-112815000D01*
X179197000Y-112973750D01*
X178943000Y-112973750D01*
X178784250Y-112815000D01*
X178535000Y-112815000D01*
X178535000Y-110831621D01*
X178657097Y-110897950D01*
X178728725Y-110912133D01*
X178943000Y-110789479D01*
X178943000Y-109347000D01*
X179197000Y-109347000D01*
X179197000Y-110789479D01*
X179411275Y-110912133D01*
X179482903Y-110897950D01*
X179959944Y-110638798D01*
X180301499Y-110216817D01*
X180455570Y-109696250D01*
X180455570Y-109347000D01*
X179197000Y-109347000D01*
X178943000Y-109347000D01*
X178923000Y-109347000D01*
X178923000Y-109093000D01*
X178943000Y-109093000D01*
X178943000Y-107650521D01*
X179197000Y-107650521D01*
X179197000Y-109093000D01*
X180455570Y-109093000D01*
X180455570Y-108743750D01*
X180301499Y-108223183D01*
X179959944Y-107801202D01*
X179482903Y-107542050D01*
X179411275Y-107527867D01*
X179197000Y-107650521D01*
X178943000Y-107650521D01*
X178728725Y-107527867D01*
X178657097Y-107542050D01*
X178418892Y-107671455D01*
X178305079Y-107501121D01*
X178006900Y-107202942D01*
X178006900Y-106744887D01*
X178155900Y-106806757D01*
X178711661Y-106807242D01*
X179225303Y-106595010D01*
X179618629Y-106202370D01*
X179831757Y-105689100D01*
X179832242Y-105133339D01*
X179620010Y-104619697D01*
X179227370Y-104226371D01*
X178714100Y-104013243D01*
X178415900Y-104012983D01*
X178415900Y-100640573D01*
X178539765Y-100723337D01*
X179070000Y-100828807D01*
X179600235Y-100723337D01*
X180049746Y-100422983D01*
X180350100Y-99973472D01*
X180455570Y-99443237D01*
X180455570Y-98676763D01*
X180350100Y-98146528D01*
X180049746Y-97697017D01*
X179600235Y-97396663D01*
X179070000Y-97291193D01*
X178539765Y-97396663D01*
X178415900Y-97479427D01*
X178415900Y-85400573D01*
X178539765Y-85483337D01*
X179070000Y-85588807D01*
X179600235Y-85483337D01*
X180049746Y-85182983D01*
X180350100Y-84733472D01*
X180455570Y-84203237D01*
X180455570Y-83436763D01*
X180350100Y-82906528D01*
X180049746Y-82457017D01*
X179600235Y-82156663D01*
X179070000Y-82051193D01*
X178539765Y-82156663D01*
X178090254Y-82457017D01*
X177800000Y-82891412D01*
X177509746Y-82457017D01*
X177060235Y-82156663D01*
X176530000Y-82051193D01*
X175999765Y-82156663D01*
X175550254Y-82457017D01*
X175260000Y-82891412D01*
X174969746Y-82457017D01*
X174520235Y-82156663D01*
X173990000Y-82051193D01*
X173459765Y-82156663D01*
X173010254Y-82457017D01*
X172720000Y-82891412D01*
X172429746Y-82457017D01*
X171980235Y-82156663D01*
X171450000Y-82051193D01*
X170919765Y-82156663D01*
X170470254Y-82457017D01*
X170180000Y-82891412D01*
X169889746Y-82457017D01*
X169440235Y-82156663D01*
X168910000Y-82051193D01*
X168379765Y-82156663D01*
X167930254Y-82457017D01*
X167640000Y-82891412D01*
X167349746Y-82457017D01*
X166900235Y-82156663D01*
X166370000Y-82051193D01*
X165839765Y-82156663D01*
X165390254Y-82457017D01*
X165100000Y-82891412D01*
X164809746Y-82457017D01*
X164360235Y-82156663D01*
X163830000Y-82051193D01*
X163299765Y-82156663D01*
X162850254Y-82457017D01*
X162560000Y-82891412D01*
X162269746Y-82457017D01*
X161820235Y-82156663D01*
X161290000Y-82051193D01*
X160805000Y-82147665D01*
X160805000Y-81507440D01*
X160870000Y-81507440D01*
X161105317Y-81463162D01*
X161321441Y-81324090D01*
X161466431Y-81111890D01*
X161517440Y-80860000D01*
X161517440Y-79160000D01*
X161473162Y-78924683D01*
X161334090Y-78708559D01*
X161121890Y-78563569D01*
X160870000Y-78512560D01*
X159170000Y-78512560D01*
X158934683Y-78556838D01*
X158718559Y-78695910D01*
X158573569Y-78908110D01*
X158551699Y-79016107D01*
X158246924Y-78738355D01*
X157836890Y-78568524D01*
X157607000Y-78689845D01*
X157607000Y-79883000D01*
X157627000Y-79883000D01*
X157627000Y-80137000D01*
X157607000Y-80137000D01*
X157607000Y-81330155D01*
X157836890Y-81451476D01*
X158246924Y-81281645D01*
X158549937Y-81005499D01*
X158566838Y-81095317D01*
X158705910Y-81311441D01*
X158918110Y-81456431D01*
X159170000Y-81507440D01*
X159235000Y-81507440D01*
X159235000Y-82147665D01*
X158750000Y-82051193D01*
X158219765Y-82156663D01*
X157770254Y-82457017D01*
X157480000Y-82891412D01*
X157189746Y-82457017D01*
X156740235Y-82156663D01*
X156210000Y-82051193D01*
X155837565Y-82125275D01*
X154079182Y-80366892D01*
X156038514Y-80366892D01*
X156284817Y-80891358D01*
X156713076Y-81281645D01*
X157123110Y-81451476D01*
X157353000Y-81330155D01*
X157353000Y-80137000D01*
X156159181Y-80137000D01*
X156038514Y-80366892D01*
X154079182Y-80366892D01*
X153785515Y-80073225D01*
X153785810Y-79735602D01*
X153751725Y-79653108D01*
X156038514Y-79653108D01*
X156159181Y-79883000D01*
X157353000Y-79883000D01*
X157353000Y-78689845D01*
X157123110Y-78568524D01*
X156713076Y-78738355D01*
X156284817Y-79128642D01*
X156038514Y-79653108D01*
X153751725Y-79653108D01*
X153575314Y-79226163D01*
X153335000Y-78985429D01*
X153335000Y-73045458D01*
X154985821Y-74696279D01*
X155240494Y-74866445D01*
X155540900Y-74926200D01*
X158982600Y-74926200D01*
X159283007Y-74866445D01*
X159537679Y-74696279D01*
X159695479Y-74538479D01*
X159790846Y-74395750D01*
X168405000Y-74395750D01*
X168405000Y-74986309D01*
X168501673Y-75219698D01*
X168680301Y-75398327D01*
X168913690Y-75495000D01*
X169504250Y-75495000D01*
X169663000Y-75336250D01*
X169663000Y-74237000D01*
X169917000Y-74237000D01*
X169917000Y-75336250D01*
X170075750Y-75495000D01*
X170666310Y-75495000D01*
X170899699Y-75398327D01*
X171078327Y-75219698D01*
X171175000Y-74986309D01*
X171175000Y-74395750D01*
X171016250Y-74237000D01*
X169917000Y-74237000D01*
X169663000Y-74237000D01*
X168563750Y-74237000D01*
X168405000Y-74395750D01*
X159790846Y-74395750D01*
X159865645Y-74283806D01*
X159925400Y-73983400D01*
X159925400Y-73233691D01*
X168405000Y-73233691D01*
X168405000Y-73824250D01*
X168563750Y-73983000D01*
X169663000Y-73983000D01*
X169663000Y-72883750D01*
X169917000Y-72883750D01*
X169917000Y-73983000D01*
X171016250Y-73983000D01*
X171175000Y-73824250D01*
X171175000Y-73233691D01*
X171078327Y-73000302D01*
X170899699Y-72821673D01*
X170666310Y-72725000D01*
X170075750Y-72725000D01*
X169917000Y-72883750D01*
X169663000Y-72883750D01*
X169504250Y-72725000D01*
X168913690Y-72725000D01*
X168680301Y-72821673D01*
X168501673Y-73000302D01*
X168405000Y-73233691D01*
X159925400Y-73233691D01*
X159925400Y-70484238D01*
X160115169Y-70943515D01*
X160504436Y-71333461D01*
X161013298Y-71544759D01*
X161564285Y-71545240D01*
X162073515Y-71334831D01*
X162463461Y-70945564D01*
X162674759Y-70436702D01*
X162675240Y-69885715D01*
X162464831Y-69376485D01*
X162075564Y-68986539D01*
X161566702Y-68775241D01*
X161015715Y-68774760D01*
X160506485Y-68985169D01*
X160116539Y-69374436D01*
X159925400Y-69834750D01*
X159925400Y-68282000D01*
X159865645Y-67981594D01*
X159695479Y-67726921D01*
X159695476Y-67726919D01*
X159382491Y-67413934D01*
X159425000Y-67311309D01*
X159425000Y-66895750D01*
X159266250Y-66737000D01*
X157917000Y-66737000D01*
X157917000Y-66757000D01*
X157663000Y-66757000D01*
X157663000Y-66737000D01*
X157643000Y-66737000D01*
X157643000Y-66483000D01*
X157663000Y-66483000D01*
X157663000Y-65558750D01*
X157917000Y-65558750D01*
X157917000Y-66483000D01*
X159266250Y-66483000D01*
X159425000Y-66324250D01*
X159425000Y-65908691D01*
X159328327Y-65675302D01*
X159149699Y-65496673D01*
X158916310Y-65400000D01*
X158075750Y-65400000D01*
X157917000Y-65558750D01*
X157663000Y-65558750D01*
X157504250Y-65400000D01*
X156663690Y-65400000D01*
X156430301Y-65496673D01*
X156405500Y-65521474D01*
X156405500Y-65190822D01*
X156538110Y-65281431D01*
X156790000Y-65332440D01*
X158790000Y-65332440D01*
X159025317Y-65288162D01*
X159241441Y-65149090D01*
X159386431Y-64936890D01*
X159437440Y-64685000D01*
X159437440Y-63535000D01*
X159393162Y-63299683D01*
X159254090Y-63083559D01*
X159041890Y-62938569D01*
X158790000Y-62887560D01*
X156790000Y-62887560D01*
X156554683Y-62931838D01*
X156405500Y-63027835D01*
X156405500Y-62754358D01*
X156443245Y-62716613D01*
X156538110Y-62781431D01*
X156790000Y-62832440D01*
X158790000Y-62832440D01*
X159025317Y-62788162D01*
X159241441Y-62649090D01*
X159386431Y-62436890D01*
X159437440Y-62185000D01*
X159437440Y-61035000D01*
X159393162Y-60799683D01*
X159254090Y-60583559D01*
X159041890Y-60438569D01*
X158790000Y-60387560D01*
X156790000Y-60387560D01*
X156554683Y-60431838D01*
X156338559Y-60570910D01*
X156193569Y-60783110D01*
X156174399Y-60877772D01*
X156139294Y-60884755D01*
X155884621Y-61054921D01*
X155065421Y-61874121D01*
X154895255Y-62128793D01*
X154895255Y-62128794D01*
X154835500Y-62429200D01*
X154835500Y-66702100D01*
X154895255Y-67002507D01*
X155065421Y-67257179D01*
X155998719Y-68190476D01*
X155998721Y-68190479D01*
X156132092Y-68279594D01*
X156139697Y-68284675D01*
X156139294Y-68284755D01*
X155884621Y-68454921D01*
X155714455Y-68709594D01*
X155689406Y-68835524D01*
X155489508Y-69035073D01*
X155346862Y-69378601D01*
X155346684Y-69583226D01*
X146074579Y-60311121D01*
X145819907Y-60140955D01*
X145519500Y-60081200D01*
X137694900Y-60081200D01*
X137694900Y-59395750D01*
X156155000Y-59395750D01*
X156155000Y-59811309D01*
X156251673Y-60044698D01*
X156430301Y-60223327D01*
X156663690Y-60320000D01*
X157504250Y-60320000D01*
X157663000Y-60161250D01*
X157663000Y-59237000D01*
X157917000Y-59237000D01*
X157917000Y-60161250D01*
X158075750Y-60320000D01*
X158916310Y-60320000D01*
X159149699Y-60223327D01*
X159328327Y-60044698D01*
X159425000Y-59811309D01*
X159425000Y-59395750D01*
X159266250Y-59237000D01*
X157917000Y-59237000D01*
X157663000Y-59237000D01*
X156313750Y-59237000D01*
X156155000Y-59395750D01*
X137694900Y-59395750D01*
X137694900Y-58408691D01*
X156155000Y-58408691D01*
X156155000Y-58824250D01*
X156313750Y-58983000D01*
X157663000Y-58983000D01*
X157663000Y-58058750D01*
X157917000Y-58058750D01*
X157917000Y-58983000D01*
X159266250Y-58983000D01*
X159425000Y-58824250D01*
X159425000Y-58408691D01*
X159328327Y-58175302D01*
X159149699Y-57996673D01*
X158916310Y-57900000D01*
X158075750Y-57900000D01*
X157917000Y-58058750D01*
X157663000Y-58058750D01*
X157504250Y-57900000D01*
X156663690Y-57900000D01*
X156430301Y-57996673D01*
X156251673Y-58175302D01*
X156155000Y-58408691D01*
X137694900Y-58408691D01*
X137694900Y-57534900D01*
X137635145Y-57234494D01*
X137635145Y-57234493D01*
X137464979Y-56979821D01*
X136649557Y-56164399D01*
X136651757Y-56159100D01*
X136652242Y-55603339D01*
X136622848Y-55532200D01*
X136975742Y-55532200D01*
X138608621Y-57165079D01*
X138863293Y-57335245D01*
X139163700Y-57395000D01*
X156182074Y-57395000D01*
X156186838Y-57420317D01*
X156325910Y-57636441D01*
X156538110Y-57781431D01*
X156790000Y-57832440D01*
X158790000Y-57832440D01*
X159025317Y-57788162D01*
X159241441Y-57649090D01*
X159386431Y-57436890D01*
X159437440Y-57185000D01*
X159437440Y-56035000D01*
X159393162Y-55799683D01*
X159254090Y-55583559D01*
X159041890Y-55438569D01*
X158790000Y-55387560D01*
X156790000Y-55387560D01*
X156554683Y-55431838D01*
X156338559Y-55570910D01*
X156193569Y-55783110D01*
X156185086Y-55825000D01*
X145536999Y-55825000D01*
X145794698Y-55652811D01*
X146105767Y-55187264D01*
X146215000Y-54638113D01*
X146215000Y-54581887D01*
X146105767Y-54032736D01*
X145794698Y-53567189D01*
X145329151Y-53256120D01*
X144780000Y-53146887D01*
X144230849Y-53256120D01*
X143765302Y-53567189D01*
X143593038Y-53825000D01*
X141147440Y-53825000D01*
X141147440Y-53810000D01*
X141103162Y-53574683D01*
X140964090Y-53358559D01*
X140751890Y-53213569D01*
X140500000Y-53162560D01*
X138900000Y-53162560D01*
X138664683Y-53206838D01*
X138448559Y-53345910D01*
X138303569Y-53558110D01*
X138252560Y-53810000D01*
X138252560Y-54588702D01*
X137855979Y-54192121D01*
X137601307Y-54021955D01*
X137300900Y-53962200D01*
X134804600Y-53962200D01*
X134504193Y-54021955D01*
X134249521Y-54192121D01*
X133581621Y-54860021D01*
X133411455Y-55114693D01*
X133411455Y-55114694D01*
X133351700Y-55415100D01*
X133351700Y-58571700D01*
X133411455Y-58872107D01*
X133581621Y-59126779D01*
X133860443Y-59405601D01*
X133858243Y-59410900D01*
X133857758Y-59966661D01*
X133860806Y-59974037D01*
X132029621Y-61805221D01*
X131859455Y-62059893D01*
X131820026Y-62258113D01*
X131799700Y-62360300D01*
X131799700Y-76958542D01*
X129054521Y-79703721D01*
X128884355Y-79958393D01*
X128884355Y-79958394D01*
X128824600Y-80258800D01*
X128824600Y-99300242D01*
X126014399Y-102110443D01*
X126009100Y-102108243D01*
X125453339Y-102107758D01*
X124939697Y-102319990D01*
X124546371Y-102712630D01*
X124333243Y-103225900D01*
X124332758Y-103781661D01*
X114645300Y-103781661D01*
X114645300Y-92416990D01*
X115053981Y-92008309D01*
X115328625Y-92419343D01*
X115763624Y-92710000D01*
X115328625Y-93000657D01*
X115028395Y-93449983D01*
X114922968Y-93980000D01*
X115028395Y-94510017D01*
X115328625Y-94959343D01*
X115763624Y-95250000D01*
X115328625Y-95540657D01*
X115028395Y-95989983D01*
X114922968Y-96520000D01*
X115028395Y-97050017D01*
X115328625Y-97499343D01*
X115763624Y-97790000D01*
X115328625Y-98080657D01*
X115028395Y-98529983D01*
X114922968Y-99060000D01*
X115028395Y-99590017D01*
X115328625Y-100039343D01*
X115777951Y-100339573D01*
X116307968Y-100445000D01*
X116872032Y-100445000D01*
X117402049Y-100339573D01*
X117851375Y-100039343D01*
X118110000Y-99652283D01*
X118368625Y-100039343D01*
X118817951Y-100339573D01*
X119347968Y-100445000D01*
X119912032Y-100445000D01*
X120442049Y-100339573D01*
X120891375Y-100039343D01*
X121191605Y-99590017D01*
X121297032Y-99060000D01*
X121191605Y-98529983D01*
X120933523Y-98143735D01*
X122191879Y-96885379D01*
X122362045Y-96630706D01*
X122421801Y-96330300D01*
X122421800Y-96330295D01*
X122421800Y-93055213D01*
X124929392Y-93055213D01*
X124998857Y-93297397D01*
X125522302Y-93484144D01*
X126077368Y-93456362D01*
X126461143Y-93297397D01*
X126530608Y-93055213D01*
X125730000Y-92254605D01*
X124929392Y-93055213D01*
X122421800Y-93055213D01*
X122421800Y-91867302D01*
X124320856Y-91867302D01*
X124348638Y-92422368D01*
X124507603Y-92806143D01*
X124749787Y-92875608D01*
X125550395Y-92075000D01*
X125909605Y-92075000D01*
X126710213Y-92875608D01*
X126952397Y-92806143D01*
X127139144Y-92282698D01*
X127111362Y-91727632D01*
X126952397Y-91343857D01*
X126710213Y-91274392D01*
X125909605Y-92075000D01*
X125550395Y-92075000D01*
X124749787Y-91274392D01*
X124507603Y-91343857D01*
X124320856Y-91867302D01*
X122421800Y-91867302D01*
X122421800Y-91094787D01*
X124929392Y-91094787D01*
X125730000Y-91895395D01*
X126530608Y-91094787D01*
X126461143Y-90852603D01*
X125937698Y-90665856D01*
X125382632Y-90693638D01*
X124998857Y-90852603D01*
X124929392Y-91094787D01*
X122421800Y-91094787D01*
X122421800Y-81556661D01*
X122427758Y-81556661D01*
X122639990Y-82070303D01*
X123032630Y-82463629D01*
X123545900Y-82676757D01*
X124101661Y-82677242D01*
X124615303Y-82465010D01*
X125008629Y-82072370D01*
X125221757Y-81559100D01*
X125222242Y-81003339D01*
X125010010Y-80489697D01*
X124617370Y-80096371D01*
X124104100Y-79883243D01*
X123548339Y-79882758D01*
X123034697Y-80094990D01*
X122641371Y-80487630D01*
X122428243Y-81000900D01*
X122427758Y-81556661D01*
X122421800Y-81556661D01*
X122421800Y-79936558D01*
X126801684Y-75556674D01*
X126967290Y-75846324D01*
X127398167Y-76179841D01*
X127923877Y-76323081D01*
X128143000Y-76162386D01*
X128143000Y-75057000D01*
X128397000Y-75057000D01*
X128397000Y-76162386D01*
X128616123Y-76323081D01*
X129141833Y-76179841D01*
X129572710Y-75846324D01*
X129843157Y-75373305D01*
X129861803Y-75271275D01*
X129739149Y-75057000D01*
X128397000Y-75057000D01*
X128143000Y-75057000D01*
X128123000Y-75057000D01*
X128123000Y-74803000D01*
X128143000Y-74803000D01*
X128143000Y-74783000D01*
X128397000Y-74783000D01*
X128397000Y-74803000D01*
X129739149Y-74803000D01*
X129861803Y-74588725D01*
X129843157Y-74486695D01*
X129572710Y-74013676D01*
X129141833Y-73680159D01*
X129088053Y-73665506D01*
X129530688Y-73369746D01*
X129831042Y-72920235D01*
X129936512Y-72390000D01*
X129831042Y-71859765D01*
X129530688Y-71410254D01*
X129096293Y-71120000D01*
X129530688Y-70829746D01*
X129831042Y-70380235D01*
X129936512Y-69850000D01*
X129831042Y-69319765D01*
X129530688Y-68870254D01*
X129081177Y-68569900D01*
X128550942Y-68464430D01*
X127989058Y-68464430D01*
X127458823Y-68569900D01*
X127009312Y-68870254D01*
X126708958Y-69319765D01*
X126603488Y-69850000D01*
X126708958Y-70380235D01*
X127009312Y-70829746D01*
X127443707Y-71120000D01*
X127009312Y-71410254D01*
X126708958Y-71859765D01*
X126603488Y-72390000D01*
X126708958Y-72920235D01*
X126912774Y-73225268D01*
X124547720Y-75590322D01*
X124506031Y-75548561D01*
X124501045Y-75523494D01*
X124330879Y-75268821D01*
X120999532Y-71937474D01*
X121191605Y-71650017D01*
X121297032Y-71120000D01*
X121191605Y-70589983D01*
X121017276Y-70329082D01*
X124380079Y-66966279D01*
X124550245Y-66711606D01*
X124610001Y-66411200D01*
X124610000Y-66411195D01*
X124610000Y-60877201D01*
X124615303Y-60875010D01*
X125008629Y-60482370D01*
X125221757Y-59969100D01*
X125222242Y-59413339D01*
X125010010Y-58899697D01*
X124617370Y-58506371D01*
X124104100Y-58293243D01*
X123548339Y-58292758D01*
X123034697Y-58504990D01*
X122641371Y-58897630D01*
X122428243Y-59410900D01*
X122427758Y-59966661D01*
X122639990Y-60480303D01*
X123032630Y-60873629D01*
X123040000Y-60876689D01*
X123040000Y-66086042D01*
X121145324Y-67980718D01*
X120891375Y-67600657D01*
X120442049Y-67300427D01*
X119912032Y-67195000D01*
X119347968Y-67195000D01*
X118817951Y-67300427D01*
X118368625Y-67600657D01*
X118232593Y-67804243D01*
X118193162Y-67594683D01*
X118054090Y-67378559D01*
X117841890Y-67233569D01*
X117590000Y-67182560D01*
X115590000Y-67182560D01*
X115354683Y-67226838D01*
X115138559Y-67365910D01*
X114993569Y-67578110D01*
X114942560Y-67830000D01*
X114942560Y-69330000D01*
X114986838Y-69565317D01*
X115125910Y-69781441D01*
X115338110Y-69926431D01*
X115576874Y-69974782D01*
X115328625Y-70140657D01*
X115028395Y-70589983D01*
X114922968Y-71120000D01*
X115028395Y-71650017D01*
X115328625Y-72099343D01*
X115763624Y-72390000D01*
X115328625Y-72680657D01*
X115028395Y-73129983D01*
X114922968Y-73660000D01*
X115028395Y-74190017D01*
X115328625Y-74639343D01*
X115777951Y-74939573D01*
X116307968Y-75045000D01*
X116872032Y-75045000D01*
X117402049Y-74939573D01*
X117851375Y-74639343D01*
X118126865Y-74227043D01*
X118327264Y-74576894D01*
X118758279Y-74909964D01*
X119283945Y-75052739D01*
X119503000Y-74891868D01*
X119503000Y-73787000D01*
X119483000Y-73787000D01*
X119483000Y-73533000D01*
X119503000Y-73533000D01*
X119503000Y-73513000D01*
X119757000Y-73513000D01*
X119757000Y-73533000D01*
X119777000Y-73533000D01*
X119777000Y-73787000D01*
X119757000Y-73787000D01*
X119757000Y-74891868D01*
X119976055Y-75052739D01*
X120501721Y-74909964D01*
X120932736Y-74576894D01*
X121109699Y-74267957D01*
X122840922Y-75999180D01*
X122840638Y-76325667D01*
X122982683Y-76669443D01*
X123225429Y-76912613D01*
X121081721Y-79056321D01*
X120911555Y-79310993D01*
X120867284Y-79533555D01*
X120851800Y-79611400D01*
X120851800Y-87920562D01*
X120501721Y-87650036D01*
X119976055Y-87507261D01*
X119757000Y-87668132D01*
X119757000Y-88773000D01*
X119777000Y-88773000D01*
X119777000Y-89027000D01*
X119757000Y-89027000D01*
X119757000Y-89047000D01*
X119503000Y-89047000D01*
X119503000Y-89027000D01*
X119483000Y-89027000D01*
X119483000Y-88773000D01*
X119503000Y-88773000D01*
X119503000Y-87668132D01*
X119283945Y-87507261D01*
X118758279Y-87650036D01*
X118327264Y-87983106D01*
X118236012Y-88142411D01*
X118193162Y-87914683D01*
X118054090Y-87698559D01*
X117841890Y-87553569D01*
X117775000Y-87540023D01*
X117775000Y-85725000D01*
X117703827Y-85367191D01*
X117501145Y-85063855D01*
X113791935Y-81354645D01*
X113792242Y-81003339D01*
X113580010Y-80489697D01*
X113187370Y-80096371D01*
X112674100Y-79883243D01*
X112118339Y-79882758D01*
X111604697Y-80094990D01*
X111211371Y-80487630D01*
X110998243Y-81000900D01*
X110997758Y-81556661D01*
X108635000Y-81556661D01*
X108635000Y-60046892D01*
X114128514Y-60046892D01*
X114374817Y-60571358D01*
X114803076Y-60961645D01*
X115213110Y-61131476D01*
X115443000Y-61010155D01*
X115443000Y-59817000D01*
X114249181Y-59817000D01*
X114128514Y-60046892D01*
X108635000Y-60046892D01*
X108635000Y-59333108D01*
X114128514Y-59333108D01*
X114249181Y-59563000D01*
X115443000Y-59563000D01*
X115443000Y-58369845D01*
X115697000Y-58369845D01*
X115697000Y-59563000D01*
X115717000Y-59563000D01*
X115717000Y-59817000D01*
X115697000Y-59817000D01*
X115697000Y-61010155D01*
X115926890Y-61131476D01*
X116336924Y-60961645D01*
X116639937Y-60685499D01*
X116656838Y-60775317D01*
X116795910Y-60991441D01*
X117008110Y-61136431D01*
X117260000Y-61187440D01*
X118960000Y-61187440D01*
X119195317Y-61143162D01*
X119411441Y-61004090D01*
X119556431Y-60791890D01*
X119607440Y-60540000D01*
X119607440Y-58840000D01*
X119563162Y-58604683D01*
X119424090Y-58388559D01*
X119211890Y-58243569D01*
X118960000Y-58192560D01*
X117260000Y-58192560D01*
X117024683Y-58236838D01*
X116808559Y-58375910D01*
X116663569Y-58588110D01*
X116641699Y-58696107D01*
X116336924Y-58418355D01*
X115926890Y-58248524D01*
X115697000Y-58369845D01*
X115443000Y-58369845D01*
X115213110Y-58248524D01*
X114803076Y-58418355D01*
X114374817Y-58808642D01*
X114128514Y-59333108D01*
X108635000Y-59333108D01*
X108635000Y-56156661D01*
X122427758Y-56156661D01*
X122639990Y-56670303D01*
X123032630Y-57063629D01*
X123545900Y-57276757D01*
X124101661Y-57277242D01*
X124615303Y-57065010D01*
X125008629Y-56672370D01*
X125221757Y-56159100D01*
X125222242Y-55603339D01*
X125010010Y-55089697D01*
X124617370Y-54696371D01*
X124104100Y-54483243D01*
X123548339Y-54482758D01*
X123034697Y-54694990D01*
X122641371Y-55087630D01*
X122428243Y-55600900D01*
X122427758Y-56156661D01*
X108635000Y-56156661D01*
X108635000Y-51076661D01*
X133857758Y-51076661D01*
X134069990Y-51590303D01*
X134462630Y-51983629D01*
X134975900Y-52196757D01*
X135531661Y-52197242D01*
X136045303Y-51985010D01*
X136438629Y-51592370D01*
X136651757Y-51079100D01*
X136652242Y-50523339D01*
X136440010Y-50009697D01*
X136047370Y-49616371D01*
X135534100Y-49403243D01*
X134978339Y-49402758D01*
X134464697Y-49614990D01*
X134071371Y-50007630D01*
X133858243Y-50520900D01*
X133857758Y-51076661D01*
X108635000Y-51076661D01*
X108635000Y-45996661D01*
X133857758Y-45996661D01*
X134069990Y-46510303D01*
X134462630Y-46903629D01*
X134975900Y-47116757D01*
X135531661Y-47117242D01*
X136045303Y-46905010D01*
X136438629Y-46512370D01*
X136651757Y-45999100D01*
X136651759Y-45996661D01*
X145287758Y-45996661D01*
X145499990Y-46510303D01*
X145892630Y-46903629D01*
X146405900Y-47116757D01*
X146961661Y-47117242D01*
X146969037Y-47114195D01*
X153179842Y-53325000D01*
X150320158Y-53325000D01*
X148079557Y-51084399D01*
X148081757Y-51079100D01*
X148082242Y-50523339D01*
X147870010Y-50009697D01*
X147477370Y-49616371D01*
X146964100Y-49403243D01*
X146408339Y-49402758D01*
X145894697Y-49614990D01*
X145501371Y-50007630D01*
X145288243Y-50520900D01*
X145287758Y-51076661D01*
X145499990Y-51590303D01*
X145892630Y-51983629D01*
X146405900Y-52196757D01*
X146961661Y-52197242D01*
X146969037Y-52194195D01*
X149439921Y-54665079D01*
X149694594Y-54835245D01*
X149995000Y-54895000D01*
X156182074Y-54895000D01*
X156186838Y-54920317D01*
X156325910Y-55136441D01*
X156538110Y-55281431D01*
X156790000Y-55332440D01*
X158790000Y-55332440D01*
X159025317Y-55288162D01*
X159241441Y-55149090D01*
X159386431Y-54936890D01*
X159437440Y-54685000D01*
X159437440Y-54467898D01*
X179634619Y-74665076D01*
X179634621Y-74665079D01*
X179889294Y-74835245D01*
X179892560Y-74835895D01*
X179892560Y-74860000D01*
X179936838Y-75095317D01*
X180075910Y-75311441D01*
X180288110Y-75456431D01*
X180540000Y-75507440D01*
X182040000Y-75507440D01*
X182275317Y-75463162D01*
X182491441Y-75324090D01*
X182636431Y-75111890D01*
X182687440Y-74860000D01*
X182687440Y-73360000D01*
X182643162Y-73124683D01*
X182504090Y-72908559D01*
X182291890Y-72763569D01*
X182040000Y-72712560D01*
X180540000Y-72712560D01*
X180304683Y-72756838D01*
X180088559Y-72895910D01*
X180087426Y-72897569D01*
X159819379Y-52629521D01*
X159564707Y-52459355D01*
X159388961Y-52424397D01*
X159437440Y-52185000D01*
X159437440Y-51035000D01*
X159393162Y-50799683D01*
X159254090Y-50583559D01*
X159041890Y-50438569D01*
X159020735Y-50434285D01*
X159904760Y-50434285D01*
X160115169Y-50943515D01*
X160504436Y-51333461D01*
X161013298Y-51544759D01*
X161564285Y-51545240D01*
X162073515Y-51334831D01*
X162463461Y-50945564D01*
X162674759Y-50436702D01*
X162675240Y-49885715D01*
X162464831Y-49376485D01*
X162075564Y-48986539D01*
X161566702Y-48775241D01*
X161015715Y-48774760D01*
X160506485Y-48985169D01*
X160116539Y-49374436D01*
X159905241Y-49883298D01*
X159904760Y-50434285D01*
X159020735Y-50434285D01*
X158790000Y-50387560D01*
X156790000Y-50387560D01*
X156554683Y-50431838D01*
X156338559Y-50570910D01*
X156193569Y-50783110D01*
X156142560Y-51035000D01*
X156142560Y-52185000D01*
X156182940Y-52399600D01*
X154474758Y-52399600D01*
X148079557Y-46004399D01*
X148081757Y-45999100D01*
X148081978Y-45745750D01*
X180905000Y-45745750D01*
X180905000Y-46336309D01*
X181001673Y-46569698D01*
X181180301Y-46748327D01*
X181413690Y-46845000D01*
X182004250Y-46845000D01*
X182163000Y-46686250D01*
X182163000Y-45587000D01*
X181063750Y-45587000D01*
X180905000Y-45745750D01*
X148081978Y-45745750D01*
X148082242Y-45443339D01*
X147870010Y-44929697D01*
X147524608Y-44583691D01*
X180905000Y-44583691D01*
X180905000Y-45174250D01*
X181063750Y-45333000D01*
X182163000Y-45333000D01*
X182163000Y-44233750D01*
X182004250Y-44075000D01*
X181413690Y-44075000D01*
X181180301Y-44171673D01*
X181001673Y-44350302D01*
X180905000Y-44583691D01*
X147524608Y-44583691D01*
X147477370Y-44536371D01*
X146964100Y-44323243D01*
X146408339Y-44322758D01*
X145894697Y-44534990D01*
X145501371Y-44927630D01*
X145288243Y-45440900D01*
X145287758Y-45996661D01*
X136651759Y-45996661D01*
X136652242Y-45443339D01*
X136440010Y-44929697D01*
X136047370Y-44536371D01*
X135534100Y-44323243D01*
X134978339Y-44322758D01*
X134464697Y-44534990D01*
X134071371Y-44927630D01*
X133858243Y-45440900D01*
X133857758Y-45996661D01*
X108635000Y-45996661D01*
X108635000Y-42595000D01*
X183465000Y-42595000D01*
X183465000Y-44236974D01*
X183465000Y-44236974D01*
G37*
X183465000Y-44236974D02*
X183399699Y-44171673D01*
X183166310Y-44075000D01*
X182575750Y-44075000D01*
X182417000Y-44233750D01*
X182417000Y-45333000D01*
X182437000Y-45333000D01*
X182437000Y-45587000D01*
X182417000Y-45587000D01*
X182417000Y-46686250D01*
X182575750Y-46845000D01*
X183166310Y-46845000D01*
X183399699Y-46748327D01*
X183465000Y-46683026D01*
X183465000Y-139015000D01*
X108635000Y-139015000D01*
X108635000Y-135633795D01*
X116474716Y-135633795D01*
X116723106Y-136234943D01*
X117182637Y-136695278D01*
X117783352Y-136944716D01*
X118433795Y-136945284D01*
X119034943Y-136696894D01*
X119495278Y-136237363D01*
X119744716Y-135636648D01*
X119744718Y-135633795D01*
X122974716Y-135633795D01*
X123223106Y-136234943D01*
X123682637Y-136695278D01*
X124283352Y-136944716D01*
X124933795Y-136945284D01*
X125534943Y-136696894D01*
X125995278Y-136237363D01*
X126244716Y-135636648D01*
X126245284Y-134986205D01*
X125996894Y-134385057D01*
X125537363Y-133924722D01*
X124936648Y-133675284D01*
X124286205Y-133674716D01*
X123685057Y-133923106D01*
X123224722Y-134382637D01*
X122975284Y-134983352D01*
X122974716Y-135633795D01*
X119744718Y-135633795D01*
X119745284Y-134986205D01*
X119496894Y-134385057D01*
X119037363Y-133924722D01*
X118436648Y-133675284D01*
X117786205Y-133674716D01*
X117185057Y-133923106D01*
X116724722Y-134382637D01*
X116475284Y-134983352D01*
X116474716Y-135633795D01*
X108635000Y-135633795D01*
X108635000Y-134321930D01*
X113507675Y-134321930D01*
X113575735Y-134562931D01*
X114095034Y-134747767D01*
X114645538Y-134719805D01*
X115024265Y-134562931D01*
X115092325Y-134321930D01*
X114300000Y-133529605D01*
X113507675Y-134321930D01*
X108635000Y-134321930D01*
X108635000Y-133145034D01*
X112902233Y-133145034D01*
X112930195Y-133695538D01*
X113087069Y-134074265D01*
X113328070Y-134142325D01*
X114120395Y-133350000D01*
X114479605Y-133350000D01*
X115271930Y-134142325D01*
X115512931Y-134074265D01*
X115697767Y-133554966D01*
X115669805Y-133004462D01*
X115512931Y-132625735D01*
X115271930Y-132557675D01*
X114479605Y-133350000D01*
X114120395Y-133350000D01*
X113328070Y-132557675D01*
X113087069Y-132625735D01*
X112902233Y-133145034D01*
X108635000Y-133145034D01*
X108635000Y-81556661D01*
X110997758Y-81556661D01*
X111209990Y-82070303D01*
X111602630Y-82463629D01*
X112115900Y-82676757D01*
X112469776Y-82677066D01*
X115905000Y-86112290D01*
X115905000Y-87502560D01*
X115590000Y-87502560D01*
X115354683Y-87546838D01*
X115138559Y-87685910D01*
X114993569Y-87898110D01*
X114942560Y-88150000D01*
X114942560Y-89475150D01*
X113049155Y-91368555D01*
X112846473Y-91671891D01*
X112775300Y-92029700D01*
X112775300Y-122600300D01*
X112846473Y-122958109D01*
X113049155Y-123261445D01*
X113739839Y-123952129D01*
X113685328Y-124083405D01*
X113684674Y-124833305D01*
X113740148Y-124967562D01*
X113638855Y-125068855D01*
X113436173Y-125372191D01*
X113365000Y-125730000D01*
X113365000Y-129785586D01*
X113126056Y-130024113D01*
X112914671Y-130533184D01*
X112914190Y-131084398D01*
X113124686Y-131593837D01*
X113514113Y-131983944D01*
X113729496Y-132073379D01*
X113575735Y-132137069D01*
X113507675Y-132378070D01*
X114300000Y-133170395D01*
X115092325Y-132378070D01*
X115024265Y-132137069D01*
X114858960Y-132078231D01*
X115083837Y-131985314D01*
X115106658Y-131962532D01*
X117137073Y-131962532D01*
X117235736Y-132229387D01*
X117845461Y-132455908D01*
X118495460Y-132431856D01*
X118984264Y-132229387D01*
X119082927Y-131962532D01*
X123637073Y-131962532D01*
X123735736Y-132229387D01*
X124345461Y-132455908D01*
X124995460Y-132431856D01*
X125484264Y-132229387D01*
X125582927Y-131962532D01*
X124610000Y-130989605D01*
X123637073Y-131962532D01*
X119082927Y-131962532D01*
X118110000Y-130989605D01*
X117137073Y-131962532D01*
X115106658Y-131962532D01*
X115473944Y-131595887D01*
X115685329Y-131086816D01*
X115685801Y-130545461D01*
X116464092Y-130545461D01*
X116488144Y-131195460D01*
X116690613Y-131684264D01*
X116957468Y-131782927D01*
X117930395Y-130810000D01*
X118289605Y-130810000D01*
X119262532Y-131782927D01*
X119529387Y-131684264D01*
X119755908Y-131074539D01*
X119736331Y-130545461D01*
X122964092Y-130545461D01*
X122988144Y-131195460D01*
X123190613Y-131684264D01*
X123457468Y-131782927D01*
X124430395Y-130810000D01*
X124789605Y-130810000D01*
X125762532Y-131782927D01*
X126029387Y-131684264D01*
X126255908Y-131074539D01*
X126231856Y-130424540D01*
X126029387Y-129935736D01*
X125762532Y-129837073D01*
X124789605Y-130810000D01*
X124430395Y-130810000D01*
X123457468Y-129837073D01*
X123190613Y-129935736D01*
X122964092Y-130545461D01*
X119736331Y-130545461D01*
X119731856Y-130424540D01*
X119529387Y-129935736D01*
X119262532Y-129837073D01*
X118289605Y-130810000D01*
X117930395Y-130810000D01*
X116957468Y-129837073D01*
X116690613Y-129935736D01*
X116464092Y-130545461D01*
X115685801Y-130545461D01*
X115685810Y-130535602D01*
X115475314Y-130026163D01*
X115235000Y-129785429D01*
X115235000Y-129657468D01*
X117137073Y-129657468D01*
X118110000Y-130630395D01*
X119082927Y-129657468D01*
X123637073Y-129657468D01*
X124610000Y-130630395D01*
X125582927Y-129657468D01*
X125484264Y-129390613D01*
X124874539Y-129164092D01*
X124224540Y-129188144D01*
X123735736Y-129390613D01*
X123637073Y-129657468D01*
X119082927Y-129657468D01*
X118984264Y-129390613D01*
X118374539Y-129164092D01*
X117724540Y-129188144D01*
X117235736Y-129390613D01*
X117137073Y-129657468D01*
X115235000Y-129657468D01*
X115235000Y-126344708D01*
X115943305Y-126345326D01*
X116636372Y-126058957D01*
X117167093Y-125529161D01*
X117454672Y-124836595D01*
X117455326Y-124086695D01*
X117168957Y-123393628D01*
X116985650Y-123210000D01*
X121292560Y-123210000D01*
X121292560Y-125710000D01*
X121336838Y-125945317D01*
X121475910Y-126161441D01*
X121688110Y-126306431D01*
X121940000Y-126357440D01*
X124440000Y-126357440D01*
X124675317Y-126313162D01*
X124891441Y-126174090D01*
X125036431Y-125961890D01*
X125087440Y-125710000D01*
X125087440Y-123210000D01*
X125043162Y-122974683D01*
X124904090Y-122758559D01*
X124691890Y-122613569D01*
X124440000Y-122562560D01*
X121940000Y-122562560D01*
X121704683Y-122606838D01*
X121488559Y-122745910D01*
X121343569Y-122958110D01*
X121292560Y-123210000D01*
X116985650Y-123210000D01*
X116639161Y-122862907D01*
X115946595Y-122575328D01*
X115196695Y-122574674D01*
X115062438Y-122630148D01*
X114645300Y-122213010D01*
X114645300Y-110877079D01*
X115193405Y-111104672D01*
X115943305Y-111105326D01*
X116636372Y-110818957D01*
X116902472Y-110553320D01*
X122036285Y-110553320D01*
X122165533Y-110846123D01*
X122865806Y-111114388D01*
X123615435Y-111094250D01*
X124214467Y-110846123D01*
X124343715Y-110553320D01*
X123190000Y-109399605D01*
X122036285Y-110553320D01*
X116902472Y-110553320D01*
X117167093Y-110289161D01*
X117454672Y-109596595D01*
X117455283Y-108895806D01*
X121295612Y-108895806D01*
X121315750Y-109645435D01*
X121563877Y-110244467D01*
X121856680Y-110373715D01*
X123010395Y-109220000D01*
X123369605Y-109220000D01*
X124523320Y-110373715D01*
X124816123Y-110244467D01*
X125084388Y-109544194D01*
X125064250Y-108794565D01*
X124816123Y-108195533D01*
X124523320Y-108066285D01*
X123369605Y-109220000D01*
X123010395Y-109220000D01*
X121856680Y-108066285D01*
X121563877Y-108195533D01*
X121295612Y-108895806D01*
X117455283Y-108895806D01*
X117455326Y-108846695D01*
X117168957Y-108153628D01*
X116902475Y-107886680D01*
X122036285Y-107886680D01*
X123190000Y-109040395D01*
X124343715Y-107886680D01*
X124214467Y-107593877D01*
X123514194Y-107325612D01*
X122764565Y-107345750D01*
X122165533Y-107593877D01*
X122036285Y-107886680D01*
X116902475Y-107886680D01*
X116639161Y-107622907D01*
X115946595Y-107335328D01*
X115196695Y-107334674D01*
X114645300Y-107562505D01*
X114645300Y-103781661D01*
X124332758Y-103781661D01*
X124544990Y-104295303D01*
X124937630Y-104688629D01*
X125450900Y-104901757D01*
X126006661Y-104902242D01*
X126520303Y-104690010D01*
X126913629Y-104297370D01*
X127126757Y-103784100D01*
X127127242Y-103228339D01*
X127124195Y-103220963D01*
X129885357Y-100459801D01*
X130025000Y-100553108D01*
X130025000Y-102642560D01*
X129960000Y-102642560D01*
X129724683Y-102686838D01*
X129508559Y-102825910D01*
X129363569Y-103038110D01*
X129312560Y-103290000D01*
X129312560Y-104990000D01*
X129356838Y-105225317D01*
X129495910Y-105441441D01*
X129708110Y-105586431D01*
X129960000Y-105637440D01*
X131660000Y-105637440D01*
X131895317Y-105593162D01*
X132111441Y-105454090D01*
X132256431Y-105241890D01*
X132270086Y-105174459D01*
X132299946Y-105219147D01*
X132781715Y-105541054D01*
X133350000Y-105654093D01*
X133918285Y-105541054D01*
X134400054Y-105219147D01*
X134620000Y-104889974D01*
X134839946Y-105219147D01*
X135321715Y-105541054D01*
X135890000Y-105654093D01*
X136458285Y-105541054D01*
X136940054Y-105219147D01*
X137167702Y-104878447D01*
X137234817Y-105021358D01*
X137663076Y-105411645D01*
X138073110Y-105581476D01*
X138303000Y-105460155D01*
X138303000Y-104267000D01*
X138557000Y-104267000D01*
X138557000Y-105460155D01*
X138786890Y-105581476D01*
X139196924Y-105411645D01*
X139625183Y-105021358D01*
X139871486Y-104496892D01*
X139750819Y-104267000D01*
X138557000Y-104267000D01*
X138303000Y-104267000D01*
X138283000Y-104267000D01*
X138283000Y-104013000D01*
X138303000Y-104013000D01*
X138303000Y-102819845D01*
X138557000Y-102819845D01*
X138557000Y-104013000D01*
X139750819Y-104013000D01*
X139871486Y-103783108D01*
X139625183Y-103258642D01*
X139196924Y-102868355D01*
X138786890Y-102698524D01*
X138557000Y-102819845D01*
X138303000Y-102819845D01*
X138073110Y-102698524D01*
X137663076Y-102868355D01*
X137234817Y-103258642D01*
X137167702Y-103401553D01*
X136940054Y-103060853D01*
X136458285Y-102738946D01*
X135890000Y-102625907D01*
X135321715Y-102738946D01*
X134839946Y-103060853D01*
X134620000Y-103390026D01*
X134400054Y-103060853D01*
X134135000Y-102883750D01*
X134135000Y-100553108D01*
X134329746Y-100422983D01*
X134620000Y-99988588D01*
X134910254Y-100422983D01*
X135359765Y-100723337D01*
X135890000Y-100828807D01*
X136420235Y-100723337D01*
X136869746Y-100422983D01*
X137160000Y-99988588D01*
X137450254Y-100422983D01*
X137899765Y-100723337D01*
X138430000Y-100828807D01*
X138960235Y-100723337D01*
X139409746Y-100422983D01*
X139700000Y-99988588D01*
X139990254Y-100422983D01*
X140439765Y-100723337D01*
X140970000Y-100828807D01*
X141500235Y-100723337D01*
X141613700Y-100647522D01*
X141613700Y-102264683D01*
X141478243Y-102590900D01*
X141477758Y-103146661D01*
X141689990Y-103660303D01*
X142082630Y-104053629D01*
X142595900Y-104266757D01*
X143151661Y-104267242D01*
X143665303Y-104055010D01*
X144058629Y-103662370D01*
X144271757Y-103149100D01*
X144272242Y-102593339D01*
X144060010Y-102079697D01*
X143667370Y-101686371D01*
X143183700Y-101485534D01*
X143183700Y-100763902D01*
X143510000Y-100828807D01*
X144040235Y-100723337D01*
X144164100Y-100640573D01*
X144164100Y-102076100D01*
X144223855Y-102376507D01*
X144394021Y-102631179D01*
X149075000Y-107312158D01*
X149075000Y-107547665D01*
X148590000Y-107451193D01*
X148059765Y-107556663D01*
X147610254Y-107857017D01*
X147320000Y-108291412D01*
X147029746Y-107857017D01*
X146580235Y-107556663D01*
X146050000Y-107451193D01*
X145519765Y-107556663D01*
X145070254Y-107857017D01*
X144780000Y-108291412D01*
X144489746Y-107857017D01*
X144040235Y-107556663D01*
X143510000Y-107451193D01*
X142979765Y-107556663D01*
X142530254Y-107857017D01*
X142240000Y-108291412D01*
X141949746Y-107857017D01*
X141500235Y-107556663D01*
X140970000Y-107451193D01*
X140439765Y-107556663D01*
X139990254Y-107857017D01*
X139700000Y-108291412D01*
X139409746Y-107857017D01*
X138960235Y-107556663D01*
X138430000Y-107451193D01*
X137899765Y-107556663D01*
X137450254Y-107857017D01*
X137160000Y-108291412D01*
X136869746Y-107857017D01*
X136420235Y-107556663D01*
X135890000Y-107451193D01*
X135359765Y-107556663D01*
X134910254Y-107857017D01*
X134620000Y-108291412D01*
X134329746Y-107857017D01*
X133880235Y-107556663D01*
X133350000Y-107451193D01*
X132819765Y-107556663D01*
X132370254Y-107857017D01*
X132080000Y-108291412D01*
X131789746Y-107857017D01*
X131340235Y-107556663D01*
X130810000Y-107451193D01*
X130279765Y-107556663D01*
X129830254Y-107857017D01*
X129529900Y-108306528D01*
X129424430Y-108836763D01*
X129424430Y-109603237D01*
X129529900Y-110133472D01*
X129830254Y-110582983D01*
X129875000Y-110612881D01*
X129875000Y-113143977D01*
X129759946Y-113220853D01*
X129438039Y-113702622D01*
X129325000Y-114270907D01*
X129325000Y-114329093D01*
X129438039Y-114897378D01*
X129759946Y-115379147D01*
X130241715Y-115701054D01*
X130810000Y-115814093D01*
X131378285Y-115701054D01*
X131860054Y-115379147D01*
X132080000Y-115049974D01*
X132299946Y-115379147D01*
X132781715Y-115701054D01*
X133350000Y-115814093D01*
X133918285Y-115701054D01*
X134400054Y-115379147D01*
X134620000Y-115049974D01*
X134839946Y-115379147D01*
X135321715Y-115701054D01*
X135890000Y-115814093D01*
X136458285Y-115701054D01*
X136940054Y-115379147D01*
X137160000Y-115049974D01*
X137379946Y-115379147D01*
X137861715Y-115701054D01*
X138430000Y-115814093D01*
X138998285Y-115701054D01*
X139480054Y-115379147D01*
X139700000Y-115049974D01*
X139919946Y-115379147D01*
X140401715Y-115701054D01*
X140970000Y-115814093D01*
X141538285Y-115701054D01*
X142020054Y-115379147D01*
X142240000Y-115049974D01*
X142459946Y-115379147D01*
X142941715Y-115701054D01*
X143510000Y-115814093D01*
X144078285Y-115701054D01*
X144560054Y-115379147D01*
X144780000Y-115049974D01*
X144999946Y-115379147D01*
X145481715Y-115701054D01*
X146050000Y-115814093D01*
X146618285Y-115701054D01*
X147100054Y-115379147D01*
X147320000Y-115049974D01*
X147539946Y-115379147D01*
X148021715Y-115701054D01*
X148590000Y-115814093D01*
X149158285Y-115701054D01*
X149481459Y-115485117D01*
X150103821Y-116107479D01*
X150358493Y-116277645D01*
X150658900Y-116337400D01*
X154132400Y-116337400D01*
X154432807Y-116277645D01*
X154687479Y-116107479D01*
X155313326Y-115481632D01*
X155641715Y-115701054D01*
X156210000Y-115814093D01*
X156778285Y-115701054D01*
X157260054Y-115379147D01*
X157480000Y-115049974D01*
X157699946Y-115379147D01*
X158181715Y-115701054D01*
X158750000Y-115814093D01*
X159318285Y-115701054D01*
X159800054Y-115379147D01*
X160020000Y-115049974D01*
X160239946Y-115379147D01*
X160721715Y-115701054D01*
X161290000Y-115814093D01*
X161858285Y-115701054D01*
X162340054Y-115379147D01*
X162560000Y-115049974D01*
X162779946Y-115379147D01*
X163261715Y-115701054D01*
X163830000Y-115814093D01*
X164261300Y-115728302D01*
X164261300Y-122776984D01*
X163830000Y-122691193D01*
X163299765Y-122796663D01*
X162850254Y-123097017D01*
X162560000Y-123531412D01*
X162269746Y-123097017D01*
X161820235Y-122796663D01*
X161290000Y-122691193D01*
X160759765Y-122796663D01*
X160310254Y-123097017D01*
X160020000Y-123531412D01*
X159729746Y-123097017D01*
X159280235Y-122796663D01*
X158750000Y-122691193D01*
X158219765Y-122796663D01*
X157770254Y-123097017D01*
X157480000Y-123531412D01*
X157189746Y-123097017D01*
X156740235Y-122796663D01*
X156210000Y-122691193D01*
X155679765Y-122796663D01*
X155230254Y-123097017D01*
X154940000Y-123531412D01*
X154649746Y-123097017D01*
X154200235Y-122796663D01*
X153670000Y-122691193D01*
X153139765Y-122796663D01*
X152690254Y-123097017D01*
X152400000Y-123531412D01*
X152109746Y-123097017D01*
X151660235Y-122796663D01*
X151130000Y-122691193D01*
X150599765Y-122796663D01*
X150150254Y-123097017D01*
X149860000Y-123531412D01*
X149569746Y-123097017D01*
X149120235Y-122796663D01*
X148590000Y-122691193D01*
X148059765Y-122796663D01*
X147610254Y-123097017D01*
X147320000Y-123531412D01*
X147029746Y-123097017D01*
X146580235Y-122796663D01*
X146050000Y-122691193D01*
X145519765Y-122796663D01*
X145070254Y-123097017D01*
X144780000Y-123531412D01*
X144489746Y-123097017D01*
X144040235Y-122796663D01*
X143510000Y-122691193D01*
X142979765Y-122796663D01*
X142530254Y-123097017D01*
X142240000Y-123531412D01*
X141949746Y-123097017D01*
X141500235Y-122796663D01*
X140970000Y-122691193D01*
X140439765Y-122796663D01*
X139990254Y-123097017D01*
X139700000Y-123531412D01*
X139409746Y-123097017D01*
X138960235Y-122796663D01*
X138430000Y-122691193D01*
X137899765Y-122796663D01*
X137450254Y-123097017D01*
X137160000Y-123531412D01*
X136869746Y-123097017D01*
X136420235Y-122796663D01*
X135890000Y-122691193D01*
X135359765Y-122796663D01*
X134910254Y-123097017D01*
X134620000Y-123531412D01*
X134329746Y-123097017D01*
X133880235Y-122796663D01*
X133350000Y-122691193D01*
X132819765Y-122796663D01*
X132370254Y-123097017D01*
X132080000Y-123531412D01*
X131789746Y-123097017D01*
X131340235Y-122796663D01*
X130810000Y-122691193D01*
X130279765Y-122796663D01*
X129830254Y-123097017D01*
X129529900Y-123546528D01*
X129424430Y-124076763D01*
X129424430Y-124843237D01*
X129529900Y-125373472D01*
X129830254Y-125822983D01*
X130025000Y-125953108D01*
X130025000Y-128042560D01*
X129960000Y-128042560D01*
X129724683Y-128086838D01*
X129508559Y-128225910D01*
X129363569Y-128438110D01*
X129312560Y-128690000D01*
X129312560Y-130390000D01*
X129356838Y-130625317D01*
X129495910Y-130841441D01*
X129708110Y-130986431D01*
X129960000Y-131037440D01*
X131660000Y-131037440D01*
X131895317Y-130993162D01*
X132111441Y-130854090D01*
X132256431Y-130641890D01*
X132270086Y-130574459D01*
X132299946Y-130619147D01*
X132781715Y-130941054D01*
X133350000Y-131054093D01*
X133918285Y-130941054D01*
X134400054Y-130619147D01*
X134620000Y-130289974D01*
X134839946Y-130619147D01*
X135321715Y-130941054D01*
X135890000Y-131054093D01*
X136458285Y-130941054D01*
X136940054Y-130619147D01*
X137160000Y-130289974D01*
X137379946Y-130619147D01*
X137861715Y-130941054D01*
X138430000Y-131054093D01*
X138998285Y-130941054D01*
X139480054Y-130619147D01*
X139700000Y-130289974D01*
X139919946Y-130619147D01*
X140401715Y-130941054D01*
X140970000Y-131054093D01*
X141538285Y-130941054D01*
X142020054Y-130619147D01*
X142240000Y-130289974D01*
X142459946Y-130619147D01*
X142941715Y-130941054D01*
X143510000Y-131054093D01*
X144078285Y-130941054D01*
X144560054Y-130619147D01*
X144780000Y-130289974D01*
X144999946Y-130619147D01*
X145481715Y-130941054D01*
X146050000Y-131054093D01*
X146618285Y-130941054D01*
X147100054Y-130619147D01*
X147320000Y-130289974D01*
X147539946Y-130619147D01*
X148021715Y-130941054D01*
X148590000Y-131054093D01*
X149158285Y-130941054D01*
X149640054Y-130619147D01*
X149860000Y-130289974D01*
X150079946Y-130619147D01*
X150561715Y-130941054D01*
X151130000Y-131054093D01*
X151698285Y-130941054D01*
X152180054Y-130619147D01*
X152400000Y-130289974D01*
X152619946Y-130619147D01*
X153101715Y-130941054D01*
X153670000Y-131054093D01*
X154238285Y-130941054D01*
X154720054Y-130619147D01*
X154940000Y-130289974D01*
X155159946Y-130619147D01*
X155641715Y-130941054D01*
X156210000Y-131054093D01*
X156778285Y-130941054D01*
X157260054Y-130619147D01*
X157480000Y-130289974D01*
X157699946Y-130619147D01*
X158181715Y-130941054D01*
X158750000Y-131054093D01*
X159318285Y-130941054D01*
X159800054Y-130619147D01*
X160020000Y-130289974D01*
X160239946Y-130619147D01*
X160721715Y-130941054D01*
X161290000Y-131054093D01*
X161858285Y-130941054D01*
X162340054Y-130619147D01*
X162560000Y-130289974D01*
X162779946Y-130619147D01*
X163124963Y-130849679D01*
X161339942Y-132634700D01*
X161290000Y-132634700D01*
X160989594Y-132694455D01*
X160734921Y-132864621D01*
X160564755Y-133119294D01*
X160517835Y-133355174D01*
X160239946Y-133540853D01*
X159918039Y-134022622D01*
X159805000Y-134590907D01*
X159805000Y-134649093D01*
X159918039Y-135217378D01*
X160239946Y-135699147D01*
X160721715Y-136021054D01*
X161290000Y-136134093D01*
X161858285Y-136021054D01*
X162340054Y-135699147D01*
X162367850Y-135657548D01*
X162376838Y-135705317D01*
X162515910Y-135921441D01*
X162728110Y-136066431D01*
X162980000Y-136117440D01*
X164680000Y-136117440D01*
X164915317Y-136073162D01*
X165131441Y-135934090D01*
X165276431Y-135721890D01*
X165327440Y-135470000D01*
X165327440Y-133770000D01*
X165283162Y-133534683D01*
X165144090Y-133318559D01*
X164931890Y-133173569D01*
X164680000Y-133122560D01*
X163072398Y-133122560D01*
X165473326Y-130721632D01*
X165801715Y-130941054D01*
X166370000Y-131054093D01*
X166938285Y-130941054D01*
X167420054Y-130619147D01*
X167640000Y-130289974D01*
X167859946Y-130619147D01*
X168341715Y-130941054D01*
X168910000Y-131054093D01*
X169478285Y-130941054D01*
X169960054Y-130619147D01*
X170180000Y-130289974D01*
X170399946Y-130619147D01*
X170881715Y-130941054D01*
X171450000Y-131054093D01*
X172018285Y-130941054D01*
X172500054Y-130619147D01*
X172720000Y-130289974D01*
X172939946Y-130619147D01*
X173421715Y-130941054D01*
X173990000Y-131054093D01*
X174558285Y-130941054D01*
X175040054Y-130619147D01*
X175260000Y-130289974D01*
X175479946Y-130619147D01*
X175961715Y-130941054D01*
X176530000Y-131054093D01*
X177098285Y-130941054D01*
X177580054Y-130619147D01*
X177800000Y-130289974D01*
X178019946Y-130619147D01*
X178501715Y-130941054D01*
X179070000Y-131054093D01*
X179638285Y-130941054D01*
X180120054Y-130619147D01*
X180441961Y-130137378D01*
X180555000Y-129569093D01*
X180555000Y-129510907D01*
X180441961Y-128942622D01*
X180120054Y-128460853D01*
X179855000Y-128283750D01*
X179855000Y-125953108D01*
X180049746Y-125822983D01*
X180350100Y-125373472D01*
X180455570Y-124843237D01*
X180455570Y-124076763D01*
X180350100Y-123546528D01*
X180049746Y-123097017D01*
X179600235Y-122796663D01*
X179070000Y-122691193D01*
X178539765Y-122796663D01*
X178535000Y-122799847D01*
X178535000Y-115785000D01*
X178784250Y-115785000D01*
X178943000Y-115626250D01*
X178943000Y-114427000D01*
X179197000Y-114427000D01*
X179197000Y-115626250D01*
X179355750Y-115785000D01*
X180046310Y-115785000D01*
X180279699Y-115688327D01*
X180458327Y-115509698D01*
X180555000Y-115276309D01*
X180555000Y-114585750D01*
X180396250Y-114427000D01*
X179197000Y-114427000D01*
X178943000Y-114427000D01*
X178923000Y-114427000D01*
X178923000Y-114173000D01*
X178943000Y-114173000D01*
X178943000Y-112973750D01*
X179197000Y-112973750D01*
X179197000Y-114173000D01*
X180396250Y-114173000D01*
X180555000Y-114014250D01*
X180555000Y-113323691D01*
X180458327Y-113090302D01*
X180279699Y-112911673D01*
X180046310Y-112815000D01*
X179355750Y-112815000D01*
X179197000Y-112973750D01*
X178943000Y-112973750D01*
X178784250Y-112815000D01*
X178535000Y-112815000D01*
X178535000Y-110831621D01*
X178657097Y-110897950D01*
X178728725Y-110912133D01*
X178943000Y-110789479D01*
X178943000Y-109347000D01*
X179197000Y-109347000D01*
X179197000Y-110789479D01*
X179411275Y-110912133D01*
X179482903Y-110897950D01*
X179959944Y-110638798D01*
X180301499Y-110216817D01*
X180455570Y-109696250D01*
X180455570Y-109347000D01*
X179197000Y-109347000D01*
X178943000Y-109347000D01*
X178923000Y-109347000D01*
X178923000Y-109093000D01*
X178943000Y-109093000D01*
X178943000Y-107650521D01*
X179197000Y-107650521D01*
X179197000Y-109093000D01*
X180455570Y-109093000D01*
X180455570Y-108743750D01*
X180301499Y-108223183D01*
X179959944Y-107801202D01*
X179482903Y-107542050D01*
X179411275Y-107527867D01*
X179197000Y-107650521D01*
X178943000Y-107650521D01*
X178728725Y-107527867D01*
X178657097Y-107542050D01*
X178418892Y-107671455D01*
X178305079Y-107501121D01*
X178006900Y-107202942D01*
X178006900Y-106744887D01*
X178155900Y-106806757D01*
X178711661Y-106807242D01*
X179225303Y-106595010D01*
X179618629Y-106202370D01*
X179831757Y-105689100D01*
X179832242Y-105133339D01*
X179620010Y-104619697D01*
X179227370Y-104226371D01*
X178714100Y-104013243D01*
X178415900Y-104012983D01*
X178415900Y-100640573D01*
X178539765Y-100723337D01*
X179070000Y-100828807D01*
X179600235Y-100723337D01*
X180049746Y-100422983D01*
X180350100Y-99973472D01*
X180455570Y-99443237D01*
X180455570Y-98676763D01*
X180350100Y-98146528D01*
X180049746Y-97697017D01*
X179600235Y-97396663D01*
X179070000Y-97291193D01*
X178539765Y-97396663D01*
X178415900Y-97479427D01*
X178415900Y-85400573D01*
X178539765Y-85483337D01*
X179070000Y-85588807D01*
X179600235Y-85483337D01*
X180049746Y-85182983D01*
X180350100Y-84733472D01*
X180455570Y-84203237D01*
X180455570Y-83436763D01*
X180350100Y-82906528D01*
X180049746Y-82457017D01*
X179600235Y-82156663D01*
X179070000Y-82051193D01*
X178539765Y-82156663D01*
X178090254Y-82457017D01*
X177800000Y-82891412D01*
X177509746Y-82457017D01*
X177060235Y-82156663D01*
X176530000Y-82051193D01*
X175999765Y-82156663D01*
X175550254Y-82457017D01*
X175260000Y-82891412D01*
X174969746Y-82457017D01*
X174520235Y-82156663D01*
X173990000Y-82051193D01*
X173459765Y-82156663D01*
X173010254Y-82457017D01*
X172720000Y-82891412D01*
X172429746Y-82457017D01*
X171980235Y-82156663D01*
X171450000Y-82051193D01*
X170919765Y-82156663D01*
X170470254Y-82457017D01*
X170180000Y-82891412D01*
X169889746Y-82457017D01*
X169440235Y-82156663D01*
X168910000Y-82051193D01*
X168379765Y-82156663D01*
X167930254Y-82457017D01*
X167640000Y-82891412D01*
X167349746Y-82457017D01*
X166900235Y-82156663D01*
X166370000Y-82051193D01*
X165839765Y-82156663D01*
X165390254Y-82457017D01*
X165100000Y-82891412D01*
X164809746Y-82457017D01*
X164360235Y-82156663D01*
X163830000Y-82051193D01*
X163299765Y-82156663D01*
X162850254Y-82457017D01*
X162560000Y-82891412D01*
X162269746Y-82457017D01*
X161820235Y-82156663D01*
X161290000Y-82051193D01*
X160805000Y-82147665D01*
X160805000Y-81507440D01*
X160870000Y-81507440D01*
X161105317Y-81463162D01*
X161321441Y-81324090D01*
X161466431Y-81111890D01*
X161517440Y-80860000D01*
X161517440Y-79160000D01*
X161473162Y-78924683D01*
X161334090Y-78708559D01*
X161121890Y-78563569D01*
X160870000Y-78512560D01*
X159170000Y-78512560D01*
X158934683Y-78556838D01*
X158718559Y-78695910D01*
X158573569Y-78908110D01*
X158551699Y-79016107D01*
X158246924Y-78738355D01*
X157836890Y-78568524D01*
X157607000Y-78689845D01*
X157607000Y-79883000D01*
X157627000Y-79883000D01*
X157627000Y-80137000D01*
X157607000Y-80137000D01*
X157607000Y-81330155D01*
X157836890Y-81451476D01*
X158246924Y-81281645D01*
X158549937Y-81005499D01*
X158566838Y-81095317D01*
X158705910Y-81311441D01*
X158918110Y-81456431D01*
X159170000Y-81507440D01*
X159235000Y-81507440D01*
X159235000Y-82147665D01*
X158750000Y-82051193D01*
X158219765Y-82156663D01*
X157770254Y-82457017D01*
X157480000Y-82891412D01*
X157189746Y-82457017D01*
X156740235Y-82156663D01*
X156210000Y-82051193D01*
X155837565Y-82125275D01*
X154079182Y-80366892D01*
X156038514Y-80366892D01*
X156284817Y-80891358D01*
X156713076Y-81281645D01*
X157123110Y-81451476D01*
X157353000Y-81330155D01*
X157353000Y-80137000D01*
X156159181Y-80137000D01*
X156038514Y-80366892D01*
X154079182Y-80366892D01*
X153785515Y-80073225D01*
X153785810Y-79735602D01*
X153751725Y-79653108D01*
X156038514Y-79653108D01*
X156159181Y-79883000D01*
X157353000Y-79883000D01*
X157353000Y-78689845D01*
X157123110Y-78568524D01*
X156713076Y-78738355D01*
X156284817Y-79128642D01*
X156038514Y-79653108D01*
X153751725Y-79653108D01*
X153575314Y-79226163D01*
X153335000Y-78985429D01*
X153335000Y-73045458D01*
X154985821Y-74696279D01*
X155240494Y-74866445D01*
X155540900Y-74926200D01*
X158982600Y-74926200D01*
X159283007Y-74866445D01*
X159537679Y-74696279D01*
X159695479Y-74538479D01*
X159790846Y-74395750D01*
X168405000Y-74395750D01*
X168405000Y-74986309D01*
X168501673Y-75219698D01*
X168680301Y-75398327D01*
X168913690Y-75495000D01*
X169504250Y-75495000D01*
X169663000Y-75336250D01*
X169663000Y-74237000D01*
X169917000Y-74237000D01*
X169917000Y-75336250D01*
X170075750Y-75495000D01*
X170666310Y-75495000D01*
X170899699Y-75398327D01*
X171078327Y-75219698D01*
X171175000Y-74986309D01*
X171175000Y-74395750D01*
X171016250Y-74237000D01*
X169917000Y-74237000D01*
X169663000Y-74237000D01*
X168563750Y-74237000D01*
X168405000Y-74395750D01*
X159790846Y-74395750D01*
X159865645Y-74283806D01*
X159925400Y-73983400D01*
X159925400Y-73233691D01*
X168405000Y-73233691D01*
X168405000Y-73824250D01*
X168563750Y-73983000D01*
X169663000Y-73983000D01*
X169663000Y-72883750D01*
X169917000Y-72883750D01*
X169917000Y-73983000D01*
X171016250Y-73983000D01*
X171175000Y-73824250D01*
X171175000Y-73233691D01*
X171078327Y-73000302D01*
X170899699Y-72821673D01*
X170666310Y-72725000D01*
X170075750Y-72725000D01*
X169917000Y-72883750D01*
X169663000Y-72883750D01*
X169504250Y-72725000D01*
X168913690Y-72725000D01*
X168680301Y-72821673D01*
X168501673Y-73000302D01*
X168405000Y-73233691D01*
X159925400Y-73233691D01*
X159925400Y-70484238D01*
X160115169Y-70943515D01*
X160504436Y-71333461D01*
X161013298Y-71544759D01*
X161564285Y-71545240D01*
X162073515Y-71334831D01*
X162463461Y-70945564D01*
X162674759Y-70436702D01*
X162675240Y-69885715D01*
X162464831Y-69376485D01*
X162075564Y-68986539D01*
X161566702Y-68775241D01*
X161015715Y-68774760D01*
X160506485Y-68985169D01*
X160116539Y-69374436D01*
X159925400Y-69834750D01*
X159925400Y-68282000D01*
X159865645Y-67981594D01*
X159695479Y-67726921D01*
X159695476Y-67726919D01*
X159382491Y-67413934D01*
X159425000Y-67311309D01*
X159425000Y-66895750D01*
X159266250Y-66737000D01*
X157917000Y-66737000D01*
X157917000Y-66757000D01*
X157663000Y-66757000D01*
X157663000Y-66737000D01*
X157643000Y-66737000D01*
X157643000Y-66483000D01*
X157663000Y-66483000D01*
X157663000Y-65558750D01*
X157917000Y-65558750D01*
X157917000Y-66483000D01*
X159266250Y-66483000D01*
X159425000Y-66324250D01*
X159425000Y-65908691D01*
X159328327Y-65675302D01*
X159149699Y-65496673D01*
X158916310Y-65400000D01*
X158075750Y-65400000D01*
X157917000Y-65558750D01*
X157663000Y-65558750D01*
X157504250Y-65400000D01*
X156663690Y-65400000D01*
X156430301Y-65496673D01*
X156405500Y-65521474D01*
X156405500Y-65190822D01*
X156538110Y-65281431D01*
X156790000Y-65332440D01*
X158790000Y-65332440D01*
X159025317Y-65288162D01*
X159241441Y-65149090D01*
X159386431Y-64936890D01*
X159437440Y-64685000D01*
X159437440Y-63535000D01*
X159393162Y-63299683D01*
X159254090Y-63083559D01*
X159041890Y-62938569D01*
X158790000Y-62887560D01*
X156790000Y-62887560D01*
X156554683Y-62931838D01*
X156405500Y-63027835D01*
X156405500Y-62754358D01*
X156443245Y-62716613D01*
X156538110Y-62781431D01*
X156790000Y-62832440D01*
X158790000Y-62832440D01*
X159025317Y-62788162D01*
X159241441Y-62649090D01*
X159386431Y-62436890D01*
X159437440Y-62185000D01*
X159437440Y-61035000D01*
X159393162Y-60799683D01*
X159254090Y-60583559D01*
X159041890Y-60438569D01*
X158790000Y-60387560D01*
X156790000Y-60387560D01*
X156554683Y-60431838D01*
X156338559Y-60570910D01*
X156193569Y-60783110D01*
X156174399Y-60877772D01*
X156139294Y-60884755D01*
X155884621Y-61054921D01*
X155065421Y-61874121D01*
X154895255Y-62128793D01*
X154895255Y-62128794D01*
X154835500Y-62429200D01*
X154835500Y-66702100D01*
X154895255Y-67002507D01*
X155065421Y-67257179D01*
X155998719Y-68190476D01*
X155998721Y-68190479D01*
X156132092Y-68279594D01*
X156139697Y-68284675D01*
X156139294Y-68284755D01*
X155884621Y-68454921D01*
X155714455Y-68709594D01*
X155689406Y-68835524D01*
X155489508Y-69035073D01*
X155346862Y-69378601D01*
X155346684Y-69583226D01*
X146074579Y-60311121D01*
X145819907Y-60140955D01*
X145519500Y-60081200D01*
X137694900Y-60081200D01*
X137694900Y-59395750D01*
X156155000Y-59395750D01*
X156155000Y-59811309D01*
X156251673Y-60044698D01*
X156430301Y-60223327D01*
X156663690Y-60320000D01*
X157504250Y-60320000D01*
X157663000Y-60161250D01*
X157663000Y-59237000D01*
X157917000Y-59237000D01*
X157917000Y-60161250D01*
X158075750Y-60320000D01*
X158916310Y-60320000D01*
X159149699Y-60223327D01*
X159328327Y-60044698D01*
X159425000Y-59811309D01*
X159425000Y-59395750D01*
X159266250Y-59237000D01*
X157917000Y-59237000D01*
X157663000Y-59237000D01*
X156313750Y-59237000D01*
X156155000Y-59395750D01*
X137694900Y-59395750D01*
X137694900Y-58408691D01*
X156155000Y-58408691D01*
X156155000Y-58824250D01*
X156313750Y-58983000D01*
X157663000Y-58983000D01*
X157663000Y-58058750D01*
X157917000Y-58058750D01*
X157917000Y-58983000D01*
X159266250Y-58983000D01*
X159425000Y-58824250D01*
X159425000Y-58408691D01*
X159328327Y-58175302D01*
X159149699Y-57996673D01*
X158916310Y-57900000D01*
X158075750Y-57900000D01*
X157917000Y-58058750D01*
X157663000Y-58058750D01*
X157504250Y-57900000D01*
X156663690Y-57900000D01*
X156430301Y-57996673D01*
X156251673Y-58175302D01*
X156155000Y-58408691D01*
X137694900Y-58408691D01*
X137694900Y-57534900D01*
X137635145Y-57234494D01*
X137635145Y-57234493D01*
X137464979Y-56979821D01*
X136649557Y-56164399D01*
X136651757Y-56159100D01*
X136652242Y-55603339D01*
X136622848Y-55532200D01*
X136975742Y-55532200D01*
X138608621Y-57165079D01*
X138863293Y-57335245D01*
X139163700Y-57395000D01*
X156182074Y-57395000D01*
X156186838Y-57420317D01*
X156325910Y-57636441D01*
X156538110Y-57781431D01*
X156790000Y-57832440D01*
X158790000Y-57832440D01*
X159025317Y-57788162D01*
X159241441Y-57649090D01*
X159386431Y-57436890D01*
X159437440Y-57185000D01*
X159437440Y-56035000D01*
X159393162Y-55799683D01*
X159254090Y-55583559D01*
X159041890Y-55438569D01*
X158790000Y-55387560D01*
X156790000Y-55387560D01*
X156554683Y-55431838D01*
X156338559Y-55570910D01*
X156193569Y-55783110D01*
X156185086Y-55825000D01*
X145536999Y-55825000D01*
X145794698Y-55652811D01*
X146105767Y-55187264D01*
X146215000Y-54638113D01*
X146215000Y-54581887D01*
X146105767Y-54032736D01*
X145794698Y-53567189D01*
X145329151Y-53256120D01*
X144780000Y-53146887D01*
X144230849Y-53256120D01*
X143765302Y-53567189D01*
X143593038Y-53825000D01*
X141147440Y-53825000D01*
X141147440Y-53810000D01*
X141103162Y-53574683D01*
X140964090Y-53358559D01*
X140751890Y-53213569D01*
X140500000Y-53162560D01*
X138900000Y-53162560D01*
X138664683Y-53206838D01*
X138448559Y-53345910D01*
X138303569Y-53558110D01*
X138252560Y-53810000D01*
X138252560Y-54588702D01*
X137855979Y-54192121D01*
X137601307Y-54021955D01*
X137300900Y-53962200D01*
X134804600Y-53962200D01*
X134504193Y-54021955D01*
X134249521Y-54192121D01*
X133581621Y-54860021D01*
X133411455Y-55114693D01*
X133411455Y-55114694D01*
X133351700Y-55415100D01*
X133351700Y-58571700D01*
X133411455Y-58872107D01*
X133581621Y-59126779D01*
X133860443Y-59405601D01*
X133858243Y-59410900D01*
X133857758Y-59966661D01*
X133860806Y-59974037D01*
X132029621Y-61805221D01*
X131859455Y-62059893D01*
X131820026Y-62258113D01*
X131799700Y-62360300D01*
X131799700Y-76958542D01*
X129054521Y-79703721D01*
X128884355Y-79958393D01*
X128884355Y-79958394D01*
X128824600Y-80258800D01*
X128824600Y-99300242D01*
X126014399Y-102110443D01*
X126009100Y-102108243D01*
X125453339Y-102107758D01*
X124939697Y-102319990D01*
X124546371Y-102712630D01*
X124333243Y-103225900D01*
X124332758Y-103781661D01*
X114645300Y-103781661D01*
X114645300Y-92416990D01*
X115053981Y-92008309D01*
X115328625Y-92419343D01*
X115763624Y-92710000D01*
X115328625Y-93000657D01*
X115028395Y-93449983D01*
X114922968Y-93980000D01*
X115028395Y-94510017D01*
X115328625Y-94959343D01*
X115763624Y-95250000D01*
X115328625Y-95540657D01*
X115028395Y-95989983D01*
X114922968Y-96520000D01*
X115028395Y-97050017D01*
X115328625Y-97499343D01*
X115763624Y-97790000D01*
X115328625Y-98080657D01*
X115028395Y-98529983D01*
X114922968Y-99060000D01*
X115028395Y-99590017D01*
X115328625Y-100039343D01*
X115777951Y-100339573D01*
X116307968Y-100445000D01*
X116872032Y-100445000D01*
X117402049Y-100339573D01*
X117851375Y-100039343D01*
X118110000Y-99652283D01*
X118368625Y-100039343D01*
X118817951Y-100339573D01*
X119347968Y-100445000D01*
X119912032Y-100445000D01*
X120442049Y-100339573D01*
X120891375Y-100039343D01*
X121191605Y-99590017D01*
X121297032Y-99060000D01*
X121191605Y-98529983D01*
X120933523Y-98143735D01*
X122191879Y-96885379D01*
X122362045Y-96630706D01*
X122421801Y-96330300D01*
X122421800Y-96330295D01*
X122421800Y-93055213D01*
X124929392Y-93055213D01*
X124998857Y-93297397D01*
X125522302Y-93484144D01*
X126077368Y-93456362D01*
X126461143Y-93297397D01*
X126530608Y-93055213D01*
X125730000Y-92254605D01*
X124929392Y-93055213D01*
X122421800Y-93055213D01*
X122421800Y-91867302D01*
X124320856Y-91867302D01*
X124348638Y-92422368D01*
X124507603Y-92806143D01*
X124749787Y-92875608D01*
X125550395Y-92075000D01*
X125909605Y-92075000D01*
X126710213Y-92875608D01*
X126952397Y-92806143D01*
X127139144Y-92282698D01*
X127111362Y-91727632D01*
X126952397Y-91343857D01*
X126710213Y-91274392D01*
X125909605Y-92075000D01*
X125550395Y-92075000D01*
X124749787Y-91274392D01*
X124507603Y-91343857D01*
X124320856Y-91867302D01*
X122421800Y-91867302D01*
X122421800Y-91094787D01*
X124929392Y-91094787D01*
X125730000Y-91895395D01*
X126530608Y-91094787D01*
X126461143Y-90852603D01*
X125937698Y-90665856D01*
X125382632Y-90693638D01*
X124998857Y-90852603D01*
X124929392Y-91094787D01*
X122421800Y-91094787D01*
X122421800Y-81556661D01*
X122427758Y-81556661D01*
X122639990Y-82070303D01*
X123032630Y-82463629D01*
X123545900Y-82676757D01*
X124101661Y-82677242D01*
X124615303Y-82465010D01*
X125008629Y-82072370D01*
X125221757Y-81559100D01*
X125222242Y-81003339D01*
X125010010Y-80489697D01*
X124617370Y-80096371D01*
X124104100Y-79883243D01*
X123548339Y-79882758D01*
X123034697Y-80094990D01*
X122641371Y-80487630D01*
X122428243Y-81000900D01*
X122427758Y-81556661D01*
X122421800Y-81556661D01*
X122421800Y-79936558D01*
X126801684Y-75556674D01*
X126967290Y-75846324D01*
X127398167Y-76179841D01*
X127923877Y-76323081D01*
X128143000Y-76162386D01*
X128143000Y-75057000D01*
X128397000Y-75057000D01*
X128397000Y-76162386D01*
X128616123Y-76323081D01*
X129141833Y-76179841D01*
X129572710Y-75846324D01*
X129843157Y-75373305D01*
X129861803Y-75271275D01*
X129739149Y-75057000D01*
X128397000Y-75057000D01*
X128143000Y-75057000D01*
X128123000Y-75057000D01*
X128123000Y-74803000D01*
X128143000Y-74803000D01*
X128143000Y-74783000D01*
X128397000Y-74783000D01*
X128397000Y-74803000D01*
X129739149Y-74803000D01*
X129861803Y-74588725D01*
X129843157Y-74486695D01*
X129572710Y-74013676D01*
X129141833Y-73680159D01*
X129088053Y-73665506D01*
X129530688Y-73369746D01*
X129831042Y-72920235D01*
X129936512Y-72390000D01*
X129831042Y-71859765D01*
X129530688Y-71410254D01*
X129096293Y-71120000D01*
X129530688Y-70829746D01*
X129831042Y-70380235D01*
X129936512Y-69850000D01*
X129831042Y-69319765D01*
X129530688Y-68870254D01*
X129081177Y-68569900D01*
X128550942Y-68464430D01*
X127989058Y-68464430D01*
X127458823Y-68569900D01*
X127009312Y-68870254D01*
X126708958Y-69319765D01*
X126603488Y-69850000D01*
X126708958Y-70380235D01*
X127009312Y-70829746D01*
X127443707Y-71120000D01*
X127009312Y-71410254D01*
X126708958Y-71859765D01*
X126603488Y-72390000D01*
X126708958Y-72920235D01*
X126912774Y-73225268D01*
X124547720Y-75590322D01*
X124506031Y-75548561D01*
X124501045Y-75523494D01*
X124330879Y-75268821D01*
X120999532Y-71937474D01*
X121191605Y-71650017D01*
X121297032Y-71120000D01*
X121191605Y-70589983D01*
X121017276Y-70329082D01*
X124380079Y-66966279D01*
X124550245Y-66711606D01*
X124610001Y-66411200D01*
X124610000Y-66411195D01*
X124610000Y-60877201D01*
X124615303Y-60875010D01*
X125008629Y-60482370D01*
X125221757Y-59969100D01*
X125222242Y-59413339D01*
X125010010Y-58899697D01*
X124617370Y-58506371D01*
X124104100Y-58293243D01*
X123548339Y-58292758D01*
X123034697Y-58504990D01*
X122641371Y-58897630D01*
X122428243Y-59410900D01*
X122427758Y-59966661D01*
X122639990Y-60480303D01*
X123032630Y-60873629D01*
X123040000Y-60876689D01*
X123040000Y-66086042D01*
X121145324Y-67980718D01*
X120891375Y-67600657D01*
X120442049Y-67300427D01*
X119912032Y-67195000D01*
X119347968Y-67195000D01*
X118817951Y-67300427D01*
X118368625Y-67600657D01*
X118232593Y-67804243D01*
X118193162Y-67594683D01*
X118054090Y-67378559D01*
X117841890Y-67233569D01*
X117590000Y-67182560D01*
X115590000Y-67182560D01*
X115354683Y-67226838D01*
X115138559Y-67365910D01*
X114993569Y-67578110D01*
X114942560Y-67830000D01*
X114942560Y-69330000D01*
X114986838Y-69565317D01*
X115125910Y-69781441D01*
X115338110Y-69926431D01*
X115576874Y-69974782D01*
X115328625Y-70140657D01*
X115028395Y-70589983D01*
X114922968Y-71120000D01*
X115028395Y-71650017D01*
X115328625Y-72099343D01*
X115763624Y-72390000D01*
X115328625Y-72680657D01*
X115028395Y-73129983D01*
X114922968Y-73660000D01*
X115028395Y-74190017D01*
X115328625Y-74639343D01*
X115777951Y-74939573D01*
X116307968Y-75045000D01*
X116872032Y-75045000D01*
X117402049Y-74939573D01*
X117851375Y-74639343D01*
X118126865Y-74227043D01*
X118327264Y-74576894D01*
X118758279Y-74909964D01*
X119283945Y-75052739D01*
X119503000Y-74891868D01*
X119503000Y-73787000D01*
X119483000Y-73787000D01*
X119483000Y-73533000D01*
X119503000Y-73533000D01*
X119503000Y-73513000D01*
X119757000Y-73513000D01*
X119757000Y-73533000D01*
X119777000Y-73533000D01*
X119777000Y-73787000D01*
X119757000Y-73787000D01*
X119757000Y-74891868D01*
X119976055Y-75052739D01*
X120501721Y-74909964D01*
X120932736Y-74576894D01*
X121109699Y-74267957D01*
X122840922Y-75999180D01*
X122840638Y-76325667D01*
X122982683Y-76669443D01*
X123225429Y-76912613D01*
X121081721Y-79056321D01*
X120911555Y-79310993D01*
X120867284Y-79533555D01*
X120851800Y-79611400D01*
X120851800Y-87920562D01*
X120501721Y-87650036D01*
X119976055Y-87507261D01*
X119757000Y-87668132D01*
X119757000Y-88773000D01*
X119777000Y-88773000D01*
X119777000Y-89027000D01*
X119757000Y-89027000D01*
X119757000Y-89047000D01*
X119503000Y-89047000D01*
X119503000Y-89027000D01*
X119483000Y-89027000D01*
X119483000Y-88773000D01*
X119503000Y-88773000D01*
X119503000Y-87668132D01*
X119283945Y-87507261D01*
X118758279Y-87650036D01*
X118327264Y-87983106D01*
X118236012Y-88142411D01*
X118193162Y-87914683D01*
X118054090Y-87698559D01*
X117841890Y-87553569D01*
X117775000Y-87540023D01*
X117775000Y-85725000D01*
X117703827Y-85367191D01*
X117501145Y-85063855D01*
X113791935Y-81354645D01*
X113792242Y-81003339D01*
X113580010Y-80489697D01*
X113187370Y-80096371D01*
X112674100Y-79883243D01*
X112118339Y-79882758D01*
X111604697Y-80094990D01*
X111211371Y-80487630D01*
X110998243Y-81000900D01*
X110997758Y-81556661D01*
X108635000Y-81556661D01*
X108635000Y-60046892D01*
X114128514Y-60046892D01*
X114374817Y-60571358D01*
X114803076Y-60961645D01*
X115213110Y-61131476D01*
X115443000Y-61010155D01*
X115443000Y-59817000D01*
X114249181Y-59817000D01*
X114128514Y-60046892D01*
X108635000Y-60046892D01*
X108635000Y-59333108D01*
X114128514Y-59333108D01*
X114249181Y-59563000D01*
X115443000Y-59563000D01*
X115443000Y-58369845D01*
X115697000Y-58369845D01*
X115697000Y-59563000D01*
X115717000Y-59563000D01*
X115717000Y-59817000D01*
X115697000Y-59817000D01*
X115697000Y-61010155D01*
X115926890Y-61131476D01*
X116336924Y-60961645D01*
X116639937Y-60685499D01*
X116656838Y-60775317D01*
X116795910Y-60991441D01*
X117008110Y-61136431D01*
X117260000Y-61187440D01*
X118960000Y-61187440D01*
X119195317Y-61143162D01*
X119411441Y-61004090D01*
X119556431Y-60791890D01*
X119607440Y-60540000D01*
X119607440Y-58840000D01*
X119563162Y-58604683D01*
X119424090Y-58388559D01*
X119211890Y-58243569D01*
X118960000Y-58192560D01*
X117260000Y-58192560D01*
X117024683Y-58236838D01*
X116808559Y-58375910D01*
X116663569Y-58588110D01*
X116641699Y-58696107D01*
X116336924Y-58418355D01*
X115926890Y-58248524D01*
X115697000Y-58369845D01*
X115443000Y-58369845D01*
X115213110Y-58248524D01*
X114803076Y-58418355D01*
X114374817Y-58808642D01*
X114128514Y-59333108D01*
X108635000Y-59333108D01*
X108635000Y-56156661D01*
X122427758Y-56156661D01*
X122639990Y-56670303D01*
X123032630Y-57063629D01*
X123545900Y-57276757D01*
X124101661Y-57277242D01*
X124615303Y-57065010D01*
X125008629Y-56672370D01*
X125221757Y-56159100D01*
X125222242Y-55603339D01*
X125010010Y-55089697D01*
X124617370Y-54696371D01*
X124104100Y-54483243D01*
X123548339Y-54482758D01*
X123034697Y-54694990D01*
X122641371Y-55087630D01*
X122428243Y-55600900D01*
X122427758Y-56156661D01*
X108635000Y-56156661D01*
X108635000Y-51076661D01*
X133857758Y-51076661D01*
X134069990Y-51590303D01*
X134462630Y-51983629D01*
X134975900Y-52196757D01*
X135531661Y-52197242D01*
X136045303Y-51985010D01*
X136438629Y-51592370D01*
X136651757Y-51079100D01*
X136652242Y-50523339D01*
X136440010Y-50009697D01*
X136047370Y-49616371D01*
X135534100Y-49403243D01*
X134978339Y-49402758D01*
X134464697Y-49614990D01*
X134071371Y-50007630D01*
X133858243Y-50520900D01*
X133857758Y-51076661D01*
X108635000Y-51076661D01*
X108635000Y-45996661D01*
X133857758Y-45996661D01*
X134069990Y-46510303D01*
X134462630Y-46903629D01*
X134975900Y-47116757D01*
X135531661Y-47117242D01*
X136045303Y-46905010D01*
X136438629Y-46512370D01*
X136651757Y-45999100D01*
X136651759Y-45996661D01*
X145287758Y-45996661D01*
X145499990Y-46510303D01*
X145892630Y-46903629D01*
X146405900Y-47116757D01*
X146961661Y-47117242D01*
X146969037Y-47114195D01*
X153179842Y-53325000D01*
X150320158Y-53325000D01*
X148079557Y-51084399D01*
X148081757Y-51079100D01*
X148082242Y-50523339D01*
X147870010Y-50009697D01*
X147477370Y-49616371D01*
X146964100Y-49403243D01*
X146408339Y-49402758D01*
X145894697Y-49614990D01*
X145501371Y-50007630D01*
X145288243Y-50520900D01*
X145287758Y-51076661D01*
X145499990Y-51590303D01*
X145892630Y-51983629D01*
X146405900Y-52196757D01*
X146961661Y-52197242D01*
X146969037Y-52194195D01*
X149439921Y-54665079D01*
X149694594Y-54835245D01*
X149995000Y-54895000D01*
X156182074Y-54895000D01*
X156186838Y-54920317D01*
X156325910Y-55136441D01*
X156538110Y-55281431D01*
X156790000Y-55332440D01*
X158790000Y-55332440D01*
X159025317Y-55288162D01*
X159241441Y-55149090D01*
X159386431Y-54936890D01*
X159437440Y-54685000D01*
X159437440Y-54467898D01*
X179634619Y-74665076D01*
X179634621Y-74665079D01*
X179889294Y-74835245D01*
X179892560Y-74835895D01*
X179892560Y-74860000D01*
X179936838Y-75095317D01*
X180075910Y-75311441D01*
X180288110Y-75456431D01*
X180540000Y-75507440D01*
X182040000Y-75507440D01*
X182275317Y-75463162D01*
X182491441Y-75324090D01*
X182636431Y-75111890D01*
X182687440Y-74860000D01*
X182687440Y-73360000D01*
X182643162Y-73124683D01*
X182504090Y-72908559D01*
X182291890Y-72763569D01*
X182040000Y-72712560D01*
X180540000Y-72712560D01*
X180304683Y-72756838D01*
X180088559Y-72895910D01*
X180087426Y-72897569D01*
X159819379Y-52629521D01*
X159564707Y-52459355D01*
X159388961Y-52424397D01*
X159437440Y-52185000D01*
X159437440Y-51035000D01*
X159393162Y-50799683D01*
X159254090Y-50583559D01*
X159041890Y-50438569D01*
X159020735Y-50434285D01*
X159904760Y-50434285D01*
X160115169Y-50943515D01*
X160504436Y-51333461D01*
X161013298Y-51544759D01*
X161564285Y-51545240D01*
X162073515Y-51334831D01*
X162463461Y-50945564D01*
X162674759Y-50436702D01*
X162675240Y-49885715D01*
X162464831Y-49376485D01*
X162075564Y-48986539D01*
X161566702Y-48775241D01*
X161015715Y-48774760D01*
X160506485Y-48985169D01*
X160116539Y-49374436D01*
X159905241Y-49883298D01*
X159904760Y-50434285D01*
X159020735Y-50434285D01*
X158790000Y-50387560D01*
X156790000Y-50387560D01*
X156554683Y-50431838D01*
X156338559Y-50570910D01*
X156193569Y-50783110D01*
X156142560Y-51035000D01*
X156142560Y-52185000D01*
X156182940Y-52399600D01*
X154474758Y-52399600D01*
X148079557Y-46004399D01*
X148081757Y-45999100D01*
X148081978Y-45745750D01*
X180905000Y-45745750D01*
X180905000Y-46336309D01*
X181001673Y-46569698D01*
X181180301Y-46748327D01*
X181413690Y-46845000D01*
X182004250Y-46845000D01*
X182163000Y-46686250D01*
X182163000Y-45587000D01*
X181063750Y-45587000D01*
X180905000Y-45745750D01*
X148081978Y-45745750D01*
X148082242Y-45443339D01*
X147870010Y-44929697D01*
X147524608Y-44583691D01*
X180905000Y-44583691D01*
X180905000Y-45174250D01*
X181063750Y-45333000D01*
X182163000Y-45333000D01*
X182163000Y-44233750D01*
X182004250Y-44075000D01*
X181413690Y-44075000D01*
X181180301Y-44171673D01*
X181001673Y-44350302D01*
X180905000Y-44583691D01*
X147524608Y-44583691D01*
X147477370Y-44536371D01*
X146964100Y-44323243D01*
X146408339Y-44322758D01*
X145894697Y-44534990D01*
X145501371Y-44927630D01*
X145288243Y-45440900D01*
X145287758Y-45996661D01*
X136651759Y-45996661D01*
X136652242Y-45443339D01*
X136440010Y-44929697D01*
X136047370Y-44536371D01*
X135534100Y-44323243D01*
X134978339Y-44322758D01*
X134464697Y-44534990D01*
X134071371Y-44927630D01*
X133858243Y-45440900D01*
X133857758Y-45996661D01*
X108635000Y-45996661D01*
X108635000Y-42595000D01*
X183465000Y-42595000D01*
X183465000Y-44236974D01*
G36*
X153414821Y-101970779D02*
X153669493Y-102140945D01*
X153776918Y-102162313D01*
X154305000Y-102690395D01*
X154319143Y-102676253D01*
X154498748Y-102855858D01*
X154484605Y-102870000D01*
X155285213Y-103670608D01*
X155527397Y-103601143D01*
X155571438Y-103477696D01*
X160017521Y-107923779D01*
X160189060Y-108038397D01*
X160020000Y-108291412D01*
X159729746Y-107857017D01*
X159280235Y-107556663D01*
X158750000Y-107451193D01*
X158219765Y-107556663D01*
X157770254Y-107857017D01*
X157480000Y-108291412D01*
X157189746Y-107857017D01*
X156740235Y-107556663D01*
X156210000Y-107451193D01*
X155679765Y-107556663D01*
X155230254Y-107857017D01*
X154940000Y-108291412D01*
X154649746Y-107857017D01*
X154200235Y-107556663D01*
X153670000Y-107451193D01*
X153139765Y-107556663D01*
X153125591Y-107566134D01*
X153124179Y-107564021D01*
X153124176Y-107564019D01*
X150475900Y-104915742D01*
X150475900Y-103850213D01*
X153504392Y-103850213D01*
X153573857Y-104092397D01*
X154097302Y-104279144D01*
X154652368Y-104251362D01*
X155036143Y-104092397D01*
X155105608Y-103850213D01*
X154305000Y-103049605D01*
X153504392Y-103850213D01*
X150475900Y-103850213D01*
X150475900Y-102662302D01*
X152895856Y-102662302D01*
X152923638Y-103217368D01*
X153082603Y-103601143D01*
X153324787Y-103670608D01*
X154125395Y-102870000D01*
X153324787Y-102069392D01*
X153082603Y-102138857D01*
X152895856Y-102662302D01*
X150475900Y-102662302D01*
X150475900Y-100640573D01*
X150599765Y-100723337D01*
X151130000Y-100828807D01*
X151660235Y-100723337D01*
X151964245Y-100520203D01*
X153414821Y-101970779D01*
X153414821Y-101970779D01*
G37*
X153414821Y-101970779D02*
X153669493Y-102140945D01*
X153776918Y-102162313D01*
X154305000Y-102690395D01*
X154319143Y-102676253D01*
X154498748Y-102855858D01*
X154484605Y-102870000D01*
X155285213Y-103670608D01*
X155527397Y-103601143D01*
X155571438Y-103477696D01*
X160017521Y-107923779D01*
X160189060Y-108038397D01*
X160020000Y-108291412D01*
X159729746Y-107857017D01*
X159280235Y-107556663D01*
X158750000Y-107451193D01*
X158219765Y-107556663D01*
X157770254Y-107857017D01*
X157480000Y-108291412D01*
X157189746Y-107857017D01*
X156740235Y-107556663D01*
X156210000Y-107451193D01*
X155679765Y-107556663D01*
X155230254Y-107857017D01*
X154940000Y-108291412D01*
X154649746Y-107857017D01*
X154200235Y-107556663D01*
X153670000Y-107451193D01*
X153139765Y-107556663D01*
X153125591Y-107566134D01*
X153124179Y-107564021D01*
X153124176Y-107564019D01*
X150475900Y-104915742D01*
X150475900Y-103850213D01*
X153504392Y-103850213D01*
X153573857Y-104092397D01*
X154097302Y-104279144D01*
X154652368Y-104251362D01*
X155036143Y-104092397D01*
X155105608Y-103850213D01*
X154305000Y-103049605D01*
X153504392Y-103850213D01*
X150475900Y-103850213D01*
X150475900Y-102662302D01*
X152895856Y-102662302D01*
X152923638Y-103217368D01*
X153082603Y-103601143D01*
X153324787Y-103670608D01*
X154125395Y-102870000D01*
X153324787Y-102069392D01*
X153082603Y-102138857D01*
X152895856Y-102662302D01*
X150475900Y-102662302D01*
X150475900Y-100640573D01*
X150599765Y-100723337D01*
X151130000Y-100828807D01*
X151660235Y-100723337D01*
X151964245Y-100520203D01*
X153414821Y-101970779D01*
G36*
X157469900Y-99973472D02*
X157770254Y-100422983D01*
X158219765Y-100723337D01*
X158750000Y-100828807D01*
X159280235Y-100723337D01*
X159729746Y-100422983D01*
X160020000Y-99988588D01*
X160310254Y-100422983D01*
X160759765Y-100723337D01*
X161290000Y-100828807D01*
X161820235Y-100723337D01*
X162269746Y-100422983D01*
X162560000Y-99988588D01*
X162850254Y-100422983D01*
X163299765Y-100723337D01*
X163830000Y-100828807D01*
X164360235Y-100723337D01*
X164809746Y-100422983D01*
X165100000Y-99988588D01*
X165390254Y-100422983D01*
X165839765Y-100723337D01*
X166370000Y-100828807D01*
X166900235Y-100723337D01*
X167349746Y-100422983D01*
X167640000Y-99988588D01*
X167930254Y-100422983D01*
X168379765Y-100723337D01*
X168910000Y-100828807D01*
X169440235Y-100723337D01*
X169889746Y-100422983D01*
X170180000Y-99988588D01*
X170470254Y-100422983D01*
X170665000Y-100553108D01*
X170665000Y-100658644D01*
X170599299Y-100631362D01*
X170227333Y-100631038D01*
X169883557Y-100773083D01*
X169620308Y-101035873D01*
X169477662Y-101379401D01*
X169477652Y-101390890D01*
X167589421Y-103279121D01*
X167419255Y-103533793D01*
X167393688Y-103662325D01*
X167359500Y-103834200D01*
X167359500Y-104044552D01*
X167284100Y-104013243D01*
X166728339Y-104012758D01*
X166214697Y-104224990D01*
X165821371Y-104617630D01*
X165608243Y-105130900D01*
X165607758Y-105686661D01*
X165610805Y-105694037D01*
X164721142Y-106583700D01*
X160897758Y-106583700D01*
X158119058Y-103805000D01*
X158995586Y-103805000D01*
X159234113Y-104043944D01*
X159743184Y-104255329D01*
X160294398Y-104255810D01*
X160803837Y-104045314D01*
X161007576Y-103841930D01*
X161767675Y-103841930D01*
X161835735Y-104082931D01*
X162355034Y-104267767D01*
X162905538Y-104239805D01*
X163284265Y-104082931D01*
X163352325Y-103841930D01*
X162560000Y-103049605D01*
X161767675Y-103841930D01*
X161007576Y-103841930D01*
X161193944Y-103655887D01*
X161283379Y-103440504D01*
X161347069Y-103594265D01*
X161588070Y-103662325D01*
X162380395Y-102870000D01*
X162739605Y-102870000D01*
X163531930Y-103662325D01*
X163772931Y-103594265D01*
X163957767Y-103074966D01*
X163929805Y-102524462D01*
X163772931Y-102145735D01*
X163531930Y-102077675D01*
X162739605Y-102870000D01*
X162380395Y-102870000D01*
X161588070Y-102077675D01*
X161347069Y-102145735D01*
X161288231Y-102311040D01*
X161195314Y-102086163D01*
X161007549Y-101898070D01*
X161767675Y-101898070D01*
X162560000Y-102690395D01*
X163352325Y-101898070D01*
X163284265Y-101657069D01*
X162764966Y-101472233D01*
X162214462Y-101500195D01*
X161835735Y-101657069D01*
X161767675Y-101898070D01*
X161007549Y-101898070D01*
X160805887Y-101696056D01*
X160296816Y-101484671D01*
X159745602Y-101484190D01*
X159236163Y-101694686D01*
X158995429Y-101935000D01*
X157867290Y-101935000D01*
X156653577Y-100721287D01*
X157099944Y-100478798D01*
X157441499Y-100056817D01*
X157468399Y-99965928D01*
X157469900Y-99973472D01*
X157469900Y-99973472D01*
G37*
X157469900Y-99973472D02*
X157770254Y-100422983D01*
X158219765Y-100723337D01*
X158750000Y-100828807D01*
X159280235Y-100723337D01*
X159729746Y-100422983D01*
X160020000Y-99988588D01*
X160310254Y-100422983D01*
X160759765Y-100723337D01*
X161290000Y-100828807D01*
X161820235Y-100723337D01*
X162269746Y-100422983D01*
X162560000Y-99988588D01*
X162850254Y-100422983D01*
X163299765Y-100723337D01*
X163830000Y-100828807D01*
X164360235Y-100723337D01*
X164809746Y-100422983D01*
X165100000Y-99988588D01*
X165390254Y-100422983D01*
X165839765Y-100723337D01*
X166370000Y-100828807D01*
X166900235Y-100723337D01*
X167349746Y-100422983D01*
X167640000Y-99988588D01*
X167930254Y-100422983D01*
X168379765Y-100723337D01*
X168910000Y-100828807D01*
X169440235Y-100723337D01*
X169889746Y-100422983D01*
X170180000Y-99988588D01*
X170470254Y-100422983D01*
X170665000Y-100553108D01*
X170665000Y-100658644D01*
X170599299Y-100631362D01*
X170227333Y-100631038D01*
X169883557Y-100773083D01*
X169620308Y-101035873D01*
X169477662Y-101379401D01*
X169477652Y-101390890D01*
X167589421Y-103279121D01*
X167419255Y-103533793D01*
X167393688Y-103662325D01*
X167359500Y-103834200D01*
X167359500Y-104044552D01*
X167284100Y-104013243D01*
X166728339Y-104012758D01*
X166214697Y-104224990D01*
X165821371Y-104617630D01*
X165608243Y-105130900D01*
X165607758Y-105686661D01*
X165610805Y-105694037D01*
X164721142Y-106583700D01*
X160897758Y-106583700D01*
X158119058Y-103805000D01*
X158995586Y-103805000D01*
X159234113Y-104043944D01*
X159743184Y-104255329D01*
X160294398Y-104255810D01*
X160803837Y-104045314D01*
X161007576Y-103841930D01*
X161767675Y-103841930D01*
X161835735Y-104082931D01*
X162355034Y-104267767D01*
X162905538Y-104239805D01*
X163284265Y-104082931D01*
X163352325Y-103841930D01*
X162560000Y-103049605D01*
X161767675Y-103841930D01*
X161007576Y-103841930D01*
X161193944Y-103655887D01*
X161283379Y-103440504D01*
X161347069Y-103594265D01*
X161588070Y-103662325D01*
X162380395Y-102870000D01*
X162739605Y-102870000D01*
X163531930Y-103662325D01*
X163772931Y-103594265D01*
X163957767Y-103074966D01*
X163929805Y-102524462D01*
X163772931Y-102145735D01*
X163531930Y-102077675D01*
X162739605Y-102870000D01*
X162380395Y-102870000D01*
X161588070Y-102077675D01*
X161347069Y-102145735D01*
X161288231Y-102311040D01*
X161195314Y-102086163D01*
X161007549Y-101898070D01*
X161767675Y-101898070D01*
X162560000Y-102690395D01*
X163352325Y-101898070D01*
X163284265Y-101657069D01*
X162764966Y-101472233D01*
X162214462Y-101500195D01*
X161835735Y-101657069D01*
X161767675Y-101898070D01*
X161007549Y-101898070D01*
X160805887Y-101696056D01*
X160296816Y-101484671D01*
X159745602Y-101484190D01*
X159236163Y-101694686D01*
X158995429Y-101935000D01*
X157867290Y-101935000D01*
X156653577Y-100721287D01*
X157099944Y-100478798D01*
X157441499Y-100056817D01*
X157468399Y-99965928D01*
X157469900Y-99973472D01*
G36*
X153797000Y-83693000D02*
X153817000Y-83693000D01*
X153817000Y-83947000D01*
X153797000Y-83947000D01*
X153797000Y-85389479D01*
X154011275Y-85512133D01*
X154082903Y-85497950D01*
X154559944Y-85238798D01*
X154901499Y-84816817D01*
X154928399Y-84725928D01*
X154929900Y-84733472D01*
X155230254Y-85182983D01*
X155679765Y-85483337D01*
X156210000Y-85588807D01*
X156740235Y-85483337D01*
X157189746Y-85182983D01*
X157480000Y-84748588D01*
X157770254Y-85182983D01*
X158219765Y-85483337D01*
X158750000Y-85588807D01*
X159280235Y-85483337D01*
X159729746Y-85182983D01*
X160020000Y-84748588D01*
X160310254Y-85182983D01*
X160759765Y-85483337D01*
X161290000Y-85588807D01*
X161820235Y-85483337D01*
X161834409Y-85473866D01*
X161835821Y-85475979D01*
X171935000Y-95575158D01*
X171935000Y-97387665D01*
X171450000Y-97291193D01*
X170919765Y-97396663D01*
X170470254Y-97697017D01*
X170180000Y-98131412D01*
X169889746Y-97697017D01*
X169440235Y-97396663D01*
X168910000Y-97291193D01*
X168379765Y-97396663D01*
X167930254Y-97697017D01*
X167640000Y-98131412D01*
X167349746Y-97697017D01*
X166900235Y-97396663D01*
X166370000Y-97291193D01*
X165839765Y-97396663D01*
X165390254Y-97697017D01*
X165100000Y-98131412D01*
X164809746Y-97697017D01*
X164360235Y-97396663D01*
X163830000Y-97291193D01*
X163299765Y-97396663D01*
X162850254Y-97697017D01*
X162560000Y-98131412D01*
X162269746Y-97697017D01*
X161820235Y-97396663D01*
X161290000Y-97291193D01*
X160759765Y-97396663D01*
X160310254Y-97697017D01*
X160020000Y-98131412D01*
X159729746Y-97697017D01*
X159280235Y-97396663D01*
X158750000Y-97291193D01*
X158219765Y-97396663D01*
X157770254Y-97697017D01*
X157469900Y-98146528D01*
X157468399Y-98154072D01*
X157441499Y-98063183D01*
X157099944Y-97641202D01*
X156622903Y-97382050D01*
X156551275Y-97367867D01*
X156337000Y-97490521D01*
X156337000Y-98933000D01*
X156357000Y-98933000D01*
X156357000Y-99187000D01*
X156337000Y-99187000D01*
X156337000Y-99207000D01*
X156083000Y-99207000D01*
X156083000Y-99187000D01*
X156063000Y-99187000D01*
X156063000Y-98933000D01*
X156083000Y-98933000D01*
X156083000Y-97490521D01*
X155868725Y-97367867D01*
X155797097Y-97382050D01*
X155320056Y-97641202D01*
X154978501Y-98063183D01*
X154951601Y-98154072D01*
X154950100Y-98146528D01*
X154649746Y-97697017D01*
X154200235Y-97396663D01*
X153670000Y-97291193D01*
X153139765Y-97396663D01*
X152690254Y-97697017D01*
X152400000Y-98131412D01*
X152109746Y-97697017D01*
X151660235Y-97396663D01*
X151130000Y-97291193D01*
X150599765Y-97396663D01*
X150475900Y-97479427D01*
X150475900Y-85400573D01*
X150599765Y-85483337D01*
X151130000Y-85588807D01*
X151660235Y-85483337D01*
X152109746Y-85182983D01*
X152410100Y-84733472D01*
X152411601Y-84725928D01*
X152438501Y-84816817D01*
X152780056Y-85238798D01*
X153257097Y-85497950D01*
X153328725Y-85512133D01*
X153543000Y-85389479D01*
X153543000Y-83947000D01*
X153523000Y-83947000D01*
X153523000Y-83693000D01*
X153543000Y-83693000D01*
X153543000Y-83673000D01*
X153797000Y-83673000D01*
X153797000Y-83693000D01*
X153797000Y-83693000D01*
G37*
X153797000Y-83693000D02*
X153817000Y-83693000D01*
X153817000Y-83947000D01*
X153797000Y-83947000D01*
X153797000Y-85389479D01*
X154011275Y-85512133D01*
X154082903Y-85497950D01*
X154559944Y-85238798D01*
X154901499Y-84816817D01*
X154928399Y-84725928D01*
X154929900Y-84733472D01*
X155230254Y-85182983D01*
X155679765Y-85483337D01*
X156210000Y-85588807D01*
X156740235Y-85483337D01*
X157189746Y-85182983D01*
X157480000Y-84748588D01*
X157770254Y-85182983D01*
X158219765Y-85483337D01*
X158750000Y-85588807D01*
X159280235Y-85483337D01*
X159729746Y-85182983D01*
X160020000Y-84748588D01*
X160310254Y-85182983D01*
X160759765Y-85483337D01*
X161290000Y-85588807D01*
X161820235Y-85483337D01*
X161834409Y-85473866D01*
X161835821Y-85475979D01*
X171935000Y-95575158D01*
X171935000Y-97387665D01*
X171450000Y-97291193D01*
X170919765Y-97396663D01*
X170470254Y-97697017D01*
X170180000Y-98131412D01*
X169889746Y-97697017D01*
X169440235Y-97396663D01*
X168910000Y-97291193D01*
X168379765Y-97396663D01*
X167930254Y-97697017D01*
X167640000Y-98131412D01*
X167349746Y-97697017D01*
X166900235Y-97396663D01*
X166370000Y-97291193D01*
X165839765Y-97396663D01*
X165390254Y-97697017D01*
X165100000Y-98131412D01*
X164809746Y-97697017D01*
X164360235Y-97396663D01*
X163830000Y-97291193D01*
X163299765Y-97396663D01*
X162850254Y-97697017D01*
X162560000Y-98131412D01*
X162269746Y-97697017D01*
X161820235Y-97396663D01*
X161290000Y-97291193D01*
X160759765Y-97396663D01*
X160310254Y-97697017D01*
X160020000Y-98131412D01*
X159729746Y-97697017D01*
X159280235Y-97396663D01*
X158750000Y-97291193D01*
X158219765Y-97396663D01*
X157770254Y-97697017D01*
X157469900Y-98146528D01*
X157468399Y-98154072D01*
X157441499Y-98063183D01*
X157099944Y-97641202D01*
X156622903Y-97382050D01*
X156551275Y-97367867D01*
X156337000Y-97490521D01*
X156337000Y-98933000D01*
X156357000Y-98933000D01*
X156357000Y-99187000D01*
X156337000Y-99187000D01*
X156337000Y-99207000D01*
X156083000Y-99207000D01*
X156083000Y-99187000D01*
X156063000Y-99187000D01*
X156063000Y-98933000D01*
X156083000Y-98933000D01*
X156083000Y-97490521D01*
X155868725Y-97367867D01*
X155797097Y-97382050D01*
X155320056Y-97641202D01*
X154978501Y-98063183D01*
X154951601Y-98154072D01*
X154950100Y-98146528D01*
X154649746Y-97697017D01*
X154200235Y-97396663D01*
X153670000Y-97291193D01*
X153139765Y-97396663D01*
X152690254Y-97697017D01*
X152400000Y-98131412D01*
X152109746Y-97697017D01*
X151660235Y-97396663D01*
X151130000Y-97291193D01*
X150599765Y-97396663D01*
X150475900Y-97479427D01*
X150475900Y-85400573D01*
X150599765Y-85483337D01*
X151130000Y-85588807D01*
X151660235Y-85483337D01*
X152109746Y-85182983D01*
X152410100Y-84733472D01*
X152411601Y-84725928D01*
X152438501Y-84816817D01*
X152780056Y-85238798D01*
X153257097Y-85497950D01*
X153328725Y-85512133D01*
X153543000Y-85389479D01*
X153543000Y-83947000D01*
X153523000Y-83947000D01*
X153523000Y-83693000D01*
X153543000Y-83693000D01*
X153543000Y-83673000D01*
X153797000Y-83673000D01*
X153797000Y-83693000D01*
G36*
X151465000Y-72755490D02*
X151465000Y-78985586D01*
X151226056Y-79224113D01*
X151136621Y-79439496D01*
X151072931Y-79285735D01*
X150831930Y-79217675D01*
X150039605Y-80010000D01*
X150831930Y-80802325D01*
X151072931Y-80734265D01*
X151131769Y-80568960D01*
X151224686Y-80793837D01*
X151614113Y-81183944D01*
X152123184Y-81395329D01*
X152463336Y-81395626D01*
X153226423Y-82158713D01*
X152780056Y-82401202D01*
X152438501Y-82823183D01*
X152411601Y-82914072D01*
X152410100Y-82906528D01*
X152109746Y-82457017D01*
X151660235Y-82156663D01*
X151130000Y-82051193D01*
X150599765Y-82156663D01*
X150150254Y-82457017D01*
X149860000Y-82891412D01*
X149569746Y-82457017D01*
X149120235Y-82156663D01*
X148590000Y-82051193D01*
X148274100Y-82114029D01*
X148274100Y-80981930D01*
X149067675Y-80981930D01*
X149135735Y-81222931D01*
X149655034Y-81407767D01*
X150205538Y-81379805D01*
X150584265Y-81222931D01*
X150652325Y-80981930D01*
X149860000Y-80189605D01*
X149067675Y-80981930D01*
X148274100Y-80981930D01*
X148274100Y-79805034D01*
X148462233Y-79805034D01*
X148490195Y-80355538D01*
X148647069Y-80734265D01*
X148888070Y-80802325D01*
X149680395Y-80010000D01*
X148888070Y-79217675D01*
X148647069Y-79285735D01*
X148462233Y-79805034D01*
X148274100Y-79805034D01*
X148274100Y-79038070D01*
X149067675Y-79038070D01*
X149860000Y-79830395D01*
X150652325Y-79038070D01*
X150584265Y-78797069D01*
X150064966Y-78612233D01*
X149514462Y-78640195D01*
X149135735Y-78797069D01*
X149067675Y-79038070D01*
X148274100Y-79038070D01*
X148274100Y-76197200D01*
X148214345Y-75896794D01*
X148044179Y-75642121D01*
X146053026Y-73650968D01*
X146146143Y-73612397D01*
X146215608Y-73370213D01*
X145415000Y-72569605D01*
X145400858Y-72583748D01*
X145221253Y-72404143D01*
X145235395Y-72390000D01*
X145594605Y-72390000D01*
X146395213Y-73190608D01*
X146637397Y-73121143D01*
X146824144Y-72597698D01*
X146796362Y-72042632D01*
X146637397Y-71658857D01*
X146395213Y-71589392D01*
X145594605Y-72390000D01*
X145235395Y-72390000D01*
X144434787Y-71589392D01*
X144192603Y-71658857D01*
X144176147Y-71704983D01*
X144077599Y-71664062D01*
X143705633Y-71663738D01*
X143361857Y-71805783D01*
X143183700Y-71983629D01*
X143183700Y-71409787D01*
X144614392Y-71409787D01*
X145415000Y-72210395D01*
X146215608Y-71409787D01*
X146146143Y-71167603D01*
X145622698Y-70980856D01*
X145067632Y-71008638D01*
X144683857Y-71167603D01*
X144614392Y-71409787D01*
X143183700Y-71409787D01*
X143183700Y-70651458D01*
X145130601Y-68704557D01*
X145135900Y-68706757D01*
X145691661Y-68707242D01*
X146205303Y-68495010D01*
X146598629Y-68102370D01*
X146661198Y-67951688D01*
X151465000Y-72755490D01*
X151465000Y-72755490D01*
G37*
X151465000Y-72755490D02*
X151465000Y-78985586D01*
X151226056Y-79224113D01*
X151136621Y-79439496D01*
X151072931Y-79285735D01*
X150831930Y-79217675D01*
X150039605Y-80010000D01*
X150831930Y-80802325D01*
X151072931Y-80734265D01*
X151131769Y-80568960D01*
X151224686Y-80793837D01*
X151614113Y-81183944D01*
X152123184Y-81395329D01*
X152463336Y-81395626D01*
X153226423Y-82158713D01*
X152780056Y-82401202D01*
X152438501Y-82823183D01*
X152411601Y-82914072D01*
X152410100Y-82906528D01*
X152109746Y-82457017D01*
X151660235Y-82156663D01*
X151130000Y-82051193D01*
X150599765Y-82156663D01*
X150150254Y-82457017D01*
X149860000Y-82891412D01*
X149569746Y-82457017D01*
X149120235Y-82156663D01*
X148590000Y-82051193D01*
X148274100Y-82114029D01*
X148274100Y-80981930D01*
X149067675Y-80981930D01*
X149135735Y-81222931D01*
X149655034Y-81407767D01*
X150205538Y-81379805D01*
X150584265Y-81222931D01*
X150652325Y-80981930D01*
X149860000Y-80189605D01*
X149067675Y-80981930D01*
X148274100Y-80981930D01*
X148274100Y-79805034D01*
X148462233Y-79805034D01*
X148490195Y-80355538D01*
X148647069Y-80734265D01*
X148888070Y-80802325D01*
X149680395Y-80010000D01*
X148888070Y-79217675D01*
X148647069Y-79285735D01*
X148462233Y-79805034D01*
X148274100Y-79805034D01*
X148274100Y-79038070D01*
X149067675Y-79038070D01*
X149860000Y-79830395D01*
X150652325Y-79038070D01*
X150584265Y-78797069D01*
X150064966Y-78612233D01*
X149514462Y-78640195D01*
X149135735Y-78797069D01*
X149067675Y-79038070D01*
X148274100Y-79038070D01*
X148274100Y-76197200D01*
X148214345Y-75896794D01*
X148044179Y-75642121D01*
X146053026Y-73650968D01*
X146146143Y-73612397D01*
X146215608Y-73370213D01*
X145415000Y-72569605D01*
X145400858Y-72583748D01*
X145221253Y-72404143D01*
X145235395Y-72390000D01*
X145594605Y-72390000D01*
X146395213Y-73190608D01*
X146637397Y-73121143D01*
X146824144Y-72597698D01*
X146796362Y-72042632D01*
X146637397Y-71658857D01*
X146395213Y-71589392D01*
X145594605Y-72390000D01*
X145235395Y-72390000D01*
X144434787Y-71589392D01*
X144192603Y-71658857D01*
X144176147Y-71704983D01*
X144077599Y-71664062D01*
X143705633Y-71663738D01*
X143361857Y-71805783D01*
X143183700Y-71983629D01*
X143183700Y-71409787D01*
X144614392Y-71409787D01*
X145415000Y-72210395D01*
X146215608Y-71409787D01*
X146146143Y-71167603D01*
X145622698Y-70980856D01*
X145067632Y-71008638D01*
X144683857Y-71167603D01*
X144614392Y-71409787D01*
X143183700Y-71409787D01*
X143183700Y-70651458D01*
X145130601Y-68704557D01*
X145135900Y-68706757D01*
X145691661Y-68707242D01*
X146205303Y-68495010D01*
X146598629Y-68102370D01*
X146661198Y-67951688D01*
X151465000Y-72755490D01*
M02*
