G04 #@! TF.FileFunction,Copper,L2,Bot,Signal*
%FSLAX46Y46*%
G04 Gerber Fmt 4.6, Leading zero omitted, Abs format (unit mm)*
G04 Created by KiCad (PCBNEW 4.0.7-e2-6376~60~ubuntu17.10.1) date Sun May  6 20:40:39 2018*
%MOMM*%
%LPD*%
G01*
G04 APERTURE LIST*
%ADD10C,0.100000*%
%ADD11C,1.501140*%
%ADD12C,1.300480*%
%ADD13C,1.800860*%
%ADD14R,1.600000X1.600000*%
%ADD15O,1.600000X1.600000*%
%ADD16O,1.501140X2.199640*%
%ADD17R,2.000000X1.500000*%
%ADD18O,2.000000X1.500000*%
%ADD19R,1.700000X1.700000*%
%ADD20O,1.700000X1.700000*%
%ADD21C,1.524000*%
%ADD22O,1.998980X1.501140*%
%ADD23C,2.000000*%
%ADD24R,2.500000X2.500000*%
%ADD25C,2.500000*%
%ADD26C,0.600000*%
%ADD27C,0.300000*%
%ADD28C,0.600000*%
%ADD29C,0.254000*%
G04 APERTURE END LIST*
D10*
D11*
X160020000Y-102870000D03*
X162560000Y-102870000D03*
X156210000Y-80010000D03*
X153670000Y-80010000D03*
X114300000Y-130810000D03*
X114300000Y-133350000D03*
D12*
X174924720Y-48859440D03*
D13*
X174924720Y-73060560D03*
D14*
X144780000Y-62230000D03*
D15*
X144780000Y-54610000D03*
D14*
X139700000Y-54610000D03*
D15*
X139700000Y-62230000D03*
D16*
X130810000Y-99060000D03*
X133350000Y-99060000D03*
X135890000Y-99060000D03*
X138430000Y-99060000D03*
X140970000Y-99060000D03*
X143510000Y-99060000D03*
X146050000Y-99060000D03*
X148590000Y-99060000D03*
X151130000Y-99060000D03*
X153670000Y-99060000D03*
X156210000Y-99060000D03*
X158750000Y-99060000D03*
X161290000Y-99060000D03*
X163830000Y-99060000D03*
X166370000Y-99060000D03*
X168910000Y-99060000D03*
X171450000Y-99060000D03*
X173990000Y-99060000D03*
X176530000Y-99060000D03*
X179070000Y-99060000D03*
X179070000Y-83820000D03*
X176530000Y-83820000D03*
X173990000Y-83820000D03*
X171450000Y-83820000D03*
X168910000Y-83820000D03*
X166370000Y-83820000D03*
X163830000Y-83820000D03*
X161290000Y-83820000D03*
X158750000Y-83820000D03*
X156210000Y-83820000D03*
X153670000Y-83820000D03*
X151130000Y-83820000D03*
X148590000Y-83820000D03*
X146050000Y-83820000D03*
X143510000Y-83820000D03*
X140970000Y-83820000D03*
X138430000Y-83820000D03*
X135890000Y-83820000D03*
X133350000Y-83820000D03*
X130810000Y-83820000D03*
D17*
X116590000Y-68580000D03*
D18*
X119630000Y-68580000D03*
X116590000Y-71120000D03*
X119630000Y-71120000D03*
X116590000Y-73660000D03*
X119630000Y-73660000D03*
D19*
X130810000Y-104140000D03*
D20*
X133350000Y-104140000D03*
X135890000Y-104140000D03*
X138430000Y-104140000D03*
D19*
X118110000Y-59690000D03*
D20*
X115570000Y-59690000D03*
D19*
X163830000Y-134620000D03*
D20*
X161290000Y-134620000D03*
D19*
X160020000Y-80010000D03*
D18*
X116590000Y-99060000D03*
X119630000Y-99060000D03*
X119630000Y-96520000D03*
X116590000Y-96520000D03*
D17*
X116590000Y-88900000D03*
D18*
X119630000Y-88900000D03*
X116590000Y-91440000D03*
X119630000Y-91440000D03*
X116590000Y-93980000D03*
X119630000Y-93980000D03*
D19*
X179070000Y-114300000D03*
D20*
X176530000Y-114300000D03*
X173990000Y-114300000D03*
X171450000Y-114300000D03*
X168910000Y-114300000D03*
X166370000Y-114300000D03*
X163830000Y-114300000D03*
X161290000Y-114300000D03*
X158750000Y-114300000D03*
X156210000Y-114300000D03*
X153670000Y-114300000D03*
X151130000Y-114300000D03*
X148590000Y-114300000D03*
X146050000Y-114300000D03*
X143510000Y-114300000D03*
X140970000Y-114300000D03*
X138430000Y-114300000D03*
X135890000Y-114300000D03*
X133350000Y-114300000D03*
X130810000Y-114300000D03*
D16*
X179070000Y-109220000D03*
X176530000Y-109220000D03*
X173990000Y-109220000D03*
X171450000Y-109220000D03*
X168910000Y-109220000D03*
X166370000Y-109220000D03*
X163830000Y-109220000D03*
X161290000Y-109220000D03*
X158750000Y-109220000D03*
X156210000Y-109220000D03*
X153670000Y-109220000D03*
X151130000Y-109220000D03*
X148590000Y-109220000D03*
X146050000Y-109220000D03*
X143510000Y-109220000D03*
X140970000Y-109220000D03*
X138430000Y-109220000D03*
X135890000Y-109220000D03*
X133350000Y-109220000D03*
X130810000Y-109220000D03*
X130810000Y-124460000D03*
X133350000Y-124460000D03*
X135890000Y-124460000D03*
X138430000Y-124460000D03*
X140970000Y-124460000D03*
X143510000Y-124460000D03*
X146050000Y-124460000D03*
X148590000Y-124460000D03*
X151130000Y-124460000D03*
X153670000Y-124460000D03*
X156210000Y-124460000D03*
X158750000Y-124460000D03*
X161290000Y-124460000D03*
X163830000Y-124460000D03*
X166370000Y-124460000D03*
X168910000Y-124460000D03*
X171450000Y-124460000D03*
X173990000Y-124460000D03*
X176530000Y-124460000D03*
X179070000Y-124460000D03*
D19*
X130810000Y-129540000D03*
D20*
X133350000Y-129540000D03*
X135890000Y-129540000D03*
X138430000Y-129540000D03*
X140970000Y-129540000D03*
X143510000Y-129540000D03*
X146050000Y-129540000D03*
X148590000Y-129540000D03*
X151130000Y-129540000D03*
X153670000Y-129540000D03*
X156210000Y-129540000D03*
X158750000Y-129540000D03*
X161290000Y-129540000D03*
X163830000Y-129540000D03*
X166370000Y-129540000D03*
X168910000Y-129540000D03*
X171450000Y-129540000D03*
X173990000Y-129540000D03*
X176530000Y-129540000D03*
X179070000Y-129540000D03*
D21*
X167005000Y-105410000D03*
X178435000Y-105410000D03*
X135255000Y-45720000D03*
X146685000Y-45720000D03*
X123825000Y-55880000D03*
X135255000Y-55880000D03*
X145415000Y-72390000D03*
X133985000Y-72390000D03*
X125730000Y-92075000D03*
X125730000Y-103505000D03*
X154305000Y-102870000D03*
X142875000Y-102870000D03*
X146685000Y-50800000D03*
X135255000Y-50800000D03*
X135255000Y-59690000D03*
X123825000Y-59690000D03*
X145415000Y-67310000D03*
X133985000Y-67310000D03*
X123825000Y-81280000D03*
X112395000Y-81280000D03*
D22*
X128270000Y-69850000D03*
X128270000Y-72390000D03*
X128270000Y-74930000D03*
D23*
X118110000Y-135310000D03*
X118110000Y-130810000D03*
X124610000Y-135310000D03*
X124610000Y-130810000D03*
D24*
X123190000Y-124460000D03*
D25*
X115570000Y-124460000D03*
X115570000Y-109220000D03*
X123190000Y-109220000D03*
D26*
X147636600Y-70328700D03*
X167887500Y-103072100D03*
X155582600Y-105632500D03*
X156494500Y-96601700D03*
D27*
X140335000Y-72390000D02*
X133985000Y-72390000D01*
X145415000Y-67310000D02*
X140335000Y-72390000D01*
X144831400Y-70328700D02*
X147636600Y-70328700D01*
X141657700Y-73502400D02*
X144831400Y-70328700D01*
X124257500Y-73502400D02*
X141657700Y-73502400D01*
X122975500Y-72220400D02*
X124257500Y-73502400D01*
X115844200Y-72220400D02*
X122975500Y-72220400D01*
X115178900Y-71555100D02*
X115844200Y-72220400D01*
X115178900Y-70653700D02*
X115178900Y-71555100D01*
X116152300Y-69680300D02*
X115178900Y-70653700D01*
X116840000Y-69680300D02*
X116152300Y-69680300D01*
X116840000Y-68580000D02*
X116840000Y-69680300D01*
X139700000Y-54610000D02*
X144780000Y-54610000D01*
X130810000Y-104140000D02*
X130810000Y-99060000D01*
X133350000Y-104140000D02*
X133350000Y-99060000D01*
X134789100Y-98556600D02*
X134789100Y-99060000D01*
X133841900Y-97609400D02*
X134789100Y-98556600D01*
X130347600Y-97609400D02*
X133841900Y-97609400D01*
X125730000Y-102227000D02*
X130347600Y-97609400D01*
X125730000Y-103505000D02*
X125730000Y-102227000D01*
X135890000Y-99060000D02*
X134789100Y-99060000D01*
X117940300Y-70892000D02*
X117940300Y-71120000D01*
X118838100Y-69994200D02*
X117940300Y-70892000D01*
X123629200Y-69994200D02*
X118838100Y-69994200D01*
X124731100Y-71096100D02*
X123629200Y-69994200D01*
X130198900Y-71096100D02*
X124731100Y-71096100D01*
X133985000Y-67310000D02*
X130198900Y-71096100D01*
X116840000Y-71120000D02*
X117940300Y-71120000D01*
X159399700Y-135310000D02*
X160089700Y-134620000D01*
X124610000Y-135310000D02*
X159399700Y-135310000D01*
X161290000Y-134620000D02*
X160089700Y-134620000D01*
X116840000Y-73660000D02*
X116840000Y-74760300D01*
X118110000Y-135310000D02*
X124610000Y-135310000D01*
X113607400Y-77992900D02*
X116840000Y-74760300D01*
X113607400Y-127257700D02*
X113607400Y-77992900D01*
X116028700Y-129679000D02*
X113607400Y-127257700D01*
X116028700Y-133228700D02*
X116028700Y-129679000D01*
X118110000Y-135310000D02*
X116028700Y-133228700D01*
X161290000Y-99060000D02*
X160189100Y-99060000D01*
X117527100Y-111177100D02*
X115570000Y-109220000D01*
X153661900Y-111177100D02*
X117527100Y-111177100D01*
X154932300Y-109906700D02*
X153661900Y-111177100D01*
X154932300Y-104784000D02*
X154932300Y-109906700D01*
X160189100Y-99527200D02*
X154932300Y-104784000D01*
X160189100Y-99060000D02*
X160189100Y-99527200D01*
X176530000Y-114300000D02*
X175329700Y-114300000D01*
X163830000Y-99060000D02*
X163830000Y-100510200D01*
X176530000Y-111074300D02*
X174504600Y-113099700D01*
X176530000Y-109220000D02*
X176530000Y-111074300D01*
X175329700Y-113924800D02*
X174504600Y-113099700D01*
X175329700Y-114300000D02*
X175329700Y-113924800D01*
X162671200Y-101669000D02*
X163830000Y-100510200D01*
X159501300Y-101669000D02*
X162671200Y-101669000D01*
X158794400Y-102375900D02*
X159501300Y-101669000D01*
X158794400Y-103545800D02*
X158794400Y-102375900D01*
X159968900Y-104720300D02*
X158794400Y-103545800D01*
X159968900Y-109820200D02*
X159968900Y-104720300D01*
X163248400Y-113099700D02*
X159968900Y-109820200D01*
X174504600Y-113099700D02*
X163248400Y-113099700D01*
X173990000Y-99060000D02*
X172889100Y-99060000D01*
X167887500Y-103072000D02*
X167887500Y-103072100D01*
X169380500Y-103072000D02*
X167887500Y-103072000D01*
X172889100Y-99563400D02*
X169380500Y-103072000D01*
X172889100Y-99060000D02*
X172889100Y-99563400D01*
X177630900Y-100160900D02*
X177630900Y-99060000D01*
X179673900Y-102203900D02*
X177630900Y-100160900D01*
X179673900Y-105924700D02*
X179673900Y-102203900D01*
X178525800Y-107072800D02*
X179673900Y-105924700D01*
X166527600Y-107072800D02*
X178525800Y-107072800D01*
X164930900Y-108669500D02*
X166527600Y-107072800D01*
X164930900Y-109220000D02*
X164930900Y-108669500D01*
X163830000Y-109220000D02*
X164930900Y-109220000D01*
X176530000Y-99060000D02*
X177630900Y-99060000D01*
X180233000Y-99122100D02*
X180170900Y-99060000D01*
X180233000Y-106073300D02*
X180233000Y-99122100D01*
X178636600Y-107669700D02*
X180233000Y-106073300D01*
X168539400Y-107669700D02*
X178636600Y-107669700D01*
X167640000Y-108569100D02*
X168539400Y-107669700D01*
X167640000Y-109901600D02*
X167640000Y-108569100D01*
X166864600Y-110677000D02*
X167640000Y-109901600D01*
X163297400Y-110677000D02*
X166864600Y-110677000D01*
X162390900Y-109770500D02*
X163297400Y-110677000D01*
X162390900Y-109220000D02*
X162390900Y-109770500D01*
X161290000Y-109220000D02*
X162390900Y-109220000D01*
X179070000Y-99060000D02*
X180170900Y-99060000D01*
X179070000Y-83820000D02*
X177969100Y-83820000D01*
X158750000Y-109220000D02*
X158750000Y-107769800D01*
X177969100Y-84323400D02*
X177969100Y-83820000D01*
X172291500Y-90001000D02*
X177969100Y-84323400D01*
X170942400Y-90001000D02*
X172291500Y-90001000D01*
X162560000Y-98383400D02*
X170942400Y-90001000D01*
X162560000Y-99714300D02*
X162560000Y-98383400D01*
X161280800Y-100993500D02*
X162560000Y-99714300D01*
X159469100Y-100993500D02*
X161280800Y-100993500D01*
X158294000Y-102168600D02*
X159469100Y-100993500D01*
X158294000Y-107313800D02*
X158294000Y-102168600D01*
X158750000Y-107769800D02*
X158294000Y-107313800D01*
X138430000Y-109220000D02*
X139530900Y-109220000D01*
X173990000Y-83820000D02*
X172889100Y-83820000D01*
X139530900Y-109770400D02*
X139530900Y-109220000D01*
X140435000Y-110674500D02*
X139530900Y-109770400D01*
X151616400Y-110674500D02*
X140435000Y-110674500D01*
X152400000Y-109890900D02*
X151616400Y-110674500D01*
X152400000Y-106584300D02*
X152400000Y-109890900D01*
X157550700Y-101433600D02*
X152400000Y-106584300D01*
X157550700Y-98278500D02*
X157550700Y-101433600D01*
X169518600Y-86310600D02*
X157550700Y-98278500D01*
X170901900Y-86310600D02*
X169518600Y-86310600D01*
X172889100Y-84323400D02*
X170901900Y-86310600D01*
X172889100Y-83820000D02*
X172889100Y-84323400D01*
X170349100Y-84323400D02*
X170349100Y-83820000D01*
X168862300Y-85810200D02*
X170349100Y-84323400D01*
X164856000Y-85810200D02*
X168862300Y-85810200D01*
X152329300Y-98336900D02*
X164856000Y-85810200D01*
X152329300Y-104207000D02*
X152329300Y-98336900D01*
X151130000Y-105406300D02*
X152329300Y-104207000D01*
X151130000Y-109220000D02*
X151130000Y-105406300D01*
X171450000Y-83820000D02*
X170349100Y-83820000D01*
X167809100Y-83316600D02*
X167809100Y-83820000D01*
X166856300Y-82363800D02*
X167809100Y-83316600D01*
X160826500Y-82363800D02*
X166856300Y-82363800D01*
X160020000Y-83170300D02*
X160826500Y-82363800D01*
X160020000Y-84491100D02*
X160020000Y-83170300D01*
X158901300Y-85609800D02*
X160020000Y-84491100D01*
X152466800Y-85609800D02*
X158901300Y-85609800D01*
X139700000Y-98376600D02*
X152466800Y-85609800D01*
X139700000Y-99729800D02*
X139700000Y-98376600D01*
X136490100Y-102939700D02*
X139700000Y-99729800D01*
X135890000Y-102939700D02*
X136490100Y-102939700D01*
X135890000Y-104140000D02*
X135890000Y-102939700D01*
X168910000Y-83820000D02*
X167809100Y-83820000D01*
X165269100Y-84311800D02*
X165269100Y-83820000D01*
X157990200Y-91590700D02*
X165269100Y-84311800D01*
X156636600Y-91590700D02*
X157990200Y-91590700D01*
X149860000Y-98367300D02*
X156636600Y-91590700D01*
X149860000Y-105410000D02*
X149860000Y-98367300D01*
X147150900Y-108119100D02*
X149860000Y-105410000D01*
X147150900Y-109220000D02*
X147150900Y-108119100D01*
X146050000Y-109220000D02*
X147150900Y-109220000D01*
X166370000Y-83820000D02*
X165269100Y-83820000D01*
X133350000Y-109220000D02*
X134450900Y-109220000D01*
X163830000Y-83820000D02*
X162729100Y-83820000D01*
X162729100Y-84323400D02*
X162729100Y-83820000D01*
X160618800Y-86433700D02*
X162729100Y-84323400D01*
X154201000Y-86433700D02*
X160618800Y-86433700D01*
X142240200Y-98394500D02*
X154201000Y-86433700D01*
X142240200Y-101588400D02*
X142240200Y-98394500D01*
X140569500Y-103259100D02*
X142240200Y-101588400D01*
X140569500Y-103839600D02*
X140569500Y-103259100D01*
X137008100Y-107401000D02*
X140569500Y-103839600D01*
X135719500Y-107401000D02*
X137008100Y-107401000D01*
X134450900Y-108669600D02*
X135719500Y-107401000D01*
X134450900Y-109220000D02*
X134450900Y-108669600D01*
X155582600Y-107142400D02*
X155582600Y-105632500D01*
X156210000Y-107769800D02*
X155582600Y-107142400D01*
X156210000Y-109220000D02*
X156210000Y-107769800D01*
X142409100Y-84323400D02*
X142409100Y-83820000D01*
X129112100Y-97620400D02*
X142409100Y-84323400D01*
X118903200Y-97620400D02*
X129112100Y-97620400D01*
X117940300Y-96657500D02*
X118903200Y-97620400D01*
X117940300Y-96520000D02*
X117940300Y-96657500D01*
X116840000Y-96520000D02*
X117940300Y-96520000D01*
X143510000Y-83820000D02*
X142409100Y-83820000D01*
X140970000Y-83820000D02*
X139869100Y-83820000D01*
X127672500Y-96520000D02*
X119380000Y-96520000D01*
X139869100Y-84323400D02*
X127672500Y-96520000D01*
X139869100Y-83820000D02*
X139869100Y-84323400D01*
X137329100Y-84323400D02*
X137329100Y-83820000D01*
X127672500Y-93980000D02*
X137329100Y-84323400D01*
X119380000Y-93980000D02*
X127672500Y-93980000D01*
X138430000Y-83820000D02*
X137329100Y-83820000D01*
X134789100Y-84773200D02*
X134789100Y-83820000D01*
X126236900Y-93325400D02*
X134789100Y-84773200D01*
X121018400Y-93325400D02*
X126236900Y-93325400D01*
X120571900Y-92878900D02*
X121018400Y-93325400D01*
X118903900Y-92878900D02*
X120571900Y-92878900D01*
X117940300Y-93842500D02*
X118903900Y-92878900D01*
X117940300Y-93980000D02*
X117940300Y-93842500D01*
X116840000Y-93980000D02*
X117940300Y-93980000D01*
X135890000Y-83820000D02*
X134789100Y-83820000D01*
X119380000Y-91440000D02*
X118279700Y-91440000D01*
X133350000Y-83820000D02*
X132249100Y-83820000D01*
X132249100Y-84323400D02*
X132249100Y-83820000D01*
X130537700Y-86034800D02*
X132249100Y-84323400D01*
X117007100Y-86034800D02*
X130537700Y-86034800D01*
X115139600Y-87902300D02*
X117007100Y-86034800D01*
X115139600Y-89840200D02*
X115139600Y-87902300D01*
X115639100Y-90339700D02*
X115139600Y-89840200D01*
X117317100Y-90339700D02*
X115639100Y-90339700D01*
X118279700Y-91302300D02*
X117317100Y-90339700D01*
X118279700Y-91440000D02*
X118279700Y-91302300D01*
X116840000Y-91440000D02*
X115239700Y-91440000D01*
X118514200Y-83820000D02*
X130810000Y-83820000D01*
X114623100Y-87711100D02*
X118514200Y-83820000D01*
X114623100Y-90823400D02*
X114623100Y-87711100D01*
X115239700Y-91440000D02*
X114623100Y-90823400D01*
X163830000Y-134620000D02*
X163830000Y-129540000D01*
X116212600Y-97959700D02*
X116840000Y-97959700D01*
X114107800Y-95854900D02*
X116212600Y-97959700D01*
X114107800Y-87502000D02*
X114107800Y-95854900D01*
X120329800Y-81280000D02*
X114107800Y-87502000D01*
X123825000Y-81280000D02*
X120329800Y-81280000D01*
X116840000Y-99060000D02*
X116840000Y-97959700D01*
D28*
X119380000Y-68580000D02*
X121230300Y-68580000D01*
X128270000Y-69850000D02*
X128270000Y-69096600D01*
X128270000Y-68580000D02*
X121230300Y-68580000D01*
X128270000Y-69096600D02*
X128270000Y-68580000D01*
X125730000Y-114300000D02*
X115570000Y-124460000D01*
X130810000Y-114300000D02*
X125730000Y-114300000D01*
X118221900Y-87518100D02*
X116840000Y-88900000D01*
X121173100Y-87518100D02*
X118221900Y-87518100D01*
X125730000Y-92075000D02*
X121173100Y-87518100D01*
X177033800Y-104008800D02*
X178435000Y-105410000D01*
X166202100Y-104008800D02*
X177033800Y-104008800D01*
X165966000Y-104244900D02*
X166202100Y-104008800D01*
X161394900Y-104244900D02*
X165966000Y-104244900D01*
X160020000Y-102870000D02*
X161394900Y-104244900D01*
X134620000Y-62230000D02*
X128270000Y-68580000D01*
X139700000Y-62230000D02*
X134620000Y-62230000D01*
X156210000Y-76102100D02*
X156210000Y-80010000D01*
X143738200Y-63630300D02*
X156210000Y-76102100D01*
X142500600Y-63630300D02*
X143738200Y-63630300D01*
X141100300Y-62230000D02*
X142500600Y-63630300D01*
X139700000Y-62230000D02*
X141100300Y-62230000D01*
X156128300Y-96601700D02*
X153670000Y-99060000D01*
X156494500Y-96601700D02*
X156128300Y-96601700D01*
X118029600Y-61220700D02*
X118110000Y-61140300D01*
X118029600Y-67229600D02*
X118029600Y-61220700D01*
X115326800Y-67229600D02*
X118029600Y-67229600D01*
X112395000Y-70161400D02*
X115326800Y-67229600D01*
X112395000Y-81280000D02*
X112395000Y-70161400D01*
X118029700Y-67229700D02*
X119380000Y-67229700D01*
X118029600Y-67229600D02*
X118029700Y-67229700D01*
X119380000Y-68580000D02*
X119380000Y-67229700D01*
X118110000Y-59690000D02*
X118110000Y-61140300D01*
X135994300Y-106575700D02*
X138430000Y-104140000D01*
X125834300Y-106575700D02*
X135994300Y-106575700D01*
X123190000Y-109220000D02*
X125834300Y-106575700D01*
X125095000Y-55880000D02*
X123825000Y-55880000D01*
X135255000Y-45720000D02*
X125095000Y-55880000D01*
X121465300Y-58239700D02*
X123825000Y-55880000D01*
X115570000Y-58239700D02*
X121465300Y-58239700D01*
X115570000Y-59690000D02*
X115570000Y-58239700D01*
X142875000Y-74930000D02*
X145415000Y-72390000D01*
X128270000Y-74930000D02*
X142875000Y-74930000D01*
X153035000Y-80010000D02*
X153670000Y-80010000D01*
X145415000Y-72390000D02*
X153035000Y-80010000D01*
X126589800Y-75010300D02*
X126670100Y-74930000D01*
X119380000Y-75010300D02*
X126589800Y-75010300D01*
X119380000Y-73660000D02*
X119380000Y-75010300D01*
X128270000Y-74930000D02*
X126670100Y-74930000D01*
X118110000Y-130810000D02*
X124610000Y-130810000D01*
X175183900Y-118186100D02*
X179070000Y-114300000D01*
X134824000Y-118186100D02*
X175183900Y-118186100D01*
X124610000Y-128400100D02*
X134824000Y-118186100D01*
X124610000Y-130810000D02*
X124610000Y-128400100D01*
D29*
G36*
X183465000Y-139015000D02*
X108635000Y-139015000D01*
X108635000Y-134321930D01*
X113507675Y-134321930D01*
X113575735Y-134562931D01*
X114095034Y-134747767D01*
X114645538Y-134719805D01*
X115024265Y-134562931D01*
X115092325Y-134321930D01*
X114300000Y-133529605D01*
X113507675Y-134321930D01*
X108635000Y-134321930D01*
X108635000Y-133145034D01*
X112902233Y-133145034D01*
X112930195Y-133695538D01*
X113087069Y-134074265D01*
X113328070Y-134142325D01*
X114120395Y-133350000D01*
X113328070Y-132557675D01*
X113087069Y-132625735D01*
X112902233Y-133145034D01*
X108635000Y-133145034D01*
X108635000Y-81556661D01*
X110997758Y-81556661D01*
X111209990Y-82070303D01*
X111602630Y-82463629D01*
X112115900Y-82676757D01*
X112671661Y-82677242D01*
X112822400Y-82614958D01*
X112822400Y-127257700D01*
X112882155Y-127558107D01*
X113052321Y-127812779D01*
X114726273Y-129486731D01*
X114576816Y-129424671D01*
X114025602Y-129424190D01*
X113516163Y-129634686D01*
X113126056Y-130024113D01*
X112914671Y-130533184D01*
X112914190Y-131084398D01*
X113124686Y-131593837D01*
X113514113Y-131983944D01*
X113729496Y-132073379D01*
X113575735Y-132137069D01*
X113507675Y-132378070D01*
X114300000Y-133170395D01*
X114314143Y-133156253D01*
X114493748Y-133335858D01*
X114479605Y-133350000D01*
X115271930Y-134142325D01*
X115512931Y-134074265D01*
X115578865Y-133889023D01*
X116533352Y-134843510D01*
X116475284Y-134983352D01*
X116474716Y-135633795D01*
X116723106Y-136234943D01*
X117182637Y-136695278D01*
X117783352Y-136944716D01*
X118433795Y-136945284D01*
X119034943Y-136696894D01*
X119495278Y-136237363D01*
X119554392Y-136095000D01*
X123165283Y-136095000D01*
X123223106Y-136234943D01*
X123682637Y-136695278D01*
X124283352Y-136944716D01*
X124933795Y-136945284D01*
X125534943Y-136696894D01*
X125995278Y-136237363D01*
X126054392Y-136095000D01*
X159399700Y-136095000D01*
X159700107Y-136035245D01*
X159954779Y-135865079D01*
X160192187Y-135627671D01*
X160239946Y-135699147D01*
X160721715Y-136021054D01*
X161290000Y-136134093D01*
X161858285Y-136021054D01*
X162340054Y-135699147D01*
X162367850Y-135657548D01*
X162376838Y-135705317D01*
X162515910Y-135921441D01*
X162728110Y-136066431D01*
X162980000Y-136117440D01*
X164680000Y-136117440D01*
X164915317Y-136073162D01*
X165131441Y-135934090D01*
X165276431Y-135721890D01*
X165327440Y-135470000D01*
X165327440Y-133770000D01*
X165283162Y-133534683D01*
X165144090Y-133318559D01*
X164931890Y-133173569D01*
X164680000Y-133122560D01*
X164615000Y-133122560D01*
X164615000Y-130796250D01*
X164880054Y-130619147D01*
X165100000Y-130289974D01*
X165319946Y-130619147D01*
X165801715Y-130941054D01*
X166370000Y-131054093D01*
X166938285Y-130941054D01*
X167420054Y-130619147D01*
X167640000Y-130289974D01*
X167859946Y-130619147D01*
X168341715Y-130941054D01*
X168910000Y-131054093D01*
X169478285Y-130941054D01*
X169960054Y-130619147D01*
X170180000Y-130289974D01*
X170399946Y-130619147D01*
X170881715Y-130941054D01*
X171450000Y-131054093D01*
X172018285Y-130941054D01*
X172500054Y-130619147D01*
X172720000Y-130289974D01*
X172939946Y-130619147D01*
X173421715Y-130941054D01*
X173990000Y-131054093D01*
X174558285Y-130941054D01*
X175040054Y-130619147D01*
X175260000Y-130289974D01*
X175479946Y-130619147D01*
X175961715Y-130941054D01*
X176530000Y-131054093D01*
X177098285Y-130941054D01*
X177580054Y-130619147D01*
X177800000Y-130289974D01*
X178019946Y-130619147D01*
X178501715Y-130941054D01*
X179070000Y-131054093D01*
X179638285Y-130941054D01*
X180120054Y-130619147D01*
X180441961Y-130137378D01*
X180555000Y-129569093D01*
X180555000Y-129510907D01*
X180441961Y-128942622D01*
X180120054Y-128460853D01*
X179638285Y-128138946D01*
X179070000Y-128025907D01*
X178501715Y-128138946D01*
X178019946Y-128460853D01*
X177800000Y-128790026D01*
X177580054Y-128460853D01*
X177098285Y-128138946D01*
X176530000Y-128025907D01*
X175961715Y-128138946D01*
X175479946Y-128460853D01*
X175260000Y-128790026D01*
X175040054Y-128460853D01*
X174558285Y-128138946D01*
X173990000Y-128025907D01*
X173421715Y-128138946D01*
X172939946Y-128460853D01*
X172720000Y-128790026D01*
X172500054Y-128460853D01*
X172018285Y-128138946D01*
X171450000Y-128025907D01*
X170881715Y-128138946D01*
X170399946Y-128460853D01*
X170180000Y-128790026D01*
X169960054Y-128460853D01*
X169478285Y-128138946D01*
X168910000Y-128025907D01*
X168341715Y-128138946D01*
X167859946Y-128460853D01*
X167640000Y-128790026D01*
X167420054Y-128460853D01*
X166938285Y-128138946D01*
X166370000Y-128025907D01*
X165801715Y-128138946D01*
X165319946Y-128460853D01*
X165100000Y-128790026D01*
X164880054Y-128460853D01*
X164398285Y-128138946D01*
X163830000Y-128025907D01*
X163261715Y-128138946D01*
X162779946Y-128460853D01*
X162560000Y-128790026D01*
X162340054Y-128460853D01*
X161858285Y-128138946D01*
X161290000Y-128025907D01*
X160721715Y-128138946D01*
X160239946Y-128460853D01*
X160020000Y-128790026D01*
X159800054Y-128460853D01*
X159318285Y-128138946D01*
X158750000Y-128025907D01*
X158181715Y-128138946D01*
X157699946Y-128460853D01*
X157480000Y-128790026D01*
X157260054Y-128460853D01*
X156778285Y-128138946D01*
X156210000Y-128025907D01*
X155641715Y-128138946D01*
X155159946Y-128460853D01*
X154940000Y-128790026D01*
X154720054Y-128460853D01*
X154238285Y-128138946D01*
X153670000Y-128025907D01*
X153101715Y-128138946D01*
X152619946Y-128460853D01*
X152400000Y-128790026D01*
X152180054Y-128460853D01*
X151698285Y-128138946D01*
X151130000Y-128025907D01*
X150561715Y-128138946D01*
X150079946Y-128460853D01*
X149860000Y-128790026D01*
X149640054Y-128460853D01*
X149158285Y-128138946D01*
X148590000Y-128025907D01*
X148021715Y-128138946D01*
X147539946Y-128460853D01*
X147320000Y-128790026D01*
X147100054Y-128460853D01*
X146618285Y-128138946D01*
X146050000Y-128025907D01*
X145481715Y-128138946D01*
X144999946Y-128460853D01*
X144780000Y-128790026D01*
X144560054Y-128460853D01*
X144078285Y-128138946D01*
X143510000Y-128025907D01*
X142941715Y-128138946D01*
X142459946Y-128460853D01*
X142240000Y-128790026D01*
X142020054Y-128460853D01*
X141538285Y-128138946D01*
X140970000Y-128025907D01*
X140401715Y-128138946D01*
X139919946Y-128460853D01*
X139700000Y-128790026D01*
X139480054Y-128460853D01*
X138998285Y-128138946D01*
X138430000Y-128025907D01*
X137861715Y-128138946D01*
X137379946Y-128460853D01*
X137160000Y-128790026D01*
X136940054Y-128460853D01*
X136458285Y-128138946D01*
X135890000Y-128025907D01*
X135321715Y-128138946D01*
X134839946Y-128460853D01*
X134620000Y-128790026D01*
X134400054Y-128460853D01*
X133918285Y-128138946D01*
X133350000Y-128025907D01*
X132781715Y-128138946D01*
X132299946Y-128460853D01*
X132272150Y-128502452D01*
X132263162Y-128454683D01*
X132124090Y-128238559D01*
X131911890Y-128093569D01*
X131660000Y-128042560D01*
X129960000Y-128042560D01*
X129724683Y-128086838D01*
X129508559Y-128225910D01*
X129363569Y-128438110D01*
X129312560Y-128690000D01*
X129312560Y-130390000D01*
X129356838Y-130625317D01*
X129495910Y-130841441D01*
X129708110Y-130986431D01*
X129960000Y-131037440D01*
X131660000Y-131037440D01*
X131895317Y-130993162D01*
X132111441Y-130854090D01*
X132256431Y-130641890D01*
X132270086Y-130574459D01*
X132299946Y-130619147D01*
X132781715Y-130941054D01*
X133350000Y-131054093D01*
X133918285Y-130941054D01*
X134400054Y-130619147D01*
X134620000Y-130289974D01*
X134839946Y-130619147D01*
X135321715Y-130941054D01*
X135890000Y-131054093D01*
X136458285Y-130941054D01*
X136940054Y-130619147D01*
X137160000Y-130289974D01*
X137379946Y-130619147D01*
X137861715Y-130941054D01*
X138430000Y-131054093D01*
X138998285Y-130941054D01*
X139480054Y-130619147D01*
X139700000Y-130289974D01*
X139919946Y-130619147D01*
X140401715Y-130941054D01*
X140970000Y-131054093D01*
X141538285Y-130941054D01*
X142020054Y-130619147D01*
X142240000Y-130289974D01*
X142459946Y-130619147D01*
X142941715Y-130941054D01*
X143510000Y-131054093D01*
X144078285Y-130941054D01*
X144560054Y-130619147D01*
X144780000Y-130289974D01*
X144999946Y-130619147D01*
X145481715Y-130941054D01*
X146050000Y-131054093D01*
X146618285Y-130941054D01*
X147100054Y-130619147D01*
X147320000Y-130289974D01*
X147539946Y-130619147D01*
X148021715Y-130941054D01*
X148590000Y-131054093D01*
X149158285Y-130941054D01*
X149640054Y-130619147D01*
X149860000Y-130289974D01*
X150079946Y-130619147D01*
X150561715Y-130941054D01*
X151130000Y-131054093D01*
X151698285Y-130941054D01*
X152180054Y-130619147D01*
X152400000Y-130289974D01*
X152619946Y-130619147D01*
X153101715Y-130941054D01*
X153670000Y-131054093D01*
X154238285Y-130941054D01*
X154720054Y-130619147D01*
X154940000Y-130289974D01*
X155159946Y-130619147D01*
X155641715Y-130941054D01*
X156210000Y-131054093D01*
X156778285Y-130941054D01*
X157260054Y-130619147D01*
X157480000Y-130289974D01*
X157699946Y-130619147D01*
X158181715Y-130941054D01*
X158750000Y-131054093D01*
X159318285Y-130941054D01*
X159800054Y-130619147D01*
X160020000Y-130289974D01*
X160239946Y-130619147D01*
X160721715Y-130941054D01*
X161290000Y-131054093D01*
X161858285Y-130941054D01*
X162340054Y-130619147D01*
X162560000Y-130289974D01*
X162779946Y-130619147D01*
X163045000Y-130796250D01*
X163045000Y-133122560D01*
X162980000Y-133122560D01*
X162744683Y-133166838D01*
X162528559Y-133305910D01*
X162383569Y-133518110D01*
X162369914Y-133585541D01*
X162340054Y-133540853D01*
X161858285Y-133218946D01*
X161290000Y-133105907D01*
X160721715Y-133218946D01*
X160239946Y-133540853D01*
X160036307Y-133845621D01*
X159789293Y-133894755D01*
X159534621Y-134064921D01*
X159074542Y-134525000D01*
X126054717Y-134525000D01*
X125996894Y-134385057D01*
X125537363Y-133924722D01*
X124936648Y-133675284D01*
X124286205Y-133674716D01*
X123685057Y-133923106D01*
X123224722Y-134382637D01*
X123165608Y-134525000D01*
X119554717Y-134525000D01*
X119496894Y-134385057D01*
X119037363Y-133924722D01*
X118436648Y-133675284D01*
X117786205Y-133674716D01*
X117643740Y-133733582D01*
X116813700Y-132903542D01*
X116813700Y-131962532D01*
X117137073Y-131962532D01*
X117235736Y-132229387D01*
X117845461Y-132455908D01*
X118495460Y-132431856D01*
X118984264Y-132229387D01*
X119082927Y-131962532D01*
X123637073Y-131962532D01*
X123735736Y-132229387D01*
X124345461Y-132455908D01*
X124995460Y-132431856D01*
X125484264Y-132229387D01*
X125582927Y-131962532D01*
X124610000Y-130989605D01*
X123637073Y-131962532D01*
X119082927Y-131962532D01*
X118110000Y-130989605D01*
X117137073Y-131962532D01*
X116813700Y-131962532D01*
X116813700Y-131729772D01*
X116957468Y-131782927D01*
X117930395Y-130810000D01*
X118289605Y-130810000D01*
X119262532Y-131782927D01*
X119529387Y-131684264D01*
X119755908Y-131074539D01*
X119736331Y-130545461D01*
X122964092Y-130545461D01*
X122988144Y-131195460D01*
X123190613Y-131684264D01*
X123457468Y-131782927D01*
X124430395Y-130810000D01*
X124789605Y-130810000D01*
X125762532Y-131782927D01*
X126029387Y-131684264D01*
X126255908Y-131074539D01*
X126231856Y-130424540D01*
X126029387Y-129935736D01*
X125762532Y-129837073D01*
X124789605Y-130810000D01*
X124430395Y-130810000D01*
X123457468Y-129837073D01*
X123190613Y-129935736D01*
X122964092Y-130545461D01*
X119736331Y-130545461D01*
X119731856Y-130424540D01*
X119529387Y-129935736D01*
X119262532Y-129837073D01*
X118289605Y-130810000D01*
X117930395Y-130810000D01*
X116957468Y-129837073D01*
X116813700Y-129890228D01*
X116813700Y-129679000D01*
X116809417Y-129657468D01*
X117137073Y-129657468D01*
X118110000Y-130630395D01*
X119082927Y-129657468D01*
X123637073Y-129657468D01*
X124610000Y-130630395D01*
X125582927Y-129657468D01*
X125484264Y-129390613D01*
X124874539Y-129164092D01*
X124224540Y-129188144D01*
X123735736Y-129390613D01*
X123637073Y-129657468D01*
X119082927Y-129657468D01*
X118984264Y-129390613D01*
X118374539Y-129164092D01*
X117724540Y-129188144D01*
X117235736Y-129390613D01*
X117137073Y-129657468D01*
X116809417Y-129657468D01*
X116780264Y-129510907D01*
X116753945Y-129378593D01*
X116583779Y-129123921D01*
X114392400Y-126932542D01*
X114392400Y-125948465D01*
X114500839Y-126057093D01*
X115193405Y-126344672D01*
X115943305Y-126345326D01*
X116636372Y-126058957D01*
X117167093Y-125529161D01*
X117454672Y-124836595D01*
X117455326Y-124086695D01*
X117399852Y-123952438D01*
X118142290Y-123210000D01*
X121292560Y-123210000D01*
X121292560Y-125710000D01*
X121336838Y-125945317D01*
X121475910Y-126161441D01*
X121688110Y-126306431D01*
X121940000Y-126357440D01*
X124440000Y-126357440D01*
X124675317Y-126313162D01*
X124891441Y-126174090D01*
X125036431Y-125961890D01*
X125087440Y-125710000D01*
X125087440Y-124076763D01*
X129424430Y-124076763D01*
X129424430Y-124843237D01*
X129529900Y-125373472D01*
X129830254Y-125822983D01*
X130279765Y-126123337D01*
X130810000Y-126228807D01*
X131340235Y-126123337D01*
X131789746Y-125822983D01*
X132080000Y-125388588D01*
X132370254Y-125822983D01*
X132819765Y-126123337D01*
X133350000Y-126228807D01*
X133880235Y-126123337D01*
X134329746Y-125822983D01*
X134620000Y-125388588D01*
X134910254Y-125822983D01*
X135359765Y-126123337D01*
X135890000Y-126228807D01*
X136420235Y-126123337D01*
X136869746Y-125822983D01*
X137160000Y-125388588D01*
X137450254Y-125822983D01*
X137899765Y-126123337D01*
X138430000Y-126228807D01*
X138960235Y-126123337D01*
X139409746Y-125822983D01*
X139700000Y-125388588D01*
X139990254Y-125822983D01*
X140439765Y-126123337D01*
X140970000Y-126228807D01*
X141500235Y-126123337D01*
X141949746Y-125822983D01*
X142240000Y-125388588D01*
X142530254Y-125822983D01*
X142979765Y-126123337D01*
X143510000Y-126228807D01*
X144040235Y-126123337D01*
X144489746Y-125822983D01*
X144780000Y-125388588D01*
X145070254Y-125822983D01*
X145519765Y-126123337D01*
X146050000Y-126228807D01*
X146580235Y-126123337D01*
X147029746Y-125822983D01*
X147320000Y-125388588D01*
X147610254Y-125822983D01*
X148059765Y-126123337D01*
X148590000Y-126228807D01*
X149120235Y-126123337D01*
X149569746Y-125822983D01*
X149860000Y-125388588D01*
X150150254Y-125822983D01*
X150599765Y-126123337D01*
X151130000Y-126228807D01*
X151660235Y-126123337D01*
X152109746Y-125822983D01*
X152400000Y-125388588D01*
X152690254Y-125822983D01*
X153139765Y-126123337D01*
X153670000Y-126228807D01*
X154200235Y-126123337D01*
X154649746Y-125822983D01*
X154940000Y-125388588D01*
X155230254Y-125822983D01*
X155679765Y-126123337D01*
X156210000Y-126228807D01*
X156740235Y-126123337D01*
X157189746Y-125822983D01*
X157480000Y-125388588D01*
X157770254Y-125822983D01*
X158219765Y-126123337D01*
X158750000Y-126228807D01*
X159280235Y-126123337D01*
X159729746Y-125822983D01*
X160020000Y-125388588D01*
X160310254Y-125822983D01*
X160759765Y-126123337D01*
X161290000Y-126228807D01*
X161820235Y-126123337D01*
X162269746Y-125822983D01*
X162560000Y-125388588D01*
X162850254Y-125822983D01*
X163299765Y-126123337D01*
X163830000Y-126228807D01*
X164360235Y-126123337D01*
X164809746Y-125822983D01*
X165100000Y-125388588D01*
X165390254Y-125822983D01*
X165839765Y-126123337D01*
X166370000Y-126228807D01*
X166900235Y-126123337D01*
X167349746Y-125822983D01*
X167640000Y-125388588D01*
X167930254Y-125822983D01*
X168379765Y-126123337D01*
X168910000Y-126228807D01*
X169440235Y-126123337D01*
X169889746Y-125822983D01*
X170180000Y-125388588D01*
X170470254Y-125822983D01*
X170919765Y-126123337D01*
X171450000Y-126228807D01*
X171980235Y-126123337D01*
X172429746Y-125822983D01*
X172720000Y-125388588D01*
X173010254Y-125822983D01*
X173459765Y-126123337D01*
X173990000Y-126228807D01*
X174520235Y-126123337D01*
X174969746Y-125822983D01*
X175260000Y-125388588D01*
X175550254Y-125822983D01*
X175999765Y-126123337D01*
X176530000Y-126228807D01*
X177060235Y-126123337D01*
X177509746Y-125822983D01*
X177800000Y-125388588D01*
X178090254Y-125822983D01*
X178539765Y-126123337D01*
X179070000Y-126228807D01*
X179600235Y-126123337D01*
X180049746Y-125822983D01*
X180350100Y-125373472D01*
X180455570Y-124843237D01*
X180455570Y-124076763D01*
X180350100Y-123546528D01*
X180049746Y-123097017D01*
X179600235Y-122796663D01*
X179070000Y-122691193D01*
X178539765Y-122796663D01*
X178090254Y-123097017D01*
X177800000Y-123531412D01*
X177509746Y-123097017D01*
X177060235Y-122796663D01*
X176530000Y-122691193D01*
X175999765Y-122796663D01*
X175550254Y-123097017D01*
X175260000Y-123531412D01*
X174969746Y-123097017D01*
X174520235Y-122796663D01*
X173990000Y-122691193D01*
X173459765Y-122796663D01*
X173010254Y-123097017D01*
X172720000Y-123531412D01*
X172429746Y-123097017D01*
X171980235Y-122796663D01*
X171450000Y-122691193D01*
X170919765Y-122796663D01*
X170470254Y-123097017D01*
X170180000Y-123531412D01*
X169889746Y-123097017D01*
X169440235Y-122796663D01*
X168910000Y-122691193D01*
X168379765Y-122796663D01*
X167930254Y-123097017D01*
X167640000Y-123531412D01*
X167349746Y-123097017D01*
X166900235Y-122796663D01*
X166370000Y-122691193D01*
X165839765Y-122796663D01*
X165390254Y-123097017D01*
X165100000Y-123531412D01*
X164809746Y-123097017D01*
X164360235Y-122796663D01*
X163830000Y-122691193D01*
X163299765Y-122796663D01*
X162850254Y-123097017D01*
X162560000Y-123531412D01*
X162269746Y-123097017D01*
X161820235Y-122796663D01*
X161290000Y-122691193D01*
X160759765Y-122796663D01*
X160310254Y-123097017D01*
X160020000Y-123531412D01*
X159729746Y-123097017D01*
X159280235Y-122796663D01*
X158750000Y-122691193D01*
X158219765Y-122796663D01*
X157770254Y-123097017D01*
X157480000Y-123531412D01*
X157189746Y-123097017D01*
X156740235Y-122796663D01*
X156210000Y-122691193D01*
X155679765Y-122796663D01*
X155230254Y-123097017D01*
X154940000Y-123531412D01*
X154649746Y-123097017D01*
X154200235Y-122796663D01*
X153670000Y-122691193D01*
X153139765Y-122796663D01*
X152690254Y-123097017D01*
X152400000Y-123531412D01*
X152109746Y-123097017D01*
X151660235Y-122796663D01*
X151130000Y-122691193D01*
X150599765Y-122796663D01*
X150150254Y-123097017D01*
X149860000Y-123531412D01*
X149569746Y-123097017D01*
X149120235Y-122796663D01*
X148590000Y-122691193D01*
X148059765Y-122796663D01*
X147610254Y-123097017D01*
X147320000Y-123531412D01*
X147029746Y-123097017D01*
X146580235Y-122796663D01*
X146050000Y-122691193D01*
X145519765Y-122796663D01*
X145070254Y-123097017D01*
X144780000Y-123531412D01*
X144489746Y-123097017D01*
X144040235Y-122796663D01*
X143510000Y-122691193D01*
X142979765Y-122796663D01*
X142530254Y-123097017D01*
X142240000Y-123531412D01*
X141949746Y-123097017D01*
X141500235Y-122796663D01*
X140970000Y-122691193D01*
X140439765Y-122796663D01*
X139990254Y-123097017D01*
X139700000Y-123531412D01*
X139409746Y-123097017D01*
X138960235Y-122796663D01*
X138430000Y-122691193D01*
X137899765Y-122796663D01*
X137450254Y-123097017D01*
X137160000Y-123531412D01*
X136869746Y-123097017D01*
X136420235Y-122796663D01*
X135890000Y-122691193D01*
X135359765Y-122796663D01*
X134910254Y-123097017D01*
X134620000Y-123531412D01*
X134329746Y-123097017D01*
X133880235Y-122796663D01*
X133350000Y-122691193D01*
X132819765Y-122796663D01*
X132370254Y-123097017D01*
X132080000Y-123531412D01*
X131789746Y-123097017D01*
X131340235Y-122796663D01*
X130810000Y-122691193D01*
X130279765Y-122796663D01*
X129830254Y-123097017D01*
X129529900Y-123546528D01*
X129424430Y-124076763D01*
X125087440Y-124076763D01*
X125087440Y-123210000D01*
X125043162Y-122974683D01*
X124904090Y-122758559D01*
X124691890Y-122613569D01*
X124440000Y-122562560D01*
X121940000Y-122562560D01*
X121704683Y-122606838D01*
X121488559Y-122745910D01*
X121343569Y-122958110D01*
X121292560Y-123210000D01*
X118142290Y-123210000D01*
X126117290Y-115235000D01*
X129663630Y-115235000D01*
X129759946Y-115379147D01*
X130241715Y-115701054D01*
X130810000Y-115814093D01*
X131378285Y-115701054D01*
X131860054Y-115379147D01*
X132080000Y-115049974D01*
X132299946Y-115379147D01*
X132781715Y-115701054D01*
X133350000Y-115814093D01*
X133918285Y-115701054D01*
X134400054Y-115379147D01*
X134620000Y-115049974D01*
X134839946Y-115379147D01*
X135321715Y-115701054D01*
X135890000Y-115814093D01*
X136458285Y-115701054D01*
X136940054Y-115379147D01*
X137160000Y-115049974D01*
X137379946Y-115379147D01*
X137861715Y-115701054D01*
X138430000Y-115814093D01*
X138998285Y-115701054D01*
X139480054Y-115379147D01*
X139700000Y-115049974D01*
X139919946Y-115379147D01*
X140401715Y-115701054D01*
X140970000Y-115814093D01*
X141538285Y-115701054D01*
X142020054Y-115379147D01*
X142240000Y-115049974D01*
X142459946Y-115379147D01*
X142941715Y-115701054D01*
X143510000Y-115814093D01*
X144078285Y-115701054D01*
X144560054Y-115379147D01*
X144780000Y-115049974D01*
X144999946Y-115379147D01*
X145481715Y-115701054D01*
X146050000Y-115814093D01*
X146618285Y-115701054D01*
X147100054Y-115379147D01*
X147320000Y-115049974D01*
X147539946Y-115379147D01*
X148021715Y-115701054D01*
X148590000Y-115814093D01*
X149158285Y-115701054D01*
X149640054Y-115379147D01*
X149860000Y-115049974D01*
X150079946Y-115379147D01*
X150561715Y-115701054D01*
X151130000Y-115814093D01*
X151698285Y-115701054D01*
X152180054Y-115379147D01*
X152400000Y-115049974D01*
X152619946Y-115379147D01*
X153101715Y-115701054D01*
X153670000Y-115814093D01*
X154238285Y-115701054D01*
X154720054Y-115379147D01*
X154940000Y-115049974D01*
X155159946Y-115379147D01*
X155641715Y-115701054D01*
X156210000Y-115814093D01*
X156778285Y-115701054D01*
X157260054Y-115379147D01*
X157480000Y-115049974D01*
X157699946Y-115379147D01*
X158181715Y-115701054D01*
X158750000Y-115814093D01*
X159318285Y-115701054D01*
X159800054Y-115379147D01*
X160020000Y-115049974D01*
X160239946Y-115379147D01*
X160721715Y-115701054D01*
X161290000Y-115814093D01*
X161858285Y-115701054D01*
X162340054Y-115379147D01*
X162560000Y-115049974D01*
X162779946Y-115379147D01*
X163261715Y-115701054D01*
X163830000Y-115814093D01*
X164398285Y-115701054D01*
X164880054Y-115379147D01*
X165100000Y-115049974D01*
X165319946Y-115379147D01*
X165801715Y-115701054D01*
X166370000Y-115814093D01*
X166938285Y-115701054D01*
X167420054Y-115379147D01*
X167640000Y-115049974D01*
X167859946Y-115379147D01*
X168341715Y-115701054D01*
X168910000Y-115814093D01*
X169478285Y-115701054D01*
X169960054Y-115379147D01*
X170180000Y-115049974D01*
X170399946Y-115379147D01*
X170881715Y-115701054D01*
X171450000Y-115814093D01*
X172018285Y-115701054D01*
X172500054Y-115379147D01*
X172720000Y-115049974D01*
X172939946Y-115379147D01*
X173421715Y-115701054D01*
X173990000Y-115814093D01*
X174558285Y-115701054D01*
X175040054Y-115379147D01*
X175247519Y-115068653D01*
X175276307Y-115074379D01*
X175479946Y-115379147D01*
X175961715Y-115701054D01*
X176530000Y-115814093D01*
X177098285Y-115701054D01*
X177580054Y-115379147D01*
X177609403Y-115335223D01*
X177681673Y-115509698D01*
X177860301Y-115688327D01*
X178093690Y-115785000D01*
X178784250Y-115785000D01*
X178943000Y-115626250D01*
X178943000Y-114427000D01*
X179197000Y-114427000D01*
X179197000Y-115626250D01*
X179355750Y-115785000D01*
X180046310Y-115785000D01*
X180279699Y-115688327D01*
X180458327Y-115509698D01*
X180555000Y-115276309D01*
X180555000Y-114585750D01*
X180396250Y-114427000D01*
X179197000Y-114427000D01*
X178943000Y-114427000D01*
X178923000Y-114427000D01*
X178923000Y-114173000D01*
X178943000Y-114173000D01*
X178943000Y-112973750D01*
X179197000Y-112973750D01*
X179197000Y-114173000D01*
X180396250Y-114173000D01*
X180555000Y-114014250D01*
X180555000Y-113323691D01*
X180458327Y-113090302D01*
X180279699Y-112911673D01*
X180046310Y-112815000D01*
X179355750Y-112815000D01*
X179197000Y-112973750D01*
X178943000Y-112973750D01*
X178784250Y-112815000D01*
X178093690Y-112815000D01*
X177860301Y-112911673D01*
X177681673Y-113090302D01*
X177609403Y-113264777D01*
X177580054Y-113220853D01*
X177098285Y-112898946D01*
X176530000Y-112785907D01*
X175961715Y-112898946D01*
X175633386Y-113118328D01*
X175614758Y-113099700D01*
X177085079Y-111629379D01*
X177255245Y-111374707D01*
X177315000Y-111074300D01*
X177315000Y-110713108D01*
X177509746Y-110582983D01*
X177810100Y-110133472D01*
X177811601Y-110125928D01*
X177838501Y-110216817D01*
X178180056Y-110638798D01*
X178657097Y-110897950D01*
X178728725Y-110912133D01*
X178943000Y-110789479D01*
X178943000Y-109347000D01*
X179197000Y-109347000D01*
X179197000Y-110789479D01*
X179411275Y-110912133D01*
X179482903Y-110897950D01*
X179959944Y-110638798D01*
X180301499Y-110216817D01*
X180455570Y-109696250D01*
X180455570Y-109347000D01*
X179197000Y-109347000D01*
X178943000Y-109347000D01*
X178923000Y-109347000D01*
X178923000Y-109093000D01*
X178943000Y-109093000D01*
X178943000Y-109073000D01*
X179197000Y-109073000D01*
X179197000Y-109093000D01*
X180455570Y-109093000D01*
X180455570Y-108743750D01*
X180301499Y-108223183D01*
X179959944Y-107801202D01*
X179736592Y-107679866D01*
X180788076Y-106628381D01*
X180788079Y-106628379D01*
X180958245Y-106373706D01*
X181018001Y-106073300D01*
X181018000Y-106073295D01*
X181018000Y-99122100D01*
X180958245Y-98821694D01*
X180788079Y-98567021D01*
X180725979Y-98504921D01*
X180471307Y-98334755D01*
X180384090Y-98317406D01*
X180350100Y-98146528D01*
X180049746Y-97697017D01*
X179600235Y-97396663D01*
X179070000Y-97291193D01*
X178539765Y-97396663D01*
X178090254Y-97697017D01*
X177800000Y-98131412D01*
X177509746Y-97697017D01*
X177060235Y-97396663D01*
X176530000Y-97291193D01*
X175999765Y-97396663D01*
X175550254Y-97697017D01*
X175260000Y-98131412D01*
X174969746Y-97697017D01*
X174520235Y-97396663D01*
X173990000Y-97291193D01*
X173459765Y-97396663D01*
X173010254Y-97697017D01*
X172720000Y-98131412D01*
X172429746Y-97697017D01*
X171980235Y-97396663D01*
X171450000Y-97291193D01*
X170919765Y-97396663D01*
X170470254Y-97697017D01*
X170180000Y-98131412D01*
X169889746Y-97697017D01*
X169440235Y-97396663D01*
X168910000Y-97291193D01*
X168379765Y-97396663D01*
X167930254Y-97697017D01*
X167640000Y-98131412D01*
X167349746Y-97697017D01*
X166900235Y-97396663D01*
X166370000Y-97291193D01*
X165839765Y-97396663D01*
X165390254Y-97697017D01*
X165100000Y-98131412D01*
X164809746Y-97697017D01*
X164538070Y-97515488D01*
X171267558Y-90786000D01*
X172291500Y-90786000D01*
X172591907Y-90726245D01*
X172846579Y-90556079D01*
X178167836Y-85234822D01*
X178539765Y-85483337D01*
X179070000Y-85588807D01*
X179600235Y-85483337D01*
X180049746Y-85182983D01*
X180350100Y-84733472D01*
X180455570Y-84203237D01*
X180455570Y-83436763D01*
X180350100Y-82906528D01*
X180049746Y-82457017D01*
X179600235Y-82156663D01*
X179070000Y-82051193D01*
X178539765Y-82156663D01*
X178090254Y-82457017D01*
X177800000Y-82891412D01*
X177509746Y-82457017D01*
X177060235Y-82156663D01*
X176530000Y-82051193D01*
X175999765Y-82156663D01*
X175550254Y-82457017D01*
X175260000Y-82891412D01*
X174969746Y-82457017D01*
X174520235Y-82156663D01*
X173990000Y-82051193D01*
X173459765Y-82156663D01*
X173010254Y-82457017D01*
X172720000Y-82891412D01*
X172429746Y-82457017D01*
X171980235Y-82156663D01*
X171450000Y-82051193D01*
X170919765Y-82156663D01*
X170470254Y-82457017D01*
X170180000Y-82891412D01*
X169889746Y-82457017D01*
X169440235Y-82156663D01*
X168910000Y-82051193D01*
X168379765Y-82156663D01*
X168007836Y-82405178D01*
X167411379Y-81808721D01*
X167156707Y-81638555D01*
X166856300Y-81578800D01*
X160826500Y-81578800D01*
X160526093Y-81638555D01*
X160271421Y-81808721D01*
X159665831Y-82414311D01*
X159280235Y-82156663D01*
X158750000Y-82051193D01*
X158219765Y-82156663D01*
X157770254Y-82457017D01*
X157480000Y-82891412D01*
X157189746Y-82457017D01*
X156740235Y-82156663D01*
X156210000Y-82051193D01*
X155679765Y-82156663D01*
X155230254Y-82457017D01*
X154929900Y-82906528D01*
X154928399Y-82914072D01*
X154901499Y-82823183D01*
X154559944Y-82401202D01*
X154082903Y-82142050D01*
X154011275Y-82127867D01*
X153797000Y-82250521D01*
X153797000Y-83693000D01*
X153817000Y-83693000D01*
X153817000Y-83947000D01*
X153797000Y-83947000D01*
X153797000Y-83967000D01*
X153543000Y-83967000D01*
X153543000Y-83947000D01*
X153523000Y-83947000D01*
X153523000Y-83693000D01*
X153543000Y-83693000D01*
X153543000Y-82250521D01*
X153328725Y-82127867D01*
X153257097Y-82142050D01*
X152780056Y-82401202D01*
X152438501Y-82823183D01*
X152411601Y-82914072D01*
X152410100Y-82906528D01*
X152109746Y-82457017D01*
X151660235Y-82156663D01*
X151130000Y-82051193D01*
X150599765Y-82156663D01*
X150150254Y-82457017D01*
X149860000Y-82891412D01*
X149569746Y-82457017D01*
X149120235Y-82156663D01*
X148590000Y-82051193D01*
X148059765Y-82156663D01*
X147610254Y-82457017D01*
X147320000Y-82891412D01*
X147029746Y-82457017D01*
X146580235Y-82156663D01*
X146050000Y-82051193D01*
X145519765Y-82156663D01*
X145070254Y-82457017D01*
X144780000Y-82891412D01*
X144489746Y-82457017D01*
X144040235Y-82156663D01*
X143510000Y-82051193D01*
X142979765Y-82156663D01*
X142530254Y-82457017D01*
X142240000Y-82891412D01*
X141949746Y-82457017D01*
X141500235Y-82156663D01*
X140970000Y-82051193D01*
X140439765Y-82156663D01*
X139990254Y-82457017D01*
X139700000Y-82891412D01*
X139409746Y-82457017D01*
X138960235Y-82156663D01*
X138430000Y-82051193D01*
X137899765Y-82156663D01*
X137450254Y-82457017D01*
X137160000Y-82891412D01*
X136869746Y-82457017D01*
X136420235Y-82156663D01*
X135890000Y-82051193D01*
X135359765Y-82156663D01*
X134910254Y-82457017D01*
X134620000Y-82891412D01*
X134329746Y-82457017D01*
X133880235Y-82156663D01*
X133350000Y-82051193D01*
X132819765Y-82156663D01*
X132370254Y-82457017D01*
X132080000Y-82891412D01*
X131789746Y-82457017D01*
X131340235Y-82156663D01*
X130810000Y-82051193D01*
X130279765Y-82156663D01*
X129830254Y-82457017D01*
X129529900Y-82906528D01*
X129504345Y-83035000D01*
X119684958Y-83035000D01*
X120654958Y-82065000D01*
X122637799Y-82065000D01*
X122639990Y-82070303D01*
X123032630Y-82463629D01*
X123545900Y-82676757D01*
X124101661Y-82677242D01*
X124615303Y-82465010D01*
X125008629Y-82072370D01*
X125221757Y-81559100D01*
X125222242Y-81003339D01*
X125213397Y-80981930D01*
X152877675Y-80981930D01*
X152945735Y-81222931D01*
X153465034Y-81407767D01*
X154015538Y-81379805D01*
X154394265Y-81222931D01*
X154462325Y-80981930D01*
X153670000Y-80189605D01*
X152877675Y-80981930D01*
X125213397Y-80981930D01*
X125010010Y-80489697D01*
X124617370Y-80096371D01*
X124104100Y-79883243D01*
X123548339Y-79882758D01*
X123034697Y-80094990D01*
X122641371Y-80487630D01*
X122638311Y-80495000D01*
X120329800Y-80495000D01*
X120029394Y-80554755D01*
X119774721Y-80724921D01*
X114392400Y-86107242D01*
X114392400Y-79805034D01*
X152272233Y-79805034D01*
X152300195Y-80355538D01*
X152457069Y-80734265D01*
X152698070Y-80802325D01*
X153490395Y-80010000D01*
X152698070Y-79217675D01*
X152457069Y-79285735D01*
X152272233Y-79805034D01*
X114392400Y-79805034D01*
X114392400Y-79038070D01*
X152877675Y-79038070D01*
X153670000Y-79830395D01*
X154462325Y-79038070D01*
X154394265Y-78797069D01*
X153874966Y-78612233D01*
X153324462Y-78640195D01*
X152945735Y-78797069D01*
X152877675Y-79038070D01*
X114392400Y-79038070D01*
X114392400Y-78318058D01*
X117395079Y-75315379D01*
X117424548Y-75271275D01*
X126678197Y-75271275D01*
X126696843Y-75373305D01*
X126967290Y-75846324D01*
X127398167Y-76179841D01*
X127923877Y-76323081D01*
X128143000Y-76162386D01*
X128143000Y-75057000D01*
X128397000Y-75057000D01*
X128397000Y-76162386D01*
X128616123Y-76323081D01*
X129141833Y-76179841D01*
X129572710Y-75846324D01*
X129843157Y-75373305D01*
X129861803Y-75271275D01*
X129739149Y-75057000D01*
X128397000Y-75057000D01*
X128143000Y-75057000D01*
X126800851Y-75057000D01*
X126678197Y-75271275D01*
X117424548Y-75271275D01*
X117565245Y-75060706D01*
X117618049Y-74795247D01*
X117851375Y-74639343D01*
X118126865Y-74227043D01*
X118327264Y-74576894D01*
X118758279Y-74909964D01*
X119283945Y-75052739D01*
X119503000Y-74891868D01*
X119503000Y-73787000D01*
X119757000Y-73787000D01*
X119757000Y-74891868D01*
X119976055Y-75052739D01*
X120501721Y-74909964D01*
X120932736Y-74576894D01*
X121203481Y-74104235D01*
X121222318Y-74001185D01*
X121099656Y-73787000D01*
X119757000Y-73787000D01*
X119503000Y-73787000D01*
X119483000Y-73787000D01*
X119483000Y-73533000D01*
X119503000Y-73533000D01*
X119503000Y-73513000D01*
X119757000Y-73513000D01*
X119757000Y-73533000D01*
X121099656Y-73533000D01*
X121222318Y-73318815D01*
X121203481Y-73215765D01*
X121082981Y-73005400D01*
X122650342Y-73005400D01*
X123702421Y-74057479D01*
X123957094Y-74227645D01*
X124257500Y-74287400D01*
X126810789Y-74287400D01*
X126696843Y-74486695D01*
X126678197Y-74588725D01*
X126800851Y-74803000D01*
X128143000Y-74803000D01*
X128143000Y-74783000D01*
X128397000Y-74783000D01*
X128397000Y-74803000D01*
X129739149Y-74803000D01*
X129861803Y-74588725D01*
X129843157Y-74486695D01*
X129729211Y-74287400D01*
X141657700Y-74287400D01*
X141958107Y-74227645D01*
X142212779Y-74057479D01*
X142900045Y-73370213D01*
X144614392Y-73370213D01*
X144683857Y-73612397D01*
X145207302Y-73799144D01*
X145762368Y-73771362D01*
X146146143Y-73612397D01*
X146215608Y-73370213D01*
X145415000Y-72569605D01*
X144614392Y-73370213D01*
X142900045Y-73370213D01*
X144009769Y-72260489D01*
X144033638Y-72737368D01*
X144192603Y-73121143D01*
X144434787Y-73190608D01*
X145235395Y-72390000D01*
X145594605Y-72390000D01*
X146395213Y-73190608D01*
X146637397Y-73121143D01*
X146824144Y-72597698D01*
X146796362Y-72042632D01*
X146637397Y-71658857D01*
X146395213Y-71589392D01*
X145594605Y-72390000D01*
X145235395Y-72390000D01*
X145221253Y-72375858D01*
X145400858Y-72196253D01*
X145415000Y-72210395D01*
X146215608Y-71409787D01*
X146146143Y-71167603D01*
X145995055Y-71113700D01*
X147099094Y-71113700D01*
X147106273Y-71120892D01*
X147449801Y-71263538D01*
X147821767Y-71263862D01*
X148165543Y-71121817D01*
X148428792Y-70859027D01*
X148571438Y-70515499D01*
X148571762Y-70143533D01*
X148429717Y-69799757D01*
X148166927Y-69536508D01*
X147823399Y-69393862D01*
X147451433Y-69393538D01*
X147107657Y-69535583D01*
X147099526Y-69543700D01*
X144831405Y-69543700D01*
X144831400Y-69543699D01*
X144530994Y-69603455D01*
X144276321Y-69773621D01*
X141332542Y-72717400D01*
X141117758Y-72717400D01*
X145130601Y-68704557D01*
X145135900Y-68706757D01*
X145691661Y-68707242D01*
X146205303Y-68495010D01*
X146598629Y-68102370D01*
X146683526Y-67897916D01*
X155275000Y-76489390D01*
X155275000Y-78985586D01*
X155036056Y-79224113D01*
X154946621Y-79439496D01*
X154882931Y-79285735D01*
X154641930Y-79217675D01*
X153849605Y-80010000D01*
X154641930Y-80802325D01*
X154882931Y-80734265D01*
X154941769Y-80568960D01*
X155034686Y-80793837D01*
X155424113Y-81183944D01*
X155933184Y-81395329D01*
X156484398Y-81395810D01*
X156993837Y-81185314D01*
X157383944Y-80795887D01*
X157595329Y-80286816D01*
X157595810Y-79735602D01*
X157385314Y-79226163D01*
X157319267Y-79160000D01*
X158522560Y-79160000D01*
X158522560Y-80860000D01*
X158566838Y-81095317D01*
X158705910Y-81311441D01*
X158918110Y-81456431D01*
X159170000Y-81507440D01*
X160870000Y-81507440D01*
X161105317Y-81463162D01*
X161321441Y-81324090D01*
X161466431Y-81111890D01*
X161517440Y-80860000D01*
X161517440Y-79160000D01*
X161473162Y-78924683D01*
X161334090Y-78708559D01*
X161121890Y-78563569D01*
X160870000Y-78512560D01*
X159170000Y-78512560D01*
X158934683Y-78556838D01*
X158718559Y-78695910D01*
X158573569Y-78908110D01*
X158522560Y-79160000D01*
X157319267Y-79160000D01*
X157145000Y-78985429D01*
X157145000Y-76102100D01*
X157073827Y-75744291D01*
X156871145Y-75440955D01*
X154794826Y-73364636D01*
X173389024Y-73364636D01*
X173622287Y-73929175D01*
X174053833Y-74361475D01*
X174617964Y-74595723D01*
X175228796Y-74596256D01*
X175793335Y-74362993D01*
X176225635Y-73931447D01*
X176459883Y-73367316D01*
X176460416Y-72756484D01*
X176227153Y-72191945D01*
X175795607Y-71759645D01*
X175231476Y-71525397D01*
X174620644Y-71524864D01*
X174056105Y-71758127D01*
X173623805Y-72189673D01*
X173389557Y-72753804D01*
X173389024Y-73364636D01*
X154794826Y-73364636D01*
X145107630Y-63677440D01*
X145580000Y-63677440D01*
X145815317Y-63633162D01*
X146031441Y-63494090D01*
X146176431Y-63281890D01*
X146227440Y-63030000D01*
X146227440Y-61430000D01*
X146183162Y-61194683D01*
X146044090Y-60978559D01*
X145831890Y-60833569D01*
X145580000Y-60782560D01*
X143980000Y-60782560D01*
X143744683Y-60826838D01*
X143528559Y-60965910D01*
X143383569Y-61178110D01*
X143332560Y-61430000D01*
X143332560Y-62695300D01*
X142887890Y-62695300D01*
X141761445Y-61568855D01*
X141458109Y-61366173D01*
X141100300Y-61295000D01*
X140786735Y-61295000D01*
X140714698Y-61187189D01*
X140249151Y-60876120D01*
X139700000Y-60766887D01*
X139150849Y-60876120D01*
X138685302Y-61187189D01*
X138613265Y-61295000D01*
X134620000Y-61295000D01*
X134262191Y-61366173D01*
X133958855Y-61568855D01*
X127882710Y-67645000D01*
X120921004Y-67645000D01*
X120891375Y-67600657D01*
X120442049Y-67300427D01*
X120315000Y-67275155D01*
X120315000Y-67229700D01*
X120243827Y-66871891D01*
X120041145Y-66568555D01*
X119737809Y-66365873D01*
X119380000Y-66294700D01*
X118964600Y-66294700D01*
X118964600Y-61511918D01*
X118973827Y-61498109D01*
X119038564Y-61172657D01*
X119195317Y-61143162D01*
X119411441Y-61004090D01*
X119556431Y-60791890D01*
X119607440Y-60540000D01*
X119607440Y-59966661D01*
X122427758Y-59966661D01*
X122639990Y-60480303D01*
X123032630Y-60873629D01*
X123545900Y-61086757D01*
X124101661Y-61087242D01*
X124615303Y-60875010D01*
X125008629Y-60482370D01*
X125221757Y-59969100D01*
X125221759Y-59966661D01*
X133857758Y-59966661D01*
X134069990Y-60480303D01*
X134462630Y-60873629D01*
X134975900Y-61086757D01*
X135531661Y-61087242D01*
X136045303Y-60875010D01*
X136438629Y-60482370D01*
X136651757Y-59969100D01*
X136652242Y-59413339D01*
X136440010Y-58899697D01*
X136047370Y-58506371D01*
X135534100Y-58293243D01*
X134978339Y-58292758D01*
X134464697Y-58504990D01*
X134071371Y-58897630D01*
X133858243Y-59410900D01*
X133857758Y-59966661D01*
X125221759Y-59966661D01*
X125222242Y-59413339D01*
X125010010Y-58899697D01*
X124617370Y-58506371D01*
X124104100Y-58293243D01*
X123548339Y-58292758D01*
X123034697Y-58504990D01*
X122641371Y-58897630D01*
X122428243Y-59410900D01*
X122427758Y-59966661D01*
X119607440Y-59966661D01*
X119607440Y-58840000D01*
X119563162Y-58604683D01*
X119424090Y-58388559D01*
X119211890Y-58243569D01*
X118960000Y-58192560D01*
X117260000Y-58192560D01*
X117024683Y-58236838D01*
X116808559Y-58375910D01*
X116663569Y-58588110D01*
X116641699Y-58696107D01*
X116336924Y-58418355D01*
X115926890Y-58248524D01*
X115697000Y-58369845D01*
X115697000Y-59563000D01*
X115717000Y-59563000D01*
X115717000Y-59817000D01*
X115697000Y-59817000D01*
X115697000Y-61010155D01*
X115926890Y-61131476D01*
X116336924Y-60961645D01*
X116639937Y-60685499D01*
X116656838Y-60775317D01*
X116795910Y-60991441D01*
X117008110Y-61136431D01*
X117107364Y-61156530D01*
X117094600Y-61220700D01*
X117094600Y-66294600D01*
X115326800Y-66294600D01*
X114968991Y-66365773D01*
X114665655Y-66568455D01*
X111733855Y-69500255D01*
X111531173Y-69803591D01*
X111460000Y-70161400D01*
X111460000Y-80239435D01*
X111211371Y-80487630D01*
X110998243Y-81000900D01*
X110997758Y-81556661D01*
X108635000Y-81556661D01*
X108635000Y-60046892D01*
X114128514Y-60046892D01*
X114374817Y-60571358D01*
X114803076Y-60961645D01*
X115213110Y-61131476D01*
X115443000Y-61010155D01*
X115443000Y-59817000D01*
X114249181Y-59817000D01*
X114128514Y-60046892D01*
X108635000Y-60046892D01*
X108635000Y-59333108D01*
X114128514Y-59333108D01*
X114249181Y-59563000D01*
X115443000Y-59563000D01*
X115443000Y-58369845D01*
X115213110Y-58248524D01*
X114803076Y-58418355D01*
X114374817Y-58808642D01*
X114128514Y-59333108D01*
X108635000Y-59333108D01*
X108635000Y-56860213D01*
X123024392Y-56860213D01*
X123093857Y-57102397D01*
X123617302Y-57289144D01*
X124172368Y-57261362D01*
X124556143Y-57102397D01*
X124625608Y-56860213D01*
X123825000Y-56059605D01*
X123024392Y-56860213D01*
X108635000Y-56860213D01*
X108635000Y-55672302D01*
X122415856Y-55672302D01*
X122443638Y-56227368D01*
X122602603Y-56611143D01*
X122844787Y-56680608D01*
X123645395Y-55880000D01*
X124004605Y-55880000D01*
X124805213Y-56680608D01*
X125047397Y-56611143D01*
X125209540Y-56156661D01*
X133857758Y-56156661D01*
X134069990Y-56670303D01*
X134462630Y-57063629D01*
X134975900Y-57276757D01*
X135531661Y-57277242D01*
X136045303Y-57065010D01*
X136438629Y-56672370D01*
X136651757Y-56159100D01*
X136652242Y-55603339D01*
X136440010Y-55089697D01*
X136047370Y-54696371D01*
X135534100Y-54483243D01*
X134978339Y-54482758D01*
X134464697Y-54694990D01*
X134071371Y-55087630D01*
X133858243Y-55600900D01*
X133857758Y-56156661D01*
X125209540Y-56156661D01*
X125234144Y-56087698D01*
X125206362Y-55532632D01*
X125047397Y-55148857D01*
X124805213Y-55079392D01*
X124004605Y-55880000D01*
X123645395Y-55880000D01*
X122844787Y-55079392D01*
X122602603Y-55148857D01*
X122415856Y-55672302D01*
X108635000Y-55672302D01*
X108635000Y-54899787D01*
X123024392Y-54899787D01*
X123825000Y-55700395D01*
X124625608Y-54899787D01*
X124556143Y-54657603D01*
X124032698Y-54470856D01*
X123477632Y-54498638D01*
X123093857Y-54657603D01*
X123024392Y-54899787D01*
X108635000Y-54899787D01*
X108635000Y-53810000D01*
X138252560Y-53810000D01*
X138252560Y-55410000D01*
X138296838Y-55645317D01*
X138435910Y-55861441D01*
X138648110Y-56006431D01*
X138900000Y-56057440D01*
X140500000Y-56057440D01*
X140735317Y-56013162D01*
X140951441Y-55874090D01*
X141096431Y-55661890D01*
X141147440Y-55410000D01*
X141147440Y-55395000D01*
X143593038Y-55395000D01*
X143765302Y-55652811D01*
X144230849Y-55963880D01*
X144780000Y-56073113D01*
X145329151Y-55963880D01*
X145794698Y-55652811D01*
X146105767Y-55187264D01*
X146215000Y-54638113D01*
X146215000Y-54581887D01*
X146105767Y-54032736D01*
X145794698Y-53567189D01*
X145329151Y-53256120D01*
X144780000Y-53146887D01*
X144230849Y-53256120D01*
X143765302Y-53567189D01*
X143593038Y-53825000D01*
X141147440Y-53825000D01*
X141147440Y-53810000D01*
X141103162Y-53574683D01*
X140964090Y-53358559D01*
X140751890Y-53213569D01*
X140500000Y-53162560D01*
X138900000Y-53162560D01*
X138664683Y-53206838D01*
X138448559Y-53345910D01*
X138303569Y-53558110D01*
X138252560Y-53810000D01*
X108635000Y-53810000D01*
X108635000Y-51076661D01*
X133857758Y-51076661D01*
X134069990Y-51590303D01*
X134462630Y-51983629D01*
X134975900Y-52196757D01*
X135531661Y-52197242D01*
X136045303Y-51985010D01*
X136438629Y-51592370D01*
X136651757Y-51079100D01*
X136651759Y-51076661D01*
X145287758Y-51076661D01*
X145499990Y-51590303D01*
X145892630Y-51983629D01*
X146405900Y-52196757D01*
X146961661Y-52197242D01*
X147475303Y-51985010D01*
X147868629Y-51592370D01*
X148081757Y-51079100D01*
X148082242Y-50523339D01*
X147870010Y-50009697D01*
X147477370Y-49616371D01*
X146964100Y-49403243D01*
X146408339Y-49402758D01*
X145894697Y-49614990D01*
X145501371Y-50007630D01*
X145288243Y-50520900D01*
X145287758Y-51076661D01*
X136651759Y-51076661D01*
X136652242Y-50523339D01*
X136440010Y-50009697D01*
X136047370Y-49616371D01*
X135534100Y-49403243D01*
X134978339Y-49402758D01*
X134464697Y-49614990D01*
X134071371Y-50007630D01*
X133858243Y-50520900D01*
X133857758Y-51076661D01*
X108635000Y-51076661D01*
X108635000Y-49113968D01*
X173639258Y-49113968D01*
X173834512Y-49586519D01*
X174195740Y-49948378D01*
X174667948Y-50144456D01*
X175179248Y-50144902D01*
X175651799Y-49949648D01*
X176013658Y-49588420D01*
X176209736Y-49116212D01*
X176210182Y-48604912D01*
X176014928Y-48132361D01*
X175653700Y-47770502D01*
X175181492Y-47574424D01*
X174670192Y-47573978D01*
X174197641Y-47769232D01*
X173835782Y-48130460D01*
X173639704Y-48602668D01*
X173639258Y-49113968D01*
X108635000Y-49113968D01*
X108635000Y-46700213D01*
X134454392Y-46700213D01*
X134523857Y-46942397D01*
X135047302Y-47129144D01*
X135602368Y-47101362D01*
X135986143Y-46942397D01*
X136055608Y-46700213D01*
X135255000Y-45899605D01*
X134454392Y-46700213D01*
X108635000Y-46700213D01*
X108635000Y-45512302D01*
X133845856Y-45512302D01*
X133873638Y-46067368D01*
X134032603Y-46451143D01*
X134274787Y-46520608D01*
X135075395Y-45720000D01*
X135434605Y-45720000D01*
X136235213Y-46520608D01*
X136477397Y-46451143D01*
X136639540Y-45996661D01*
X145287758Y-45996661D01*
X145499990Y-46510303D01*
X145892630Y-46903629D01*
X146405900Y-47116757D01*
X146961661Y-47117242D01*
X147475303Y-46905010D01*
X147868629Y-46512370D01*
X148081757Y-45999100D01*
X148082242Y-45443339D01*
X147870010Y-44929697D01*
X147477370Y-44536371D01*
X146964100Y-44323243D01*
X146408339Y-44322758D01*
X145894697Y-44534990D01*
X145501371Y-44927630D01*
X145288243Y-45440900D01*
X145287758Y-45996661D01*
X136639540Y-45996661D01*
X136664144Y-45927698D01*
X136636362Y-45372632D01*
X136477397Y-44988857D01*
X136235213Y-44919392D01*
X135434605Y-45720000D01*
X135075395Y-45720000D01*
X134274787Y-44919392D01*
X134032603Y-44988857D01*
X133845856Y-45512302D01*
X108635000Y-45512302D01*
X108635000Y-44739787D01*
X134454392Y-44739787D01*
X135255000Y-45540395D01*
X136055608Y-44739787D01*
X135986143Y-44497603D01*
X135462698Y-44310856D01*
X134907632Y-44338638D01*
X134523857Y-44497603D01*
X134454392Y-44739787D01*
X108635000Y-44739787D01*
X108635000Y-42595000D01*
X183465000Y-42595000D01*
X183465000Y-139015000D01*
X183465000Y-139015000D01*
G37*
X183465000Y-139015000D02*
X108635000Y-139015000D01*
X108635000Y-134321930D01*
X113507675Y-134321930D01*
X113575735Y-134562931D01*
X114095034Y-134747767D01*
X114645538Y-134719805D01*
X115024265Y-134562931D01*
X115092325Y-134321930D01*
X114300000Y-133529605D01*
X113507675Y-134321930D01*
X108635000Y-134321930D01*
X108635000Y-133145034D01*
X112902233Y-133145034D01*
X112930195Y-133695538D01*
X113087069Y-134074265D01*
X113328070Y-134142325D01*
X114120395Y-133350000D01*
X113328070Y-132557675D01*
X113087069Y-132625735D01*
X112902233Y-133145034D01*
X108635000Y-133145034D01*
X108635000Y-81556661D01*
X110997758Y-81556661D01*
X111209990Y-82070303D01*
X111602630Y-82463629D01*
X112115900Y-82676757D01*
X112671661Y-82677242D01*
X112822400Y-82614958D01*
X112822400Y-127257700D01*
X112882155Y-127558107D01*
X113052321Y-127812779D01*
X114726273Y-129486731D01*
X114576816Y-129424671D01*
X114025602Y-129424190D01*
X113516163Y-129634686D01*
X113126056Y-130024113D01*
X112914671Y-130533184D01*
X112914190Y-131084398D01*
X113124686Y-131593837D01*
X113514113Y-131983944D01*
X113729496Y-132073379D01*
X113575735Y-132137069D01*
X113507675Y-132378070D01*
X114300000Y-133170395D01*
X114314143Y-133156253D01*
X114493748Y-133335858D01*
X114479605Y-133350000D01*
X115271930Y-134142325D01*
X115512931Y-134074265D01*
X115578865Y-133889023D01*
X116533352Y-134843510D01*
X116475284Y-134983352D01*
X116474716Y-135633795D01*
X116723106Y-136234943D01*
X117182637Y-136695278D01*
X117783352Y-136944716D01*
X118433795Y-136945284D01*
X119034943Y-136696894D01*
X119495278Y-136237363D01*
X119554392Y-136095000D01*
X123165283Y-136095000D01*
X123223106Y-136234943D01*
X123682637Y-136695278D01*
X124283352Y-136944716D01*
X124933795Y-136945284D01*
X125534943Y-136696894D01*
X125995278Y-136237363D01*
X126054392Y-136095000D01*
X159399700Y-136095000D01*
X159700107Y-136035245D01*
X159954779Y-135865079D01*
X160192187Y-135627671D01*
X160239946Y-135699147D01*
X160721715Y-136021054D01*
X161290000Y-136134093D01*
X161858285Y-136021054D01*
X162340054Y-135699147D01*
X162367850Y-135657548D01*
X162376838Y-135705317D01*
X162515910Y-135921441D01*
X162728110Y-136066431D01*
X162980000Y-136117440D01*
X164680000Y-136117440D01*
X164915317Y-136073162D01*
X165131441Y-135934090D01*
X165276431Y-135721890D01*
X165327440Y-135470000D01*
X165327440Y-133770000D01*
X165283162Y-133534683D01*
X165144090Y-133318559D01*
X164931890Y-133173569D01*
X164680000Y-133122560D01*
X164615000Y-133122560D01*
X164615000Y-130796250D01*
X164880054Y-130619147D01*
X165100000Y-130289974D01*
X165319946Y-130619147D01*
X165801715Y-130941054D01*
X166370000Y-131054093D01*
X166938285Y-130941054D01*
X167420054Y-130619147D01*
X167640000Y-130289974D01*
X167859946Y-130619147D01*
X168341715Y-130941054D01*
X168910000Y-131054093D01*
X169478285Y-130941054D01*
X169960054Y-130619147D01*
X170180000Y-130289974D01*
X170399946Y-130619147D01*
X170881715Y-130941054D01*
X171450000Y-131054093D01*
X172018285Y-130941054D01*
X172500054Y-130619147D01*
X172720000Y-130289974D01*
X172939946Y-130619147D01*
X173421715Y-130941054D01*
X173990000Y-131054093D01*
X174558285Y-130941054D01*
X175040054Y-130619147D01*
X175260000Y-130289974D01*
X175479946Y-130619147D01*
X175961715Y-130941054D01*
X176530000Y-131054093D01*
X177098285Y-130941054D01*
X177580054Y-130619147D01*
X177800000Y-130289974D01*
X178019946Y-130619147D01*
X178501715Y-130941054D01*
X179070000Y-131054093D01*
X179638285Y-130941054D01*
X180120054Y-130619147D01*
X180441961Y-130137378D01*
X180555000Y-129569093D01*
X180555000Y-129510907D01*
X180441961Y-128942622D01*
X180120054Y-128460853D01*
X179638285Y-128138946D01*
X179070000Y-128025907D01*
X178501715Y-128138946D01*
X178019946Y-128460853D01*
X177800000Y-128790026D01*
X177580054Y-128460853D01*
X177098285Y-128138946D01*
X176530000Y-128025907D01*
X175961715Y-128138946D01*
X175479946Y-128460853D01*
X175260000Y-128790026D01*
X175040054Y-128460853D01*
X174558285Y-128138946D01*
X173990000Y-128025907D01*
X173421715Y-128138946D01*
X172939946Y-128460853D01*
X172720000Y-128790026D01*
X172500054Y-128460853D01*
X172018285Y-128138946D01*
X171450000Y-128025907D01*
X170881715Y-128138946D01*
X170399946Y-128460853D01*
X170180000Y-128790026D01*
X169960054Y-128460853D01*
X169478285Y-128138946D01*
X168910000Y-128025907D01*
X168341715Y-128138946D01*
X167859946Y-128460853D01*
X167640000Y-128790026D01*
X167420054Y-128460853D01*
X166938285Y-128138946D01*
X166370000Y-128025907D01*
X165801715Y-128138946D01*
X165319946Y-128460853D01*
X165100000Y-128790026D01*
X164880054Y-128460853D01*
X164398285Y-128138946D01*
X163830000Y-128025907D01*
X163261715Y-128138946D01*
X162779946Y-128460853D01*
X162560000Y-128790026D01*
X162340054Y-128460853D01*
X161858285Y-128138946D01*
X161290000Y-128025907D01*
X160721715Y-128138946D01*
X160239946Y-128460853D01*
X160020000Y-128790026D01*
X159800054Y-128460853D01*
X159318285Y-128138946D01*
X158750000Y-128025907D01*
X158181715Y-128138946D01*
X157699946Y-128460853D01*
X157480000Y-128790026D01*
X157260054Y-128460853D01*
X156778285Y-128138946D01*
X156210000Y-128025907D01*
X155641715Y-128138946D01*
X155159946Y-128460853D01*
X154940000Y-128790026D01*
X154720054Y-128460853D01*
X154238285Y-128138946D01*
X153670000Y-128025907D01*
X153101715Y-128138946D01*
X152619946Y-128460853D01*
X152400000Y-128790026D01*
X152180054Y-128460853D01*
X151698285Y-128138946D01*
X151130000Y-128025907D01*
X150561715Y-128138946D01*
X150079946Y-128460853D01*
X149860000Y-128790026D01*
X149640054Y-128460853D01*
X149158285Y-128138946D01*
X148590000Y-128025907D01*
X148021715Y-128138946D01*
X147539946Y-128460853D01*
X147320000Y-128790026D01*
X147100054Y-128460853D01*
X146618285Y-128138946D01*
X146050000Y-128025907D01*
X145481715Y-128138946D01*
X144999946Y-128460853D01*
X144780000Y-128790026D01*
X144560054Y-128460853D01*
X144078285Y-128138946D01*
X143510000Y-128025907D01*
X142941715Y-128138946D01*
X142459946Y-128460853D01*
X142240000Y-128790026D01*
X142020054Y-128460853D01*
X141538285Y-128138946D01*
X140970000Y-128025907D01*
X140401715Y-128138946D01*
X139919946Y-128460853D01*
X139700000Y-128790026D01*
X139480054Y-128460853D01*
X138998285Y-128138946D01*
X138430000Y-128025907D01*
X137861715Y-128138946D01*
X137379946Y-128460853D01*
X137160000Y-128790026D01*
X136940054Y-128460853D01*
X136458285Y-128138946D01*
X135890000Y-128025907D01*
X135321715Y-128138946D01*
X134839946Y-128460853D01*
X134620000Y-128790026D01*
X134400054Y-128460853D01*
X133918285Y-128138946D01*
X133350000Y-128025907D01*
X132781715Y-128138946D01*
X132299946Y-128460853D01*
X132272150Y-128502452D01*
X132263162Y-128454683D01*
X132124090Y-128238559D01*
X131911890Y-128093569D01*
X131660000Y-128042560D01*
X129960000Y-128042560D01*
X129724683Y-128086838D01*
X129508559Y-128225910D01*
X129363569Y-128438110D01*
X129312560Y-128690000D01*
X129312560Y-130390000D01*
X129356838Y-130625317D01*
X129495910Y-130841441D01*
X129708110Y-130986431D01*
X129960000Y-131037440D01*
X131660000Y-131037440D01*
X131895317Y-130993162D01*
X132111441Y-130854090D01*
X132256431Y-130641890D01*
X132270086Y-130574459D01*
X132299946Y-130619147D01*
X132781715Y-130941054D01*
X133350000Y-131054093D01*
X133918285Y-130941054D01*
X134400054Y-130619147D01*
X134620000Y-130289974D01*
X134839946Y-130619147D01*
X135321715Y-130941054D01*
X135890000Y-131054093D01*
X136458285Y-130941054D01*
X136940054Y-130619147D01*
X137160000Y-130289974D01*
X137379946Y-130619147D01*
X137861715Y-130941054D01*
X138430000Y-131054093D01*
X138998285Y-130941054D01*
X139480054Y-130619147D01*
X139700000Y-130289974D01*
X139919946Y-130619147D01*
X140401715Y-130941054D01*
X140970000Y-131054093D01*
X141538285Y-130941054D01*
X142020054Y-130619147D01*
X142240000Y-130289974D01*
X142459946Y-130619147D01*
X142941715Y-130941054D01*
X143510000Y-131054093D01*
X144078285Y-130941054D01*
X144560054Y-130619147D01*
X144780000Y-130289974D01*
X144999946Y-130619147D01*
X145481715Y-130941054D01*
X146050000Y-131054093D01*
X146618285Y-130941054D01*
X147100054Y-130619147D01*
X147320000Y-130289974D01*
X147539946Y-130619147D01*
X148021715Y-130941054D01*
X148590000Y-131054093D01*
X149158285Y-130941054D01*
X149640054Y-130619147D01*
X149860000Y-130289974D01*
X150079946Y-130619147D01*
X150561715Y-130941054D01*
X151130000Y-131054093D01*
X151698285Y-130941054D01*
X152180054Y-130619147D01*
X152400000Y-130289974D01*
X152619946Y-130619147D01*
X153101715Y-130941054D01*
X153670000Y-131054093D01*
X154238285Y-130941054D01*
X154720054Y-130619147D01*
X154940000Y-130289974D01*
X155159946Y-130619147D01*
X155641715Y-130941054D01*
X156210000Y-131054093D01*
X156778285Y-130941054D01*
X157260054Y-130619147D01*
X157480000Y-130289974D01*
X157699946Y-130619147D01*
X158181715Y-130941054D01*
X158750000Y-131054093D01*
X159318285Y-130941054D01*
X159800054Y-130619147D01*
X160020000Y-130289974D01*
X160239946Y-130619147D01*
X160721715Y-130941054D01*
X161290000Y-131054093D01*
X161858285Y-130941054D01*
X162340054Y-130619147D01*
X162560000Y-130289974D01*
X162779946Y-130619147D01*
X163045000Y-130796250D01*
X163045000Y-133122560D01*
X162980000Y-133122560D01*
X162744683Y-133166838D01*
X162528559Y-133305910D01*
X162383569Y-133518110D01*
X162369914Y-133585541D01*
X162340054Y-133540853D01*
X161858285Y-133218946D01*
X161290000Y-133105907D01*
X160721715Y-133218946D01*
X160239946Y-133540853D01*
X160036307Y-133845621D01*
X159789293Y-133894755D01*
X159534621Y-134064921D01*
X159074542Y-134525000D01*
X126054717Y-134525000D01*
X125996894Y-134385057D01*
X125537363Y-133924722D01*
X124936648Y-133675284D01*
X124286205Y-133674716D01*
X123685057Y-133923106D01*
X123224722Y-134382637D01*
X123165608Y-134525000D01*
X119554717Y-134525000D01*
X119496894Y-134385057D01*
X119037363Y-133924722D01*
X118436648Y-133675284D01*
X117786205Y-133674716D01*
X117643740Y-133733582D01*
X116813700Y-132903542D01*
X116813700Y-131962532D01*
X117137073Y-131962532D01*
X117235736Y-132229387D01*
X117845461Y-132455908D01*
X118495460Y-132431856D01*
X118984264Y-132229387D01*
X119082927Y-131962532D01*
X123637073Y-131962532D01*
X123735736Y-132229387D01*
X124345461Y-132455908D01*
X124995460Y-132431856D01*
X125484264Y-132229387D01*
X125582927Y-131962532D01*
X124610000Y-130989605D01*
X123637073Y-131962532D01*
X119082927Y-131962532D01*
X118110000Y-130989605D01*
X117137073Y-131962532D01*
X116813700Y-131962532D01*
X116813700Y-131729772D01*
X116957468Y-131782927D01*
X117930395Y-130810000D01*
X118289605Y-130810000D01*
X119262532Y-131782927D01*
X119529387Y-131684264D01*
X119755908Y-131074539D01*
X119736331Y-130545461D01*
X122964092Y-130545461D01*
X122988144Y-131195460D01*
X123190613Y-131684264D01*
X123457468Y-131782927D01*
X124430395Y-130810000D01*
X124789605Y-130810000D01*
X125762532Y-131782927D01*
X126029387Y-131684264D01*
X126255908Y-131074539D01*
X126231856Y-130424540D01*
X126029387Y-129935736D01*
X125762532Y-129837073D01*
X124789605Y-130810000D01*
X124430395Y-130810000D01*
X123457468Y-129837073D01*
X123190613Y-129935736D01*
X122964092Y-130545461D01*
X119736331Y-130545461D01*
X119731856Y-130424540D01*
X119529387Y-129935736D01*
X119262532Y-129837073D01*
X118289605Y-130810000D01*
X117930395Y-130810000D01*
X116957468Y-129837073D01*
X116813700Y-129890228D01*
X116813700Y-129679000D01*
X116809417Y-129657468D01*
X117137073Y-129657468D01*
X118110000Y-130630395D01*
X119082927Y-129657468D01*
X123637073Y-129657468D01*
X124610000Y-130630395D01*
X125582927Y-129657468D01*
X125484264Y-129390613D01*
X124874539Y-129164092D01*
X124224540Y-129188144D01*
X123735736Y-129390613D01*
X123637073Y-129657468D01*
X119082927Y-129657468D01*
X118984264Y-129390613D01*
X118374539Y-129164092D01*
X117724540Y-129188144D01*
X117235736Y-129390613D01*
X117137073Y-129657468D01*
X116809417Y-129657468D01*
X116780264Y-129510907D01*
X116753945Y-129378593D01*
X116583779Y-129123921D01*
X114392400Y-126932542D01*
X114392400Y-125948465D01*
X114500839Y-126057093D01*
X115193405Y-126344672D01*
X115943305Y-126345326D01*
X116636372Y-126058957D01*
X117167093Y-125529161D01*
X117454672Y-124836595D01*
X117455326Y-124086695D01*
X117399852Y-123952438D01*
X118142290Y-123210000D01*
X121292560Y-123210000D01*
X121292560Y-125710000D01*
X121336838Y-125945317D01*
X121475910Y-126161441D01*
X121688110Y-126306431D01*
X121940000Y-126357440D01*
X124440000Y-126357440D01*
X124675317Y-126313162D01*
X124891441Y-126174090D01*
X125036431Y-125961890D01*
X125087440Y-125710000D01*
X125087440Y-124076763D01*
X129424430Y-124076763D01*
X129424430Y-124843237D01*
X129529900Y-125373472D01*
X129830254Y-125822983D01*
X130279765Y-126123337D01*
X130810000Y-126228807D01*
X131340235Y-126123337D01*
X131789746Y-125822983D01*
X132080000Y-125388588D01*
X132370254Y-125822983D01*
X132819765Y-126123337D01*
X133350000Y-126228807D01*
X133880235Y-126123337D01*
X134329746Y-125822983D01*
X134620000Y-125388588D01*
X134910254Y-125822983D01*
X135359765Y-126123337D01*
X135890000Y-126228807D01*
X136420235Y-126123337D01*
X136869746Y-125822983D01*
X137160000Y-125388588D01*
X137450254Y-125822983D01*
X137899765Y-126123337D01*
X138430000Y-126228807D01*
X138960235Y-126123337D01*
X139409746Y-125822983D01*
X139700000Y-125388588D01*
X139990254Y-125822983D01*
X140439765Y-126123337D01*
X140970000Y-126228807D01*
X141500235Y-126123337D01*
X141949746Y-125822983D01*
X142240000Y-125388588D01*
X142530254Y-125822983D01*
X142979765Y-126123337D01*
X143510000Y-126228807D01*
X144040235Y-126123337D01*
X144489746Y-125822983D01*
X144780000Y-125388588D01*
X145070254Y-125822983D01*
X145519765Y-126123337D01*
X146050000Y-126228807D01*
X146580235Y-126123337D01*
X147029746Y-125822983D01*
X147320000Y-125388588D01*
X147610254Y-125822983D01*
X148059765Y-126123337D01*
X148590000Y-126228807D01*
X149120235Y-126123337D01*
X149569746Y-125822983D01*
X149860000Y-125388588D01*
X150150254Y-125822983D01*
X150599765Y-126123337D01*
X151130000Y-126228807D01*
X151660235Y-126123337D01*
X152109746Y-125822983D01*
X152400000Y-125388588D01*
X152690254Y-125822983D01*
X153139765Y-126123337D01*
X153670000Y-126228807D01*
X154200235Y-126123337D01*
X154649746Y-125822983D01*
X154940000Y-125388588D01*
X155230254Y-125822983D01*
X155679765Y-126123337D01*
X156210000Y-126228807D01*
X156740235Y-126123337D01*
X157189746Y-125822983D01*
X157480000Y-125388588D01*
X157770254Y-125822983D01*
X158219765Y-126123337D01*
X158750000Y-126228807D01*
X159280235Y-126123337D01*
X159729746Y-125822983D01*
X160020000Y-125388588D01*
X160310254Y-125822983D01*
X160759765Y-126123337D01*
X161290000Y-126228807D01*
X161820235Y-126123337D01*
X162269746Y-125822983D01*
X162560000Y-125388588D01*
X162850254Y-125822983D01*
X163299765Y-126123337D01*
X163830000Y-126228807D01*
X164360235Y-126123337D01*
X164809746Y-125822983D01*
X165100000Y-125388588D01*
X165390254Y-125822983D01*
X165839765Y-126123337D01*
X166370000Y-126228807D01*
X166900235Y-126123337D01*
X167349746Y-125822983D01*
X167640000Y-125388588D01*
X167930254Y-125822983D01*
X168379765Y-126123337D01*
X168910000Y-126228807D01*
X169440235Y-126123337D01*
X169889746Y-125822983D01*
X170180000Y-125388588D01*
X170470254Y-125822983D01*
X170919765Y-126123337D01*
X171450000Y-126228807D01*
X171980235Y-126123337D01*
X172429746Y-125822983D01*
X172720000Y-125388588D01*
X173010254Y-125822983D01*
X173459765Y-126123337D01*
X173990000Y-126228807D01*
X174520235Y-126123337D01*
X174969746Y-125822983D01*
X175260000Y-125388588D01*
X175550254Y-125822983D01*
X175999765Y-126123337D01*
X176530000Y-126228807D01*
X177060235Y-126123337D01*
X177509746Y-125822983D01*
X177800000Y-125388588D01*
X178090254Y-125822983D01*
X178539765Y-126123337D01*
X179070000Y-126228807D01*
X179600235Y-126123337D01*
X180049746Y-125822983D01*
X180350100Y-125373472D01*
X180455570Y-124843237D01*
X180455570Y-124076763D01*
X180350100Y-123546528D01*
X180049746Y-123097017D01*
X179600235Y-122796663D01*
X179070000Y-122691193D01*
X178539765Y-122796663D01*
X178090254Y-123097017D01*
X177800000Y-123531412D01*
X177509746Y-123097017D01*
X177060235Y-122796663D01*
X176530000Y-122691193D01*
X175999765Y-122796663D01*
X175550254Y-123097017D01*
X175260000Y-123531412D01*
X174969746Y-123097017D01*
X174520235Y-122796663D01*
X173990000Y-122691193D01*
X173459765Y-122796663D01*
X173010254Y-123097017D01*
X172720000Y-123531412D01*
X172429746Y-123097017D01*
X171980235Y-122796663D01*
X171450000Y-122691193D01*
X170919765Y-122796663D01*
X170470254Y-123097017D01*
X170180000Y-123531412D01*
X169889746Y-123097017D01*
X169440235Y-122796663D01*
X168910000Y-122691193D01*
X168379765Y-122796663D01*
X167930254Y-123097017D01*
X167640000Y-123531412D01*
X167349746Y-123097017D01*
X166900235Y-122796663D01*
X166370000Y-122691193D01*
X165839765Y-122796663D01*
X165390254Y-123097017D01*
X165100000Y-123531412D01*
X164809746Y-123097017D01*
X164360235Y-122796663D01*
X163830000Y-122691193D01*
X163299765Y-122796663D01*
X162850254Y-123097017D01*
X162560000Y-123531412D01*
X162269746Y-123097017D01*
X161820235Y-122796663D01*
X161290000Y-122691193D01*
X160759765Y-122796663D01*
X160310254Y-123097017D01*
X160020000Y-123531412D01*
X159729746Y-123097017D01*
X159280235Y-122796663D01*
X158750000Y-122691193D01*
X158219765Y-122796663D01*
X157770254Y-123097017D01*
X157480000Y-123531412D01*
X157189746Y-123097017D01*
X156740235Y-122796663D01*
X156210000Y-122691193D01*
X155679765Y-122796663D01*
X155230254Y-123097017D01*
X154940000Y-123531412D01*
X154649746Y-123097017D01*
X154200235Y-122796663D01*
X153670000Y-122691193D01*
X153139765Y-122796663D01*
X152690254Y-123097017D01*
X152400000Y-123531412D01*
X152109746Y-123097017D01*
X151660235Y-122796663D01*
X151130000Y-122691193D01*
X150599765Y-122796663D01*
X150150254Y-123097017D01*
X149860000Y-123531412D01*
X149569746Y-123097017D01*
X149120235Y-122796663D01*
X148590000Y-122691193D01*
X148059765Y-122796663D01*
X147610254Y-123097017D01*
X147320000Y-123531412D01*
X147029746Y-123097017D01*
X146580235Y-122796663D01*
X146050000Y-122691193D01*
X145519765Y-122796663D01*
X145070254Y-123097017D01*
X144780000Y-123531412D01*
X144489746Y-123097017D01*
X144040235Y-122796663D01*
X143510000Y-122691193D01*
X142979765Y-122796663D01*
X142530254Y-123097017D01*
X142240000Y-123531412D01*
X141949746Y-123097017D01*
X141500235Y-122796663D01*
X140970000Y-122691193D01*
X140439765Y-122796663D01*
X139990254Y-123097017D01*
X139700000Y-123531412D01*
X139409746Y-123097017D01*
X138960235Y-122796663D01*
X138430000Y-122691193D01*
X137899765Y-122796663D01*
X137450254Y-123097017D01*
X137160000Y-123531412D01*
X136869746Y-123097017D01*
X136420235Y-122796663D01*
X135890000Y-122691193D01*
X135359765Y-122796663D01*
X134910254Y-123097017D01*
X134620000Y-123531412D01*
X134329746Y-123097017D01*
X133880235Y-122796663D01*
X133350000Y-122691193D01*
X132819765Y-122796663D01*
X132370254Y-123097017D01*
X132080000Y-123531412D01*
X131789746Y-123097017D01*
X131340235Y-122796663D01*
X130810000Y-122691193D01*
X130279765Y-122796663D01*
X129830254Y-123097017D01*
X129529900Y-123546528D01*
X129424430Y-124076763D01*
X125087440Y-124076763D01*
X125087440Y-123210000D01*
X125043162Y-122974683D01*
X124904090Y-122758559D01*
X124691890Y-122613569D01*
X124440000Y-122562560D01*
X121940000Y-122562560D01*
X121704683Y-122606838D01*
X121488559Y-122745910D01*
X121343569Y-122958110D01*
X121292560Y-123210000D01*
X118142290Y-123210000D01*
X126117290Y-115235000D01*
X129663630Y-115235000D01*
X129759946Y-115379147D01*
X130241715Y-115701054D01*
X130810000Y-115814093D01*
X131378285Y-115701054D01*
X131860054Y-115379147D01*
X132080000Y-115049974D01*
X132299946Y-115379147D01*
X132781715Y-115701054D01*
X133350000Y-115814093D01*
X133918285Y-115701054D01*
X134400054Y-115379147D01*
X134620000Y-115049974D01*
X134839946Y-115379147D01*
X135321715Y-115701054D01*
X135890000Y-115814093D01*
X136458285Y-115701054D01*
X136940054Y-115379147D01*
X137160000Y-115049974D01*
X137379946Y-115379147D01*
X137861715Y-115701054D01*
X138430000Y-115814093D01*
X138998285Y-115701054D01*
X139480054Y-115379147D01*
X139700000Y-115049974D01*
X139919946Y-115379147D01*
X140401715Y-115701054D01*
X140970000Y-115814093D01*
X141538285Y-115701054D01*
X142020054Y-115379147D01*
X142240000Y-115049974D01*
X142459946Y-115379147D01*
X142941715Y-115701054D01*
X143510000Y-115814093D01*
X144078285Y-115701054D01*
X144560054Y-115379147D01*
X144780000Y-115049974D01*
X144999946Y-115379147D01*
X145481715Y-115701054D01*
X146050000Y-115814093D01*
X146618285Y-115701054D01*
X147100054Y-115379147D01*
X147320000Y-115049974D01*
X147539946Y-115379147D01*
X148021715Y-115701054D01*
X148590000Y-115814093D01*
X149158285Y-115701054D01*
X149640054Y-115379147D01*
X149860000Y-115049974D01*
X150079946Y-115379147D01*
X150561715Y-115701054D01*
X151130000Y-115814093D01*
X151698285Y-115701054D01*
X152180054Y-115379147D01*
X152400000Y-115049974D01*
X152619946Y-115379147D01*
X153101715Y-115701054D01*
X153670000Y-115814093D01*
X154238285Y-115701054D01*
X154720054Y-115379147D01*
X154940000Y-115049974D01*
X155159946Y-115379147D01*
X155641715Y-115701054D01*
X156210000Y-115814093D01*
X156778285Y-115701054D01*
X157260054Y-115379147D01*
X157480000Y-115049974D01*
X157699946Y-115379147D01*
X158181715Y-115701054D01*
X158750000Y-115814093D01*
X159318285Y-115701054D01*
X159800054Y-115379147D01*
X160020000Y-115049974D01*
X160239946Y-115379147D01*
X160721715Y-115701054D01*
X161290000Y-115814093D01*
X161858285Y-115701054D01*
X162340054Y-115379147D01*
X162560000Y-115049974D01*
X162779946Y-115379147D01*
X163261715Y-115701054D01*
X163830000Y-115814093D01*
X164398285Y-115701054D01*
X164880054Y-115379147D01*
X165100000Y-115049974D01*
X165319946Y-115379147D01*
X165801715Y-115701054D01*
X166370000Y-115814093D01*
X166938285Y-115701054D01*
X167420054Y-115379147D01*
X167640000Y-115049974D01*
X167859946Y-115379147D01*
X168341715Y-115701054D01*
X168910000Y-115814093D01*
X169478285Y-115701054D01*
X169960054Y-115379147D01*
X170180000Y-115049974D01*
X170399946Y-115379147D01*
X170881715Y-115701054D01*
X171450000Y-115814093D01*
X172018285Y-115701054D01*
X172500054Y-115379147D01*
X172720000Y-115049974D01*
X172939946Y-115379147D01*
X173421715Y-115701054D01*
X173990000Y-115814093D01*
X174558285Y-115701054D01*
X175040054Y-115379147D01*
X175247519Y-115068653D01*
X175276307Y-115074379D01*
X175479946Y-115379147D01*
X175961715Y-115701054D01*
X176530000Y-115814093D01*
X177098285Y-115701054D01*
X177580054Y-115379147D01*
X177609403Y-115335223D01*
X177681673Y-115509698D01*
X177860301Y-115688327D01*
X178093690Y-115785000D01*
X178784250Y-115785000D01*
X178943000Y-115626250D01*
X178943000Y-114427000D01*
X179197000Y-114427000D01*
X179197000Y-115626250D01*
X179355750Y-115785000D01*
X180046310Y-115785000D01*
X180279699Y-115688327D01*
X180458327Y-115509698D01*
X180555000Y-115276309D01*
X180555000Y-114585750D01*
X180396250Y-114427000D01*
X179197000Y-114427000D01*
X178943000Y-114427000D01*
X178923000Y-114427000D01*
X178923000Y-114173000D01*
X178943000Y-114173000D01*
X178943000Y-112973750D01*
X179197000Y-112973750D01*
X179197000Y-114173000D01*
X180396250Y-114173000D01*
X180555000Y-114014250D01*
X180555000Y-113323691D01*
X180458327Y-113090302D01*
X180279699Y-112911673D01*
X180046310Y-112815000D01*
X179355750Y-112815000D01*
X179197000Y-112973750D01*
X178943000Y-112973750D01*
X178784250Y-112815000D01*
X178093690Y-112815000D01*
X177860301Y-112911673D01*
X177681673Y-113090302D01*
X177609403Y-113264777D01*
X177580054Y-113220853D01*
X177098285Y-112898946D01*
X176530000Y-112785907D01*
X175961715Y-112898946D01*
X175633386Y-113118328D01*
X175614758Y-113099700D01*
X177085079Y-111629379D01*
X177255245Y-111374707D01*
X177315000Y-111074300D01*
X177315000Y-110713108D01*
X177509746Y-110582983D01*
X177810100Y-110133472D01*
X177811601Y-110125928D01*
X177838501Y-110216817D01*
X178180056Y-110638798D01*
X178657097Y-110897950D01*
X178728725Y-110912133D01*
X178943000Y-110789479D01*
X178943000Y-109347000D01*
X179197000Y-109347000D01*
X179197000Y-110789479D01*
X179411275Y-110912133D01*
X179482903Y-110897950D01*
X179959944Y-110638798D01*
X180301499Y-110216817D01*
X180455570Y-109696250D01*
X180455570Y-109347000D01*
X179197000Y-109347000D01*
X178943000Y-109347000D01*
X178923000Y-109347000D01*
X178923000Y-109093000D01*
X178943000Y-109093000D01*
X178943000Y-109073000D01*
X179197000Y-109073000D01*
X179197000Y-109093000D01*
X180455570Y-109093000D01*
X180455570Y-108743750D01*
X180301499Y-108223183D01*
X179959944Y-107801202D01*
X179736592Y-107679866D01*
X180788076Y-106628381D01*
X180788079Y-106628379D01*
X180958245Y-106373706D01*
X181018001Y-106073300D01*
X181018000Y-106073295D01*
X181018000Y-99122100D01*
X180958245Y-98821694D01*
X180788079Y-98567021D01*
X180725979Y-98504921D01*
X180471307Y-98334755D01*
X180384090Y-98317406D01*
X180350100Y-98146528D01*
X180049746Y-97697017D01*
X179600235Y-97396663D01*
X179070000Y-97291193D01*
X178539765Y-97396663D01*
X178090254Y-97697017D01*
X177800000Y-98131412D01*
X177509746Y-97697017D01*
X177060235Y-97396663D01*
X176530000Y-97291193D01*
X175999765Y-97396663D01*
X175550254Y-97697017D01*
X175260000Y-98131412D01*
X174969746Y-97697017D01*
X174520235Y-97396663D01*
X173990000Y-97291193D01*
X173459765Y-97396663D01*
X173010254Y-97697017D01*
X172720000Y-98131412D01*
X172429746Y-97697017D01*
X171980235Y-97396663D01*
X171450000Y-97291193D01*
X170919765Y-97396663D01*
X170470254Y-97697017D01*
X170180000Y-98131412D01*
X169889746Y-97697017D01*
X169440235Y-97396663D01*
X168910000Y-97291193D01*
X168379765Y-97396663D01*
X167930254Y-97697017D01*
X167640000Y-98131412D01*
X167349746Y-97697017D01*
X166900235Y-97396663D01*
X166370000Y-97291193D01*
X165839765Y-97396663D01*
X165390254Y-97697017D01*
X165100000Y-98131412D01*
X164809746Y-97697017D01*
X164538070Y-97515488D01*
X171267558Y-90786000D01*
X172291500Y-90786000D01*
X172591907Y-90726245D01*
X172846579Y-90556079D01*
X178167836Y-85234822D01*
X178539765Y-85483337D01*
X179070000Y-85588807D01*
X179600235Y-85483337D01*
X180049746Y-85182983D01*
X180350100Y-84733472D01*
X180455570Y-84203237D01*
X180455570Y-83436763D01*
X180350100Y-82906528D01*
X180049746Y-82457017D01*
X179600235Y-82156663D01*
X179070000Y-82051193D01*
X178539765Y-82156663D01*
X178090254Y-82457017D01*
X177800000Y-82891412D01*
X177509746Y-82457017D01*
X177060235Y-82156663D01*
X176530000Y-82051193D01*
X175999765Y-82156663D01*
X175550254Y-82457017D01*
X175260000Y-82891412D01*
X174969746Y-82457017D01*
X174520235Y-82156663D01*
X173990000Y-82051193D01*
X173459765Y-82156663D01*
X173010254Y-82457017D01*
X172720000Y-82891412D01*
X172429746Y-82457017D01*
X171980235Y-82156663D01*
X171450000Y-82051193D01*
X170919765Y-82156663D01*
X170470254Y-82457017D01*
X170180000Y-82891412D01*
X169889746Y-82457017D01*
X169440235Y-82156663D01*
X168910000Y-82051193D01*
X168379765Y-82156663D01*
X168007836Y-82405178D01*
X167411379Y-81808721D01*
X167156707Y-81638555D01*
X166856300Y-81578800D01*
X160826500Y-81578800D01*
X160526093Y-81638555D01*
X160271421Y-81808721D01*
X159665831Y-82414311D01*
X159280235Y-82156663D01*
X158750000Y-82051193D01*
X158219765Y-82156663D01*
X157770254Y-82457017D01*
X157480000Y-82891412D01*
X157189746Y-82457017D01*
X156740235Y-82156663D01*
X156210000Y-82051193D01*
X155679765Y-82156663D01*
X155230254Y-82457017D01*
X154929900Y-82906528D01*
X154928399Y-82914072D01*
X154901499Y-82823183D01*
X154559944Y-82401202D01*
X154082903Y-82142050D01*
X154011275Y-82127867D01*
X153797000Y-82250521D01*
X153797000Y-83693000D01*
X153817000Y-83693000D01*
X153817000Y-83947000D01*
X153797000Y-83947000D01*
X153797000Y-83967000D01*
X153543000Y-83967000D01*
X153543000Y-83947000D01*
X153523000Y-83947000D01*
X153523000Y-83693000D01*
X153543000Y-83693000D01*
X153543000Y-82250521D01*
X153328725Y-82127867D01*
X153257097Y-82142050D01*
X152780056Y-82401202D01*
X152438501Y-82823183D01*
X152411601Y-82914072D01*
X152410100Y-82906528D01*
X152109746Y-82457017D01*
X151660235Y-82156663D01*
X151130000Y-82051193D01*
X150599765Y-82156663D01*
X150150254Y-82457017D01*
X149860000Y-82891412D01*
X149569746Y-82457017D01*
X149120235Y-82156663D01*
X148590000Y-82051193D01*
X148059765Y-82156663D01*
X147610254Y-82457017D01*
X147320000Y-82891412D01*
X147029746Y-82457017D01*
X146580235Y-82156663D01*
X146050000Y-82051193D01*
X145519765Y-82156663D01*
X145070254Y-82457017D01*
X144780000Y-82891412D01*
X144489746Y-82457017D01*
X144040235Y-82156663D01*
X143510000Y-82051193D01*
X142979765Y-82156663D01*
X142530254Y-82457017D01*
X142240000Y-82891412D01*
X141949746Y-82457017D01*
X141500235Y-82156663D01*
X140970000Y-82051193D01*
X140439765Y-82156663D01*
X139990254Y-82457017D01*
X139700000Y-82891412D01*
X139409746Y-82457017D01*
X138960235Y-82156663D01*
X138430000Y-82051193D01*
X137899765Y-82156663D01*
X137450254Y-82457017D01*
X137160000Y-82891412D01*
X136869746Y-82457017D01*
X136420235Y-82156663D01*
X135890000Y-82051193D01*
X135359765Y-82156663D01*
X134910254Y-82457017D01*
X134620000Y-82891412D01*
X134329746Y-82457017D01*
X133880235Y-82156663D01*
X133350000Y-82051193D01*
X132819765Y-82156663D01*
X132370254Y-82457017D01*
X132080000Y-82891412D01*
X131789746Y-82457017D01*
X131340235Y-82156663D01*
X130810000Y-82051193D01*
X130279765Y-82156663D01*
X129830254Y-82457017D01*
X129529900Y-82906528D01*
X129504345Y-83035000D01*
X119684958Y-83035000D01*
X120654958Y-82065000D01*
X122637799Y-82065000D01*
X122639990Y-82070303D01*
X123032630Y-82463629D01*
X123545900Y-82676757D01*
X124101661Y-82677242D01*
X124615303Y-82465010D01*
X125008629Y-82072370D01*
X125221757Y-81559100D01*
X125222242Y-81003339D01*
X125213397Y-80981930D01*
X152877675Y-80981930D01*
X152945735Y-81222931D01*
X153465034Y-81407767D01*
X154015538Y-81379805D01*
X154394265Y-81222931D01*
X154462325Y-80981930D01*
X153670000Y-80189605D01*
X152877675Y-80981930D01*
X125213397Y-80981930D01*
X125010010Y-80489697D01*
X124617370Y-80096371D01*
X124104100Y-79883243D01*
X123548339Y-79882758D01*
X123034697Y-80094990D01*
X122641371Y-80487630D01*
X122638311Y-80495000D01*
X120329800Y-80495000D01*
X120029394Y-80554755D01*
X119774721Y-80724921D01*
X114392400Y-86107242D01*
X114392400Y-79805034D01*
X152272233Y-79805034D01*
X152300195Y-80355538D01*
X152457069Y-80734265D01*
X152698070Y-80802325D01*
X153490395Y-80010000D01*
X152698070Y-79217675D01*
X152457069Y-79285735D01*
X152272233Y-79805034D01*
X114392400Y-79805034D01*
X114392400Y-79038070D01*
X152877675Y-79038070D01*
X153670000Y-79830395D01*
X154462325Y-79038070D01*
X154394265Y-78797069D01*
X153874966Y-78612233D01*
X153324462Y-78640195D01*
X152945735Y-78797069D01*
X152877675Y-79038070D01*
X114392400Y-79038070D01*
X114392400Y-78318058D01*
X117395079Y-75315379D01*
X117424548Y-75271275D01*
X126678197Y-75271275D01*
X126696843Y-75373305D01*
X126967290Y-75846324D01*
X127398167Y-76179841D01*
X127923877Y-76323081D01*
X128143000Y-76162386D01*
X128143000Y-75057000D01*
X128397000Y-75057000D01*
X128397000Y-76162386D01*
X128616123Y-76323081D01*
X129141833Y-76179841D01*
X129572710Y-75846324D01*
X129843157Y-75373305D01*
X129861803Y-75271275D01*
X129739149Y-75057000D01*
X128397000Y-75057000D01*
X128143000Y-75057000D01*
X126800851Y-75057000D01*
X126678197Y-75271275D01*
X117424548Y-75271275D01*
X117565245Y-75060706D01*
X117618049Y-74795247D01*
X117851375Y-74639343D01*
X118126865Y-74227043D01*
X118327264Y-74576894D01*
X118758279Y-74909964D01*
X119283945Y-75052739D01*
X119503000Y-74891868D01*
X119503000Y-73787000D01*
X119757000Y-73787000D01*
X119757000Y-74891868D01*
X119976055Y-75052739D01*
X120501721Y-74909964D01*
X120932736Y-74576894D01*
X121203481Y-74104235D01*
X121222318Y-74001185D01*
X121099656Y-73787000D01*
X119757000Y-73787000D01*
X119503000Y-73787000D01*
X119483000Y-73787000D01*
X119483000Y-73533000D01*
X119503000Y-73533000D01*
X119503000Y-73513000D01*
X119757000Y-73513000D01*
X119757000Y-73533000D01*
X121099656Y-73533000D01*
X121222318Y-73318815D01*
X121203481Y-73215765D01*
X121082981Y-73005400D01*
X122650342Y-73005400D01*
X123702421Y-74057479D01*
X123957094Y-74227645D01*
X124257500Y-74287400D01*
X126810789Y-74287400D01*
X126696843Y-74486695D01*
X126678197Y-74588725D01*
X126800851Y-74803000D01*
X128143000Y-74803000D01*
X128143000Y-74783000D01*
X128397000Y-74783000D01*
X128397000Y-74803000D01*
X129739149Y-74803000D01*
X129861803Y-74588725D01*
X129843157Y-74486695D01*
X129729211Y-74287400D01*
X141657700Y-74287400D01*
X141958107Y-74227645D01*
X142212779Y-74057479D01*
X142900045Y-73370213D01*
X144614392Y-73370213D01*
X144683857Y-73612397D01*
X145207302Y-73799144D01*
X145762368Y-73771362D01*
X146146143Y-73612397D01*
X146215608Y-73370213D01*
X145415000Y-72569605D01*
X144614392Y-73370213D01*
X142900045Y-73370213D01*
X144009769Y-72260489D01*
X144033638Y-72737368D01*
X144192603Y-73121143D01*
X144434787Y-73190608D01*
X145235395Y-72390000D01*
X145594605Y-72390000D01*
X146395213Y-73190608D01*
X146637397Y-73121143D01*
X146824144Y-72597698D01*
X146796362Y-72042632D01*
X146637397Y-71658857D01*
X146395213Y-71589392D01*
X145594605Y-72390000D01*
X145235395Y-72390000D01*
X145221253Y-72375858D01*
X145400858Y-72196253D01*
X145415000Y-72210395D01*
X146215608Y-71409787D01*
X146146143Y-71167603D01*
X145995055Y-71113700D01*
X147099094Y-71113700D01*
X147106273Y-71120892D01*
X147449801Y-71263538D01*
X147821767Y-71263862D01*
X148165543Y-71121817D01*
X148428792Y-70859027D01*
X148571438Y-70515499D01*
X148571762Y-70143533D01*
X148429717Y-69799757D01*
X148166927Y-69536508D01*
X147823399Y-69393862D01*
X147451433Y-69393538D01*
X147107657Y-69535583D01*
X147099526Y-69543700D01*
X144831405Y-69543700D01*
X144831400Y-69543699D01*
X144530994Y-69603455D01*
X144276321Y-69773621D01*
X141332542Y-72717400D01*
X141117758Y-72717400D01*
X145130601Y-68704557D01*
X145135900Y-68706757D01*
X145691661Y-68707242D01*
X146205303Y-68495010D01*
X146598629Y-68102370D01*
X146683526Y-67897916D01*
X155275000Y-76489390D01*
X155275000Y-78985586D01*
X155036056Y-79224113D01*
X154946621Y-79439496D01*
X154882931Y-79285735D01*
X154641930Y-79217675D01*
X153849605Y-80010000D01*
X154641930Y-80802325D01*
X154882931Y-80734265D01*
X154941769Y-80568960D01*
X155034686Y-80793837D01*
X155424113Y-81183944D01*
X155933184Y-81395329D01*
X156484398Y-81395810D01*
X156993837Y-81185314D01*
X157383944Y-80795887D01*
X157595329Y-80286816D01*
X157595810Y-79735602D01*
X157385314Y-79226163D01*
X157319267Y-79160000D01*
X158522560Y-79160000D01*
X158522560Y-80860000D01*
X158566838Y-81095317D01*
X158705910Y-81311441D01*
X158918110Y-81456431D01*
X159170000Y-81507440D01*
X160870000Y-81507440D01*
X161105317Y-81463162D01*
X161321441Y-81324090D01*
X161466431Y-81111890D01*
X161517440Y-80860000D01*
X161517440Y-79160000D01*
X161473162Y-78924683D01*
X161334090Y-78708559D01*
X161121890Y-78563569D01*
X160870000Y-78512560D01*
X159170000Y-78512560D01*
X158934683Y-78556838D01*
X158718559Y-78695910D01*
X158573569Y-78908110D01*
X158522560Y-79160000D01*
X157319267Y-79160000D01*
X157145000Y-78985429D01*
X157145000Y-76102100D01*
X157073827Y-75744291D01*
X156871145Y-75440955D01*
X154794826Y-73364636D01*
X173389024Y-73364636D01*
X173622287Y-73929175D01*
X174053833Y-74361475D01*
X174617964Y-74595723D01*
X175228796Y-74596256D01*
X175793335Y-74362993D01*
X176225635Y-73931447D01*
X176459883Y-73367316D01*
X176460416Y-72756484D01*
X176227153Y-72191945D01*
X175795607Y-71759645D01*
X175231476Y-71525397D01*
X174620644Y-71524864D01*
X174056105Y-71758127D01*
X173623805Y-72189673D01*
X173389557Y-72753804D01*
X173389024Y-73364636D01*
X154794826Y-73364636D01*
X145107630Y-63677440D01*
X145580000Y-63677440D01*
X145815317Y-63633162D01*
X146031441Y-63494090D01*
X146176431Y-63281890D01*
X146227440Y-63030000D01*
X146227440Y-61430000D01*
X146183162Y-61194683D01*
X146044090Y-60978559D01*
X145831890Y-60833569D01*
X145580000Y-60782560D01*
X143980000Y-60782560D01*
X143744683Y-60826838D01*
X143528559Y-60965910D01*
X143383569Y-61178110D01*
X143332560Y-61430000D01*
X143332560Y-62695300D01*
X142887890Y-62695300D01*
X141761445Y-61568855D01*
X141458109Y-61366173D01*
X141100300Y-61295000D01*
X140786735Y-61295000D01*
X140714698Y-61187189D01*
X140249151Y-60876120D01*
X139700000Y-60766887D01*
X139150849Y-60876120D01*
X138685302Y-61187189D01*
X138613265Y-61295000D01*
X134620000Y-61295000D01*
X134262191Y-61366173D01*
X133958855Y-61568855D01*
X127882710Y-67645000D01*
X120921004Y-67645000D01*
X120891375Y-67600657D01*
X120442049Y-67300427D01*
X120315000Y-67275155D01*
X120315000Y-67229700D01*
X120243827Y-66871891D01*
X120041145Y-66568555D01*
X119737809Y-66365873D01*
X119380000Y-66294700D01*
X118964600Y-66294700D01*
X118964600Y-61511918D01*
X118973827Y-61498109D01*
X119038564Y-61172657D01*
X119195317Y-61143162D01*
X119411441Y-61004090D01*
X119556431Y-60791890D01*
X119607440Y-60540000D01*
X119607440Y-59966661D01*
X122427758Y-59966661D01*
X122639990Y-60480303D01*
X123032630Y-60873629D01*
X123545900Y-61086757D01*
X124101661Y-61087242D01*
X124615303Y-60875010D01*
X125008629Y-60482370D01*
X125221757Y-59969100D01*
X125221759Y-59966661D01*
X133857758Y-59966661D01*
X134069990Y-60480303D01*
X134462630Y-60873629D01*
X134975900Y-61086757D01*
X135531661Y-61087242D01*
X136045303Y-60875010D01*
X136438629Y-60482370D01*
X136651757Y-59969100D01*
X136652242Y-59413339D01*
X136440010Y-58899697D01*
X136047370Y-58506371D01*
X135534100Y-58293243D01*
X134978339Y-58292758D01*
X134464697Y-58504990D01*
X134071371Y-58897630D01*
X133858243Y-59410900D01*
X133857758Y-59966661D01*
X125221759Y-59966661D01*
X125222242Y-59413339D01*
X125010010Y-58899697D01*
X124617370Y-58506371D01*
X124104100Y-58293243D01*
X123548339Y-58292758D01*
X123034697Y-58504990D01*
X122641371Y-58897630D01*
X122428243Y-59410900D01*
X122427758Y-59966661D01*
X119607440Y-59966661D01*
X119607440Y-58840000D01*
X119563162Y-58604683D01*
X119424090Y-58388559D01*
X119211890Y-58243569D01*
X118960000Y-58192560D01*
X117260000Y-58192560D01*
X117024683Y-58236838D01*
X116808559Y-58375910D01*
X116663569Y-58588110D01*
X116641699Y-58696107D01*
X116336924Y-58418355D01*
X115926890Y-58248524D01*
X115697000Y-58369845D01*
X115697000Y-59563000D01*
X115717000Y-59563000D01*
X115717000Y-59817000D01*
X115697000Y-59817000D01*
X115697000Y-61010155D01*
X115926890Y-61131476D01*
X116336924Y-60961645D01*
X116639937Y-60685499D01*
X116656838Y-60775317D01*
X116795910Y-60991441D01*
X117008110Y-61136431D01*
X117107364Y-61156530D01*
X117094600Y-61220700D01*
X117094600Y-66294600D01*
X115326800Y-66294600D01*
X114968991Y-66365773D01*
X114665655Y-66568455D01*
X111733855Y-69500255D01*
X111531173Y-69803591D01*
X111460000Y-70161400D01*
X111460000Y-80239435D01*
X111211371Y-80487630D01*
X110998243Y-81000900D01*
X110997758Y-81556661D01*
X108635000Y-81556661D01*
X108635000Y-60046892D01*
X114128514Y-60046892D01*
X114374817Y-60571358D01*
X114803076Y-60961645D01*
X115213110Y-61131476D01*
X115443000Y-61010155D01*
X115443000Y-59817000D01*
X114249181Y-59817000D01*
X114128514Y-60046892D01*
X108635000Y-60046892D01*
X108635000Y-59333108D01*
X114128514Y-59333108D01*
X114249181Y-59563000D01*
X115443000Y-59563000D01*
X115443000Y-58369845D01*
X115213110Y-58248524D01*
X114803076Y-58418355D01*
X114374817Y-58808642D01*
X114128514Y-59333108D01*
X108635000Y-59333108D01*
X108635000Y-56860213D01*
X123024392Y-56860213D01*
X123093857Y-57102397D01*
X123617302Y-57289144D01*
X124172368Y-57261362D01*
X124556143Y-57102397D01*
X124625608Y-56860213D01*
X123825000Y-56059605D01*
X123024392Y-56860213D01*
X108635000Y-56860213D01*
X108635000Y-55672302D01*
X122415856Y-55672302D01*
X122443638Y-56227368D01*
X122602603Y-56611143D01*
X122844787Y-56680608D01*
X123645395Y-55880000D01*
X124004605Y-55880000D01*
X124805213Y-56680608D01*
X125047397Y-56611143D01*
X125209540Y-56156661D01*
X133857758Y-56156661D01*
X134069990Y-56670303D01*
X134462630Y-57063629D01*
X134975900Y-57276757D01*
X135531661Y-57277242D01*
X136045303Y-57065010D01*
X136438629Y-56672370D01*
X136651757Y-56159100D01*
X136652242Y-55603339D01*
X136440010Y-55089697D01*
X136047370Y-54696371D01*
X135534100Y-54483243D01*
X134978339Y-54482758D01*
X134464697Y-54694990D01*
X134071371Y-55087630D01*
X133858243Y-55600900D01*
X133857758Y-56156661D01*
X125209540Y-56156661D01*
X125234144Y-56087698D01*
X125206362Y-55532632D01*
X125047397Y-55148857D01*
X124805213Y-55079392D01*
X124004605Y-55880000D01*
X123645395Y-55880000D01*
X122844787Y-55079392D01*
X122602603Y-55148857D01*
X122415856Y-55672302D01*
X108635000Y-55672302D01*
X108635000Y-54899787D01*
X123024392Y-54899787D01*
X123825000Y-55700395D01*
X124625608Y-54899787D01*
X124556143Y-54657603D01*
X124032698Y-54470856D01*
X123477632Y-54498638D01*
X123093857Y-54657603D01*
X123024392Y-54899787D01*
X108635000Y-54899787D01*
X108635000Y-53810000D01*
X138252560Y-53810000D01*
X138252560Y-55410000D01*
X138296838Y-55645317D01*
X138435910Y-55861441D01*
X138648110Y-56006431D01*
X138900000Y-56057440D01*
X140500000Y-56057440D01*
X140735317Y-56013162D01*
X140951441Y-55874090D01*
X141096431Y-55661890D01*
X141147440Y-55410000D01*
X141147440Y-55395000D01*
X143593038Y-55395000D01*
X143765302Y-55652811D01*
X144230849Y-55963880D01*
X144780000Y-56073113D01*
X145329151Y-55963880D01*
X145794698Y-55652811D01*
X146105767Y-55187264D01*
X146215000Y-54638113D01*
X146215000Y-54581887D01*
X146105767Y-54032736D01*
X145794698Y-53567189D01*
X145329151Y-53256120D01*
X144780000Y-53146887D01*
X144230849Y-53256120D01*
X143765302Y-53567189D01*
X143593038Y-53825000D01*
X141147440Y-53825000D01*
X141147440Y-53810000D01*
X141103162Y-53574683D01*
X140964090Y-53358559D01*
X140751890Y-53213569D01*
X140500000Y-53162560D01*
X138900000Y-53162560D01*
X138664683Y-53206838D01*
X138448559Y-53345910D01*
X138303569Y-53558110D01*
X138252560Y-53810000D01*
X108635000Y-53810000D01*
X108635000Y-51076661D01*
X133857758Y-51076661D01*
X134069990Y-51590303D01*
X134462630Y-51983629D01*
X134975900Y-52196757D01*
X135531661Y-52197242D01*
X136045303Y-51985010D01*
X136438629Y-51592370D01*
X136651757Y-51079100D01*
X136651759Y-51076661D01*
X145287758Y-51076661D01*
X145499990Y-51590303D01*
X145892630Y-51983629D01*
X146405900Y-52196757D01*
X146961661Y-52197242D01*
X147475303Y-51985010D01*
X147868629Y-51592370D01*
X148081757Y-51079100D01*
X148082242Y-50523339D01*
X147870010Y-50009697D01*
X147477370Y-49616371D01*
X146964100Y-49403243D01*
X146408339Y-49402758D01*
X145894697Y-49614990D01*
X145501371Y-50007630D01*
X145288243Y-50520900D01*
X145287758Y-51076661D01*
X136651759Y-51076661D01*
X136652242Y-50523339D01*
X136440010Y-50009697D01*
X136047370Y-49616371D01*
X135534100Y-49403243D01*
X134978339Y-49402758D01*
X134464697Y-49614990D01*
X134071371Y-50007630D01*
X133858243Y-50520900D01*
X133857758Y-51076661D01*
X108635000Y-51076661D01*
X108635000Y-49113968D01*
X173639258Y-49113968D01*
X173834512Y-49586519D01*
X174195740Y-49948378D01*
X174667948Y-50144456D01*
X175179248Y-50144902D01*
X175651799Y-49949648D01*
X176013658Y-49588420D01*
X176209736Y-49116212D01*
X176210182Y-48604912D01*
X176014928Y-48132361D01*
X175653700Y-47770502D01*
X175181492Y-47574424D01*
X174670192Y-47573978D01*
X174197641Y-47769232D01*
X173835782Y-48130460D01*
X173639704Y-48602668D01*
X173639258Y-49113968D01*
X108635000Y-49113968D01*
X108635000Y-46700213D01*
X134454392Y-46700213D01*
X134523857Y-46942397D01*
X135047302Y-47129144D01*
X135602368Y-47101362D01*
X135986143Y-46942397D01*
X136055608Y-46700213D01*
X135255000Y-45899605D01*
X134454392Y-46700213D01*
X108635000Y-46700213D01*
X108635000Y-45512302D01*
X133845856Y-45512302D01*
X133873638Y-46067368D01*
X134032603Y-46451143D01*
X134274787Y-46520608D01*
X135075395Y-45720000D01*
X135434605Y-45720000D01*
X136235213Y-46520608D01*
X136477397Y-46451143D01*
X136639540Y-45996661D01*
X145287758Y-45996661D01*
X145499990Y-46510303D01*
X145892630Y-46903629D01*
X146405900Y-47116757D01*
X146961661Y-47117242D01*
X147475303Y-46905010D01*
X147868629Y-46512370D01*
X148081757Y-45999100D01*
X148082242Y-45443339D01*
X147870010Y-44929697D01*
X147477370Y-44536371D01*
X146964100Y-44323243D01*
X146408339Y-44322758D01*
X145894697Y-44534990D01*
X145501371Y-44927630D01*
X145288243Y-45440900D01*
X145287758Y-45996661D01*
X136639540Y-45996661D01*
X136664144Y-45927698D01*
X136636362Y-45372632D01*
X136477397Y-44988857D01*
X136235213Y-44919392D01*
X135434605Y-45720000D01*
X135075395Y-45720000D01*
X134274787Y-44919392D01*
X134032603Y-44988857D01*
X133845856Y-45512302D01*
X108635000Y-45512302D01*
X108635000Y-44739787D01*
X134454392Y-44739787D01*
X135255000Y-45540395D01*
X136055608Y-44739787D01*
X135986143Y-44497603D01*
X135462698Y-44310856D01*
X134907632Y-44338638D01*
X134523857Y-44497603D01*
X134454392Y-44739787D01*
X108635000Y-44739787D01*
X108635000Y-42595000D01*
X183465000Y-42595000D01*
X183465000Y-139015000D01*
G36*
X115286477Y-98143735D02*
X115028395Y-98529983D01*
X114922968Y-99060000D01*
X115028395Y-99590017D01*
X115328625Y-100039343D01*
X115777951Y-100339573D01*
X116307968Y-100445000D01*
X116872032Y-100445000D01*
X117402049Y-100339573D01*
X117851375Y-100039343D01*
X118110000Y-99652283D01*
X118368625Y-100039343D01*
X118817951Y-100339573D01*
X119347968Y-100445000D01*
X119912032Y-100445000D01*
X120442049Y-100339573D01*
X120891375Y-100039343D01*
X121191605Y-99590017D01*
X121297032Y-99060000D01*
X121191605Y-98529983D01*
X121108361Y-98405400D01*
X128441442Y-98405400D01*
X125174921Y-101671921D01*
X125004755Y-101926593D01*
X124961165Y-102145735D01*
X124945000Y-102227000D01*
X124945000Y-102317799D01*
X124939697Y-102319990D01*
X124546371Y-102712630D01*
X124333243Y-103225900D01*
X124332758Y-103781661D01*
X124544990Y-104295303D01*
X124937630Y-104688629D01*
X125450900Y-104901757D01*
X126006661Y-104902242D01*
X126520303Y-104690010D01*
X126913629Y-104297370D01*
X127126757Y-103784100D01*
X127127242Y-103228339D01*
X126915010Y-102714697D01*
X126633981Y-102433177D01*
X129457528Y-99609630D01*
X129529900Y-99973472D01*
X129830254Y-100422983D01*
X130025000Y-100553108D01*
X130025000Y-102642560D01*
X129960000Y-102642560D01*
X129724683Y-102686838D01*
X129508559Y-102825910D01*
X129363569Y-103038110D01*
X129312560Y-103290000D01*
X129312560Y-104990000D01*
X129356838Y-105225317D01*
X129495910Y-105441441D01*
X129708110Y-105586431D01*
X129960000Y-105637440D01*
X131660000Y-105637440D01*
X131895317Y-105593162D01*
X132111441Y-105454090D01*
X132256431Y-105241890D01*
X132270086Y-105174459D01*
X132299946Y-105219147D01*
X132781715Y-105541054D01*
X133350000Y-105654093D01*
X133918285Y-105541054D01*
X134400054Y-105219147D01*
X134620000Y-104889974D01*
X134839946Y-105219147D01*
X135321715Y-105541054D01*
X135890000Y-105654093D01*
X136458285Y-105541054D01*
X136940054Y-105219147D01*
X137167702Y-104878447D01*
X137234817Y-105021358D01*
X137663076Y-105411645D01*
X137821627Y-105477315D01*
X136682942Y-106616000D01*
X135719500Y-106616000D01*
X135419093Y-106675755D01*
X135164421Y-106845921D01*
X134223989Y-107786353D01*
X133880235Y-107556663D01*
X133350000Y-107451193D01*
X132819765Y-107556663D01*
X132370254Y-107857017D01*
X132080000Y-108291412D01*
X131789746Y-107857017D01*
X131340235Y-107556663D01*
X130810000Y-107451193D01*
X130279765Y-107556663D01*
X129830254Y-107857017D01*
X129529900Y-108306528D01*
X129424430Y-108836763D01*
X129424430Y-109603237D01*
X129529900Y-110133472D01*
X129702710Y-110392100D01*
X124541708Y-110392100D01*
X124523322Y-110373714D01*
X124816123Y-110244467D01*
X125084388Y-109544194D01*
X125064250Y-108794565D01*
X124816123Y-108195533D01*
X124523320Y-108066285D01*
X123369605Y-109220000D01*
X123383748Y-109234143D01*
X123204143Y-109413748D01*
X123190000Y-109399605D01*
X123175858Y-109413748D01*
X122996253Y-109234143D01*
X123010395Y-109220000D01*
X121856680Y-108066285D01*
X121563877Y-108195533D01*
X121295612Y-108895806D01*
X121315750Y-109645435D01*
X121563877Y-110244467D01*
X121856678Y-110373714D01*
X121838292Y-110392100D01*
X117852258Y-110392100D01*
X117337921Y-109877763D01*
X117454672Y-109596595D01*
X117455326Y-108846695D01*
X117168957Y-108153628D01*
X116902475Y-107886680D01*
X122036285Y-107886680D01*
X123190000Y-109040395D01*
X124343715Y-107886680D01*
X124214467Y-107593877D01*
X123514194Y-107325612D01*
X122764565Y-107345750D01*
X122165533Y-107593877D01*
X122036285Y-107886680D01*
X116902475Y-107886680D01*
X116639161Y-107622907D01*
X115946595Y-107335328D01*
X115196695Y-107334674D01*
X114503628Y-107621043D01*
X114392400Y-107732077D01*
X114392400Y-97249658D01*
X115286477Y-98143735D01*
X115286477Y-98143735D01*
G37*
X115286477Y-98143735D02*
X115028395Y-98529983D01*
X114922968Y-99060000D01*
X115028395Y-99590017D01*
X115328625Y-100039343D01*
X115777951Y-100339573D01*
X116307968Y-100445000D01*
X116872032Y-100445000D01*
X117402049Y-100339573D01*
X117851375Y-100039343D01*
X118110000Y-99652283D01*
X118368625Y-100039343D01*
X118817951Y-100339573D01*
X119347968Y-100445000D01*
X119912032Y-100445000D01*
X120442049Y-100339573D01*
X120891375Y-100039343D01*
X121191605Y-99590017D01*
X121297032Y-99060000D01*
X121191605Y-98529983D01*
X121108361Y-98405400D01*
X128441442Y-98405400D01*
X125174921Y-101671921D01*
X125004755Y-101926593D01*
X124961165Y-102145735D01*
X124945000Y-102227000D01*
X124945000Y-102317799D01*
X124939697Y-102319990D01*
X124546371Y-102712630D01*
X124333243Y-103225900D01*
X124332758Y-103781661D01*
X124544990Y-104295303D01*
X124937630Y-104688629D01*
X125450900Y-104901757D01*
X126006661Y-104902242D01*
X126520303Y-104690010D01*
X126913629Y-104297370D01*
X127126757Y-103784100D01*
X127127242Y-103228339D01*
X126915010Y-102714697D01*
X126633981Y-102433177D01*
X129457528Y-99609630D01*
X129529900Y-99973472D01*
X129830254Y-100422983D01*
X130025000Y-100553108D01*
X130025000Y-102642560D01*
X129960000Y-102642560D01*
X129724683Y-102686838D01*
X129508559Y-102825910D01*
X129363569Y-103038110D01*
X129312560Y-103290000D01*
X129312560Y-104990000D01*
X129356838Y-105225317D01*
X129495910Y-105441441D01*
X129708110Y-105586431D01*
X129960000Y-105637440D01*
X131660000Y-105637440D01*
X131895317Y-105593162D01*
X132111441Y-105454090D01*
X132256431Y-105241890D01*
X132270086Y-105174459D01*
X132299946Y-105219147D01*
X132781715Y-105541054D01*
X133350000Y-105654093D01*
X133918285Y-105541054D01*
X134400054Y-105219147D01*
X134620000Y-104889974D01*
X134839946Y-105219147D01*
X135321715Y-105541054D01*
X135890000Y-105654093D01*
X136458285Y-105541054D01*
X136940054Y-105219147D01*
X137167702Y-104878447D01*
X137234817Y-105021358D01*
X137663076Y-105411645D01*
X137821627Y-105477315D01*
X136682942Y-106616000D01*
X135719500Y-106616000D01*
X135419093Y-106675755D01*
X135164421Y-106845921D01*
X134223989Y-107786353D01*
X133880235Y-107556663D01*
X133350000Y-107451193D01*
X132819765Y-107556663D01*
X132370254Y-107857017D01*
X132080000Y-108291412D01*
X131789746Y-107857017D01*
X131340235Y-107556663D01*
X130810000Y-107451193D01*
X130279765Y-107556663D01*
X129830254Y-107857017D01*
X129529900Y-108306528D01*
X129424430Y-108836763D01*
X129424430Y-109603237D01*
X129529900Y-110133472D01*
X129702710Y-110392100D01*
X124541708Y-110392100D01*
X124523322Y-110373714D01*
X124816123Y-110244467D01*
X125084388Y-109544194D01*
X125064250Y-108794565D01*
X124816123Y-108195533D01*
X124523320Y-108066285D01*
X123369605Y-109220000D01*
X123383748Y-109234143D01*
X123204143Y-109413748D01*
X123190000Y-109399605D01*
X123175858Y-109413748D01*
X122996253Y-109234143D01*
X123010395Y-109220000D01*
X121856680Y-108066285D01*
X121563877Y-108195533D01*
X121295612Y-108895806D01*
X121315750Y-109645435D01*
X121563877Y-110244467D01*
X121856678Y-110373714D01*
X121838292Y-110392100D01*
X117852258Y-110392100D01*
X117337921Y-109877763D01*
X117454672Y-109596595D01*
X117455326Y-108846695D01*
X117168957Y-108153628D01*
X116902475Y-107886680D01*
X122036285Y-107886680D01*
X123190000Y-109040395D01*
X124343715Y-107886680D01*
X124214467Y-107593877D01*
X123514194Y-107325612D01*
X122764565Y-107345750D01*
X122165533Y-107593877D01*
X122036285Y-107886680D01*
X116902475Y-107886680D01*
X116639161Y-107622907D01*
X115946595Y-107335328D01*
X115196695Y-107334674D01*
X114503628Y-107621043D01*
X114392400Y-107732077D01*
X114392400Y-97249658D01*
X115286477Y-98143735D01*
G36*
X140439765Y-100723337D02*
X140970000Y-100828807D01*
X141455200Y-100732295D01*
X141455200Y-101263242D01*
X140014421Y-102704021D01*
X139844255Y-102958693D01*
X139804033Y-103160900D01*
X139784500Y-103259100D01*
X139784500Y-103514442D01*
X139757836Y-103541106D01*
X139625183Y-103258642D01*
X139196924Y-102868355D01*
X138786890Y-102698524D01*
X138557000Y-102819845D01*
X138557000Y-104013000D01*
X138577000Y-104013000D01*
X138577000Y-104267000D01*
X138557000Y-104267000D01*
X138557000Y-104287000D01*
X138303000Y-104287000D01*
X138303000Y-104267000D01*
X138283000Y-104267000D01*
X138283000Y-104013000D01*
X138303000Y-104013000D01*
X138303000Y-102819845D01*
X138073110Y-102698524D01*
X137677632Y-102862326D01*
X140066218Y-100473740D01*
X140439765Y-100723337D01*
X140439765Y-100723337D01*
G37*
X140439765Y-100723337D02*
X140970000Y-100828807D01*
X141455200Y-100732295D01*
X141455200Y-101263242D01*
X140014421Y-102704021D01*
X139844255Y-102958693D01*
X139804033Y-103160900D01*
X139784500Y-103259100D01*
X139784500Y-103514442D01*
X139757836Y-103541106D01*
X139625183Y-103258642D01*
X139196924Y-102868355D01*
X138786890Y-102698524D01*
X138557000Y-102819845D01*
X138557000Y-104013000D01*
X138577000Y-104013000D01*
X138577000Y-104267000D01*
X138557000Y-104267000D01*
X138557000Y-104287000D01*
X138303000Y-104287000D01*
X138303000Y-104267000D01*
X138283000Y-104267000D01*
X138283000Y-104013000D01*
X138303000Y-104013000D01*
X138303000Y-102819845D01*
X138073110Y-102698524D01*
X137677632Y-102862326D01*
X140066218Y-100473740D01*
X140439765Y-100723337D01*
G36*
X162753748Y-102855858D02*
X162739605Y-102870000D01*
X162753748Y-102884143D01*
X162574143Y-103063748D01*
X162560000Y-103049605D01*
X162545858Y-103063748D01*
X162366253Y-102884143D01*
X162380395Y-102870000D01*
X162366253Y-102855858D01*
X162545858Y-102676253D01*
X162560000Y-102690395D01*
X162574143Y-102676253D01*
X162753748Y-102855858D01*
X162753748Y-102855858D01*
G37*
X162753748Y-102855858D02*
X162739605Y-102870000D01*
X162753748Y-102884143D01*
X162574143Y-103063748D01*
X162560000Y-103049605D01*
X162545858Y-103063748D01*
X162366253Y-102884143D01*
X162380395Y-102870000D01*
X162366253Y-102855858D01*
X162545858Y-102676253D01*
X162560000Y-102690395D01*
X162574143Y-102676253D01*
X162753748Y-102855858D01*
G36*
X156337000Y-98933000D02*
X156357000Y-98933000D01*
X156357000Y-99187000D01*
X156337000Y-99187000D01*
X156337000Y-100629479D01*
X156551275Y-100752133D01*
X156622903Y-100737950D01*
X156765700Y-100660376D01*
X156765700Y-101108442D01*
X155579021Y-102295121D01*
X155490010Y-102079697D01*
X155097370Y-101686371D01*
X154584100Y-101473243D01*
X154028339Y-101472758D01*
X153514697Y-101684990D01*
X153121371Y-102077630D01*
X153114300Y-102094659D01*
X153114300Y-100706322D01*
X153139765Y-100723337D01*
X153670000Y-100828807D01*
X154200235Y-100723337D01*
X154649746Y-100422983D01*
X154950100Y-99973472D01*
X154951601Y-99965928D01*
X154978501Y-100056817D01*
X155320056Y-100478798D01*
X155797097Y-100737950D01*
X155868725Y-100752133D01*
X156083000Y-100629479D01*
X156083000Y-99187000D01*
X156063000Y-99187000D01*
X156063000Y-98933000D01*
X156083000Y-98933000D01*
X156083000Y-98913000D01*
X156337000Y-98913000D01*
X156337000Y-98933000D01*
X156337000Y-98933000D01*
G37*
X156337000Y-98933000D02*
X156357000Y-98933000D01*
X156357000Y-99187000D01*
X156337000Y-99187000D01*
X156337000Y-100629479D01*
X156551275Y-100752133D01*
X156622903Y-100737950D01*
X156765700Y-100660376D01*
X156765700Y-101108442D01*
X155579021Y-102295121D01*
X155490010Y-102079697D01*
X155097370Y-101686371D01*
X154584100Y-101473243D01*
X154028339Y-101472758D01*
X153514697Y-101684990D01*
X153121371Y-102077630D01*
X153114300Y-102094659D01*
X153114300Y-100706322D01*
X153139765Y-100723337D01*
X153670000Y-100828807D01*
X154200235Y-100723337D01*
X154649746Y-100422983D01*
X154950100Y-99973472D01*
X154951601Y-99965928D01*
X154978501Y-100056817D01*
X155320056Y-100478798D01*
X155797097Y-100737950D01*
X155868725Y-100752133D01*
X156083000Y-100629479D01*
X156083000Y-99187000D01*
X156063000Y-99187000D01*
X156063000Y-98933000D01*
X156083000Y-98933000D01*
X156083000Y-98913000D01*
X156337000Y-98913000D01*
X156337000Y-98933000D01*
M02*
