%TF.GenerationSoftware,KiCad,Pcbnew,5.1.9+dfsg1-1*%
%TF.CreationDate,2021-08-26T00:34:26+02:00*%
%TF.ProjectId,1541-rebuild,31353431-2d72-4656-9275-696c642e6b69,1.4.2*%
%TF.SameCoordinates,Original*%
%TF.FileFunction,Legend,Bot*%
%TF.FilePolarity,Positive*%
%FSLAX46Y46*%
G04 Gerber Fmt 4.6, Leading zero omitted, Abs format (unit mm)*
G04 Created by KiCad (PCBNEW 5.1.9+dfsg1-1) date 2021-08-26 00:34:26*
%MOMM*%
%LPD*%
G01*
G04 APERTURE LIST*
%ADD10C,0.150000*%
%ADD11C,0.120000*%
G04 APERTURE END LIST*
D10*
X169438857Y-138600571D02*
X169438857Y-137100571D01*
X168796000Y-138600571D02*
X168796000Y-137814857D01*
X168867428Y-137672000D01*
X169010285Y-137600571D01*
X169224571Y-137600571D01*
X169367428Y-137672000D01*
X169438857Y-137743428D01*
X168296000Y-137600571D02*
X167724571Y-137600571D01*
X168081714Y-137100571D02*
X168081714Y-138386285D01*
X168010285Y-138529142D01*
X167867428Y-138600571D01*
X167724571Y-138600571D01*
X167438857Y-137600571D02*
X166867428Y-137600571D01*
X167224571Y-137100571D02*
X167224571Y-138386285D01*
X167153142Y-138529142D01*
X167010285Y-138600571D01*
X166867428Y-138600571D01*
X166367428Y-137600571D02*
X166367428Y-139100571D01*
X166367428Y-137672000D02*
X166224571Y-137600571D01*
X165938857Y-137600571D01*
X165796000Y-137672000D01*
X165724571Y-137743428D01*
X165653142Y-137886285D01*
X165653142Y-138314857D01*
X165724571Y-138457714D01*
X165796000Y-138529142D01*
X165938857Y-138600571D01*
X166224571Y-138600571D01*
X166367428Y-138529142D01*
X165081714Y-138529142D02*
X164938857Y-138600571D01*
X164653142Y-138600571D01*
X164510285Y-138529142D01*
X164438857Y-138386285D01*
X164438857Y-138314857D01*
X164510285Y-138172000D01*
X164653142Y-138100571D01*
X164867428Y-138100571D01*
X165010285Y-138029142D01*
X165081714Y-137886285D01*
X165081714Y-137814857D01*
X165010285Y-137672000D01*
X164867428Y-137600571D01*
X164653142Y-137600571D01*
X164510285Y-137672000D01*
X163796000Y-138457714D02*
X163724571Y-138529142D01*
X163796000Y-138600571D01*
X163867428Y-138529142D01*
X163796000Y-138457714D01*
X163796000Y-138600571D01*
X163796000Y-137672000D02*
X163724571Y-137743428D01*
X163796000Y-137814857D01*
X163867428Y-137743428D01*
X163796000Y-137672000D01*
X163796000Y-137814857D01*
X162010285Y-137029142D02*
X163296000Y-138957714D01*
X160438857Y-137029142D02*
X161724571Y-138957714D01*
X159296000Y-137600571D02*
X159296000Y-138814857D01*
X159367428Y-138957714D01*
X159438857Y-139029142D01*
X159581714Y-139100571D01*
X159796000Y-139100571D01*
X159938857Y-139029142D01*
X159296000Y-138529142D02*
X159438857Y-138600571D01*
X159724571Y-138600571D01*
X159867428Y-138529142D01*
X159938857Y-138457714D01*
X160010285Y-138314857D01*
X160010285Y-137886285D01*
X159938857Y-137743428D01*
X159867428Y-137672000D01*
X159724571Y-137600571D01*
X159438857Y-137600571D01*
X159296000Y-137672000D01*
X158581714Y-138600571D02*
X158581714Y-137600571D01*
X158581714Y-137100571D02*
X158653142Y-137172000D01*
X158581714Y-137243428D01*
X158510285Y-137172000D01*
X158581714Y-137100571D01*
X158581714Y-137243428D01*
X158081714Y-137600571D02*
X157510285Y-137600571D01*
X157867428Y-137100571D02*
X157867428Y-138386285D01*
X157796000Y-138529142D01*
X157653142Y-138600571D01*
X157510285Y-138600571D01*
X157010285Y-138600571D02*
X157010285Y-137100571D01*
X156367428Y-138600571D02*
X156367428Y-137814857D01*
X156438857Y-137672000D01*
X156581714Y-137600571D01*
X156796000Y-137600571D01*
X156938857Y-137672000D01*
X157010285Y-137743428D01*
X155010285Y-137600571D02*
X155010285Y-138600571D01*
X155653142Y-137600571D02*
X155653142Y-138386285D01*
X155581714Y-138529142D01*
X155438857Y-138600571D01*
X155224571Y-138600571D01*
X155081714Y-138529142D01*
X155010285Y-138457714D01*
X154296000Y-138600571D02*
X154296000Y-137100571D01*
X154296000Y-137672000D02*
X154153142Y-137600571D01*
X153867428Y-137600571D01*
X153724571Y-137672000D01*
X153653142Y-137743428D01*
X153581714Y-137886285D01*
X153581714Y-138314857D01*
X153653142Y-138457714D01*
X153724571Y-138529142D01*
X153867428Y-138600571D01*
X154153142Y-138600571D01*
X154296000Y-138529142D01*
X152938857Y-138457714D02*
X152867428Y-138529142D01*
X152938857Y-138600571D01*
X153010285Y-138529142D01*
X152938857Y-138457714D01*
X152938857Y-138600571D01*
X151581714Y-138529142D02*
X151724571Y-138600571D01*
X152010285Y-138600571D01*
X152153142Y-138529142D01*
X152224571Y-138457714D01*
X152296000Y-138314857D01*
X152296000Y-137886285D01*
X152224571Y-137743428D01*
X152153142Y-137672000D01*
X152010285Y-137600571D01*
X151724571Y-137600571D01*
X151581714Y-137672000D01*
X150724571Y-138600571D02*
X150867428Y-138529142D01*
X150938857Y-138457714D01*
X151010285Y-138314857D01*
X151010285Y-137886285D01*
X150938857Y-137743428D01*
X150867428Y-137672000D01*
X150724571Y-137600571D01*
X150510285Y-137600571D01*
X150367428Y-137672000D01*
X150296000Y-137743428D01*
X150224571Y-137886285D01*
X150224571Y-138314857D01*
X150296000Y-138457714D01*
X150367428Y-138529142D01*
X150510285Y-138600571D01*
X150724571Y-138600571D01*
X149581714Y-138600571D02*
X149581714Y-137600571D01*
X149581714Y-137743428D02*
X149510285Y-137672000D01*
X149367428Y-137600571D01*
X149153142Y-137600571D01*
X149010285Y-137672000D01*
X148938857Y-137814857D01*
X148938857Y-138600571D01*
X148938857Y-137814857D02*
X148867428Y-137672000D01*
X148724571Y-137600571D01*
X148510285Y-137600571D01*
X148367428Y-137672000D01*
X148296000Y-137814857D01*
X148296000Y-138600571D01*
X146510285Y-137029142D02*
X147796000Y-138957714D01*
X146224571Y-137600571D02*
X145653142Y-137600571D01*
X146010285Y-138600571D02*
X146010285Y-137314857D01*
X145938857Y-137172000D01*
X145796000Y-137100571D01*
X145653142Y-137100571D01*
X144938857Y-138600571D02*
X145081714Y-138529142D01*
X145153142Y-138457714D01*
X145224571Y-138314857D01*
X145224571Y-137886285D01*
X145153142Y-137743428D01*
X145081714Y-137672000D01*
X144938857Y-137600571D01*
X144724571Y-137600571D01*
X144581714Y-137672000D01*
X144510285Y-137743428D01*
X144438857Y-137886285D01*
X144438857Y-138314857D01*
X144510285Y-138457714D01*
X144581714Y-138529142D01*
X144724571Y-138600571D01*
X144938857Y-138600571D01*
X143581714Y-138600571D02*
X143724571Y-138529142D01*
X143795999Y-138457714D01*
X143867428Y-138314857D01*
X143867428Y-137886285D01*
X143795999Y-137743428D01*
X143724571Y-137672000D01*
X143581714Y-137600571D01*
X143367428Y-137600571D01*
X143224571Y-137672000D01*
X143153142Y-137743428D01*
X143081714Y-137886285D01*
X143081714Y-138314857D01*
X143153142Y-138457714D01*
X143224571Y-138529142D01*
X143367428Y-138600571D01*
X143581714Y-138600571D01*
X142438857Y-138600571D02*
X142438857Y-137100571D01*
X142295999Y-138029142D02*
X141867428Y-138600571D01*
X141867428Y-137600571D02*
X142438857Y-138172000D01*
X140581714Y-137600571D02*
X140581714Y-138600571D01*
X140938857Y-137029142D02*
X141295999Y-138100571D01*
X140367428Y-138100571D01*
X139867428Y-137243428D02*
X139795999Y-137172000D01*
X139653142Y-137100571D01*
X139295999Y-137100571D01*
X139153142Y-137172000D01*
X139081714Y-137243428D01*
X139010285Y-137386285D01*
X139010285Y-137529142D01*
X139081714Y-137743428D01*
X139938857Y-138600571D01*
X139010285Y-138600571D01*
X137295999Y-137029142D02*
X138581714Y-138957714D01*
X136010285Y-138600571D02*
X136867428Y-138600571D01*
X136438857Y-138600571D02*
X136438857Y-137100571D01*
X136581714Y-137314857D01*
X136724571Y-137457714D01*
X136867428Y-137529142D01*
X134653142Y-137100571D02*
X135367428Y-137100571D01*
X135438857Y-137814857D01*
X135367428Y-137743428D01*
X135224571Y-137672000D01*
X134867428Y-137672000D01*
X134724571Y-137743428D01*
X134653142Y-137814857D01*
X134581714Y-137957714D01*
X134581714Y-138314857D01*
X134653142Y-138457714D01*
X134724571Y-138529142D01*
X134867428Y-138600571D01*
X135224571Y-138600571D01*
X135367428Y-138529142D01*
X135438857Y-138457714D01*
X133295999Y-137600571D02*
X133295999Y-138600571D01*
X133653142Y-137029142D02*
X134010285Y-138100571D01*
X133081714Y-138100571D01*
X131724571Y-138600571D02*
X132581714Y-138600571D01*
X132153142Y-138600571D02*
X132153142Y-137100571D01*
X132295999Y-137314857D01*
X132438857Y-137457714D01*
X132581714Y-137529142D01*
X131081714Y-138029142D02*
X129938857Y-138029142D01*
X129224571Y-138600571D02*
X129224571Y-137600571D01*
X129224571Y-137886285D02*
X129153142Y-137743428D01*
X129081714Y-137672000D01*
X128938857Y-137600571D01*
X128795999Y-137600571D01*
X127724571Y-138529142D02*
X127867428Y-138600571D01*
X128153142Y-138600571D01*
X128295999Y-138529142D01*
X128367428Y-138386285D01*
X128367428Y-137814857D01*
X128295999Y-137672000D01*
X128153142Y-137600571D01*
X127867428Y-137600571D01*
X127724571Y-137672000D01*
X127653142Y-137814857D01*
X127653142Y-137957714D01*
X128367428Y-138100571D01*
X127010285Y-138600571D02*
X127010285Y-137100571D01*
X127010285Y-137672000D02*
X126867428Y-137600571D01*
X126581714Y-137600571D01*
X126438857Y-137672000D01*
X126367428Y-137743428D01*
X126295999Y-137886285D01*
X126295999Y-138314857D01*
X126367428Y-138457714D01*
X126438857Y-138529142D01*
X126581714Y-138600571D01*
X126867428Y-138600571D01*
X127010285Y-138529142D01*
X125010285Y-137600571D02*
X125010285Y-138600571D01*
X125653142Y-137600571D02*
X125653142Y-138386285D01*
X125581714Y-138529142D01*
X125438857Y-138600571D01*
X125224571Y-138600571D01*
X125081714Y-138529142D01*
X125010285Y-138457714D01*
X124295999Y-138600571D02*
X124295999Y-137600571D01*
X124295999Y-137100571D02*
X124367428Y-137172000D01*
X124295999Y-137243428D01*
X124224571Y-137172000D01*
X124295999Y-137100571D01*
X124295999Y-137243428D01*
X123367428Y-138600571D02*
X123510285Y-138529142D01*
X123581714Y-138386285D01*
X123581714Y-137100571D01*
X122153142Y-138600571D02*
X122153142Y-137100571D01*
X122153142Y-138529142D02*
X122295999Y-138600571D01*
X122581714Y-138600571D01*
X122724571Y-138529142D01*
X122795999Y-138457714D01*
X122867428Y-138314857D01*
X122867428Y-137886285D01*
X122795999Y-137743428D01*
X122724571Y-137672000D01*
X122581714Y-137600571D01*
X122295999Y-137600571D01*
X122153142Y-137672000D01*
D11*
X168716000Y-99882000D02*
X168716000Y-98552000D01*
X167386000Y-99882000D02*
X168716000Y-99882000D01*
X166116000Y-99882000D02*
X166116000Y-97222000D01*
X166116000Y-97222000D02*
X117796000Y-97222000D01*
X166116000Y-99882000D02*
X117796000Y-99882000D01*
X117796000Y-99882000D02*
X117796000Y-97222000D01*
X168716000Y-112462000D02*
X168716000Y-115122000D01*
X120396000Y-112462000D02*
X168716000Y-112462000D01*
X120396000Y-115122000D02*
X168716000Y-115122000D01*
X120396000Y-112462000D02*
X120396000Y-115122000D01*
X119126000Y-112462000D02*
X117796000Y-112462000D01*
X117796000Y-112462000D02*
X117796000Y-113792000D01*
D10*
X170168380Y-97813904D02*
X169168380Y-97813904D01*
X169168380Y-98194857D01*
X169216000Y-98290095D01*
X169263619Y-98337714D01*
X169358857Y-98385333D01*
X169501714Y-98385333D01*
X169596952Y-98337714D01*
X169644571Y-98290095D01*
X169692190Y-98194857D01*
X169692190Y-97813904D01*
X170168380Y-99337714D02*
X170168380Y-98766285D01*
X170168380Y-99052000D02*
X169168380Y-99052000D01*
X169311238Y-98956761D01*
X169406476Y-98861523D01*
X169454095Y-98766285D01*
X117248380Y-113053904D02*
X116248380Y-113053904D01*
X116248380Y-113434857D01*
X116296000Y-113530095D01*
X116343619Y-113577714D01*
X116438857Y-113625333D01*
X116581714Y-113625333D01*
X116676952Y-113577714D01*
X116724571Y-113530095D01*
X116772190Y-113434857D01*
X116772190Y-113053904D01*
X116343619Y-114006285D02*
X116296000Y-114053904D01*
X116248380Y-114149142D01*
X116248380Y-114387238D01*
X116296000Y-114482476D01*
X116343619Y-114530095D01*
X116438857Y-114577714D01*
X116534095Y-114577714D01*
X116676952Y-114530095D01*
X117248380Y-113958666D01*
X117248380Y-114577714D01*
M02*
