G04 #@! TF.FileFunction,Copper,L2,Bot,Signal*
%FSLAX46Y46*%
G04 Gerber Fmt 4.6, Leading zero omitted, Abs format (unit mm)*
G04 Created by KiCad (PCBNEW 4.0.7-e2-6376~60~ubuntu17.10.1) date Tue May  8 18:10:40 2018*
%MOMM*%
%LPD*%
G01*
G04 APERTURE LIST*
%ADD10C,0.100000*%
%ADD11C,1.501140*%
%ADD12R,1.600000X1.600000*%
%ADD13O,1.600000X1.600000*%
%ADD14O,1.501140X2.199640*%
%ADD15R,2.000000X1.500000*%
%ADD16O,2.000000X1.500000*%
%ADD17R,1.700000X1.700000*%
%ADD18O,1.700000X1.700000*%
%ADD19C,1.524000*%
%ADD20O,1.998980X1.501140*%
%ADD21C,2.000000*%
%ADD22R,2.500000X2.500000*%
%ADD23C,2.500000*%
%ADD24C,1.500000*%
%ADD25C,0.600000*%
%ADD26C,0.300000*%
%ADD27C,0.600000*%
%ADD28C,0.254000*%
G04 APERTURE END LIST*
D10*
D11*
X160020000Y-102870000D03*
X162560000Y-102870000D03*
X152400000Y-80010000D03*
X149860000Y-80010000D03*
X114300000Y-130810000D03*
X114300000Y-133350000D03*
D12*
X144780000Y-62230000D03*
D13*
X144780000Y-54610000D03*
D12*
X139700000Y-54610000D03*
D13*
X139700000Y-62230000D03*
D14*
X130810000Y-99060000D03*
X133350000Y-99060000D03*
X135890000Y-99060000D03*
X138430000Y-99060000D03*
X140970000Y-99060000D03*
X143510000Y-99060000D03*
X146050000Y-99060000D03*
X148590000Y-99060000D03*
X151130000Y-99060000D03*
X153670000Y-99060000D03*
X156210000Y-99060000D03*
X158750000Y-99060000D03*
X161290000Y-99060000D03*
X163830000Y-99060000D03*
X166370000Y-99060000D03*
X168910000Y-99060000D03*
X171450000Y-99060000D03*
X173990000Y-99060000D03*
X176530000Y-99060000D03*
X179070000Y-99060000D03*
X179070000Y-83820000D03*
X176530000Y-83820000D03*
X173990000Y-83820000D03*
X171450000Y-83820000D03*
X168910000Y-83820000D03*
X166370000Y-83820000D03*
X163830000Y-83820000D03*
X161290000Y-83820000D03*
X158750000Y-83820000D03*
X156210000Y-83820000D03*
X153670000Y-83820000D03*
X151130000Y-83820000D03*
X148590000Y-83820000D03*
X146050000Y-83820000D03*
X143510000Y-83820000D03*
X140970000Y-83820000D03*
X138430000Y-83820000D03*
X135890000Y-83820000D03*
X133350000Y-83820000D03*
X130810000Y-83820000D03*
D15*
X116590000Y-68580000D03*
D16*
X119630000Y-68580000D03*
X116590000Y-71120000D03*
X119630000Y-71120000D03*
X116590000Y-73660000D03*
X119630000Y-73660000D03*
D17*
X130810000Y-104140000D03*
D18*
X133350000Y-104140000D03*
X135890000Y-104140000D03*
X138430000Y-104140000D03*
D17*
X118110000Y-59690000D03*
D18*
X115570000Y-59690000D03*
D17*
X163830000Y-134620000D03*
D18*
X161290000Y-134620000D03*
D16*
X116590000Y-99060000D03*
X119630000Y-99060000D03*
X119630000Y-96520000D03*
X116590000Y-96520000D03*
D15*
X116590000Y-88900000D03*
D16*
X119630000Y-88900000D03*
X116590000Y-91440000D03*
X119630000Y-91440000D03*
X116590000Y-93980000D03*
X119630000Y-93980000D03*
D17*
X179070000Y-114300000D03*
D18*
X176530000Y-114300000D03*
X173990000Y-114300000D03*
X171450000Y-114300000D03*
X168910000Y-114300000D03*
X166370000Y-114300000D03*
X163830000Y-114300000D03*
X161290000Y-114300000D03*
X158750000Y-114300000D03*
X156210000Y-114300000D03*
X153670000Y-114300000D03*
X151130000Y-114300000D03*
X148590000Y-114300000D03*
X146050000Y-114300000D03*
X143510000Y-114300000D03*
X140970000Y-114300000D03*
X138430000Y-114300000D03*
X135890000Y-114300000D03*
X133350000Y-114300000D03*
X130810000Y-114300000D03*
D14*
X179070000Y-109220000D03*
X176530000Y-109220000D03*
X173990000Y-109220000D03*
X171450000Y-109220000D03*
X168910000Y-109220000D03*
X166370000Y-109220000D03*
X163830000Y-109220000D03*
X161290000Y-109220000D03*
X158750000Y-109220000D03*
X156210000Y-109220000D03*
X153670000Y-109220000D03*
X151130000Y-109220000D03*
X148590000Y-109220000D03*
X146050000Y-109220000D03*
X143510000Y-109220000D03*
X140970000Y-109220000D03*
X138430000Y-109220000D03*
X135890000Y-109220000D03*
X133350000Y-109220000D03*
X130810000Y-109220000D03*
X130810000Y-124460000D03*
X133350000Y-124460000D03*
X135890000Y-124460000D03*
X138430000Y-124460000D03*
X140970000Y-124460000D03*
X143510000Y-124460000D03*
X146050000Y-124460000D03*
X148590000Y-124460000D03*
X151130000Y-124460000D03*
X153670000Y-124460000D03*
X156210000Y-124460000D03*
X158750000Y-124460000D03*
X161290000Y-124460000D03*
X163830000Y-124460000D03*
X166370000Y-124460000D03*
X168910000Y-124460000D03*
X171450000Y-124460000D03*
X173990000Y-124460000D03*
X176530000Y-124460000D03*
X179070000Y-124460000D03*
D17*
X130810000Y-129540000D03*
D18*
X133350000Y-129540000D03*
X135890000Y-129540000D03*
X138430000Y-129540000D03*
X140970000Y-129540000D03*
X143510000Y-129540000D03*
X146050000Y-129540000D03*
X148590000Y-129540000D03*
X151130000Y-129540000D03*
X153670000Y-129540000D03*
X156210000Y-129540000D03*
X158750000Y-129540000D03*
X161290000Y-129540000D03*
X163830000Y-129540000D03*
X166370000Y-129540000D03*
X168910000Y-129540000D03*
X171450000Y-129540000D03*
X173990000Y-129540000D03*
X176530000Y-129540000D03*
X179070000Y-129540000D03*
D19*
X167005000Y-105410000D03*
X178435000Y-105410000D03*
X135255000Y-45720000D03*
X146685000Y-45720000D03*
X123825000Y-55880000D03*
X135255000Y-55880000D03*
X145415000Y-72390000D03*
X133985000Y-72390000D03*
X125730000Y-92075000D03*
X125730000Y-103505000D03*
X154305000Y-102870000D03*
X142875000Y-102870000D03*
X146685000Y-50800000D03*
X135255000Y-50800000D03*
X135255000Y-59690000D03*
X123825000Y-59690000D03*
X145415000Y-67310000D03*
X133985000Y-67310000D03*
X123825000Y-81280000D03*
X112395000Y-81280000D03*
D20*
X128270000Y-69850000D03*
X128270000Y-72390000D03*
X128270000Y-74930000D03*
D21*
X118110000Y-135310000D03*
X118110000Y-130810000D03*
X124610000Y-135310000D03*
X124610000Y-130810000D03*
D22*
X123190000Y-124460000D03*
D23*
X115570000Y-124460000D03*
X115570000Y-109220000D03*
X123190000Y-109220000D03*
D24*
X161290000Y-70160000D03*
X161290000Y-50160000D03*
D17*
X160020000Y-80010000D03*
D18*
X157480000Y-80010000D03*
D25*
X123775800Y-76140500D03*
X156281700Y-69565400D03*
X138123400Y-66880700D03*
X138067500Y-61525300D03*
X143890800Y-72598900D03*
X174152800Y-104791800D03*
X171450000Y-103593300D03*
X170412500Y-101566200D03*
X156270900Y-64110000D03*
D26*
X146050000Y-99060000D02*
X147150900Y-99060000D01*
X140334000Y-76140500D02*
X147150900Y-82957400D01*
X123775800Y-76140500D02*
X140334000Y-76140500D01*
X147150900Y-82957400D02*
X147150900Y-99060000D01*
X151130000Y-74717100D02*
X156281700Y-69565400D01*
X151130000Y-80460100D02*
X151130000Y-74717100D01*
X149407400Y-82182700D02*
X151130000Y-80460100D01*
X147925600Y-82182700D02*
X149407400Y-82182700D01*
X147150900Y-82957400D02*
X147925600Y-82182700D01*
X141523700Y-63480400D02*
X138123400Y-66880700D01*
X141523700Y-50881300D02*
X141523700Y-63480400D01*
X146685000Y-45720000D02*
X141523700Y-50881300D01*
X138067500Y-53612500D02*
X138067500Y-61525300D01*
X135255000Y-50800000D02*
X138067500Y-53612500D01*
X144610900Y-82957700D02*
X144610900Y-99060000D01*
X140730700Y-79077500D02*
X144610900Y-82957700D01*
X122385600Y-79077500D02*
X140730700Y-79077500D01*
X118160100Y-74852000D02*
X122385600Y-79077500D01*
X118160100Y-73165100D02*
X118160100Y-74852000D01*
X119104900Y-72220300D02*
X118160100Y-73165100D01*
X119380000Y-72220300D02*
X119104900Y-72220300D01*
X119380000Y-71120000D02*
X119380000Y-72220300D01*
X143510000Y-99060000D02*
X144610900Y-99060000D01*
X116840000Y-71120000D02*
X117940300Y-71120000D01*
X130651700Y-71096100D02*
X130860100Y-70887700D01*
X124731100Y-71096100D02*
X130651700Y-71096100D01*
X123629200Y-69994200D02*
X124731100Y-71096100D01*
X118838100Y-69994200D02*
X123629200Y-69994200D01*
X117940300Y-70892000D02*
X118838100Y-69994200D01*
X117940300Y-71120000D02*
X117940300Y-70892000D01*
X133985000Y-67762800D02*
X133985000Y-67310000D01*
X130860100Y-70887700D02*
X133985000Y-67762800D01*
X143636800Y-72598900D02*
X143890800Y-72598900D01*
X142700900Y-73534800D02*
X143636800Y-72598900D01*
X133507100Y-73534800D02*
X142700900Y-73534800D01*
X130860100Y-70887700D02*
X133507100Y-73534800D01*
X159399700Y-135310000D02*
X160089700Y-134620000D01*
X124610000Y-135310000D02*
X159399700Y-135310000D01*
X161290000Y-134620000D02*
X160089700Y-134620000D01*
X124610000Y-135310000D02*
X118110000Y-135310000D01*
X114525000Y-135310000D02*
X118110000Y-135310000D01*
X113085500Y-133870500D02*
X114525000Y-135310000D01*
X113085500Y-83046000D02*
X113085500Y-133870500D01*
X116840000Y-79291500D02*
X113085500Y-83046000D01*
X116840000Y-73660000D02*
X116840000Y-79291500D01*
X160189100Y-99565000D02*
X160189100Y-99060000D01*
X152549300Y-107204800D02*
X160189100Y-99565000D01*
X141064800Y-107204800D02*
X152549300Y-107204800D01*
X139700000Y-108569600D02*
X141064800Y-107204800D01*
X139700000Y-109871300D02*
X139700000Y-108569600D01*
X138332000Y-111239300D02*
X139700000Y-109871300D01*
X117589300Y-111239300D02*
X138332000Y-111239300D01*
X115570000Y-109220000D02*
X117589300Y-111239300D01*
X161290000Y-99060000D02*
X160189100Y-99060000D01*
X164930900Y-99527300D02*
X164930900Y-99060000D01*
X170880900Y-105477300D02*
X164930900Y-99527300D01*
X176033800Y-105477300D02*
X170880900Y-105477300D01*
X177369800Y-104141300D02*
X176033800Y-105477300D01*
X178941000Y-104141300D02*
X177369800Y-104141300D01*
X179652200Y-104852500D02*
X178941000Y-104141300D01*
X179652200Y-105934000D02*
X179652200Y-104852500D01*
X177816400Y-107769800D02*
X179652200Y-105934000D01*
X176530000Y-107769800D02*
X177816400Y-107769800D01*
X176530000Y-109220000D02*
X176530000Y-107769800D01*
X163830000Y-99060000D02*
X164930900Y-99060000D01*
X166370000Y-99451000D02*
X166370000Y-99060000D01*
X171710800Y-104791800D02*
X166370000Y-99451000D01*
X174152800Y-104791800D02*
X171710800Y-104791800D01*
X168910000Y-99060000D02*
X168910000Y-100510200D01*
X168910000Y-101053300D02*
X171450000Y-103593300D01*
X168910000Y-100510200D02*
X168910000Y-101053300D01*
X172889100Y-99574500D02*
X172889100Y-99060000D01*
X170897400Y-101566200D02*
X172889100Y-99574500D01*
X170412500Y-101566200D02*
X170897400Y-101566200D01*
X173990000Y-99060000D02*
X172889100Y-99060000D01*
X163830000Y-109220000D02*
X164930900Y-109220000D01*
X176530000Y-99060000D02*
X176530000Y-100510200D01*
X164930900Y-109770500D02*
X164930900Y-109220000D01*
X165980700Y-110820300D02*
X164930900Y-109770500D01*
X179566100Y-110820300D02*
X165980700Y-110820300D01*
X180275200Y-110111200D02*
X179566100Y-110820300D01*
X180275200Y-104255400D02*
X180275200Y-110111200D01*
X176530000Y-100510200D02*
X180275200Y-104255400D01*
X180775500Y-99664600D02*
X180170900Y-99060000D01*
X180775500Y-110381100D02*
X180775500Y-99664600D01*
X179823600Y-111333000D02*
X180775500Y-110381100D01*
X163953500Y-111333000D02*
X179823600Y-111333000D01*
X162390900Y-109770400D02*
X163953500Y-111333000D01*
X162390900Y-109220000D02*
X162390900Y-109770400D01*
X161290000Y-109220000D02*
X162390900Y-109220000D01*
X179070000Y-99060000D02*
X180170900Y-99060000D01*
X158750000Y-114300000D02*
X159950300Y-114300000D01*
X179070000Y-83820000D02*
X180170900Y-83820000D01*
X181776100Y-85425200D02*
X180170900Y-83820000D01*
X181776100Y-110795500D02*
X181776100Y-85425200D01*
X180238000Y-112333600D02*
X181776100Y-110795500D01*
X161519300Y-112333600D02*
X180238000Y-112333600D01*
X159950300Y-113902600D02*
X161519300Y-112333600D01*
X159950300Y-114300000D02*
X159950300Y-113902600D01*
X172889100Y-83316600D02*
X172889100Y-83820000D01*
X167760900Y-78188400D02*
X172889100Y-83316600D01*
X155938300Y-78188400D02*
X167760900Y-78188400D01*
X152803700Y-81323000D02*
X155938300Y-78188400D01*
X151660700Y-81323000D02*
X152803700Y-81323000D01*
X149860000Y-83123700D02*
X151660700Y-81323000D01*
X149860000Y-99768600D02*
X149860000Y-83123700D01*
X149035200Y-100593400D02*
X149860000Y-99768600D01*
X137699800Y-100593400D02*
X149035200Y-100593400D01*
X134620000Y-103673200D02*
X137699800Y-100593400D01*
X134620000Y-105659900D02*
X134620000Y-103673200D01*
X132241900Y-108038000D02*
X134620000Y-105659900D01*
X132241900Y-110045500D02*
X132241900Y-108038000D01*
X132880600Y-110684200D02*
X132241900Y-110045500D01*
X136415300Y-110684200D02*
X132880600Y-110684200D01*
X137329100Y-109770400D02*
X136415300Y-110684200D01*
X137329100Y-109220000D02*
X137329100Y-109770400D01*
X138430000Y-109220000D02*
X137329100Y-109220000D01*
X173990000Y-83820000D02*
X172889100Y-83820000D01*
X151130000Y-114300000D02*
X152330300Y-114300000D01*
X151130000Y-109220000D02*
X152230900Y-109220000D01*
X152230900Y-109770500D02*
X152230900Y-109220000D01*
X154357800Y-111897400D02*
X152230900Y-109770500D01*
X152330300Y-113924900D02*
X154357800Y-111897400D01*
X152330300Y-114300000D02*
X152330300Y-113924900D01*
X181275800Y-93645800D02*
X171450000Y-83820000D01*
X181275800Y-110588300D02*
X181275800Y-93645800D01*
X180030800Y-111833300D02*
X181275800Y-110588300D01*
X154421900Y-111833300D02*
X180030800Y-111833300D01*
X154357800Y-111897400D02*
X154421900Y-111833300D01*
X135890000Y-104140000D02*
X137090300Y-104140000D01*
X168910000Y-83820000D02*
X167809100Y-83820000D01*
X167809100Y-83316600D02*
X167809100Y-83820000D01*
X163181300Y-78688800D02*
X167809100Y-83316600D01*
X156701000Y-78688800D02*
X163181300Y-78688800D01*
X152441700Y-82948100D02*
X156701000Y-78688800D01*
X152441700Y-99667700D02*
X152441700Y-82948100D01*
X151015600Y-101093800D02*
X152441700Y-99667700D01*
X139611400Y-101093800D02*
X151015600Y-101093800D01*
X137090300Y-103614900D02*
X139611400Y-101093800D01*
X137090300Y-104140000D02*
X137090300Y-103614900D01*
X165269100Y-84920900D02*
X165269100Y-83820000D01*
X162398300Y-87791700D02*
X165269100Y-84920900D01*
X162398300Y-99860600D02*
X162398300Y-87791700D01*
X161564100Y-100694800D02*
X162398300Y-99860600D01*
X159804600Y-100694800D02*
X161564100Y-100694800D01*
X152729700Y-107769700D02*
X159804600Y-100694800D01*
X148050800Y-107769700D02*
X152729700Y-107769700D01*
X147150900Y-108669600D02*
X148050800Y-107769700D01*
X147150900Y-109220000D02*
X147150900Y-108669600D01*
X146050000Y-109220000D02*
X147150900Y-109220000D01*
X166370000Y-83820000D02*
X165269100Y-83820000D01*
X133350000Y-109220000D02*
X134450900Y-109220000D01*
X163830000Y-83820000D02*
X162729100Y-83820000D01*
X134450900Y-108669600D02*
X134450900Y-109220000D01*
X137657400Y-105463100D02*
X134450900Y-108669600D01*
X153448900Y-105463100D02*
X137657400Y-105463100D01*
X157432800Y-101479200D02*
X153448900Y-105463100D01*
X157432800Y-90217200D02*
X157432800Y-101479200D01*
X162729100Y-84920900D02*
X157432800Y-90217200D01*
X162729100Y-83820000D02*
X162729100Y-84920900D01*
X142409100Y-84323400D02*
X142409100Y-83820000D01*
X129070000Y-97662500D02*
X142409100Y-84323400D01*
X118945300Y-97662500D02*
X129070000Y-97662500D01*
X117940300Y-96657500D02*
X118945300Y-97662500D01*
X117940300Y-96520000D02*
X117940300Y-96657500D01*
X116840000Y-96520000D02*
X117940300Y-96520000D01*
X143510000Y-83820000D02*
X142409100Y-83820000D01*
X140970000Y-83820000D02*
X139869100Y-83820000D01*
X127672500Y-96520000D02*
X119380000Y-96520000D01*
X139869100Y-84323400D02*
X127672500Y-96520000D01*
X139869100Y-83820000D02*
X139869100Y-84323400D01*
X137329100Y-83316600D02*
X137329100Y-83820000D01*
X136381000Y-82368500D02*
X137329100Y-83316600D01*
X135407200Y-82368500D02*
X136381000Y-82368500D01*
X134620000Y-83155700D02*
X135407200Y-82368500D01*
X134620000Y-85630000D02*
X134620000Y-83155700D01*
X126270000Y-93980000D02*
X134620000Y-85630000D01*
X119380000Y-93980000D02*
X126270000Y-93980000D01*
X138430000Y-83820000D02*
X137329100Y-83820000D01*
X126069000Y-95091200D02*
X135890000Y-85270200D01*
X118914000Y-95091200D02*
X126069000Y-95091200D01*
X117940300Y-94117500D02*
X118914000Y-95091200D01*
X117940300Y-93980000D02*
X117940300Y-94117500D01*
X116840000Y-93980000D02*
X117940300Y-93980000D01*
X135890000Y-83820000D02*
X135890000Y-85270200D01*
X133350000Y-86175700D02*
X133350000Y-83820000D01*
X126196300Y-93329400D02*
X133350000Y-86175700D01*
X121269400Y-93329400D02*
X126196300Y-93329400D01*
X120480300Y-92540300D02*
X121269400Y-93329400D01*
X119380000Y-92540300D02*
X120480300Y-92540300D01*
X119380000Y-91440000D02*
X119380000Y-92540300D01*
X122761500Y-83820000D02*
X130810000Y-83820000D01*
X118139100Y-88442400D02*
X122761500Y-83820000D01*
X118139100Y-89762600D02*
X118139100Y-88442400D01*
X117562000Y-90339700D02*
X118139100Y-89762600D01*
X116840000Y-90339700D02*
X117562000Y-90339700D01*
X116840000Y-91440000D02*
X116840000Y-90339700D01*
X163830000Y-129540000D02*
X163830000Y-134620000D01*
X116212600Y-97959700D02*
X116840000Y-97959700D01*
X115123300Y-96870400D02*
X116212600Y-97959700D01*
X115123300Y-87865500D02*
X115123300Y-96870400D01*
X121708800Y-81280000D02*
X115123300Y-87865500D01*
X123825000Y-81280000D02*
X121708800Y-81280000D01*
X116840000Y-99060000D02*
X116840000Y-97959700D01*
D27*
X119380000Y-68580000D02*
X121230300Y-68580000D01*
X120015000Y-59690000D02*
X118110000Y-59690000D01*
X123825000Y-55880000D02*
X120015000Y-59690000D01*
X125730000Y-114300000D02*
X115570000Y-124460000D01*
X130810000Y-114300000D02*
X125730000Y-114300000D01*
X177582800Y-106262200D02*
X178435000Y-105410000D01*
X170572300Y-106262200D02*
X177582800Y-106262200D01*
X168357700Y-104047600D02*
X170572300Y-106262200D01*
X165244700Y-104047600D02*
X168357700Y-104047600D01*
X165031000Y-104261300D02*
X165244700Y-104047600D01*
X161411300Y-104261300D02*
X165031000Y-104261300D01*
X160020000Y-102870000D02*
X161411300Y-104261300D01*
X128270000Y-69850000D02*
X128270000Y-69096600D01*
X128270000Y-68580000D02*
X121230300Y-68580000D01*
X128270000Y-69096600D02*
X128270000Y-68580000D01*
X133985000Y-45720000D02*
X123825000Y-55880000D01*
X135255000Y-45720000D02*
X133985000Y-45720000D01*
X118029600Y-61220700D02*
X118110000Y-61140300D01*
X118029600Y-67229600D02*
X118029600Y-61220700D01*
X115317500Y-67229600D02*
X118029600Y-67229600D01*
X112395000Y-70152100D02*
X115317500Y-67229600D01*
X112395000Y-81280000D02*
X112395000Y-70152100D01*
X118029700Y-67229700D02*
X119380000Y-67229700D01*
X118029600Y-67229600D02*
X118029700Y-67229700D01*
X119380000Y-68580000D02*
X119380000Y-67229700D01*
X118110000Y-59690000D02*
X118110000Y-61140300D01*
X156210000Y-96520000D02*
X153670000Y-99060000D01*
X156210000Y-83820000D02*
X156210000Y-96520000D01*
X139504400Y-62425600D02*
X139700000Y-62230000D01*
X134424400Y-62425600D02*
X139504400Y-62425600D01*
X128270000Y-68580000D02*
X134424400Y-62425600D01*
X122555000Y-88900000D02*
X119380000Y-88900000D01*
X125730000Y-92075000D02*
X122555000Y-88900000D01*
X143827500Y-73977500D02*
X149860000Y-80010000D01*
X143827500Y-73977500D02*
X145415000Y-72390000D01*
X142875000Y-74930000D02*
X128270000Y-74930000D01*
X143827500Y-73977500D02*
X142875000Y-74930000D01*
X126589800Y-75010300D02*
X119380000Y-75010300D01*
X126670100Y-74930000D02*
X126589800Y-75010300D01*
X119380000Y-73660000D02*
X119380000Y-75010300D01*
X128270000Y-74930000D02*
X126670100Y-74930000D01*
X124610000Y-130810000D02*
X118110000Y-130810000D01*
X115570000Y-133350000D02*
X114300000Y-133350000D01*
X118110000Y-130810000D02*
X115570000Y-133350000D01*
X156210000Y-100965000D02*
X154305000Y-102870000D01*
X156210000Y-99060000D02*
X156210000Y-100965000D01*
X140023500Y-104283200D02*
X139880300Y-104140000D01*
X152891800Y-104283200D02*
X140023500Y-104283200D01*
X154305000Y-102870000D02*
X152891800Y-104283200D01*
X138430000Y-104140000D02*
X139880300Y-104140000D01*
X156029700Y-81460300D02*
X153670000Y-83820000D01*
X157480000Y-81460300D02*
X156029700Y-81460300D01*
X157480000Y-80010000D02*
X157480000Y-81460300D01*
D26*
X143547900Y-53937100D02*
X146685000Y-50800000D01*
X143547900Y-62827100D02*
X143547900Y-53937100D01*
X133985000Y-72390000D02*
X143547900Y-62827100D01*
X148615000Y-64110000D02*
X156270900Y-64110000D01*
X145415000Y-67310000D02*
X148615000Y-64110000D01*
D28*
G36*
X183465000Y-139015000D02*
X108635000Y-139015000D01*
X108635000Y-81556661D01*
X110997758Y-81556661D01*
X111209990Y-82070303D01*
X111602630Y-82463629D01*
X112115900Y-82676757D01*
X112406080Y-82677010D01*
X112360255Y-82745593D01*
X112344799Y-82823294D01*
X112300500Y-83046000D01*
X112300500Y-133870500D01*
X112360255Y-134170907D01*
X112530421Y-134425579D01*
X113969921Y-135865079D01*
X114224594Y-136035245D01*
X114525000Y-136095000D01*
X116665283Y-136095000D01*
X116723106Y-136234943D01*
X117182637Y-136695278D01*
X117783352Y-136944716D01*
X118433795Y-136945284D01*
X119034943Y-136696894D01*
X119495278Y-136237363D01*
X119554392Y-136095000D01*
X123165283Y-136095000D01*
X123223106Y-136234943D01*
X123682637Y-136695278D01*
X124283352Y-136944716D01*
X124933795Y-136945284D01*
X125534943Y-136696894D01*
X125995278Y-136237363D01*
X126054392Y-136095000D01*
X159399700Y-136095000D01*
X159700107Y-136035245D01*
X159954779Y-135865079D01*
X160192187Y-135627671D01*
X160239946Y-135699147D01*
X160721715Y-136021054D01*
X161290000Y-136134093D01*
X161858285Y-136021054D01*
X162340054Y-135699147D01*
X162367850Y-135657548D01*
X162376838Y-135705317D01*
X162515910Y-135921441D01*
X162728110Y-136066431D01*
X162980000Y-136117440D01*
X164680000Y-136117440D01*
X164915317Y-136073162D01*
X165131441Y-135934090D01*
X165276431Y-135721890D01*
X165327440Y-135470000D01*
X165327440Y-133770000D01*
X165283162Y-133534683D01*
X165144090Y-133318559D01*
X164931890Y-133173569D01*
X164680000Y-133122560D01*
X164615000Y-133122560D01*
X164615000Y-130796250D01*
X164880054Y-130619147D01*
X165100000Y-130289974D01*
X165319946Y-130619147D01*
X165801715Y-130941054D01*
X166370000Y-131054093D01*
X166938285Y-130941054D01*
X167420054Y-130619147D01*
X167640000Y-130289974D01*
X167859946Y-130619147D01*
X168341715Y-130941054D01*
X168910000Y-131054093D01*
X169478285Y-130941054D01*
X169960054Y-130619147D01*
X170180000Y-130289974D01*
X170399946Y-130619147D01*
X170881715Y-130941054D01*
X171450000Y-131054093D01*
X172018285Y-130941054D01*
X172500054Y-130619147D01*
X172720000Y-130289974D01*
X172939946Y-130619147D01*
X173421715Y-130941054D01*
X173990000Y-131054093D01*
X174558285Y-130941054D01*
X175040054Y-130619147D01*
X175260000Y-130289974D01*
X175479946Y-130619147D01*
X175961715Y-130941054D01*
X176530000Y-131054093D01*
X177098285Y-130941054D01*
X177580054Y-130619147D01*
X177800000Y-130289974D01*
X178019946Y-130619147D01*
X178501715Y-130941054D01*
X179070000Y-131054093D01*
X179638285Y-130941054D01*
X180120054Y-130619147D01*
X180441961Y-130137378D01*
X180555000Y-129569093D01*
X180555000Y-129510907D01*
X180441961Y-128942622D01*
X180120054Y-128460853D01*
X179638285Y-128138946D01*
X179070000Y-128025907D01*
X178501715Y-128138946D01*
X178019946Y-128460853D01*
X177800000Y-128790026D01*
X177580054Y-128460853D01*
X177098285Y-128138946D01*
X176530000Y-128025907D01*
X175961715Y-128138946D01*
X175479946Y-128460853D01*
X175260000Y-128790026D01*
X175040054Y-128460853D01*
X174558285Y-128138946D01*
X173990000Y-128025907D01*
X173421715Y-128138946D01*
X172939946Y-128460853D01*
X172720000Y-128790026D01*
X172500054Y-128460853D01*
X172018285Y-128138946D01*
X171450000Y-128025907D01*
X170881715Y-128138946D01*
X170399946Y-128460853D01*
X170180000Y-128790026D01*
X169960054Y-128460853D01*
X169478285Y-128138946D01*
X168910000Y-128025907D01*
X168341715Y-128138946D01*
X167859946Y-128460853D01*
X167640000Y-128790026D01*
X167420054Y-128460853D01*
X166938285Y-128138946D01*
X166370000Y-128025907D01*
X165801715Y-128138946D01*
X165319946Y-128460853D01*
X165100000Y-128790026D01*
X164880054Y-128460853D01*
X164398285Y-128138946D01*
X163830000Y-128025907D01*
X163261715Y-128138946D01*
X162779946Y-128460853D01*
X162560000Y-128790026D01*
X162340054Y-128460853D01*
X161858285Y-128138946D01*
X161290000Y-128025907D01*
X160721715Y-128138946D01*
X160239946Y-128460853D01*
X160020000Y-128790026D01*
X159800054Y-128460853D01*
X159318285Y-128138946D01*
X158750000Y-128025907D01*
X158181715Y-128138946D01*
X157699946Y-128460853D01*
X157480000Y-128790026D01*
X157260054Y-128460853D01*
X156778285Y-128138946D01*
X156210000Y-128025907D01*
X155641715Y-128138946D01*
X155159946Y-128460853D01*
X154940000Y-128790026D01*
X154720054Y-128460853D01*
X154238285Y-128138946D01*
X153670000Y-128025907D01*
X153101715Y-128138946D01*
X152619946Y-128460853D01*
X152400000Y-128790026D01*
X152180054Y-128460853D01*
X151698285Y-128138946D01*
X151130000Y-128025907D01*
X150561715Y-128138946D01*
X150079946Y-128460853D01*
X149860000Y-128790026D01*
X149640054Y-128460853D01*
X149158285Y-128138946D01*
X148590000Y-128025907D01*
X148021715Y-128138946D01*
X147539946Y-128460853D01*
X147320000Y-128790026D01*
X147100054Y-128460853D01*
X146618285Y-128138946D01*
X146050000Y-128025907D01*
X145481715Y-128138946D01*
X144999946Y-128460853D01*
X144780000Y-128790026D01*
X144560054Y-128460853D01*
X144078285Y-128138946D01*
X143510000Y-128025907D01*
X142941715Y-128138946D01*
X142459946Y-128460853D01*
X142240000Y-128790026D01*
X142020054Y-128460853D01*
X141538285Y-128138946D01*
X140970000Y-128025907D01*
X140401715Y-128138946D01*
X139919946Y-128460853D01*
X139700000Y-128790026D01*
X139480054Y-128460853D01*
X138998285Y-128138946D01*
X138430000Y-128025907D01*
X137861715Y-128138946D01*
X137379946Y-128460853D01*
X137160000Y-128790026D01*
X136940054Y-128460853D01*
X136458285Y-128138946D01*
X135890000Y-128025907D01*
X135321715Y-128138946D01*
X134839946Y-128460853D01*
X134620000Y-128790026D01*
X134400054Y-128460853D01*
X133918285Y-128138946D01*
X133350000Y-128025907D01*
X132781715Y-128138946D01*
X132299946Y-128460853D01*
X132272150Y-128502452D01*
X132263162Y-128454683D01*
X132124090Y-128238559D01*
X131911890Y-128093569D01*
X131660000Y-128042560D01*
X129960000Y-128042560D01*
X129724683Y-128086838D01*
X129508559Y-128225910D01*
X129363569Y-128438110D01*
X129312560Y-128690000D01*
X129312560Y-130390000D01*
X129356838Y-130625317D01*
X129495910Y-130841441D01*
X129708110Y-130986431D01*
X129960000Y-131037440D01*
X131660000Y-131037440D01*
X131895317Y-130993162D01*
X132111441Y-130854090D01*
X132256431Y-130641890D01*
X132270086Y-130574459D01*
X132299946Y-130619147D01*
X132781715Y-130941054D01*
X133350000Y-131054093D01*
X133918285Y-130941054D01*
X134400054Y-130619147D01*
X134620000Y-130289974D01*
X134839946Y-130619147D01*
X135321715Y-130941054D01*
X135890000Y-131054093D01*
X136458285Y-130941054D01*
X136940054Y-130619147D01*
X137160000Y-130289974D01*
X137379946Y-130619147D01*
X137861715Y-130941054D01*
X138430000Y-131054093D01*
X138998285Y-130941054D01*
X139480054Y-130619147D01*
X139700000Y-130289974D01*
X139919946Y-130619147D01*
X140401715Y-130941054D01*
X140970000Y-131054093D01*
X141538285Y-130941054D01*
X142020054Y-130619147D01*
X142240000Y-130289974D01*
X142459946Y-130619147D01*
X142941715Y-130941054D01*
X143510000Y-131054093D01*
X144078285Y-130941054D01*
X144560054Y-130619147D01*
X144780000Y-130289974D01*
X144999946Y-130619147D01*
X145481715Y-130941054D01*
X146050000Y-131054093D01*
X146618285Y-130941054D01*
X147100054Y-130619147D01*
X147320000Y-130289974D01*
X147539946Y-130619147D01*
X148021715Y-130941054D01*
X148590000Y-131054093D01*
X149158285Y-130941054D01*
X149640054Y-130619147D01*
X149860000Y-130289974D01*
X150079946Y-130619147D01*
X150561715Y-130941054D01*
X151130000Y-131054093D01*
X151698285Y-130941054D01*
X152180054Y-130619147D01*
X152400000Y-130289974D01*
X152619946Y-130619147D01*
X153101715Y-130941054D01*
X153670000Y-131054093D01*
X154238285Y-130941054D01*
X154720054Y-130619147D01*
X154940000Y-130289974D01*
X155159946Y-130619147D01*
X155641715Y-130941054D01*
X156210000Y-131054093D01*
X156778285Y-130941054D01*
X157260054Y-130619147D01*
X157480000Y-130289974D01*
X157699946Y-130619147D01*
X158181715Y-130941054D01*
X158750000Y-131054093D01*
X159318285Y-130941054D01*
X159800054Y-130619147D01*
X160020000Y-130289974D01*
X160239946Y-130619147D01*
X160721715Y-130941054D01*
X161290000Y-131054093D01*
X161858285Y-130941054D01*
X162340054Y-130619147D01*
X162560000Y-130289974D01*
X162779946Y-130619147D01*
X163045000Y-130796250D01*
X163045000Y-133122560D01*
X162980000Y-133122560D01*
X162744683Y-133166838D01*
X162528559Y-133305910D01*
X162383569Y-133518110D01*
X162369914Y-133585541D01*
X162340054Y-133540853D01*
X161858285Y-133218946D01*
X161290000Y-133105907D01*
X160721715Y-133218946D01*
X160239946Y-133540853D01*
X160036307Y-133845621D01*
X159789293Y-133894755D01*
X159534621Y-134064921D01*
X159074542Y-134525000D01*
X126054717Y-134525000D01*
X125996894Y-134385057D01*
X125537363Y-133924722D01*
X124936648Y-133675284D01*
X124286205Y-133674716D01*
X123685057Y-133923106D01*
X123224722Y-134382637D01*
X123165608Y-134525000D01*
X119554717Y-134525000D01*
X119496894Y-134385057D01*
X119037363Y-133924722D01*
X118436648Y-133675284D01*
X117786205Y-133674716D01*
X117185057Y-133923106D01*
X116724722Y-134382637D01*
X116665608Y-134525000D01*
X115034977Y-134525000D01*
X115092325Y-134321930D01*
X114300000Y-133529605D01*
X114285858Y-133543748D01*
X114106253Y-133364143D01*
X114120395Y-133350000D01*
X114479605Y-133350000D01*
X115271930Y-134142325D01*
X115512931Y-134074265D01*
X115697767Y-133554966D01*
X115669805Y-133004462D01*
X115512931Y-132625735D01*
X115271930Y-132557675D01*
X114479605Y-133350000D01*
X114120395Y-133350000D01*
X114106253Y-133335858D01*
X114285858Y-133156253D01*
X114300000Y-133170395D01*
X115092325Y-132378070D01*
X115024265Y-132137069D01*
X114858960Y-132078231D01*
X115083837Y-131985314D01*
X115106658Y-131962532D01*
X117137073Y-131962532D01*
X117235736Y-132229387D01*
X117845461Y-132455908D01*
X118495460Y-132431856D01*
X118984264Y-132229387D01*
X119082927Y-131962532D01*
X123637073Y-131962532D01*
X123735736Y-132229387D01*
X124345461Y-132455908D01*
X124995460Y-132431856D01*
X125484264Y-132229387D01*
X125582927Y-131962532D01*
X124610000Y-130989605D01*
X123637073Y-131962532D01*
X119082927Y-131962532D01*
X118110000Y-130989605D01*
X117137073Y-131962532D01*
X115106658Y-131962532D01*
X115473944Y-131595887D01*
X115685329Y-131086816D01*
X115685801Y-130545461D01*
X116464092Y-130545461D01*
X116488144Y-131195460D01*
X116690613Y-131684264D01*
X116957468Y-131782927D01*
X117930395Y-130810000D01*
X118289605Y-130810000D01*
X119262532Y-131782927D01*
X119529387Y-131684264D01*
X119755908Y-131074539D01*
X119736331Y-130545461D01*
X122964092Y-130545461D01*
X122988144Y-131195460D01*
X123190613Y-131684264D01*
X123457468Y-131782927D01*
X124430395Y-130810000D01*
X124789605Y-130810000D01*
X125762532Y-131782927D01*
X126029387Y-131684264D01*
X126255908Y-131074539D01*
X126231856Y-130424540D01*
X126029387Y-129935736D01*
X125762532Y-129837073D01*
X124789605Y-130810000D01*
X124430395Y-130810000D01*
X123457468Y-129837073D01*
X123190613Y-129935736D01*
X122964092Y-130545461D01*
X119736331Y-130545461D01*
X119731856Y-130424540D01*
X119529387Y-129935736D01*
X119262532Y-129837073D01*
X118289605Y-130810000D01*
X117930395Y-130810000D01*
X116957468Y-129837073D01*
X116690613Y-129935736D01*
X116464092Y-130545461D01*
X115685801Y-130545461D01*
X115685810Y-130535602D01*
X115475314Y-130026163D01*
X115107262Y-129657468D01*
X117137073Y-129657468D01*
X118110000Y-130630395D01*
X119082927Y-129657468D01*
X123637073Y-129657468D01*
X124610000Y-130630395D01*
X125582927Y-129657468D01*
X125484264Y-129390613D01*
X124874539Y-129164092D01*
X124224540Y-129188144D01*
X123735736Y-129390613D01*
X123637073Y-129657468D01*
X119082927Y-129657468D01*
X118984264Y-129390613D01*
X118374539Y-129164092D01*
X117724540Y-129188144D01*
X117235736Y-129390613D01*
X117137073Y-129657468D01*
X115107262Y-129657468D01*
X115085887Y-129636056D01*
X114576816Y-129424671D01*
X114025602Y-129424190D01*
X113870500Y-129488277D01*
X113870500Y-125283039D01*
X113971043Y-125526372D01*
X114500839Y-126057093D01*
X115193405Y-126344672D01*
X115943305Y-126345326D01*
X116636372Y-126058957D01*
X117167093Y-125529161D01*
X117454672Y-124836595D01*
X117455326Y-124086695D01*
X117399852Y-123952438D01*
X118142290Y-123210000D01*
X121292560Y-123210000D01*
X121292560Y-125710000D01*
X121336838Y-125945317D01*
X121475910Y-126161441D01*
X121688110Y-126306431D01*
X121940000Y-126357440D01*
X124440000Y-126357440D01*
X124675317Y-126313162D01*
X124891441Y-126174090D01*
X125036431Y-125961890D01*
X125087440Y-125710000D01*
X125087440Y-124076763D01*
X129424430Y-124076763D01*
X129424430Y-124843237D01*
X129529900Y-125373472D01*
X129830254Y-125822983D01*
X130279765Y-126123337D01*
X130810000Y-126228807D01*
X131340235Y-126123337D01*
X131789746Y-125822983D01*
X132080000Y-125388588D01*
X132370254Y-125822983D01*
X132819765Y-126123337D01*
X133350000Y-126228807D01*
X133880235Y-126123337D01*
X134329746Y-125822983D01*
X134620000Y-125388588D01*
X134910254Y-125822983D01*
X135359765Y-126123337D01*
X135890000Y-126228807D01*
X136420235Y-126123337D01*
X136869746Y-125822983D01*
X137160000Y-125388588D01*
X137450254Y-125822983D01*
X137899765Y-126123337D01*
X138430000Y-126228807D01*
X138960235Y-126123337D01*
X139409746Y-125822983D01*
X139700000Y-125388588D01*
X139990254Y-125822983D01*
X140439765Y-126123337D01*
X140970000Y-126228807D01*
X141500235Y-126123337D01*
X141949746Y-125822983D01*
X142240000Y-125388588D01*
X142530254Y-125822983D01*
X142979765Y-126123337D01*
X143510000Y-126228807D01*
X144040235Y-126123337D01*
X144489746Y-125822983D01*
X144780000Y-125388588D01*
X145070254Y-125822983D01*
X145519765Y-126123337D01*
X146050000Y-126228807D01*
X146580235Y-126123337D01*
X147029746Y-125822983D01*
X147320000Y-125388588D01*
X147610254Y-125822983D01*
X148059765Y-126123337D01*
X148590000Y-126228807D01*
X149120235Y-126123337D01*
X149569746Y-125822983D01*
X149860000Y-125388588D01*
X150150254Y-125822983D01*
X150599765Y-126123337D01*
X151130000Y-126228807D01*
X151660235Y-126123337D01*
X152109746Y-125822983D01*
X152400000Y-125388588D01*
X152690254Y-125822983D01*
X153139765Y-126123337D01*
X153670000Y-126228807D01*
X154200235Y-126123337D01*
X154649746Y-125822983D01*
X154940000Y-125388588D01*
X155230254Y-125822983D01*
X155679765Y-126123337D01*
X156210000Y-126228807D01*
X156740235Y-126123337D01*
X157189746Y-125822983D01*
X157480000Y-125388588D01*
X157770254Y-125822983D01*
X158219765Y-126123337D01*
X158750000Y-126228807D01*
X159280235Y-126123337D01*
X159729746Y-125822983D01*
X160020000Y-125388588D01*
X160310254Y-125822983D01*
X160759765Y-126123337D01*
X161290000Y-126228807D01*
X161820235Y-126123337D01*
X162269746Y-125822983D01*
X162560000Y-125388588D01*
X162850254Y-125822983D01*
X163299765Y-126123337D01*
X163830000Y-126228807D01*
X164360235Y-126123337D01*
X164809746Y-125822983D01*
X165100000Y-125388588D01*
X165390254Y-125822983D01*
X165839765Y-126123337D01*
X166370000Y-126228807D01*
X166900235Y-126123337D01*
X167349746Y-125822983D01*
X167640000Y-125388588D01*
X167930254Y-125822983D01*
X168379765Y-126123337D01*
X168910000Y-126228807D01*
X169440235Y-126123337D01*
X169889746Y-125822983D01*
X170180000Y-125388588D01*
X170470254Y-125822983D01*
X170919765Y-126123337D01*
X171450000Y-126228807D01*
X171980235Y-126123337D01*
X172429746Y-125822983D01*
X172720000Y-125388588D01*
X173010254Y-125822983D01*
X173459765Y-126123337D01*
X173990000Y-126228807D01*
X174520235Y-126123337D01*
X174969746Y-125822983D01*
X175260000Y-125388588D01*
X175550254Y-125822983D01*
X175999765Y-126123337D01*
X176530000Y-126228807D01*
X177060235Y-126123337D01*
X177509746Y-125822983D01*
X177800000Y-125388588D01*
X178090254Y-125822983D01*
X178539765Y-126123337D01*
X179070000Y-126228807D01*
X179600235Y-126123337D01*
X180049746Y-125822983D01*
X180350100Y-125373472D01*
X180455570Y-124843237D01*
X180455570Y-124076763D01*
X180350100Y-123546528D01*
X180049746Y-123097017D01*
X179600235Y-122796663D01*
X179070000Y-122691193D01*
X178539765Y-122796663D01*
X178090254Y-123097017D01*
X177800000Y-123531412D01*
X177509746Y-123097017D01*
X177060235Y-122796663D01*
X176530000Y-122691193D01*
X175999765Y-122796663D01*
X175550254Y-123097017D01*
X175260000Y-123531412D01*
X174969746Y-123097017D01*
X174520235Y-122796663D01*
X173990000Y-122691193D01*
X173459765Y-122796663D01*
X173010254Y-123097017D01*
X172720000Y-123531412D01*
X172429746Y-123097017D01*
X171980235Y-122796663D01*
X171450000Y-122691193D01*
X170919765Y-122796663D01*
X170470254Y-123097017D01*
X170180000Y-123531412D01*
X169889746Y-123097017D01*
X169440235Y-122796663D01*
X168910000Y-122691193D01*
X168379765Y-122796663D01*
X167930254Y-123097017D01*
X167640000Y-123531412D01*
X167349746Y-123097017D01*
X166900235Y-122796663D01*
X166370000Y-122691193D01*
X165839765Y-122796663D01*
X165390254Y-123097017D01*
X165100000Y-123531412D01*
X164809746Y-123097017D01*
X164360235Y-122796663D01*
X163830000Y-122691193D01*
X163299765Y-122796663D01*
X162850254Y-123097017D01*
X162560000Y-123531412D01*
X162269746Y-123097017D01*
X161820235Y-122796663D01*
X161290000Y-122691193D01*
X160759765Y-122796663D01*
X160310254Y-123097017D01*
X160020000Y-123531412D01*
X159729746Y-123097017D01*
X159280235Y-122796663D01*
X158750000Y-122691193D01*
X158219765Y-122796663D01*
X157770254Y-123097017D01*
X157480000Y-123531412D01*
X157189746Y-123097017D01*
X156740235Y-122796663D01*
X156210000Y-122691193D01*
X155679765Y-122796663D01*
X155230254Y-123097017D01*
X154940000Y-123531412D01*
X154649746Y-123097017D01*
X154200235Y-122796663D01*
X153670000Y-122691193D01*
X153139765Y-122796663D01*
X152690254Y-123097017D01*
X152400000Y-123531412D01*
X152109746Y-123097017D01*
X151660235Y-122796663D01*
X151130000Y-122691193D01*
X150599765Y-122796663D01*
X150150254Y-123097017D01*
X149860000Y-123531412D01*
X149569746Y-123097017D01*
X149120235Y-122796663D01*
X148590000Y-122691193D01*
X148059765Y-122796663D01*
X147610254Y-123097017D01*
X147320000Y-123531412D01*
X147029746Y-123097017D01*
X146580235Y-122796663D01*
X146050000Y-122691193D01*
X145519765Y-122796663D01*
X145070254Y-123097017D01*
X144780000Y-123531412D01*
X144489746Y-123097017D01*
X144040235Y-122796663D01*
X143510000Y-122691193D01*
X142979765Y-122796663D01*
X142530254Y-123097017D01*
X142240000Y-123531412D01*
X141949746Y-123097017D01*
X141500235Y-122796663D01*
X140970000Y-122691193D01*
X140439765Y-122796663D01*
X139990254Y-123097017D01*
X139700000Y-123531412D01*
X139409746Y-123097017D01*
X138960235Y-122796663D01*
X138430000Y-122691193D01*
X137899765Y-122796663D01*
X137450254Y-123097017D01*
X137160000Y-123531412D01*
X136869746Y-123097017D01*
X136420235Y-122796663D01*
X135890000Y-122691193D01*
X135359765Y-122796663D01*
X134910254Y-123097017D01*
X134620000Y-123531412D01*
X134329746Y-123097017D01*
X133880235Y-122796663D01*
X133350000Y-122691193D01*
X132819765Y-122796663D01*
X132370254Y-123097017D01*
X132080000Y-123531412D01*
X131789746Y-123097017D01*
X131340235Y-122796663D01*
X130810000Y-122691193D01*
X130279765Y-122796663D01*
X129830254Y-123097017D01*
X129529900Y-123546528D01*
X129424430Y-124076763D01*
X125087440Y-124076763D01*
X125087440Y-123210000D01*
X125043162Y-122974683D01*
X124904090Y-122758559D01*
X124691890Y-122613569D01*
X124440000Y-122562560D01*
X121940000Y-122562560D01*
X121704683Y-122606838D01*
X121488559Y-122745910D01*
X121343569Y-122958110D01*
X121292560Y-123210000D01*
X118142290Y-123210000D01*
X126117290Y-115235000D01*
X129663630Y-115235000D01*
X129759946Y-115379147D01*
X130241715Y-115701054D01*
X130810000Y-115814093D01*
X131378285Y-115701054D01*
X131860054Y-115379147D01*
X132080000Y-115049974D01*
X132299946Y-115379147D01*
X132781715Y-115701054D01*
X133350000Y-115814093D01*
X133918285Y-115701054D01*
X134400054Y-115379147D01*
X134620000Y-115049974D01*
X134839946Y-115379147D01*
X135321715Y-115701054D01*
X135890000Y-115814093D01*
X136458285Y-115701054D01*
X136940054Y-115379147D01*
X137160000Y-115049974D01*
X137379946Y-115379147D01*
X137861715Y-115701054D01*
X138430000Y-115814093D01*
X138998285Y-115701054D01*
X139480054Y-115379147D01*
X139700000Y-115049974D01*
X139919946Y-115379147D01*
X140401715Y-115701054D01*
X140970000Y-115814093D01*
X141538285Y-115701054D01*
X142020054Y-115379147D01*
X142240000Y-115049974D01*
X142459946Y-115379147D01*
X142941715Y-115701054D01*
X143510000Y-115814093D01*
X144078285Y-115701054D01*
X144560054Y-115379147D01*
X144780000Y-115049974D01*
X144999946Y-115379147D01*
X145481715Y-115701054D01*
X146050000Y-115814093D01*
X146618285Y-115701054D01*
X147100054Y-115379147D01*
X147320000Y-115049974D01*
X147539946Y-115379147D01*
X148021715Y-115701054D01*
X148590000Y-115814093D01*
X149158285Y-115701054D01*
X149640054Y-115379147D01*
X149860000Y-115049974D01*
X150079946Y-115379147D01*
X150561715Y-115701054D01*
X151130000Y-115814093D01*
X151698285Y-115701054D01*
X152180054Y-115379147D01*
X152383693Y-115074379D01*
X152412481Y-115068653D01*
X152619946Y-115379147D01*
X153101715Y-115701054D01*
X153670000Y-115814093D01*
X154238285Y-115701054D01*
X154720054Y-115379147D01*
X154940000Y-115049974D01*
X155159946Y-115379147D01*
X155641715Y-115701054D01*
X156210000Y-115814093D01*
X156778285Y-115701054D01*
X157260054Y-115379147D01*
X157480000Y-115049974D01*
X157699946Y-115379147D01*
X158181715Y-115701054D01*
X158750000Y-115814093D01*
X159318285Y-115701054D01*
X159800054Y-115379147D01*
X160003693Y-115074379D01*
X160032481Y-115068653D01*
X160239946Y-115379147D01*
X160721715Y-115701054D01*
X161290000Y-115814093D01*
X161858285Y-115701054D01*
X162340054Y-115379147D01*
X162560000Y-115049974D01*
X162779946Y-115379147D01*
X163261715Y-115701054D01*
X163830000Y-115814093D01*
X164398285Y-115701054D01*
X164880054Y-115379147D01*
X165100000Y-115049974D01*
X165319946Y-115379147D01*
X165801715Y-115701054D01*
X166370000Y-115814093D01*
X166938285Y-115701054D01*
X167420054Y-115379147D01*
X167640000Y-115049974D01*
X167859946Y-115379147D01*
X168341715Y-115701054D01*
X168910000Y-115814093D01*
X169478285Y-115701054D01*
X169960054Y-115379147D01*
X170180000Y-115049974D01*
X170399946Y-115379147D01*
X170881715Y-115701054D01*
X171450000Y-115814093D01*
X172018285Y-115701054D01*
X172500054Y-115379147D01*
X172720000Y-115049974D01*
X172939946Y-115379147D01*
X173421715Y-115701054D01*
X173990000Y-115814093D01*
X174558285Y-115701054D01*
X175040054Y-115379147D01*
X175260000Y-115049974D01*
X175479946Y-115379147D01*
X175961715Y-115701054D01*
X176530000Y-115814093D01*
X177098285Y-115701054D01*
X177580054Y-115379147D01*
X177609403Y-115335223D01*
X177681673Y-115509698D01*
X177860301Y-115688327D01*
X178093690Y-115785000D01*
X178784250Y-115785000D01*
X178943000Y-115626250D01*
X178943000Y-114427000D01*
X179197000Y-114427000D01*
X179197000Y-115626250D01*
X179355750Y-115785000D01*
X180046310Y-115785000D01*
X180279699Y-115688327D01*
X180458327Y-115509698D01*
X180555000Y-115276309D01*
X180555000Y-114585750D01*
X180396250Y-114427000D01*
X179197000Y-114427000D01*
X178943000Y-114427000D01*
X178923000Y-114427000D01*
X178923000Y-114173000D01*
X178943000Y-114173000D01*
X178943000Y-114153000D01*
X179197000Y-114153000D01*
X179197000Y-114173000D01*
X180396250Y-114173000D01*
X180555000Y-114014250D01*
X180555000Y-113323691D01*
X180458327Y-113090302D01*
X180445375Y-113077350D01*
X180538407Y-113058845D01*
X180793079Y-112888679D01*
X182331179Y-111350579D01*
X182501345Y-111095906D01*
X182561100Y-110795500D01*
X182561100Y-85425205D01*
X182561101Y-85425200D01*
X182501345Y-85124794D01*
X182331179Y-84870121D01*
X180725979Y-83264921D01*
X180471307Y-83094755D01*
X180384090Y-83077406D01*
X180350100Y-82906528D01*
X180049746Y-82457017D01*
X179600235Y-82156663D01*
X179070000Y-82051193D01*
X178539765Y-82156663D01*
X178090254Y-82457017D01*
X177800000Y-82891412D01*
X177509746Y-82457017D01*
X177060235Y-82156663D01*
X176530000Y-82051193D01*
X175999765Y-82156663D01*
X175550254Y-82457017D01*
X175260000Y-82891412D01*
X174969746Y-82457017D01*
X174520235Y-82156663D01*
X173990000Y-82051193D01*
X173459765Y-82156663D01*
X173087836Y-82405178D01*
X168315979Y-77633321D01*
X168061307Y-77463155D01*
X167760900Y-77403400D01*
X155938300Y-77403400D01*
X155637894Y-77463155D01*
X155383221Y-77633321D01*
X153638195Y-79378347D01*
X153575314Y-79226163D01*
X153185887Y-78836056D01*
X152676816Y-78624671D01*
X152125602Y-78624190D01*
X151915000Y-78711209D01*
X151915000Y-75042258D01*
X156456705Y-70500553D01*
X156466867Y-70500562D01*
X156627269Y-70434285D01*
X159904760Y-70434285D01*
X160115169Y-70943515D01*
X160504436Y-71333461D01*
X161013298Y-71544759D01*
X161564285Y-71545240D01*
X162073515Y-71334831D01*
X162463461Y-70945564D01*
X162674759Y-70436702D01*
X162675240Y-69885715D01*
X162464831Y-69376485D01*
X162075564Y-68986539D01*
X161566702Y-68775241D01*
X161015715Y-68774760D01*
X160506485Y-68985169D01*
X160116539Y-69374436D01*
X159905241Y-69883298D01*
X159904760Y-70434285D01*
X156627269Y-70434285D01*
X156810643Y-70358517D01*
X157073892Y-70095727D01*
X157216538Y-69752199D01*
X157216862Y-69380233D01*
X157074817Y-69036457D01*
X156812027Y-68773208D01*
X156468499Y-68630562D01*
X156096533Y-68630238D01*
X155752757Y-68772283D01*
X155489508Y-69035073D01*
X155346862Y-69378601D01*
X155346852Y-69390090D01*
X150574921Y-74162021D01*
X150404755Y-74416693D01*
X150404755Y-74416694D01*
X150345000Y-74717100D01*
X150345000Y-78711907D01*
X150064966Y-78612233D01*
X149514462Y-78640195D01*
X149135735Y-78797069D01*
X149067675Y-79038070D01*
X149860000Y-79830395D01*
X149874143Y-79816253D01*
X150053748Y-79995858D01*
X150039605Y-80010000D01*
X150053748Y-80024143D01*
X149874143Y-80203748D01*
X149860000Y-80189605D01*
X149067675Y-80981930D01*
X149135735Y-81222931D01*
X149225176Y-81254766D01*
X149082242Y-81397700D01*
X147925600Y-81397700D01*
X147625193Y-81457455D01*
X147370521Y-81627621D01*
X147150900Y-81847242D01*
X145108692Y-79805034D01*
X148462233Y-79805034D01*
X148490195Y-80355538D01*
X148647069Y-80734265D01*
X148888070Y-80802325D01*
X149680395Y-80010000D01*
X148888070Y-79217675D01*
X148647069Y-79285735D01*
X148462233Y-79805034D01*
X145108692Y-79805034D01*
X140889079Y-75585421D01*
X140634407Y-75415255D01*
X140334000Y-75355500D01*
X129846411Y-75355500D01*
X129861803Y-75271275D01*
X129739149Y-75057000D01*
X128397000Y-75057000D01*
X128397000Y-75077000D01*
X128143000Y-75077000D01*
X128143000Y-75057000D01*
X126800851Y-75057000D01*
X126678197Y-75271275D01*
X126693589Y-75355500D01*
X124313306Y-75355500D01*
X124306127Y-75348308D01*
X123962599Y-75205662D01*
X123590633Y-75205338D01*
X123246857Y-75347383D01*
X122983608Y-75610173D01*
X122840962Y-75953701D01*
X122840638Y-76325667D01*
X122982683Y-76669443D01*
X123245473Y-76932692D01*
X123589001Y-77075338D01*
X123960967Y-77075662D01*
X124304743Y-76933617D01*
X124312874Y-76925500D01*
X140008842Y-76925500D01*
X145352061Y-82268719D01*
X145160244Y-82396887D01*
X141285779Y-78522421D01*
X141031107Y-78352255D01*
X140730700Y-78292500D01*
X122710758Y-78292500D01*
X119391794Y-74973536D01*
X119503000Y-74891868D01*
X119503000Y-73787000D01*
X119757000Y-73787000D01*
X119757000Y-74891868D01*
X119976055Y-75052739D01*
X120501721Y-74909964D01*
X120932736Y-74576894D01*
X121203481Y-74104235D01*
X121222318Y-74001185D01*
X121099656Y-73787000D01*
X119757000Y-73787000D01*
X119503000Y-73787000D01*
X119483000Y-73787000D01*
X119483000Y-73533000D01*
X119503000Y-73533000D01*
X119503000Y-73513000D01*
X119757000Y-73513000D01*
X119757000Y-73533000D01*
X121099656Y-73533000D01*
X121222318Y-73318815D01*
X121203481Y-73215765D01*
X120932736Y-72743106D01*
X120501721Y-72410036D01*
X120448161Y-72395489D01*
X120891375Y-72099343D01*
X121191605Y-71650017D01*
X121297032Y-71120000D01*
X121229243Y-70779200D01*
X123304042Y-70779200D01*
X124176021Y-71651179D01*
X124430694Y-71821345D01*
X124731100Y-71881100D01*
X126704714Y-71881100D01*
X126603488Y-72390000D01*
X126708958Y-72920235D01*
X127009312Y-73369746D01*
X127451947Y-73665506D01*
X127398167Y-73680159D01*
X126967290Y-74013676D01*
X126696843Y-74486695D01*
X126678197Y-74588725D01*
X126800851Y-74803000D01*
X128143000Y-74803000D01*
X128143000Y-74783000D01*
X128397000Y-74783000D01*
X128397000Y-74803000D01*
X129739149Y-74803000D01*
X129861803Y-74588725D01*
X129843157Y-74486695D01*
X129572710Y-74013676D01*
X129141833Y-73680159D01*
X129088053Y-73665506D01*
X129530688Y-73369746D01*
X129831042Y-72920235D01*
X129936512Y-72390000D01*
X129835286Y-71881100D01*
X130651700Y-71881100D01*
X130728125Y-71865898D01*
X132952011Y-74089868D01*
X132952016Y-74089871D01*
X132952021Y-74089879D01*
X133095341Y-74185642D01*
X133206680Y-74260039D01*
X133206687Y-74260040D01*
X133206694Y-74260045D01*
X133362492Y-74291035D01*
X133507085Y-74319800D01*
X133507093Y-74319799D01*
X133507100Y-74319800D01*
X142700900Y-74319800D01*
X143001307Y-74260045D01*
X143255979Y-74089879D01*
X143812025Y-73533832D01*
X144075967Y-73534062D01*
X144410141Y-73395985D01*
X144499382Y-73485226D01*
X144614393Y-73370215D01*
X144683857Y-73612397D01*
X145207302Y-73799144D01*
X145762368Y-73771362D01*
X146146143Y-73612397D01*
X146215608Y-73370213D01*
X145415000Y-72569605D01*
X145400858Y-72583748D01*
X145221253Y-72404143D01*
X145235395Y-72390000D01*
X145594605Y-72390000D01*
X146395213Y-73190608D01*
X146637397Y-73121143D01*
X146824144Y-72597698D01*
X146796362Y-72042632D01*
X146637397Y-71658857D01*
X146395213Y-71589392D01*
X145594605Y-72390000D01*
X145235395Y-72390000D01*
X144434787Y-71589392D01*
X144192603Y-71658857D01*
X144176147Y-71704983D01*
X144077599Y-71664062D01*
X143705633Y-71663738D01*
X143361857Y-71805783D01*
X143207779Y-71959592D01*
X143081721Y-72043821D01*
X143081719Y-72043824D01*
X142375742Y-72749800D01*
X135348247Y-72749800D01*
X135381757Y-72669100D01*
X135382242Y-72113339D01*
X135379195Y-72105963D01*
X136075371Y-71409787D01*
X144614392Y-71409787D01*
X145415000Y-72210395D01*
X146215608Y-71409787D01*
X146146143Y-71167603D01*
X145622698Y-70980856D01*
X145067632Y-71008638D01*
X144683857Y-71167603D01*
X144614392Y-71409787D01*
X136075371Y-71409787D01*
X139898497Y-67586661D01*
X144017758Y-67586661D01*
X144229990Y-68100303D01*
X144622630Y-68493629D01*
X145135900Y-68706757D01*
X145691661Y-68707242D01*
X146205303Y-68495010D01*
X146598629Y-68102370D01*
X146811757Y-67589100D01*
X146812242Y-67033339D01*
X146809195Y-67025963D01*
X148940158Y-64895000D01*
X155733394Y-64895000D01*
X155740573Y-64902192D01*
X156084101Y-65044838D01*
X156456067Y-65045162D01*
X156799843Y-64903117D01*
X157063092Y-64640327D01*
X157205738Y-64296799D01*
X157206062Y-63924833D01*
X157064017Y-63581057D01*
X156801227Y-63317808D01*
X156457699Y-63175162D01*
X156085733Y-63174838D01*
X155741957Y-63316883D01*
X155733826Y-63325000D01*
X148615000Y-63325000D01*
X148314594Y-63384755D01*
X148314592Y-63384756D01*
X148314593Y-63384756D01*
X148059921Y-63554921D01*
X145699399Y-65915443D01*
X145694100Y-65913243D01*
X145138339Y-65912758D01*
X144624697Y-66124990D01*
X144231371Y-66517630D01*
X144018243Y-67030900D01*
X144017758Y-67586661D01*
X139898497Y-67586661D01*
X143836731Y-63648427D01*
X143980000Y-63677440D01*
X145580000Y-63677440D01*
X145815317Y-63633162D01*
X146031441Y-63494090D01*
X146176431Y-63281890D01*
X146227440Y-63030000D01*
X146227440Y-61430000D01*
X146183162Y-61194683D01*
X146044090Y-60978559D01*
X145831890Y-60833569D01*
X145580000Y-60782560D01*
X144332900Y-60782560D01*
X144332900Y-55984179D01*
X144780000Y-56073113D01*
X145329151Y-55963880D01*
X145794698Y-55652811D01*
X146105767Y-55187264D01*
X146215000Y-54638113D01*
X146215000Y-54581887D01*
X146105767Y-54032736D01*
X145794698Y-53567189D01*
X145335078Y-53260080D01*
X146400601Y-52194557D01*
X146405900Y-52196757D01*
X146961661Y-52197242D01*
X147475303Y-51985010D01*
X147868629Y-51592370D01*
X148081757Y-51079100D01*
X148082242Y-50523339D01*
X148045446Y-50434285D01*
X159904760Y-50434285D01*
X160115169Y-50943515D01*
X160504436Y-51333461D01*
X161013298Y-51544759D01*
X161564285Y-51545240D01*
X162073515Y-51334831D01*
X162463461Y-50945564D01*
X162674759Y-50436702D01*
X162675240Y-49885715D01*
X162464831Y-49376485D01*
X162075564Y-48986539D01*
X161566702Y-48775241D01*
X161015715Y-48774760D01*
X160506485Y-48985169D01*
X160116539Y-49374436D01*
X159905241Y-49883298D01*
X159904760Y-50434285D01*
X148045446Y-50434285D01*
X147870010Y-50009697D01*
X147477370Y-49616371D01*
X146964100Y-49403243D01*
X146408339Y-49402758D01*
X145894697Y-49614990D01*
X145501371Y-50007630D01*
X145288243Y-50520900D01*
X145287758Y-51076661D01*
X145290805Y-51084037D01*
X142992821Y-53382021D01*
X142822655Y-53636693D01*
X142822655Y-53636694D01*
X142762900Y-53937100D01*
X142762900Y-62501942D01*
X142308700Y-62956142D01*
X142308700Y-51206458D01*
X146400601Y-47114557D01*
X146405900Y-47116757D01*
X146961661Y-47117242D01*
X147475303Y-46905010D01*
X147868629Y-46512370D01*
X148081757Y-45999100D01*
X148082242Y-45443339D01*
X147870010Y-44929697D01*
X147477370Y-44536371D01*
X146964100Y-44323243D01*
X146408339Y-44322758D01*
X145894697Y-44534990D01*
X145501371Y-44927630D01*
X145288243Y-45440900D01*
X145287758Y-45996661D01*
X145290806Y-46004037D01*
X140968621Y-50326221D01*
X140798455Y-50580893D01*
X140798455Y-50580894D01*
X140738700Y-50881300D01*
X140738700Y-53210898D01*
X140500000Y-53162560D01*
X138900000Y-53162560D01*
X138715968Y-53197188D01*
X138622579Y-53057421D01*
X136649557Y-51084399D01*
X136651757Y-51079100D01*
X136652242Y-50523339D01*
X136440010Y-50009697D01*
X136047370Y-49616371D01*
X135534100Y-49403243D01*
X134978339Y-49402758D01*
X134464697Y-49614990D01*
X134071371Y-50007630D01*
X133858243Y-50520900D01*
X133857758Y-51076661D01*
X134069990Y-51590303D01*
X134462630Y-51983629D01*
X134975900Y-52196757D01*
X135531661Y-52197242D01*
X135539037Y-52194195D01*
X137282500Y-53937658D01*
X137282500Y-60987794D01*
X137275308Y-60994973D01*
X137132662Y-61338501D01*
X137132530Y-61490600D01*
X134424400Y-61490600D01*
X134066591Y-61561773D01*
X133763255Y-61764455D01*
X127882710Y-67645000D01*
X120921004Y-67645000D01*
X120891375Y-67600657D01*
X120442049Y-67300427D01*
X120315000Y-67275155D01*
X120315000Y-67229700D01*
X120243827Y-66871891D01*
X120041145Y-66568555D01*
X119737809Y-66365873D01*
X119380000Y-66294700D01*
X118964600Y-66294700D01*
X118964600Y-61511918D01*
X118973827Y-61498109D01*
X119038564Y-61172657D01*
X119195317Y-61143162D01*
X119411441Y-61004090D01*
X119556431Y-60791890D01*
X119590227Y-60625000D01*
X120015000Y-60625000D01*
X120372809Y-60553827D01*
X120676145Y-60351145D01*
X121060629Y-59966661D01*
X122427758Y-59966661D01*
X122639990Y-60480303D01*
X123032630Y-60873629D01*
X123545900Y-61086757D01*
X124101661Y-61087242D01*
X124615303Y-60875010D01*
X125008629Y-60482370D01*
X125221757Y-59969100D01*
X125221759Y-59966661D01*
X133857758Y-59966661D01*
X134069990Y-60480303D01*
X134462630Y-60873629D01*
X134975900Y-61086757D01*
X135531661Y-61087242D01*
X136045303Y-60875010D01*
X136438629Y-60482370D01*
X136651757Y-59969100D01*
X136652242Y-59413339D01*
X136440010Y-58899697D01*
X136047370Y-58506371D01*
X135534100Y-58293243D01*
X134978339Y-58292758D01*
X134464697Y-58504990D01*
X134071371Y-58897630D01*
X133858243Y-59410900D01*
X133857758Y-59966661D01*
X125221759Y-59966661D01*
X125222242Y-59413339D01*
X125010010Y-58899697D01*
X124617370Y-58506371D01*
X124104100Y-58293243D01*
X123548339Y-58292758D01*
X123034697Y-58504990D01*
X122641371Y-58897630D01*
X122428243Y-59410900D01*
X122427758Y-59966661D01*
X121060629Y-59966661D01*
X123750355Y-57276935D01*
X124101661Y-57277242D01*
X124615303Y-57065010D01*
X125008629Y-56672370D01*
X125221757Y-56159100D01*
X125221759Y-56156661D01*
X133857758Y-56156661D01*
X134069990Y-56670303D01*
X134462630Y-57063629D01*
X134975900Y-57276757D01*
X135531661Y-57277242D01*
X136045303Y-57065010D01*
X136438629Y-56672370D01*
X136651757Y-56159100D01*
X136652242Y-55603339D01*
X136440010Y-55089697D01*
X136047370Y-54696371D01*
X135534100Y-54483243D01*
X134978339Y-54482758D01*
X134464697Y-54694990D01*
X134071371Y-55087630D01*
X133858243Y-55600900D01*
X133857758Y-56156661D01*
X125221759Y-56156661D01*
X125222066Y-55805224D01*
X134293293Y-46733997D01*
X134462630Y-46903629D01*
X134975900Y-47116757D01*
X135531661Y-47117242D01*
X136045303Y-46905010D01*
X136438629Y-46512370D01*
X136651757Y-45999100D01*
X136652242Y-45443339D01*
X136440010Y-44929697D01*
X136047370Y-44536371D01*
X135534100Y-44323243D01*
X134978339Y-44322758D01*
X134464697Y-44534990D01*
X134214250Y-44785000D01*
X133985000Y-44785000D01*
X133627191Y-44856173D01*
X133323855Y-45058855D01*
X123899645Y-54483065D01*
X123548339Y-54482758D01*
X123034697Y-54694990D01*
X122641371Y-55087630D01*
X122428243Y-55600900D01*
X122427934Y-55954776D01*
X119627710Y-58755000D01*
X119591446Y-58755000D01*
X119563162Y-58604683D01*
X119424090Y-58388559D01*
X119211890Y-58243569D01*
X118960000Y-58192560D01*
X117260000Y-58192560D01*
X117024683Y-58236838D01*
X116808559Y-58375910D01*
X116663569Y-58588110D01*
X116641699Y-58696107D01*
X116336924Y-58418355D01*
X115926890Y-58248524D01*
X115697000Y-58369845D01*
X115697000Y-59563000D01*
X115717000Y-59563000D01*
X115717000Y-59817000D01*
X115697000Y-59817000D01*
X115697000Y-61010155D01*
X115926890Y-61131476D01*
X116336924Y-60961645D01*
X116639937Y-60685499D01*
X116656838Y-60775317D01*
X116795910Y-60991441D01*
X117008110Y-61136431D01*
X117107364Y-61156530D01*
X117094600Y-61220700D01*
X117094600Y-66294600D01*
X115317500Y-66294600D01*
X114959691Y-66365773D01*
X114656355Y-66568455D01*
X111733855Y-69490955D01*
X111531173Y-69794291D01*
X111460000Y-70152100D01*
X111460000Y-80239435D01*
X111211371Y-80487630D01*
X110998243Y-81000900D01*
X110997758Y-81556661D01*
X108635000Y-81556661D01*
X108635000Y-60046892D01*
X114128514Y-60046892D01*
X114374817Y-60571358D01*
X114803076Y-60961645D01*
X115213110Y-61131476D01*
X115443000Y-61010155D01*
X115443000Y-59817000D01*
X114249181Y-59817000D01*
X114128514Y-60046892D01*
X108635000Y-60046892D01*
X108635000Y-59333108D01*
X114128514Y-59333108D01*
X114249181Y-59563000D01*
X115443000Y-59563000D01*
X115443000Y-58369845D01*
X115213110Y-58248524D01*
X114803076Y-58418355D01*
X114374817Y-58808642D01*
X114128514Y-59333108D01*
X108635000Y-59333108D01*
X108635000Y-42595000D01*
X183465000Y-42595000D01*
X183465000Y-139015000D01*
X183465000Y-139015000D01*
G37*
X183465000Y-139015000D02*
X108635000Y-139015000D01*
X108635000Y-81556661D01*
X110997758Y-81556661D01*
X111209990Y-82070303D01*
X111602630Y-82463629D01*
X112115900Y-82676757D01*
X112406080Y-82677010D01*
X112360255Y-82745593D01*
X112344799Y-82823294D01*
X112300500Y-83046000D01*
X112300500Y-133870500D01*
X112360255Y-134170907D01*
X112530421Y-134425579D01*
X113969921Y-135865079D01*
X114224594Y-136035245D01*
X114525000Y-136095000D01*
X116665283Y-136095000D01*
X116723106Y-136234943D01*
X117182637Y-136695278D01*
X117783352Y-136944716D01*
X118433795Y-136945284D01*
X119034943Y-136696894D01*
X119495278Y-136237363D01*
X119554392Y-136095000D01*
X123165283Y-136095000D01*
X123223106Y-136234943D01*
X123682637Y-136695278D01*
X124283352Y-136944716D01*
X124933795Y-136945284D01*
X125534943Y-136696894D01*
X125995278Y-136237363D01*
X126054392Y-136095000D01*
X159399700Y-136095000D01*
X159700107Y-136035245D01*
X159954779Y-135865079D01*
X160192187Y-135627671D01*
X160239946Y-135699147D01*
X160721715Y-136021054D01*
X161290000Y-136134093D01*
X161858285Y-136021054D01*
X162340054Y-135699147D01*
X162367850Y-135657548D01*
X162376838Y-135705317D01*
X162515910Y-135921441D01*
X162728110Y-136066431D01*
X162980000Y-136117440D01*
X164680000Y-136117440D01*
X164915317Y-136073162D01*
X165131441Y-135934090D01*
X165276431Y-135721890D01*
X165327440Y-135470000D01*
X165327440Y-133770000D01*
X165283162Y-133534683D01*
X165144090Y-133318559D01*
X164931890Y-133173569D01*
X164680000Y-133122560D01*
X164615000Y-133122560D01*
X164615000Y-130796250D01*
X164880054Y-130619147D01*
X165100000Y-130289974D01*
X165319946Y-130619147D01*
X165801715Y-130941054D01*
X166370000Y-131054093D01*
X166938285Y-130941054D01*
X167420054Y-130619147D01*
X167640000Y-130289974D01*
X167859946Y-130619147D01*
X168341715Y-130941054D01*
X168910000Y-131054093D01*
X169478285Y-130941054D01*
X169960054Y-130619147D01*
X170180000Y-130289974D01*
X170399946Y-130619147D01*
X170881715Y-130941054D01*
X171450000Y-131054093D01*
X172018285Y-130941054D01*
X172500054Y-130619147D01*
X172720000Y-130289974D01*
X172939946Y-130619147D01*
X173421715Y-130941054D01*
X173990000Y-131054093D01*
X174558285Y-130941054D01*
X175040054Y-130619147D01*
X175260000Y-130289974D01*
X175479946Y-130619147D01*
X175961715Y-130941054D01*
X176530000Y-131054093D01*
X177098285Y-130941054D01*
X177580054Y-130619147D01*
X177800000Y-130289974D01*
X178019946Y-130619147D01*
X178501715Y-130941054D01*
X179070000Y-131054093D01*
X179638285Y-130941054D01*
X180120054Y-130619147D01*
X180441961Y-130137378D01*
X180555000Y-129569093D01*
X180555000Y-129510907D01*
X180441961Y-128942622D01*
X180120054Y-128460853D01*
X179638285Y-128138946D01*
X179070000Y-128025907D01*
X178501715Y-128138946D01*
X178019946Y-128460853D01*
X177800000Y-128790026D01*
X177580054Y-128460853D01*
X177098285Y-128138946D01*
X176530000Y-128025907D01*
X175961715Y-128138946D01*
X175479946Y-128460853D01*
X175260000Y-128790026D01*
X175040054Y-128460853D01*
X174558285Y-128138946D01*
X173990000Y-128025907D01*
X173421715Y-128138946D01*
X172939946Y-128460853D01*
X172720000Y-128790026D01*
X172500054Y-128460853D01*
X172018285Y-128138946D01*
X171450000Y-128025907D01*
X170881715Y-128138946D01*
X170399946Y-128460853D01*
X170180000Y-128790026D01*
X169960054Y-128460853D01*
X169478285Y-128138946D01*
X168910000Y-128025907D01*
X168341715Y-128138946D01*
X167859946Y-128460853D01*
X167640000Y-128790026D01*
X167420054Y-128460853D01*
X166938285Y-128138946D01*
X166370000Y-128025907D01*
X165801715Y-128138946D01*
X165319946Y-128460853D01*
X165100000Y-128790026D01*
X164880054Y-128460853D01*
X164398285Y-128138946D01*
X163830000Y-128025907D01*
X163261715Y-128138946D01*
X162779946Y-128460853D01*
X162560000Y-128790026D01*
X162340054Y-128460853D01*
X161858285Y-128138946D01*
X161290000Y-128025907D01*
X160721715Y-128138946D01*
X160239946Y-128460853D01*
X160020000Y-128790026D01*
X159800054Y-128460853D01*
X159318285Y-128138946D01*
X158750000Y-128025907D01*
X158181715Y-128138946D01*
X157699946Y-128460853D01*
X157480000Y-128790026D01*
X157260054Y-128460853D01*
X156778285Y-128138946D01*
X156210000Y-128025907D01*
X155641715Y-128138946D01*
X155159946Y-128460853D01*
X154940000Y-128790026D01*
X154720054Y-128460853D01*
X154238285Y-128138946D01*
X153670000Y-128025907D01*
X153101715Y-128138946D01*
X152619946Y-128460853D01*
X152400000Y-128790026D01*
X152180054Y-128460853D01*
X151698285Y-128138946D01*
X151130000Y-128025907D01*
X150561715Y-128138946D01*
X150079946Y-128460853D01*
X149860000Y-128790026D01*
X149640054Y-128460853D01*
X149158285Y-128138946D01*
X148590000Y-128025907D01*
X148021715Y-128138946D01*
X147539946Y-128460853D01*
X147320000Y-128790026D01*
X147100054Y-128460853D01*
X146618285Y-128138946D01*
X146050000Y-128025907D01*
X145481715Y-128138946D01*
X144999946Y-128460853D01*
X144780000Y-128790026D01*
X144560054Y-128460853D01*
X144078285Y-128138946D01*
X143510000Y-128025907D01*
X142941715Y-128138946D01*
X142459946Y-128460853D01*
X142240000Y-128790026D01*
X142020054Y-128460853D01*
X141538285Y-128138946D01*
X140970000Y-128025907D01*
X140401715Y-128138946D01*
X139919946Y-128460853D01*
X139700000Y-128790026D01*
X139480054Y-128460853D01*
X138998285Y-128138946D01*
X138430000Y-128025907D01*
X137861715Y-128138946D01*
X137379946Y-128460853D01*
X137160000Y-128790026D01*
X136940054Y-128460853D01*
X136458285Y-128138946D01*
X135890000Y-128025907D01*
X135321715Y-128138946D01*
X134839946Y-128460853D01*
X134620000Y-128790026D01*
X134400054Y-128460853D01*
X133918285Y-128138946D01*
X133350000Y-128025907D01*
X132781715Y-128138946D01*
X132299946Y-128460853D01*
X132272150Y-128502452D01*
X132263162Y-128454683D01*
X132124090Y-128238559D01*
X131911890Y-128093569D01*
X131660000Y-128042560D01*
X129960000Y-128042560D01*
X129724683Y-128086838D01*
X129508559Y-128225910D01*
X129363569Y-128438110D01*
X129312560Y-128690000D01*
X129312560Y-130390000D01*
X129356838Y-130625317D01*
X129495910Y-130841441D01*
X129708110Y-130986431D01*
X129960000Y-131037440D01*
X131660000Y-131037440D01*
X131895317Y-130993162D01*
X132111441Y-130854090D01*
X132256431Y-130641890D01*
X132270086Y-130574459D01*
X132299946Y-130619147D01*
X132781715Y-130941054D01*
X133350000Y-131054093D01*
X133918285Y-130941054D01*
X134400054Y-130619147D01*
X134620000Y-130289974D01*
X134839946Y-130619147D01*
X135321715Y-130941054D01*
X135890000Y-131054093D01*
X136458285Y-130941054D01*
X136940054Y-130619147D01*
X137160000Y-130289974D01*
X137379946Y-130619147D01*
X137861715Y-130941054D01*
X138430000Y-131054093D01*
X138998285Y-130941054D01*
X139480054Y-130619147D01*
X139700000Y-130289974D01*
X139919946Y-130619147D01*
X140401715Y-130941054D01*
X140970000Y-131054093D01*
X141538285Y-130941054D01*
X142020054Y-130619147D01*
X142240000Y-130289974D01*
X142459946Y-130619147D01*
X142941715Y-130941054D01*
X143510000Y-131054093D01*
X144078285Y-130941054D01*
X144560054Y-130619147D01*
X144780000Y-130289974D01*
X144999946Y-130619147D01*
X145481715Y-130941054D01*
X146050000Y-131054093D01*
X146618285Y-130941054D01*
X147100054Y-130619147D01*
X147320000Y-130289974D01*
X147539946Y-130619147D01*
X148021715Y-130941054D01*
X148590000Y-131054093D01*
X149158285Y-130941054D01*
X149640054Y-130619147D01*
X149860000Y-130289974D01*
X150079946Y-130619147D01*
X150561715Y-130941054D01*
X151130000Y-131054093D01*
X151698285Y-130941054D01*
X152180054Y-130619147D01*
X152400000Y-130289974D01*
X152619946Y-130619147D01*
X153101715Y-130941054D01*
X153670000Y-131054093D01*
X154238285Y-130941054D01*
X154720054Y-130619147D01*
X154940000Y-130289974D01*
X155159946Y-130619147D01*
X155641715Y-130941054D01*
X156210000Y-131054093D01*
X156778285Y-130941054D01*
X157260054Y-130619147D01*
X157480000Y-130289974D01*
X157699946Y-130619147D01*
X158181715Y-130941054D01*
X158750000Y-131054093D01*
X159318285Y-130941054D01*
X159800054Y-130619147D01*
X160020000Y-130289974D01*
X160239946Y-130619147D01*
X160721715Y-130941054D01*
X161290000Y-131054093D01*
X161858285Y-130941054D01*
X162340054Y-130619147D01*
X162560000Y-130289974D01*
X162779946Y-130619147D01*
X163045000Y-130796250D01*
X163045000Y-133122560D01*
X162980000Y-133122560D01*
X162744683Y-133166838D01*
X162528559Y-133305910D01*
X162383569Y-133518110D01*
X162369914Y-133585541D01*
X162340054Y-133540853D01*
X161858285Y-133218946D01*
X161290000Y-133105907D01*
X160721715Y-133218946D01*
X160239946Y-133540853D01*
X160036307Y-133845621D01*
X159789293Y-133894755D01*
X159534621Y-134064921D01*
X159074542Y-134525000D01*
X126054717Y-134525000D01*
X125996894Y-134385057D01*
X125537363Y-133924722D01*
X124936648Y-133675284D01*
X124286205Y-133674716D01*
X123685057Y-133923106D01*
X123224722Y-134382637D01*
X123165608Y-134525000D01*
X119554717Y-134525000D01*
X119496894Y-134385057D01*
X119037363Y-133924722D01*
X118436648Y-133675284D01*
X117786205Y-133674716D01*
X117185057Y-133923106D01*
X116724722Y-134382637D01*
X116665608Y-134525000D01*
X115034977Y-134525000D01*
X115092325Y-134321930D01*
X114300000Y-133529605D01*
X114285858Y-133543748D01*
X114106253Y-133364143D01*
X114120395Y-133350000D01*
X114479605Y-133350000D01*
X115271930Y-134142325D01*
X115512931Y-134074265D01*
X115697767Y-133554966D01*
X115669805Y-133004462D01*
X115512931Y-132625735D01*
X115271930Y-132557675D01*
X114479605Y-133350000D01*
X114120395Y-133350000D01*
X114106253Y-133335858D01*
X114285858Y-133156253D01*
X114300000Y-133170395D01*
X115092325Y-132378070D01*
X115024265Y-132137069D01*
X114858960Y-132078231D01*
X115083837Y-131985314D01*
X115106658Y-131962532D01*
X117137073Y-131962532D01*
X117235736Y-132229387D01*
X117845461Y-132455908D01*
X118495460Y-132431856D01*
X118984264Y-132229387D01*
X119082927Y-131962532D01*
X123637073Y-131962532D01*
X123735736Y-132229387D01*
X124345461Y-132455908D01*
X124995460Y-132431856D01*
X125484264Y-132229387D01*
X125582927Y-131962532D01*
X124610000Y-130989605D01*
X123637073Y-131962532D01*
X119082927Y-131962532D01*
X118110000Y-130989605D01*
X117137073Y-131962532D01*
X115106658Y-131962532D01*
X115473944Y-131595887D01*
X115685329Y-131086816D01*
X115685801Y-130545461D01*
X116464092Y-130545461D01*
X116488144Y-131195460D01*
X116690613Y-131684264D01*
X116957468Y-131782927D01*
X117930395Y-130810000D01*
X118289605Y-130810000D01*
X119262532Y-131782927D01*
X119529387Y-131684264D01*
X119755908Y-131074539D01*
X119736331Y-130545461D01*
X122964092Y-130545461D01*
X122988144Y-131195460D01*
X123190613Y-131684264D01*
X123457468Y-131782927D01*
X124430395Y-130810000D01*
X124789605Y-130810000D01*
X125762532Y-131782927D01*
X126029387Y-131684264D01*
X126255908Y-131074539D01*
X126231856Y-130424540D01*
X126029387Y-129935736D01*
X125762532Y-129837073D01*
X124789605Y-130810000D01*
X124430395Y-130810000D01*
X123457468Y-129837073D01*
X123190613Y-129935736D01*
X122964092Y-130545461D01*
X119736331Y-130545461D01*
X119731856Y-130424540D01*
X119529387Y-129935736D01*
X119262532Y-129837073D01*
X118289605Y-130810000D01*
X117930395Y-130810000D01*
X116957468Y-129837073D01*
X116690613Y-129935736D01*
X116464092Y-130545461D01*
X115685801Y-130545461D01*
X115685810Y-130535602D01*
X115475314Y-130026163D01*
X115107262Y-129657468D01*
X117137073Y-129657468D01*
X118110000Y-130630395D01*
X119082927Y-129657468D01*
X123637073Y-129657468D01*
X124610000Y-130630395D01*
X125582927Y-129657468D01*
X125484264Y-129390613D01*
X124874539Y-129164092D01*
X124224540Y-129188144D01*
X123735736Y-129390613D01*
X123637073Y-129657468D01*
X119082927Y-129657468D01*
X118984264Y-129390613D01*
X118374539Y-129164092D01*
X117724540Y-129188144D01*
X117235736Y-129390613D01*
X117137073Y-129657468D01*
X115107262Y-129657468D01*
X115085887Y-129636056D01*
X114576816Y-129424671D01*
X114025602Y-129424190D01*
X113870500Y-129488277D01*
X113870500Y-125283039D01*
X113971043Y-125526372D01*
X114500839Y-126057093D01*
X115193405Y-126344672D01*
X115943305Y-126345326D01*
X116636372Y-126058957D01*
X117167093Y-125529161D01*
X117454672Y-124836595D01*
X117455326Y-124086695D01*
X117399852Y-123952438D01*
X118142290Y-123210000D01*
X121292560Y-123210000D01*
X121292560Y-125710000D01*
X121336838Y-125945317D01*
X121475910Y-126161441D01*
X121688110Y-126306431D01*
X121940000Y-126357440D01*
X124440000Y-126357440D01*
X124675317Y-126313162D01*
X124891441Y-126174090D01*
X125036431Y-125961890D01*
X125087440Y-125710000D01*
X125087440Y-124076763D01*
X129424430Y-124076763D01*
X129424430Y-124843237D01*
X129529900Y-125373472D01*
X129830254Y-125822983D01*
X130279765Y-126123337D01*
X130810000Y-126228807D01*
X131340235Y-126123337D01*
X131789746Y-125822983D01*
X132080000Y-125388588D01*
X132370254Y-125822983D01*
X132819765Y-126123337D01*
X133350000Y-126228807D01*
X133880235Y-126123337D01*
X134329746Y-125822983D01*
X134620000Y-125388588D01*
X134910254Y-125822983D01*
X135359765Y-126123337D01*
X135890000Y-126228807D01*
X136420235Y-126123337D01*
X136869746Y-125822983D01*
X137160000Y-125388588D01*
X137450254Y-125822983D01*
X137899765Y-126123337D01*
X138430000Y-126228807D01*
X138960235Y-126123337D01*
X139409746Y-125822983D01*
X139700000Y-125388588D01*
X139990254Y-125822983D01*
X140439765Y-126123337D01*
X140970000Y-126228807D01*
X141500235Y-126123337D01*
X141949746Y-125822983D01*
X142240000Y-125388588D01*
X142530254Y-125822983D01*
X142979765Y-126123337D01*
X143510000Y-126228807D01*
X144040235Y-126123337D01*
X144489746Y-125822983D01*
X144780000Y-125388588D01*
X145070254Y-125822983D01*
X145519765Y-126123337D01*
X146050000Y-126228807D01*
X146580235Y-126123337D01*
X147029746Y-125822983D01*
X147320000Y-125388588D01*
X147610254Y-125822983D01*
X148059765Y-126123337D01*
X148590000Y-126228807D01*
X149120235Y-126123337D01*
X149569746Y-125822983D01*
X149860000Y-125388588D01*
X150150254Y-125822983D01*
X150599765Y-126123337D01*
X151130000Y-126228807D01*
X151660235Y-126123337D01*
X152109746Y-125822983D01*
X152400000Y-125388588D01*
X152690254Y-125822983D01*
X153139765Y-126123337D01*
X153670000Y-126228807D01*
X154200235Y-126123337D01*
X154649746Y-125822983D01*
X154940000Y-125388588D01*
X155230254Y-125822983D01*
X155679765Y-126123337D01*
X156210000Y-126228807D01*
X156740235Y-126123337D01*
X157189746Y-125822983D01*
X157480000Y-125388588D01*
X157770254Y-125822983D01*
X158219765Y-126123337D01*
X158750000Y-126228807D01*
X159280235Y-126123337D01*
X159729746Y-125822983D01*
X160020000Y-125388588D01*
X160310254Y-125822983D01*
X160759765Y-126123337D01*
X161290000Y-126228807D01*
X161820235Y-126123337D01*
X162269746Y-125822983D01*
X162560000Y-125388588D01*
X162850254Y-125822983D01*
X163299765Y-126123337D01*
X163830000Y-126228807D01*
X164360235Y-126123337D01*
X164809746Y-125822983D01*
X165100000Y-125388588D01*
X165390254Y-125822983D01*
X165839765Y-126123337D01*
X166370000Y-126228807D01*
X166900235Y-126123337D01*
X167349746Y-125822983D01*
X167640000Y-125388588D01*
X167930254Y-125822983D01*
X168379765Y-126123337D01*
X168910000Y-126228807D01*
X169440235Y-126123337D01*
X169889746Y-125822983D01*
X170180000Y-125388588D01*
X170470254Y-125822983D01*
X170919765Y-126123337D01*
X171450000Y-126228807D01*
X171980235Y-126123337D01*
X172429746Y-125822983D01*
X172720000Y-125388588D01*
X173010254Y-125822983D01*
X173459765Y-126123337D01*
X173990000Y-126228807D01*
X174520235Y-126123337D01*
X174969746Y-125822983D01*
X175260000Y-125388588D01*
X175550254Y-125822983D01*
X175999765Y-126123337D01*
X176530000Y-126228807D01*
X177060235Y-126123337D01*
X177509746Y-125822983D01*
X177800000Y-125388588D01*
X178090254Y-125822983D01*
X178539765Y-126123337D01*
X179070000Y-126228807D01*
X179600235Y-126123337D01*
X180049746Y-125822983D01*
X180350100Y-125373472D01*
X180455570Y-124843237D01*
X180455570Y-124076763D01*
X180350100Y-123546528D01*
X180049746Y-123097017D01*
X179600235Y-122796663D01*
X179070000Y-122691193D01*
X178539765Y-122796663D01*
X178090254Y-123097017D01*
X177800000Y-123531412D01*
X177509746Y-123097017D01*
X177060235Y-122796663D01*
X176530000Y-122691193D01*
X175999765Y-122796663D01*
X175550254Y-123097017D01*
X175260000Y-123531412D01*
X174969746Y-123097017D01*
X174520235Y-122796663D01*
X173990000Y-122691193D01*
X173459765Y-122796663D01*
X173010254Y-123097017D01*
X172720000Y-123531412D01*
X172429746Y-123097017D01*
X171980235Y-122796663D01*
X171450000Y-122691193D01*
X170919765Y-122796663D01*
X170470254Y-123097017D01*
X170180000Y-123531412D01*
X169889746Y-123097017D01*
X169440235Y-122796663D01*
X168910000Y-122691193D01*
X168379765Y-122796663D01*
X167930254Y-123097017D01*
X167640000Y-123531412D01*
X167349746Y-123097017D01*
X166900235Y-122796663D01*
X166370000Y-122691193D01*
X165839765Y-122796663D01*
X165390254Y-123097017D01*
X165100000Y-123531412D01*
X164809746Y-123097017D01*
X164360235Y-122796663D01*
X163830000Y-122691193D01*
X163299765Y-122796663D01*
X162850254Y-123097017D01*
X162560000Y-123531412D01*
X162269746Y-123097017D01*
X161820235Y-122796663D01*
X161290000Y-122691193D01*
X160759765Y-122796663D01*
X160310254Y-123097017D01*
X160020000Y-123531412D01*
X159729746Y-123097017D01*
X159280235Y-122796663D01*
X158750000Y-122691193D01*
X158219765Y-122796663D01*
X157770254Y-123097017D01*
X157480000Y-123531412D01*
X157189746Y-123097017D01*
X156740235Y-122796663D01*
X156210000Y-122691193D01*
X155679765Y-122796663D01*
X155230254Y-123097017D01*
X154940000Y-123531412D01*
X154649746Y-123097017D01*
X154200235Y-122796663D01*
X153670000Y-122691193D01*
X153139765Y-122796663D01*
X152690254Y-123097017D01*
X152400000Y-123531412D01*
X152109746Y-123097017D01*
X151660235Y-122796663D01*
X151130000Y-122691193D01*
X150599765Y-122796663D01*
X150150254Y-123097017D01*
X149860000Y-123531412D01*
X149569746Y-123097017D01*
X149120235Y-122796663D01*
X148590000Y-122691193D01*
X148059765Y-122796663D01*
X147610254Y-123097017D01*
X147320000Y-123531412D01*
X147029746Y-123097017D01*
X146580235Y-122796663D01*
X146050000Y-122691193D01*
X145519765Y-122796663D01*
X145070254Y-123097017D01*
X144780000Y-123531412D01*
X144489746Y-123097017D01*
X144040235Y-122796663D01*
X143510000Y-122691193D01*
X142979765Y-122796663D01*
X142530254Y-123097017D01*
X142240000Y-123531412D01*
X141949746Y-123097017D01*
X141500235Y-122796663D01*
X140970000Y-122691193D01*
X140439765Y-122796663D01*
X139990254Y-123097017D01*
X139700000Y-123531412D01*
X139409746Y-123097017D01*
X138960235Y-122796663D01*
X138430000Y-122691193D01*
X137899765Y-122796663D01*
X137450254Y-123097017D01*
X137160000Y-123531412D01*
X136869746Y-123097017D01*
X136420235Y-122796663D01*
X135890000Y-122691193D01*
X135359765Y-122796663D01*
X134910254Y-123097017D01*
X134620000Y-123531412D01*
X134329746Y-123097017D01*
X133880235Y-122796663D01*
X133350000Y-122691193D01*
X132819765Y-122796663D01*
X132370254Y-123097017D01*
X132080000Y-123531412D01*
X131789746Y-123097017D01*
X131340235Y-122796663D01*
X130810000Y-122691193D01*
X130279765Y-122796663D01*
X129830254Y-123097017D01*
X129529900Y-123546528D01*
X129424430Y-124076763D01*
X125087440Y-124076763D01*
X125087440Y-123210000D01*
X125043162Y-122974683D01*
X124904090Y-122758559D01*
X124691890Y-122613569D01*
X124440000Y-122562560D01*
X121940000Y-122562560D01*
X121704683Y-122606838D01*
X121488559Y-122745910D01*
X121343569Y-122958110D01*
X121292560Y-123210000D01*
X118142290Y-123210000D01*
X126117290Y-115235000D01*
X129663630Y-115235000D01*
X129759946Y-115379147D01*
X130241715Y-115701054D01*
X130810000Y-115814093D01*
X131378285Y-115701054D01*
X131860054Y-115379147D01*
X132080000Y-115049974D01*
X132299946Y-115379147D01*
X132781715Y-115701054D01*
X133350000Y-115814093D01*
X133918285Y-115701054D01*
X134400054Y-115379147D01*
X134620000Y-115049974D01*
X134839946Y-115379147D01*
X135321715Y-115701054D01*
X135890000Y-115814093D01*
X136458285Y-115701054D01*
X136940054Y-115379147D01*
X137160000Y-115049974D01*
X137379946Y-115379147D01*
X137861715Y-115701054D01*
X138430000Y-115814093D01*
X138998285Y-115701054D01*
X139480054Y-115379147D01*
X139700000Y-115049974D01*
X139919946Y-115379147D01*
X140401715Y-115701054D01*
X140970000Y-115814093D01*
X141538285Y-115701054D01*
X142020054Y-115379147D01*
X142240000Y-115049974D01*
X142459946Y-115379147D01*
X142941715Y-115701054D01*
X143510000Y-115814093D01*
X144078285Y-115701054D01*
X144560054Y-115379147D01*
X144780000Y-115049974D01*
X144999946Y-115379147D01*
X145481715Y-115701054D01*
X146050000Y-115814093D01*
X146618285Y-115701054D01*
X147100054Y-115379147D01*
X147320000Y-115049974D01*
X147539946Y-115379147D01*
X148021715Y-115701054D01*
X148590000Y-115814093D01*
X149158285Y-115701054D01*
X149640054Y-115379147D01*
X149860000Y-115049974D01*
X150079946Y-115379147D01*
X150561715Y-115701054D01*
X151130000Y-115814093D01*
X151698285Y-115701054D01*
X152180054Y-115379147D01*
X152383693Y-115074379D01*
X152412481Y-115068653D01*
X152619946Y-115379147D01*
X153101715Y-115701054D01*
X153670000Y-115814093D01*
X154238285Y-115701054D01*
X154720054Y-115379147D01*
X154940000Y-115049974D01*
X155159946Y-115379147D01*
X155641715Y-115701054D01*
X156210000Y-115814093D01*
X156778285Y-115701054D01*
X157260054Y-115379147D01*
X157480000Y-115049974D01*
X157699946Y-115379147D01*
X158181715Y-115701054D01*
X158750000Y-115814093D01*
X159318285Y-115701054D01*
X159800054Y-115379147D01*
X160003693Y-115074379D01*
X160032481Y-115068653D01*
X160239946Y-115379147D01*
X160721715Y-115701054D01*
X161290000Y-115814093D01*
X161858285Y-115701054D01*
X162340054Y-115379147D01*
X162560000Y-115049974D01*
X162779946Y-115379147D01*
X163261715Y-115701054D01*
X163830000Y-115814093D01*
X164398285Y-115701054D01*
X164880054Y-115379147D01*
X165100000Y-115049974D01*
X165319946Y-115379147D01*
X165801715Y-115701054D01*
X166370000Y-115814093D01*
X166938285Y-115701054D01*
X167420054Y-115379147D01*
X167640000Y-115049974D01*
X167859946Y-115379147D01*
X168341715Y-115701054D01*
X168910000Y-115814093D01*
X169478285Y-115701054D01*
X169960054Y-115379147D01*
X170180000Y-115049974D01*
X170399946Y-115379147D01*
X170881715Y-115701054D01*
X171450000Y-115814093D01*
X172018285Y-115701054D01*
X172500054Y-115379147D01*
X172720000Y-115049974D01*
X172939946Y-115379147D01*
X173421715Y-115701054D01*
X173990000Y-115814093D01*
X174558285Y-115701054D01*
X175040054Y-115379147D01*
X175260000Y-115049974D01*
X175479946Y-115379147D01*
X175961715Y-115701054D01*
X176530000Y-115814093D01*
X177098285Y-115701054D01*
X177580054Y-115379147D01*
X177609403Y-115335223D01*
X177681673Y-115509698D01*
X177860301Y-115688327D01*
X178093690Y-115785000D01*
X178784250Y-115785000D01*
X178943000Y-115626250D01*
X178943000Y-114427000D01*
X179197000Y-114427000D01*
X179197000Y-115626250D01*
X179355750Y-115785000D01*
X180046310Y-115785000D01*
X180279699Y-115688327D01*
X180458327Y-115509698D01*
X180555000Y-115276309D01*
X180555000Y-114585750D01*
X180396250Y-114427000D01*
X179197000Y-114427000D01*
X178943000Y-114427000D01*
X178923000Y-114427000D01*
X178923000Y-114173000D01*
X178943000Y-114173000D01*
X178943000Y-114153000D01*
X179197000Y-114153000D01*
X179197000Y-114173000D01*
X180396250Y-114173000D01*
X180555000Y-114014250D01*
X180555000Y-113323691D01*
X180458327Y-113090302D01*
X180445375Y-113077350D01*
X180538407Y-113058845D01*
X180793079Y-112888679D01*
X182331179Y-111350579D01*
X182501345Y-111095906D01*
X182561100Y-110795500D01*
X182561100Y-85425205D01*
X182561101Y-85425200D01*
X182501345Y-85124794D01*
X182331179Y-84870121D01*
X180725979Y-83264921D01*
X180471307Y-83094755D01*
X180384090Y-83077406D01*
X180350100Y-82906528D01*
X180049746Y-82457017D01*
X179600235Y-82156663D01*
X179070000Y-82051193D01*
X178539765Y-82156663D01*
X178090254Y-82457017D01*
X177800000Y-82891412D01*
X177509746Y-82457017D01*
X177060235Y-82156663D01*
X176530000Y-82051193D01*
X175999765Y-82156663D01*
X175550254Y-82457017D01*
X175260000Y-82891412D01*
X174969746Y-82457017D01*
X174520235Y-82156663D01*
X173990000Y-82051193D01*
X173459765Y-82156663D01*
X173087836Y-82405178D01*
X168315979Y-77633321D01*
X168061307Y-77463155D01*
X167760900Y-77403400D01*
X155938300Y-77403400D01*
X155637894Y-77463155D01*
X155383221Y-77633321D01*
X153638195Y-79378347D01*
X153575314Y-79226163D01*
X153185887Y-78836056D01*
X152676816Y-78624671D01*
X152125602Y-78624190D01*
X151915000Y-78711209D01*
X151915000Y-75042258D01*
X156456705Y-70500553D01*
X156466867Y-70500562D01*
X156627269Y-70434285D01*
X159904760Y-70434285D01*
X160115169Y-70943515D01*
X160504436Y-71333461D01*
X161013298Y-71544759D01*
X161564285Y-71545240D01*
X162073515Y-71334831D01*
X162463461Y-70945564D01*
X162674759Y-70436702D01*
X162675240Y-69885715D01*
X162464831Y-69376485D01*
X162075564Y-68986539D01*
X161566702Y-68775241D01*
X161015715Y-68774760D01*
X160506485Y-68985169D01*
X160116539Y-69374436D01*
X159905241Y-69883298D01*
X159904760Y-70434285D01*
X156627269Y-70434285D01*
X156810643Y-70358517D01*
X157073892Y-70095727D01*
X157216538Y-69752199D01*
X157216862Y-69380233D01*
X157074817Y-69036457D01*
X156812027Y-68773208D01*
X156468499Y-68630562D01*
X156096533Y-68630238D01*
X155752757Y-68772283D01*
X155489508Y-69035073D01*
X155346862Y-69378601D01*
X155346852Y-69390090D01*
X150574921Y-74162021D01*
X150404755Y-74416693D01*
X150404755Y-74416694D01*
X150345000Y-74717100D01*
X150345000Y-78711907D01*
X150064966Y-78612233D01*
X149514462Y-78640195D01*
X149135735Y-78797069D01*
X149067675Y-79038070D01*
X149860000Y-79830395D01*
X149874143Y-79816253D01*
X150053748Y-79995858D01*
X150039605Y-80010000D01*
X150053748Y-80024143D01*
X149874143Y-80203748D01*
X149860000Y-80189605D01*
X149067675Y-80981930D01*
X149135735Y-81222931D01*
X149225176Y-81254766D01*
X149082242Y-81397700D01*
X147925600Y-81397700D01*
X147625193Y-81457455D01*
X147370521Y-81627621D01*
X147150900Y-81847242D01*
X145108692Y-79805034D01*
X148462233Y-79805034D01*
X148490195Y-80355538D01*
X148647069Y-80734265D01*
X148888070Y-80802325D01*
X149680395Y-80010000D01*
X148888070Y-79217675D01*
X148647069Y-79285735D01*
X148462233Y-79805034D01*
X145108692Y-79805034D01*
X140889079Y-75585421D01*
X140634407Y-75415255D01*
X140334000Y-75355500D01*
X129846411Y-75355500D01*
X129861803Y-75271275D01*
X129739149Y-75057000D01*
X128397000Y-75057000D01*
X128397000Y-75077000D01*
X128143000Y-75077000D01*
X128143000Y-75057000D01*
X126800851Y-75057000D01*
X126678197Y-75271275D01*
X126693589Y-75355500D01*
X124313306Y-75355500D01*
X124306127Y-75348308D01*
X123962599Y-75205662D01*
X123590633Y-75205338D01*
X123246857Y-75347383D01*
X122983608Y-75610173D01*
X122840962Y-75953701D01*
X122840638Y-76325667D01*
X122982683Y-76669443D01*
X123245473Y-76932692D01*
X123589001Y-77075338D01*
X123960967Y-77075662D01*
X124304743Y-76933617D01*
X124312874Y-76925500D01*
X140008842Y-76925500D01*
X145352061Y-82268719D01*
X145160244Y-82396887D01*
X141285779Y-78522421D01*
X141031107Y-78352255D01*
X140730700Y-78292500D01*
X122710758Y-78292500D01*
X119391794Y-74973536D01*
X119503000Y-74891868D01*
X119503000Y-73787000D01*
X119757000Y-73787000D01*
X119757000Y-74891868D01*
X119976055Y-75052739D01*
X120501721Y-74909964D01*
X120932736Y-74576894D01*
X121203481Y-74104235D01*
X121222318Y-74001185D01*
X121099656Y-73787000D01*
X119757000Y-73787000D01*
X119503000Y-73787000D01*
X119483000Y-73787000D01*
X119483000Y-73533000D01*
X119503000Y-73533000D01*
X119503000Y-73513000D01*
X119757000Y-73513000D01*
X119757000Y-73533000D01*
X121099656Y-73533000D01*
X121222318Y-73318815D01*
X121203481Y-73215765D01*
X120932736Y-72743106D01*
X120501721Y-72410036D01*
X120448161Y-72395489D01*
X120891375Y-72099343D01*
X121191605Y-71650017D01*
X121297032Y-71120000D01*
X121229243Y-70779200D01*
X123304042Y-70779200D01*
X124176021Y-71651179D01*
X124430694Y-71821345D01*
X124731100Y-71881100D01*
X126704714Y-71881100D01*
X126603488Y-72390000D01*
X126708958Y-72920235D01*
X127009312Y-73369746D01*
X127451947Y-73665506D01*
X127398167Y-73680159D01*
X126967290Y-74013676D01*
X126696843Y-74486695D01*
X126678197Y-74588725D01*
X126800851Y-74803000D01*
X128143000Y-74803000D01*
X128143000Y-74783000D01*
X128397000Y-74783000D01*
X128397000Y-74803000D01*
X129739149Y-74803000D01*
X129861803Y-74588725D01*
X129843157Y-74486695D01*
X129572710Y-74013676D01*
X129141833Y-73680159D01*
X129088053Y-73665506D01*
X129530688Y-73369746D01*
X129831042Y-72920235D01*
X129936512Y-72390000D01*
X129835286Y-71881100D01*
X130651700Y-71881100D01*
X130728125Y-71865898D01*
X132952011Y-74089868D01*
X132952016Y-74089871D01*
X132952021Y-74089879D01*
X133095341Y-74185642D01*
X133206680Y-74260039D01*
X133206687Y-74260040D01*
X133206694Y-74260045D01*
X133362492Y-74291035D01*
X133507085Y-74319800D01*
X133507093Y-74319799D01*
X133507100Y-74319800D01*
X142700900Y-74319800D01*
X143001307Y-74260045D01*
X143255979Y-74089879D01*
X143812025Y-73533832D01*
X144075967Y-73534062D01*
X144410141Y-73395985D01*
X144499382Y-73485226D01*
X144614393Y-73370215D01*
X144683857Y-73612397D01*
X145207302Y-73799144D01*
X145762368Y-73771362D01*
X146146143Y-73612397D01*
X146215608Y-73370213D01*
X145415000Y-72569605D01*
X145400858Y-72583748D01*
X145221253Y-72404143D01*
X145235395Y-72390000D01*
X145594605Y-72390000D01*
X146395213Y-73190608D01*
X146637397Y-73121143D01*
X146824144Y-72597698D01*
X146796362Y-72042632D01*
X146637397Y-71658857D01*
X146395213Y-71589392D01*
X145594605Y-72390000D01*
X145235395Y-72390000D01*
X144434787Y-71589392D01*
X144192603Y-71658857D01*
X144176147Y-71704983D01*
X144077599Y-71664062D01*
X143705633Y-71663738D01*
X143361857Y-71805783D01*
X143207779Y-71959592D01*
X143081721Y-72043821D01*
X143081719Y-72043824D01*
X142375742Y-72749800D01*
X135348247Y-72749800D01*
X135381757Y-72669100D01*
X135382242Y-72113339D01*
X135379195Y-72105963D01*
X136075371Y-71409787D01*
X144614392Y-71409787D01*
X145415000Y-72210395D01*
X146215608Y-71409787D01*
X146146143Y-71167603D01*
X145622698Y-70980856D01*
X145067632Y-71008638D01*
X144683857Y-71167603D01*
X144614392Y-71409787D01*
X136075371Y-71409787D01*
X139898497Y-67586661D01*
X144017758Y-67586661D01*
X144229990Y-68100303D01*
X144622630Y-68493629D01*
X145135900Y-68706757D01*
X145691661Y-68707242D01*
X146205303Y-68495010D01*
X146598629Y-68102370D01*
X146811757Y-67589100D01*
X146812242Y-67033339D01*
X146809195Y-67025963D01*
X148940158Y-64895000D01*
X155733394Y-64895000D01*
X155740573Y-64902192D01*
X156084101Y-65044838D01*
X156456067Y-65045162D01*
X156799843Y-64903117D01*
X157063092Y-64640327D01*
X157205738Y-64296799D01*
X157206062Y-63924833D01*
X157064017Y-63581057D01*
X156801227Y-63317808D01*
X156457699Y-63175162D01*
X156085733Y-63174838D01*
X155741957Y-63316883D01*
X155733826Y-63325000D01*
X148615000Y-63325000D01*
X148314594Y-63384755D01*
X148314592Y-63384756D01*
X148314593Y-63384756D01*
X148059921Y-63554921D01*
X145699399Y-65915443D01*
X145694100Y-65913243D01*
X145138339Y-65912758D01*
X144624697Y-66124990D01*
X144231371Y-66517630D01*
X144018243Y-67030900D01*
X144017758Y-67586661D01*
X139898497Y-67586661D01*
X143836731Y-63648427D01*
X143980000Y-63677440D01*
X145580000Y-63677440D01*
X145815317Y-63633162D01*
X146031441Y-63494090D01*
X146176431Y-63281890D01*
X146227440Y-63030000D01*
X146227440Y-61430000D01*
X146183162Y-61194683D01*
X146044090Y-60978559D01*
X145831890Y-60833569D01*
X145580000Y-60782560D01*
X144332900Y-60782560D01*
X144332900Y-55984179D01*
X144780000Y-56073113D01*
X145329151Y-55963880D01*
X145794698Y-55652811D01*
X146105767Y-55187264D01*
X146215000Y-54638113D01*
X146215000Y-54581887D01*
X146105767Y-54032736D01*
X145794698Y-53567189D01*
X145335078Y-53260080D01*
X146400601Y-52194557D01*
X146405900Y-52196757D01*
X146961661Y-52197242D01*
X147475303Y-51985010D01*
X147868629Y-51592370D01*
X148081757Y-51079100D01*
X148082242Y-50523339D01*
X148045446Y-50434285D01*
X159904760Y-50434285D01*
X160115169Y-50943515D01*
X160504436Y-51333461D01*
X161013298Y-51544759D01*
X161564285Y-51545240D01*
X162073515Y-51334831D01*
X162463461Y-50945564D01*
X162674759Y-50436702D01*
X162675240Y-49885715D01*
X162464831Y-49376485D01*
X162075564Y-48986539D01*
X161566702Y-48775241D01*
X161015715Y-48774760D01*
X160506485Y-48985169D01*
X160116539Y-49374436D01*
X159905241Y-49883298D01*
X159904760Y-50434285D01*
X148045446Y-50434285D01*
X147870010Y-50009697D01*
X147477370Y-49616371D01*
X146964100Y-49403243D01*
X146408339Y-49402758D01*
X145894697Y-49614990D01*
X145501371Y-50007630D01*
X145288243Y-50520900D01*
X145287758Y-51076661D01*
X145290805Y-51084037D01*
X142992821Y-53382021D01*
X142822655Y-53636693D01*
X142822655Y-53636694D01*
X142762900Y-53937100D01*
X142762900Y-62501942D01*
X142308700Y-62956142D01*
X142308700Y-51206458D01*
X146400601Y-47114557D01*
X146405900Y-47116757D01*
X146961661Y-47117242D01*
X147475303Y-46905010D01*
X147868629Y-46512370D01*
X148081757Y-45999100D01*
X148082242Y-45443339D01*
X147870010Y-44929697D01*
X147477370Y-44536371D01*
X146964100Y-44323243D01*
X146408339Y-44322758D01*
X145894697Y-44534990D01*
X145501371Y-44927630D01*
X145288243Y-45440900D01*
X145287758Y-45996661D01*
X145290806Y-46004037D01*
X140968621Y-50326221D01*
X140798455Y-50580893D01*
X140798455Y-50580894D01*
X140738700Y-50881300D01*
X140738700Y-53210898D01*
X140500000Y-53162560D01*
X138900000Y-53162560D01*
X138715968Y-53197188D01*
X138622579Y-53057421D01*
X136649557Y-51084399D01*
X136651757Y-51079100D01*
X136652242Y-50523339D01*
X136440010Y-50009697D01*
X136047370Y-49616371D01*
X135534100Y-49403243D01*
X134978339Y-49402758D01*
X134464697Y-49614990D01*
X134071371Y-50007630D01*
X133858243Y-50520900D01*
X133857758Y-51076661D01*
X134069990Y-51590303D01*
X134462630Y-51983629D01*
X134975900Y-52196757D01*
X135531661Y-52197242D01*
X135539037Y-52194195D01*
X137282500Y-53937658D01*
X137282500Y-60987794D01*
X137275308Y-60994973D01*
X137132662Y-61338501D01*
X137132530Y-61490600D01*
X134424400Y-61490600D01*
X134066591Y-61561773D01*
X133763255Y-61764455D01*
X127882710Y-67645000D01*
X120921004Y-67645000D01*
X120891375Y-67600657D01*
X120442049Y-67300427D01*
X120315000Y-67275155D01*
X120315000Y-67229700D01*
X120243827Y-66871891D01*
X120041145Y-66568555D01*
X119737809Y-66365873D01*
X119380000Y-66294700D01*
X118964600Y-66294700D01*
X118964600Y-61511918D01*
X118973827Y-61498109D01*
X119038564Y-61172657D01*
X119195317Y-61143162D01*
X119411441Y-61004090D01*
X119556431Y-60791890D01*
X119590227Y-60625000D01*
X120015000Y-60625000D01*
X120372809Y-60553827D01*
X120676145Y-60351145D01*
X121060629Y-59966661D01*
X122427758Y-59966661D01*
X122639990Y-60480303D01*
X123032630Y-60873629D01*
X123545900Y-61086757D01*
X124101661Y-61087242D01*
X124615303Y-60875010D01*
X125008629Y-60482370D01*
X125221757Y-59969100D01*
X125221759Y-59966661D01*
X133857758Y-59966661D01*
X134069990Y-60480303D01*
X134462630Y-60873629D01*
X134975900Y-61086757D01*
X135531661Y-61087242D01*
X136045303Y-60875010D01*
X136438629Y-60482370D01*
X136651757Y-59969100D01*
X136652242Y-59413339D01*
X136440010Y-58899697D01*
X136047370Y-58506371D01*
X135534100Y-58293243D01*
X134978339Y-58292758D01*
X134464697Y-58504990D01*
X134071371Y-58897630D01*
X133858243Y-59410900D01*
X133857758Y-59966661D01*
X125221759Y-59966661D01*
X125222242Y-59413339D01*
X125010010Y-58899697D01*
X124617370Y-58506371D01*
X124104100Y-58293243D01*
X123548339Y-58292758D01*
X123034697Y-58504990D01*
X122641371Y-58897630D01*
X122428243Y-59410900D01*
X122427758Y-59966661D01*
X121060629Y-59966661D01*
X123750355Y-57276935D01*
X124101661Y-57277242D01*
X124615303Y-57065010D01*
X125008629Y-56672370D01*
X125221757Y-56159100D01*
X125221759Y-56156661D01*
X133857758Y-56156661D01*
X134069990Y-56670303D01*
X134462630Y-57063629D01*
X134975900Y-57276757D01*
X135531661Y-57277242D01*
X136045303Y-57065010D01*
X136438629Y-56672370D01*
X136651757Y-56159100D01*
X136652242Y-55603339D01*
X136440010Y-55089697D01*
X136047370Y-54696371D01*
X135534100Y-54483243D01*
X134978339Y-54482758D01*
X134464697Y-54694990D01*
X134071371Y-55087630D01*
X133858243Y-55600900D01*
X133857758Y-56156661D01*
X125221759Y-56156661D01*
X125222066Y-55805224D01*
X134293293Y-46733997D01*
X134462630Y-46903629D01*
X134975900Y-47116757D01*
X135531661Y-47117242D01*
X136045303Y-46905010D01*
X136438629Y-46512370D01*
X136651757Y-45999100D01*
X136652242Y-45443339D01*
X136440010Y-44929697D01*
X136047370Y-44536371D01*
X135534100Y-44323243D01*
X134978339Y-44322758D01*
X134464697Y-44534990D01*
X134214250Y-44785000D01*
X133985000Y-44785000D01*
X133627191Y-44856173D01*
X133323855Y-45058855D01*
X123899645Y-54483065D01*
X123548339Y-54482758D01*
X123034697Y-54694990D01*
X122641371Y-55087630D01*
X122428243Y-55600900D01*
X122427934Y-55954776D01*
X119627710Y-58755000D01*
X119591446Y-58755000D01*
X119563162Y-58604683D01*
X119424090Y-58388559D01*
X119211890Y-58243569D01*
X118960000Y-58192560D01*
X117260000Y-58192560D01*
X117024683Y-58236838D01*
X116808559Y-58375910D01*
X116663569Y-58588110D01*
X116641699Y-58696107D01*
X116336924Y-58418355D01*
X115926890Y-58248524D01*
X115697000Y-58369845D01*
X115697000Y-59563000D01*
X115717000Y-59563000D01*
X115717000Y-59817000D01*
X115697000Y-59817000D01*
X115697000Y-61010155D01*
X115926890Y-61131476D01*
X116336924Y-60961645D01*
X116639937Y-60685499D01*
X116656838Y-60775317D01*
X116795910Y-60991441D01*
X117008110Y-61136431D01*
X117107364Y-61156530D01*
X117094600Y-61220700D01*
X117094600Y-66294600D01*
X115317500Y-66294600D01*
X114959691Y-66365773D01*
X114656355Y-66568455D01*
X111733855Y-69490955D01*
X111531173Y-69794291D01*
X111460000Y-70152100D01*
X111460000Y-80239435D01*
X111211371Y-80487630D01*
X110998243Y-81000900D01*
X110997758Y-81556661D01*
X108635000Y-81556661D01*
X108635000Y-60046892D01*
X114128514Y-60046892D01*
X114374817Y-60571358D01*
X114803076Y-60961645D01*
X115213110Y-61131476D01*
X115443000Y-61010155D01*
X115443000Y-59817000D01*
X114249181Y-59817000D01*
X114128514Y-60046892D01*
X108635000Y-60046892D01*
X108635000Y-59333108D01*
X114128514Y-59333108D01*
X114249181Y-59563000D01*
X115443000Y-59563000D01*
X115443000Y-58369845D01*
X115213110Y-58248524D01*
X114803076Y-58418355D01*
X114374817Y-58808642D01*
X114128514Y-59333108D01*
X108635000Y-59333108D01*
X108635000Y-42595000D01*
X183465000Y-42595000D01*
X183465000Y-139015000D01*
G36*
X121830521Y-79632579D02*
X122085194Y-79802745D01*
X122385600Y-79862500D01*
X140405542Y-79862500D01*
X142811882Y-82268839D01*
X142530254Y-82457017D01*
X142240000Y-82891412D01*
X141949746Y-82457017D01*
X141500235Y-82156663D01*
X140970000Y-82051193D01*
X140439765Y-82156663D01*
X139990254Y-82457017D01*
X139700000Y-82891412D01*
X139409746Y-82457017D01*
X138960235Y-82156663D01*
X138430000Y-82051193D01*
X137899765Y-82156663D01*
X137527836Y-82405178D01*
X136936079Y-81813421D01*
X136681407Y-81643255D01*
X136381000Y-81583500D01*
X135407200Y-81583500D01*
X135106794Y-81643255D01*
X134852121Y-81813421D01*
X134257079Y-82408463D01*
X133880235Y-82156663D01*
X133350000Y-82051193D01*
X132819765Y-82156663D01*
X132370254Y-82457017D01*
X132080000Y-82891412D01*
X131789746Y-82457017D01*
X131340235Y-82156663D01*
X130810000Y-82051193D01*
X130279765Y-82156663D01*
X129830254Y-82457017D01*
X129529900Y-82906528D01*
X129504345Y-83035000D01*
X122761500Y-83035000D01*
X122461094Y-83094755D01*
X122206421Y-83264921D01*
X117886971Y-87584371D01*
X117841890Y-87553569D01*
X117590000Y-87502560D01*
X116596398Y-87502560D01*
X122033958Y-82065000D01*
X122637799Y-82065000D01*
X122639990Y-82070303D01*
X123032630Y-82463629D01*
X123545900Y-82676757D01*
X124101661Y-82677242D01*
X124615303Y-82465010D01*
X125008629Y-82072370D01*
X125221757Y-81559100D01*
X125222242Y-81003339D01*
X125010010Y-80489697D01*
X124617370Y-80096371D01*
X124104100Y-79883243D01*
X123548339Y-79882758D01*
X123034697Y-80094990D01*
X122641371Y-80487630D01*
X122638311Y-80495000D01*
X121708800Y-80495000D01*
X121408394Y-80554755D01*
X121408392Y-80554756D01*
X121408393Y-80554756D01*
X121153721Y-80724921D01*
X114568221Y-87310421D01*
X114398055Y-87565093D01*
X114398055Y-87565094D01*
X114338300Y-87865500D01*
X114338300Y-96870400D01*
X114398055Y-97170807D01*
X114568221Y-97425479D01*
X115286477Y-98143735D01*
X115028395Y-98529983D01*
X114922968Y-99060000D01*
X115028395Y-99590017D01*
X115328625Y-100039343D01*
X115777951Y-100339573D01*
X116307968Y-100445000D01*
X116872032Y-100445000D01*
X117402049Y-100339573D01*
X117851375Y-100039343D01*
X118110000Y-99652283D01*
X118368625Y-100039343D01*
X118817951Y-100339573D01*
X119347968Y-100445000D01*
X119912032Y-100445000D01*
X120442049Y-100339573D01*
X120891375Y-100039343D01*
X121191605Y-99590017D01*
X121297032Y-99060000D01*
X121191605Y-98529983D01*
X121136492Y-98447500D01*
X129070000Y-98447500D01*
X129370407Y-98387745D01*
X129499012Y-98301814D01*
X129424430Y-98676763D01*
X129424430Y-99443237D01*
X129529900Y-99973472D01*
X129830254Y-100422983D01*
X130279765Y-100723337D01*
X130810000Y-100828807D01*
X131340235Y-100723337D01*
X131789746Y-100422983D01*
X132080000Y-99988588D01*
X132370254Y-100422983D01*
X132819765Y-100723337D01*
X133350000Y-100828807D01*
X133880235Y-100723337D01*
X134329746Y-100422983D01*
X134620000Y-99988588D01*
X134910254Y-100422983D01*
X135359765Y-100723337D01*
X135890000Y-100828807D01*
X136420235Y-100723337D01*
X136539185Y-100643857D01*
X134233486Y-102949556D01*
X133918285Y-102738946D01*
X133350000Y-102625907D01*
X132781715Y-102738946D01*
X132299946Y-103060853D01*
X132272150Y-103102452D01*
X132263162Y-103054683D01*
X132124090Y-102838559D01*
X131911890Y-102693569D01*
X131660000Y-102642560D01*
X129960000Y-102642560D01*
X129724683Y-102686838D01*
X129508559Y-102825910D01*
X129363569Y-103038110D01*
X129312560Y-103290000D01*
X129312560Y-104990000D01*
X129356838Y-105225317D01*
X129495910Y-105441441D01*
X129708110Y-105586431D01*
X129960000Y-105637440D01*
X131660000Y-105637440D01*
X131895317Y-105593162D01*
X132111441Y-105454090D01*
X132256431Y-105241890D01*
X132270086Y-105174459D01*
X132299946Y-105219147D01*
X132781715Y-105541054D01*
X133350000Y-105654093D01*
X133556780Y-105612962D01*
X131686821Y-107482921D01*
X131545780Y-107694004D01*
X131340235Y-107556663D01*
X130810000Y-107451193D01*
X130279765Y-107556663D01*
X129830254Y-107857017D01*
X129529900Y-108306528D01*
X129424430Y-108836763D01*
X129424430Y-109603237D01*
X129529900Y-110133472D01*
X129744271Y-110454300D01*
X124603908Y-110454300D01*
X124523322Y-110373714D01*
X124816123Y-110244467D01*
X125084388Y-109544194D01*
X125064250Y-108794565D01*
X124816123Y-108195533D01*
X124523320Y-108066285D01*
X123369605Y-109220000D01*
X123383748Y-109234143D01*
X123204143Y-109413748D01*
X123190000Y-109399605D01*
X123175858Y-109413748D01*
X122996253Y-109234143D01*
X123010395Y-109220000D01*
X121856680Y-108066285D01*
X121563877Y-108195533D01*
X121295612Y-108895806D01*
X121315750Y-109645435D01*
X121563877Y-110244467D01*
X121856678Y-110373714D01*
X121776092Y-110454300D01*
X117914458Y-110454300D01*
X117337921Y-109877763D01*
X117454672Y-109596595D01*
X117455326Y-108846695D01*
X117168957Y-108153628D01*
X116902475Y-107886680D01*
X122036285Y-107886680D01*
X123190000Y-109040395D01*
X124343715Y-107886680D01*
X124214467Y-107593877D01*
X123514194Y-107325612D01*
X122764565Y-107345750D01*
X122165533Y-107593877D01*
X122036285Y-107886680D01*
X116902475Y-107886680D01*
X116639161Y-107622907D01*
X115946595Y-107335328D01*
X115196695Y-107334674D01*
X114503628Y-107621043D01*
X113972907Y-108150839D01*
X113870500Y-108397462D01*
X113870500Y-103781661D01*
X124332758Y-103781661D01*
X124544990Y-104295303D01*
X124937630Y-104688629D01*
X125450900Y-104901757D01*
X126006661Y-104902242D01*
X126520303Y-104690010D01*
X126913629Y-104297370D01*
X127126757Y-103784100D01*
X127127242Y-103228339D01*
X126915010Y-102714697D01*
X126522370Y-102321371D01*
X126009100Y-102108243D01*
X125453339Y-102107758D01*
X124939697Y-102319990D01*
X124546371Y-102712630D01*
X124333243Y-103225900D01*
X124332758Y-103781661D01*
X113870500Y-103781661D01*
X113870500Y-83371158D01*
X117395079Y-79846579D01*
X117565245Y-79591906D01*
X117625000Y-79291500D01*
X117625000Y-75427058D01*
X121830521Y-79632579D01*
X121830521Y-79632579D01*
G37*
X121830521Y-79632579D02*
X122085194Y-79802745D01*
X122385600Y-79862500D01*
X140405542Y-79862500D01*
X142811882Y-82268839D01*
X142530254Y-82457017D01*
X142240000Y-82891412D01*
X141949746Y-82457017D01*
X141500235Y-82156663D01*
X140970000Y-82051193D01*
X140439765Y-82156663D01*
X139990254Y-82457017D01*
X139700000Y-82891412D01*
X139409746Y-82457017D01*
X138960235Y-82156663D01*
X138430000Y-82051193D01*
X137899765Y-82156663D01*
X137527836Y-82405178D01*
X136936079Y-81813421D01*
X136681407Y-81643255D01*
X136381000Y-81583500D01*
X135407200Y-81583500D01*
X135106794Y-81643255D01*
X134852121Y-81813421D01*
X134257079Y-82408463D01*
X133880235Y-82156663D01*
X133350000Y-82051193D01*
X132819765Y-82156663D01*
X132370254Y-82457017D01*
X132080000Y-82891412D01*
X131789746Y-82457017D01*
X131340235Y-82156663D01*
X130810000Y-82051193D01*
X130279765Y-82156663D01*
X129830254Y-82457017D01*
X129529900Y-82906528D01*
X129504345Y-83035000D01*
X122761500Y-83035000D01*
X122461094Y-83094755D01*
X122206421Y-83264921D01*
X117886971Y-87584371D01*
X117841890Y-87553569D01*
X117590000Y-87502560D01*
X116596398Y-87502560D01*
X122033958Y-82065000D01*
X122637799Y-82065000D01*
X122639990Y-82070303D01*
X123032630Y-82463629D01*
X123545900Y-82676757D01*
X124101661Y-82677242D01*
X124615303Y-82465010D01*
X125008629Y-82072370D01*
X125221757Y-81559100D01*
X125222242Y-81003339D01*
X125010010Y-80489697D01*
X124617370Y-80096371D01*
X124104100Y-79883243D01*
X123548339Y-79882758D01*
X123034697Y-80094990D01*
X122641371Y-80487630D01*
X122638311Y-80495000D01*
X121708800Y-80495000D01*
X121408394Y-80554755D01*
X121408392Y-80554756D01*
X121408393Y-80554756D01*
X121153721Y-80724921D01*
X114568221Y-87310421D01*
X114398055Y-87565093D01*
X114398055Y-87565094D01*
X114338300Y-87865500D01*
X114338300Y-96870400D01*
X114398055Y-97170807D01*
X114568221Y-97425479D01*
X115286477Y-98143735D01*
X115028395Y-98529983D01*
X114922968Y-99060000D01*
X115028395Y-99590017D01*
X115328625Y-100039343D01*
X115777951Y-100339573D01*
X116307968Y-100445000D01*
X116872032Y-100445000D01*
X117402049Y-100339573D01*
X117851375Y-100039343D01*
X118110000Y-99652283D01*
X118368625Y-100039343D01*
X118817951Y-100339573D01*
X119347968Y-100445000D01*
X119912032Y-100445000D01*
X120442049Y-100339573D01*
X120891375Y-100039343D01*
X121191605Y-99590017D01*
X121297032Y-99060000D01*
X121191605Y-98529983D01*
X121136492Y-98447500D01*
X129070000Y-98447500D01*
X129370407Y-98387745D01*
X129499012Y-98301814D01*
X129424430Y-98676763D01*
X129424430Y-99443237D01*
X129529900Y-99973472D01*
X129830254Y-100422983D01*
X130279765Y-100723337D01*
X130810000Y-100828807D01*
X131340235Y-100723337D01*
X131789746Y-100422983D01*
X132080000Y-99988588D01*
X132370254Y-100422983D01*
X132819765Y-100723337D01*
X133350000Y-100828807D01*
X133880235Y-100723337D01*
X134329746Y-100422983D01*
X134620000Y-99988588D01*
X134910254Y-100422983D01*
X135359765Y-100723337D01*
X135890000Y-100828807D01*
X136420235Y-100723337D01*
X136539185Y-100643857D01*
X134233486Y-102949556D01*
X133918285Y-102738946D01*
X133350000Y-102625907D01*
X132781715Y-102738946D01*
X132299946Y-103060853D01*
X132272150Y-103102452D01*
X132263162Y-103054683D01*
X132124090Y-102838559D01*
X131911890Y-102693569D01*
X131660000Y-102642560D01*
X129960000Y-102642560D01*
X129724683Y-102686838D01*
X129508559Y-102825910D01*
X129363569Y-103038110D01*
X129312560Y-103290000D01*
X129312560Y-104990000D01*
X129356838Y-105225317D01*
X129495910Y-105441441D01*
X129708110Y-105586431D01*
X129960000Y-105637440D01*
X131660000Y-105637440D01*
X131895317Y-105593162D01*
X132111441Y-105454090D01*
X132256431Y-105241890D01*
X132270086Y-105174459D01*
X132299946Y-105219147D01*
X132781715Y-105541054D01*
X133350000Y-105654093D01*
X133556780Y-105612962D01*
X131686821Y-107482921D01*
X131545780Y-107694004D01*
X131340235Y-107556663D01*
X130810000Y-107451193D01*
X130279765Y-107556663D01*
X129830254Y-107857017D01*
X129529900Y-108306528D01*
X129424430Y-108836763D01*
X129424430Y-109603237D01*
X129529900Y-110133472D01*
X129744271Y-110454300D01*
X124603908Y-110454300D01*
X124523322Y-110373714D01*
X124816123Y-110244467D01*
X125084388Y-109544194D01*
X125064250Y-108794565D01*
X124816123Y-108195533D01*
X124523320Y-108066285D01*
X123369605Y-109220000D01*
X123383748Y-109234143D01*
X123204143Y-109413748D01*
X123190000Y-109399605D01*
X123175858Y-109413748D01*
X122996253Y-109234143D01*
X123010395Y-109220000D01*
X121856680Y-108066285D01*
X121563877Y-108195533D01*
X121295612Y-108895806D01*
X121315750Y-109645435D01*
X121563877Y-110244467D01*
X121856678Y-110373714D01*
X121776092Y-110454300D01*
X117914458Y-110454300D01*
X117337921Y-109877763D01*
X117454672Y-109596595D01*
X117455326Y-108846695D01*
X117168957Y-108153628D01*
X116902475Y-107886680D01*
X122036285Y-107886680D01*
X123190000Y-109040395D01*
X124343715Y-107886680D01*
X124214467Y-107593877D01*
X123514194Y-107325612D01*
X122764565Y-107345750D01*
X122165533Y-107593877D01*
X122036285Y-107886680D01*
X116902475Y-107886680D01*
X116639161Y-107622907D01*
X115946595Y-107335328D01*
X115196695Y-107334674D01*
X114503628Y-107621043D01*
X113972907Y-108150839D01*
X113870500Y-108397462D01*
X113870500Y-103781661D01*
X124332758Y-103781661D01*
X124544990Y-104295303D01*
X124937630Y-104688629D01*
X125450900Y-104901757D01*
X126006661Y-104902242D01*
X126520303Y-104690010D01*
X126913629Y-104297370D01*
X127126757Y-103784100D01*
X127127242Y-103228339D01*
X126915010Y-102714697D01*
X126522370Y-102321371D01*
X126009100Y-102108243D01*
X125453339Y-102107758D01*
X124939697Y-102319990D01*
X124546371Y-102712630D01*
X124333243Y-103225900D01*
X124332758Y-103781661D01*
X113870500Y-103781661D01*
X113870500Y-83371158D01*
X117395079Y-79846579D01*
X117565245Y-79591906D01*
X117625000Y-79291500D01*
X117625000Y-75427058D01*
X121830521Y-79632579D01*
G36*
X179197000Y-109093000D02*
X179217000Y-109093000D01*
X179217000Y-109347000D01*
X179197000Y-109347000D01*
X179197000Y-109367000D01*
X178943000Y-109367000D01*
X178943000Y-109347000D01*
X178923000Y-109347000D01*
X178923000Y-109093000D01*
X178943000Y-109093000D01*
X178943000Y-109073000D01*
X179197000Y-109073000D01*
X179197000Y-109093000D01*
X179197000Y-109093000D01*
G37*
X179197000Y-109093000D02*
X179217000Y-109093000D01*
X179217000Y-109347000D01*
X179197000Y-109347000D01*
X179197000Y-109367000D01*
X178943000Y-109367000D01*
X178943000Y-109347000D01*
X178923000Y-109347000D01*
X178923000Y-109093000D01*
X178943000Y-109093000D01*
X178943000Y-109073000D01*
X179197000Y-109073000D01*
X179197000Y-109093000D01*
G36*
X156337000Y-98933000D02*
X156357000Y-98933000D01*
X156357000Y-99187000D01*
X156337000Y-99187000D01*
X156337000Y-100629479D01*
X156551275Y-100752133D01*
X156622903Y-100737950D01*
X156647800Y-100724425D01*
X156647800Y-101154042D01*
X155567110Y-102234732D01*
X155527397Y-102138857D01*
X155285213Y-102069392D01*
X154484605Y-102870000D01*
X154498748Y-102884143D01*
X154319143Y-103063748D01*
X154305000Y-103049605D01*
X153504392Y-103850213D01*
X153573857Y-104092397D01*
X153673792Y-104128050D01*
X153123742Y-104678100D01*
X139786386Y-104678100D01*
X139871486Y-104496892D01*
X139750819Y-104267000D01*
X138557000Y-104267000D01*
X138557000Y-104287000D01*
X138303000Y-104287000D01*
X138303000Y-104267000D01*
X138283000Y-104267000D01*
X138283000Y-104013000D01*
X138303000Y-104013000D01*
X138303000Y-103993000D01*
X138557000Y-103993000D01*
X138557000Y-104013000D01*
X139750819Y-104013000D01*
X139871486Y-103783108D01*
X139625183Y-103258642D01*
X139196924Y-102868355D01*
X139020200Y-102795158D01*
X139936558Y-101878800D01*
X141890548Y-101878800D01*
X141691371Y-102077630D01*
X141478243Y-102590900D01*
X141477758Y-103146661D01*
X141689990Y-103660303D01*
X142082630Y-104053629D01*
X142595900Y-104266757D01*
X143151661Y-104267242D01*
X143665303Y-104055010D01*
X144058629Y-103662370D01*
X144271757Y-103149100D01*
X144272181Y-102662302D01*
X152895856Y-102662302D01*
X152923638Y-103217368D01*
X153082603Y-103601143D01*
X153324787Y-103670608D01*
X154125395Y-102870000D01*
X153324787Y-102069392D01*
X153082603Y-102138857D01*
X152895856Y-102662302D01*
X144272181Y-102662302D01*
X144272242Y-102593339D01*
X144060010Y-102079697D01*
X143870431Y-101889787D01*
X153504392Y-101889787D01*
X154305000Y-102690395D01*
X155105608Y-101889787D01*
X155036143Y-101647603D01*
X154512698Y-101460856D01*
X153957632Y-101488638D01*
X153573857Y-101647603D01*
X153504392Y-101889787D01*
X143870431Y-101889787D01*
X143859463Y-101878800D01*
X151015600Y-101878800D01*
X151316007Y-101819045D01*
X151570679Y-101648879D01*
X152753989Y-100465569D01*
X153139765Y-100723337D01*
X153670000Y-100828807D01*
X154200235Y-100723337D01*
X154649746Y-100422983D01*
X154950100Y-99973472D01*
X154951601Y-99965928D01*
X154978501Y-100056817D01*
X155320056Y-100478798D01*
X155797097Y-100737950D01*
X155868725Y-100752133D01*
X156083000Y-100629479D01*
X156083000Y-99187000D01*
X156063000Y-99187000D01*
X156063000Y-98933000D01*
X156083000Y-98933000D01*
X156083000Y-98913000D01*
X156337000Y-98913000D01*
X156337000Y-98933000D01*
X156337000Y-98933000D01*
G37*
X156337000Y-98933000D02*
X156357000Y-98933000D01*
X156357000Y-99187000D01*
X156337000Y-99187000D01*
X156337000Y-100629479D01*
X156551275Y-100752133D01*
X156622903Y-100737950D01*
X156647800Y-100724425D01*
X156647800Y-101154042D01*
X155567110Y-102234732D01*
X155527397Y-102138857D01*
X155285213Y-102069392D01*
X154484605Y-102870000D01*
X154498748Y-102884143D01*
X154319143Y-103063748D01*
X154305000Y-103049605D01*
X153504392Y-103850213D01*
X153573857Y-104092397D01*
X153673792Y-104128050D01*
X153123742Y-104678100D01*
X139786386Y-104678100D01*
X139871486Y-104496892D01*
X139750819Y-104267000D01*
X138557000Y-104267000D01*
X138557000Y-104287000D01*
X138303000Y-104287000D01*
X138303000Y-104267000D01*
X138283000Y-104267000D01*
X138283000Y-104013000D01*
X138303000Y-104013000D01*
X138303000Y-103993000D01*
X138557000Y-103993000D01*
X138557000Y-104013000D01*
X139750819Y-104013000D01*
X139871486Y-103783108D01*
X139625183Y-103258642D01*
X139196924Y-102868355D01*
X139020200Y-102795158D01*
X139936558Y-101878800D01*
X141890548Y-101878800D01*
X141691371Y-102077630D01*
X141478243Y-102590900D01*
X141477758Y-103146661D01*
X141689990Y-103660303D01*
X142082630Y-104053629D01*
X142595900Y-104266757D01*
X143151661Y-104267242D01*
X143665303Y-104055010D01*
X144058629Y-103662370D01*
X144271757Y-103149100D01*
X144272181Y-102662302D01*
X152895856Y-102662302D01*
X152923638Y-103217368D01*
X153082603Y-103601143D01*
X153324787Y-103670608D01*
X154125395Y-102870000D01*
X153324787Y-102069392D01*
X153082603Y-102138857D01*
X152895856Y-102662302D01*
X144272181Y-102662302D01*
X144272242Y-102593339D01*
X144060010Y-102079697D01*
X143870431Y-101889787D01*
X153504392Y-101889787D01*
X154305000Y-102690395D01*
X155105608Y-101889787D01*
X155036143Y-101647603D01*
X154512698Y-101460856D01*
X153957632Y-101488638D01*
X153573857Y-101647603D01*
X153504392Y-101889787D01*
X143870431Y-101889787D01*
X143859463Y-101878800D01*
X151015600Y-101878800D01*
X151316007Y-101819045D01*
X151570679Y-101648879D01*
X152753989Y-100465569D01*
X153139765Y-100723337D01*
X153670000Y-100828807D01*
X154200235Y-100723337D01*
X154649746Y-100422983D01*
X154950100Y-99973472D01*
X154951601Y-99965928D01*
X154978501Y-100056817D01*
X155320056Y-100478798D01*
X155797097Y-100737950D01*
X155868725Y-100752133D01*
X156083000Y-100629479D01*
X156083000Y-99187000D01*
X156063000Y-99187000D01*
X156063000Y-98933000D01*
X156083000Y-98933000D01*
X156083000Y-98913000D01*
X156337000Y-98913000D01*
X156337000Y-98933000D01*
G36*
X167406042Y-103112600D02*
X165244700Y-103112600D01*
X164886891Y-103183773D01*
X164673584Y-103326300D01*
X163868309Y-103326300D01*
X163957767Y-103074966D01*
X163929805Y-102524462D01*
X163772931Y-102145735D01*
X163531930Y-102077675D01*
X162739605Y-102870000D01*
X162753748Y-102884143D01*
X162574143Y-103063748D01*
X162560000Y-103049605D01*
X162545858Y-103063748D01*
X162366253Y-102884143D01*
X162380395Y-102870000D01*
X161588070Y-102077675D01*
X161347069Y-102145735D01*
X161288231Y-102311040D01*
X161195314Y-102086163D01*
X161007549Y-101898070D01*
X161767675Y-101898070D01*
X162560000Y-102690395D01*
X163352325Y-101898070D01*
X163284265Y-101657069D01*
X162764966Y-101472233D01*
X162214462Y-101500195D01*
X161835735Y-101657069D01*
X161767675Y-101898070D01*
X161007549Y-101898070D01*
X160805887Y-101696056D01*
X160296816Y-101484671D01*
X160125036Y-101484521D01*
X160129757Y-101479800D01*
X161564100Y-101479800D01*
X161864507Y-101420045D01*
X162119179Y-101249879D01*
X162907694Y-100461364D01*
X163299765Y-100723337D01*
X163830000Y-100828807D01*
X164360235Y-100723337D01*
X164753804Y-100460362D01*
X167406042Y-103112600D01*
X167406042Y-103112600D01*
G37*
X167406042Y-103112600D02*
X165244700Y-103112600D01*
X164886891Y-103183773D01*
X164673584Y-103326300D01*
X163868309Y-103326300D01*
X163957767Y-103074966D01*
X163929805Y-102524462D01*
X163772931Y-102145735D01*
X163531930Y-102077675D01*
X162739605Y-102870000D01*
X162753748Y-102884143D01*
X162574143Y-103063748D01*
X162560000Y-103049605D01*
X162545858Y-103063748D01*
X162366253Y-102884143D01*
X162380395Y-102870000D01*
X161588070Y-102077675D01*
X161347069Y-102145735D01*
X161288231Y-102311040D01*
X161195314Y-102086163D01*
X161007549Y-101898070D01*
X161767675Y-101898070D01*
X162560000Y-102690395D01*
X163352325Y-101898070D01*
X163284265Y-101657069D01*
X162764966Y-101472233D01*
X162214462Y-101500195D01*
X161835735Y-101657069D01*
X161767675Y-101898070D01*
X161007549Y-101898070D01*
X160805887Y-101696056D01*
X160296816Y-101484671D01*
X160125036Y-101484521D01*
X160129757Y-101479800D01*
X161564100Y-101479800D01*
X161864507Y-101420045D01*
X162119179Y-101249879D01*
X162907694Y-100461364D01*
X163299765Y-100723337D01*
X163830000Y-100828807D01*
X164360235Y-100723337D01*
X164753804Y-100460362D01*
X167406042Y-103112600D01*
G36*
X153797000Y-83693000D02*
X153817000Y-83693000D01*
X153817000Y-83947000D01*
X153797000Y-83947000D01*
X153797000Y-85389479D01*
X154011275Y-85512133D01*
X154082903Y-85497950D01*
X154559944Y-85238798D01*
X154901499Y-84816817D01*
X154928399Y-84725928D01*
X154929900Y-84733472D01*
X155230254Y-85182983D01*
X155275000Y-85212881D01*
X155275000Y-96132710D01*
X154042435Y-97365275D01*
X153670000Y-97291193D01*
X153226700Y-97379371D01*
X153226700Y-85481437D01*
X153257097Y-85497950D01*
X153328725Y-85512133D01*
X153543000Y-85389479D01*
X153543000Y-83947000D01*
X153523000Y-83947000D01*
X153523000Y-83693000D01*
X153543000Y-83693000D01*
X153543000Y-83673000D01*
X153797000Y-83673000D01*
X153797000Y-83693000D01*
X153797000Y-83693000D01*
G37*
X153797000Y-83693000D02*
X153817000Y-83693000D01*
X153817000Y-83947000D01*
X153797000Y-83947000D01*
X153797000Y-85389479D01*
X154011275Y-85512133D01*
X154082903Y-85497950D01*
X154559944Y-85238798D01*
X154901499Y-84816817D01*
X154928399Y-84725928D01*
X154929900Y-84733472D01*
X155230254Y-85182983D01*
X155275000Y-85212881D01*
X155275000Y-96132710D01*
X154042435Y-97365275D01*
X153670000Y-97291193D01*
X153226700Y-97379371D01*
X153226700Y-85481437D01*
X153257097Y-85497950D01*
X153328725Y-85512133D01*
X153543000Y-85389479D01*
X153543000Y-83947000D01*
X153523000Y-83947000D01*
X153523000Y-83693000D01*
X153543000Y-83693000D01*
X153543000Y-83673000D01*
X153797000Y-83673000D01*
X153797000Y-83693000D01*
G36*
X129529900Y-84733472D02*
X129830254Y-85182983D01*
X130279765Y-85483337D01*
X130810000Y-85588807D01*
X131340235Y-85483337D01*
X131789746Y-85182983D01*
X132080000Y-84748588D01*
X132370254Y-85182983D01*
X132565000Y-85313108D01*
X132565000Y-85850542D01*
X126987336Y-91428206D01*
X126952397Y-91343857D01*
X126710213Y-91274392D01*
X125909605Y-92075000D01*
X125923748Y-92089143D01*
X125744143Y-92268748D01*
X125730000Y-92254605D01*
X125715858Y-92268748D01*
X125536253Y-92089143D01*
X125550395Y-92075000D01*
X124749787Y-91274392D01*
X124507603Y-91343857D01*
X124320856Y-91867302D01*
X124348638Y-92422368D01*
X124399185Y-92544400D01*
X121594558Y-92544400D01*
X121122940Y-92072782D01*
X121191605Y-91970017D01*
X121297032Y-91440000D01*
X121228365Y-91094787D01*
X124929392Y-91094787D01*
X125730000Y-91895395D01*
X126530608Y-91094787D01*
X126461143Y-90852603D01*
X125937698Y-90665856D01*
X125382632Y-90693638D01*
X124998857Y-90852603D01*
X124929392Y-91094787D01*
X121228365Y-91094787D01*
X121191605Y-90909983D01*
X120891375Y-90460657D01*
X120448161Y-90164511D01*
X120501721Y-90149964D01*
X120932736Y-89816894D01*
X121203481Y-89344235D01*
X121222318Y-89241185D01*
X121099656Y-89027000D01*
X119757000Y-89027000D01*
X119757000Y-89047000D01*
X119503000Y-89047000D01*
X119503000Y-89027000D01*
X119483000Y-89027000D01*
X119483000Y-88773000D01*
X119503000Y-88773000D01*
X119503000Y-88753000D01*
X119757000Y-88753000D01*
X119757000Y-88773000D01*
X121099656Y-88773000D01*
X121222318Y-88558815D01*
X121203481Y-88455765D01*
X120932736Y-87983106D01*
X120501721Y-87650036D01*
X120139896Y-87551762D01*
X123086658Y-84605000D01*
X129504345Y-84605000D01*
X129529900Y-84733472D01*
X129529900Y-84733472D01*
G37*
X129529900Y-84733472D02*
X129830254Y-85182983D01*
X130279765Y-85483337D01*
X130810000Y-85588807D01*
X131340235Y-85483337D01*
X131789746Y-85182983D01*
X132080000Y-84748588D01*
X132370254Y-85182983D01*
X132565000Y-85313108D01*
X132565000Y-85850542D01*
X126987336Y-91428206D01*
X126952397Y-91343857D01*
X126710213Y-91274392D01*
X125909605Y-92075000D01*
X125923748Y-92089143D01*
X125744143Y-92268748D01*
X125730000Y-92254605D01*
X125715858Y-92268748D01*
X125536253Y-92089143D01*
X125550395Y-92075000D01*
X124749787Y-91274392D01*
X124507603Y-91343857D01*
X124320856Y-91867302D01*
X124348638Y-92422368D01*
X124399185Y-92544400D01*
X121594558Y-92544400D01*
X121122940Y-92072782D01*
X121191605Y-91970017D01*
X121297032Y-91440000D01*
X121228365Y-91094787D01*
X124929392Y-91094787D01*
X125730000Y-91895395D01*
X126530608Y-91094787D01*
X126461143Y-90852603D01*
X125937698Y-90665856D01*
X125382632Y-90693638D01*
X124998857Y-90852603D01*
X124929392Y-91094787D01*
X121228365Y-91094787D01*
X121191605Y-90909983D01*
X120891375Y-90460657D01*
X120448161Y-90164511D01*
X120501721Y-90149964D01*
X120932736Y-89816894D01*
X121203481Y-89344235D01*
X121222318Y-89241185D01*
X121099656Y-89027000D01*
X119757000Y-89027000D01*
X119757000Y-89047000D01*
X119503000Y-89047000D01*
X119503000Y-89027000D01*
X119483000Y-89027000D01*
X119483000Y-88773000D01*
X119503000Y-88773000D01*
X119503000Y-88753000D01*
X119757000Y-88753000D01*
X119757000Y-88773000D01*
X121099656Y-88773000D01*
X121222318Y-88558815D01*
X121203481Y-88455765D01*
X120932736Y-87983106D01*
X120501721Y-87650036D01*
X120139896Y-87551762D01*
X123086658Y-84605000D01*
X129504345Y-84605000D01*
X129529900Y-84733472D01*
G36*
X165659473Y-82277130D02*
X165390254Y-82457017D01*
X165100000Y-82891412D01*
X164809746Y-82457017D01*
X164360235Y-82156663D01*
X163830000Y-82051193D01*
X163299765Y-82156663D01*
X162850254Y-82457017D01*
X162560000Y-82891412D01*
X162269746Y-82457017D01*
X161820235Y-82156663D01*
X161290000Y-82051193D01*
X160759765Y-82156663D01*
X160310254Y-82457017D01*
X160020000Y-82891412D01*
X159729746Y-82457017D01*
X159280235Y-82156663D01*
X158750000Y-82051193D01*
X158219765Y-82156663D01*
X157770254Y-82457017D01*
X157480000Y-82891412D01*
X157189746Y-82457017D01*
X156740235Y-82156663D01*
X156210000Y-82051193D01*
X155679765Y-82156663D01*
X155230254Y-82457017D01*
X154929900Y-82906528D01*
X154928399Y-82914072D01*
X154901499Y-82823183D01*
X154559944Y-82401202D01*
X154261102Y-82238856D01*
X156068729Y-80431229D01*
X156284817Y-80891358D01*
X156713076Y-81281645D01*
X157123110Y-81451476D01*
X157353000Y-81330155D01*
X157353000Y-80137000D01*
X157333000Y-80137000D01*
X157333000Y-79883000D01*
X157353000Y-79883000D01*
X157353000Y-79863000D01*
X157607000Y-79863000D01*
X157607000Y-79883000D01*
X157627000Y-79883000D01*
X157627000Y-80137000D01*
X157607000Y-80137000D01*
X157607000Y-81330155D01*
X157836890Y-81451476D01*
X158246924Y-81281645D01*
X158549937Y-81005499D01*
X158566838Y-81095317D01*
X158705910Y-81311441D01*
X158918110Y-81456431D01*
X159170000Y-81507440D01*
X160870000Y-81507440D01*
X161105317Y-81463162D01*
X161321441Y-81324090D01*
X161466431Y-81111890D01*
X161517440Y-80860000D01*
X161517440Y-79473800D01*
X162856142Y-79473800D01*
X165659473Y-82277130D01*
X165659473Y-82277130D01*
G37*
X165659473Y-82277130D02*
X165390254Y-82457017D01*
X165100000Y-82891412D01*
X164809746Y-82457017D01*
X164360235Y-82156663D01*
X163830000Y-82051193D01*
X163299765Y-82156663D01*
X162850254Y-82457017D01*
X162560000Y-82891412D01*
X162269746Y-82457017D01*
X161820235Y-82156663D01*
X161290000Y-82051193D01*
X160759765Y-82156663D01*
X160310254Y-82457017D01*
X160020000Y-82891412D01*
X159729746Y-82457017D01*
X159280235Y-82156663D01*
X158750000Y-82051193D01*
X158219765Y-82156663D01*
X157770254Y-82457017D01*
X157480000Y-82891412D01*
X157189746Y-82457017D01*
X156740235Y-82156663D01*
X156210000Y-82051193D01*
X155679765Y-82156663D01*
X155230254Y-82457017D01*
X154929900Y-82906528D01*
X154928399Y-82914072D01*
X154901499Y-82823183D01*
X154559944Y-82401202D01*
X154261102Y-82238856D01*
X156068729Y-80431229D01*
X156284817Y-80891358D01*
X156713076Y-81281645D01*
X157123110Y-81451476D01*
X157353000Y-81330155D01*
X157353000Y-80137000D01*
X157333000Y-80137000D01*
X157333000Y-79883000D01*
X157353000Y-79883000D01*
X157353000Y-79863000D01*
X157607000Y-79863000D01*
X157607000Y-79883000D01*
X157627000Y-79883000D01*
X157627000Y-80137000D01*
X157607000Y-80137000D01*
X157607000Y-81330155D01*
X157836890Y-81451476D01*
X158246924Y-81281645D01*
X158549937Y-81005499D01*
X158566838Y-81095317D01*
X158705910Y-81311441D01*
X158918110Y-81456431D01*
X159170000Y-81507440D01*
X160870000Y-81507440D01*
X161105317Y-81463162D01*
X161321441Y-81324090D01*
X161466431Y-81111890D01*
X161517440Y-80860000D01*
X161517440Y-79473800D01*
X162856142Y-79473800D01*
X165659473Y-82277130D01*
M02*
