G04 #@! TF.FileFunction,Soldermask,Top*
%FSLAX46Y46*%
G04 Gerber Fmt 4.6, Leading zero omitted, Abs format (unit mm)*
G04 Created by KiCad (PCBNEW 4.0.7-e2-6376~60~ubuntu17.10.1) date Tue May  8 18:10:41 2018*
%MOMM*%
%LPD*%
G01*
G04 APERTURE LIST*
%ADD10C,0.100000*%
%ADD11C,1.501140*%
%ADD12R,1.600000X1.600000*%
%ADD13O,1.600000X1.600000*%
%ADD14O,1.501140X2.199640*%
%ADD15R,2.000000X1.500000*%
%ADD16O,2.000000X1.500000*%
%ADD17R,1.700000X1.700000*%
%ADD18O,1.700000X1.700000*%
%ADD19C,1.524000*%
%ADD20O,1.998980X1.501140*%
%ADD21C,2.000000*%
%ADD22R,2.500000X2.500000*%
%ADD23C,2.500000*%
%ADD24R,2.000000X1.150000*%
%ADD25C,1.500000*%
%ADD26R,1.500000X1.500000*%
G04 APERTURE END LIST*
D10*
D11*
X160020000Y-102870000D03*
X162560000Y-102870000D03*
X152400000Y-80010000D03*
X149860000Y-80010000D03*
X114300000Y-130810000D03*
X114300000Y-133350000D03*
D12*
X144780000Y-62230000D03*
D13*
X144780000Y-54610000D03*
D12*
X139700000Y-54610000D03*
D13*
X139700000Y-62230000D03*
D14*
X130810000Y-99060000D03*
X133350000Y-99060000D03*
X135890000Y-99060000D03*
X138430000Y-99060000D03*
X140970000Y-99060000D03*
X143510000Y-99060000D03*
X146050000Y-99060000D03*
X148590000Y-99060000D03*
X151130000Y-99060000D03*
X153670000Y-99060000D03*
X156210000Y-99060000D03*
X158750000Y-99060000D03*
X161290000Y-99060000D03*
X163830000Y-99060000D03*
X166370000Y-99060000D03*
X168910000Y-99060000D03*
X171450000Y-99060000D03*
X173990000Y-99060000D03*
X176530000Y-99060000D03*
X179070000Y-99060000D03*
X179070000Y-83820000D03*
X176530000Y-83820000D03*
X173990000Y-83820000D03*
X171450000Y-83820000D03*
X168910000Y-83820000D03*
X166370000Y-83820000D03*
X163830000Y-83820000D03*
X161290000Y-83820000D03*
X158750000Y-83820000D03*
X156210000Y-83820000D03*
X153670000Y-83820000D03*
X151130000Y-83820000D03*
X148590000Y-83820000D03*
X146050000Y-83820000D03*
X143510000Y-83820000D03*
X140970000Y-83820000D03*
X138430000Y-83820000D03*
X135890000Y-83820000D03*
X133350000Y-83820000D03*
X130810000Y-83820000D03*
D15*
X116590000Y-68580000D03*
D16*
X119630000Y-68580000D03*
X116590000Y-71120000D03*
X119630000Y-71120000D03*
X116590000Y-73660000D03*
X119630000Y-73660000D03*
D17*
X130810000Y-104140000D03*
D18*
X133350000Y-104140000D03*
X135890000Y-104140000D03*
X138430000Y-104140000D03*
D17*
X118110000Y-59690000D03*
D18*
X115570000Y-59690000D03*
D17*
X163830000Y-134620000D03*
D18*
X161290000Y-134620000D03*
D16*
X116590000Y-99060000D03*
X119630000Y-99060000D03*
X119630000Y-96520000D03*
X116590000Y-96520000D03*
D15*
X116590000Y-88900000D03*
D16*
X119630000Y-88900000D03*
X116590000Y-91440000D03*
X119630000Y-91440000D03*
X116590000Y-93980000D03*
X119630000Y-93980000D03*
D17*
X179070000Y-114300000D03*
D18*
X176530000Y-114300000D03*
X173990000Y-114300000D03*
X171450000Y-114300000D03*
X168910000Y-114300000D03*
X166370000Y-114300000D03*
X163830000Y-114300000D03*
X161290000Y-114300000D03*
X158750000Y-114300000D03*
X156210000Y-114300000D03*
X153670000Y-114300000D03*
X151130000Y-114300000D03*
X148590000Y-114300000D03*
X146050000Y-114300000D03*
X143510000Y-114300000D03*
X140970000Y-114300000D03*
X138430000Y-114300000D03*
X135890000Y-114300000D03*
X133350000Y-114300000D03*
X130810000Y-114300000D03*
D14*
X179070000Y-109220000D03*
X176530000Y-109220000D03*
X173990000Y-109220000D03*
X171450000Y-109220000D03*
X168910000Y-109220000D03*
X166370000Y-109220000D03*
X163830000Y-109220000D03*
X161290000Y-109220000D03*
X158750000Y-109220000D03*
X156210000Y-109220000D03*
X153670000Y-109220000D03*
X151130000Y-109220000D03*
X148590000Y-109220000D03*
X146050000Y-109220000D03*
X143510000Y-109220000D03*
X140970000Y-109220000D03*
X138430000Y-109220000D03*
X135890000Y-109220000D03*
X133350000Y-109220000D03*
X130810000Y-109220000D03*
X130810000Y-124460000D03*
X133350000Y-124460000D03*
X135890000Y-124460000D03*
X138430000Y-124460000D03*
X140970000Y-124460000D03*
X143510000Y-124460000D03*
X146050000Y-124460000D03*
X148590000Y-124460000D03*
X151130000Y-124460000D03*
X153670000Y-124460000D03*
X156210000Y-124460000D03*
X158750000Y-124460000D03*
X161290000Y-124460000D03*
X163830000Y-124460000D03*
X166370000Y-124460000D03*
X168910000Y-124460000D03*
X171450000Y-124460000D03*
X173990000Y-124460000D03*
X176530000Y-124460000D03*
X179070000Y-124460000D03*
D17*
X130810000Y-129540000D03*
D18*
X133350000Y-129540000D03*
X135890000Y-129540000D03*
X138430000Y-129540000D03*
X140970000Y-129540000D03*
X143510000Y-129540000D03*
X146050000Y-129540000D03*
X148590000Y-129540000D03*
X151130000Y-129540000D03*
X153670000Y-129540000D03*
X156210000Y-129540000D03*
X158750000Y-129540000D03*
X161290000Y-129540000D03*
X163830000Y-129540000D03*
X166370000Y-129540000D03*
X168910000Y-129540000D03*
X171450000Y-129540000D03*
X173990000Y-129540000D03*
X176530000Y-129540000D03*
X179070000Y-129540000D03*
D19*
X167005000Y-105410000D03*
X178435000Y-105410000D03*
X135255000Y-45720000D03*
X146685000Y-45720000D03*
X123825000Y-55880000D03*
X135255000Y-55880000D03*
X145415000Y-72390000D03*
X133985000Y-72390000D03*
X125730000Y-92075000D03*
X125730000Y-103505000D03*
X154305000Y-102870000D03*
X142875000Y-102870000D03*
X146685000Y-50800000D03*
X135255000Y-50800000D03*
X135255000Y-59690000D03*
X123825000Y-59690000D03*
X145415000Y-67310000D03*
X133985000Y-67310000D03*
X123825000Y-81280000D03*
X112395000Y-81280000D03*
D20*
X128270000Y-69850000D03*
X128270000Y-72390000D03*
X128270000Y-74930000D03*
D21*
X118110000Y-135310000D03*
X118110000Y-130810000D03*
X124610000Y-135310000D03*
X124610000Y-130810000D03*
D22*
X123190000Y-124460000D03*
D23*
X115570000Y-124460000D03*
X115570000Y-109220000D03*
X123190000Y-109220000D03*
D24*
X157790000Y-69010000D03*
X157790000Y-66610000D03*
X157790000Y-64110000D03*
X157790000Y-61610000D03*
X157790000Y-59110000D03*
X157790000Y-56610000D03*
X157790000Y-54110000D03*
X157790000Y-51610000D03*
X157790000Y-73210000D03*
X157790000Y-70710000D03*
D25*
X161290000Y-70160000D03*
X161290000Y-50160000D03*
D26*
X169790000Y-74110000D03*
X181290000Y-74110000D03*
X182290000Y-45460000D03*
D17*
X160020000Y-80010000D03*
D18*
X157480000Y-80010000D03*
M02*
