G04 #@! TF.FileFunction,Copper,L1,Top,Signal*
%FSLAX46Y46*%
G04 Gerber Fmt 4.6, Leading zero omitted, Abs format (unit mm)*
G04 Created by KiCad (PCBNEW 4.0.7-e2-6376~60~ubuntu17.10.1) date Sun May  6 20:40:39 2018*
%MOMM*%
%LPD*%
G01*
G04 APERTURE LIST*
%ADD10C,0.100000*%
%ADD11C,1.501140*%
%ADD12R,1.559560X1.049020*%
%ADD13R,1.099820X1.348740*%
%ADD14R,1.899920X1.899920*%
%ADD15R,1.099820X1.600200*%
%ADD16R,1.600200X1.600200*%
%ADD17C,1.300480*%
%ADD18C,1.800860*%
%ADD19R,1.600000X1.600000*%
%ADD20O,1.600000X1.600000*%
%ADD21O,1.501140X2.199640*%
%ADD22R,2.000000X1.500000*%
%ADD23O,2.000000X1.500000*%
%ADD24R,1.700000X1.700000*%
%ADD25O,1.700000X1.700000*%
%ADD26C,1.524000*%
%ADD27O,1.998980X1.501140*%
%ADD28C,2.000000*%
%ADD29R,2.500000X2.500000*%
%ADD30C,2.500000*%
%ADD31C,0.600000*%
%ADD32C,0.300000*%
%ADD33C,0.600000*%
%ADD34C,0.254000*%
G04 APERTURE END LIST*
D10*
D11*
X160020000Y-102870000D03*
X162560000Y-102870000D03*
X156210000Y-80010000D03*
X153670000Y-80010000D03*
X114300000Y-130810000D03*
X114300000Y-133350000D03*
D12*
X150555960Y-51689000D03*
X150555960Y-54188360D03*
X150555960Y-56690260D03*
X150555960Y-59189620D03*
X150555960Y-61688980D03*
X150555960Y-64188340D03*
X150555960Y-66690240D03*
X150555960Y-69108320D03*
X150555960Y-70810120D03*
D13*
X150784560Y-73088500D03*
D14*
X155524200Y-46210220D03*
X170975020Y-46210220D03*
X155524200Y-75829160D03*
D15*
X160924240Y-75509120D03*
D16*
X170594020Y-75559920D03*
D17*
X174924720Y-48859440D03*
D18*
X174924720Y-73060560D03*
D19*
X144780000Y-62230000D03*
D20*
X144780000Y-54610000D03*
D19*
X139700000Y-54610000D03*
D20*
X139700000Y-62230000D03*
D21*
X130810000Y-99060000D03*
X133350000Y-99060000D03*
X135890000Y-99060000D03*
X138430000Y-99060000D03*
X140970000Y-99060000D03*
X143510000Y-99060000D03*
X146050000Y-99060000D03*
X148590000Y-99060000D03*
X151130000Y-99060000D03*
X153670000Y-99060000D03*
X156210000Y-99060000D03*
X158750000Y-99060000D03*
X161290000Y-99060000D03*
X163830000Y-99060000D03*
X166370000Y-99060000D03*
X168910000Y-99060000D03*
X171450000Y-99060000D03*
X173990000Y-99060000D03*
X176530000Y-99060000D03*
X179070000Y-99060000D03*
X179070000Y-83820000D03*
X176530000Y-83820000D03*
X173990000Y-83820000D03*
X171450000Y-83820000D03*
X168910000Y-83820000D03*
X166370000Y-83820000D03*
X163830000Y-83820000D03*
X161290000Y-83820000D03*
X158750000Y-83820000D03*
X156210000Y-83820000D03*
X153670000Y-83820000D03*
X151130000Y-83820000D03*
X148590000Y-83820000D03*
X146050000Y-83820000D03*
X143510000Y-83820000D03*
X140970000Y-83820000D03*
X138430000Y-83820000D03*
X135890000Y-83820000D03*
X133350000Y-83820000D03*
X130810000Y-83820000D03*
D22*
X116590000Y-68580000D03*
D23*
X119630000Y-68580000D03*
X116590000Y-71120000D03*
X119630000Y-71120000D03*
X116590000Y-73660000D03*
X119630000Y-73660000D03*
D24*
X130810000Y-104140000D03*
D25*
X133350000Y-104140000D03*
X135890000Y-104140000D03*
X138430000Y-104140000D03*
D24*
X118110000Y-59690000D03*
D25*
X115570000Y-59690000D03*
D24*
X163830000Y-134620000D03*
D25*
X161290000Y-134620000D03*
D24*
X160020000Y-80010000D03*
D23*
X116590000Y-99060000D03*
X119630000Y-99060000D03*
X119630000Y-96520000D03*
X116590000Y-96520000D03*
D22*
X116590000Y-88900000D03*
D23*
X119630000Y-88900000D03*
X116590000Y-91440000D03*
X119630000Y-91440000D03*
X116590000Y-93980000D03*
X119630000Y-93980000D03*
D24*
X179070000Y-114300000D03*
D25*
X176530000Y-114300000D03*
X173990000Y-114300000D03*
X171450000Y-114300000D03*
X168910000Y-114300000D03*
X166370000Y-114300000D03*
X163830000Y-114300000D03*
X161290000Y-114300000D03*
X158750000Y-114300000D03*
X156210000Y-114300000D03*
X153670000Y-114300000D03*
X151130000Y-114300000D03*
X148590000Y-114300000D03*
X146050000Y-114300000D03*
X143510000Y-114300000D03*
X140970000Y-114300000D03*
X138430000Y-114300000D03*
X135890000Y-114300000D03*
X133350000Y-114300000D03*
X130810000Y-114300000D03*
D21*
X179070000Y-109220000D03*
X176530000Y-109220000D03*
X173990000Y-109220000D03*
X171450000Y-109220000D03*
X168910000Y-109220000D03*
X166370000Y-109220000D03*
X163830000Y-109220000D03*
X161290000Y-109220000D03*
X158750000Y-109220000D03*
X156210000Y-109220000D03*
X153670000Y-109220000D03*
X151130000Y-109220000D03*
X148590000Y-109220000D03*
X146050000Y-109220000D03*
X143510000Y-109220000D03*
X140970000Y-109220000D03*
X138430000Y-109220000D03*
X135890000Y-109220000D03*
X133350000Y-109220000D03*
X130810000Y-109220000D03*
X130810000Y-124460000D03*
X133350000Y-124460000D03*
X135890000Y-124460000D03*
X138430000Y-124460000D03*
X140970000Y-124460000D03*
X143510000Y-124460000D03*
X146050000Y-124460000D03*
X148590000Y-124460000D03*
X151130000Y-124460000D03*
X153670000Y-124460000D03*
X156210000Y-124460000D03*
X158750000Y-124460000D03*
X161290000Y-124460000D03*
X163830000Y-124460000D03*
X166370000Y-124460000D03*
X168910000Y-124460000D03*
X171450000Y-124460000D03*
X173990000Y-124460000D03*
X176530000Y-124460000D03*
X179070000Y-124460000D03*
D24*
X130810000Y-129540000D03*
D25*
X133350000Y-129540000D03*
X135890000Y-129540000D03*
X138430000Y-129540000D03*
X140970000Y-129540000D03*
X143510000Y-129540000D03*
X146050000Y-129540000D03*
X148590000Y-129540000D03*
X151130000Y-129540000D03*
X153670000Y-129540000D03*
X156210000Y-129540000D03*
X158750000Y-129540000D03*
X161290000Y-129540000D03*
X163830000Y-129540000D03*
X166370000Y-129540000D03*
X168910000Y-129540000D03*
X171450000Y-129540000D03*
X173990000Y-129540000D03*
X176530000Y-129540000D03*
X179070000Y-129540000D03*
D26*
X167005000Y-105410000D03*
X178435000Y-105410000D03*
X135255000Y-45720000D03*
X146685000Y-45720000D03*
X123825000Y-55880000D03*
X135255000Y-55880000D03*
X145415000Y-72390000D03*
X133985000Y-72390000D03*
X125730000Y-92075000D03*
X125730000Y-103505000D03*
X154305000Y-102870000D03*
X142875000Y-102870000D03*
X146685000Y-50800000D03*
X135255000Y-50800000D03*
X135255000Y-59690000D03*
X123825000Y-59690000D03*
X145415000Y-67310000D03*
X133985000Y-67310000D03*
X123825000Y-81280000D03*
X112395000Y-81280000D03*
D27*
X128270000Y-69850000D03*
X128270000Y-72390000D03*
X128270000Y-74930000D03*
D28*
X118110000Y-135310000D03*
X118110000Y-130810000D03*
X124610000Y-135310000D03*
X124610000Y-130810000D03*
D29*
X123190000Y-124460000D03*
D30*
X115570000Y-124460000D03*
X115570000Y-109220000D03*
X123190000Y-109220000D03*
D31*
X147636600Y-70328700D03*
X167887500Y-103072100D03*
X155582600Y-105632500D03*
X156494500Y-96601700D03*
D32*
X146685000Y-45720000D02*
X146685000Y-50800000D01*
X149425900Y-53540900D02*
X149425900Y-54188400D01*
X146685000Y-50800000D02*
X149425900Y-53540900D01*
X150556000Y-54188400D02*
X149425900Y-54188400D01*
X150556000Y-56690300D02*
X150556000Y-57565100D01*
X135255000Y-57565100D02*
X150556000Y-57565100D01*
X135255000Y-59690000D02*
X135255000Y-57565100D01*
X135255000Y-57565100D02*
X135255000Y-55880000D01*
X148884900Y-62230000D02*
X149425900Y-61689000D01*
X144780000Y-62230000D02*
X148884900Y-62230000D01*
X150556000Y-61689000D02*
X149425900Y-61689000D01*
X148536700Y-64188300D02*
X150556000Y-64188300D01*
X145415000Y-67310000D02*
X148536700Y-64188300D01*
X148857000Y-69108300D02*
X150556000Y-69108300D01*
X147636600Y-70328700D02*
X148857000Y-69108300D01*
X147636600Y-76695100D02*
X147636600Y-70328700D01*
X144938700Y-79393000D02*
X147636600Y-76695100D01*
X144938700Y-96498500D02*
X144938700Y-79393000D01*
X146050000Y-97609800D02*
X144938700Y-96498500D01*
X146050000Y-99060000D02*
X146050000Y-97609800D01*
X140789800Y-102870000D02*
X142875000Y-102870000D01*
X138430000Y-100510200D02*
X140789800Y-102870000D01*
X138430000Y-99060000D02*
X138430000Y-100510200D01*
X140970000Y-95621500D02*
X140970000Y-99060000D01*
X137160000Y-91811500D02*
X140970000Y-95621500D01*
X137160000Y-73363500D02*
X137160000Y-91811500D01*
X132842800Y-69046300D02*
X137160000Y-73363500D01*
X132842800Y-53212200D02*
X132842800Y-69046300D01*
X135255000Y-50800000D02*
X132842800Y-53212200D01*
X119380000Y-71120000D02*
X119380000Y-70019700D01*
X143510000Y-99060000D02*
X142409100Y-99060000D01*
X121180900Y-70019700D02*
X119380000Y-70019700D01*
X123825000Y-67375600D02*
X121180900Y-70019700D01*
X123825000Y-59690000D02*
X123825000Y-67375600D01*
X142409100Y-99563400D02*
X142409100Y-99060000D01*
X141459100Y-100513400D02*
X142409100Y-99563400D01*
X140457100Y-100513400D02*
X141459100Y-100513400D01*
X139700000Y-99756300D02*
X140457100Y-100513400D01*
X139700000Y-98279300D02*
X139700000Y-99756300D01*
X134620000Y-93199300D02*
X139700000Y-98279300D01*
X134620000Y-76924500D02*
X134620000Y-93199300D01*
X128886200Y-71190700D02*
X134620000Y-76924500D01*
X127640100Y-71190700D02*
X128886200Y-71190700D01*
X123825000Y-67375600D02*
X127640100Y-71190700D01*
X147489100Y-99563400D02*
X147489100Y-99060000D01*
X146536500Y-100516000D02*
X147489100Y-99563400D01*
X145560400Y-100516000D02*
X146536500Y-100516000D01*
X144938900Y-99894500D02*
X145560400Y-100516000D01*
X144938900Y-98110300D02*
X144938900Y-99894500D01*
X139700000Y-92871400D02*
X144938900Y-98110300D01*
X139700000Y-73025000D02*
X139700000Y-92871400D01*
X133985000Y-67310000D02*
X139700000Y-73025000D01*
X148590000Y-99060000D02*
X147489100Y-99060000D01*
X161290000Y-134620000D02*
X161290000Y-133419700D01*
X165046200Y-130038600D02*
X165046200Y-107315100D01*
X161665100Y-133419700D02*
X165046200Y-130038600D01*
X161290000Y-133419700D02*
X161665100Y-133419700D01*
X165099900Y-107315100D02*
X165046200Y-107315100D01*
X167005000Y-105410000D02*
X165099900Y-107315100D01*
X156266400Y-107315100D02*
X165046200Y-107315100D01*
X151130000Y-102178700D02*
X156266400Y-107315100D01*
X151130000Y-99060000D02*
X151130000Y-102178700D01*
X166370000Y-99060000D02*
X167470900Y-99060000D01*
X173990000Y-114300000D02*
X173990000Y-109220000D01*
X167470900Y-98556600D02*
X167470900Y-99060000D01*
X168966300Y-97061200D02*
X167470900Y-98556600D01*
X173909500Y-97061200D02*
X168966300Y-97061200D01*
X175090900Y-98242600D02*
X173909500Y-97061200D01*
X175090900Y-109220000D02*
X175090900Y-98242600D01*
X173990000Y-109220000D02*
X175090900Y-109220000D01*
X171450000Y-114300000D02*
X171450000Y-109220000D01*
X170373900Y-97596100D02*
X168910000Y-99060000D01*
X171904400Y-97596100D02*
X170373900Y-97596100D01*
X172550900Y-98242600D02*
X171904400Y-97596100D01*
X172550900Y-109220000D02*
X172550900Y-98242600D01*
X171450000Y-109220000D02*
X172550900Y-109220000D01*
X168910000Y-114300000D02*
X168910000Y-109220000D01*
X170010900Y-99398200D02*
X170349100Y-99060000D01*
X170010900Y-109220000D02*
X170010900Y-99398200D01*
X168910000Y-109220000D02*
X170010900Y-109220000D01*
X171450000Y-99060000D02*
X170349100Y-99060000D01*
X166370000Y-114300000D02*
X166370000Y-109220000D01*
X166370000Y-109220000D02*
X166370000Y-107769800D01*
X168117400Y-103302000D02*
X167887500Y-103072100D01*
X168117400Y-106022400D02*
X168117400Y-103302000D01*
X166370000Y-107769800D02*
X168117400Y-106022400D01*
X163830000Y-114300000D02*
X163830000Y-109220000D01*
X161290000Y-114300000D02*
X161290000Y-109220000D01*
X158750000Y-114300000D02*
X158750000Y-109220000D01*
X179070000Y-129540000D02*
X179070000Y-124460000D01*
X179070000Y-124460000D02*
X177969100Y-124460000D01*
X176530000Y-83820000D02*
X177630900Y-83820000D01*
X177750000Y-124240900D02*
X177969100Y-124460000D01*
X177750000Y-108056200D02*
X177750000Y-124240900D01*
X177221900Y-107528100D02*
X177750000Y-108056200D01*
X177221900Y-103690200D02*
X177221900Y-107528100D01*
X177630900Y-103281200D02*
X177221900Y-103690200D01*
X177630900Y-83820000D02*
X177630900Y-103281200D01*
X138430000Y-114300000D02*
X138430000Y-109220000D01*
X151130000Y-114300000D02*
X151130000Y-109220000D01*
X146050000Y-114300000D02*
X146050000Y-109220000D01*
X133350000Y-114300000D02*
X133350000Y-109220000D01*
X161290000Y-83820000D02*
X162390900Y-83820000D01*
X176530000Y-129540000D02*
X176530000Y-124460000D01*
X162390900Y-84920900D02*
X162390900Y-83820000D01*
X165100000Y-87630000D02*
X162390900Y-84920900D01*
X165100000Y-99766800D02*
X165100000Y-87630000D01*
X167269400Y-101936200D02*
X165100000Y-99766800D01*
X167671300Y-101936200D02*
X167269400Y-101936200D01*
X168619100Y-102884000D02*
X167671300Y-101936200D01*
X168619100Y-106790600D02*
X168619100Y-102884000D01*
X167690000Y-107719700D02*
X168619100Y-106790600D01*
X167690000Y-115620000D02*
X167690000Y-107719700D01*
X175429100Y-123359100D02*
X167690000Y-115620000D01*
X175429100Y-124460000D02*
X175429100Y-123359100D01*
X176530000Y-124460000D02*
X175429100Y-124460000D01*
X158860500Y-82369800D02*
X158750000Y-82369800D01*
X160020000Y-81210300D02*
X158860500Y-82369800D01*
X160020000Y-80010000D02*
X160020000Y-81210300D01*
X158750000Y-83820000D02*
X158750000Y-82369800D01*
X148590000Y-83820000D02*
X149690900Y-83820000D01*
X153670000Y-114300000D02*
X153670000Y-109220000D01*
X149690900Y-105240900D02*
X149690900Y-83820000D01*
X152569100Y-108119100D02*
X149690900Y-105240900D01*
X152569100Y-109220000D02*
X152569100Y-108119100D01*
X153670000Y-109220000D02*
X152569100Y-109220000D01*
X156210000Y-114300000D02*
X156210000Y-109220000D01*
X146050000Y-83820000D02*
X147150900Y-83820000D01*
X155291300Y-105632500D02*
X155582600Y-105632500D01*
X152350000Y-102691200D02*
X155291300Y-105632500D01*
X152350000Y-83099200D02*
X152350000Y-102691200D01*
X151594800Y-82344000D02*
X152350000Y-83099200D01*
X148123500Y-82344000D02*
X151594800Y-82344000D01*
X147150900Y-83316600D02*
X148123500Y-82344000D01*
X147150900Y-83820000D02*
X147150900Y-83316600D01*
X163830000Y-129540000D02*
X163830000Y-124460000D01*
X119152000Y-97959700D02*
X119380000Y-97959700D01*
X118160900Y-96968600D02*
X119152000Y-97959700D01*
X118160900Y-83049600D02*
X118160900Y-96968600D01*
X127719600Y-73490900D02*
X118160900Y-83049600D01*
X128270000Y-73490900D02*
X127719600Y-73490900D01*
X128270000Y-72390000D02*
X128270000Y-73490900D01*
X119380000Y-99060000D02*
X119380000Y-97959700D01*
X148590000Y-114300000D02*
X148590000Y-109220000D01*
X143510000Y-114300000D02*
X143510000Y-109220000D01*
X140970000Y-114300000D02*
X140970000Y-109220000D01*
X135890000Y-114300000D02*
X135890000Y-109220000D01*
X130810000Y-129540000D02*
X130810000Y-124460000D01*
X133350000Y-129540000D02*
X133350000Y-124460000D01*
X135890000Y-129540000D02*
X135890000Y-124460000D01*
X138430000Y-129540000D02*
X138430000Y-124460000D01*
X140970000Y-129540000D02*
X140970000Y-124460000D01*
X143510000Y-129540000D02*
X143510000Y-124460000D01*
X146050000Y-129540000D02*
X146050000Y-124460000D01*
X148590000Y-129540000D02*
X148590000Y-124460000D01*
X151130000Y-129540000D02*
X151130000Y-124460000D01*
X153670000Y-129540000D02*
X153670000Y-124460000D01*
X156210000Y-129540000D02*
X156210000Y-124460000D01*
X158750000Y-129540000D02*
X158750000Y-124460000D01*
X161290000Y-129540000D02*
X161290000Y-124460000D01*
X166370000Y-129540000D02*
X166370000Y-124460000D01*
X168910000Y-129540000D02*
X168910000Y-124460000D01*
X171450000Y-129540000D02*
X171450000Y-124460000D01*
X173990000Y-129540000D02*
X173990000Y-124460000D01*
D33*
X130810000Y-114300000D02*
X130810000Y-109220000D01*
X129359600Y-95704600D02*
X125730000Y-92075000D01*
X129359600Y-109120500D02*
X129359600Y-95704600D01*
X129459100Y-109220000D02*
X129359600Y-109120500D01*
X130810000Y-109220000D02*
X129459100Y-109220000D01*
X112395000Y-83104700D02*
X112395000Y-81280000D01*
X116840000Y-87549700D02*
X112395000Y-83104700D01*
X116840000Y-88900000D02*
X116840000Y-87549700D01*
X154305000Y-102870000D02*
X160020000Y-102870000D01*
X154305000Y-101395200D02*
X153670000Y-100760200D01*
X154305000Y-102870000D02*
X154305000Y-101395200D01*
X153670000Y-99060000D02*
X153670000Y-100760200D01*
X156210000Y-83820000D02*
X156210000Y-80010000D01*
X156494500Y-85804700D02*
X156494500Y-96601700D01*
X156210000Y-85520200D02*
X156494500Y-85804700D01*
X156210000Y-83820000D02*
X156210000Y-85520200D01*
X114300000Y-125730000D02*
X114300000Y-130810000D01*
X115570000Y-124460000D02*
X114300000Y-125730000D01*
X179070000Y-114300000D02*
X179070000Y-109220000D01*
X160511200Y-100821200D02*
X162560000Y-102870000D01*
X157971200Y-100821200D02*
X160511200Y-100821200D01*
X156210000Y-99060000D02*
X157971200Y-100821200D01*
X151399600Y-65565400D02*
X150556000Y-65565400D01*
X151936200Y-65028800D02*
X151399600Y-65565400D01*
X151936200Y-60851000D02*
X151936200Y-65028800D01*
X151399600Y-60314400D02*
X151936200Y-60851000D01*
X150556000Y-60314400D02*
X151399600Y-60314400D01*
X150556000Y-59189600D02*
X150556000Y-60314400D01*
X150556000Y-66690200D02*
X150556000Y-65565400D01*
X153670000Y-80010000D02*
X153670000Y-83820000D01*
X153670000Y-96520000D02*
X156210000Y-99060000D01*
X153670000Y-83820000D02*
X153670000Y-96520000D01*
X115570000Y-133350000D02*
X114300000Y-133350000D01*
X118110000Y-130810000D02*
X115570000Y-133350000D01*
X145415000Y-70451100D02*
X149175900Y-66690200D01*
X145415000Y-72390000D02*
X145415000Y-70451100D01*
X150556000Y-66690200D02*
X149175900Y-66690200D01*
X114989600Y-61720700D02*
X115570000Y-61140300D01*
X114989600Y-74265300D02*
X114989600Y-61720700D01*
X115739400Y-75015100D02*
X114989600Y-74265300D01*
X118024900Y-75015100D02*
X115739400Y-75015100D01*
X119380000Y-73660000D02*
X118024900Y-75015100D01*
X115570000Y-59690000D02*
X115570000Y-61140300D01*
X125064500Y-111094500D02*
X123190000Y-109220000D01*
X125064500Y-130355500D02*
X125064500Y-111094500D01*
X124610000Y-130810000D02*
X125064500Y-130355500D01*
X123190000Y-92710000D02*
X123190000Y-109220000D01*
X119380000Y-88900000D02*
X123190000Y-92710000D01*
X128270000Y-78828500D02*
X128270000Y-74930000D01*
X119548800Y-87549700D02*
X128270000Y-78828500D01*
X119380000Y-87549700D02*
X119548800Y-87549700D01*
X119380000Y-88900000D02*
X119380000Y-87549700D01*
D34*
G36*
X183465000Y-139015000D02*
X108635000Y-139015000D01*
X108635000Y-135633795D01*
X116474716Y-135633795D01*
X116723106Y-136234943D01*
X117182637Y-136695278D01*
X117783352Y-136944716D01*
X118433795Y-136945284D01*
X119034943Y-136696894D01*
X119495278Y-136237363D01*
X119744716Y-135636648D01*
X119744718Y-135633795D01*
X122974716Y-135633795D01*
X123223106Y-136234943D01*
X123682637Y-136695278D01*
X124283352Y-136944716D01*
X124933795Y-136945284D01*
X125534943Y-136696894D01*
X125995278Y-136237363D01*
X126244716Y-135636648D01*
X126245284Y-134986205D01*
X125996894Y-134385057D01*
X125537363Y-133924722D01*
X124936648Y-133675284D01*
X124286205Y-133674716D01*
X123685057Y-133923106D01*
X123224722Y-134382637D01*
X122975284Y-134983352D01*
X122974716Y-135633795D01*
X119744718Y-135633795D01*
X119745284Y-134986205D01*
X119496894Y-134385057D01*
X119037363Y-133924722D01*
X118436648Y-133675284D01*
X117786205Y-133674716D01*
X117185057Y-133923106D01*
X116724722Y-134382637D01*
X116475284Y-134983352D01*
X116474716Y-135633795D01*
X108635000Y-135633795D01*
X108635000Y-134321930D01*
X113507675Y-134321930D01*
X113575735Y-134562931D01*
X114095034Y-134747767D01*
X114645538Y-134719805D01*
X115024265Y-134562931D01*
X115092325Y-134321930D01*
X114300000Y-133529605D01*
X113507675Y-134321930D01*
X108635000Y-134321930D01*
X108635000Y-133145034D01*
X112902233Y-133145034D01*
X112930195Y-133695538D01*
X113087069Y-134074265D01*
X113328070Y-134142325D01*
X114120395Y-133350000D01*
X114479605Y-133350000D01*
X115271930Y-134142325D01*
X115512931Y-134074265D01*
X115697767Y-133554966D01*
X115669805Y-133004462D01*
X115512931Y-132625735D01*
X115271930Y-132557675D01*
X114479605Y-133350000D01*
X114120395Y-133350000D01*
X113328070Y-132557675D01*
X113087069Y-132625735D01*
X112902233Y-133145034D01*
X108635000Y-133145034D01*
X108635000Y-131084398D01*
X112914190Y-131084398D01*
X113124686Y-131593837D01*
X113514113Y-131983944D01*
X113729496Y-132073379D01*
X113575735Y-132137069D01*
X113507675Y-132378070D01*
X114300000Y-133170395D01*
X115092325Y-132378070D01*
X115024265Y-132137069D01*
X114858960Y-132078231D01*
X115083837Y-131985314D01*
X115106658Y-131962532D01*
X117137073Y-131962532D01*
X117235736Y-132229387D01*
X117845461Y-132455908D01*
X118495460Y-132431856D01*
X118984264Y-132229387D01*
X119082927Y-131962532D01*
X123637073Y-131962532D01*
X123735736Y-132229387D01*
X124345461Y-132455908D01*
X124995460Y-132431856D01*
X125484264Y-132229387D01*
X125582927Y-131962532D01*
X124610000Y-130989605D01*
X123637073Y-131962532D01*
X119082927Y-131962532D01*
X118110000Y-130989605D01*
X117137073Y-131962532D01*
X115106658Y-131962532D01*
X115473944Y-131595887D01*
X115685329Y-131086816D01*
X115685801Y-130545461D01*
X116464092Y-130545461D01*
X116488144Y-131195460D01*
X116690613Y-131684264D01*
X116957468Y-131782927D01*
X117930395Y-130810000D01*
X118289605Y-130810000D01*
X119262532Y-131782927D01*
X119529387Y-131684264D01*
X119755908Y-131074539D01*
X119736331Y-130545461D01*
X122964092Y-130545461D01*
X122988144Y-131195460D01*
X123190613Y-131684264D01*
X123457468Y-131782927D01*
X124430395Y-130810000D01*
X124789605Y-130810000D01*
X125762532Y-131782927D01*
X126029387Y-131684264D01*
X126255908Y-131074539D01*
X126231856Y-130424540D01*
X126029387Y-129935736D01*
X125762532Y-129837073D01*
X124789605Y-130810000D01*
X124430395Y-130810000D01*
X123457468Y-129837073D01*
X123190613Y-129935736D01*
X122964092Y-130545461D01*
X119736331Y-130545461D01*
X119731856Y-130424540D01*
X119529387Y-129935736D01*
X119262532Y-129837073D01*
X118289605Y-130810000D01*
X117930395Y-130810000D01*
X116957468Y-129837073D01*
X116690613Y-129935736D01*
X116464092Y-130545461D01*
X115685801Y-130545461D01*
X115685810Y-130535602D01*
X115475314Y-130026163D01*
X115235000Y-129785429D01*
X115235000Y-129657468D01*
X117137073Y-129657468D01*
X118110000Y-130630395D01*
X119082927Y-129657468D01*
X123637073Y-129657468D01*
X124610000Y-130630395D01*
X125582927Y-129657468D01*
X125484264Y-129390613D01*
X124874539Y-129164092D01*
X124224540Y-129188144D01*
X123735736Y-129390613D01*
X123637073Y-129657468D01*
X119082927Y-129657468D01*
X118984264Y-129390613D01*
X118374539Y-129164092D01*
X117724540Y-129188144D01*
X117235736Y-129390613D01*
X117137073Y-129657468D01*
X115235000Y-129657468D01*
X115235000Y-126344708D01*
X115943305Y-126345326D01*
X116636372Y-126058957D01*
X117167093Y-125529161D01*
X117454672Y-124836595D01*
X117455326Y-124086695D01*
X117168957Y-123393628D01*
X116985650Y-123210000D01*
X121292560Y-123210000D01*
X121292560Y-125710000D01*
X121336838Y-125945317D01*
X121475910Y-126161441D01*
X121688110Y-126306431D01*
X121940000Y-126357440D01*
X124440000Y-126357440D01*
X124675317Y-126313162D01*
X124891441Y-126174090D01*
X125036431Y-125961890D01*
X125087440Y-125710000D01*
X125087440Y-123210000D01*
X125043162Y-122974683D01*
X124904090Y-122758559D01*
X124691890Y-122613569D01*
X124440000Y-122562560D01*
X121940000Y-122562560D01*
X121704683Y-122606838D01*
X121488559Y-122745910D01*
X121343569Y-122958110D01*
X121292560Y-123210000D01*
X116985650Y-123210000D01*
X116639161Y-122862907D01*
X115946595Y-122575328D01*
X115196695Y-122574674D01*
X114503628Y-122861043D01*
X113972907Y-123390839D01*
X113685328Y-124083405D01*
X113684674Y-124833305D01*
X113740148Y-124967562D01*
X113638855Y-125068855D01*
X113436173Y-125372191D01*
X113365000Y-125730000D01*
X113365000Y-129785586D01*
X113126056Y-130024113D01*
X112914671Y-130533184D01*
X112914190Y-131084398D01*
X108635000Y-131084398D01*
X108635000Y-109593305D01*
X113684674Y-109593305D01*
X113971043Y-110286372D01*
X114500839Y-110817093D01*
X115193405Y-111104672D01*
X115943305Y-111105326D01*
X116636372Y-110818957D01*
X116902472Y-110553320D01*
X122036285Y-110553320D01*
X122165533Y-110846123D01*
X122865806Y-111114388D01*
X123615435Y-111094250D01*
X124214467Y-110846123D01*
X124343715Y-110553320D01*
X123190000Y-109399605D01*
X122036285Y-110553320D01*
X116902472Y-110553320D01*
X117167093Y-110289161D01*
X117454672Y-109596595D01*
X117455283Y-108895806D01*
X121295612Y-108895806D01*
X121315750Y-109645435D01*
X121563877Y-110244467D01*
X121856680Y-110373715D01*
X123010395Y-109220000D01*
X123369605Y-109220000D01*
X124523320Y-110373715D01*
X124816123Y-110244467D01*
X125084388Y-109544194D01*
X125064250Y-108794565D01*
X124816123Y-108195533D01*
X124523320Y-108066285D01*
X123369605Y-109220000D01*
X123010395Y-109220000D01*
X121856680Y-108066285D01*
X121563877Y-108195533D01*
X121295612Y-108895806D01*
X117455283Y-108895806D01*
X117455326Y-108846695D01*
X117168957Y-108153628D01*
X116902475Y-107886680D01*
X122036285Y-107886680D01*
X123190000Y-109040395D01*
X124343715Y-107886680D01*
X124214467Y-107593877D01*
X123514194Y-107325612D01*
X122764565Y-107345750D01*
X122165533Y-107593877D01*
X122036285Y-107886680D01*
X116902475Y-107886680D01*
X116639161Y-107622907D01*
X115946595Y-107335328D01*
X115196695Y-107334674D01*
X114503628Y-107621043D01*
X113972907Y-108150839D01*
X113685328Y-108843405D01*
X113684674Y-109593305D01*
X108635000Y-109593305D01*
X108635000Y-103781661D01*
X124332758Y-103781661D01*
X124544990Y-104295303D01*
X124937630Y-104688629D01*
X125450900Y-104901757D01*
X126006661Y-104902242D01*
X126520303Y-104690010D01*
X126913629Y-104297370D01*
X127126757Y-103784100D01*
X127127242Y-103228339D01*
X126915010Y-102714697D01*
X126522370Y-102321371D01*
X126009100Y-102108243D01*
X125453339Y-102107758D01*
X124939697Y-102319990D01*
X124546371Y-102712630D01*
X124333243Y-103225900D01*
X124332758Y-103781661D01*
X108635000Y-103781661D01*
X108635000Y-81556661D01*
X110997758Y-81556661D01*
X111209990Y-82070303D01*
X111460000Y-82320750D01*
X111460000Y-83104700D01*
X111531173Y-83462509D01*
X111733855Y-83765845D01*
X115489484Y-87521474D01*
X115354683Y-87546838D01*
X115138559Y-87685910D01*
X114993569Y-87898110D01*
X114942560Y-88150000D01*
X114942560Y-89650000D01*
X114986838Y-89885317D01*
X115125910Y-90101441D01*
X115338110Y-90246431D01*
X115576874Y-90294782D01*
X115328625Y-90460657D01*
X115028395Y-90909983D01*
X114922968Y-91440000D01*
X115028395Y-91970017D01*
X115328625Y-92419343D01*
X115763624Y-92710000D01*
X115328625Y-93000657D01*
X115028395Y-93449983D01*
X114922968Y-93980000D01*
X115028395Y-94510017D01*
X115328625Y-94959343D01*
X115763624Y-95250000D01*
X115328625Y-95540657D01*
X115028395Y-95989983D01*
X114922968Y-96520000D01*
X115028395Y-97050017D01*
X115328625Y-97499343D01*
X115763624Y-97790000D01*
X115328625Y-98080657D01*
X115028395Y-98529983D01*
X114922968Y-99060000D01*
X115028395Y-99590017D01*
X115328625Y-100039343D01*
X115777951Y-100339573D01*
X116307968Y-100445000D01*
X116872032Y-100445000D01*
X117402049Y-100339573D01*
X117851375Y-100039343D01*
X118110000Y-99652283D01*
X118368625Y-100039343D01*
X118817951Y-100339573D01*
X119347968Y-100445000D01*
X119912032Y-100445000D01*
X120442049Y-100339573D01*
X120891375Y-100039343D01*
X121191605Y-99590017D01*
X121297032Y-99060000D01*
X121191605Y-98529983D01*
X120891375Y-98080657D01*
X120456376Y-97790000D01*
X120891375Y-97499343D01*
X121191605Y-97050017D01*
X121297032Y-96520000D01*
X121191605Y-95989983D01*
X120891375Y-95540657D01*
X120456376Y-95250000D01*
X120891375Y-94959343D01*
X121191605Y-94510017D01*
X121297032Y-93980000D01*
X121191605Y-93449983D01*
X120891375Y-93000657D01*
X120456376Y-92710000D01*
X120891375Y-92419343D01*
X121191605Y-91970017D01*
X121297032Y-91440000D01*
X121191605Y-90909983D01*
X120891375Y-90460657D01*
X120448161Y-90164511D01*
X120501721Y-90149964D01*
X120932736Y-89816894D01*
X121203481Y-89344235D01*
X121222318Y-89241185D01*
X121099656Y-89027000D01*
X119757000Y-89027000D01*
X119757000Y-89047000D01*
X119503000Y-89047000D01*
X119503000Y-89027000D01*
X119483000Y-89027000D01*
X119483000Y-88773000D01*
X119503000Y-88773000D01*
X119503000Y-87668132D01*
X119757000Y-87668132D01*
X119757000Y-88773000D01*
X121099656Y-88773000D01*
X121222318Y-88558815D01*
X121203481Y-88455765D01*
X120932736Y-87983106D01*
X120501721Y-87650036D01*
X119976055Y-87507261D01*
X119757000Y-87668132D01*
X119503000Y-87668132D01*
X119283945Y-87507261D01*
X118945900Y-87599077D01*
X118945900Y-83374758D01*
X120763997Y-81556661D01*
X122427758Y-81556661D01*
X122639990Y-82070303D01*
X123032630Y-82463629D01*
X123545900Y-82676757D01*
X124101661Y-82677242D01*
X124615303Y-82465010D01*
X125008629Y-82072370D01*
X125221757Y-81559100D01*
X125222242Y-81003339D01*
X125010010Y-80489697D01*
X124617370Y-80096371D01*
X124104100Y-79883243D01*
X123548339Y-79882758D01*
X123034697Y-80094990D01*
X122641371Y-80487630D01*
X122428243Y-81000900D01*
X122427758Y-81556661D01*
X120763997Y-81556661D01*
X126787970Y-75532688D01*
X126967290Y-75846324D01*
X127398167Y-76179841D01*
X127923877Y-76323081D01*
X128143000Y-76162386D01*
X128143000Y-75057000D01*
X128397000Y-75057000D01*
X128397000Y-76162386D01*
X128616123Y-76323081D01*
X129141833Y-76179841D01*
X129572710Y-75846324D01*
X129843157Y-75373305D01*
X129861803Y-75271275D01*
X129739149Y-75057000D01*
X128397000Y-75057000D01*
X128143000Y-75057000D01*
X128123000Y-75057000D01*
X128123000Y-74803000D01*
X128143000Y-74803000D01*
X128143000Y-74783000D01*
X128397000Y-74783000D01*
X128397000Y-74803000D01*
X129739149Y-74803000D01*
X129861803Y-74588725D01*
X129843157Y-74486695D01*
X129572710Y-74013676D01*
X129141833Y-73680159D01*
X129088053Y-73665506D01*
X129530688Y-73369746D01*
X129700679Y-73115337D01*
X133835000Y-77249658D01*
X133835000Y-82147665D01*
X133350000Y-82051193D01*
X132819765Y-82156663D01*
X132370254Y-82457017D01*
X132080000Y-82891412D01*
X131789746Y-82457017D01*
X131340235Y-82156663D01*
X130810000Y-82051193D01*
X130279765Y-82156663D01*
X129830254Y-82457017D01*
X129529900Y-82906528D01*
X129424430Y-83436763D01*
X129424430Y-84203237D01*
X129529900Y-84733472D01*
X129830254Y-85182983D01*
X130279765Y-85483337D01*
X130810000Y-85588807D01*
X131340235Y-85483337D01*
X131789746Y-85182983D01*
X132080000Y-84748588D01*
X132370254Y-85182983D01*
X132819765Y-85483337D01*
X133350000Y-85588807D01*
X133835000Y-85492335D01*
X133835000Y-93199300D01*
X133894755Y-93499707D01*
X134064921Y-93754379D01*
X137784334Y-97473792D01*
X137450254Y-97697017D01*
X137160000Y-98131412D01*
X136869746Y-97697017D01*
X136420235Y-97396663D01*
X135890000Y-97291193D01*
X135359765Y-97396663D01*
X134910254Y-97697017D01*
X134620000Y-98131412D01*
X134329746Y-97697017D01*
X133880235Y-97396663D01*
X133350000Y-97291193D01*
X132819765Y-97396663D01*
X132370254Y-97697017D01*
X132080000Y-98131412D01*
X131789746Y-97697017D01*
X131340235Y-97396663D01*
X130810000Y-97291193D01*
X130294600Y-97393712D01*
X130294600Y-95704605D01*
X130294601Y-95704600D01*
X130223427Y-95346792D01*
X130223427Y-95346791D01*
X130020745Y-95043455D01*
X127126935Y-92149645D01*
X127127242Y-91798339D01*
X126915010Y-91284697D01*
X126522370Y-90891371D01*
X126009100Y-90678243D01*
X125453339Y-90677758D01*
X124939697Y-90889990D01*
X124546371Y-91282630D01*
X124333243Y-91795900D01*
X124332758Y-92351661D01*
X124544990Y-92865303D01*
X124937630Y-93258629D01*
X125450900Y-93471757D01*
X125804776Y-93472066D01*
X128424600Y-96091890D01*
X128424600Y-109120500D01*
X128495773Y-109478309D01*
X128698455Y-109781645D01*
X128797955Y-109881145D01*
X129101291Y-110083827D01*
X129459100Y-110155000D01*
X129544285Y-110155000D01*
X129830254Y-110582983D01*
X129875000Y-110612881D01*
X129875000Y-113143977D01*
X129759946Y-113220853D01*
X129438039Y-113702622D01*
X129325000Y-114270907D01*
X129325000Y-114329093D01*
X129438039Y-114897378D01*
X129759946Y-115379147D01*
X130241715Y-115701054D01*
X130810000Y-115814093D01*
X131378285Y-115701054D01*
X131860054Y-115379147D01*
X132080000Y-115049974D01*
X132299946Y-115379147D01*
X132781715Y-115701054D01*
X133350000Y-115814093D01*
X133918285Y-115701054D01*
X134400054Y-115379147D01*
X134620000Y-115049974D01*
X134839946Y-115379147D01*
X135321715Y-115701054D01*
X135890000Y-115814093D01*
X136458285Y-115701054D01*
X136940054Y-115379147D01*
X137160000Y-115049974D01*
X137379946Y-115379147D01*
X137861715Y-115701054D01*
X138430000Y-115814093D01*
X138998285Y-115701054D01*
X139480054Y-115379147D01*
X139700000Y-115049974D01*
X139919946Y-115379147D01*
X140401715Y-115701054D01*
X140970000Y-115814093D01*
X141538285Y-115701054D01*
X142020054Y-115379147D01*
X142240000Y-115049974D01*
X142459946Y-115379147D01*
X142941715Y-115701054D01*
X143510000Y-115814093D01*
X144078285Y-115701054D01*
X144560054Y-115379147D01*
X144780000Y-115049974D01*
X144999946Y-115379147D01*
X145481715Y-115701054D01*
X146050000Y-115814093D01*
X146618285Y-115701054D01*
X147100054Y-115379147D01*
X147320000Y-115049974D01*
X147539946Y-115379147D01*
X148021715Y-115701054D01*
X148590000Y-115814093D01*
X149158285Y-115701054D01*
X149640054Y-115379147D01*
X149860000Y-115049974D01*
X150079946Y-115379147D01*
X150561715Y-115701054D01*
X151130000Y-115814093D01*
X151698285Y-115701054D01*
X152180054Y-115379147D01*
X152400000Y-115049974D01*
X152619946Y-115379147D01*
X153101715Y-115701054D01*
X153670000Y-115814093D01*
X154238285Y-115701054D01*
X154720054Y-115379147D01*
X154940000Y-115049974D01*
X155159946Y-115379147D01*
X155641715Y-115701054D01*
X156210000Y-115814093D01*
X156778285Y-115701054D01*
X157260054Y-115379147D01*
X157480000Y-115049974D01*
X157699946Y-115379147D01*
X158181715Y-115701054D01*
X158750000Y-115814093D01*
X159318285Y-115701054D01*
X159800054Y-115379147D01*
X160020000Y-115049974D01*
X160239946Y-115379147D01*
X160721715Y-115701054D01*
X161290000Y-115814093D01*
X161858285Y-115701054D01*
X162340054Y-115379147D01*
X162560000Y-115049974D01*
X162779946Y-115379147D01*
X163261715Y-115701054D01*
X163830000Y-115814093D01*
X164261200Y-115728322D01*
X164261200Y-122776964D01*
X163830000Y-122691193D01*
X163299765Y-122796663D01*
X162850254Y-123097017D01*
X162560000Y-123531412D01*
X162269746Y-123097017D01*
X161820235Y-122796663D01*
X161290000Y-122691193D01*
X160759765Y-122796663D01*
X160310254Y-123097017D01*
X160020000Y-123531412D01*
X159729746Y-123097017D01*
X159280235Y-122796663D01*
X158750000Y-122691193D01*
X158219765Y-122796663D01*
X157770254Y-123097017D01*
X157480000Y-123531412D01*
X157189746Y-123097017D01*
X156740235Y-122796663D01*
X156210000Y-122691193D01*
X155679765Y-122796663D01*
X155230254Y-123097017D01*
X154940000Y-123531412D01*
X154649746Y-123097017D01*
X154200235Y-122796663D01*
X153670000Y-122691193D01*
X153139765Y-122796663D01*
X152690254Y-123097017D01*
X152400000Y-123531412D01*
X152109746Y-123097017D01*
X151660235Y-122796663D01*
X151130000Y-122691193D01*
X150599765Y-122796663D01*
X150150254Y-123097017D01*
X149860000Y-123531412D01*
X149569746Y-123097017D01*
X149120235Y-122796663D01*
X148590000Y-122691193D01*
X148059765Y-122796663D01*
X147610254Y-123097017D01*
X147320000Y-123531412D01*
X147029746Y-123097017D01*
X146580235Y-122796663D01*
X146050000Y-122691193D01*
X145519765Y-122796663D01*
X145070254Y-123097017D01*
X144780000Y-123531412D01*
X144489746Y-123097017D01*
X144040235Y-122796663D01*
X143510000Y-122691193D01*
X142979765Y-122796663D01*
X142530254Y-123097017D01*
X142240000Y-123531412D01*
X141949746Y-123097017D01*
X141500235Y-122796663D01*
X140970000Y-122691193D01*
X140439765Y-122796663D01*
X139990254Y-123097017D01*
X139700000Y-123531412D01*
X139409746Y-123097017D01*
X138960235Y-122796663D01*
X138430000Y-122691193D01*
X137899765Y-122796663D01*
X137450254Y-123097017D01*
X137160000Y-123531412D01*
X136869746Y-123097017D01*
X136420235Y-122796663D01*
X135890000Y-122691193D01*
X135359765Y-122796663D01*
X134910254Y-123097017D01*
X134620000Y-123531412D01*
X134329746Y-123097017D01*
X133880235Y-122796663D01*
X133350000Y-122691193D01*
X132819765Y-122796663D01*
X132370254Y-123097017D01*
X132080000Y-123531412D01*
X131789746Y-123097017D01*
X131340235Y-122796663D01*
X130810000Y-122691193D01*
X130279765Y-122796663D01*
X129830254Y-123097017D01*
X129529900Y-123546528D01*
X129424430Y-124076763D01*
X129424430Y-124843237D01*
X129529900Y-125373472D01*
X129830254Y-125822983D01*
X130025000Y-125953108D01*
X130025000Y-128042560D01*
X129960000Y-128042560D01*
X129724683Y-128086838D01*
X129508559Y-128225910D01*
X129363569Y-128438110D01*
X129312560Y-128690000D01*
X129312560Y-130390000D01*
X129356838Y-130625317D01*
X129495910Y-130841441D01*
X129708110Y-130986431D01*
X129960000Y-131037440D01*
X131660000Y-131037440D01*
X131895317Y-130993162D01*
X132111441Y-130854090D01*
X132256431Y-130641890D01*
X132270086Y-130574459D01*
X132299946Y-130619147D01*
X132781715Y-130941054D01*
X133350000Y-131054093D01*
X133918285Y-130941054D01*
X134400054Y-130619147D01*
X134620000Y-130289974D01*
X134839946Y-130619147D01*
X135321715Y-130941054D01*
X135890000Y-131054093D01*
X136458285Y-130941054D01*
X136940054Y-130619147D01*
X137160000Y-130289974D01*
X137379946Y-130619147D01*
X137861715Y-130941054D01*
X138430000Y-131054093D01*
X138998285Y-130941054D01*
X139480054Y-130619147D01*
X139700000Y-130289974D01*
X139919946Y-130619147D01*
X140401715Y-130941054D01*
X140970000Y-131054093D01*
X141538285Y-130941054D01*
X142020054Y-130619147D01*
X142240000Y-130289974D01*
X142459946Y-130619147D01*
X142941715Y-130941054D01*
X143510000Y-131054093D01*
X144078285Y-130941054D01*
X144560054Y-130619147D01*
X144780000Y-130289974D01*
X144999946Y-130619147D01*
X145481715Y-130941054D01*
X146050000Y-131054093D01*
X146618285Y-130941054D01*
X147100054Y-130619147D01*
X147320000Y-130289974D01*
X147539946Y-130619147D01*
X148021715Y-130941054D01*
X148590000Y-131054093D01*
X149158285Y-130941054D01*
X149640054Y-130619147D01*
X149860000Y-130289974D01*
X150079946Y-130619147D01*
X150561715Y-130941054D01*
X151130000Y-131054093D01*
X151698285Y-130941054D01*
X152180054Y-130619147D01*
X152400000Y-130289974D01*
X152619946Y-130619147D01*
X153101715Y-130941054D01*
X153670000Y-131054093D01*
X154238285Y-130941054D01*
X154720054Y-130619147D01*
X154940000Y-130289974D01*
X155159946Y-130619147D01*
X155641715Y-130941054D01*
X156210000Y-131054093D01*
X156778285Y-130941054D01*
X157260054Y-130619147D01*
X157480000Y-130289974D01*
X157699946Y-130619147D01*
X158181715Y-130941054D01*
X158750000Y-131054093D01*
X159318285Y-130941054D01*
X159800054Y-130619147D01*
X160020000Y-130289974D01*
X160239946Y-130619147D01*
X160721715Y-130941054D01*
X161290000Y-131054093D01*
X161858285Y-130941054D01*
X162340054Y-130619147D01*
X162560000Y-130289974D01*
X162779946Y-130619147D01*
X163124963Y-130849680D01*
X161339942Y-132634700D01*
X161290000Y-132634700D01*
X160989594Y-132694455D01*
X160734921Y-132864621D01*
X160564755Y-133119294D01*
X160517835Y-133355174D01*
X160239946Y-133540853D01*
X159918039Y-134022622D01*
X159805000Y-134590907D01*
X159805000Y-134649093D01*
X159918039Y-135217378D01*
X160239946Y-135699147D01*
X160721715Y-136021054D01*
X161290000Y-136134093D01*
X161858285Y-136021054D01*
X162340054Y-135699147D01*
X162367850Y-135657548D01*
X162376838Y-135705317D01*
X162515910Y-135921441D01*
X162728110Y-136066431D01*
X162980000Y-136117440D01*
X164680000Y-136117440D01*
X164915317Y-136073162D01*
X165131441Y-135934090D01*
X165276431Y-135721890D01*
X165327440Y-135470000D01*
X165327440Y-133770000D01*
X165283162Y-133534683D01*
X165144090Y-133318559D01*
X164931890Y-133173569D01*
X164680000Y-133122560D01*
X163072398Y-133122560D01*
X165473325Y-130721632D01*
X165801715Y-130941054D01*
X166370000Y-131054093D01*
X166938285Y-130941054D01*
X167420054Y-130619147D01*
X167640000Y-130289974D01*
X167859946Y-130619147D01*
X168341715Y-130941054D01*
X168910000Y-131054093D01*
X169478285Y-130941054D01*
X169960054Y-130619147D01*
X170180000Y-130289974D01*
X170399946Y-130619147D01*
X170881715Y-130941054D01*
X171450000Y-131054093D01*
X172018285Y-130941054D01*
X172500054Y-130619147D01*
X172720000Y-130289974D01*
X172939946Y-130619147D01*
X173421715Y-130941054D01*
X173990000Y-131054093D01*
X174558285Y-130941054D01*
X175040054Y-130619147D01*
X175260000Y-130289974D01*
X175479946Y-130619147D01*
X175961715Y-130941054D01*
X176530000Y-131054093D01*
X177098285Y-130941054D01*
X177580054Y-130619147D01*
X177800000Y-130289974D01*
X178019946Y-130619147D01*
X178501715Y-130941054D01*
X179070000Y-131054093D01*
X179638285Y-130941054D01*
X180120054Y-130619147D01*
X180441961Y-130137378D01*
X180555000Y-129569093D01*
X180555000Y-129510907D01*
X180441961Y-128942622D01*
X180120054Y-128460853D01*
X179855000Y-128283750D01*
X179855000Y-125953108D01*
X180049746Y-125822983D01*
X180350100Y-125373472D01*
X180455570Y-124843237D01*
X180455570Y-124076763D01*
X180350100Y-123546528D01*
X180049746Y-123097017D01*
X179600235Y-122796663D01*
X179070000Y-122691193D01*
X178539765Y-122796663D01*
X178535000Y-122799847D01*
X178535000Y-115785000D01*
X178784250Y-115785000D01*
X178943000Y-115626250D01*
X178943000Y-114427000D01*
X179197000Y-114427000D01*
X179197000Y-115626250D01*
X179355750Y-115785000D01*
X180046310Y-115785000D01*
X180279699Y-115688327D01*
X180458327Y-115509698D01*
X180555000Y-115276309D01*
X180555000Y-114585750D01*
X180396250Y-114427000D01*
X179197000Y-114427000D01*
X178943000Y-114427000D01*
X178923000Y-114427000D01*
X178923000Y-114173000D01*
X178943000Y-114173000D01*
X178943000Y-112973750D01*
X179197000Y-112973750D01*
X179197000Y-114173000D01*
X180396250Y-114173000D01*
X180555000Y-114014250D01*
X180555000Y-113323691D01*
X180458327Y-113090302D01*
X180279699Y-112911673D01*
X180046310Y-112815000D01*
X179355750Y-112815000D01*
X179197000Y-112973750D01*
X178943000Y-112973750D01*
X178784250Y-112815000D01*
X178535000Y-112815000D01*
X178535000Y-110831621D01*
X178657097Y-110897950D01*
X178728725Y-110912133D01*
X178943000Y-110789479D01*
X178943000Y-109347000D01*
X179197000Y-109347000D01*
X179197000Y-110789479D01*
X179411275Y-110912133D01*
X179482903Y-110897950D01*
X179959944Y-110638798D01*
X180301499Y-110216817D01*
X180455570Y-109696250D01*
X180455570Y-109347000D01*
X179197000Y-109347000D01*
X178943000Y-109347000D01*
X178923000Y-109347000D01*
X178923000Y-109093000D01*
X178943000Y-109093000D01*
X178943000Y-107650521D01*
X179197000Y-107650521D01*
X179197000Y-109093000D01*
X180455570Y-109093000D01*
X180455570Y-108743750D01*
X180301499Y-108223183D01*
X179959944Y-107801202D01*
X179482903Y-107542050D01*
X179411275Y-107527867D01*
X179197000Y-107650521D01*
X178943000Y-107650521D01*
X178728725Y-107527867D01*
X178657097Y-107542050D01*
X178418892Y-107671455D01*
X178305079Y-107501121D01*
X178006900Y-107202942D01*
X178006900Y-106744887D01*
X178155900Y-106806757D01*
X178711661Y-106807242D01*
X179225303Y-106595010D01*
X179618629Y-106202370D01*
X179831757Y-105689100D01*
X179832242Y-105133339D01*
X179620010Y-104619697D01*
X179227370Y-104226371D01*
X178714100Y-104013243D01*
X178158339Y-104012758D01*
X178006900Y-104075331D01*
X178006900Y-104015358D01*
X178185979Y-103836279D01*
X178356145Y-103581607D01*
X178415900Y-103281200D01*
X178415900Y-100640573D01*
X178539765Y-100723337D01*
X179070000Y-100828807D01*
X179600235Y-100723337D01*
X180049746Y-100422983D01*
X180350100Y-99973472D01*
X180455570Y-99443237D01*
X180455570Y-98676763D01*
X180350100Y-98146528D01*
X180049746Y-97697017D01*
X179600235Y-97396663D01*
X179070000Y-97291193D01*
X178539765Y-97396663D01*
X178415900Y-97479427D01*
X178415900Y-85400573D01*
X178539765Y-85483337D01*
X179070000Y-85588807D01*
X179600235Y-85483337D01*
X180049746Y-85182983D01*
X180350100Y-84733472D01*
X180455570Y-84203237D01*
X180455570Y-83436763D01*
X180350100Y-82906528D01*
X180049746Y-82457017D01*
X179600235Y-82156663D01*
X179070000Y-82051193D01*
X178539765Y-82156663D01*
X178090254Y-82457017D01*
X177800000Y-82891412D01*
X177509746Y-82457017D01*
X177060235Y-82156663D01*
X176530000Y-82051193D01*
X175999765Y-82156663D01*
X175550254Y-82457017D01*
X175260000Y-82891412D01*
X174969746Y-82457017D01*
X174520235Y-82156663D01*
X173990000Y-82051193D01*
X173459765Y-82156663D01*
X173010254Y-82457017D01*
X172720000Y-82891412D01*
X172429746Y-82457017D01*
X171980235Y-82156663D01*
X171450000Y-82051193D01*
X170919765Y-82156663D01*
X170470254Y-82457017D01*
X170180000Y-82891412D01*
X169889746Y-82457017D01*
X169440235Y-82156663D01*
X168910000Y-82051193D01*
X168379765Y-82156663D01*
X167930254Y-82457017D01*
X167640000Y-82891412D01*
X167349746Y-82457017D01*
X166900235Y-82156663D01*
X166370000Y-82051193D01*
X165839765Y-82156663D01*
X165390254Y-82457017D01*
X165100000Y-82891412D01*
X164809746Y-82457017D01*
X164360235Y-82156663D01*
X163830000Y-82051193D01*
X163299765Y-82156663D01*
X162850254Y-82457017D01*
X162560000Y-82891412D01*
X162269746Y-82457017D01*
X161820235Y-82156663D01*
X161290000Y-82051193D01*
X160759765Y-82156663D01*
X160310254Y-82457017D01*
X160020000Y-82891412D01*
X159791308Y-82549150D01*
X160575079Y-81765379D01*
X160745245Y-81510706D01*
X160745895Y-81507440D01*
X160870000Y-81507440D01*
X161105317Y-81463162D01*
X161321441Y-81324090D01*
X161466431Y-81111890D01*
X161517440Y-80860000D01*
X161517440Y-79160000D01*
X161473162Y-78924683D01*
X161334090Y-78708559D01*
X161121890Y-78563569D01*
X160870000Y-78512560D01*
X159170000Y-78512560D01*
X158934683Y-78556838D01*
X158718559Y-78695910D01*
X158573569Y-78908110D01*
X158522560Y-79160000D01*
X158522560Y-80860000D01*
X158566838Y-81095317D01*
X158705910Y-81311441D01*
X158766976Y-81353166D01*
X158482041Y-81638101D01*
X158449594Y-81644555D01*
X158194921Y-81814721D01*
X158024755Y-82069394D01*
X157974843Y-82320315D01*
X157770254Y-82457017D01*
X157480000Y-82891412D01*
X157189746Y-82457017D01*
X157145000Y-82427119D01*
X157145000Y-81034414D01*
X157383944Y-80795887D01*
X157595329Y-80286816D01*
X157595810Y-79735602D01*
X157385314Y-79226163D01*
X156995887Y-78836056D01*
X156486816Y-78624671D01*
X155935602Y-78624190D01*
X155426163Y-78834686D01*
X155036056Y-79224113D01*
X154946621Y-79439496D01*
X154882931Y-79285735D01*
X154641930Y-79217675D01*
X153849605Y-80010000D01*
X154641930Y-80802325D01*
X154882931Y-80734265D01*
X154941769Y-80568960D01*
X155034686Y-80793837D01*
X155275000Y-81034571D01*
X155275000Y-82427119D01*
X155230254Y-82457017D01*
X154929900Y-82906528D01*
X154928399Y-82914072D01*
X154901499Y-82823183D01*
X154559944Y-82401202D01*
X154082903Y-82142050D01*
X154011275Y-82127867D01*
X153797000Y-82250521D01*
X153797000Y-83693000D01*
X153817000Y-83693000D01*
X153817000Y-83947000D01*
X153797000Y-83947000D01*
X153797000Y-85389479D01*
X154011275Y-85512133D01*
X154082903Y-85497950D01*
X154559944Y-85238798D01*
X154901499Y-84816817D01*
X154928399Y-84725928D01*
X154929900Y-84733472D01*
X155230254Y-85182983D01*
X155275000Y-85212881D01*
X155275000Y-85520200D01*
X155346173Y-85878009D01*
X155548855Y-86181345D01*
X155559500Y-86191990D01*
X155559500Y-96600884D01*
X155559338Y-96786867D01*
X155701383Y-97130643D01*
X155964173Y-97393892D01*
X156082998Y-97443233D01*
X156082998Y-97490520D01*
X155868725Y-97367867D01*
X155797097Y-97382050D01*
X155320056Y-97641202D01*
X154978501Y-98063183D01*
X154951601Y-98154072D01*
X154950100Y-98146528D01*
X154649746Y-97697017D01*
X154200235Y-97396663D01*
X153670000Y-97291193D01*
X153139765Y-97396663D01*
X153135000Y-97399847D01*
X153135000Y-85431621D01*
X153257097Y-85497950D01*
X153328725Y-85512133D01*
X153543000Y-85389479D01*
X153543000Y-83947000D01*
X153523000Y-83947000D01*
X153523000Y-83693000D01*
X153543000Y-83693000D01*
X153543000Y-82250521D01*
X153328725Y-82127867D01*
X153257097Y-82142050D01*
X152780056Y-82401202D01*
X152772051Y-82411093D01*
X152149879Y-81788921D01*
X151895207Y-81618755D01*
X151594800Y-81559000D01*
X148123500Y-81559000D01*
X147823093Y-81618755D01*
X147568421Y-81788921D01*
X146952164Y-82405178D01*
X146580235Y-82156663D01*
X146050000Y-82051193D01*
X145723700Y-82116098D01*
X145723700Y-80981930D01*
X152877675Y-80981930D01*
X152945735Y-81222931D01*
X153465034Y-81407767D01*
X154015538Y-81379805D01*
X154394265Y-81222931D01*
X154462325Y-80981930D01*
X153670000Y-80189605D01*
X152877675Y-80981930D01*
X145723700Y-80981930D01*
X145723700Y-79805034D01*
X152272233Y-79805034D01*
X152300195Y-80355538D01*
X152457069Y-80734265D01*
X152698070Y-80802325D01*
X153490395Y-80010000D01*
X152698070Y-79217675D01*
X152457069Y-79285735D01*
X152272233Y-79805034D01*
X145723700Y-79805034D01*
X145723700Y-79718158D01*
X146403788Y-79038070D01*
X152877675Y-79038070D01*
X153670000Y-79830395D01*
X154462325Y-79038070D01*
X154394265Y-78797069D01*
X153874966Y-78612233D01*
X153324462Y-78640195D01*
X152945735Y-78797069D01*
X152877675Y-79038070D01*
X146403788Y-79038070D01*
X148191679Y-77250179D01*
X148361845Y-76995506D01*
X148421600Y-76695100D01*
X148421600Y-74879200D01*
X153926800Y-74879200D01*
X153926800Y-76779120D01*
X153971078Y-77014437D01*
X154110150Y-77230561D01*
X154322350Y-77375551D01*
X154574240Y-77426560D01*
X156474160Y-77426560D01*
X156709477Y-77382282D01*
X156925601Y-77243210D01*
X157070591Y-77031010D01*
X157121600Y-76779120D01*
X157121600Y-74879200D01*
X157089579Y-74709020D01*
X159726890Y-74709020D01*
X159726890Y-76309220D01*
X159771168Y-76544537D01*
X159910240Y-76760661D01*
X160122440Y-76905651D01*
X160374330Y-76956660D01*
X161474150Y-76956660D01*
X161709467Y-76912382D01*
X161925591Y-76773310D01*
X162070581Y-76561110D01*
X162121590Y-76309220D01*
X162121590Y-74759820D01*
X169146480Y-74759820D01*
X169146480Y-76360020D01*
X169190758Y-76595337D01*
X169329830Y-76811461D01*
X169542030Y-76956451D01*
X169793920Y-77007460D01*
X171394120Y-77007460D01*
X171629437Y-76963182D01*
X171845561Y-76824110D01*
X171990551Y-76611910D01*
X172041560Y-76360020D01*
X172041560Y-74759820D01*
X171997282Y-74524503D01*
X171858210Y-74308379D01*
X171646010Y-74163389D01*
X171394120Y-74112380D01*
X169793920Y-74112380D01*
X169558603Y-74156658D01*
X169342479Y-74295730D01*
X169197489Y-74507930D01*
X169146480Y-74759820D01*
X162121590Y-74759820D01*
X162121590Y-74709020D01*
X162077312Y-74473703D01*
X161938240Y-74257579D01*
X161726040Y-74112589D01*
X161474150Y-74061580D01*
X160374330Y-74061580D01*
X160139013Y-74105858D01*
X159922889Y-74244930D01*
X159777899Y-74457130D01*
X159726890Y-74709020D01*
X157089579Y-74709020D01*
X157077322Y-74643883D01*
X156938250Y-74427759D01*
X156726050Y-74282769D01*
X156474160Y-74231760D01*
X154574240Y-74231760D01*
X154338923Y-74276038D01*
X154122799Y-74415110D01*
X153977809Y-74627310D01*
X153926800Y-74879200D01*
X148421600Y-74879200D01*
X148421600Y-70866206D01*
X148428792Y-70859027D01*
X148571438Y-70515499D01*
X148571448Y-70504010D01*
X149182158Y-69893300D01*
X149189204Y-69893300D01*
X149231152Y-69958489D01*
X149179749Y-70033720D01*
X149128740Y-70285610D01*
X149128740Y-71334630D01*
X149173018Y-71569947D01*
X149312090Y-71786071D01*
X149524290Y-71931061D01*
X149763130Y-71979427D01*
X149638219Y-72162240D01*
X149587210Y-72414130D01*
X149587210Y-73762870D01*
X149631488Y-73998187D01*
X149770560Y-74214311D01*
X149982760Y-74359301D01*
X150234650Y-74410310D01*
X151334470Y-74410310D01*
X151569787Y-74366032D01*
X151785911Y-74226960D01*
X151930901Y-74014760D01*
X151981910Y-73762870D01*
X151981910Y-73364636D01*
X173389024Y-73364636D01*
X173622287Y-73929175D01*
X174053833Y-74361475D01*
X174617964Y-74595723D01*
X175228796Y-74596256D01*
X175793335Y-74362993D01*
X176225635Y-73931447D01*
X176459883Y-73367316D01*
X176460416Y-72756484D01*
X176227153Y-72191945D01*
X175795607Y-71759645D01*
X175231476Y-71525397D01*
X174620644Y-71524864D01*
X174056105Y-71758127D01*
X173623805Y-72189673D01*
X173389557Y-72753804D01*
X173389024Y-73364636D01*
X151981910Y-73364636D01*
X151981910Y-72414130D01*
X151937632Y-72178813D01*
X151798560Y-71962689D01*
X151669454Y-71874475D01*
X151787181Y-71798720D01*
X151932171Y-71586520D01*
X151983180Y-71334630D01*
X151983180Y-70285610D01*
X151938902Y-70050293D01*
X151880768Y-69959951D01*
X151932171Y-69884720D01*
X151983180Y-69632830D01*
X151983180Y-68583810D01*
X151938902Y-68348493D01*
X151799830Y-68132369D01*
X151587630Y-67987379D01*
X151335740Y-67936370D01*
X149776180Y-67936370D01*
X149540863Y-67980648D01*
X149324739Y-68119720D01*
X149185639Y-68323300D01*
X148857000Y-68323300D01*
X148556593Y-68383055D01*
X148301921Y-68553221D01*
X147461595Y-69393547D01*
X147451433Y-69393538D01*
X147107657Y-69535583D01*
X146844408Y-69798373D01*
X146701762Y-70141901D01*
X146701438Y-70513867D01*
X146843483Y-70857643D01*
X146851600Y-70865774D01*
X146851600Y-76369942D01*
X144383621Y-78837921D01*
X144213455Y-79092593D01*
X144162481Y-79348855D01*
X144153700Y-79393000D01*
X144153700Y-82232478D01*
X144040235Y-82156663D01*
X143510000Y-82051193D01*
X142979765Y-82156663D01*
X142530254Y-82457017D01*
X142240000Y-82891412D01*
X141949746Y-82457017D01*
X141500235Y-82156663D01*
X140970000Y-82051193D01*
X140485000Y-82147665D01*
X140485000Y-73370213D01*
X144614392Y-73370213D01*
X144683857Y-73612397D01*
X145207302Y-73799144D01*
X145762368Y-73771362D01*
X146146143Y-73612397D01*
X146215608Y-73370213D01*
X145415000Y-72569605D01*
X144614392Y-73370213D01*
X140485000Y-73370213D01*
X140485000Y-73025005D01*
X140485001Y-73025000D01*
X140425245Y-72724594D01*
X140388165Y-72669100D01*
X140255079Y-72469921D01*
X140255076Y-72469919D01*
X139967460Y-72182302D01*
X144005856Y-72182302D01*
X144033638Y-72737368D01*
X144192603Y-73121143D01*
X144434787Y-73190608D01*
X145235395Y-72390000D01*
X145594605Y-72390000D01*
X146395213Y-73190608D01*
X146637397Y-73121143D01*
X146824144Y-72597698D01*
X146796362Y-72042632D01*
X146637397Y-71658857D01*
X146395213Y-71589392D01*
X145594605Y-72390000D01*
X145235395Y-72390000D01*
X144434787Y-71589392D01*
X144192603Y-71658857D01*
X144005856Y-72182302D01*
X139967460Y-72182302D01*
X139194945Y-71409787D01*
X144614392Y-71409787D01*
X145415000Y-72210395D01*
X146215608Y-71409787D01*
X146146143Y-71167603D01*
X145622698Y-70980856D01*
X145067632Y-71008638D01*
X144683857Y-71167603D01*
X144614392Y-71409787D01*
X139194945Y-71409787D01*
X135379557Y-67594399D01*
X135381757Y-67589100D01*
X135381759Y-67586661D01*
X144017758Y-67586661D01*
X144229990Y-68100303D01*
X144622630Y-68493629D01*
X145135900Y-68706757D01*
X145691661Y-68707242D01*
X146205303Y-68495010D01*
X146598629Y-68102370D01*
X146811757Y-67589100D01*
X146812242Y-67033339D01*
X146809194Y-67025963D01*
X146859167Y-66975990D01*
X149141180Y-66975990D01*
X149141180Y-67341059D01*
X149237853Y-67574448D01*
X149416481Y-67753077D01*
X149649870Y-67849750D01*
X150270210Y-67849750D01*
X150428960Y-67691000D01*
X150428960Y-66817240D01*
X150682960Y-66817240D01*
X150682960Y-67691000D01*
X150841710Y-67849750D01*
X151462050Y-67849750D01*
X151695439Y-67753077D01*
X151874067Y-67574448D01*
X151970740Y-67341059D01*
X151970740Y-66975990D01*
X151811990Y-66817240D01*
X150682960Y-66817240D01*
X150428960Y-66817240D01*
X149299930Y-66817240D01*
X149141180Y-66975990D01*
X146859167Y-66975990D01*
X147795736Y-66039421D01*
X149141180Y-66039421D01*
X149141180Y-66404490D01*
X149299930Y-66563240D01*
X150428960Y-66563240D01*
X150428960Y-65689480D01*
X150682960Y-65689480D01*
X150682960Y-66563240D01*
X151811990Y-66563240D01*
X151970740Y-66404490D01*
X151970740Y-66039421D01*
X151874067Y-65806032D01*
X151695439Y-65627403D01*
X151462050Y-65530730D01*
X150841710Y-65530730D01*
X150682960Y-65689480D01*
X150428960Y-65689480D01*
X150270210Y-65530730D01*
X149649870Y-65530730D01*
X149416481Y-65627403D01*
X149237853Y-65806032D01*
X149141180Y-66039421D01*
X147795736Y-66039421D01*
X148861857Y-64973300D01*
X149189191Y-64973300D01*
X149312090Y-65164291D01*
X149524290Y-65309281D01*
X149776180Y-65360290D01*
X151335740Y-65360290D01*
X151571057Y-65316012D01*
X151787181Y-65176940D01*
X151932171Y-64964740D01*
X151983180Y-64712850D01*
X151983180Y-63663830D01*
X151938902Y-63428513D01*
X151799830Y-63212389D01*
X151587630Y-63067399D01*
X151335740Y-63016390D01*
X149776180Y-63016390D01*
X149540863Y-63060668D01*
X149324739Y-63199740D01*
X149185652Y-63403300D01*
X148536700Y-63403300D01*
X148236294Y-63463055D01*
X147981621Y-63633221D01*
X147981619Y-63633224D01*
X145699399Y-65915443D01*
X145694100Y-65913243D01*
X145138339Y-65912758D01*
X144624697Y-66124990D01*
X144231371Y-66517630D01*
X144018243Y-67030900D01*
X144017758Y-67586661D01*
X135381759Y-67586661D01*
X135382242Y-67033339D01*
X135170010Y-66519697D01*
X134777370Y-66126371D01*
X134264100Y-65913243D01*
X133708339Y-65912758D01*
X133627800Y-65946036D01*
X133627800Y-62201887D01*
X138265000Y-62201887D01*
X138265000Y-62258113D01*
X138374233Y-62807264D01*
X138685302Y-63272811D01*
X139150849Y-63583880D01*
X139700000Y-63693113D01*
X140249151Y-63583880D01*
X140714698Y-63272811D01*
X141025767Y-62807264D01*
X141135000Y-62258113D01*
X141135000Y-62201887D01*
X141025767Y-61652736D01*
X140876940Y-61430000D01*
X143332560Y-61430000D01*
X143332560Y-63030000D01*
X143376838Y-63265317D01*
X143515910Y-63481441D01*
X143728110Y-63626431D01*
X143980000Y-63677440D01*
X145580000Y-63677440D01*
X145815317Y-63633162D01*
X146031441Y-63494090D01*
X146176431Y-63281890D01*
X146227440Y-63030000D01*
X146227440Y-63015000D01*
X148884900Y-63015000D01*
X149185307Y-62955245D01*
X149439979Y-62785079D01*
X149459444Y-62765614D01*
X149524290Y-62809921D01*
X149776180Y-62860930D01*
X151335740Y-62860930D01*
X151571057Y-62816652D01*
X151787181Y-62677580D01*
X151932171Y-62465380D01*
X151983180Y-62213490D01*
X151983180Y-61164470D01*
X151938902Y-60929153D01*
X151799830Y-60713029D01*
X151587630Y-60568039D01*
X151335740Y-60517030D01*
X149776180Y-60517030D01*
X149540863Y-60561308D01*
X149324739Y-60700380D01*
X149179749Y-60912580D01*
X149171228Y-60954658D01*
X149125494Y-60963755D01*
X148870821Y-61133921D01*
X148870819Y-61133924D01*
X148559742Y-61445000D01*
X146227440Y-61445000D01*
X146227440Y-61430000D01*
X146183162Y-61194683D01*
X146044090Y-60978559D01*
X145831890Y-60833569D01*
X145580000Y-60782560D01*
X143980000Y-60782560D01*
X143744683Y-60826838D01*
X143528559Y-60965910D01*
X143383569Y-61178110D01*
X143332560Y-61430000D01*
X140876940Y-61430000D01*
X140714698Y-61187189D01*
X140249151Y-60876120D01*
X139700000Y-60766887D01*
X139150849Y-60876120D01*
X138685302Y-61187189D01*
X138374233Y-61652736D01*
X138265000Y-62201887D01*
X133627800Y-62201887D01*
X133627800Y-56156661D01*
X133857758Y-56156661D01*
X134069990Y-56670303D01*
X134462630Y-57063629D01*
X134470000Y-57066689D01*
X134470000Y-58502799D01*
X134464697Y-58504990D01*
X134071371Y-58897630D01*
X133858243Y-59410900D01*
X133857758Y-59966661D01*
X134069990Y-60480303D01*
X134462630Y-60873629D01*
X134975900Y-61086757D01*
X135531661Y-61087242D01*
X136045303Y-60875010D01*
X136438629Y-60482370D01*
X136651757Y-59969100D01*
X136652187Y-59475370D01*
X149141180Y-59475370D01*
X149141180Y-59840439D01*
X149237853Y-60073828D01*
X149416481Y-60252457D01*
X149649870Y-60349130D01*
X150270210Y-60349130D01*
X150428960Y-60190380D01*
X150428960Y-59316620D01*
X150682960Y-59316620D01*
X150682960Y-60190380D01*
X150841710Y-60349130D01*
X151462050Y-60349130D01*
X151695439Y-60252457D01*
X151874067Y-60073828D01*
X151970740Y-59840439D01*
X151970740Y-59475370D01*
X151811990Y-59316620D01*
X150682960Y-59316620D01*
X150428960Y-59316620D01*
X149299930Y-59316620D01*
X149141180Y-59475370D01*
X136652187Y-59475370D01*
X136652242Y-59413339D01*
X136440010Y-58899697D01*
X136047370Y-58506371D01*
X136040000Y-58503311D01*
X136040000Y-58350100D01*
X149219343Y-58350100D01*
X149141180Y-58538801D01*
X149141180Y-58903870D01*
X149299930Y-59062620D01*
X150428960Y-59062620D01*
X150428960Y-59042620D01*
X150682960Y-59042620D01*
X150682960Y-59062620D01*
X151811990Y-59062620D01*
X151970740Y-58903870D01*
X151970740Y-58538801D01*
X151874067Y-58305412D01*
X151695439Y-58126783D01*
X151462050Y-58030110D01*
X151171261Y-58030110D01*
X151281245Y-57865506D01*
X151281901Y-57862210D01*
X151335740Y-57862210D01*
X151571057Y-57817932D01*
X151787181Y-57678860D01*
X151932171Y-57466660D01*
X151983180Y-57214770D01*
X151983180Y-56165750D01*
X151938902Y-55930433D01*
X151799830Y-55714309D01*
X151587630Y-55569319D01*
X151335740Y-55518310D01*
X149776180Y-55518310D01*
X149540863Y-55562588D01*
X149324739Y-55701660D01*
X149179749Y-55913860D01*
X149128740Y-56165750D01*
X149128740Y-56780100D01*
X136330711Y-56780100D01*
X136438629Y-56672370D01*
X136651757Y-56159100D01*
X136652242Y-55603339D01*
X136440010Y-55089697D01*
X136047370Y-54696371D01*
X135534100Y-54483243D01*
X134978339Y-54482758D01*
X134464697Y-54694990D01*
X134071371Y-55087630D01*
X133858243Y-55600900D01*
X133857758Y-56156661D01*
X133627800Y-56156661D01*
X133627800Y-53810000D01*
X138252560Y-53810000D01*
X138252560Y-55410000D01*
X138296838Y-55645317D01*
X138435910Y-55861441D01*
X138648110Y-56006431D01*
X138900000Y-56057440D01*
X140500000Y-56057440D01*
X140735317Y-56013162D01*
X140951441Y-55874090D01*
X141096431Y-55661890D01*
X141147440Y-55410000D01*
X141147440Y-54581887D01*
X143345000Y-54581887D01*
X143345000Y-54638113D01*
X143454233Y-55187264D01*
X143765302Y-55652811D01*
X144230849Y-55963880D01*
X144780000Y-56073113D01*
X145329151Y-55963880D01*
X145794698Y-55652811D01*
X146105767Y-55187264D01*
X146215000Y-54638113D01*
X146215000Y-54581887D01*
X146105767Y-54032736D01*
X145794698Y-53567189D01*
X145329151Y-53256120D01*
X144780000Y-53146887D01*
X144230849Y-53256120D01*
X143765302Y-53567189D01*
X143454233Y-54032736D01*
X143345000Y-54581887D01*
X141147440Y-54581887D01*
X141147440Y-53810000D01*
X141103162Y-53574683D01*
X140964090Y-53358559D01*
X140751890Y-53213569D01*
X140500000Y-53162560D01*
X138900000Y-53162560D01*
X138664683Y-53206838D01*
X138448559Y-53345910D01*
X138303569Y-53558110D01*
X138252560Y-53810000D01*
X133627800Y-53810000D01*
X133627800Y-53537358D01*
X134970601Y-52194557D01*
X134975900Y-52196757D01*
X135531661Y-52197242D01*
X136045303Y-51985010D01*
X136438629Y-51592370D01*
X136651757Y-51079100D01*
X136652242Y-50523339D01*
X136440010Y-50009697D01*
X136047370Y-49616371D01*
X135534100Y-49403243D01*
X134978339Y-49402758D01*
X134464697Y-49614990D01*
X134071371Y-50007630D01*
X133858243Y-50520900D01*
X133857758Y-51076661D01*
X133860805Y-51084037D01*
X132287721Y-52657121D01*
X132117555Y-52911793D01*
X132117555Y-52911794D01*
X132057800Y-53212200D01*
X132057800Y-69046300D01*
X132117555Y-69346707D01*
X132287721Y-69601379D01*
X133687649Y-71001307D01*
X133194697Y-71204990D01*
X132801371Y-71597630D01*
X132588243Y-72110900D01*
X132587758Y-72666661D01*
X132799990Y-73180303D01*
X133192630Y-73573629D01*
X133705900Y-73786757D01*
X134261661Y-73787242D01*
X134775303Y-73575010D01*
X135168629Y-73182370D01*
X135374036Y-72687694D01*
X136375000Y-73688658D01*
X136375000Y-82147665D01*
X135890000Y-82051193D01*
X135405000Y-82147665D01*
X135405000Y-76924500D01*
X135345245Y-76624094D01*
X135175079Y-76369421D01*
X129572631Y-70766973D01*
X129831042Y-70380235D01*
X129936512Y-69850000D01*
X129831042Y-69319765D01*
X129530688Y-68870254D01*
X129081177Y-68569900D01*
X128550942Y-68464430D01*
X127989058Y-68464430D01*
X127458823Y-68569900D01*
X127009312Y-68870254D01*
X126777197Y-69217639D01*
X124610000Y-67050442D01*
X124610000Y-60877201D01*
X124615303Y-60875010D01*
X125008629Y-60482370D01*
X125221757Y-59969100D01*
X125222242Y-59413339D01*
X125010010Y-58899697D01*
X124617370Y-58506371D01*
X124104100Y-58293243D01*
X123548339Y-58292758D01*
X123034697Y-58504990D01*
X122641371Y-58897630D01*
X122428243Y-59410900D01*
X122427758Y-59966661D01*
X122639990Y-60480303D01*
X123032630Y-60873629D01*
X123040000Y-60876689D01*
X123040000Y-67050442D01*
X121244042Y-68846400D01*
X121297032Y-68580000D01*
X121191605Y-68049983D01*
X120891375Y-67600657D01*
X120442049Y-67300427D01*
X119912032Y-67195000D01*
X119347968Y-67195000D01*
X118817951Y-67300427D01*
X118368625Y-67600657D01*
X118232593Y-67804243D01*
X118193162Y-67594683D01*
X118054090Y-67378559D01*
X117841890Y-67233569D01*
X117590000Y-67182560D01*
X115590000Y-67182560D01*
X115354683Y-67226838D01*
X115138559Y-67365910D01*
X114993569Y-67578110D01*
X114942560Y-67830000D01*
X114942560Y-69330000D01*
X114986838Y-69565317D01*
X115125910Y-69781441D01*
X115338110Y-69926431D01*
X115576874Y-69974782D01*
X115328625Y-70140657D01*
X115028395Y-70589983D01*
X114922968Y-71120000D01*
X115028395Y-71650017D01*
X115328625Y-72099343D01*
X115763624Y-72390000D01*
X115328625Y-72680657D01*
X115028395Y-73129983D01*
X114922968Y-73660000D01*
X115028395Y-74190017D01*
X115328625Y-74639343D01*
X115777951Y-74939573D01*
X116307968Y-75045000D01*
X116872032Y-75045000D01*
X117402049Y-74939573D01*
X117851375Y-74639343D01*
X118126865Y-74227043D01*
X118327264Y-74576894D01*
X118758279Y-74909964D01*
X119283945Y-75052739D01*
X119503000Y-74891868D01*
X119503000Y-73787000D01*
X119757000Y-73787000D01*
X119757000Y-74891868D01*
X119976055Y-75052739D01*
X120501721Y-74909964D01*
X120932736Y-74576894D01*
X121203481Y-74104235D01*
X121222318Y-74001185D01*
X121099656Y-73787000D01*
X119757000Y-73787000D01*
X119503000Y-73787000D01*
X119483000Y-73787000D01*
X119483000Y-73533000D01*
X119503000Y-73533000D01*
X119503000Y-73513000D01*
X119757000Y-73513000D01*
X119757000Y-73533000D01*
X121099656Y-73533000D01*
X121222318Y-73318815D01*
X121203481Y-73215765D01*
X120932736Y-72743106D01*
X120501721Y-72410036D01*
X120448161Y-72395489D01*
X120891375Y-72099343D01*
X121191605Y-71650017D01*
X121297032Y-71120000D01*
X121232282Y-70794479D01*
X121481307Y-70744945D01*
X121735979Y-70574779D01*
X123825000Y-68485758D01*
X126905244Y-71566002D01*
X126708958Y-71859765D01*
X126603488Y-72390000D01*
X126708958Y-72920235D01*
X126897674Y-73202668D01*
X117605821Y-82494521D01*
X117435655Y-82749193D01*
X117408641Y-82885000D01*
X117375900Y-83049600D01*
X117375900Y-86763310D01*
X113330000Y-82717410D01*
X113330000Y-82320565D01*
X113578629Y-82072370D01*
X113791757Y-81559100D01*
X113792242Y-81003339D01*
X113580010Y-80489697D01*
X113187370Y-80096371D01*
X112674100Y-79883243D01*
X112118339Y-79882758D01*
X111604697Y-80094990D01*
X111211371Y-80487630D01*
X110998243Y-81000900D01*
X110997758Y-81556661D01*
X108635000Y-81556661D01*
X108635000Y-60046892D01*
X114128514Y-60046892D01*
X114374817Y-60571358D01*
X114803076Y-60961645D01*
X115213110Y-61131476D01*
X115443000Y-61010155D01*
X115443000Y-59817000D01*
X114249181Y-59817000D01*
X114128514Y-60046892D01*
X108635000Y-60046892D01*
X108635000Y-59333108D01*
X114128514Y-59333108D01*
X114249181Y-59563000D01*
X115443000Y-59563000D01*
X115443000Y-58369845D01*
X115697000Y-58369845D01*
X115697000Y-59563000D01*
X115717000Y-59563000D01*
X115717000Y-59817000D01*
X115697000Y-59817000D01*
X115697000Y-61010155D01*
X115926890Y-61131476D01*
X116336924Y-60961645D01*
X116639937Y-60685499D01*
X116656838Y-60775317D01*
X116795910Y-60991441D01*
X117008110Y-61136431D01*
X117260000Y-61187440D01*
X118960000Y-61187440D01*
X119195317Y-61143162D01*
X119411441Y-61004090D01*
X119556431Y-60791890D01*
X119607440Y-60540000D01*
X119607440Y-58840000D01*
X119563162Y-58604683D01*
X119424090Y-58388559D01*
X119211890Y-58243569D01*
X118960000Y-58192560D01*
X117260000Y-58192560D01*
X117024683Y-58236838D01*
X116808559Y-58375910D01*
X116663569Y-58588110D01*
X116641699Y-58696107D01*
X116336924Y-58418355D01*
X115926890Y-58248524D01*
X115697000Y-58369845D01*
X115443000Y-58369845D01*
X115213110Y-58248524D01*
X114803076Y-58418355D01*
X114374817Y-58808642D01*
X114128514Y-59333108D01*
X108635000Y-59333108D01*
X108635000Y-56860213D01*
X123024392Y-56860213D01*
X123093857Y-57102397D01*
X123617302Y-57289144D01*
X124172368Y-57261362D01*
X124556143Y-57102397D01*
X124625608Y-56860213D01*
X123825000Y-56059605D01*
X123024392Y-56860213D01*
X108635000Y-56860213D01*
X108635000Y-55672302D01*
X122415856Y-55672302D01*
X122443638Y-56227368D01*
X122602603Y-56611143D01*
X122844787Y-56680608D01*
X123645395Y-55880000D01*
X124004605Y-55880000D01*
X124805213Y-56680608D01*
X125047397Y-56611143D01*
X125234144Y-56087698D01*
X125206362Y-55532632D01*
X125047397Y-55148857D01*
X124805213Y-55079392D01*
X124004605Y-55880000D01*
X123645395Y-55880000D01*
X122844787Y-55079392D01*
X122602603Y-55148857D01*
X122415856Y-55672302D01*
X108635000Y-55672302D01*
X108635000Y-54899787D01*
X123024392Y-54899787D01*
X123825000Y-55700395D01*
X124625608Y-54899787D01*
X124556143Y-54657603D01*
X124032698Y-54470856D01*
X123477632Y-54498638D01*
X123093857Y-54657603D01*
X123024392Y-54899787D01*
X108635000Y-54899787D01*
X108635000Y-46700213D01*
X134454392Y-46700213D01*
X134523857Y-46942397D01*
X135047302Y-47129144D01*
X135602368Y-47101362D01*
X135986143Y-46942397D01*
X136055608Y-46700213D01*
X135255000Y-45899605D01*
X134454392Y-46700213D01*
X108635000Y-46700213D01*
X108635000Y-45512302D01*
X133845856Y-45512302D01*
X133873638Y-46067368D01*
X134032603Y-46451143D01*
X134274787Y-46520608D01*
X135075395Y-45720000D01*
X135434605Y-45720000D01*
X136235213Y-46520608D01*
X136477397Y-46451143D01*
X136639540Y-45996661D01*
X145287758Y-45996661D01*
X145499990Y-46510303D01*
X145892630Y-46903629D01*
X145900000Y-46906689D01*
X145900000Y-49612799D01*
X145894697Y-49614990D01*
X145501371Y-50007630D01*
X145288243Y-50520900D01*
X145287758Y-51076661D01*
X145499990Y-51590303D01*
X145892630Y-51983629D01*
X146405900Y-52196757D01*
X146961661Y-52197242D01*
X146969037Y-52194195D01*
X148640900Y-53866058D01*
X148640900Y-54188400D01*
X148700655Y-54488806D01*
X148870821Y-54743479D01*
X149125494Y-54913645D01*
X149168114Y-54922123D01*
X149173018Y-54948187D01*
X149312090Y-55164311D01*
X149524290Y-55309301D01*
X149776180Y-55360310D01*
X151335740Y-55360310D01*
X151571057Y-55316032D01*
X151787181Y-55176960D01*
X151932171Y-54964760D01*
X151983180Y-54712870D01*
X151983180Y-53663850D01*
X151938902Y-53428533D01*
X151799830Y-53212409D01*
X151587630Y-53067419D01*
X151335740Y-53016410D01*
X150001418Y-53016410D01*
X149980979Y-52985821D01*
X149856108Y-52860950D01*
X151335740Y-52860950D01*
X151571057Y-52816672D01*
X151787181Y-52677600D01*
X151932171Y-52465400D01*
X151983180Y-52213510D01*
X151983180Y-51164490D01*
X151938902Y-50929173D01*
X151799830Y-50713049D01*
X151587630Y-50568059D01*
X151335740Y-50517050D01*
X149776180Y-50517050D01*
X149540863Y-50561328D01*
X149324739Y-50700400D01*
X149179749Y-50912600D01*
X149128740Y-51164490D01*
X149128740Y-52133582D01*
X148079557Y-51084399D01*
X148081757Y-51079100D01*
X148082242Y-50523339D01*
X147870010Y-50009697D01*
X147477370Y-49616371D01*
X147470000Y-49613311D01*
X147470000Y-49113968D01*
X173639258Y-49113968D01*
X173834512Y-49586519D01*
X174195740Y-49948378D01*
X174667948Y-50144456D01*
X175179248Y-50144902D01*
X175651799Y-49949648D01*
X176013658Y-49588420D01*
X176209736Y-49116212D01*
X176210182Y-48604912D01*
X176014928Y-48132361D01*
X175653700Y-47770502D01*
X175181492Y-47574424D01*
X174670192Y-47573978D01*
X174197641Y-47769232D01*
X173835782Y-48130460D01*
X173639704Y-48602668D01*
X173639258Y-49113968D01*
X147470000Y-49113968D01*
X147470000Y-46907201D01*
X147475303Y-46905010D01*
X147868629Y-46512370D01*
X148081757Y-45999100D01*
X148082242Y-45443339D01*
X148006596Y-45260260D01*
X153926800Y-45260260D01*
X153926800Y-47160180D01*
X153971078Y-47395497D01*
X154110150Y-47611621D01*
X154322350Y-47756611D01*
X154574240Y-47807620D01*
X156474160Y-47807620D01*
X156709477Y-47763342D01*
X156925601Y-47624270D01*
X157070591Y-47412070D01*
X157121600Y-47160180D01*
X157121600Y-45260260D01*
X169377620Y-45260260D01*
X169377620Y-47160180D01*
X169421898Y-47395497D01*
X169560970Y-47611621D01*
X169773170Y-47756611D01*
X170025060Y-47807620D01*
X171924980Y-47807620D01*
X172160297Y-47763342D01*
X172376421Y-47624270D01*
X172521411Y-47412070D01*
X172572420Y-47160180D01*
X172572420Y-45260260D01*
X172528142Y-45024943D01*
X172389070Y-44808819D01*
X172176870Y-44663829D01*
X171924980Y-44612820D01*
X170025060Y-44612820D01*
X169789743Y-44657098D01*
X169573619Y-44796170D01*
X169428629Y-45008370D01*
X169377620Y-45260260D01*
X157121600Y-45260260D01*
X157077322Y-45024943D01*
X156938250Y-44808819D01*
X156726050Y-44663829D01*
X156474160Y-44612820D01*
X154574240Y-44612820D01*
X154338923Y-44657098D01*
X154122799Y-44796170D01*
X153977809Y-45008370D01*
X153926800Y-45260260D01*
X148006596Y-45260260D01*
X147870010Y-44929697D01*
X147477370Y-44536371D01*
X146964100Y-44323243D01*
X146408339Y-44322758D01*
X145894697Y-44534990D01*
X145501371Y-44927630D01*
X145288243Y-45440900D01*
X145287758Y-45996661D01*
X136639540Y-45996661D01*
X136664144Y-45927698D01*
X136636362Y-45372632D01*
X136477397Y-44988857D01*
X136235213Y-44919392D01*
X135434605Y-45720000D01*
X135075395Y-45720000D01*
X134274787Y-44919392D01*
X134032603Y-44988857D01*
X133845856Y-45512302D01*
X108635000Y-45512302D01*
X108635000Y-44739787D01*
X134454392Y-44739787D01*
X135255000Y-45540395D01*
X136055608Y-44739787D01*
X135986143Y-44497603D01*
X135462698Y-44310856D01*
X134907632Y-44338638D01*
X134523857Y-44497603D01*
X134454392Y-44739787D01*
X108635000Y-44739787D01*
X108635000Y-42595000D01*
X183465000Y-42595000D01*
X183465000Y-139015000D01*
X183465000Y-139015000D01*
G37*
X183465000Y-139015000D02*
X108635000Y-139015000D01*
X108635000Y-135633795D01*
X116474716Y-135633795D01*
X116723106Y-136234943D01*
X117182637Y-136695278D01*
X117783352Y-136944716D01*
X118433795Y-136945284D01*
X119034943Y-136696894D01*
X119495278Y-136237363D01*
X119744716Y-135636648D01*
X119744718Y-135633795D01*
X122974716Y-135633795D01*
X123223106Y-136234943D01*
X123682637Y-136695278D01*
X124283352Y-136944716D01*
X124933795Y-136945284D01*
X125534943Y-136696894D01*
X125995278Y-136237363D01*
X126244716Y-135636648D01*
X126245284Y-134986205D01*
X125996894Y-134385057D01*
X125537363Y-133924722D01*
X124936648Y-133675284D01*
X124286205Y-133674716D01*
X123685057Y-133923106D01*
X123224722Y-134382637D01*
X122975284Y-134983352D01*
X122974716Y-135633795D01*
X119744718Y-135633795D01*
X119745284Y-134986205D01*
X119496894Y-134385057D01*
X119037363Y-133924722D01*
X118436648Y-133675284D01*
X117786205Y-133674716D01*
X117185057Y-133923106D01*
X116724722Y-134382637D01*
X116475284Y-134983352D01*
X116474716Y-135633795D01*
X108635000Y-135633795D01*
X108635000Y-134321930D01*
X113507675Y-134321930D01*
X113575735Y-134562931D01*
X114095034Y-134747767D01*
X114645538Y-134719805D01*
X115024265Y-134562931D01*
X115092325Y-134321930D01*
X114300000Y-133529605D01*
X113507675Y-134321930D01*
X108635000Y-134321930D01*
X108635000Y-133145034D01*
X112902233Y-133145034D01*
X112930195Y-133695538D01*
X113087069Y-134074265D01*
X113328070Y-134142325D01*
X114120395Y-133350000D01*
X114479605Y-133350000D01*
X115271930Y-134142325D01*
X115512931Y-134074265D01*
X115697767Y-133554966D01*
X115669805Y-133004462D01*
X115512931Y-132625735D01*
X115271930Y-132557675D01*
X114479605Y-133350000D01*
X114120395Y-133350000D01*
X113328070Y-132557675D01*
X113087069Y-132625735D01*
X112902233Y-133145034D01*
X108635000Y-133145034D01*
X108635000Y-131084398D01*
X112914190Y-131084398D01*
X113124686Y-131593837D01*
X113514113Y-131983944D01*
X113729496Y-132073379D01*
X113575735Y-132137069D01*
X113507675Y-132378070D01*
X114300000Y-133170395D01*
X115092325Y-132378070D01*
X115024265Y-132137069D01*
X114858960Y-132078231D01*
X115083837Y-131985314D01*
X115106658Y-131962532D01*
X117137073Y-131962532D01*
X117235736Y-132229387D01*
X117845461Y-132455908D01*
X118495460Y-132431856D01*
X118984264Y-132229387D01*
X119082927Y-131962532D01*
X123637073Y-131962532D01*
X123735736Y-132229387D01*
X124345461Y-132455908D01*
X124995460Y-132431856D01*
X125484264Y-132229387D01*
X125582927Y-131962532D01*
X124610000Y-130989605D01*
X123637073Y-131962532D01*
X119082927Y-131962532D01*
X118110000Y-130989605D01*
X117137073Y-131962532D01*
X115106658Y-131962532D01*
X115473944Y-131595887D01*
X115685329Y-131086816D01*
X115685801Y-130545461D01*
X116464092Y-130545461D01*
X116488144Y-131195460D01*
X116690613Y-131684264D01*
X116957468Y-131782927D01*
X117930395Y-130810000D01*
X118289605Y-130810000D01*
X119262532Y-131782927D01*
X119529387Y-131684264D01*
X119755908Y-131074539D01*
X119736331Y-130545461D01*
X122964092Y-130545461D01*
X122988144Y-131195460D01*
X123190613Y-131684264D01*
X123457468Y-131782927D01*
X124430395Y-130810000D01*
X124789605Y-130810000D01*
X125762532Y-131782927D01*
X126029387Y-131684264D01*
X126255908Y-131074539D01*
X126231856Y-130424540D01*
X126029387Y-129935736D01*
X125762532Y-129837073D01*
X124789605Y-130810000D01*
X124430395Y-130810000D01*
X123457468Y-129837073D01*
X123190613Y-129935736D01*
X122964092Y-130545461D01*
X119736331Y-130545461D01*
X119731856Y-130424540D01*
X119529387Y-129935736D01*
X119262532Y-129837073D01*
X118289605Y-130810000D01*
X117930395Y-130810000D01*
X116957468Y-129837073D01*
X116690613Y-129935736D01*
X116464092Y-130545461D01*
X115685801Y-130545461D01*
X115685810Y-130535602D01*
X115475314Y-130026163D01*
X115235000Y-129785429D01*
X115235000Y-129657468D01*
X117137073Y-129657468D01*
X118110000Y-130630395D01*
X119082927Y-129657468D01*
X123637073Y-129657468D01*
X124610000Y-130630395D01*
X125582927Y-129657468D01*
X125484264Y-129390613D01*
X124874539Y-129164092D01*
X124224540Y-129188144D01*
X123735736Y-129390613D01*
X123637073Y-129657468D01*
X119082927Y-129657468D01*
X118984264Y-129390613D01*
X118374539Y-129164092D01*
X117724540Y-129188144D01*
X117235736Y-129390613D01*
X117137073Y-129657468D01*
X115235000Y-129657468D01*
X115235000Y-126344708D01*
X115943305Y-126345326D01*
X116636372Y-126058957D01*
X117167093Y-125529161D01*
X117454672Y-124836595D01*
X117455326Y-124086695D01*
X117168957Y-123393628D01*
X116985650Y-123210000D01*
X121292560Y-123210000D01*
X121292560Y-125710000D01*
X121336838Y-125945317D01*
X121475910Y-126161441D01*
X121688110Y-126306431D01*
X121940000Y-126357440D01*
X124440000Y-126357440D01*
X124675317Y-126313162D01*
X124891441Y-126174090D01*
X125036431Y-125961890D01*
X125087440Y-125710000D01*
X125087440Y-123210000D01*
X125043162Y-122974683D01*
X124904090Y-122758559D01*
X124691890Y-122613569D01*
X124440000Y-122562560D01*
X121940000Y-122562560D01*
X121704683Y-122606838D01*
X121488559Y-122745910D01*
X121343569Y-122958110D01*
X121292560Y-123210000D01*
X116985650Y-123210000D01*
X116639161Y-122862907D01*
X115946595Y-122575328D01*
X115196695Y-122574674D01*
X114503628Y-122861043D01*
X113972907Y-123390839D01*
X113685328Y-124083405D01*
X113684674Y-124833305D01*
X113740148Y-124967562D01*
X113638855Y-125068855D01*
X113436173Y-125372191D01*
X113365000Y-125730000D01*
X113365000Y-129785586D01*
X113126056Y-130024113D01*
X112914671Y-130533184D01*
X112914190Y-131084398D01*
X108635000Y-131084398D01*
X108635000Y-109593305D01*
X113684674Y-109593305D01*
X113971043Y-110286372D01*
X114500839Y-110817093D01*
X115193405Y-111104672D01*
X115943305Y-111105326D01*
X116636372Y-110818957D01*
X116902472Y-110553320D01*
X122036285Y-110553320D01*
X122165533Y-110846123D01*
X122865806Y-111114388D01*
X123615435Y-111094250D01*
X124214467Y-110846123D01*
X124343715Y-110553320D01*
X123190000Y-109399605D01*
X122036285Y-110553320D01*
X116902472Y-110553320D01*
X117167093Y-110289161D01*
X117454672Y-109596595D01*
X117455283Y-108895806D01*
X121295612Y-108895806D01*
X121315750Y-109645435D01*
X121563877Y-110244467D01*
X121856680Y-110373715D01*
X123010395Y-109220000D01*
X123369605Y-109220000D01*
X124523320Y-110373715D01*
X124816123Y-110244467D01*
X125084388Y-109544194D01*
X125064250Y-108794565D01*
X124816123Y-108195533D01*
X124523320Y-108066285D01*
X123369605Y-109220000D01*
X123010395Y-109220000D01*
X121856680Y-108066285D01*
X121563877Y-108195533D01*
X121295612Y-108895806D01*
X117455283Y-108895806D01*
X117455326Y-108846695D01*
X117168957Y-108153628D01*
X116902475Y-107886680D01*
X122036285Y-107886680D01*
X123190000Y-109040395D01*
X124343715Y-107886680D01*
X124214467Y-107593877D01*
X123514194Y-107325612D01*
X122764565Y-107345750D01*
X122165533Y-107593877D01*
X122036285Y-107886680D01*
X116902475Y-107886680D01*
X116639161Y-107622907D01*
X115946595Y-107335328D01*
X115196695Y-107334674D01*
X114503628Y-107621043D01*
X113972907Y-108150839D01*
X113685328Y-108843405D01*
X113684674Y-109593305D01*
X108635000Y-109593305D01*
X108635000Y-103781661D01*
X124332758Y-103781661D01*
X124544990Y-104295303D01*
X124937630Y-104688629D01*
X125450900Y-104901757D01*
X126006661Y-104902242D01*
X126520303Y-104690010D01*
X126913629Y-104297370D01*
X127126757Y-103784100D01*
X127127242Y-103228339D01*
X126915010Y-102714697D01*
X126522370Y-102321371D01*
X126009100Y-102108243D01*
X125453339Y-102107758D01*
X124939697Y-102319990D01*
X124546371Y-102712630D01*
X124333243Y-103225900D01*
X124332758Y-103781661D01*
X108635000Y-103781661D01*
X108635000Y-81556661D01*
X110997758Y-81556661D01*
X111209990Y-82070303D01*
X111460000Y-82320750D01*
X111460000Y-83104700D01*
X111531173Y-83462509D01*
X111733855Y-83765845D01*
X115489484Y-87521474D01*
X115354683Y-87546838D01*
X115138559Y-87685910D01*
X114993569Y-87898110D01*
X114942560Y-88150000D01*
X114942560Y-89650000D01*
X114986838Y-89885317D01*
X115125910Y-90101441D01*
X115338110Y-90246431D01*
X115576874Y-90294782D01*
X115328625Y-90460657D01*
X115028395Y-90909983D01*
X114922968Y-91440000D01*
X115028395Y-91970017D01*
X115328625Y-92419343D01*
X115763624Y-92710000D01*
X115328625Y-93000657D01*
X115028395Y-93449983D01*
X114922968Y-93980000D01*
X115028395Y-94510017D01*
X115328625Y-94959343D01*
X115763624Y-95250000D01*
X115328625Y-95540657D01*
X115028395Y-95989983D01*
X114922968Y-96520000D01*
X115028395Y-97050017D01*
X115328625Y-97499343D01*
X115763624Y-97790000D01*
X115328625Y-98080657D01*
X115028395Y-98529983D01*
X114922968Y-99060000D01*
X115028395Y-99590017D01*
X115328625Y-100039343D01*
X115777951Y-100339573D01*
X116307968Y-100445000D01*
X116872032Y-100445000D01*
X117402049Y-100339573D01*
X117851375Y-100039343D01*
X118110000Y-99652283D01*
X118368625Y-100039343D01*
X118817951Y-100339573D01*
X119347968Y-100445000D01*
X119912032Y-100445000D01*
X120442049Y-100339573D01*
X120891375Y-100039343D01*
X121191605Y-99590017D01*
X121297032Y-99060000D01*
X121191605Y-98529983D01*
X120891375Y-98080657D01*
X120456376Y-97790000D01*
X120891375Y-97499343D01*
X121191605Y-97050017D01*
X121297032Y-96520000D01*
X121191605Y-95989983D01*
X120891375Y-95540657D01*
X120456376Y-95250000D01*
X120891375Y-94959343D01*
X121191605Y-94510017D01*
X121297032Y-93980000D01*
X121191605Y-93449983D01*
X120891375Y-93000657D01*
X120456376Y-92710000D01*
X120891375Y-92419343D01*
X121191605Y-91970017D01*
X121297032Y-91440000D01*
X121191605Y-90909983D01*
X120891375Y-90460657D01*
X120448161Y-90164511D01*
X120501721Y-90149964D01*
X120932736Y-89816894D01*
X121203481Y-89344235D01*
X121222318Y-89241185D01*
X121099656Y-89027000D01*
X119757000Y-89027000D01*
X119757000Y-89047000D01*
X119503000Y-89047000D01*
X119503000Y-89027000D01*
X119483000Y-89027000D01*
X119483000Y-88773000D01*
X119503000Y-88773000D01*
X119503000Y-87668132D01*
X119757000Y-87668132D01*
X119757000Y-88773000D01*
X121099656Y-88773000D01*
X121222318Y-88558815D01*
X121203481Y-88455765D01*
X120932736Y-87983106D01*
X120501721Y-87650036D01*
X119976055Y-87507261D01*
X119757000Y-87668132D01*
X119503000Y-87668132D01*
X119283945Y-87507261D01*
X118945900Y-87599077D01*
X118945900Y-83374758D01*
X120763997Y-81556661D01*
X122427758Y-81556661D01*
X122639990Y-82070303D01*
X123032630Y-82463629D01*
X123545900Y-82676757D01*
X124101661Y-82677242D01*
X124615303Y-82465010D01*
X125008629Y-82072370D01*
X125221757Y-81559100D01*
X125222242Y-81003339D01*
X125010010Y-80489697D01*
X124617370Y-80096371D01*
X124104100Y-79883243D01*
X123548339Y-79882758D01*
X123034697Y-80094990D01*
X122641371Y-80487630D01*
X122428243Y-81000900D01*
X122427758Y-81556661D01*
X120763997Y-81556661D01*
X126787970Y-75532688D01*
X126967290Y-75846324D01*
X127398167Y-76179841D01*
X127923877Y-76323081D01*
X128143000Y-76162386D01*
X128143000Y-75057000D01*
X128397000Y-75057000D01*
X128397000Y-76162386D01*
X128616123Y-76323081D01*
X129141833Y-76179841D01*
X129572710Y-75846324D01*
X129843157Y-75373305D01*
X129861803Y-75271275D01*
X129739149Y-75057000D01*
X128397000Y-75057000D01*
X128143000Y-75057000D01*
X128123000Y-75057000D01*
X128123000Y-74803000D01*
X128143000Y-74803000D01*
X128143000Y-74783000D01*
X128397000Y-74783000D01*
X128397000Y-74803000D01*
X129739149Y-74803000D01*
X129861803Y-74588725D01*
X129843157Y-74486695D01*
X129572710Y-74013676D01*
X129141833Y-73680159D01*
X129088053Y-73665506D01*
X129530688Y-73369746D01*
X129700679Y-73115337D01*
X133835000Y-77249658D01*
X133835000Y-82147665D01*
X133350000Y-82051193D01*
X132819765Y-82156663D01*
X132370254Y-82457017D01*
X132080000Y-82891412D01*
X131789746Y-82457017D01*
X131340235Y-82156663D01*
X130810000Y-82051193D01*
X130279765Y-82156663D01*
X129830254Y-82457017D01*
X129529900Y-82906528D01*
X129424430Y-83436763D01*
X129424430Y-84203237D01*
X129529900Y-84733472D01*
X129830254Y-85182983D01*
X130279765Y-85483337D01*
X130810000Y-85588807D01*
X131340235Y-85483337D01*
X131789746Y-85182983D01*
X132080000Y-84748588D01*
X132370254Y-85182983D01*
X132819765Y-85483337D01*
X133350000Y-85588807D01*
X133835000Y-85492335D01*
X133835000Y-93199300D01*
X133894755Y-93499707D01*
X134064921Y-93754379D01*
X137784334Y-97473792D01*
X137450254Y-97697017D01*
X137160000Y-98131412D01*
X136869746Y-97697017D01*
X136420235Y-97396663D01*
X135890000Y-97291193D01*
X135359765Y-97396663D01*
X134910254Y-97697017D01*
X134620000Y-98131412D01*
X134329746Y-97697017D01*
X133880235Y-97396663D01*
X133350000Y-97291193D01*
X132819765Y-97396663D01*
X132370254Y-97697017D01*
X132080000Y-98131412D01*
X131789746Y-97697017D01*
X131340235Y-97396663D01*
X130810000Y-97291193D01*
X130294600Y-97393712D01*
X130294600Y-95704605D01*
X130294601Y-95704600D01*
X130223427Y-95346792D01*
X130223427Y-95346791D01*
X130020745Y-95043455D01*
X127126935Y-92149645D01*
X127127242Y-91798339D01*
X126915010Y-91284697D01*
X126522370Y-90891371D01*
X126009100Y-90678243D01*
X125453339Y-90677758D01*
X124939697Y-90889990D01*
X124546371Y-91282630D01*
X124333243Y-91795900D01*
X124332758Y-92351661D01*
X124544990Y-92865303D01*
X124937630Y-93258629D01*
X125450900Y-93471757D01*
X125804776Y-93472066D01*
X128424600Y-96091890D01*
X128424600Y-109120500D01*
X128495773Y-109478309D01*
X128698455Y-109781645D01*
X128797955Y-109881145D01*
X129101291Y-110083827D01*
X129459100Y-110155000D01*
X129544285Y-110155000D01*
X129830254Y-110582983D01*
X129875000Y-110612881D01*
X129875000Y-113143977D01*
X129759946Y-113220853D01*
X129438039Y-113702622D01*
X129325000Y-114270907D01*
X129325000Y-114329093D01*
X129438039Y-114897378D01*
X129759946Y-115379147D01*
X130241715Y-115701054D01*
X130810000Y-115814093D01*
X131378285Y-115701054D01*
X131860054Y-115379147D01*
X132080000Y-115049974D01*
X132299946Y-115379147D01*
X132781715Y-115701054D01*
X133350000Y-115814093D01*
X133918285Y-115701054D01*
X134400054Y-115379147D01*
X134620000Y-115049974D01*
X134839946Y-115379147D01*
X135321715Y-115701054D01*
X135890000Y-115814093D01*
X136458285Y-115701054D01*
X136940054Y-115379147D01*
X137160000Y-115049974D01*
X137379946Y-115379147D01*
X137861715Y-115701054D01*
X138430000Y-115814093D01*
X138998285Y-115701054D01*
X139480054Y-115379147D01*
X139700000Y-115049974D01*
X139919946Y-115379147D01*
X140401715Y-115701054D01*
X140970000Y-115814093D01*
X141538285Y-115701054D01*
X142020054Y-115379147D01*
X142240000Y-115049974D01*
X142459946Y-115379147D01*
X142941715Y-115701054D01*
X143510000Y-115814093D01*
X144078285Y-115701054D01*
X144560054Y-115379147D01*
X144780000Y-115049974D01*
X144999946Y-115379147D01*
X145481715Y-115701054D01*
X146050000Y-115814093D01*
X146618285Y-115701054D01*
X147100054Y-115379147D01*
X147320000Y-115049974D01*
X147539946Y-115379147D01*
X148021715Y-115701054D01*
X148590000Y-115814093D01*
X149158285Y-115701054D01*
X149640054Y-115379147D01*
X149860000Y-115049974D01*
X150079946Y-115379147D01*
X150561715Y-115701054D01*
X151130000Y-115814093D01*
X151698285Y-115701054D01*
X152180054Y-115379147D01*
X152400000Y-115049974D01*
X152619946Y-115379147D01*
X153101715Y-115701054D01*
X153670000Y-115814093D01*
X154238285Y-115701054D01*
X154720054Y-115379147D01*
X154940000Y-115049974D01*
X155159946Y-115379147D01*
X155641715Y-115701054D01*
X156210000Y-115814093D01*
X156778285Y-115701054D01*
X157260054Y-115379147D01*
X157480000Y-115049974D01*
X157699946Y-115379147D01*
X158181715Y-115701054D01*
X158750000Y-115814093D01*
X159318285Y-115701054D01*
X159800054Y-115379147D01*
X160020000Y-115049974D01*
X160239946Y-115379147D01*
X160721715Y-115701054D01*
X161290000Y-115814093D01*
X161858285Y-115701054D01*
X162340054Y-115379147D01*
X162560000Y-115049974D01*
X162779946Y-115379147D01*
X163261715Y-115701054D01*
X163830000Y-115814093D01*
X164261200Y-115728322D01*
X164261200Y-122776964D01*
X163830000Y-122691193D01*
X163299765Y-122796663D01*
X162850254Y-123097017D01*
X162560000Y-123531412D01*
X162269746Y-123097017D01*
X161820235Y-122796663D01*
X161290000Y-122691193D01*
X160759765Y-122796663D01*
X160310254Y-123097017D01*
X160020000Y-123531412D01*
X159729746Y-123097017D01*
X159280235Y-122796663D01*
X158750000Y-122691193D01*
X158219765Y-122796663D01*
X157770254Y-123097017D01*
X157480000Y-123531412D01*
X157189746Y-123097017D01*
X156740235Y-122796663D01*
X156210000Y-122691193D01*
X155679765Y-122796663D01*
X155230254Y-123097017D01*
X154940000Y-123531412D01*
X154649746Y-123097017D01*
X154200235Y-122796663D01*
X153670000Y-122691193D01*
X153139765Y-122796663D01*
X152690254Y-123097017D01*
X152400000Y-123531412D01*
X152109746Y-123097017D01*
X151660235Y-122796663D01*
X151130000Y-122691193D01*
X150599765Y-122796663D01*
X150150254Y-123097017D01*
X149860000Y-123531412D01*
X149569746Y-123097017D01*
X149120235Y-122796663D01*
X148590000Y-122691193D01*
X148059765Y-122796663D01*
X147610254Y-123097017D01*
X147320000Y-123531412D01*
X147029746Y-123097017D01*
X146580235Y-122796663D01*
X146050000Y-122691193D01*
X145519765Y-122796663D01*
X145070254Y-123097017D01*
X144780000Y-123531412D01*
X144489746Y-123097017D01*
X144040235Y-122796663D01*
X143510000Y-122691193D01*
X142979765Y-122796663D01*
X142530254Y-123097017D01*
X142240000Y-123531412D01*
X141949746Y-123097017D01*
X141500235Y-122796663D01*
X140970000Y-122691193D01*
X140439765Y-122796663D01*
X139990254Y-123097017D01*
X139700000Y-123531412D01*
X139409746Y-123097017D01*
X138960235Y-122796663D01*
X138430000Y-122691193D01*
X137899765Y-122796663D01*
X137450254Y-123097017D01*
X137160000Y-123531412D01*
X136869746Y-123097017D01*
X136420235Y-122796663D01*
X135890000Y-122691193D01*
X135359765Y-122796663D01*
X134910254Y-123097017D01*
X134620000Y-123531412D01*
X134329746Y-123097017D01*
X133880235Y-122796663D01*
X133350000Y-122691193D01*
X132819765Y-122796663D01*
X132370254Y-123097017D01*
X132080000Y-123531412D01*
X131789746Y-123097017D01*
X131340235Y-122796663D01*
X130810000Y-122691193D01*
X130279765Y-122796663D01*
X129830254Y-123097017D01*
X129529900Y-123546528D01*
X129424430Y-124076763D01*
X129424430Y-124843237D01*
X129529900Y-125373472D01*
X129830254Y-125822983D01*
X130025000Y-125953108D01*
X130025000Y-128042560D01*
X129960000Y-128042560D01*
X129724683Y-128086838D01*
X129508559Y-128225910D01*
X129363569Y-128438110D01*
X129312560Y-128690000D01*
X129312560Y-130390000D01*
X129356838Y-130625317D01*
X129495910Y-130841441D01*
X129708110Y-130986431D01*
X129960000Y-131037440D01*
X131660000Y-131037440D01*
X131895317Y-130993162D01*
X132111441Y-130854090D01*
X132256431Y-130641890D01*
X132270086Y-130574459D01*
X132299946Y-130619147D01*
X132781715Y-130941054D01*
X133350000Y-131054093D01*
X133918285Y-130941054D01*
X134400054Y-130619147D01*
X134620000Y-130289974D01*
X134839946Y-130619147D01*
X135321715Y-130941054D01*
X135890000Y-131054093D01*
X136458285Y-130941054D01*
X136940054Y-130619147D01*
X137160000Y-130289974D01*
X137379946Y-130619147D01*
X137861715Y-130941054D01*
X138430000Y-131054093D01*
X138998285Y-130941054D01*
X139480054Y-130619147D01*
X139700000Y-130289974D01*
X139919946Y-130619147D01*
X140401715Y-130941054D01*
X140970000Y-131054093D01*
X141538285Y-130941054D01*
X142020054Y-130619147D01*
X142240000Y-130289974D01*
X142459946Y-130619147D01*
X142941715Y-130941054D01*
X143510000Y-131054093D01*
X144078285Y-130941054D01*
X144560054Y-130619147D01*
X144780000Y-130289974D01*
X144999946Y-130619147D01*
X145481715Y-130941054D01*
X146050000Y-131054093D01*
X146618285Y-130941054D01*
X147100054Y-130619147D01*
X147320000Y-130289974D01*
X147539946Y-130619147D01*
X148021715Y-130941054D01*
X148590000Y-131054093D01*
X149158285Y-130941054D01*
X149640054Y-130619147D01*
X149860000Y-130289974D01*
X150079946Y-130619147D01*
X150561715Y-130941054D01*
X151130000Y-131054093D01*
X151698285Y-130941054D01*
X152180054Y-130619147D01*
X152400000Y-130289974D01*
X152619946Y-130619147D01*
X153101715Y-130941054D01*
X153670000Y-131054093D01*
X154238285Y-130941054D01*
X154720054Y-130619147D01*
X154940000Y-130289974D01*
X155159946Y-130619147D01*
X155641715Y-130941054D01*
X156210000Y-131054093D01*
X156778285Y-130941054D01*
X157260054Y-130619147D01*
X157480000Y-130289974D01*
X157699946Y-130619147D01*
X158181715Y-130941054D01*
X158750000Y-131054093D01*
X159318285Y-130941054D01*
X159800054Y-130619147D01*
X160020000Y-130289974D01*
X160239946Y-130619147D01*
X160721715Y-130941054D01*
X161290000Y-131054093D01*
X161858285Y-130941054D01*
X162340054Y-130619147D01*
X162560000Y-130289974D01*
X162779946Y-130619147D01*
X163124963Y-130849680D01*
X161339942Y-132634700D01*
X161290000Y-132634700D01*
X160989594Y-132694455D01*
X160734921Y-132864621D01*
X160564755Y-133119294D01*
X160517835Y-133355174D01*
X160239946Y-133540853D01*
X159918039Y-134022622D01*
X159805000Y-134590907D01*
X159805000Y-134649093D01*
X159918039Y-135217378D01*
X160239946Y-135699147D01*
X160721715Y-136021054D01*
X161290000Y-136134093D01*
X161858285Y-136021054D01*
X162340054Y-135699147D01*
X162367850Y-135657548D01*
X162376838Y-135705317D01*
X162515910Y-135921441D01*
X162728110Y-136066431D01*
X162980000Y-136117440D01*
X164680000Y-136117440D01*
X164915317Y-136073162D01*
X165131441Y-135934090D01*
X165276431Y-135721890D01*
X165327440Y-135470000D01*
X165327440Y-133770000D01*
X165283162Y-133534683D01*
X165144090Y-133318559D01*
X164931890Y-133173569D01*
X164680000Y-133122560D01*
X163072398Y-133122560D01*
X165473325Y-130721632D01*
X165801715Y-130941054D01*
X166370000Y-131054093D01*
X166938285Y-130941054D01*
X167420054Y-130619147D01*
X167640000Y-130289974D01*
X167859946Y-130619147D01*
X168341715Y-130941054D01*
X168910000Y-131054093D01*
X169478285Y-130941054D01*
X169960054Y-130619147D01*
X170180000Y-130289974D01*
X170399946Y-130619147D01*
X170881715Y-130941054D01*
X171450000Y-131054093D01*
X172018285Y-130941054D01*
X172500054Y-130619147D01*
X172720000Y-130289974D01*
X172939946Y-130619147D01*
X173421715Y-130941054D01*
X173990000Y-131054093D01*
X174558285Y-130941054D01*
X175040054Y-130619147D01*
X175260000Y-130289974D01*
X175479946Y-130619147D01*
X175961715Y-130941054D01*
X176530000Y-131054093D01*
X177098285Y-130941054D01*
X177580054Y-130619147D01*
X177800000Y-130289974D01*
X178019946Y-130619147D01*
X178501715Y-130941054D01*
X179070000Y-131054093D01*
X179638285Y-130941054D01*
X180120054Y-130619147D01*
X180441961Y-130137378D01*
X180555000Y-129569093D01*
X180555000Y-129510907D01*
X180441961Y-128942622D01*
X180120054Y-128460853D01*
X179855000Y-128283750D01*
X179855000Y-125953108D01*
X180049746Y-125822983D01*
X180350100Y-125373472D01*
X180455570Y-124843237D01*
X180455570Y-124076763D01*
X180350100Y-123546528D01*
X180049746Y-123097017D01*
X179600235Y-122796663D01*
X179070000Y-122691193D01*
X178539765Y-122796663D01*
X178535000Y-122799847D01*
X178535000Y-115785000D01*
X178784250Y-115785000D01*
X178943000Y-115626250D01*
X178943000Y-114427000D01*
X179197000Y-114427000D01*
X179197000Y-115626250D01*
X179355750Y-115785000D01*
X180046310Y-115785000D01*
X180279699Y-115688327D01*
X180458327Y-115509698D01*
X180555000Y-115276309D01*
X180555000Y-114585750D01*
X180396250Y-114427000D01*
X179197000Y-114427000D01*
X178943000Y-114427000D01*
X178923000Y-114427000D01*
X178923000Y-114173000D01*
X178943000Y-114173000D01*
X178943000Y-112973750D01*
X179197000Y-112973750D01*
X179197000Y-114173000D01*
X180396250Y-114173000D01*
X180555000Y-114014250D01*
X180555000Y-113323691D01*
X180458327Y-113090302D01*
X180279699Y-112911673D01*
X180046310Y-112815000D01*
X179355750Y-112815000D01*
X179197000Y-112973750D01*
X178943000Y-112973750D01*
X178784250Y-112815000D01*
X178535000Y-112815000D01*
X178535000Y-110831621D01*
X178657097Y-110897950D01*
X178728725Y-110912133D01*
X178943000Y-110789479D01*
X178943000Y-109347000D01*
X179197000Y-109347000D01*
X179197000Y-110789479D01*
X179411275Y-110912133D01*
X179482903Y-110897950D01*
X179959944Y-110638798D01*
X180301499Y-110216817D01*
X180455570Y-109696250D01*
X180455570Y-109347000D01*
X179197000Y-109347000D01*
X178943000Y-109347000D01*
X178923000Y-109347000D01*
X178923000Y-109093000D01*
X178943000Y-109093000D01*
X178943000Y-107650521D01*
X179197000Y-107650521D01*
X179197000Y-109093000D01*
X180455570Y-109093000D01*
X180455570Y-108743750D01*
X180301499Y-108223183D01*
X179959944Y-107801202D01*
X179482903Y-107542050D01*
X179411275Y-107527867D01*
X179197000Y-107650521D01*
X178943000Y-107650521D01*
X178728725Y-107527867D01*
X178657097Y-107542050D01*
X178418892Y-107671455D01*
X178305079Y-107501121D01*
X178006900Y-107202942D01*
X178006900Y-106744887D01*
X178155900Y-106806757D01*
X178711661Y-106807242D01*
X179225303Y-106595010D01*
X179618629Y-106202370D01*
X179831757Y-105689100D01*
X179832242Y-105133339D01*
X179620010Y-104619697D01*
X179227370Y-104226371D01*
X178714100Y-104013243D01*
X178158339Y-104012758D01*
X178006900Y-104075331D01*
X178006900Y-104015358D01*
X178185979Y-103836279D01*
X178356145Y-103581607D01*
X178415900Y-103281200D01*
X178415900Y-100640573D01*
X178539765Y-100723337D01*
X179070000Y-100828807D01*
X179600235Y-100723337D01*
X180049746Y-100422983D01*
X180350100Y-99973472D01*
X180455570Y-99443237D01*
X180455570Y-98676763D01*
X180350100Y-98146528D01*
X180049746Y-97697017D01*
X179600235Y-97396663D01*
X179070000Y-97291193D01*
X178539765Y-97396663D01*
X178415900Y-97479427D01*
X178415900Y-85400573D01*
X178539765Y-85483337D01*
X179070000Y-85588807D01*
X179600235Y-85483337D01*
X180049746Y-85182983D01*
X180350100Y-84733472D01*
X180455570Y-84203237D01*
X180455570Y-83436763D01*
X180350100Y-82906528D01*
X180049746Y-82457017D01*
X179600235Y-82156663D01*
X179070000Y-82051193D01*
X178539765Y-82156663D01*
X178090254Y-82457017D01*
X177800000Y-82891412D01*
X177509746Y-82457017D01*
X177060235Y-82156663D01*
X176530000Y-82051193D01*
X175999765Y-82156663D01*
X175550254Y-82457017D01*
X175260000Y-82891412D01*
X174969746Y-82457017D01*
X174520235Y-82156663D01*
X173990000Y-82051193D01*
X173459765Y-82156663D01*
X173010254Y-82457017D01*
X172720000Y-82891412D01*
X172429746Y-82457017D01*
X171980235Y-82156663D01*
X171450000Y-82051193D01*
X170919765Y-82156663D01*
X170470254Y-82457017D01*
X170180000Y-82891412D01*
X169889746Y-82457017D01*
X169440235Y-82156663D01*
X168910000Y-82051193D01*
X168379765Y-82156663D01*
X167930254Y-82457017D01*
X167640000Y-82891412D01*
X167349746Y-82457017D01*
X166900235Y-82156663D01*
X166370000Y-82051193D01*
X165839765Y-82156663D01*
X165390254Y-82457017D01*
X165100000Y-82891412D01*
X164809746Y-82457017D01*
X164360235Y-82156663D01*
X163830000Y-82051193D01*
X163299765Y-82156663D01*
X162850254Y-82457017D01*
X162560000Y-82891412D01*
X162269746Y-82457017D01*
X161820235Y-82156663D01*
X161290000Y-82051193D01*
X160759765Y-82156663D01*
X160310254Y-82457017D01*
X160020000Y-82891412D01*
X159791308Y-82549150D01*
X160575079Y-81765379D01*
X160745245Y-81510706D01*
X160745895Y-81507440D01*
X160870000Y-81507440D01*
X161105317Y-81463162D01*
X161321441Y-81324090D01*
X161466431Y-81111890D01*
X161517440Y-80860000D01*
X161517440Y-79160000D01*
X161473162Y-78924683D01*
X161334090Y-78708559D01*
X161121890Y-78563569D01*
X160870000Y-78512560D01*
X159170000Y-78512560D01*
X158934683Y-78556838D01*
X158718559Y-78695910D01*
X158573569Y-78908110D01*
X158522560Y-79160000D01*
X158522560Y-80860000D01*
X158566838Y-81095317D01*
X158705910Y-81311441D01*
X158766976Y-81353166D01*
X158482041Y-81638101D01*
X158449594Y-81644555D01*
X158194921Y-81814721D01*
X158024755Y-82069394D01*
X157974843Y-82320315D01*
X157770254Y-82457017D01*
X157480000Y-82891412D01*
X157189746Y-82457017D01*
X157145000Y-82427119D01*
X157145000Y-81034414D01*
X157383944Y-80795887D01*
X157595329Y-80286816D01*
X157595810Y-79735602D01*
X157385314Y-79226163D01*
X156995887Y-78836056D01*
X156486816Y-78624671D01*
X155935602Y-78624190D01*
X155426163Y-78834686D01*
X155036056Y-79224113D01*
X154946621Y-79439496D01*
X154882931Y-79285735D01*
X154641930Y-79217675D01*
X153849605Y-80010000D01*
X154641930Y-80802325D01*
X154882931Y-80734265D01*
X154941769Y-80568960D01*
X155034686Y-80793837D01*
X155275000Y-81034571D01*
X155275000Y-82427119D01*
X155230254Y-82457017D01*
X154929900Y-82906528D01*
X154928399Y-82914072D01*
X154901499Y-82823183D01*
X154559944Y-82401202D01*
X154082903Y-82142050D01*
X154011275Y-82127867D01*
X153797000Y-82250521D01*
X153797000Y-83693000D01*
X153817000Y-83693000D01*
X153817000Y-83947000D01*
X153797000Y-83947000D01*
X153797000Y-85389479D01*
X154011275Y-85512133D01*
X154082903Y-85497950D01*
X154559944Y-85238798D01*
X154901499Y-84816817D01*
X154928399Y-84725928D01*
X154929900Y-84733472D01*
X155230254Y-85182983D01*
X155275000Y-85212881D01*
X155275000Y-85520200D01*
X155346173Y-85878009D01*
X155548855Y-86181345D01*
X155559500Y-86191990D01*
X155559500Y-96600884D01*
X155559338Y-96786867D01*
X155701383Y-97130643D01*
X155964173Y-97393892D01*
X156082998Y-97443233D01*
X156082998Y-97490520D01*
X155868725Y-97367867D01*
X155797097Y-97382050D01*
X155320056Y-97641202D01*
X154978501Y-98063183D01*
X154951601Y-98154072D01*
X154950100Y-98146528D01*
X154649746Y-97697017D01*
X154200235Y-97396663D01*
X153670000Y-97291193D01*
X153139765Y-97396663D01*
X153135000Y-97399847D01*
X153135000Y-85431621D01*
X153257097Y-85497950D01*
X153328725Y-85512133D01*
X153543000Y-85389479D01*
X153543000Y-83947000D01*
X153523000Y-83947000D01*
X153523000Y-83693000D01*
X153543000Y-83693000D01*
X153543000Y-82250521D01*
X153328725Y-82127867D01*
X153257097Y-82142050D01*
X152780056Y-82401202D01*
X152772051Y-82411093D01*
X152149879Y-81788921D01*
X151895207Y-81618755D01*
X151594800Y-81559000D01*
X148123500Y-81559000D01*
X147823093Y-81618755D01*
X147568421Y-81788921D01*
X146952164Y-82405178D01*
X146580235Y-82156663D01*
X146050000Y-82051193D01*
X145723700Y-82116098D01*
X145723700Y-80981930D01*
X152877675Y-80981930D01*
X152945735Y-81222931D01*
X153465034Y-81407767D01*
X154015538Y-81379805D01*
X154394265Y-81222931D01*
X154462325Y-80981930D01*
X153670000Y-80189605D01*
X152877675Y-80981930D01*
X145723700Y-80981930D01*
X145723700Y-79805034D01*
X152272233Y-79805034D01*
X152300195Y-80355538D01*
X152457069Y-80734265D01*
X152698070Y-80802325D01*
X153490395Y-80010000D01*
X152698070Y-79217675D01*
X152457069Y-79285735D01*
X152272233Y-79805034D01*
X145723700Y-79805034D01*
X145723700Y-79718158D01*
X146403788Y-79038070D01*
X152877675Y-79038070D01*
X153670000Y-79830395D01*
X154462325Y-79038070D01*
X154394265Y-78797069D01*
X153874966Y-78612233D01*
X153324462Y-78640195D01*
X152945735Y-78797069D01*
X152877675Y-79038070D01*
X146403788Y-79038070D01*
X148191679Y-77250179D01*
X148361845Y-76995506D01*
X148421600Y-76695100D01*
X148421600Y-74879200D01*
X153926800Y-74879200D01*
X153926800Y-76779120D01*
X153971078Y-77014437D01*
X154110150Y-77230561D01*
X154322350Y-77375551D01*
X154574240Y-77426560D01*
X156474160Y-77426560D01*
X156709477Y-77382282D01*
X156925601Y-77243210D01*
X157070591Y-77031010D01*
X157121600Y-76779120D01*
X157121600Y-74879200D01*
X157089579Y-74709020D01*
X159726890Y-74709020D01*
X159726890Y-76309220D01*
X159771168Y-76544537D01*
X159910240Y-76760661D01*
X160122440Y-76905651D01*
X160374330Y-76956660D01*
X161474150Y-76956660D01*
X161709467Y-76912382D01*
X161925591Y-76773310D01*
X162070581Y-76561110D01*
X162121590Y-76309220D01*
X162121590Y-74759820D01*
X169146480Y-74759820D01*
X169146480Y-76360020D01*
X169190758Y-76595337D01*
X169329830Y-76811461D01*
X169542030Y-76956451D01*
X169793920Y-77007460D01*
X171394120Y-77007460D01*
X171629437Y-76963182D01*
X171845561Y-76824110D01*
X171990551Y-76611910D01*
X172041560Y-76360020D01*
X172041560Y-74759820D01*
X171997282Y-74524503D01*
X171858210Y-74308379D01*
X171646010Y-74163389D01*
X171394120Y-74112380D01*
X169793920Y-74112380D01*
X169558603Y-74156658D01*
X169342479Y-74295730D01*
X169197489Y-74507930D01*
X169146480Y-74759820D01*
X162121590Y-74759820D01*
X162121590Y-74709020D01*
X162077312Y-74473703D01*
X161938240Y-74257579D01*
X161726040Y-74112589D01*
X161474150Y-74061580D01*
X160374330Y-74061580D01*
X160139013Y-74105858D01*
X159922889Y-74244930D01*
X159777899Y-74457130D01*
X159726890Y-74709020D01*
X157089579Y-74709020D01*
X157077322Y-74643883D01*
X156938250Y-74427759D01*
X156726050Y-74282769D01*
X156474160Y-74231760D01*
X154574240Y-74231760D01*
X154338923Y-74276038D01*
X154122799Y-74415110D01*
X153977809Y-74627310D01*
X153926800Y-74879200D01*
X148421600Y-74879200D01*
X148421600Y-70866206D01*
X148428792Y-70859027D01*
X148571438Y-70515499D01*
X148571448Y-70504010D01*
X149182158Y-69893300D01*
X149189204Y-69893300D01*
X149231152Y-69958489D01*
X149179749Y-70033720D01*
X149128740Y-70285610D01*
X149128740Y-71334630D01*
X149173018Y-71569947D01*
X149312090Y-71786071D01*
X149524290Y-71931061D01*
X149763130Y-71979427D01*
X149638219Y-72162240D01*
X149587210Y-72414130D01*
X149587210Y-73762870D01*
X149631488Y-73998187D01*
X149770560Y-74214311D01*
X149982760Y-74359301D01*
X150234650Y-74410310D01*
X151334470Y-74410310D01*
X151569787Y-74366032D01*
X151785911Y-74226960D01*
X151930901Y-74014760D01*
X151981910Y-73762870D01*
X151981910Y-73364636D01*
X173389024Y-73364636D01*
X173622287Y-73929175D01*
X174053833Y-74361475D01*
X174617964Y-74595723D01*
X175228796Y-74596256D01*
X175793335Y-74362993D01*
X176225635Y-73931447D01*
X176459883Y-73367316D01*
X176460416Y-72756484D01*
X176227153Y-72191945D01*
X175795607Y-71759645D01*
X175231476Y-71525397D01*
X174620644Y-71524864D01*
X174056105Y-71758127D01*
X173623805Y-72189673D01*
X173389557Y-72753804D01*
X173389024Y-73364636D01*
X151981910Y-73364636D01*
X151981910Y-72414130D01*
X151937632Y-72178813D01*
X151798560Y-71962689D01*
X151669454Y-71874475D01*
X151787181Y-71798720D01*
X151932171Y-71586520D01*
X151983180Y-71334630D01*
X151983180Y-70285610D01*
X151938902Y-70050293D01*
X151880768Y-69959951D01*
X151932171Y-69884720D01*
X151983180Y-69632830D01*
X151983180Y-68583810D01*
X151938902Y-68348493D01*
X151799830Y-68132369D01*
X151587630Y-67987379D01*
X151335740Y-67936370D01*
X149776180Y-67936370D01*
X149540863Y-67980648D01*
X149324739Y-68119720D01*
X149185639Y-68323300D01*
X148857000Y-68323300D01*
X148556593Y-68383055D01*
X148301921Y-68553221D01*
X147461595Y-69393547D01*
X147451433Y-69393538D01*
X147107657Y-69535583D01*
X146844408Y-69798373D01*
X146701762Y-70141901D01*
X146701438Y-70513867D01*
X146843483Y-70857643D01*
X146851600Y-70865774D01*
X146851600Y-76369942D01*
X144383621Y-78837921D01*
X144213455Y-79092593D01*
X144162481Y-79348855D01*
X144153700Y-79393000D01*
X144153700Y-82232478D01*
X144040235Y-82156663D01*
X143510000Y-82051193D01*
X142979765Y-82156663D01*
X142530254Y-82457017D01*
X142240000Y-82891412D01*
X141949746Y-82457017D01*
X141500235Y-82156663D01*
X140970000Y-82051193D01*
X140485000Y-82147665D01*
X140485000Y-73370213D01*
X144614392Y-73370213D01*
X144683857Y-73612397D01*
X145207302Y-73799144D01*
X145762368Y-73771362D01*
X146146143Y-73612397D01*
X146215608Y-73370213D01*
X145415000Y-72569605D01*
X144614392Y-73370213D01*
X140485000Y-73370213D01*
X140485000Y-73025005D01*
X140485001Y-73025000D01*
X140425245Y-72724594D01*
X140388165Y-72669100D01*
X140255079Y-72469921D01*
X140255076Y-72469919D01*
X139967460Y-72182302D01*
X144005856Y-72182302D01*
X144033638Y-72737368D01*
X144192603Y-73121143D01*
X144434787Y-73190608D01*
X145235395Y-72390000D01*
X145594605Y-72390000D01*
X146395213Y-73190608D01*
X146637397Y-73121143D01*
X146824144Y-72597698D01*
X146796362Y-72042632D01*
X146637397Y-71658857D01*
X146395213Y-71589392D01*
X145594605Y-72390000D01*
X145235395Y-72390000D01*
X144434787Y-71589392D01*
X144192603Y-71658857D01*
X144005856Y-72182302D01*
X139967460Y-72182302D01*
X139194945Y-71409787D01*
X144614392Y-71409787D01*
X145415000Y-72210395D01*
X146215608Y-71409787D01*
X146146143Y-71167603D01*
X145622698Y-70980856D01*
X145067632Y-71008638D01*
X144683857Y-71167603D01*
X144614392Y-71409787D01*
X139194945Y-71409787D01*
X135379557Y-67594399D01*
X135381757Y-67589100D01*
X135381759Y-67586661D01*
X144017758Y-67586661D01*
X144229990Y-68100303D01*
X144622630Y-68493629D01*
X145135900Y-68706757D01*
X145691661Y-68707242D01*
X146205303Y-68495010D01*
X146598629Y-68102370D01*
X146811757Y-67589100D01*
X146812242Y-67033339D01*
X146809194Y-67025963D01*
X146859167Y-66975990D01*
X149141180Y-66975990D01*
X149141180Y-67341059D01*
X149237853Y-67574448D01*
X149416481Y-67753077D01*
X149649870Y-67849750D01*
X150270210Y-67849750D01*
X150428960Y-67691000D01*
X150428960Y-66817240D01*
X150682960Y-66817240D01*
X150682960Y-67691000D01*
X150841710Y-67849750D01*
X151462050Y-67849750D01*
X151695439Y-67753077D01*
X151874067Y-67574448D01*
X151970740Y-67341059D01*
X151970740Y-66975990D01*
X151811990Y-66817240D01*
X150682960Y-66817240D01*
X150428960Y-66817240D01*
X149299930Y-66817240D01*
X149141180Y-66975990D01*
X146859167Y-66975990D01*
X147795736Y-66039421D01*
X149141180Y-66039421D01*
X149141180Y-66404490D01*
X149299930Y-66563240D01*
X150428960Y-66563240D01*
X150428960Y-65689480D01*
X150682960Y-65689480D01*
X150682960Y-66563240D01*
X151811990Y-66563240D01*
X151970740Y-66404490D01*
X151970740Y-66039421D01*
X151874067Y-65806032D01*
X151695439Y-65627403D01*
X151462050Y-65530730D01*
X150841710Y-65530730D01*
X150682960Y-65689480D01*
X150428960Y-65689480D01*
X150270210Y-65530730D01*
X149649870Y-65530730D01*
X149416481Y-65627403D01*
X149237853Y-65806032D01*
X149141180Y-66039421D01*
X147795736Y-66039421D01*
X148861857Y-64973300D01*
X149189191Y-64973300D01*
X149312090Y-65164291D01*
X149524290Y-65309281D01*
X149776180Y-65360290D01*
X151335740Y-65360290D01*
X151571057Y-65316012D01*
X151787181Y-65176940D01*
X151932171Y-64964740D01*
X151983180Y-64712850D01*
X151983180Y-63663830D01*
X151938902Y-63428513D01*
X151799830Y-63212389D01*
X151587630Y-63067399D01*
X151335740Y-63016390D01*
X149776180Y-63016390D01*
X149540863Y-63060668D01*
X149324739Y-63199740D01*
X149185652Y-63403300D01*
X148536700Y-63403300D01*
X148236294Y-63463055D01*
X147981621Y-63633221D01*
X147981619Y-63633224D01*
X145699399Y-65915443D01*
X145694100Y-65913243D01*
X145138339Y-65912758D01*
X144624697Y-66124990D01*
X144231371Y-66517630D01*
X144018243Y-67030900D01*
X144017758Y-67586661D01*
X135381759Y-67586661D01*
X135382242Y-67033339D01*
X135170010Y-66519697D01*
X134777370Y-66126371D01*
X134264100Y-65913243D01*
X133708339Y-65912758D01*
X133627800Y-65946036D01*
X133627800Y-62201887D01*
X138265000Y-62201887D01*
X138265000Y-62258113D01*
X138374233Y-62807264D01*
X138685302Y-63272811D01*
X139150849Y-63583880D01*
X139700000Y-63693113D01*
X140249151Y-63583880D01*
X140714698Y-63272811D01*
X141025767Y-62807264D01*
X141135000Y-62258113D01*
X141135000Y-62201887D01*
X141025767Y-61652736D01*
X140876940Y-61430000D01*
X143332560Y-61430000D01*
X143332560Y-63030000D01*
X143376838Y-63265317D01*
X143515910Y-63481441D01*
X143728110Y-63626431D01*
X143980000Y-63677440D01*
X145580000Y-63677440D01*
X145815317Y-63633162D01*
X146031441Y-63494090D01*
X146176431Y-63281890D01*
X146227440Y-63030000D01*
X146227440Y-63015000D01*
X148884900Y-63015000D01*
X149185307Y-62955245D01*
X149439979Y-62785079D01*
X149459444Y-62765614D01*
X149524290Y-62809921D01*
X149776180Y-62860930D01*
X151335740Y-62860930D01*
X151571057Y-62816652D01*
X151787181Y-62677580D01*
X151932171Y-62465380D01*
X151983180Y-62213490D01*
X151983180Y-61164470D01*
X151938902Y-60929153D01*
X151799830Y-60713029D01*
X151587630Y-60568039D01*
X151335740Y-60517030D01*
X149776180Y-60517030D01*
X149540863Y-60561308D01*
X149324739Y-60700380D01*
X149179749Y-60912580D01*
X149171228Y-60954658D01*
X149125494Y-60963755D01*
X148870821Y-61133921D01*
X148870819Y-61133924D01*
X148559742Y-61445000D01*
X146227440Y-61445000D01*
X146227440Y-61430000D01*
X146183162Y-61194683D01*
X146044090Y-60978559D01*
X145831890Y-60833569D01*
X145580000Y-60782560D01*
X143980000Y-60782560D01*
X143744683Y-60826838D01*
X143528559Y-60965910D01*
X143383569Y-61178110D01*
X143332560Y-61430000D01*
X140876940Y-61430000D01*
X140714698Y-61187189D01*
X140249151Y-60876120D01*
X139700000Y-60766887D01*
X139150849Y-60876120D01*
X138685302Y-61187189D01*
X138374233Y-61652736D01*
X138265000Y-62201887D01*
X133627800Y-62201887D01*
X133627800Y-56156661D01*
X133857758Y-56156661D01*
X134069990Y-56670303D01*
X134462630Y-57063629D01*
X134470000Y-57066689D01*
X134470000Y-58502799D01*
X134464697Y-58504990D01*
X134071371Y-58897630D01*
X133858243Y-59410900D01*
X133857758Y-59966661D01*
X134069990Y-60480303D01*
X134462630Y-60873629D01*
X134975900Y-61086757D01*
X135531661Y-61087242D01*
X136045303Y-60875010D01*
X136438629Y-60482370D01*
X136651757Y-59969100D01*
X136652187Y-59475370D01*
X149141180Y-59475370D01*
X149141180Y-59840439D01*
X149237853Y-60073828D01*
X149416481Y-60252457D01*
X149649870Y-60349130D01*
X150270210Y-60349130D01*
X150428960Y-60190380D01*
X150428960Y-59316620D01*
X150682960Y-59316620D01*
X150682960Y-60190380D01*
X150841710Y-60349130D01*
X151462050Y-60349130D01*
X151695439Y-60252457D01*
X151874067Y-60073828D01*
X151970740Y-59840439D01*
X151970740Y-59475370D01*
X151811990Y-59316620D01*
X150682960Y-59316620D01*
X150428960Y-59316620D01*
X149299930Y-59316620D01*
X149141180Y-59475370D01*
X136652187Y-59475370D01*
X136652242Y-59413339D01*
X136440010Y-58899697D01*
X136047370Y-58506371D01*
X136040000Y-58503311D01*
X136040000Y-58350100D01*
X149219343Y-58350100D01*
X149141180Y-58538801D01*
X149141180Y-58903870D01*
X149299930Y-59062620D01*
X150428960Y-59062620D01*
X150428960Y-59042620D01*
X150682960Y-59042620D01*
X150682960Y-59062620D01*
X151811990Y-59062620D01*
X151970740Y-58903870D01*
X151970740Y-58538801D01*
X151874067Y-58305412D01*
X151695439Y-58126783D01*
X151462050Y-58030110D01*
X151171261Y-58030110D01*
X151281245Y-57865506D01*
X151281901Y-57862210D01*
X151335740Y-57862210D01*
X151571057Y-57817932D01*
X151787181Y-57678860D01*
X151932171Y-57466660D01*
X151983180Y-57214770D01*
X151983180Y-56165750D01*
X151938902Y-55930433D01*
X151799830Y-55714309D01*
X151587630Y-55569319D01*
X151335740Y-55518310D01*
X149776180Y-55518310D01*
X149540863Y-55562588D01*
X149324739Y-55701660D01*
X149179749Y-55913860D01*
X149128740Y-56165750D01*
X149128740Y-56780100D01*
X136330711Y-56780100D01*
X136438629Y-56672370D01*
X136651757Y-56159100D01*
X136652242Y-55603339D01*
X136440010Y-55089697D01*
X136047370Y-54696371D01*
X135534100Y-54483243D01*
X134978339Y-54482758D01*
X134464697Y-54694990D01*
X134071371Y-55087630D01*
X133858243Y-55600900D01*
X133857758Y-56156661D01*
X133627800Y-56156661D01*
X133627800Y-53810000D01*
X138252560Y-53810000D01*
X138252560Y-55410000D01*
X138296838Y-55645317D01*
X138435910Y-55861441D01*
X138648110Y-56006431D01*
X138900000Y-56057440D01*
X140500000Y-56057440D01*
X140735317Y-56013162D01*
X140951441Y-55874090D01*
X141096431Y-55661890D01*
X141147440Y-55410000D01*
X141147440Y-54581887D01*
X143345000Y-54581887D01*
X143345000Y-54638113D01*
X143454233Y-55187264D01*
X143765302Y-55652811D01*
X144230849Y-55963880D01*
X144780000Y-56073113D01*
X145329151Y-55963880D01*
X145794698Y-55652811D01*
X146105767Y-55187264D01*
X146215000Y-54638113D01*
X146215000Y-54581887D01*
X146105767Y-54032736D01*
X145794698Y-53567189D01*
X145329151Y-53256120D01*
X144780000Y-53146887D01*
X144230849Y-53256120D01*
X143765302Y-53567189D01*
X143454233Y-54032736D01*
X143345000Y-54581887D01*
X141147440Y-54581887D01*
X141147440Y-53810000D01*
X141103162Y-53574683D01*
X140964090Y-53358559D01*
X140751890Y-53213569D01*
X140500000Y-53162560D01*
X138900000Y-53162560D01*
X138664683Y-53206838D01*
X138448559Y-53345910D01*
X138303569Y-53558110D01*
X138252560Y-53810000D01*
X133627800Y-53810000D01*
X133627800Y-53537358D01*
X134970601Y-52194557D01*
X134975900Y-52196757D01*
X135531661Y-52197242D01*
X136045303Y-51985010D01*
X136438629Y-51592370D01*
X136651757Y-51079100D01*
X136652242Y-50523339D01*
X136440010Y-50009697D01*
X136047370Y-49616371D01*
X135534100Y-49403243D01*
X134978339Y-49402758D01*
X134464697Y-49614990D01*
X134071371Y-50007630D01*
X133858243Y-50520900D01*
X133857758Y-51076661D01*
X133860805Y-51084037D01*
X132287721Y-52657121D01*
X132117555Y-52911793D01*
X132117555Y-52911794D01*
X132057800Y-53212200D01*
X132057800Y-69046300D01*
X132117555Y-69346707D01*
X132287721Y-69601379D01*
X133687649Y-71001307D01*
X133194697Y-71204990D01*
X132801371Y-71597630D01*
X132588243Y-72110900D01*
X132587758Y-72666661D01*
X132799990Y-73180303D01*
X133192630Y-73573629D01*
X133705900Y-73786757D01*
X134261661Y-73787242D01*
X134775303Y-73575010D01*
X135168629Y-73182370D01*
X135374036Y-72687694D01*
X136375000Y-73688658D01*
X136375000Y-82147665D01*
X135890000Y-82051193D01*
X135405000Y-82147665D01*
X135405000Y-76924500D01*
X135345245Y-76624094D01*
X135175079Y-76369421D01*
X129572631Y-70766973D01*
X129831042Y-70380235D01*
X129936512Y-69850000D01*
X129831042Y-69319765D01*
X129530688Y-68870254D01*
X129081177Y-68569900D01*
X128550942Y-68464430D01*
X127989058Y-68464430D01*
X127458823Y-68569900D01*
X127009312Y-68870254D01*
X126777197Y-69217639D01*
X124610000Y-67050442D01*
X124610000Y-60877201D01*
X124615303Y-60875010D01*
X125008629Y-60482370D01*
X125221757Y-59969100D01*
X125222242Y-59413339D01*
X125010010Y-58899697D01*
X124617370Y-58506371D01*
X124104100Y-58293243D01*
X123548339Y-58292758D01*
X123034697Y-58504990D01*
X122641371Y-58897630D01*
X122428243Y-59410900D01*
X122427758Y-59966661D01*
X122639990Y-60480303D01*
X123032630Y-60873629D01*
X123040000Y-60876689D01*
X123040000Y-67050442D01*
X121244042Y-68846400D01*
X121297032Y-68580000D01*
X121191605Y-68049983D01*
X120891375Y-67600657D01*
X120442049Y-67300427D01*
X119912032Y-67195000D01*
X119347968Y-67195000D01*
X118817951Y-67300427D01*
X118368625Y-67600657D01*
X118232593Y-67804243D01*
X118193162Y-67594683D01*
X118054090Y-67378559D01*
X117841890Y-67233569D01*
X117590000Y-67182560D01*
X115590000Y-67182560D01*
X115354683Y-67226838D01*
X115138559Y-67365910D01*
X114993569Y-67578110D01*
X114942560Y-67830000D01*
X114942560Y-69330000D01*
X114986838Y-69565317D01*
X115125910Y-69781441D01*
X115338110Y-69926431D01*
X115576874Y-69974782D01*
X115328625Y-70140657D01*
X115028395Y-70589983D01*
X114922968Y-71120000D01*
X115028395Y-71650017D01*
X115328625Y-72099343D01*
X115763624Y-72390000D01*
X115328625Y-72680657D01*
X115028395Y-73129983D01*
X114922968Y-73660000D01*
X115028395Y-74190017D01*
X115328625Y-74639343D01*
X115777951Y-74939573D01*
X116307968Y-75045000D01*
X116872032Y-75045000D01*
X117402049Y-74939573D01*
X117851375Y-74639343D01*
X118126865Y-74227043D01*
X118327264Y-74576894D01*
X118758279Y-74909964D01*
X119283945Y-75052739D01*
X119503000Y-74891868D01*
X119503000Y-73787000D01*
X119757000Y-73787000D01*
X119757000Y-74891868D01*
X119976055Y-75052739D01*
X120501721Y-74909964D01*
X120932736Y-74576894D01*
X121203481Y-74104235D01*
X121222318Y-74001185D01*
X121099656Y-73787000D01*
X119757000Y-73787000D01*
X119503000Y-73787000D01*
X119483000Y-73787000D01*
X119483000Y-73533000D01*
X119503000Y-73533000D01*
X119503000Y-73513000D01*
X119757000Y-73513000D01*
X119757000Y-73533000D01*
X121099656Y-73533000D01*
X121222318Y-73318815D01*
X121203481Y-73215765D01*
X120932736Y-72743106D01*
X120501721Y-72410036D01*
X120448161Y-72395489D01*
X120891375Y-72099343D01*
X121191605Y-71650017D01*
X121297032Y-71120000D01*
X121232282Y-70794479D01*
X121481307Y-70744945D01*
X121735979Y-70574779D01*
X123825000Y-68485758D01*
X126905244Y-71566002D01*
X126708958Y-71859765D01*
X126603488Y-72390000D01*
X126708958Y-72920235D01*
X126897674Y-73202668D01*
X117605821Y-82494521D01*
X117435655Y-82749193D01*
X117408641Y-82885000D01*
X117375900Y-83049600D01*
X117375900Y-86763310D01*
X113330000Y-82717410D01*
X113330000Y-82320565D01*
X113578629Y-82072370D01*
X113791757Y-81559100D01*
X113792242Y-81003339D01*
X113580010Y-80489697D01*
X113187370Y-80096371D01*
X112674100Y-79883243D01*
X112118339Y-79882758D01*
X111604697Y-80094990D01*
X111211371Y-80487630D01*
X110998243Y-81000900D01*
X110997758Y-81556661D01*
X108635000Y-81556661D01*
X108635000Y-60046892D01*
X114128514Y-60046892D01*
X114374817Y-60571358D01*
X114803076Y-60961645D01*
X115213110Y-61131476D01*
X115443000Y-61010155D01*
X115443000Y-59817000D01*
X114249181Y-59817000D01*
X114128514Y-60046892D01*
X108635000Y-60046892D01*
X108635000Y-59333108D01*
X114128514Y-59333108D01*
X114249181Y-59563000D01*
X115443000Y-59563000D01*
X115443000Y-58369845D01*
X115697000Y-58369845D01*
X115697000Y-59563000D01*
X115717000Y-59563000D01*
X115717000Y-59817000D01*
X115697000Y-59817000D01*
X115697000Y-61010155D01*
X115926890Y-61131476D01*
X116336924Y-60961645D01*
X116639937Y-60685499D01*
X116656838Y-60775317D01*
X116795910Y-60991441D01*
X117008110Y-61136431D01*
X117260000Y-61187440D01*
X118960000Y-61187440D01*
X119195317Y-61143162D01*
X119411441Y-61004090D01*
X119556431Y-60791890D01*
X119607440Y-60540000D01*
X119607440Y-58840000D01*
X119563162Y-58604683D01*
X119424090Y-58388559D01*
X119211890Y-58243569D01*
X118960000Y-58192560D01*
X117260000Y-58192560D01*
X117024683Y-58236838D01*
X116808559Y-58375910D01*
X116663569Y-58588110D01*
X116641699Y-58696107D01*
X116336924Y-58418355D01*
X115926890Y-58248524D01*
X115697000Y-58369845D01*
X115443000Y-58369845D01*
X115213110Y-58248524D01*
X114803076Y-58418355D01*
X114374817Y-58808642D01*
X114128514Y-59333108D01*
X108635000Y-59333108D01*
X108635000Y-56860213D01*
X123024392Y-56860213D01*
X123093857Y-57102397D01*
X123617302Y-57289144D01*
X124172368Y-57261362D01*
X124556143Y-57102397D01*
X124625608Y-56860213D01*
X123825000Y-56059605D01*
X123024392Y-56860213D01*
X108635000Y-56860213D01*
X108635000Y-55672302D01*
X122415856Y-55672302D01*
X122443638Y-56227368D01*
X122602603Y-56611143D01*
X122844787Y-56680608D01*
X123645395Y-55880000D01*
X124004605Y-55880000D01*
X124805213Y-56680608D01*
X125047397Y-56611143D01*
X125234144Y-56087698D01*
X125206362Y-55532632D01*
X125047397Y-55148857D01*
X124805213Y-55079392D01*
X124004605Y-55880000D01*
X123645395Y-55880000D01*
X122844787Y-55079392D01*
X122602603Y-55148857D01*
X122415856Y-55672302D01*
X108635000Y-55672302D01*
X108635000Y-54899787D01*
X123024392Y-54899787D01*
X123825000Y-55700395D01*
X124625608Y-54899787D01*
X124556143Y-54657603D01*
X124032698Y-54470856D01*
X123477632Y-54498638D01*
X123093857Y-54657603D01*
X123024392Y-54899787D01*
X108635000Y-54899787D01*
X108635000Y-46700213D01*
X134454392Y-46700213D01*
X134523857Y-46942397D01*
X135047302Y-47129144D01*
X135602368Y-47101362D01*
X135986143Y-46942397D01*
X136055608Y-46700213D01*
X135255000Y-45899605D01*
X134454392Y-46700213D01*
X108635000Y-46700213D01*
X108635000Y-45512302D01*
X133845856Y-45512302D01*
X133873638Y-46067368D01*
X134032603Y-46451143D01*
X134274787Y-46520608D01*
X135075395Y-45720000D01*
X135434605Y-45720000D01*
X136235213Y-46520608D01*
X136477397Y-46451143D01*
X136639540Y-45996661D01*
X145287758Y-45996661D01*
X145499990Y-46510303D01*
X145892630Y-46903629D01*
X145900000Y-46906689D01*
X145900000Y-49612799D01*
X145894697Y-49614990D01*
X145501371Y-50007630D01*
X145288243Y-50520900D01*
X145287758Y-51076661D01*
X145499990Y-51590303D01*
X145892630Y-51983629D01*
X146405900Y-52196757D01*
X146961661Y-52197242D01*
X146969037Y-52194195D01*
X148640900Y-53866058D01*
X148640900Y-54188400D01*
X148700655Y-54488806D01*
X148870821Y-54743479D01*
X149125494Y-54913645D01*
X149168114Y-54922123D01*
X149173018Y-54948187D01*
X149312090Y-55164311D01*
X149524290Y-55309301D01*
X149776180Y-55360310D01*
X151335740Y-55360310D01*
X151571057Y-55316032D01*
X151787181Y-55176960D01*
X151932171Y-54964760D01*
X151983180Y-54712870D01*
X151983180Y-53663850D01*
X151938902Y-53428533D01*
X151799830Y-53212409D01*
X151587630Y-53067419D01*
X151335740Y-53016410D01*
X150001418Y-53016410D01*
X149980979Y-52985821D01*
X149856108Y-52860950D01*
X151335740Y-52860950D01*
X151571057Y-52816672D01*
X151787181Y-52677600D01*
X151932171Y-52465400D01*
X151983180Y-52213510D01*
X151983180Y-51164490D01*
X151938902Y-50929173D01*
X151799830Y-50713049D01*
X151587630Y-50568059D01*
X151335740Y-50517050D01*
X149776180Y-50517050D01*
X149540863Y-50561328D01*
X149324739Y-50700400D01*
X149179749Y-50912600D01*
X149128740Y-51164490D01*
X149128740Y-52133582D01*
X148079557Y-51084399D01*
X148081757Y-51079100D01*
X148082242Y-50523339D01*
X147870010Y-50009697D01*
X147477370Y-49616371D01*
X147470000Y-49613311D01*
X147470000Y-49113968D01*
X173639258Y-49113968D01*
X173834512Y-49586519D01*
X174195740Y-49948378D01*
X174667948Y-50144456D01*
X175179248Y-50144902D01*
X175651799Y-49949648D01*
X176013658Y-49588420D01*
X176209736Y-49116212D01*
X176210182Y-48604912D01*
X176014928Y-48132361D01*
X175653700Y-47770502D01*
X175181492Y-47574424D01*
X174670192Y-47573978D01*
X174197641Y-47769232D01*
X173835782Y-48130460D01*
X173639704Y-48602668D01*
X173639258Y-49113968D01*
X147470000Y-49113968D01*
X147470000Y-46907201D01*
X147475303Y-46905010D01*
X147868629Y-46512370D01*
X148081757Y-45999100D01*
X148082242Y-45443339D01*
X148006596Y-45260260D01*
X153926800Y-45260260D01*
X153926800Y-47160180D01*
X153971078Y-47395497D01*
X154110150Y-47611621D01*
X154322350Y-47756611D01*
X154574240Y-47807620D01*
X156474160Y-47807620D01*
X156709477Y-47763342D01*
X156925601Y-47624270D01*
X157070591Y-47412070D01*
X157121600Y-47160180D01*
X157121600Y-45260260D01*
X169377620Y-45260260D01*
X169377620Y-47160180D01*
X169421898Y-47395497D01*
X169560970Y-47611621D01*
X169773170Y-47756611D01*
X170025060Y-47807620D01*
X171924980Y-47807620D01*
X172160297Y-47763342D01*
X172376421Y-47624270D01*
X172521411Y-47412070D01*
X172572420Y-47160180D01*
X172572420Y-45260260D01*
X172528142Y-45024943D01*
X172389070Y-44808819D01*
X172176870Y-44663829D01*
X171924980Y-44612820D01*
X170025060Y-44612820D01*
X169789743Y-44657098D01*
X169573619Y-44796170D01*
X169428629Y-45008370D01*
X169377620Y-45260260D01*
X157121600Y-45260260D01*
X157077322Y-45024943D01*
X156938250Y-44808819D01*
X156726050Y-44663829D01*
X156474160Y-44612820D01*
X154574240Y-44612820D01*
X154338923Y-44657098D01*
X154122799Y-44796170D01*
X153977809Y-45008370D01*
X153926800Y-45260260D01*
X148006596Y-45260260D01*
X147870010Y-44929697D01*
X147477370Y-44536371D01*
X146964100Y-44323243D01*
X146408339Y-44322758D01*
X145894697Y-44534990D01*
X145501371Y-44927630D01*
X145288243Y-45440900D01*
X145287758Y-45996661D01*
X136639540Y-45996661D01*
X136664144Y-45927698D01*
X136636362Y-45372632D01*
X136477397Y-44988857D01*
X136235213Y-44919392D01*
X135434605Y-45720000D01*
X135075395Y-45720000D01*
X134274787Y-44919392D01*
X134032603Y-44988857D01*
X133845856Y-45512302D01*
X108635000Y-45512302D01*
X108635000Y-44739787D01*
X134454392Y-44739787D01*
X135255000Y-45540395D01*
X136055608Y-44739787D01*
X135986143Y-44497603D01*
X135462698Y-44310856D01*
X134907632Y-44338638D01*
X134523857Y-44497603D01*
X134454392Y-44739787D01*
X108635000Y-44739787D01*
X108635000Y-42595000D01*
X183465000Y-42595000D01*
X183465000Y-139015000D01*
G36*
X137450254Y-100422983D02*
X137654843Y-100559685D01*
X137704755Y-100810607D01*
X137874921Y-101065279D01*
X140234721Y-103425079D01*
X140489393Y-103595245D01*
X140789800Y-103655000D01*
X141687799Y-103655000D01*
X141689990Y-103660303D01*
X142082630Y-104053629D01*
X142595900Y-104266757D01*
X143151661Y-104267242D01*
X143665303Y-104055010D01*
X144058629Y-103662370D01*
X144271757Y-103149100D01*
X144272242Y-102593339D01*
X144060010Y-102079697D01*
X143667370Y-101686371D01*
X143154100Y-101473243D01*
X142598339Y-101472758D01*
X142084697Y-101684990D01*
X141691371Y-102077630D01*
X141688311Y-102085000D01*
X141114958Y-102085000D01*
X140296391Y-101266433D01*
X140457100Y-101298400D01*
X141459100Y-101298400D01*
X141759507Y-101238645D01*
X142014179Y-101068479D01*
X142607836Y-100474822D01*
X142979765Y-100723337D01*
X143510000Y-100828807D01*
X144040235Y-100723337D01*
X144410306Y-100476064D01*
X145005321Y-101071079D01*
X145259994Y-101241245D01*
X145560400Y-101301000D01*
X146536500Y-101301000D01*
X146836907Y-101241245D01*
X147091579Y-101071079D01*
X147687836Y-100474822D01*
X148059765Y-100723337D01*
X148590000Y-100828807D01*
X148905900Y-100765971D01*
X148905900Y-105240900D01*
X148965655Y-105541307D01*
X149135821Y-105795979D01*
X150847273Y-107507431D01*
X150599765Y-107556663D01*
X150150254Y-107857017D01*
X149860000Y-108291412D01*
X149569746Y-107857017D01*
X149120235Y-107556663D01*
X148590000Y-107451193D01*
X148059765Y-107556663D01*
X147610254Y-107857017D01*
X147320000Y-108291412D01*
X147029746Y-107857017D01*
X146580235Y-107556663D01*
X146050000Y-107451193D01*
X145519765Y-107556663D01*
X145070254Y-107857017D01*
X144780000Y-108291412D01*
X144489746Y-107857017D01*
X144040235Y-107556663D01*
X143510000Y-107451193D01*
X142979765Y-107556663D01*
X142530254Y-107857017D01*
X142240000Y-108291412D01*
X141949746Y-107857017D01*
X141500235Y-107556663D01*
X140970000Y-107451193D01*
X140439765Y-107556663D01*
X139990254Y-107857017D01*
X139700000Y-108291412D01*
X139409746Y-107857017D01*
X138960235Y-107556663D01*
X138430000Y-107451193D01*
X137899765Y-107556663D01*
X137450254Y-107857017D01*
X137160000Y-108291412D01*
X136869746Y-107857017D01*
X136420235Y-107556663D01*
X135890000Y-107451193D01*
X135359765Y-107556663D01*
X134910254Y-107857017D01*
X134620000Y-108291412D01*
X134329746Y-107857017D01*
X133880235Y-107556663D01*
X133350000Y-107451193D01*
X132819765Y-107556663D01*
X132370254Y-107857017D01*
X132080000Y-108291412D01*
X131789746Y-107857017D01*
X131340235Y-107556663D01*
X130810000Y-107451193D01*
X130294600Y-107553712D01*
X130294600Y-105637440D01*
X131660000Y-105637440D01*
X131895317Y-105593162D01*
X132111441Y-105454090D01*
X132256431Y-105241890D01*
X132270086Y-105174459D01*
X132299946Y-105219147D01*
X132781715Y-105541054D01*
X133350000Y-105654093D01*
X133918285Y-105541054D01*
X134400054Y-105219147D01*
X134620000Y-104889974D01*
X134839946Y-105219147D01*
X135321715Y-105541054D01*
X135890000Y-105654093D01*
X136458285Y-105541054D01*
X136940054Y-105219147D01*
X137167702Y-104878447D01*
X137234817Y-105021358D01*
X137663076Y-105411645D01*
X138073110Y-105581476D01*
X138303000Y-105460155D01*
X138303000Y-104267000D01*
X138557000Y-104267000D01*
X138557000Y-105460155D01*
X138786890Y-105581476D01*
X139196924Y-105411645D01*
X139625183Y-105021358D01*
X139871486Y-104496892D01*
X139750819Y-104267000D01*
X138557000Y-104267000D01*
X138303000Y-104267000D01*
X138283000Y-104267000D01*
X138283000Y-104013000D01*
X138303000Y-104013000D01*
X138303000Y-102819845D01*
X138557000Y-102819845D01*
X138557000Y-104013000D01*
X139750819Y-104013000D01*
X139871486Y-103783108D01*
X139625183Y-103258642D01*
X139196924Y-102868355D01*
X138786890Y-102698524D01*
X138557000Y-102819845D01*
X138303000Y-102819845D01*
X138073110Y-102698524D01*
X137663076Y-102868355D01*
X137234817Y-103258642D01*
X137167702Y-103401553D01*
X136940054Y-103060853D01*
X136458285Y-102738946D01*
X135890000Y-102625907D01*
X135321715Y-102738946D01*
X134839946Y-103060853D01*
X134620000Y-103390026D01*
X134400054Y-103060853D01*
X133918285Y-102738946D01*
X133350000Y-102625907D01*
X132781715Y-102738946D01*
X132299946Y-103060853D01*
X132272150Y-103102452D01*
X132263162Y-103054683D01*
X132124090Y-102838559D01*
X131911890Y-102693569D01*
X131660000Y-102642560D01*
X130294600Y-102642560D01*
X130294600Y-100726288D01*
X130810000Y-100828807D01*
X131340235Y-100723337D01*
X131789746Y-100422983D01*
X132080000Y-99988588D01*
X132370254Y-100422983D01*
X132819765Y-100723337D01*
X133350000Y-100828807D01*
X133880235Y-100723337D01*
X134329746Y-100422983D01*
X134620000Y-99988588D01*
X134910254Y-100422983D01*
X135359765Y-100723337D01*
X135890000Y-100828807D01*
X136420235Y-100723337D01*
X136869746Y-100422983D01*
X137160000Y-99988588D01*
X137450254Y-100422983D01*
X137450254Y-100422983D01*
G37*
X137450254Y-100422983D02*
X137654843Y-100559685D01*
X137704755Y-100810607D01*
X137874921Y-101065279D01*
X140234721Y-103425079D01*
X140489393Y-103595245D01*
X140789800Y-103655000D01*
X141687799Y-103655000D01*
X141689990Y-103660303D01*
X142082630Y-104053629D01*
X142595900Y-104266757D01*
X143151661Y-104267242D01*
X143665303Y-104055010D01*
X144058629Y-103662370D01*
X144271757Y-103149100D01*
X144272242Y-102593339D01*
X144060010Y-102079697D01*
X143667370Y-101686371D01*
X143154100Y-101473243D01*
X142598339Y-101472758D01*
X142084697Y-101684990D01*
X141691371Y-102077630D01*
X141688311Y-102085000D01*
X141114958Y-102085000D01*
X140296391Y-101266433D01*
X140457100Y-101298400D01*
X141459100Y-101298400D01*
X141759507Y-101238645D01*
X142014179Y-101068479D01*
X142607836Y-100474822D01*
X142979765Y-100723337D01*
X143510000Y-100828807D01*
X144040235Y-100723337D01*
X144410306Y-100476064D01*
X145005321Y-101071079D01*
X145259994Y-101241245D01*
X145560400Y-101301000D01*
X146536500Y-101301000D01*
X146836907Y-101241245D01*
X147091579Y-101071079D01*
X147687836Y-100474822D01*
X148059765Y-100723337D01*
X148590000Y-100828807D01*
X148905900Y-100765971D01*
X148905900Y-105240900D01*
X148965655Y-105541307D01*
X149135821Y-105795979D01*
X150847273Y-107507431D01*
X150599765Y-107556663D01*
X150150254Y-107857017D01*
X149860000Y-108291412D01*
X149569746Y-107857017D01*
X149120235Y-107556663D01*
X148590000Y-107451193D01*
X148059765Y-107556663D01*
X147610254Y-107857017D01*
X147320000Y-108291412D01*
X147029746Y-107857017D01*
X146580235Y-107556663D01*
X146050000Y-107451193D01*
X145519765Y-107556663D01*
X145070254Y-107857017D01*
X144780000Y-108291412D01*
X144489746Y-107857017D01*
X144040235Y-107556663D01*
X143510000Y-107451193D01*
X142979765Y-107556663D01*
X142530254Y-107857017D01*
X142240000Y-108291412D01*
X141949746Y-107857017D01*
X141500235Y-107556663D01*
X140970000Y-107451193D01*
X140439765Y-107556663D01*
X139990254Y-107857017D01*
X139700000Y-108291412D01*
X139409746Y-107857017D01*
X138960235Y-107556663D01*
X138430000Y-107451193D01*
X137899765Y-107556663D01*
X137450254Y-107857017D01*
X137160000Y-108291412D01*
X136869746Y-107857017D01*
X136420235Y-107556663D01*
X135890000Y-107451193D01*
X135359765Y-107556663D01*
X134910254Y-107857017D01*
X134620000Y-108291412D01*
X134329746Y-107857017D01*
X133880235Y-107556663D01*
X133350000Y-107451193D01*
X132819765Y-107556663D01*
X132370254Y-107857017D01*
X132080000Y-108291412D01*
X131789746Y-107857017D01*
X131340235Y-107556663D01*
X130810000Y-107451193D01*
X130294600Y-107553712D01*
X130294600Y-105637440D01*
X131660000Y-105637440D01*
X131895317Y-105593162D01*
X132111441Y-105454090D01*
X132256431Y-105241890D01*
X132270086Y-105174459D01*
X132299946Y-105219147D01*
X132781715Y-105541054D01*
X133350000Y-105654093D01*
X133918285Y-105541054D01*
X134400054Y-105219147D01*
X134620000Y-104889974D01*
X134839946Y-105219147D01*
X135321715Y-105541054D01*
X135890000Y-105654093D01*
X136458285Y-105541054D01*
X136940054Y-105219147D01*
X137167702Y-104878447D01*
X137234817Y-105021358D01*
X137663076Y-105411645D01*
X138073110Y-105581476D01*
X138303000Y-105460155D01*
X138303000Y-104267000D01*
X138557000Y-104267000D01*
X138557000Y-105460155D01*
X138786890Y-105581476D01*
X139196924Y-105411645D01*
X139625183Y-105021358D01*
X139871486Y-104496892D01*
X139750819Y-104267000D01*
X138557000Y-104267000D01*
X138303000Y-104267000D01*
X138283000Y-104267000D01*
X138283000Y-104013000D01*
X138303000Y-104013000D01*
X138303000Y-102819845D01*
X138557000Y-102819845D01*
X138557000Y-104013000D01*
X139750819Y-104013000D01*
X139871486Y-103783108D01*
X139625183Y-103258642D01*
X139196924Y-102868355D01*
X138786890Y-102698524D01*
X138557000Y-102819845D01*
X138303000Y-102819845D01*
X138073110Y-102698524D01*
X137663076Y-102868355D01*
X137234817Y-103258642D01*
X137167702Y-103401553D01*
X136940054Y-103060853D01*
X136458285Y-102738946D01*
X135890000Y-102625907D01*
X135321715Y-102738946D01*
X134839946Y-103060853D01*
X134620000Y-103390026D01*
X134400054Y-103060853D01*
X133918285Y-102738946D01*
X133350000Y-102625907D01*
X132781715Y-102738946D01*
X132299946Y-103060853D01*
X132272150Y-103102452D01*
X132263162Y-103054683D01*
X132124090Y-102838559D01*
X131911890Y-102693569D01*
X131660000Y-102642560D01*
X130294600Y-102642560D01*
X130294600Y-100726288D01*
X130810000Y-100828807D01*
X131340235Y-100723337D01*
X131789746Y-100422983D01*
X132080000Y-99988588D01*
X132370254Y-100422983D01*
X132819765Y-100723337D01*
X133350000Y-100828807D01*
X133880235Y-100723337D01*
X134329746Y-100422983D01*
X134620000Y-99988588D01*
X134910254Y-100422983D01*
X135359765Y-100723337D01*
X135890000Y-100828807D01*
X136420235Y-100723337D01*
X136869746Y-100422983D01*
X137160000Y-99988588D01*
X137450254Y-100422983D01*
G36*
X156337000Y-98933000D02*
X156357000Y-98933000D01*
X156357000Y-99187000D01*
X156337000Y-99187000D01*
X156337000Y-100629479D01*
X156551275Y-100752133D01*
X156622903Y-100737950D01*
X157099944Y-100478798D01*
X157441499Y-100056817D01*
X157468399Y-99965928D01*
X157469900Y-99973472D01*
X157770254Y-100422983D01*
X158219765Y-100723337D01*
X158750000Y-100828807D01*
X159280235Y-100723337D01*
X159729746Y-100422983D01*
X160020000Y-99988588D01*
X160310254Y-100422983D01*
X160759765Y-100723337D01*
X161290000Y-100828807D01*
X161820235Y-100723337D01*
X162269746Y-100422983D01*
X162560000Y-99988588D01*
X162850254Y-100422983D01*
X163299765Y-100723337D01*
X163830000Y-100828807D01*
X164360235Y-100723337D01*
X164711602Y-100488560D01*
X166714321Y-102491279D01*
X166968994Y-102661445D01*
X167039770Y-102675523D01*
X166952662Y-102885301D01*
X166952338Y-103257267D01*
X167094383Y-103601043D01*
X167332400Y-103839476D01*
X167332400Y-104033299D01*
X167284100Y-104013243D01*
X166728339Y-104012758D01*
X166214697Y-104224990D01*
X165821371Y-104617630D01*
X165608243Y-105130900D01*
X165607758Y-105686661D01*
X165610805Y-105694037D01*
X164774742Y-106530100D01*
X156591557Y-106530100D01*
X156299472Y-106238015D01*
X156374792Y-106162827D01*
X156517438Y-105819299D01*
X156517762Y-105447333D01*
X156375717Y-105103557D01*
X156112927Y-104840308D01*
X155769399Y-104697662D01*
X155466356Y-104697398D01*
X154903301Y-104134343D01*
X155095303Y-104055010D01*
X155345750Y-103805000D01*
X158995586Y-103805000D01*
X159234113Y-104043944D01*
X159743184Y-104255329D01*
X160294398Y-104255810D01*
X160803837Y-104045314D01*
X161007576Y-103841930D01*
X161767675Y-103841930D01*
X161835735Y-104082931D01*
X162355034Y-104267767D01*
X162905538Y-104239805D01*
X163284265Y-104082931D01*
X163352325Y-103841930D01*
X162560000Y-103049605D01*
X161767675Y-103841930D01*
X161007576Y-103841930D01*
X161193944Y-103655887D01*
X161283379Y-103440504D01*
X161347069Y-103594265D01*
X161588070Y-103662325D01*
X162380395Y-102870000D01*
X162739605Y-102870000D01*
X163531930Y-103662325D01*
X163772931Y-103594265D01*
X163957767Y-103074966D01*
X163929805Y-102524462D01*
X163772931Y-102145735D01*
X163531930Y-102077675D01*
X162739605Y-102870000D01*
X162380395Y-102870000D01*
X161588070Y-102077675D01*
X161347069Y-102145735D01*
X161288231Y-102311040D01*
X161195314Y-102086163D01*
X161007549Y-101898070D01*
X161767675Y-101898070D01*
X162560000Y-102690395D01*
X163352325Y-101898070D01*
X163284265Y-101657069D01*
X162764966Y-101472233D01*
X162214462Y-101500195D01*
X161835735Y-101657069D01*
X161767675Y-101898070D01*
X161007549Y-101898070D01*
X160805887Y-101696056D01*
X160296816Y-101484671D01*
X159745602Y-101484190D01*
X159236163Y-101694686D01*
X158995429Y-101935000D01*
X155345565Y-101935000D01*
X155240000Y-101829250D01*
X155240000Y-101395200D01*
X155168827Y-101037391D01*
X154966145Y-100734055D01*
X154651880Y-100419790D01*
X154950100Y-99973472D01*
X154951601Y-99965928D01*
X154978501Y-100056817D01*
X155320056Y-100478798D01*
X155797097Y-100737950D01*
X155868725Y-100752133D01*
X156083000Y-100629479D01*
X156083000Y-99187000D01*
X156063000Y-99187000D01*
X156063000Y-98933000D01*
X156083000Y-98933000D01*
X156083000Y-98913000D01*
X156337000Y-98913000D01*
X156337000Y-98933000D01*
X156337000Y-98933000D01*
G37*
X156337000Y-98933000D02*
X156357000Y-98933000D01*
X156357000Y-99187000D01*
X156337000Y-99187000D01*
X156337000Y-100629479D01*
X156551275Y-100752133D01*
X156622903Y-100737950D01*
X157099944Y-100478798D01*
X157441499Y-100056817D01*
X157468399Y-99965928D01*
X157469900Y-99973472D01*
X157770254Y-100422983D01*
X158219765Y-100723337D01*
X158750000Y-100828807D01*
X159280235Y-100723337D01*
X159729746Y-100422983D01*
X160020000Y-99988588D01*
X160310254Y-100422983D01*
X160759765Y-100723337D01*
X161290000Y-100828807D01*
X161820235Y-100723337D01*
X162269746Y-100422983D01*
X162560000Y-99988588D01*
X162850254Y-100422983D01*
X163299765Y-100723337D01*
X163830000Y-100828807D01*
X164360235Y-100723337D01*
X164711602Y-100488560D01*
X166714321Y-102491279D01*
X166968994Y-102661445D01*
X167039770Y-102675523D01*
X166952662Y-102885301D01*
X166952338Y-103257267D01*
X167094383Y-103601043D01*
X167332400Y-103839476D01*
X167332400Y-104033299D01*
X167284100Y-104013243D01*
X166728339Y-104012758D01*
X166214697Y-104224990D01*
X165821371Y-104617630D01*
X165608243Y-105130900D01*
X165607758Y-105686661D01*
X165610805Y-105694037D01*
X164774742Y-106530100D01*
X156591557Y-106530100D01*
X156299472Y-106238015D01*
X156374792Y-106162827D01*
X156517438Y-105819299D01*
X156517762Y-105447333D01*
X156375717Y-105103557D01*
X156112927Y-104840308D01*
X155769399Y-104697662D01*
X155466356Y-104697398D01*
X154903301Y-104134343D01*
X155095303Y-104055010D01*
X155345750Y-103805000D01*
X158995586Y-103805000D01*
X159234113Y-104043944D01*
X159743184Y-104255329D01*
X160294398Y-104255810D01*
X160803837Y-104045314D01*
X161007576Y-103841930D01*
X161767675Y-103841930D01*
X161835735Y-104082931D01*
X162355034Y-104267767D01*
X162905538Y-104239805D01*
X163284265Y-104082931D01*
X163352325Y-103841930D01*
X162560000Y-103049605D01*
X161767675Y-103841930D01*
X161007576Y-103841930D01*
X161193944Y-103655887D01*
X161283379Y-103440504D01*
X161347069Y-103594265D01*
X161588070Y-103662325D01*
X162380395Y-102870000D01*
X162739605Y-102870000D01*
X163531930Y-103662325D01*
X163772931Y-103594265D01*
X163957767Y-103074966D01*
X163929805Y-102524462D01*
X163772931Y-102145735D01*
X163531930Y-102077675D01*
X162739605Y-102870000D01*
X162380395Y-102870000D01*
X161588070Y-102077675D01*
X161347069Y-102145735D01*
X161288231Y-102311040D01*
X161195314Y-102086163D01*
X161007549Y-101898070D01*
X161767675Y-101898070D01*
X162560000Y-102690395D01*
X163352325Y-101898070D01*
X163284265Y-101657069D01*
X162764966Y-101472233D01*
X162214462Y-101500195D01*
X161835735Y-101657069D01*
X161767675Y-101898070D01*
X161007549Y-101898070D01*
X160805887Y-101696056D01*
X160296816Y-101484671D01*
X159745602Y-101484190D01*
X159236163Y-101694686D01*
X158995429Y-101935000D01*
X155345565Y-101935000D01*
X155240000Y-101829250D01*
X155240000Y-101395200D01*
X155168827Y-101037391D01*
X154966145Y-100734055D01*
X154651880Y-100419790D01*
X154950100Y-99973472D01*
X154951601Y-99965928D01*
X154978501Y-100056817D01*
X155320056Y-100478798D01*
X155797097Y-100737950D01*
X155868725Y-100752133D01*
X156083000Y-100629479D01*
X156083000Y-99187000D01*
X156063000Y-99187000D01*
X156063000Y-98933000D01*
X156083000Y-98933000D01*
X156083000Y-98913000D01*
X156337000Y-98913000D01*
X156337000Y-98933000D01*
M02*
