G04 #@! TF.FileFunction,Legend,Bot*
%FSLAX46Y46*%
G04 Gerber Fmt 4.6, Leading zero omitted, Abs format (unit mm)*
G04 Created by KiCad (PCBNEW 4.0.7-e2-6376~60~ubuntu17.10.1) date Tue May  8 18:10:41 2018*
%MOMM*%
%LPD*%
G01*
G04 APERTURE LIST*
%ADD10C,0.100000*%
%ADD11C,0.120000*%
%ADD12C,0.150000*%
G04 APERTURE END LIST*
D10*
D11*
X129480000Y-115630000D02*
X129480000Y-112970000D01*
X177800000Y-115630000D02*
X129480000Y-115630000D01*
X177800000Y-112970000D02*
X129480000Y-112970000D01*
X177800000Y-115630000D02*
X177800000Y-112970000D01*
X179070000Y-115630000D02*
X180400000Y-115630000D01*
X180400000Y-115630000D02*
X180400000Y-114300000D01*
X180400000Y-128210000D02*
X180400000Y-130870000D01*
X132080000Y-128210000D02*
X180400000Y-128210000D01*
X132080000Y-130870000D02*
X180400000Y-130870000D01*
X132080000Y-128210000D02*
X132080000Y-130870000D01*
X130810000Y-128210000D02*
X129480000Y-128210000D01*
X129480000Y-128210000D02*
X129480000Y-129540000D01*
D12*
X181852381Y-113561905D02*
X180852381Y-113561905D01*
X180852381Y-113942858D01*
X180900000Y-114038096D01*
X180947619Y-114085715D01*
X181042857Y-114133334D01*
X181185714Y-114133334D01*
X181280952Y-114085715D01*
X181328571Y-114038096D01*
X181376190Y-113942858D01*
X181376190Y-113561905D01*
X181852381Y-115085715D02*
X181852381Y-114514286D01*
X181852381Y-114800000D02*
X180852381Y-114800000D01*
X180995238Y-114704762D01*
X181090476Y-114609524D01*
X181138095Y-114514286D01*
X128932381Y-128801905D02*
X127932381Y-128801905D01*
X127932381Y-129182858D01*
X127980000Y-129278096D01*
X128027619Y-129325715D01*
X128122857Y-129373334D01*
X128265714Y-129373334D01*
X128360952Y-129325715D01*
X128408571Y-129278096D01*
X128456190Y-129182858D01*
X128456190Y-128801905D01*
X127932381Y-129706667D02*
X127932381Y-130325715D01*
X128313333Y-129992381D01*
X128313333Y-130135239D01*
X128360952Y-130230477D01*
X128408571Y-130278096D01*
X128503810Y-130325715D01*
X128741905Y-130325715D01*
X128837143Y-130278096D01*
X128884762Y-130230477D01*
X128932381Y-130135239D01*
X128932381Y-129849524D01*
X128884762Y-129754286D01*
X128837143Y-129706667D01*
M02*
